<?xml version="1.0" encoding="UTF-8"?>
<svg id="Layer_1" xmlns="http://www.w3.org/2000/svg" version="1.1" viewBox="0 0 881.25 634.33">
  <!-- Generator: Adobe Illustrator 29.6.1, SVG Export Plug-In . SVG Version: 2.1.1 Build 9)  -->
  <defs>
    <style>
      .st0 {
        fill: #a1a09f;
      }

      .st1, .st2, .st3, .st4, .st5, .st6 {
        fill: none;
      }

      .st7 {
        fill: #b5b9be;
      }

      .st7, .st8, .st9, .st10, .st11, .st12, .st13, .st14, .st15, .st3, .st16, .st17, .st18, .st19 {
        stroke: #788088;
      }

      .st7, .st8, .st9, .st11, .st20, .st21, .st22, .st13, .st14, .st23, .st2, .st24, .st17, .st18, .st4, .st19, .st25, .st5, .st6 {
        stroke-miterlimit: 10;
      }

      .st8, .st15 {
        fill: #f7f8f8;
      }

      .st26, .st12, .st27 {
        fill: #e4e5e7;
      }

      .st28, .st29 {
        fill: #53595e;
      }

      .st30, .st31 {
        fill: #656c73;
      }

      .st9, .st32 {
        fill: #cccfd2;
      }

      .st33 {
        fill: #8c939a;
      }

      .st34 {
        stroke-miterlimit: 10;
        stroke-width: .75px;
      }

      .st34, .st35 {
        fill: #dadbdc;
      }

      .st34, .st35, .st20, .st23 {
        stroke: #61615f;
      }

      .st35 {
        stroke-miterlimit: 10;
        stroke-width: .75px;
      }

      .st36 {
        fill: #e6e6e6;
      }

      .st31, .st32, .st37, .st38, .st21, .st39, .st40, .st41, .st42, .st43, .st44, .st45, .st46, .st47, .st48, .st49, .st50, .st27, .st29, .st51, .st25, .st52, .st53 {
        isolation: isolate;
      }

      .st31, .st54, .st50 {
        opacity: .85;
      }

      .st32 {
        opacity: .29;
      }

      .st32, .st37, .st38, .st21, .st39, .st42, .st43, .st44, .st47, .st48, .st49, .st27, .st29, .st51, .st25, .st52 {
        mix-blend-mode: multiply;
      }

      .st10, .st55, .st12, .st15, .st3, .st16 {
        stroke-linecap: round;
        stroke-linejoin: round;
      }

      .st10, .st49, .st56 {
        fill: #d5d8db;
      }

      .st55 {
        stroke: #abb0b5;
        stroke-width: .15px;
      }

      .st55, .st57, .st18 {
        fill: #a2a8ae;
      }

      .st58 {
        fill: #efefef;
      }

      .st59 {
        fill: #b3b3b2;
      }

      .st11 {
        stroke-width: 1.42px;
      }

      .st11, .st20, .st22, .st60, .st13, .st39, .st45, .st46, .st24 {
        fill: #788088;
      }

      .st20 {
        stroke-width: .71px;
      }

      .st61 {
        fill: #968e7f;
      }

      .st37 {
        fill: #787877;
        opacity: .25;
      }

      .st62 {
        fill: #fbfcfc;
      }

      .st38, .st21, .st42, .st43, .st44, .st25 {
        fill: #b8b8b7;
      }

      .st63 {
        fill: #f9fafa;
      }

      .st21 {
        opacity: .33;
      }

      .st21, .st25 {
        stroke: #c3c6ca;
      }

      .st22 {
        stroke: #e4e5e7;
      }

      .st22, .st24 {
        stroke-width: .75px;
      }

      .st64 {
        fill: #8d9297;
      }

      .st65 {
        fill: #c5c9cd;
      }

      .st39 {
        opacity: .68;
      }

      .st14 {
        stroke-width: .64px;
      }

      .st14, .st66, .st47, .st48, .st19 {
        fill: #c3c6ca;
      }

      .st41 {
        opacity: .72;
      }

      .st41, .st67 {
        fill: #d8dbdd;
      }

      .st23 {
        fill: #f4f4f4;
        stroke-width: .78px;
      }

      .st68 {
        fill: #abb0b5;
      }

      .st42, .st27, .st25 {
        opacity: .37;
      }

      .st43, .st53 {
        opacity: .31;
      }

      .st44 {
        opacity: .27;
      }

      .st69, .st53 {
        fill: #fff;
      }

      .st70 {
        fill: #61615f;
      }

      .st45 {
        opacity: .73;
      }

      .st46 {
        opacity: .79;
      }

      .st2 {
        stroke: #656c73;
        stroke-width: .76px;
      }

      .st47 {
        opacity: .36;
      }

      .st48 {
        opacity: .38;
      }

      .st49 {
        opacity: .35;
      }

      .st50 {
        fill: #eeeff0;
      }

      .st16, .st17 {
        fill: #b0b5ba;
      }

      .st71 {
        fill: #c2c6c9;
      }

      .st29 {
        opacity: .28;
      }

      .st51 {
        fill: #babdc0;
        opacity: .57;
      }

      .st72 {
        fill: #787876;
      }

      .st24 {
        stroke: #d5d8db;
      }

      .st4 {
        stroke: #53595e;
      }

      .st5 {
        stroke-width: .25px;
      }

      .st5, .st6 {
        stroke: #a2a8ae;
      }

      .st6 {
        stroke-width: .83px;
      }

      .st52 {
        fill: #929291;
        opacity: .32;
      }
    </style>
  </defs>
  <g class="st40">
    <g id="muro_sfondo">
      <g>
        <rect class="st36" y="0" width="879.86" height="494.92"/>
        <g>
          <g>
            <polygon class="st58" points="217.48 19.7 177.13 19.7 178.19 4.26 219.6 2.97 217.48 19.7"/>
            <polygon class="st58" points="129.87 19.7 89.52 19.7 90.58 4.26 132 2.97 129.87 19.7"/>
            <polygon class="st58" points="43.62 19.7 3.27 19.7 4.33 4.26 45.75 2.97 43.62 19.7"/>
            <polygon class="st58" points="174.82 20.8 135.53 20.8 134.3 4.07 173.76 2.97 174.82 20.8"/>
            <polygon class="st58" points="46.69 20.8 85.98 20.8 87.22 4.07 47.75 2.97 46.69 20.8"/>
          </g>
          <g>
            <polygon class="st58" points="436.48 19.7 396.13 19.7 397.19 4.26 438.61 2.97 436.48 19.7"/>
            <polygon class="st58" points="348.88 19.7 308.53 19.7 309.59 4.26 351 2.97 348.88 19.7"/>
            <polygon class="st58" points="262.63 19.7 222.28 19.7 223.34 4.26 264.75 2.97 262.63 19.7"/>
            <polygon class="st58" points="393.83 20.8 354.54 20.8 353.3 4.07 392.77 2.97 393.83 20.8"/>
            <polygon class="st58" points="265.7 20.8 304.99 20.8 306.22 4.07 266.76 2.97 265.7 20.8"/>
          </g>
          <g>
            <polygon class="st58" points="655.49 19.7 615.14 19.7 616.2 4.26 657.61 2.97 655.49 19.7"/>
            <polygon class="st58" points="567.88 19.7 527.53 19.7 528.59 4.26 570.01 2.97 567.88 19.7"/>
            <polygon class="st58" points="481.63 19.7 441.28 19.7 442.34 4.26 483.76 2.97 481.63 19.7"/>
            <polygon class="st58" points="612.84 20.8 573.55 20.8 572.31 4.07 611.77 2.97 612.84 20.8"/>
            <polygon class="st58" points="484.7 20.8 523.99 20.8 525.23 4.07 485.76 2.97 484.7 20.8"/>
          </g>
          <g>
            <polygon class="st58" points="874.49 19.7 834.14 19.7 835.2 4.26 876.62 2.97 874.49 19.7"/>
            <polygon class="st58" points="786.89 19.7 746.54 19.7 747.6 4.26 789.01 2.97 786.89 19.7"/>
            <polygon class="st58" points="700.64 19.7 660.29 19.7 661.35 4.26 702.76 2.97 700.64 19.7"/>
            <polygon class="st58" points="831.84 20.8 792.55 20.8 791.31 4.07 830.78 2.97 831.84 20.8"/>
            <polygon class="st58" points="703.71 20.8 743 20.8 744.24 4.07 704.77 2.97 703.71 20.8"/>
          </g>
        </g>
        <g>
          <g>
            <polygon class="st58" points="231.86 40.05 191.51 40.05 192.57 24.61 233.98 23.33 231.86 40.05"/>
            <polygon class="st58" points="144.25 40.05 103.9 40.05 104.96 24.61 146.38 23.33 144.25 40.05"/>
            <polygon class="st58" points="58 40.05 17.65 40.05 18.71 24.61 60.13 23.33 58 40.05"/>
            <polygon class="st58" points="189.2 41.15 149.91 41.15 148.68 24.43 188.14 23.33 189.2 41.15"/>
            <polygon class="st58" points="61.07 41.15 100.36 41.15 101.6 24.43 62.13 23.33 61.07 41.15"/>
          </g>
          <g>
            <polygon class="st58" points="450.86 40.05 410.51 40.05 411.57 24.61 452.99 23.33 450.86 40.05"/>
            <polygon class="st58" points="363.26 40.05 322.91 40.05 323.97 24.61 365.38 23.33 363.26 40.05"/>
            <polygon class="st58" points="277.01 40.05 236.66 40.05 237.72 24.61 279.13 23.33 277.01 40.05"/>
            <polygon class="st58" points="408.21 41.15 368.92 41.15 367.68 24.43 407.15 23.33 408.21 41.15"/>
            <polygon class="st58" points="280.08 41.15 319.37 41.15 320.6 24.43 281.14 23.33 280.08 41.15"/>
          </g>
          <g>
            <polygon class="st58" points="669.87 40.05 629.52 40.05 630.58 24.61 671.99 23.33 669.87 40.05"/>
            <polygon class="st58" points="582.26 40.05 541.91 40.05 542.97 24.61 584.39 23.33 582.26 40.05"/>
            <polygon class="st58" points="496.01 40.05 455.66 40.05 456.72 24.61 498.14 23.33 496.01 40.05"/>
            <polygon class="st58" points="627.22 41.15 587.93 41.15 586.69 24.43 626.15 23.33 627.22 41.15"/>
            <polygon class="st58" points="499.08 41.15 538.37 41.15 539.61 24.43 500.14 23.33 499.08 41.15"/>
          </g>
          <g>
            <polygon class="st58" points="879.86 23.67 879.86 40.05 848.52 40.05 849.58 24.61 879.86 23.67"/>
            <polygon class="st58" points="801.27 40.05 760.92 40.05 761.98 24.61 803.39 23.33 801.27 40.05"/>
            <polygon class="st58" points="715.02 40.05 674.67 40.05 675.73 24.61 717.14 23.33 715.02 40.05"/>
            <polygon class="st58" points="846.22 41.15 806.93 41.15 805.69 24.43 845.16 23.33 846.22 41.15"/>
            <polygon class="st58" points="718.09 41.15 757.38 41.15 758.62 24.43 719.15 23.33 718.09 41.15"/>
          </g>
        </g>
        <g>
          <g>
            <polygon class="st58" points="217.48 60.41 177.13 60.41 178.19 44.97 219.6 43.68 217.48 60.41"/>
            <polygon class="st58" points="129.87 60.41 89.52 60.41 90.58 44.97 132 43.68 129.87 60.41"/>
            <polygon class="st58" points="43.62 60.41 3.27 60.41 4.33 44.97 45.75 43.68 43.62 60.41"/>
            <polygon class="st58" points="174.82 61.51 135.53 61.51 134.3 44.79 173.76 43.68 174.82 61.51"/>
            <polygon class="st58" points="46.69 61.51 85.98 61.51 87.22 44.79 47.75 43.68 46.69 61.51"/>
          </g>
          <g>
            <polygon class="st58" points="436.48 60.41 396.13 60.41 397.19 44.97 438.61 43.68 436.48 60.41"/>
            <polygon class="st58" points="348.88 60.41 308.53 60.41 309.59 44.97 351 43.68 348.88 60.41"/>
            <polygon class="st58" points="262.63 60.41 222.28 60.41 223.34 44.97 264.75 43.68 262.63 60.41"/>
            <polygon class="st58" points="393.83 61.51 354.54 61.51 353.3 44.79 392.77 43.68 393.83 61.51"/>
            <polygon class="st58" points="265.7 61.51 304.99 61.51 306.22 44.79 266.76 43.68 265.7 61.51"/>
          </g>
          <g>
            <polygon class="st58" points="655.49 60.41 615.14 60.41 616.2 44.97 657.61 43.68 655.49 60.41"/>
            <polygon class="st58" points="567.88 60.41 527.53 60.41 528.59 44.97 570.01 43.68 567.88 60.41"/>
            <polygon class="st58" points="481.63 60.41 441.28 60.41 442.34 44.97 483.76 43.68 481.63 60.41"/>
            <polygon class="st58" points="612.84 61.51 573.55 61.51 572.31 44.79 611.77 43.68 612.84 61.51"/>
            <polygon class="st58" points="484.7 61.51 523.99 61.51 525.23 44.79 485.76 43.68 484.7 61.51"/>
          </g>
          <g>
            <polygon class="st58" points="874.49 60.41 834.14 60.41 835.2 44.97 876.62 43.68 874.49 60.41"/>
            <polygon class="st58" points="786.89 60.41 746.54 60.41 747.6 44.97 789.01 43.68 786.89 60.41"/>
            <polygon class="st58" points="700.64 60.41 660.29 60.41 661.35 44.97 702.76 43.68 700.64 60.41"/>
            <polygon class="st58" points="831.84 61.51 792.55 61.51 791.31 44.79 830.78 43.68 831.84 61.51"/>
            <polygon class="st58" points="703.71 61.51 743 61.51 744.24 44.79 704.77 43.68 703.71 61.51"/>
          </g>
        </g>
        <g>
          <g>
            <polygon class="st58" points="231.86 80.76 191.51 80.76 192.57 65.33 233.98 64.04 231.86 80.76"/>
            <polygon class="st58" points="144.25 80.76 103.9 80.76 104.96 65.33 146.38 64.04 144.25 80.76"/>
            <polygon class="st58" points="58 80.76 17.65 80.76 18.71 65.33 60.13 64.04 58 80.76"/>
            <polygon class="st58" points="189.2 81.87 149.91 81.87 148.68 65.14 188.14 64.04 189.2 81.87"/>
            <polygon class="st58" points="61.07 81.87 100.36 81.87 101.6 65.14 62.13 64.04 61.07 81.87"/>
          </g>
          <g>
            <polygon class="st58" points="450.86 80.76 410.51 80.76 411.57 65.33 452.99 64.04 450.86 80.76"/>
            <polygon class="st58" points="363.26 80.76 322.91 80.76 323.97 65.33 365.38 64.04 363.26 80.76"/>
            <polygon class="st58" points="277.01 80.76 236.66 80.76 237.72 65.33 279.13 64.04 277.01 80.76"/>
            <polygon class="st58" points="408.21 81.87 368.92 81.87 367.68 65.14 407.15 64.04 408.21 81.87"/>
            <polygon class="st58" points="280.08 81.87 319.37 81.87 320.6 65.14 281.14 64.04 280.08 81.87"/>
          </g>
          <g>
            <polygon class="st58" points="669.87 80.76 629.52 80.76 630.58 65.33 671.99 64.04 669.87 80.76"/>
            <polygon class="st58" points="582.26 80.76 541.91 80.76 542.97 65.33 584.39 64.04 582.26 80.76"/>
            <polygon class="st58" points="496.01 80.76 455.66 80.76 456.72 65.33 498.14 64.04 496.01 80.76"/>
            <polygon class="st58" points="627.22 81.87 587.93 81.87 586.69 65.14 626.15 64.04 627.22 81.87"/>
            <polygon class="st58" points="499.08 81.87 538.37 81.87 539.61 65.14 500.14 64.04 499.08 81.87"/>
          </g>
          <g>
            <polygon class="st58" points="879.86 64.39 879.86 80.76 848.52 80.76 849.58 65.33 879.86 64.39"/>
            <polygon class="st58" points="801.27 80.76 760.92 80.76 761.98 65.33 803.39 64.04 801.27 80.76"/>
            <polygon class="st58" points="715.02 80.76 674.67 80.76 675.73 65.33 717.14 64.04 715.02 80.76"/>
            <polygon class="st58" points="846.22 81.87 806.93 81.87 805.69 65.14 845.16 64.04 846.22 81.87"/>
            <polygon class="st58" points="718.09 81.87 757.38 81.87 758.62 65.14 719.15 64.04 718.09 81.87"/>
          </g>
        </g>
        <g>
          <g>
            <polygon class="st58" points="217.48 101.12 177.13 101.12 178.19 85.68 219.6 84.4 217.48 101.12"/>
            <polygon class="st58" points="129.87 101.12 89.52 101.12 90.58 85.68 132 84.4 129.87 101.12"/>
            <polygon class="st58" points="43.62 101.12 3.27 101.12 4.33 85.68 45.75 84.4 43.62 101.12"/>
            <polygon class="st58" points="174.82 102.22 135.53 102.22 134.3 85.5 173.76 84.4 174.82 102.22"/>
            <polygon class="st58" points="46.69 102.22 85.98 102.22 87.22 85.5 47.75 84.4 46.69 102.22"/>
          </g>
          <g>
            <polygon class="st58" points="436.48 101.12 396.13 101.12 397.19 85.68 438.61 84.4 436.48 101.12"/>
            <polygon class="st58" points="348.88 101.12 308.53 101.12 309.59 85.68 351 84.4 348.88 101.12"/>
            <polygon class="st58" points="262.63 101.12 222.28 101.12 223.34 85.68 264.75 84.4 262.63 101.12"/>
            <polygon class="st58" points="393.83 102.22 354.54 102.22 353.3 85.5 392.77 84.4 393.83 102.22"/>
            <polygon class="st58" points="265.7 102.22 304.99 102.22 306.22 85.5 266.76 84.4 265.7 102.22"/>
          </g>
          <g>
            <polygon class="st58" points="655.49 101.12 615.14 101.12 616.2 85.68 657.61 84.4 655.49 101.12"/>
            <polygon class="st58" points="567.88 101.12 527.53 101.12 528.59 85.68 570.01 84.4 567.88 101.12"/>
            <polygon class="st58" points="481.63 101.12 441.28 101.12 442.34 85.68 483.76 84.4 481.63 101.12"/>
            <polygon class="st58" points="612.84 102.22 573.55 102.22 572.31 85.5 611.77 84.4 612.84 102.22"/>
            <polygon class="st58" points="484.7 102.22 523.99 102.22 525.23 85.5 485.76 84.4 484.7 102.22"/>
          </g>
          <g>
            <polygon class="st58" points="874.49 101.12 834.14 101.12 835.2 85.68 876.62 84.4 874.49 101.12"/>
            <polygon class="st58" points="786.89 101.12 746.54 101.12 747.6 85.68 789.01 84.4 786.89 101.12"/>
            <polygon class="st58" points="700.64 101.12 660.29 101.12 661.35 85.68 702.76 84.4 700.64 101.12"/>
            <polygon class="st58" points="831.84 102.22 792.55 102.22 791.31 85.5 830.78 84.4 831.84 102.22"/>
            <polygon class="st58" points="703.71 102.22 743 102.22 744.24 85.5 704.77 84.4 703.71 102.22"/>
          </g>
        </g>
        <g>
          <g>
            <polygon class="st58" points="231.86 121.48 191.51 121.48 192.57 106.04 233.98 104.75 231.86 121.48"/>
            <polygon class="st58" points="144.25 121.48 103.9 121.48 104.96 106.04 146.38 104.75 144.25 121.48"/>
            <polygon class="st58" points="58 121.48 17.65 121.48 18.71 106.04 60.13 104.75 58 121.48"/>
            <polygon class="st58" points="189.2 122.58 149.91 122.58 148.68 105.86 188.14 104.75 189.2 122.58"/>
            <polygon class="st58" points="61.07 122.58 100.36 122.58 101.6 105.86 62.13 104.75 61.07 122.58"/>
          </g>
          <g>
            <polygon class="st58" points="450.86 121.48 410.51 121.48 411.57 106.04 452.99 104.75 450.86 121.48"/>
            <polygon class="st58" points="363.26 121.48 322.91 121.48 323.97 106.04 365.38 104.75 363.26 121.48"/>
            <polygon class="st58" points="277.01 121.48 236.66 121.48 237.72 106.04 279.13 104.75 277.01 121.48"/>
            <polygon class="st58" points="408.21 122.58 368.92 122.58 367.68 105.86 407.15 104.75 408.21 122.58"/>
            <polygon class="st58" points="280.08 122.58 319.37 122.58 320.6 105.86 281.14 104.75 280.08 122.58"/>
          </g>
          <g>
            <polygon class="st58" points="669.87 121.48 629.52 121.48 630.58 106.04 671.99 104.75 669.87 121.48"/>
            <polygon class="st58" points="582.26 121.48 541.91 121.48 542.97 106.04 584.39 104.75 582.26 121.48"/>
            <polygon class="st58" points="496.01 121.48 455.66 121.48 456.72 106.04 498.14 104.75 496.01 121.48"/>
            <polygon class="st58" points="627.22 122.58 587.93 122.58 586.69 105.86 626.15 104.75 627.22 122.58"/>
            <polygon class="st58" points="499.08 122.58 538.37 122.58 539.61 105.86 500.14 104.75 499.08 122.58"/>
          </g>
          <g>
            <polygon class="st58" points="879.86 105.1 879.86 121.48 848.52 121.48 849.58 106.04 879.86 105.1"/>
            <polygon class="st58" points="801.27 121.48 760.92 121.48 761.98 106.04 803.39 104.75 801.27 121.48"/>
            <polygon class="st58" points="715.02 121.48 674.67 121.48 675.73 106.04 717.14 104.75 715.02 121.48"/>
            <polygon class="st58" points="846.22 122.58 806.93 122.58 805.69 105.86 845.16 104.75 846.22 122.58"/>
            <polygon class="st58" points="718.09 122.58 757.38 122.58 758.62 105.86 719.15 104.75 718.09 122.58"/>
          </g>
        </g>
        <g>
          <g>
            <polygon class="st58" points="217.48 141.83 177.13 141.83 178.19 126.4 219.6 125.11 217.48 141.83"/>
            <polygon class="st58" points="129.87 141.83 89.52 141.83 90.58 126.4 132 125.11 129.87 141.83"/>
            <polygon class="st58" points="43.62 141.83 3.27 141.83 4.33 126.4 45.75 125.11 43.62 141.83"/>
            <polygon class="st58" points="174.82 142.94 135.53 142.94 134.3 126.21 173.76 125.11 174.82 142.94"/>
            <polygon class="st58" points="46.69 142.94 85.98 142.94 87.22 126.21 47.75 125.11 46.69 142.94"/>
          </g>
          <g>
            <polygon class="st58" points="436.48 141.83 396.13 141.83 397.19 126.4 438.61 125.11 436.48 141.83"/>
            <polygon class="st58" points="348.88 141.83 308.53 141.83 309.59 126.4 351 125.11 348.88 141.83"/>
            <polygon class="st58" points="262.63 141.83 222.28 141.83 223.34 126.4 264.75 125.11 262.63 141.83"/>
            <polygon class="st58" points="393.83 142.94 354.54 142.94 353.3 126.21 392.77 125.11 393.83 142.94"/>
            <polygon class="st58" points="265.7 142.94 304.99 142.94 306.22 126.21 266.76 125.11 265.7 142.94"/>
          </g>
          <g>
            <polygon class="st58" points="655.49 141.83 615.14 141.83 616.2 126.4 657.61 125.11 655.49 141.83"/>
            <polygon class="st58" points="567.88 141.83 527.53 141.83 528.59 126.4 570.01 125.11 567.88 141.83"/>
            <polygon class="st58" points="481.63 141.83 441.28 141.83 442.34 126.4 483.76 125.11 481.63 141.83"/>
            <polygon class="st58" points="612.84 142.94 573.55 142.94 572.31 126.21 611.77 125.11 612.84 142.94"/>
            <polygon class="st58" points="484.7 142.94 523.99 142.94 525.23 126.21 485.76 125.11 484.7 142.94"/>
          </g>
          <g>
            <polygon class="st58" points="874.49 141.83 834.14 141.83 835.2 126.4 876.62 125.11 874.49 141.83"/>
            <polygon class="st58" points="786.89 141.83 746.54 141.83 747.6 126.4 789.01 125.11 786.89 141.83"/>
            <polygon class="st58" points="700.64 141.83 660.29 141.83 661.35 126.4 702.76 125.11 700.64 141.83"/>
            <polygon class="st58" points="831.84 142.94 792.55 142.94 791.31 126.21 830.78 125.11 831.84 142.94"/>
            <polygon class="st58" points="703.71 142.94 743 142.94 744.24 126.21 704.77 125.11 703.71 142.94"/>
          </g>
        </g>
        <g>
          <g>
            <polygon class="st58" points="231.86 162.19 191.51 162.19 192.57 146.75 233.98 145.47 231.86 162.19"/>
            <polygon class="st58" points="144.25 162.19 103.9 162.19 104.96 146.75 146.38 145.47 144.25 162.19"/>
            <polygon class="st58" points="58 162.19 17.65 162.19 18.71 146.75 60.13 145.47 58 162.19"/>
            <polygon class="st58" points="189.2 163.29 149.91 163.29 148.68 146.57 188.14 145.47 189.2 163.29"/>
            <polygon class="st58" points="61.07 163.29 100.36 163.29 101.6 146.57 62.13 145.47 61.07 163.29"/>
          </g>
          <g>
            <polygon class="st58" points="450.86 162.19 410.51 162.19 411.57 146.75 452.99 145.47 450.86 162.19"/>
            <polygon class="st58" points="363.26 162.19 322.91 162.19 323.97 146.75 365.38 145.47 363.26 162.19"/>
            <polygon class="st58" points="277.01 162.19 236.66 162.19 237.72 146.75 279.13 145.47 277.01 162.19"/>
            <polygon class="st58" points="408.21 163.29 368.92 163.29 367.68 146.57 407.15 145.47 408.21 163.29"/>
            <polygon class="st58" points="280.08 163.29 319.37 163.29 320.6 146.57 281.14 145.47 280.08 163.29"/>
          </g>
          <g>
            <polygon class="st58" points="669.87 162.19 629.52 162.19 630.58 146.75 671.99 145.47 669.87 162.19"/>
            <polygon class="st58" points="582.26 162.19 541.91 162.19 542.97 146.75 584.39 145.47 582.26 162.19"/>
            <polygon class="st58" points="496.01 162.19 455.66 162.19 456.72 146.75 498.14 145.47 496.01 162.19"/>
            <polygon class="st58" points="627.22 163.29 587.93 163.29 586.69 146.57 626.15 145.47 627.22 163.29"/>
            <polygon class="st58" points="499.08 163.29 538.37 163.29 539.61 146.57 500.14 145.47 499.08 163.29"/>
          </g>
          <g>
            <polygon class="st58" points="879.86 145.81 879.86 162.19 848.52 162.19 849.58 146.75 879.86 145.81"/>
            <polygon class="st58" points="801.27 162.19 760.92 162.19 761.98 146.75 803.39 145.47 801.27 162.19"/>
            <polygon class="st58" points="715.02 162.19 674.67 162.19 675.73 146.75 717.14 145.47 715.02 162.19"/>
            <polygon class="st58" points="846.22 163.29 806.93 163.29 805.69 146.57 845.16 145.47 846.22 163.29"/>
            <polygon class="st58" points="718.09 163.29 757.38 163.29 758.62 146.57 719.15 145.47 718.09 163.29"/>
          </g>
        </g>
        <g>
          <g>
            <polygon class="st58" points="217.48 182.55 177.13 182.55 178.19 167.11 219.6 165.82 217.48 182.55"/>
            <polygon class="st58" points="129.87 182.55 89.52 182.55 90.58 167.11 132 165.82 129.87 182.55"/>
            <polygon class="st58" points="43.62 182.55 3.27 182.55 4.33 167.11 45.75 165.82 43.62 182.55"/>
            <polygon class="st58" points="174.82 183.65 135.53 183.65 134.3 166.92 173.76 165.82 174.82 183.65"/>
            <polygon class="st58" points="46.69 183.65 85.98 183.65 87.22 166.92 47.75 165.82 46.69 183.65"/>
          </g>
          <g>
            <polygon class="st58" points="436.48 182.55 396.13 182.55 397.19 167.11 438.61 165.82 436.48 182.55"/>
            <polygon class="st58" points="348.88 182.55 308.53 182.55 309.59 167.11 351 165.82 348.88 182.55"/>
            <polygon class="st58" points="262.63 182.55 222.28 182.55 223.34 167.11 264.75 165.82 262.63 182.55"/>
            <polygon class="st58" points="393.83 183.65 354.54 183.65 353.3 166.92 392.77 165.82 393.83 183.65"/>
            <polygon class="st58" points="265.7 183.65 304.99 183.65 306.22 166.92 266.76 165.82 265.7 183.65"/>
          </g>
          <g>
            <polygon class="st58" points="655.49 182.55 615.14 182.55 616.2 167.11 657.61 165.82 655.49 182.55"/>
            <polygon class="st58" points="567.88 182.55 527.53 182.55 528.59 167.11 570.01 165.82 567.88 182.55"/>
            <polygon class="st58" points="481.63 182.55 441.28 182.55 442.34 167.11 483.76 165.82 481.63 182.55"/>
            <polygon class="st58" points="612.84 183.65 573.55 183.65 572.31 166.92 611.77 165.82 612.84 183.65"/>
            <polygon class="st58" points="484.7 183.65 523.99 183.65 525.23 166.92 485.76 165.82 484.7 183.65"/>
          </g>
          <g>
            <polygon class="st58" points="874.49 182.55 834.14 182.55 835.2 167.11 876.62 165.82 874.49 182.55"/>
            <polygon class="st58" points="786.89 182.55 746.54 182.55 747.6 167.11 789.01 165.82 786.89 182.55"/>
            <polygon class="st58" points="700.64 182.55 660.29 182.55 661.35 167.11 702.76 165.82 700.64 182.55"/>
            <polygon class="st58" points="831.84 183.65 792.55 183.65 791.31 166.92 830.78 165.82 831.84 183.65"/>
            <polygon class="st58" points="703.71 183.65 743 183.65 744.24 166.92 704.77 165.82 703.71 183.65"/>
          </g>
        </g>
        <g>
          <g>
            <polygon class="st58" points="231.86 202.9 191.51 202.9 192.57 187.47 233.98 186.18 231.86 202.9"/>
            <polygon class="st58" points="144.25 202.9 103.9 202.9 104.96 187.47 146.38 186.18 144.25 202.9"/>
            <polygon class="st58" points="58 202.9 17.65 202.9 18.71 187.47 60.13 186.18 58 202.9"/>
            <polygon class="st58" points="189.2 204.01 149.91 204.01 148.68 187.28 188.14 186.18 189.2 204.01"/>
            <polygon class="st58" points="61.07 204.01 100.36 204.01 101.6 187.28 62.13 186.18 61.07 204.01"/>
          </g>
          <g>
            <polygon class="st58" points="450.86 202.9 410.51 202.9 411.57 187.47 452.99 186.18 450.86 202.9"/>
            <polygon class="st58" points="363.26 202.9 322.91 202.9 323.97 187.47 365.38 186.18 363.26 202.9"/>
            <polygon class="st58" points="277.01 202.9 236.66 202.9 237.72 187.47 279.13 186.18 277.01 202.9"/>
            <polygon class="st58" points="408.21 204.01 368.92 204.01 367.68 187.28 407.15 186.18 408.21 204.01"/>
            <polygon class="st58" points="280.08 204.01 319.37 204.01 320.6 187.28 281.14 186.18 280.08 204.01"/>
          </g>
          <g>
            <polygon class="st58" points="669.87 202.9 629.52 202.9 630.58 187.47 671.99 186.18 669.87 202.9"/>
            <polygon class="st58" points="582.26 202.9 541.91 202.9 542.97 187.47 584.39 186.18 582.26 202.9"/>
            <polygon class="st58" points="496.01 202.9 455.66 202.9 456.72 187.47 498.14 186.18 496.01 202.9"/>
            <polygon class="st58" points="627.22 204.01 587.93 204.01 586.69 187.28 626.15 186.18 627.22 204.01"/>
            <polygon class="st58" points="499.08 204.01 538.37 204.01 539.61 187.28 500.14 186.18 499.08 204.01"/>
          </g>
          <g>
            <polygon class="st58" points="879.86 186.53 879.86 202.9 848.52 202.9 849.58 187.46 879.86 186.53"/>
            <polygon class="st58" points="801.27 202.9 760.92 202.9 761.98 187.47 803.39 186.18 801.27 202.9"/>
            <polygon class="st58" points="715.02 202.9 674.67 202.9 675.73 187.47 717.14 186.18 715.02 202.9"/>
            <polygon class="st58" points="846.22 204.01 806.93 204.01 805.69 187.28 845.16 186.18 846.22 204.01"/>
            <polygon class="st58" points="718.09 204.01 757.38 204.01 758.62 187.28 719.15 186.18 718.09 204.01"/>
          </g>
        </g>
        <g>
          <g>
            <polygon class="st58" points="217.48 223.26 177.13 223.26 178.19 207.82 219.6 206.53 217.48 223.26"/>
            <polygon class="st58" points="129.87 223.26 89.52 223.26 90.58 207.82 132 206.53 129.87 223.26"/>
            <polygon class="st58" points="43.62 223.26 3.27 223.26 4.33 207.82 45.75 206.53 43.62 223.26"/>
            <polygon class="st58" points="174.82 224.36 135.53 224.36 134.3 207.64 173.76 206.53 174.82 224.36"/>
            <polygon class="st58" points="46.69 224.36 85.98 224.36 87.22 207.64 47.75 206.53 46.69 224.36"/>
          </g>
          <g>
            <polygon class="st58" points="436.48 223.26 396.13 223.26 397.19 207.82 438.61 206.53 436.48 223.26"/>
            <polygon class="st58" points="348.88 223.26 308.53 223.26 309.59 207.82 351 206.53 348.88 223.26"/>
            <polygon class="st58" points="262.63 223.26 222.28 223.26 223.34 207.82 264.75 206.53 262.63 223.26"/>
            <polygon class="st58" points="393.83 224.36 354.54 224.36 353.3 207.64 392.77 206.53 393.83 224.36"/>
            <polygon class="st58" points="265.7 224.36 304.99 224.36 306.22 207.64 266.76 206.53 265.7 224.36"/>
          </g>
          <g>
            <polygon class="st58" points="655.49 223.26 615.14 223.26 616.2 207.82 657.61 206.53 655.49 223.26"/>
            <polygon class="st58" points="567.88 223.26 527.53 223.26 528.59 207.82 570.01 206.53 567.88 223.26"/>
            <polygon class="st58" points="481.63 223.26 441.28 223.26 442.34 207.82 483.76 206.53 481.63 223.26"/>
            <polygon class="st58" points="612.84 224.36 573.55 224.36 572.31 207.64 611.77 206.53 612.84 224.36"/>
            <polygon class="st58" points="484.7 224.36 523.99 224.36 525.23 207.64 485.76 206.53 484.7 224.36"/>
          </g>
          <g>
            <polygon class="st58" points="874.49 223.26 834.14 223.26 835.2 207.82 876.62 206.53 874.49 223.26"/>
            <polygon class="st58" points="786.89 223.26 746.54 223.26 747.6 207.82 789.01 206.53 786.89 223.26"/>
            <polygon class="st58" points="700.64 223.26 660.29 223.26 661.35 207.82 702.76 206.53 700.64 223.26"/>
            <polygon class="st58" points="831.84 224.36 792.55 224.36 791.31 207.64 830.78 206.53 831.84 224.36"/>
            <polygon class="st58" points="703.71 224.36 743 224.36 744.24 207.64 704.77 206.53 703.71 224.36"/>
          </g>
        </g>
        <g>
          <g>
            <polygon class="st58" points="231.86 243.62 191.51 243.62 192.57 228.18 233.98 226.89 231.86 243.62"/>
            <polygon class="st58" points="144.25 243.62 103.9 243.62 104.96 228.18 146.38 226.89 144.25 243.62"/>
            <polygon class="st58" points="58 243.62 17.65 243.62 18.71 228.18 60.13 226.89 58 243.62"/>
            <polygon class="st58" points="189.2 244.72 149.91 244.72 148.68 227.99 188.14 226.89 189.2 244.72"/>
            <polygon class="st58" points="61.07 244.72 100.36 244.72 101.6 227.99 62.13 226.89 61.07 244.72"/>
          </g>
          <g>
            <polygon class="st58" points="450.86 243.62 410.51 243.62 411.57 228.18 452.99 226.89 450.86 243.62"/>
            <polygon class="st58" points="363.26 243.62 322.91 243.62 323.97 228.18 365.38 226.89 363.26 243.62"/>
            <polygon class="st58" points="277.01 243.62 236.66 243.62 237.72 228.18 279.13 226.89 277.01 243.62"/>
            <polygon class="st58" points="408.21 244.72 368.92 244.72 367.68 227.99 407.15 226.89 408.21 244.72"/>
            <polygon class="st58" points="280.08 244.72 319.37 244.72 320.6 227.99 281.14 226.89 280.08 244.72"/>
          </g>
          <g>
            <polygon class="st58" points="669.87 243.62 629.52 243.62 630.58 228.18 671.99 226.89 669.87 243.62"/>
            <polygon class="st58" points="582.26 243.62 541.91 243.62 542.97 228.18 584.39 226.89 582.26 243.62"/>
            <polygon class="st58" points="496.01 243.62 455.66 243.62 456.72 228.18 498.14 226.89 496.01 243.62"/>
            <polygon class="st58" points="627.22 244.72 587.93 244.72 586.69 227.99 626.15 226.89 627.22 244.72"/>
            <polygon class="st58" points="499.08 244.72 538.37 244.72 539.61 227.99 500.14 226.89 499.08 244.72"/>
          </g>
          <g>
            <polygon class="st58" points="879.86 227.24 879.86 243.62 848.52 243.62 849.58 228.18 879.86 227.24"/>
            <polygon class="st58" points="801.27 243.62 760.92 243.62 761.98 228.18 803.39 226.89 801.27 243.62"/>
            <polygon class="st58" points="715.02 243.62 674.67 243.62 675.73 228.18 717.14 226.89 715.02 243.62"/>
            <polygon class="st58" points="846.22 244.72 806.93 244.72 805.69 227.99 845.16 226.89 846.22 244.72"/>
            <polygon class="st58" points="718.09 244.72 757.38 244.72 758.62 227.99 719.15 226.89 718.09 244.72"/>
          </g>
        </g>
        <g>
          <g>
            <polygon class="st58" points="217.48 263.97 177.13 263.97 178.19 248.53 219.6 247.25 217.48 263.97"/>
            <polygon class="st58" points="129.87 263.97 89.52 263.97 90.58 248.53 132 247.25 129.87 263.97"/>
            <polygon class="st58" points="43.62 263.97 3.27 263.97 4.33 248.53 45.75 247.25 43.62 263.97"/>
            <polygon class="st58" points="174.82 265.07 135.53 265.07 134.3 248.35 173.76 247.25 174.82 265.07"/>
            <polygon class="st58" points="46.69 265.07 85.98 265.07 87.22 248.35 47.75 247.25 46.69 265.07"/>
          </g>
          <g>
            <polygon class="st58" points="436.48 263.97 396.13 263.97 397.19 248.53 438.61 247.25 436.48 263.97"/>
            <polygon class="st58" points="348.88 263.97 308.53 263.97 309.59 248.53 351 247.25 348.88 263.97"/>
            <polygon class="st58" points="262.63 263.97 222.28 263.97 223.34 248.53 264.75 247.25 262.63 263.97"/>
            <polygon class="st58" points="393.83 265.07 354.54 265.07 353.3 248.35 392.77 247.25 393.83 265.07"/>
            <polygon class="st58" points="265.7 265.07 304.99 265.07 306.22 248.35 266.76 247.25 265.7 265.07"/>
          </g>
          <g>
            <polygon class="st58" points="655.49 263.97 615.14 263.97 616.2 248.53 657.61 247.25 655.49 263.97"/>
            <polygon class="st58" points="567.88 263.97 527.53 263.97 528.59 248.53 570.01 247.25 567.88 263.97"/>
            <polygon class="st58" points="481.63 263.97 441.28 263.97 442.34 248.53 483.76 247.25 481.63 263.97"/>
            <polygon class="st58" points="612.84 265.07 573.55 265.07 572.31 248.35 611.77 247.25 612.84 265.07"/>
            <polygon class="st58" points="484.7 265.07 523.99 265.07 525.23 248.35 485.76 247.25 484.7 265.07"/>
          </g>
          <g>
            <polygon class="st58" points="874.49 263.97 834.14 263.97 835.2 248.53 876.62 247.25 874.49 263.97"/>
            <polygon class="st58" points="786.89 263.97 746.54 263.97 747.6 248.53 789.01 247.25 786.89 263.97"/>
            <polygon class="st58" points="700.64 263.97 660.29 263.97 661.35 248.53 702.76 247.25 700.64 263.97"/>
            <polygon class="st58" points="831.84 265.07 792.55 265.07 791.31 248.35 830.78 247.25 831.84 265.07"/>
            <polygon class="st58" points="703.71 265.07 743 265.07 744.24 248.35 704.77 247.25 703.71 265.07"/>
          </g>
        </g>
        <g>
          <g>
            <polygon class="st58" points="231.86 284.33 191.51 284.33 192.57 268.89 233.98 267.6 231.86 284.33"/>
            <polygon class="st58" points="144.25 284.33 103.9 284.33 104.96 268.89 146.38 267.6 144.25 284.33"/>
            <polygon class="st58" points="58 284.33 17.65 284.33 18.71 268.89 60.13 267.6 58 284.33"/>
            <polygon class="st58" points="189.2 285.43 149.91 285.43 148.68 268.71 188.14 267.6 189.2 285.43"/>
            <polygon class="st58" points="61.07 285.43 100.36 285.43 101.6 268.71 62.13 267.6 61.07 285.43"/>
          </g>
          <g>
            <polygon class="st58" points="450.86 284.33 410.51 284.33 411.57 268.89 452.99 267.6 450.86 284.33"/>
            <polygon class="st58" points="363.26 284.33 322.91 284.33 323.97 268.89 365.38 267.6 363.26 284.33"/>
            <polygon class="st58" points="277.01 284.33 236.66 284.33 237.72 268.89 279.13 267.6 277.01 284.33"/>
            <polygon class="st58" points="408.21 285.43 368.92 285.43 367.68 268.71 407.15 267.6 408.21 285.43"/>
            <polygon class="st58" points="280.08 285.43 319.37 285.43 320.6 268.71 281.14 267.6 280.08 285.43"/>
          </g>
          <g>
            <polygon class="st58" points="669.87 284.33 629.52 284.33 630.58 268.89 671.99 267.6 669.87 284.33"/>
            <polygon class="st58" points="582.26 284.33 541.91 284.33 542.97 268.89 584.39 267.6 582.26 284.33"/>
            <polygon class="st58" points="496.01 284.33 455.66 284.33 456.72 268.89 498.14 267.6 496.01 284.33"/>
            <polygon class="st58" points="627.22 285.43 587.93 285.43 586.69 268.71 626.15 267.6 627.22 285.43"/>
            <polygon class="st58" points="499.08 285.43 538.37 285.43 539.61 268.71 500.14 267.6 499.08 285.43"/>
          </g>
          <g>
            <polygon class="st58" points="879.86 267.95 879.86 284.33 848.52 284.33 849.58 268.89 879.86 267.95"/>
            <polygon class="st58" points="801.27 284.33 760.92 284.33 761.98 268.89 803.39 267.6 801.27 284.33"/>
            <polygon class="st58" points="715.02 284.33 674.67 284.33 675.73 268.89 717.14 267.6 715.02 284.33"/>
            <polygon class="st58" points="846.22 285.43 806.93 285.43 805.69 268.71 845.16 267.6 846.22 285.43"/>
            <polygon class="st58" points="718.09 285.43 757.38 285.43 758.62 268.71 719.15 267.6 718.09 285.43"/>
          </g>
        </g>
        <g>
          <g>
            <polygon class="st58" points="217.48 304.68 177.13 304.68 178.19 289.25 219.6 287.96 217.48 304.68"/>
            <polygon class="st58" points="129.87 304.68 89.52 304.68 90.58 289.25 132 287.96 129.87 304.68"/>
            <polygon class="st58" points="43.62 304.68 3.27 304.68 4.33 289.25 45.75 287.96 43.62 304.68"/>
            <polygon class="st58" points="174.82 305.79 135.53 305.79 134.3 289.06 173.76 287.96 174.82 305.79"/>
            <polygon class="st58" points="46.69 305.79 85.98 305.79 87.22 289.06 47.75 287.96 46.69 305.79"/>
          </g>
          <g>
            <polygon class="st58" points="436.48 304.68 396.13 304.68 397.19 289.25 438.61 287.96 436.48 304.68"/>
            <polygon class="st58" points="348.88 304.68 308.53 304.68 309.59 289.25 351 287.96 348.88 304.68"/>
            <polygon class="st58" points="262.63 304.68 222.28 304.68 223.34 289.25 264.75 287.96 262.63 304.68"/>
            <polygon class="st58" points="393.83 305.79 354.54 305.79 353.3 289.06 392.77 287.96 393.83 305.79"/>
            <polygon class="st58" points="265.7 305.79 304.99 305.79 306.22 289.06 266.76 287.96 265.7 305.79"/>
          </g>
          <g>
            <polygon class="st58" points="655.49 304.68 615.14 304.68 616.2 289.25 657.61 287.96 655.49 304.68"/>
            <polygon class="st58" points="567.88 304.68 527.53 304.68 528.59 289.25 570.01 287.96 567.88 304.68"/>
            <polygon class="st58" points="481.63 304.68 441.28 304.68 442.34 289.25 483.76 287.96 481.63 304.68"/>
            <polygon class="st58" points="612.84 305.79 573.55 305.79 572.31 289.06 611.77 287.96 612.84 305.79"/>
            <polygon class="st58" points="484.7 305.79 523.99 305.79 525.23 289.06 485.76 287.96 484.7 305.79"/>
          </g>
          <g>
            <polygon class="st58" points="874.49 304.68 834.14 304.68 835.2 289.25 876.62 287.96 874.49 304.68"/>
            <polygon class="st58" points="786.89 304.68 746.54 304.68 747.6 289.25 789.01 287.96 786.89 304.68"/>
            <polygon class="st58" points="700.64 304.68 660.29 304.68 661.35 289.25 702.76 287.96 700.64 304.68"/>
            <polygon class="st58" points="831.84 305.79 792.55 305.79 791.31 289.06 830.78 287.96 831.84 305.79"/>
            <polygon class="st58" points="703.71 305.79 743 305.79 744.24 289.06 704.77 287.96 703.71 305.79"/>
          </g>
        </g>
        <g>
          <g>
            <polygon class="st58" points="231.86 325.04 191.51 325.04 192.57 309.6 233.98 308.32 231.86 325.04"/>
            <polygon class="st58" points="144.25 325.04 103.9 325.04 104.96 309.6 146.38 308.32 144.25 325.04"/>
            <polygon class="st58" points="58 325.04 17.65 325.04 18.71 309.6 60.13 308.32 58 325.04"/>
            <polygon class="st58" points="189.2 326.14 149.91 326.14 148.68 309.42 188.14 308.32 189.2 326.14"/>
            <polygon class="st58" points="61.07 326.14 100.36 326.14 101.6 309.42 62.13 308.32 61.07 326.14"/>
          </g>
          <g>
            <polygon class="st58" points="450.86 325.04 410.51 325.04 411.57 309.6 452.99 308.32 450.86 325.04"/>
            <polygon class="st58" points="363.26 325.04 322.91 325.04 323.97 309.6 365.38 308.32 363.26 325.04"/>
            <polygon class="st58" points="277.01 325.04 236.66 325.04 237.72 309.6 279.13 308.32 277.01 325.04"/>
            <polygon class="st58" points="408.21 326.14 368.92 326.14 367.68 309.42 407.15 308.32 408.21 326.14"/>
            <polygon class="st58" points="280.08 326.14 319.37 326.14 320.6 309.42 281.14 308.32 280.08 326.14"/>
          </g>
          <g>
            <polygon class="st58" points="669.87 325.04 629.52 325.04 630.58 309.6 671.99 308.32 669.87 325.04"/>
            <polygon class="st58" points="582.26 325.04 541.91 325.04 542.97 309.6 584.39 308.32 582.26 325.04"/>
            <polygon class="st58" points="496.01 325.04 455.66 325.04 456.72 309.6 498.14 308.32 496.01 325.04"/>
            <polygon class="st58" points="627.22 326.14 587.93 326.14 586.69 309.42 626.15 308.32 627.22 326.14"/>
            <polygon class="st58" points="499.08 326.14 538.37 326.14 539.61 309.42 500.14 308.32 499.08 326.14"/>
          </g>
          <g>
            <polygon class="st58" points="879.86 308.66 879.86 325.04 848.52 325.04 849.58 309.6 879.86 308.66"/>
            <polygon class="st58" points="801.27 325.04 760.92 325.04 761.98 309.6 803.39 308.32 801.27 325.04"/>
            <polygon class="st58" points="715.02 325.04 674.67 325.04 675.73 309.6 717.14 308.32 715.02 325.04"/>
            <polygon class="st58" points="846.22 326.14 806.93 326.14 805.69 309.42 845.16 308.32 846.22 326.14"/>
            <polygon class="st58" points="718.09 326.14 757.38 326.14 758.62 309.42 719.15 308.32 718.09 326.14"/>
          </g>
        </g>
        <g>
          <g>
            <polygon class="st58" points="217.48 345.4 177.13 345.4 178.19 329.96 219.6 328.67 217.48 345.4"/>
            <polygon class="st58" points="129.87 345.4 89.52 345.4 90.58 329.96 132 328.67 129.87 345.4"/>
            <polygon class="st58" points="43.62 345.4 3.27 345.4 4.33 329.96 45.75 328.67 43.62 345.4"/>
            <polygon class="st58" points="174.82 346.5 135.53 346.5 134.3 329.78 173.76 328.67 174.82 346.5"/>
            <polygon class="st58" points="46.69 346.5 85.98 346.5 87.22 329.78 47.75 328.67 46.69 346.5"/>
          </g>
          <g>
            <polygon class="st58" points="436.48 345.4 396.13 345.4 397.19 329.96 438.61 328.67 436.48 345.4"/>
            <polygon class="st58" points="348.88 345.4 308.53 345.4 309.59 329.96 351 328.67 348.88 345.4"/>
            <polygon class="st58" points="262.63 345.4 222.28 345.4 223.34 329.96 264.75 328.67 262.63 345.4"/>
            <polygon class="st58" points="393.83 346.5 354.54 346.5 353.3 329.78 392.77 328.67 393.83 346.5"/>
            <polygon class="st58" points="265.7 346.5 304.99 346.5 306.22 329.78 266.76 328.67 265.7 346.5"/>
          </g>
          <g>
            <polygon class="st58" points="655.49 345.4 615.14 345.4 616.2 329.96 657.61 328.67 655.49 345.4"/>
            <polygon class="st58" points="567.88 345.4 527.53 345.4 528.59 329.96 570.01 328.67 567.88 345.4"/>
            <polygon class="st58" points="481.63 345.4 441.28 345.4 442.34 329.96 483.76 328.67 481.63 345.4"/>
            <polygon class="st58" points="612.84 346.5 573.55 346.5 572.31 329.78 611.77 328.67 612.84 346.5"/>
            <polygon class="st58" points="484.7 346.5 523.99 346.5 525.23 329.78 485.76 328.67 484.7 346.5"/>
          </g>
          <g>
            <polygon class="st58" points="874.49 345.4 834.14 345.4 835.2 329.96 876.62 328.67 874.49 345.4"/>
            <polygon class="st58" points="786.89 345.4 746.54 345.4 747.6 329.96 789.01 328.67 786.89 345.4"/>
            <polygon class="st58" points="700.64 345.4 660.29 345.4 661.35 329.96 702.76 328.67 700.64 345.4"/>
            <polygon class="st58" points="831.84 346.5 792.55 346.5 791.31 329.78 830.78 328.67 831.84 346.5"/>
            <polygon class="st58" points="703.71 346.5 743 346.5 744.24 329.78 704.77 328.67 703.71 346.5"/>
          </g>
        </g>
        <g>
          <g>
            <polygon class="st58" points="231.86 365.75 191.51 365.75 192.57 350.32 233.98 349.03 231.86 365.75"/>
            <polygon class="st58" points="144.25 365.75 103.9 365.75 104.96 350.32 146.38 349.03 144.25 365.75"/>
            <polygon class="st58" points="58 365.75 17.65 365.75 18.71 350.32 60.13 349.03 58 365.75"/>
            <polygon class="st58" points="189.2 366.86 149.91 366.86 148.68 350.13 188.14 349.03 189.2 366.86"/>
            <polygon class="st58" points="61.07 366.86 100.36 366.86 101.6 350.13 62.13 349.03 61.07 366.86"/>
          </g>
          <g>
            <polygon class="st58" points="450.86 365.75 410.51 365.75 411.57 350.32 452.99 349.03 450.86 365.75"/>
            <polygon class="st58" points="363.26 365.75 322.91 365.75 323.97 350.32 365.38 349.03 363.26 365.75"/>
            <polygon class="st58" points="277.01 365.75 236.66 365.75 237.72 350.32 279.13 349.03 277.01 365.75"/>
            <polygon class="st58" points="408.21 366.86 368.92 366.86 367.68 350.13 407.15 349.03 408.21 366.86"/>
            <polygon class="st58" points="280.08 366.86 319.37 366.86 320.6 350.13 281.14 349.03 280.08 366.86"/>
          </g>
          <g>
            <polygon class="st58" points="669.87 365.75 629.52 365.75 630.58 350.32 671.99 349.03 669.87 365.75"/>
            <polygon class="st58" points="582.26 365.75 541.91 365.75 542.97 350.32 584.39 349.03 582.26 365.75"/>
            <polygon class="st58" points="496.01 365.75 455.66 365.75 456.72 350.32 498.14 349.03 496.01 365.75"/>
            <polygon class="st58" points="627.22 366.86 587.93 366.86 586.69 350.13 626.15 349.03 627.22 366.86"/>
            <polygon class="st58" points="499.08 366.86 538.37 366.86 539.61 350.13 500.14 349.03 499.08 366.86"/>
          </g>
          <g>
            <polygon class="st58" points="879.86 349.38 879.86 365.75 848.52 365.75 849.58 350.32 879.86 349.38"/>
            <polygon class="st58" points="801.27 365.75 760.92 365.75 761.98 350.32 803.39 349.03 801.27 365.75"/>
            <polygon class="st58" points="715.02 365.75 674.67 365.75 675.73 350.32 717.14 349.03 715.02 365.75"/>
            <polygon class="st58" points="846.22 366.86 806.93 366.86 805.69 350.13 845.16 349.03 846.22 366.86"/>
            <polygon class="st58" points="718.09 366.86 757.38 366.86 758.62 350.13 719.15 349.03 718.09 366.86"/>
          </g>
        </g>
        <g>
          <g>
            <polygon class="st58" points="217.48 386.11 177.13 386.11 178.19 370.67 219.6 369.39 217.48 386.11"/>
            <polygon class="st58" points="129.87 386.11 89.52 386.11 90.58 370.67 132 369.39 129.87 386.11"/>
            <polygon class="st58" points="43.62 386.11 3.27 386.11 4.33 370.67 45.75 369.39 43.62 386.11"/>
            <polygon class="st58" points="174.82 387.21 135.53 387.21 134.3 370.49 173.76 369.39 174.82 387.21"/>
            <polygon class="st58" points="46.69 387.21 85.98 387.21 87.22 370.49 47.75 369.39 46.69 387.21"/>
          </g>
          <g>
            <polygon class="st58" points="436.48 386.11 396.13 386.11 397.19 370.67 438.61 369.39 436.48 386.11"/>
            <polygon class="st58" points="348.88 386.11 308.53 386.11 309.59 370.67 351 369.39 348.88 386.11"/>
            <polygon class="st58" points="262.63 386.11 222.28 386.11 223.34 370.67 264.75 369.39 262.63 386.11"/>
            <polygon class="st58" points="393.83 387.21 354.54 387.21 353.3 370.49 392.77 369.39 393.83 387.21"/>
            <polygon class="st58" points="265.7 387.21 304.99 387.21 306.22 370.49 266.76 369.39 265.7 387.21"/>
          </g>
          <g>
            <polygon class="st58" points="655.49 386.11 615.14 386.11 616.2 370.67 657.61 369.39 655.49 386.11"/>
            <polygon class="st58" points="567.88 386.11 527.53 386.11 528.59 370.67 570.01 369.39 567.88 386.11"/>
            <polygon class="st58" points="481.63 386.11 441.28 386.11 442.34 370.67 483.76 369.39 481.63 386.11"/>
            <polygon class="st58" points="612.84 387.21 573.55 387.21 572.31 370.49 611.77 369.39 612.84 387.21"/>
            <polygon class="st58" points="484.7 387.21 523.99 387.21 525.23 370.49 485.76 369.39 484.7 387.21"/>
          </g>
          <g>
            <polygon class="st58" points="874.49 386.11 834.14 386.11 835.2 370.67 876.62 369.39 874.49 386.11"/>
            <polygon class="st58" points="786.89 386.11 746.54 386.11 747.6 370.67 789.01 369.39 786.89 386.11"/>
            <polygon class="st58" points="700.64 386.11 660.29 386.11 661.35 370.67 702.76 369.39 700.64 386.11"/>
            <polygon class="st58" points="831.84 387.21 792.55 387.21 791.31 370.49 830.78 369.39 831.84 387.21"/>
            <polygon class="st58" points="703.71 387.21 743 387.21 744.24 370.49 704.77 369.39 703.71 387.21"/>
          </g>
        </g>
        <g>
          <g>
            <polygon class="st58" points="231.86 406.47 191.51 406.47 192.57 391.03 233.98 389.74 231.86 406.47"/>
            <polygon class="st58" points="144.25 406.47 103.9 406.47 104.96 391.03 146.38 389.74 144.25 406.47"/>
            <polygon class="st58" points="58 406.47 17.65 406.47 18.71 391.03 60.13 389.74 58 406.47"/>
            <polygon class="st58" points="189.2 407.57 149.91 407.57 148.68 390.84 188.14 389.74 189.2 407.57"/>
            <polygon class="st58" points="61.07 407.57 100.36 407.57 101.6 390.84 62.13 389.74 61.07 407.57"/>
          </g>
          <g>
            <polygon class="st58" points="450.86 406.47 410.51 406.47 411.57 391.03 452.99 389.74 450.86 406.47"/>
            <polygon class="st58" points="363.26 406.47 322.91 406.47 323.97 391.03 365.38 389.74 363.26 406.47"/>
            <polygon class="st58" points="277.01 406.47 236.66 406.47 237.72 391.03 279.13 389.74 277.01 406.47"/>
            <polygon class="st58" points="408.21 407.57 368.92 407.57 367.68 390.84 407.15 389.74 408.21 407.57"/>
            <polygon class="st58" points="280.08 407.57 319.37 407.57 320.6 390.84 281.14 389.74 280.08 407.57"/>
          </g>
          <g>
            <polygon class="st58" points="669.87 406.47 629.52 406.47 630.58 391.03 671.99 389.74 669.87 406.47"/>
            <polygon class="st58" points="582.26 406.47 541.91 406.47 542.97 391.03 584.39 389.74 582.26 406.47"/>
            <polygon class="st58" points="496.01 406.47 455.66 406.47 456.72 391.03 498.14 389.74 496.01 406.47"/>
            <polygon class="st58" points="627.22 407.57 587.93 407.57 586.69 390.84 626.15 389.74 627.22 407.57"/>
            <polygon class="st58" points="499.08 407.57 538.37 407.57 539.61 390.84 500.14 389.74 499.08 407.57"/>
          </g>
          <g>
            <polygon class="st58" points="879.86 390.09 879.86 406.47 848.52 406.47 849.58 391.03 879.86 390.09"/>
            <polygon class="st58" points="801.27 406.47 760.92 406.47 761.98 391.03 803.39 389.74 801.27 406.47"/>
            <polygon class="st58" points="715.02 406.47 674.67 406.47 675.73 391.03 717.14 389.74 715.02 406.47"/>
            <polygon class="st58" points="846.22 407.57 806.93 407.57 805.69 390.84 845.16 389.74 846.22 407.57"/>
            <polygon class="st58" points="718.09 407.57 757.38 407.57 758.62 390.84 719.15 389.74 718.09 407.57"/>
          </g>
        </g>
        <g>
          <g>
            <polygon class="st58" points="217.48 426.82 177.13 426.82 178.19 411.39 219.6 410.1 217.48 426.82"/>
            <polygon class="st58" points="129.87 426.82 89.52 426.82 90.58 411.39 132 410.1 129.87 426.82"/>
            <polygon class="st58" points="43.62 426.82 3.27 426.82 4.33 411.39 45.75 410.1 43.62 426.82"/>
            <polygon class="st58" points="174.82 427.93 135.53 427.93 134.3 411.2 173.76 410.1 174.82 427.93"/>
            <polygon class="st58" points="46.69 427.93 85.98 427.93 87.22 411.2 47.75 410.1 46.69 427.93"/>
          </g>
          <g>
            <polygon class="st58" points="436.48 426.82 396.13 426.82 397.19 411.39 438.61 410.1 436.48 426.82"/>
            <polygon class="st58" points="348.88 426.82 308.53 426.82 309.59 411.39 351 410.1 348.88 426.82"/>
            <polygon class="st58" points="262.63 426.82 222.28 426.82 223.34 411.39 264.75 410.1 262.63 426.82"/>
            <polygon class="st58" points="393.83 427.93 354.54 427.93 353.3 411.2 392.77 410.1 393.83 427.93"/>
            <polygon class="st58" points="265.7 427.93 304.99 427.93 306.22 411.2 266.76 410.1 265.7 427.93"/>
          </g>
          <g>
            <polygon class="st58" points="655.49 426.82 615.14 426.82 616.2 411.39 657.61 410.1 655.49 426.82"/>
            <polygon class="st58" points="567.88 426.82 527.53 426.82 528.59 411.39 570.01 410.1 567.88 426.82"/>
            <polygon class="st58" points="481.63 426.82 441.28 426.82 442.34 411.39 483.76 410.1 481.63 426.82"/>
            <polygon class="st58" points="612.84 427.93 573.55 427.93 572.31 411.2 611.77 410.1 612.84 427.93"/>
            <polygon class="st58" points="484.7 427.93 523.99 427.93 525.23 411.2 485.76 410.1 484.7 427.93"/>
          </g>
          <g>
            <polygon class="st58" points="874.49 426.82 834.14 426.82 835.2 411.39 876.62 410.1 874.49 426.82"/>
            <polygon class="st58" points="786.89 426.82 746.54 426.82 747.6 411.39 789.01 410.1 786.89 426.82"/>
            <polygon class="st58" points="700.64 426.82 660.29 426.82 661.35 411.39 702.76 410.1 700.64 426.82"/>
            <polygon class="st58" points="831.84 427.93 792.55 427.93 791.31 411.2 830.78 410.1 831.84 427.93"/>
            <polygon class="st58" points="703.71 427.93 743 427.93 744.24 411.2 704.77 410.1 703.71 427.93"/>
          </g>
        </g>
        <g>
          <g>
            <polygon class="st58" points="231.86 447.18 191.51 447.18 192.57 431.74 233.98 430.45 231.86 447.18"/>
            <polygon class="st58" points="144.25 447.18 103.9 447.18 104.96 431.74 146.38 430.45 144.25 447.18"/>
            <polygon class="st58" points="58 447.18 17.65 447.18 18.71 431.74 60.13 430.45 58 447.18"/>
            <polygon class="st58" points="189.2 448.28 149.91 448.28 148.68 431.56 188.14 430.45 189.2 448.28"/>
            <polygon class="st58" points="61.07 448.28 100.36 448.28 101.6 431.56 62.13 430.45 61.07 448.28"/>
            <polygon class="st58" points="14.36 24.43 13.12 41.15 0 41.15 0 24.03 14.36 24.43"/>
            <polygon class="st58" points="14.36 65.14 13.12 81.87 0 81.87 0 64.74 14.36 65.14"/>
            <polygon class="st58" points="14.36 105.86 13.12 122.58 0 122.58 0 105.46 14.36 105.86"/>
            <polygon class="st58" points="14.36 146.57 13.12 163.29 0 163.29 0 146.17 14.36 146.57"/>
            <polygon class="st58" points="14.36 187.28 13.12 204.01 0 204.01 0 186.88 14.36 187.28"/>
            <polygon class="st58" points="14.36 227.99 13.12 244.72 0 244.72 0 227.59 14.36 227.99"/>
            <polygon class="st58" points="14.36 268.71 13.12 285.43 0 285.43 0 268.31 14.36 268.71"/>
            <polygon class="st58" points="14.36 309.42 13.12 326.14 0 326.14 0 309.02 14.36 309.42"/>
            <polygon class="st58" points="14.36 350.13 13.12 366.86 0 366.86 0 349.73 14.36 350.13"/>
            <polygon class="st58" points="14.36 390.84 13.12 407.57 0 407.57 0 390.44 14.36 390.84"/>
            <polygon class="st58" points="14.36 431.56 13.12 448.28 0 448.28 0 431.16 14.36 431.56"/>
          </g>
          <g>
            <polygon class="st58" points="450.86 447.18 410.51 447.18 411.57 431.74 452.99 430.45 450.86 447.18"/>
            <polygon class="st58" points="363.26 447.18 322.91 447.18 323.97 431.74 365.38 430.45 363.26 447.18"/>
            <polygon class="st58" points="277.01 447.18 236.66 447.18 237.72 431.74 279.13 430.45 277.01 447.18"/>
            <polygon class="st58" points="408.21 448.28 368.92 448.28 367.68 431.56 407.15 430.45 408.21 448.28"/>
            <polygon class="st58" points="280.08 448.28 319.37 448.28 320.6 431.56 281.14 430.45 280.08 448.28"/>
          </g>
          <g>
            <polygon class="st58" points="669.87 447.18 629.52 447.18 630.58 431.74 671.99 430.45 669.87 447.18"/>
            <polygon class="st58" points="582.26 447.18 541.91 447.18 542.97 431.74 584.39 430.45 582.26 447.18"/>
            <polygon class="st58" points="496.01 447.18 455.66 447.18 456.72 431.74 498.14 430.45 496.01 447.18"/>
            <polygon class="st58" points="627.22 448.28 587.93 448.28 586.69 431.56 626.15 430.45 627.22 448.28"/>
            <polygon class="st58" points="499.08 448.28 538.37 448.28 539.61 431.56 500.14 430.45 499.08 448.28"/>
          </g>
          <g>
            <polygon class="st58" points="879.86 430.8 879.86 447.18 848.52 447.18 849.58 431.74 879.86 430.8"/>
            <polygon class="st58" points="801.27 447.18 760.92 447.18 761.98 431.74 803.39 430.45 801.27 447.18"/>
            <polygon class="st58" points="715.02 447.18 674.67 447.18 675.73 431.74 717.14 430.45 715.02 447.18"/>
            <polygon class="st58" points="846.22 448.28 806.93 448.28 805.69 431.56 845.16 430.45 846.22 448.28"/>
            <polygon class="st58" points="718.09 448.28 757.38 448.28 758.62 431.56 719.15 430.45 718.09 448.28"/>
          </g>
        </g>
        <g>
          <g>
            <polygon class="st58" points="217.48 467.54 177.13 467.54 178.19 452.1 219.6 450.81 217.48 467.54"/>
            <polygon class="st58" points="129.87 467.54 89.52 467.54 90.58 452.1 132 450.81 129.87 467.54"/>
            <polygon class="st58" points="43.62 467.54 3.27 467.54 4.33 452.1 45.75 450.81 43.62 467.54"/>
            <polygon class="st58" points="174.82 468.64 135.53 468.64 134.3 451.91 173.76 450.81 174.82 468.64"/>
            <polygon class="st58" points="46.69 468.64 85.98 468.64 87.22 451.91 47.75 450.81 46.69 468.64"/>
          </g>
          <g>
            <polygon class="st58" points="436.48 467.54 396.13 467.54 397.19 452.1 438.61 450.81 436.48 467.54"/>
            <polygon class="st58" points="348.88 467.54 308.53 467.54 309.59 452.1 351 450.81 348.88 467.54"/>
            <polygon class="st58" points="262.63 467.54 222.28 467.54 223.34 452.1 264.75 450.81 262.63 467.54"/>
            <polygon class="st58" points="393.83 468.64 354.54 468.64 353.3 451.91 392.77 450.81 393.83 468.64"/>
            <polygon class="st58" points="265.7 468.64 304.99 468.64 306.22 451.91 266.76 450.81 265.7 468.64"/>
          </g>
          <g>
            <polygon class="st58" points="655.49 467.54 615.14 467.54 616.2 452.1 657.61 450.81 655.49 467.54"/>
            <polygon class="st58" points="567.88 467.54 527.53 467.54 528.59 452.1 570.01 450.81 567.88 467.54"/>
            <polygon class="st58" points="481.63 467.54 441.28 467.54 442.34 452.1 483.76 450.81 481.63 467.54"/>
            <polygon class="st58" points="612.84 468.64 573.55 468.64 572.31 451.91 611.77 450.81 612.84 468.64"/>
            <polygon class="st58" points="484.7 468.64 523.99 468.64 525.23 451.91 485.76 450.81 484.7 468.64"/>
          </g>
          <g>
            <polygon class="st58" points="874.49 467.54 834.14 467.54 835.2 452.1 876.62 450.81 874.49 467.54"/>
            <polygon class="st58" points="786.89 467.54 746.54 467.54 747.6 452.1 789.01 450.81 786.89 467.54"/>
            <polygon class="st58" points="700.64 467.54 660.29 467.54 661.35 452.1 702.76 450.81 700.64 467.54"/>
            <polygon class="st58" points="831.84 468.64 792.55 468.64 791.31 451.91 830.78 450.81 831.84 468.64"/>
            <polygon class="st58" points="703.71 468.64 743 468.64 744.24 451.91 704.77 450.81 703.71 468.64"/>
          </g>
        </g>
        <g>
          <g>
            <polygon class="st58" points="231.86 487.89 191.51 487.89 192.57 472.45 233.98 471.17 231.86 487.89"/>
            <polygon class="st58" points="144.25 487.89 103.9 487.89 104.96 472.45 146.38 471.17 144.25 487.89"/>
            <polygon class="st58" points="58 487.89 17.65 487.89 18.71 472.45 60.13 471.17 58 487.89"/>
            <polygon class="st58" points="189.2 488.99 149.91 488.99 148.68 472.27 188.14 471.17 189.2 488.99"/>
            <polygon class="st58" points="61.07 488.99 100.36 488.99 101.6 472.27 62.13 471.17 61.07 488.99"/>
          </g>
          <g>
            <polygon class="st58" points="450.86 487.89 410.51 487.89 411.57 472.45 452.99 471.17 450.86 487.89"/>
            <polygon class="st58" points="363.26 487.89 322.91 487.89 323.97 472.45 365.38 471.17 363.26 487.89"/>
            <polygon class="st58" points="277.01 487.89 236.66 487.89 237.72 472.45 279.13 471.17 277.01 487.89"/>
            <polygon class="st58" points="408.21 488.99 368.92 488.99 367.68 472.27 407.15 471.17 408.21 488.99"/>
            <polygon class="st58" points="280.08 488.99 319.37 488.99 320.6 472.27 281.14 471.17 280.08 488.99"/>
          </g>
          <g>
            <polygon class="st58" points="669.87 487.89 629.52 487.89 630.58 472.45 671.99 471.17 669.87 487.89"/>
            <polygon class="st58" points="582.26 487.89 541.91 487.89 542.97 472.45 584.39 471.17 582.26 487.89"/>
            <polygon class="st58" points="496.01 487.89 455.66 487.89 456.72 472.45 498.14 471.17 496.01 487.89"/>
            <polygon class="st58" points="627.22 488.99 587.93 488.99 586.69 472.27 626.15 471.17 627.22 488.99"/>
            <polygon class="st58" points="499.08 488.99 538.37 488.99 539.61 472.27 500.14 471.17 499.08 488.99"/>
          </g>
          <g>
            <polygon class="st58" points="879.86 471.51 879.86 487.89 848.52 487.89 849.58 472.45 879.86 471.51"/>
            <polygon class="st58" points="801.27 487.89 760.92 487.89 761.98 472.45 803.39 471.17 801.27 487.89"/>
            <polygon class="st58" points="715.02 487.89 674.67 487.89 675.73 472.45 717.14 471.17 715.02 487.89"/>
            <polygon class="st58" points="846.22 488.99 806.93 488.99 805.69 472.27 845.16 471.17 846.22 488.99"/>
            <polygon class="st58" points="718.09 488.99 757.38 488.99 758.62 472.27 719.15 471.17 718.09 488.99"/>
          </g>
        </g>
      </g>
      <rect class="st66" x="6.78" y="486.07" width="870.66" height="10.01"/>
      <rect class="st62" x="-6.55" y="492.09" width="887.8" height="142.24"/>
    </g>
    <g id="finestra">
      <g>
        <g>
          <path class="st66" d="M342.46,277.16H57.7c0-5.25,8.26-9.5,18.45-9.5h247.86c10.19,0,18.45,4.25,18.45,9.5h0Z"/>
          <rect class="st39" x="57.7" y="277.16" width="284.76" height="2.62"/>
        </g>
        <g>
          <path class="st72" d="M119.22,257.93h-.06v-.1l.06.1Z"/>
          <g>
            <rect class="st46" x="83.69" y="84.3" width="108.5" height="175.96"/>
            <polygon class="st53" points="192.36 75.99 184.61 84.3 75.95 200.82 75.95 150 83.69 141.69 137.21 84.3 144.96 75.99 192.36 75.99"/>
            <polygon class="st53" points="135.38 75.99 75.95 139.72 75.95 133.44 121.78 84.3 129.52 75.99 135.38 75.99"/>
            <polygon class="st53" points="199.93 75.99 199.93 87.84 192.19 96.14 83.69 212.49 75.95 220.79 75.95 208.88 192.13 84.3 199.87 75.99 199.93 75.99"/>
            <polygon class="st53" points="199.93 93.36 199.93 96.29 192.19 104.59 83.69 220.93 75.95 229.23 75.95 226.31 83.69 218 192.19 101.66 199.93 93.36"/>
          </g>
          <g>
            <path class="st67" d="M76.3,75.83v192.58h123.78V75.83h-123.78ZM192.31,260.08h-108.73V84.16h108.73v175.93h0Z"/>
            <path class="st60" d="M83.1,83.64v177.49h110.19V83.64h-110.19ZM83.58,260.08V84.16h108.73v175.93h-108.73Z"/>
          </g>
          <g>
            <path class="st0" d="M277.39,226.25h2.43l-5.05-9.37h-36.69v-3.64h.64c.49,0,.82-.83.82-1.29v-2.33c0-.46-.33-.54-.82-.54h-6.54c-.49,0-.89.08-.89.54v2.33c0,.46.4,1.29.89,1.29h1.05v3.64h-7.35l-5.05,9.37h2.69v41.12h53.88v-41.12h-.01ZM234.19,246.03h-3.88v-12.49h3.88v12.49ZM234.19,263.2h-3.88v-11.97h3.88v11.97ZM239.53,246.03h-3.88v-12.49h3.88v12.49ZM240.01,263.2h-4.37v-11.97h4.37v11.97ZM249.72,246.03h-3.88v-12.49h3.88v12.49ZM249.72,263.2h-3.88v-11.97h3.88v11.97ZM255.06,246.03h-3.88v-12.49h3.88v12.49ZM255.06,263.2h-3.88v-11.97h3.88v11.97ZM265.26,246.03h-4.37v-12.49h4.37v12.49ZM265.26,263.2h-4.37v-11.97h4.37v11.97ZM270.59,246.03h-3.88v-12.49h3.88v12.49ZM270.59,263.2h-3.88v-11.97h3.88v11.97Z"/>
            <path class="st0" d="M255.55,169v98.89h45.14v-98.89h-7.77v-4.68h-2.43v-14.05h-.97v14.05h-11.16v4.68h-22.81,0ZM264.28,254.88h28.64v6.25h-28.64v-6.25ZM264.28,246.55h28.64v5.2h-28.64v-5.2ZM264.28,236.66h28.64v6.25h-28.64v-6.25ZM264.28,228.33h28.64v5.73h-28.64v-5.73ZM264.28,220h28.64v5.2h-28.64v-5.2ZM264.28,211.16h28.64v5.73h-28.64v-5.73ZM264.28,201.79h28.64v6.25h-28.64v-6.25ZM264.28,193.46h28.64v5.73h-28.64v-5.73ZM264.28,184.61h28.64v5.73h-28.64v-5.73ZM264.28,175.24h28.64v6.25h-28.64v-6.25Z"/>
          </g>
          <rect class="st46" x="207.91" y="84.29" width="108.5" height="175.96"/>
          <polygon class="st53" points="324.16 93.36 324.16 97.12 314.34 107.78 176.79 257.16 166.98 267.82 166.98 264.06 176.79 253.4 314.34 104.02 324.16 93.36"/>
          <g>
            <path class="st67" d="M200.08,75.83v192.58h124.26V75.83h-124.26ZM316.58,260.08h-108.73V84.16h108.73v175.93h0Z"/>
            <path class="st60" d="M207.36,83.64v177.49h109.7V83.64h-109.7ZM207.84,260.08V84.16h108.73v175.93h-108.73Z"/>
          </g>
          <polygon class="st53" points="324.34 75.83 324.34 76.36 317.23 83.89 316.46 84.67 316.39 84.72 207.93 201.01 199.94 209.58 192.92 217.1 192.19 217.88 192.14 217.93 152.66 260.18 144.92 268.41 123.99 268.41 130.96 261.01 131.73 260.22 192.14 195.47 192.92 194.64 199.93 187.13 200.17 186.87 207.1 179.45 207.87 178.54 303.58 75.83 324.34 75.83"/>
        </g>
        <g>
          <rect class="st66" x="69.03" y="68.14" width="261.83" height="3.96"/>
          <rect class="st41" x="74.14" y="65.65" width="251.87" height="77.14"/>
          <rect class="st50" x="74.14" y="65.65" width="251.87" height="8.79"/>
          <rect class="st31" x="74.14" y="74.44" width="251.87" height="1.55"/>
          <g class="st54">
            <path class="st61" d="M78.14,136.43h-3.99c-.07,0-.13-.03-.13-.07s.06-.07.13-.07h3.99c.07,0,.13.03.13.07s-.06.07-.13.07Z"/>
            <path class="st61" d="M317.24,136.43h-7.97c-.07,0-.13-.03-.13-.07s.06-.07.13-.07h7.97c.07,0,.13.03.13.07s-.06.07-.13.07ZM303.96,136.43h-7.97c-.07,0-.13-.03-.13-.07s.06-.07.13-.07h7.97c.07,0,.13.03.13.07s-.06.07-.13.07ZM290.67,136.43h-7.97c-.07,0-.13-.03-.13-.07s.06-.07.13-.07h7.97c.07,0,.13.03.13.07s-.06.07-.13.07ZM277.39,136.43h-7.97c-.07,0-.13-.03-.13-.07s.06-.07.13-.07h7.97c.07,0,.13.03.13.07s-.06.07-.13.07ZM264.1,136.43h-7.97c-.07,0-.13-.03-.13-.07s.06-.07.13-.07h7.97c.07,0,.13.03.13.07s-.06.07-.13.07ZM250.82,136.43h-7.97c-.07,0-.13-.03-.13-.07s.06-.07.13-.07h7.97c.07,0,.13.03.13.07s-.06.07-.13.07ZM237.54,136.43h-7.97c-.07,0-.13-.03-.13-.07s.06-.07.13-.07h7.97c.07,0,.13.03.13.07s-.06.07-.13.07ZM224.25,136.43h-7.97c-.07,0-.13-.03-.13-.07s.06-.07.13-.07h7.97c.07,0,.13.03.13.07s-.06.07-.13.07ZM210.97,136.43h-7.97c-.07,0-.13-.03-.13-.07s.06-.07.13-.07h7.97c.07,0,.13.03.13.07s-.06.07-.13.07ZM197.69,136.43h-7.97c-.07,0-.13-.03-.13-.07s.06-.07.13-.07h7.97c.07,0,.13.03.13.07s-.06.07-.13.07ZM184.4,136.43h-7.97c-.07,0-.13-.03-.13-.07s.06-.07.13-.07h7.97c.07,0,.13.03.13.07s-.06.07-.13.07ZM171.12,136.43h-7.97c-.07,0-.13-.03-.13-.07s.06-.07.13-.07h7.97c.07,0,.13.03.13.07s-.06.07-.13.07ZM157.84,136.43h-7.97c-.07,0-.13-.03-.13-.07s.06-.07.13-.07h7.97c.07,0,.13.03.13.07s-.06.07-.13.07ZM144.55,136.43h-7.97c-.07,0-.13-.03-.13-.07s.06-.07.13-.07h7.97c.07,0,.13.03.13.07s-.06.07-.13.07ZM131.27,136.43h-7.97c-.07,0-.13-.03-.13-.07s.06-.07.13-.07h7.97c.07,0,.13.03.13.07s-.06.07-.13.07ZM117.99,136.43h-7.97c-.07,0-.13-.03-.13-.07s.06-.07.13-.07h7.97c.07,0,.13.03.13.07s-.06.07-.13.07ZM104.7,136.43h-7.97c-.07,0-.13-.03-.13-.07s.06-.07.13-.07h7.97c.07,0,.13.03.13.07s-.06.07-.13.07ZM91.42,136.43h-7.97c-.07,0-.13-.03-.13-.07s.06-.07.13-.07h7.97c.07,0,.13.03.13.07s-.06.07-.13.07Z"/>
            <path class="st61" d="M326.54,136.43h-3.99c-.07,0-.13-.03-.13-.07s.06-.07.13-.07h3.99c.07,0,.13.03.13.07s-.06.07-.13.07Z"/>
          </g>
          <rect class="st31" x="74.14" y="66.98" width="251.87" height="2.33"/>
          <path class="st60" d="M331.65,73.51h0c-.88,0-1.6-.4-1.6-.88v-5.45c0-.48.72-.88,1.6-.88h0c.88,0,1.6.4,1.6.88v5.45c0,.48-.72.88-1.6.88Z"/>
          <rect class="st60" x="66.91" y="66.3" width="3.19" height="7.21" rx=".85" ry=".85"/>
        </g>
      </g>
    </g>
    <g id="ombrescaffale">
      <polyline class="st16" points="555.49 499.32 551.52 490.92 551.52 395.64 555.49 390.31"/>
    </g>
    <g id="scaffale_2">
      <rect class="st12" x="651.46" y="313.13" width="73.07" height="186.2"/>
      <polygon class="st16" points="643.39 492.26 651.46 499.33 651.46 313.13 643.39 320.21 643.39 492.26"/>
      <g>
        <rect class="st11" x="659.37" y="379.64" width="58.22" height="52.14"/>
        <path class="st66" d="M697.83,381.7l-1.28,3.66c-.35.99-1.28,1.65-2.32,1.65h-11.41c-1.04,0-1.98-.66-2.32-1.65l-1.28-3.66h-18.2v49.25h55.03v-49.25h-18.22Z"/>
      </g>
      <g>
        <rect class="st11" x="659.37" y="439.33" width="58.22" height="52.14"/>
        <path class="st66" d="M697.83,441.38l-1.28,3.66c-.35.99-1.28,1.65-2.32,1.65h-11.41c-1.04,0-1.98-.66-2.32-1.65l-1.28-3.66h-18.2v49.25h55.03v-49.25h-18.22Z"/>
      </g>
      <g>
        <rect class="st11" x="659.37" y="320.52" width="58.22" height="52.14"/>
        <path class="st66" d="M697.83,322.58l-1.28,3.66c-.35.99-1.28,1.65-2.32,1.65h-11.41c-1.04,0-1.98-.66-2.32-1.65l-1.28-3.66h-18.2v49.25h55.03v-49.25h-18.22Z"/>
      </g>
    </g>
    <g id="ombre_scaffale_2">
      <polygon class="st47" points="658.78 379.37 660.42 381.43 678.62 381.43 695.16 430.68 658.78 431.51 658.78 379.37"/>
      <polygon class="st47" points="658.78 439.06 660.42 441.11 678.62 441.11 695.16 490.37 658.78 491.19 658.78 439.06"/>
      <polygon class="st47" points="658.78 320.52 660.42 322.58 678.62 322.58 695.16 371.83 658.78 372.66 658.78 320.52"/>
      <rect class="st52" x="651.46" y="313.75" width="7.9" height="186.19"/>
    </g>
    <g id="scrivania">
      <polyline class="st16" points="334.11 500.09 337.03 491.92 337.03 396.64 334.11 391.31"/>
      <g>
        <rect class="st12" x="555.49" y="392.47" width="65.37" height="106.85"/>
        <g>
          <rect class="st12" x="563.46" y="403.37" width="50.44" height="89.22"/>
          <line class="st3" x1="563.46" y1="421.86" x2="613.9" y2="421.86"/>
          <line class="st3" x1="563.46" y1="442.48" x2="613.9" y2="442.48"/>
          <rect class="st60" x="578.68" y="410.71" width="20" height="1.78"/>
          <rect class="st60" x="578.68" y="431.29" width="20" height="1.78"/>
          <rect class="st60" x="578.68" y="451.9" width="20" height="1.78"/>
        </g>
      </g>
      <g>
        <rect class="st10" x="325.69" y="388.31" width="295.27" height="8.33"/>
        <polyline class="st15" points="325.69 388.31 336.39 386.22 612.25 386.22 620.96 388.31"/>
      </g>
      <rect class="st10" x="325.69" y="396.64" width="8.07" height="103.69"/>
    </g>
    <g id="oggetti">
      <rect class="st36" x="653.06" y="203.79" width="51.33" height="51.33"/>
      <rect class="st36" x="741.84" y="203.79" width="51.33" height="51.33"/>
      <g>
        <path class="st67" d="M737.59,386.38c.33.5,12,38.17,14.67,51,2.67,12.83,4.33,39.67,4.33,39.67h7.33s-2.83-19.33-9.33-41.83c-6.5-22.5-17-48.83-17-48.83h0Z"/>
        <path class="st71" d="M746.76,362.54s7.17,54.01,8.17,63.01,3.67,55.17,3.67,55.17h6.79s-4.46-44.33-7.79-64.33-10.83-53.84-10.83-53.84h0Z"/>
        <polygon class="st67" points="760.09 357.36 760.09 484.05 767.26 483.05 760.09 357.36"/>
        <polygon class="st26" points="778.59 383.45 770.92 490.58 765.38 491.38 778.59 383.45"/>
        <polygon class="st33" points="785.92 405.55 766.28 484.05 775.42 486.84 785.92 405.55"/>
        <polygon class="st64" points="767.26 365.56 761.42 485.71 773.09 485.71 767.26 365.56"/>
      </g>
      <g>
        <g>
          <rect class="st56" x="538.12" y="368.31" width="22.8" height="3.96" transform="translate(91.11 848.77) rotate(-80.2)"/>
          <line class="st5" x1="551.73" y1="360.54" x2="553.16" y2="360.79"/>
          <line class="st5" x1="551.61" y1="361.27" x2="553.03" y2="361.52"/>
          <line class="st5" x1="551.48" y1="362.01" x2="552.9" y2="362.25"/>
          <line class="st5" x1="551.35" y1="362.74" x2="552.78" y2="362.98"/>
          <line class="st5" x1="551.23" y1="363.47" x2="552.65" y2="363.72"/>
          <line class="st5" x1="551.1" y1="364.2" x2="552.52" y2="364.45"/>
          <line class="st5" x1="550.97" y1="364.93" x2="552.4" y2="365.18"/>
          <line class="st5" x1="550.85" y1="365.67" x2="552.27" y2="365.91"/>
          <line class="st5" x1="550.72" y1="366.4" x2="552.14" y2="366.65"/>
          <line class="st5" x1="550.59" y1="367.13" x2="552.02" y2="367.38"/>
          <line class="st5" x1="550.47" y1="367.86" x2="551.89" y2="368.11"/>
          <line class="st5" x1="550.34" y1="368.6" x2="551.76" y2="368.84"/>
          <line class="st5" x1="550.21" y1="369.33" x2="551.64" y2="369.58"/>
          <line class="st5" x1="550.09" y1="370.06" x2="551.51" y2="370.31"/>
          <line class="st5" x1="549.96" y1="370.79" x2="551.38" y2="371.04"/>
          <line class="st5" x1="549.84" y1="371.53" x2="551.26" y2="371.77"/>
          <line class="st5" x1="549.71" y1="372.26" x2="551.13" y2="372.5"/>
          <line class="st5" x1="549.58" y1="372.99" x2="551" y2="373.24"/>
          <line class="st5" x1="549.46" y1="373.72" x2="550.88" y2="373.97"/>
          <line class="st5" x1="549.33" y1="374.46" x2="550.75" y2="374.7"/>
          <line class="st5" x1="549.2" y1="375.19" x2="550.62" y2="375.43"/>
          <line class="st5" x1="549.08" y1="375.92" x2="550.5" y2="376.17"/>
          <line class="st5" x1="548.95" y1="376.65" x2="550.37" y2="376.9"/>
          <line class="st5" x1="548.82" y1="377.39" x2="550.25" y2="377.63"/>
          <line class="st5" x1="548.7" y1="378.12" x2="550.12" y2="378.36"/>
          <line class="st5" x1="548.57" y1="378.85" x2="549.99" y2="379.1"/>
          <line class="st5" x1="548.44" y1="379.58" x2="549.87" y2="379.83"/>
          <line class="st5" x1="548.32" y1="380.32" x2="549.74" y2="380.56"/>
        </g>
        <g>
          <rect class="st35" x="539.82" y="363.31" height="22.33"/>
          <path class="st4" d="M538.7,364.11l.22-.02c-.28-2.86-.55-5.18-.61-5.17s.11,2.33.39,5.2h0Z"/>
        </g>
        <g>
          <rect class="st34" x="539.6" y="363.49" height="22.33"/>
          <path class="st4" d="M537.39,364.39l.22-.04c-.58-2.82-1.09-5.09-1.15-5.08s.36,2.31.94,5.13h-.01Z"/>
        </g>
        <polygon class="st30" points="544.13 379.73 543.23 379.79 542.12 360.89 542.47 359.04 543.02 360.83 544.13 379.73"/>
        <polygon class="st66" points="542.41 381.99 541.51 382.07 539.95 363.2 540.25 361.34 540.85 363.12 542.41 381.99"/>
        <polygon class="st14" points="550.08 387.11 538.83 387.11 537.25 369.4 551.67 369.4 550.08 387.11"/>
      </g>
      <g>
        <g>
          <path class="st26" d="M385.24,304.13c1.37-1.78,1.04-4.34-.74-5.72l-4.98,6.46c1.78,1.37,4.34,1.04,5.72-.74Z"/>
          <path class="st22" d="M371.94,292.1l-3.71-2.86-2.14,2.77,3.71,2.86c-4.11,6.71-2.78,15.42,3.36,20.15l19.12-24.8c-6.14-4.73-14.9-3.81-20.34,1.88Z"/>
        </g>
        <g>
          <path class="st16" d="M370.78,287.95c-.51-.41-1.24-.36-1.63.11l-30.25,38.04c-.42-.84-1.36-1.3-2.26-1.06-1.03.28-1.63,1.36-1.36,2.44l.6,2.42-4.04,5.07,2.98,2.41,2.19-2.89,12.52,50.46,5.96-1.6-15.33-53.02,30.86-40.76c.38-.48.27-1.2-.24-1.62h0Z"/>
          <circle class="st70" cx="338.25" cy="329.44" r=".74"/>
        </g>
      </g>
      <path class="st22" d="M345.98,382h24.05c2.75,0,4.99,2.24,4.99,4.99h-31.33v-2.7c0-1.27,1.03-2.29,2.29-2.29h0Z"/>
      <g>
        <g>
          <circle class="st23" cx="516.7" cy="128.65" r="26.56"/>
          <path class="st22" d="M516.7,96.98c-17.49,0-31.67,14.18-31.67,31.67s14.18,31.67,31.67,31.67,31.67-14.18,31.67-31.67-14.18-31.67-31.67-31.67ZM516.7,153.92c-13.96,0-25.27-11.31-25.27-25.27s11.31-25.27,25.27-25.27,25.27,11.31,25.27,25.27-11.31,25.27-25.27,25.27Z"/>
        </g>
        <g>
          <line class="st2" x1="506.15" y1="111.04" x2="509.39" y2="116.66"/>
          <line class="st2" x1="498.37" y1="118.68" x2="503.99" y2="121.92"/>
          <line class="st2" x1="494.45" y1="129.18" x2="501.94" y2="129.18"/>
          <line class="st2" x1="498.18" y1="139.73" x2="503.79" y2="136.49"/>
          <line class="st2" x1="505.81" y1="147.51" x2="509.06" y2="141.9"/>
          <line class="st2" x1="516.32" y1="151.43" x2="516.32" y2="143.94"/>
          <line class="st2" x1="526.87" y1="147.71" x2="523.63" y2="142.09"/>
          <line class="st2" x1="534.65" y1="140.07" x2="529.03" y2="136.83"/>
          <line class="st2" x1="538.57" y1="129.57" x2="531.08" y2="129.57"/>
          <line class="st2" x1="534.84" y1="119.01" x2="529.23" y2="122.25"/>
          <line class="st2" x1="527.21" y1="111.23" x2="523.96" y2="116.85"/>
          <line class="st2" x1="516.7" y1="107.32" x2="516.7" y2="114.8"/>
        </g>
        <g>
          <line class="st2" x1="516.7" y1="119.92" x2="516.7" y2="130.29"/>
          <path class="st30" d="M516.7,118.68c-.22.58-.59,1.31-.98,1.76l.98-.35.98.35c-.39-.45-.76-1.17-.98-1.76Z"/>
        </g>
        <g>
          <line class="st2" x1="524.34" y1="130.29" x2="516.7" y2="130.29"/>
          <path class="st30" d="M525.58,130.29c-.58-.22-1.31-.59-1.76-.98l.35.98-.35.98c.45-.39,1.17-.76,1.76-.98Z"/>
        </g>
      </g>
      <g>
        <line class="st6" x1="635.54" y1="9.68" x2="635.54" y2="105.76"/>
        <path class="st24" d="M635.54,100.04c-16.3,0-29.52,13.22-29.52,29.52h59.03c0-16.3-13.22-29.52-29.52-29.52h.01Z"/>
      </g>
      <g>
        <line class="st6" x1="396.52" y1="9.68" x2="396.52" y2="105.76"/>
        <path class="st24" d="M396.52,100.04c-16.3,0-29.52,13.22-29.52,29.52h59.03c0-16.3-13.22-29.52-29.52-29.52h.01Z"/>
      </g>
      <rect class="st36" x="564.29" y="203.79" width="51.33" height="51.33"/>
      <polygon class="st1" points="611.85 207.47 612.87 206.39 612.87 206.31 566.85 206.31 568.03 207.47 566.85 206.31 566.38 206.31 566.38 252.29 568.03 250.47 566.38 252.29 566.38 252.79 612.87 252.79 612.87 252.7 611.85 251.67 612.87 252.7 612.87 206.39 611.85 207.47"/>
      <polygon class="st55" points="612.87 252.7 618.03 257.96 618.03 257.96 618.03 201.14 617.78 201.14 612.87 206.39 612.87 252.7"/>
      <polygon class="st68" points="612.87 252.7 612.87 252.79 566.38 252.79 566.38 252.29 561.23 257.96 618.03 257.96 612.87 252.7"/>
      <polygon class="st68" points="566.38 206.31 566.85 206.31 561.59 201.14 561.22 201.14 561.22 257.96 561.23 257.96 566.38 252.29 566.38 206.31"/>
      <polygon class="st57" points="612.87 206.31 612.87 206.39 617.78 201.14 561.59 201.14 566.85 206.31 612.87 206.31"/>
      <polygon class="st55" points="701.78 252.7 706.95 257.96 706.95 257.96 706.95 201.14 706.7 201.14 701.78 206.39 701.78 252.7"/>
      <polygon class="st57" points="701.78 206.31 701.78 206.39 706.7 201.14 650.5 201.14 655.76 206.31 701.78 206.31"/>
      <polygon class="st57" points="790.56 252.7 795.72 257.96 795.72 257.96 795.72 201.14 795.47 201.14 790.56 206.39 790.56 252.7"/>
      <polygon class="st57" points="790.56 206.31 790.56 206.39 795.47 201.14 739.28 201.14 744.54 206.31 790.56 206.31"/>
      <rect class="st57" x="578.15" y="218.52" width="10.13" height="10.13"/>
      <rect class="st57" x="590.32" y="230.5" width="10.13" height="10.13"/>
      <rect class="st60" x="573.26" y="230.06" width="15.64" height="15.64"/>
      <rect class="st60" x="589.6" y="213.45" width="15.64" height="15.64"/>
      <g>
        <polygon class="st1" points="700.63 207.47 701.64 206.39 701.64 206.31 655.62 206.31 656.81 207.47 655.62 206.31 655.16 206.31 655.16 252.29 656.81 250.47 655.16 252.29 655.16 252.79 701.64 252.79 701.64 252.7 700.63 251.67 701.64 252.7 701.64 206.39 700.63 207.47"/>
        <polygon class="st65" points="701.64 252.7 701.64 252.79 655.16 252.79 655.16 252.29 650 257.96 706.8 257.96 701.64 252.7"/>
        <polygon class="st65" points="655.16 206.31 655.62 206.31 650.36 201.14 649.99 201.14 649.99 257.96 650 257.96 655.16 252.29 655.16 206.31"/>
      </g>
      <path class="st60" d="M664.93,216.64v25.67h25.67v-25.67h-25.67ZM678.51,230.5h-6.92v-6.92h6.92v6.92Z"/>
      <g>
        <path class="st60" d="M762.85,237.66c0-8.14,6.6-14.73,14.73-14.73,1.36,0,2.68.2,3.93.55v-8.4h-28.02v28.02h10.41c-.67-1.69-1.05-3.52-1.05-5.44h0Z"/>
        <path class="st60" d="M781.51,231.07c-.07,0-.14,0-.21,0-4.27,0-7.73,3.46-7.73,7.73,0,1.6.48,3.08,1.31,4.31h6.62v-12.03h0Z"/>
      </g>
      <path class="st60" d="M776.45,500.03h-17.15c-1.54,0-2.83-1.16-3-2.69l-2.71-24.64c-.09-.85.57-1.59,1.43-1.59h25.71c.85,0,1.52.74,1.43,1.59l-2.71,24.64c-.17,1.53-1.46,2.69-3,2.69h0Z"/>
      <g>
        <polygon class="st1" points="789.4 207.47 790.41 206.39 790.41 206.31 744.39 206.31 745.58 207.47 744.39 206.31 743.93 206.31 743.93 252.29 745.58 250.47 743.93 252.29 743.93 252.79 790.41 252.79 790.41 252.7 789.4 251.67 790.41 252.7 790.41 206.39 789.4 207.47"/>
        <polygon class="st68" points="790.41 252.7 790.41 252.79 743.93 252.79 743.93 252.29 738.78 257.96 795.58 257.96 790.41 252.7"/>
        <polygon class="st68" points="743.93 206.31 744.39 206.31 739.13 201.14 738.76 201.14 738.76 257.96 738.78 257.96 743.93 252.29 743.93 206.31"/>
      </g>
    </g>
    <g id="ombreOggetti">
      <path class="st44" d="M541.83,383.03s2.38.14,3.58,2.53c.61,1.23.75,1.65,1.02,2.08h3.66s-8.7-8.44-7.44-12.34c1.26-3.89,9.45-6.36,9.45-6.36h-15.34l1.19,14.07h3.9l-.02.02Z"/>
      <path class="st51" d="M370.78,287.95s-7.6,10.88-16.94,22.88-14.85,18.6-15.59,18.6.57,3.92,2.41,8.83,11.59,38.84,11.05,40.71-1.21,2.32-1.21,2.32c0,0,8.67.83,11.17,3.2s.67,2.34.67,2.34l12.7.15s-1.85-3.96-3.77-4.47-16.14-.51-16.14-.51l-14.94-51.67,31.09-40.72-.47-1.66h-.03Z"/>
      <path class="st48" d="M373.91,290.35s-2.7,9.27,1.1,11.71,11.07-5.86,11.07-5.86c0,0-5.86,6.68-4.06,7.32s3.22.6,3.22.6c0,0,.07,1.04-1.75,1.31s-3.15.28-3.15.28l-7.17,9.3s-5.53-4.17-5.52-9.3,2.16-10.85,2.16-10.85l-1.62-1.25,2.12-2.78,1.51.83,2.09-1.32h0Z"/>
      <path class="st49" d="M561.59,201.14l5.26,5.17s20.27-.46,28.53,12.21,1.65,34.61,1.65,34.61l-2.82,4.83h23.83v-56.82h-56.45Z"/>
      <path class="st49" d="M650.18,201.14l5.26,5.17s20.27-.46,28.53,12.21,1.65,34.61,1.65,34.61l-2.82,4.83h23.83v-56.82h-56.45Z"/>
      <path class="st49" d="M739.28,201.14l5.26,5.17s20.27-.46,28.53,12.21,1.65,34.61,1.65,34.61l-2.82,4.83h23.83v-56.82h-56.45Z"/>
      <path class="st25" d="M631.75,100.08s8.79.48,16.88,9.6c9.7,10.92,5.62,19.29,5.62,19.29l11.26.33s-1.7-13.76-6.53-18.52-10.63-8.72-13.93-9.58-13.29-1.12-13.29-1.12h-.01Z"/>
      <path class="st21" d="M506.15,105.69s28.66-1.71,32.42,19.69c3.92,22.33-19.48,28.43-19.48,28.43,0,0,27.46-3.43,22.88-27.41-6.18-32.42-35.83-20.71-35.83-20.71h.01Z"/>
      <path class="st38" d="M532.03,102.09s3.69,6.7,6.53,11.75c2.84,5.06,6.05,20.56,0,28.24-6.3,8.01-14.94,12.2-21.04,11.83-8.89-.54,4.88,5.9,5.46,5.77s12.76-3.9,16.91-9.49c4.15-5.59,12.52-14.77,6.97-31.19-5.54-16.41-14.84-16.92-14.84-16.92h.01Z"/>
      <path class="st37" d="M760.31,470.98s8.82,2.41,11.9,10.42c1.92,4.99,0,18.46,0,18.46,0,0,5.74.92,6.6-.86s1.03-5.16,1.03-5.16l2.12-19.31s1.55-3.57-2.99-3.42c-5.09.17-18.67-.13-18.67-.13h0Z"/>
      <path class="st43" d="M746.76,362.54s11.46,66.52,11.97,71.85,1.36,24.24,1.36,24.24v-26.04l-13.33-70.06h0Z"/>
      <path class="st43" d="M760.23,359.81s1.77,60.31,2.11,67.53-1.06,43.78-1.06,43.78l.89-.82,1.5-43.12-3.44-67.36h0Z"/>
      <path class="st43" d="M767.26,365.56l.62,96.69v8.7h9.59s8.61-65.15,8.45-64.63-11.89,62.38-11.89,62.38l-1.83-1.2-.22-6.25,1.45-5.8,5.15-71.99-7.07,69.86-4.26-87.74v-.02Z"/>
    </g>
    <g id="Monitorr">
      <polygon class="st19" points="475.47 387.27 449.7 387.27 451.84 378.36 473.32 378.36 475.47 387.27"/>
      <g>
        <rect class="st9" x="402.65" y="295.76" width="124.67" height="82.6" rx="2.53" ry="2.53"/>
        <rect class="st18" x="411.98" y="304.86" width="104.42" height="58.65" rx="1.25" ry="1.25"/>
      </g>
    </g>
    <g id="ombre_monitor">
      <path class="st48" d="M411.59,295.76h111.15s3.82,0,4.33.74.75,5.49.75,5.49l-.12,74.57s-1.22,1.8-2.41,1.8-29.86-.06-29.86-.06c0,0,0-33.31-18-51.14-18-17.83-65.83-31.39-65.83-31.39h0Z"/>
      <polygon class="st29" points="418.67 304.86 513.35 308.9 512.35 363.48 516.41 363.52 516.9 304.86 418.67 304.86"/>
      <path class="st45" d="M411.59,295.76s104.62,1.78,109.35,2.19c5.46.46,4.71,9.3,4.71,9.3l-1.32,70.97,1.21-.26c.87-.18,1.49-.95,1.49-1.83l.28-77.83s.5-2.56-4.58-2.53c-2.53.01-111.15,0-111.15,0h.01Z"/>
      <path class="st48" d="M451.84,378.36s15.35-.53,14.48,3.66c-.75,3.63-2.13,4.97-2.13,4.97l11.28.28-2.15-8.91h-21.48Z"/>
    </g>
    <g id="ombre_scrivania">
      <polygon class="st32" points="555.49 441.03 620.87 499.32 620.6 396.64 555.49 396.82 555.49 441.03"/>
    </g>
    <g id="Sedie_gropu">
      <g id="sedie">
        <path class="st13" d="M371.67,431.71h-3.33l-4.93-23.75c-.44-2.12,1.18-4.1,3.34-4.1h4.92v27.85Z"/>
        <path class="st13" d="M423.37,434.44h3.33l4.93-23.75c.44-2.12-1.18-4.1-3.34-4.1h-4.92v27.85Z"/>
        <g>
          <circle class="st20" cx="387.66" cy="499.8" r="3.18"/>
          <path class="st18" d="M403.29,482.32s-7.18,3.73-10.14,8.07-3.12,8.17-3.12,8.17h-4.77s0-4.75,3.58-10.64,4.44-7.81,4.44-7.81l10.02,2.22h0Z"/>
          <circle class="st20" cx="356.74" cy="499.8" r="3.18"/>
          <circle class="st20" cx="438.41" cy="499.8" r="3.18"/>
          <path class="st8" d="M389.96,442.78v12.68c0,1.4,1.05,2.53,2.4,2.69v14.83h8.38v-14.83c1.35-.16,2.4-1.3,2.4-2.69v-12.68h-13.19,0Z"/>
          <path class="st18" d="M408.17,478.6c-7.4-3.23-15.82-3.18-23.17.15l-27.47,12.61c-2.67,1.23-4.39,3.9-4.39,6.84v.35h6.91c0-3.1,1.97-5.85,4.9-6.84l22.03-7.46c6.07-2.09,12.66-2.1,18.74-.05l24.44,7.63c2.94.92,4.94,3.64,4.94,6.72h6.91v-.25c0-2.99-1.77-5.7-4.52-6.9l-29.32-12.8h0Z"/>
          <path class="st7" d="M393.1,472.49h6.84c2.74,0,4.96,2.22,4.96,4.96v6.77h-16.77v-6.77c0-2.74,2.22-4.96,4.96-4.96h.01Z"/>
        </g>
        <path class="st17" d="M435.41,342.12l-18.51-2.8c-12.81-1.94-25.84-1.94-38.65,0l-18.51,2.8c-1.04.16-1.77,1.11-1.65,2.16l10.5,89.06h.06c.81,5.38,13.45,9.65,28.92,9.65s28.11-4.27,28.92-9.65h.06l10.5-89.06c.12-1.05-.61-2-1.65-2.16h0Z"/>
      </g>
      <g id="ombre_sedie">
        <path class="st27" d="M359.93,342.22c.53,1.2,25.67,6.09,37.65,21.86s-10.41,68.26-13.1,68.26h-15.88s19.51,1.8,25.68,5.55,0,5.1,0,5.1c0,0,2.87,2.48,3.3,7.56s-2.46,21.94-2.46,21.94c0,0,1.91-1.7,4,3.83s1.96,7.9,1.96,7.9l4.64-.02s.52-5.52-.97-7.98-4-3.73-4-3.73v-14.33s2.4-.43,2.4-2.69v-11.96s3.17-.1,9.66-2.03,14.07-5.38,13.9-7.03-.17-2.73-.17-2.73c0,0,10.1-84.86,10.31-86.65s.3-3.68-3.27-4.22-25.56-4.4-36.01-3.97-16.26,1.03-24.47,2.23-13.18,3.12-13.18,3.12h0Z"/>
        <path class="st42" d="M387.66,480.1s-26.71,11.09-27.73,12.42-3.56,2.14-3.18,4.09-1.4,1.94-1.4,1.94c0,0,1.4.85,1.4,2.64v1.79s-.59,1.64,1.34-.3,1.97-4.13,1.97-4.13c0,0-1.02-4.36,3.29-6.06s24.64-8.24,24.64-8.24l-.33-4.15h0Z"/>
        <path class="st42" d="M392.9,484.22s-.77.58-2.05,5.11-3.18,7.28-3.18,7.28c0,0-.13,1.12,0,3.18s-1.39,2.86-1.39,2.86c0,0,2.2,1.24,3.31-.33s.37-5.72.37-5.72c0,0,1.48-5.01,4.32-7.63s5.82-4.76,5.82-4.76h-7.2,0Z"/>
        <path class="st42" d="M404.91,480.1s17.05,7.81,21.63,9.23,9.54,3.38,10.39,6.3.14,7.05.14,7.05c0,0-1.96-5.26-2.25-6.07s.25-3.24-5.39-5.01-23.71-7.4-23.71-7.4l-.82-4.1h0Z"/>
      </g>
    </g>
    <g id="Isolation_Mode">
      <g>
        <g>
          <g>
            <rect class="st60" x="582.46" y="361.38" width="24.06" height="4.77"/>
            <g>
              <g>
                <path class="st69" d="M603.87,362.43c0,.33.27.6.6.6s.6-.27.6-.6-.27-.6-.6-.6-.6.27-.6.6Z"/>
                <path class="st28" d="M604.47,362.65h0c.2,0,.36-.16.36-.36v-1.76c0-.2-.16-.36-.36-.36h0c-.2,0-.36.16-.36.36v1.76c0,.2.16.36.36.36Z"/>
              </g>
              <g>
                <path class="st69" d="M601.65,362.43c0,.33.27.6.6.6s.6-.27.6-.6-.27-.6-.6-.6-.6.27-.6.6Z"/>
                <path class="st28" d="M602.25,362.65h0c.2,0,.36-.16.36-.36v-1.76c0-.2-.16-.36-.36-.36h0c-.2,0-.36.16-.36.36v1.76c0,.2.16.36.36.36Z"/>
              </g>
              <g>
                <path class="st69" d="M599.43,362.43c0,.33.27.6.6.6s.6-.27.6-.6-.27-.6-.6-.6-.6.27-.6.6Z"/>
                <path class="st28" d="M600.03,362.65h0c.2,0,.36-.16.36-.36v-1.76c0-.2-.16-.36-.36-.36h0c-.2,0-.36.16-.36.36v1.76c0,.2.16.36.36.36Z"/>
              </g>
              <g>
                <path class="st69" d="M597.21,362.43c0,.33.27.6.6.6s.6-.27.6-.6-.27-.6-.6-.6-.6.27-.6.6Z"/>
                <path class="st28" d="M597.82,362.65h0c.2,0,.36-.16.36-.36v-1.76c0-.2-.16-.36-.36-.36h0c-.2,0-.36.16-.36.36v1.76c0,.2.16.36.36.36Z"/>
              </g>
              <g>
                <path class="st69" d="M595,362.43c0,.33.27.6.6.6s.6-.27.6-.6-.27-.6-.6-.6-.6.27-.6.6Z"/>
                <path class="st28" d="M595.6,362.65h0c.2,0,.36-.16.36-.36v-1.76c0-.2-.16-.36-.36-.36h0c-.2,0-.36.16-.36.36v1.76c0,.2.16.36.36.36Z"/>
              </g>
              <g>
                <path class="st69" d="M592.78,362.43c0,.33.27.6.6.6s.6-.27.6-.6-.27-.6-.6-.6-.6.27-.6.6Z"/>
                <path class="st28" d="M593.38,362.65h0c.2,0,.36-.16.36-.36v-1.76c0-.2-.16-.36-.36-.36h0c-.2,0-.36.16-.36.36v1.76c0,.2.16.36.36.36Z"/>
              </g>
              <g>
                <path class="st69" d="M590.56,362.43c0,.33.27.6.6.6s.6-.27.6-.6-.27-.6-.6-.6-.6.27-.6.6Z"/>
                <path class="st28" d="M591.16,362.65h0c.2,0,.36-.16.36-.36v-1.76c0-.2-.16-.36-.36-.36h0c-.2,0-.36.16-.36.36v1.76c0,.2.16.36.36.36Z"/>
              </g>
              <g>
                <path class="st69" d="M588.34,362.43c0,.33.27.6.6.6s.6-.27.6-.6-.27-.6-.6-.6-.6.27-.6.6Z"/>
                <path class="st28" d="M588.94,362.65h0c.2,0,.36-.16.36-.36v-1.76c0-.2-.16-.36-.36-.36h0c-.2,0-.36.16-.36.36v1.76c0,.2.16.36.36.36Z"/>
              </g>
              <g>
                <path class="st69" d="M586.12,362.43c0,.33.27.6.6.6s.6-.27.6-.6-.27-.6-.6-.6-.6.27-.6.6Z"/>
                <path class="st28" d="M586.72,362.65h0c.2,0,.36-.16.36-.36v-1.76c0-.2-.16-.36-.36-.36h0c-.2,0-.36.16-.36.36v1.76c0,.2.16.36.36.36Z"/>
              </g>
              <g>
                <circle class="st69" cx="584.51" cy="362.43" r=".6"/>
                <path class="st28" d="M584.51,362.65h0c.2,0,.36-.16.36-.36v-1.76c0-.2-.16-.36-.36-.36h0c-.2,0-.36.16-.36.36v1.76c0,.2.16.36.36.36Z"/>
              </g>
            </g>
            <rect class="st60" x="559.92" y="361.38" width="24.06" height="4.77"/>
            <g>
              <g>
                <circle class="st69" cx="581.94" cy="362.43" r=".6"/>
                <path class="st28" d="M581.94,362.65h0c.2,0,.36-.16.36-.36v-1.76c0-.2-.16-.36-.36-.36h0c-.2,0-.36.16-.36.36v1.76c0,.2.16.36.36.36Z"/>
              </g>
              <g>
                <path class="st69" d="M579.12,362.43c0,.33.27.6.6.6s.6-.27.6-.6-.27-.6-.6-.6-.6.27-.6.6Z"/>
                <path class="st28" d="M579.72,362.65h0c.2,0,.36-.16.36-.36v-1.76c0-.2-.16-.36-.36-.36h0c-.2,0-.36.16-.36.36v1.76c0,.2.16.36.36.36Z"/>
              </g>
              <g>
                <circle class="st69" cx="577.5" cy="362.43" r=".6"/>
                <path class="st28" d="M577.5,362.65h0c.2,0,.36-.16.36-.36v-1.76c0-.2-.16-.36-.36-.36h0c-.2,0-.36.16-.36.36v1.76c0,.2.16.36.36.36Z"/>
              </g>
              <g>
                <circle class="st69" cx="575.28" cy="362.43" r=".6"/>
                <path class="st28" d="M575.28,362.65h0c.2,0,.36-.16.36-.36v-1.76c0-.2-.16-.36-.36-.36h0c-.2,0-.36.16-.36.36v1.76c0,.2.16.36.36.36Z"/>
              </g>
              <g>
                <path class="st69" d="M572.46,362.43c0,.33.27.6.6.6s.6-.27.6-.6-.27-.6-.6-.6-.6.27-.6.6Z"/>
                <path class="st28" d="M573.07,362.65h0c.2,0,.36-.16.36-.36v-1.76c0-.2-.16-.36-.36-.36h0c-.2,0-.36.16-.36.36v1.76c0,.2.16.36.36.36Z"/>
              </g>
              <g>
                <path class="st69" d="M570.25,362.43c0,.33.27.6.6.6s.6-.27.6-.6-.27-.6-.6-.6-.6.27-.6.6Z"/>
                <path class="st28" d="M570.85,362.65h0c.2,0,.36-.16.36-.36v-1.76c0-.2-.16-.36-.36-.36h0c-.2,0-.36.16-.36.36v1.76c0,.2.16.36.36.36Z"/>
              </g>
              <g>
                <path class="st69" d="M568.03,362.43c0,.33.27.6.6.6s.6-.27.6-.6-.27-.6-.6-.6-.6.27-.6.6Z"/>
                <path class="st28" d="M568.63,362.65h0c.2,0,.36-.16.36-.36v-1.76c0-.2-.16-.36-.36-.36h0c-.2,0-.36.16-.36.36v1.76c0,.2.16.36.36.36Z"/>
              </g>
              <g>
                <circle class="st69" cx="566.41" cy="362.43" r=".6"/>
                <path class="st28" d="M566.41,362.65h0c.2,0,.36-.16.36-.36v-1.76c0-.2-.16-.36-.36-.36h0c-.2,0-.36.16-.36.36v1.76c0,.2.16.36.36.36Z"/>
              </g>
              <g>
                <path class="st69" d="M563.59,362.43c0,.33.27.6.6.6s.6-.27.6-.6-.27-.6-.6-.6-.6.27-.6.6Z"/>
                <path class="st28" d="M564.19,362.65h0c.2,0,.36-.16.36-.36v-1.76c0-.2-.16-.36-.36-.36h0c-.2,0-.36.16-.36.36v1.76c0,.2.16.36.36.36Z"/>
              </g>
              <g>
                <path class="st69" d="M561.37,362.43c0,.33.27.6.6.6s.6-.27.6-.6-.27-.6-.6-.6-.6.27-.6.6Z"/>
                <path class="st28" d="M561.97,362.65h0c.2,0,.36-.16.36-.36v-1.76c0-.2-.16-.36-.36-.36h0c-.2,0-.36.16-.36.36v1.76c0,.2.16.36.36.36Z"/>
              </g>
            </g>
          </g>
          <rect class="st69" x="573.51" y="364.03" width="19.41" height="1.15"/>
          <g>
            <rect class="st63" x="560.25" y="366.58" width="45.95" height="20.76"/>
            <path class="st66" d="M605.82,366.95v20.01h-45.2v-20.01h45.2M606.57,366.2h-46.7v21.51h46.7v-21.51h0Z"/>
          </g>
        </g>
        <g>
          <rect class="st60" x="571.59" y="369.1" width="1.77" height="1.77"/>
          <rect class="st60" x="566.2" y="369.1" width="1.77" height="1.77"/>
          <rect class="st60" x="598.47" y="369.1" width="1.77" height="1.77"/>
          <rect class="st60" x="593.09" y="369.1" width="1.77" height="1.77"/>
          <rect class="st60" x="587.71" y="369.1" width="1.77" height="1.77"/>
          <rect class="st60" x="582.34" y="369.1" width="1.77" height="1.77"/>
          <rect class="st60" x="576.96" y="369.1" width="1.77" height="1.77"/>
        </g>
        <g>
          <g>
            <rect class="st60" x="571.59" y="373.66" width="1.77" height="1.77"/>
            <rect class="st60" x="566.2" y="373.66" width="1.77" height="1.77"/>
            <rect class="st57" x="598.47" y="373.66" width="1.77" height="1.77"/>
            <rect class="st57" x="593.09" y="373.66" width="1.77" height="1.77"/>
            <rect class="st57" x="587.71" y="373.66" width="1.77" height="1.77"/>
            <rect class="st57" x="582.34" y="373.66" width="1.77" height="1.77"/>
            <rect class="st57" x="576.96" y="373.66" width="1.77" height="1.77"/>
          </g>
          <g>
            <rect class="st60" x="571.59" y="376.95" width="1.77" height="1.77"/>
            <rect class="st60" x="566.2" y="376.95" width="1.77" height="1.77"/>
            <rect class="st57" x="598.47" y="376.95" width="1.77" height="1.77"/>
            <rect class="st59" x="593.09" y="376.95" width="1.77" height="1.77"/>
            <rect class="st57" x="587.71" y="376.95" width="1.77" height="1.77"/>
            <rect class="st57" x="582.34" y="376.95" width="1.77" height="1.77"/>
            <rect class="st57" x="576.96" y="376.95" width="1.77" height="1.77"/>
          </g>
          <g>
            <rect class="st60" x="571.59" y="380.24" width="1.77" height="1.77"/>
            <rect class="st60" x="566.2" y="380.24" width="1.77" height="1.77"/>
            <rect class="st57" x="598.47" y="380.24" width="1.77" height="1.77"/>
            <rect class="st57" x="593.09" y="380.24" width="1.77" height="1.77"/>
            <rect class="st57" x="587.71" y="380.24" width="1.77" height="1.77"/>
            <rect class="st57" x="582.34" y="380.24" width="1.77" height="1.77"/>
            <rect class="st57" x="576.96" y="380.24" width="1.77" height="1.77"/>
          </g>
          <g>
            <rect class="st60" x="571.59" y="383.53" width="1.77" height="1.77"/>
            <rect class="st60" x="566.2" y="383.53" width="1.77" height="1.77"/>
            <rect class="st57" x="598.47" y="383.53" width="1.77" height="1.77"/>
            <rect class="st57" x="593.09" y="383.53" width="1.77" height="1.77"/>
            <rect class="st57" x="587.71" y="383.53" width="1.77" height="1.77"/>
            <rect class="st57" x="582.34" y="383.53" width="1.77" height="1.77"/>
            <rect class="st57" x="576.96" y="383.53" width="1.77" height="1.77"/>
          </g>
        </g>
      </g>
    </g>
  </g>
</svg>