<?xml version="1.0" encoding="UTF-8"?>
<svg id="Layer_1" xmlns="http://www.w3.org/2000/svg" version="1.1" viewBox="0 0 698 589.26">
  <!-- Generator: Adobe Illustrator 29.6.1, SVG Export Plug-In . SVG Version: 2.1.1 Build 9)  -->
  <defs>
    <style>
      .st0, .st1, .st2, .st3, .st4, .st5 {
        fill: none;
      }

      .st6 {
        fill: #b5b9be;
      }

      .st6, .st7, .st8, .st9, .st10, .st11, .st12, .st13, .st14, .st2, .st15, .st16, .st17, .st18 {
        stroke: #788088;
      }

      .st6, .st7, .st8, .st10, .st19, .st20, .st21, .st12, .st13, .st22, .st1, .st23, .st16, .st17, .st3, .st18, .st24, .st4, .st5 {
        stroke-miterlimit: 10;
      }

      .st7, .st14 {
        fill: #f7f8f8;
      }

      .st25, .st11, .st26 {
        fill: #e4e5e7;
      }

      .st27, .st28 {
        fill: #53595e;
      }

      .st29 {
        fill: #656c73;
      }

      .st8, .st30 {
        fill: #cccfd2;
      }

      .st31 {
        fill: #8c939a;
      }

      .st32 {
        stroke-miterlimit: 10;
        stroke-width: .75px;
      }

      .st32, .st33 {
        fill: #dadbdc;
      }

      .st32, .st33, .st19, .st22 {
        stroke: #61615f;
      }

      .st33 {
        stroke-miterlimit: 10;
        stroke-width: .75px;
      }

      .st34 {
        fill: #e6e6e6;
      }

      .st30 {
        opacity: .29;
      }

      .st30, .st35, .st36, .st20, .st37, .st38, .st39, .st40, .st41, .st42, .st43, .st44, .st26, .st28, .st45, .st24, .st46 {
        isolation: isolate;
      }

      .st30, .st35, .st36, .st20, .st38, .st39, .st40, .st42, .st43, .st44, .st26, .st28, .st45, .st24, .st46 {
        mix-blend-mode: multiply;
      }

      .st9, .st47, .st11, .st14, .st2, .st15 {
        stroke-linecap: round;
        stroke-linejoin: round;
      }

      .st9, .st44, .st48 {
        fill: #d5d8db;
      }

      .st47 {
        stroke: #abb0b5;
        stroke-width: .15px;
      }

      .st47, .st49, .st17 {
        fill: #a2a8ae;
      }

      .st50 {
        fill: #b3b3b2;
      }

      .st10 {
        stroke-width: 1.42px;
      }

      .st10, .st19, .st21, .st51, .st12, .st41, .st23 {
        fill: #788088;
      }

      .st19 {
        stroke-width: .71px;
      }

      .st35 {
        fill: #787877;
        opacity: .25;
      }

      .st36, .st20, .st38, .st39, .st40, .st24 {
        fill: #b8b8b7;
      }

      .st52 {
        fill: #f9fafa;
      }

      .st20 {
        opacity: .33;
      }

      .st20, .st24 {
        stroke: #c3c6ca;
      }

      .st21 {
        stroke: #e4e5e7;
      }

      .st21, .st23 {
        stroke-width: .75px;
      }

      .st53 {
        fill: #8d9297;
      }

      .st54 {
        fill: #c5c9cd;
      }

      .st13 {
        stroke-width: .64px;
      }

      .st13, .st55, .st42, .st43, .st18 {
        fill: #c3c6ca;
      }

      .st56 {
        fill: #d8dbdd;
      }

      .st22 {
        fill: #f4f4f4;
        stroke-width: .78px;
      }

      .st57 {
        fill: #abb0b5;
      }

      .st38, .st26, .st24 {
        opacity: .37;
      }

      .st39 {
        opacity: .31;
      }

      .st40 {
        opacity: .27;
      }

      .st58 {
        fill: #fff;
      }

      .st59 {
        fill: #61615f;
      }

      .st41 {
        opacity: .73;
      }

      .st1 {
        stroke: #656c73;
        stroke-width: .76px;
      }

      .st42 {
        opacity: .36;
      }

      .st43 {
        opacity: .38;
      }

      .st44 {
        opacity: .35;
      }

      .st15, .st16 {
        fill: #b0b5ba;
      }

      .st60 {
        fill: #c2c6c9;
      }

      .st28 {
        opacity: .28;
      }

      .st45 {
        fill: #babdc0;
        opacity: .57;
      }

      .st23 {
        stroke: #d5d8db;
      }

      .st3 {
        stroke: #53595e;
      }

      .st4 {
        stroke-width: .25px;
      }

      .st4, .st5 {
        stroke: #a2a8ae;
      }

      .st5 {
        stroke-width: .83px;
      }

      .st46 {
        fill: #929291;
        opacity: .32;
      }
    </style>
  </defs>
  <g class="st37">
    <g id="ombrescaffale">
      <polyline class="st15" points="357.19 499.32 353.22 490.92 353.22 395.64 357.19 390.31"/>
    </g>
    <g id="scaffale_2">
      <rect class="st11" x="453.16" y="313.13" width="73.07" height="186.2"/>
      <polygon class="st15" points="445.09 492.26 453.16 499.33 453.16 313.13 445.09 320.21 445.09 492.26"/>
      <g>
        <rect class="st10" x="461.07" y="379.64" width="58.22" height="52.14"/>
        <path class="st55" d="M499.53,381.7l-1.28,3.66c-.35.99-1.28,1.65-2.32,1.65h-11.41c-1.04,0-1.98-.66-2.32-1.65l-1.28-3.66h-18.2v49.25h55.03v-49.25h-18.22Z"/>
      </g>
      <g>
        <rect class="st10" x="461.07" y="439.33" width="58.22" height="52.14"/>
        <path class="st55" d="M499.53,441.38l-1.28,3.66c-.35.99-1.28,1.65-2.32,1.65h-11.41c-1.04,0-1.98-.66-2.32-1.65l-1.28-3.66h-18.2v49.25h55.03v-49.25h-18.22Z"/>
      </g>
      <g>
        <rect class="st10" x="461.07" y="320.52" width="58.22" height="52.14"/>
        <path class="st55" d="M499.53,322.58l-1.28,3.66c-.35.99-1.28,1.65-2.32,1.65h-11.41c-1.04,0-1.98-.66-2.32-1.65l-1.28-3.66h-18.2v49.25h55.03v-49.25h-18.22Z"/>
      </g>
    </g>
    <g id="ombre_scaffale_2">
      <polygon class="st42" points="460.48 379.37 462.12 381.43 480.32 381.43 496.86 430.68 460.48 431.51 460.48 379.37"/>
      <polygon class="st42" points="460.48 439.06 462.12 441.11 480.32 441.11 496.86 490.37 460.48 491.19 460.48 439.06"/>
      <polygon class="st42" points="460.48 320.52 462.12 322.58 480.32 322.58 496.86 371.83 460.48 372.66 460.48 320.52"/>
      <rect class="st46" x="453.16" y="313.75" width="7.9" height="186.19"/>
    </g>
    <g id="scrivania">
      <polyline class="st15" points="135.81 500.09 138.73 491.92 138.73 396.64 135.81 391.31"/>
      <g>
        <rect class="st11" x="357.19" y="392.47" width="65.37" height="106.85"/>
        <g>
          <rect class="st11" x="365.16" y="403.37" width="50.44" height="89.22"/>
          <line class="st2" x1="365.16" y1="421.86" x2="415.6" y2="421.86"/>
          <line class="st2" x1="365.16" y1="442.48" x2="415.6" y2="442.48"/>
          <rect class="st51" x="380.38" y="410.71" width="20" height="1.78"/>
          <rect class="st51" x="380.38" y="431.29" width="20" height="1.78"/>
          <rect class="st51" x="380.38" y="451.9" width="20" height="1.78"/>
        </g>
      </g>
      <g>
        <rect class="st9" x="127.39" y="388.31" width="295.27" height="8.33"/>
        <polyline class="st14" points="127.39 388.31 138.09 386.22 413.95 386.22 422.66 388.31"/>
      </g>
      <rect class="st9" x="127.39" y="396.64" width="8.07" height="103.69"/>
    </g>
    <g id="oggetti">
      <rect class="st34" x="454.76" y="203.79" width="51.33" height="51.33"/>
      <rect class="st34" x="543.54" y="203.79" width="51.33" height="51.33"/>
      <g>
        <path class="st56" d="M539.29,386.38c.33.5,12,38.17,14.67,51,2.67,12.83,4.33,39.67,4.33,39.67h7.33s-2.83-19.33-9.33-41.83c-6.5-22.5-17-48.83-17-48.83h0Z"/>
        <path class="st60" d="M548.46,362.54s7.17,54.01,8.17,63.01,3.67,55.17,3.67,55.17h6.79s-4.46-44.33-7.79-64.33-10.83-53.84-10.83-53.84h0Z"/>
        <polygon class="st56" points="561.79 357.36 561.79 484.05 568.96 483.05 561.79 357.36"/>
        <polygon class="st25" points="580.29 383.45 572.62 490.58 567.08 491.38 580.29 383.45"/>
        <polygon class="st31" points="587.62 405.55 567.98 484.05 577.12 486.84 587.62 405.55"/>
        <polygon class="st53" points="568.96 365.56 563.12 485.71 574.79 485.71 568.96 365.56"/>
      </g>
      <g>
        <g>
          <rect class="st48" x="339.82" y="368.31" width="22.8" height="3.96" transform="translate(-73.45 653.36) rotate(-80.2)"/>
          <line class="st4" x1="353.43" y1="360.54" x2="354.86" y2="360.79"/>
          <line class="st4" x1="353.31" y1="361.27" x2="354.73" y2="361.52"/>
          <line class="st4" x1="353.18" y1="362.01" x2="354.6" y2="362.25"/>
          <line class="st4" x1="353.05" y1="362.74" x2="354.48" y2="362.98"/>
          <line class="st4" x1="352.93" y1="363.47" x2="354.35" y2="363.72"/>
          <line class="st4" x1="352.8" y1="364.2" x2="354.22" y2="364.45"/>
          <line class="st4" x1="352.67" y1="364.93" x2="354.1" y2="365.18"/>
          <line class="st4" x1="352.55" y1="365.67" x2="353.97" y2="365.91"/>
          <line class="st4" x1="352.42" y1="366.4" x2="353.84" y2="366.65"/>
          <line class="st4" x1="352.29" y1="367.13" x2="353.72" y2="367.38"/>
          <line class="st4" x1="352.17" y1="367.86" x2="353.59" y2="368.11"/>
          <line class="st4" x1="352.04" y1="368.6" x2="353.46" y2="368.84"/>
          <line class="st4" x1="351.91" y1="369.33" x2="353.34" y2="369.58"/>
          <line class="st4" x1="351.79" y1="370.06" x2="353.21" y2="370.31"/>
          <line class="st4" x1="351.66" y1="370.79" x2="353.08" y2="371.04"/>
          <line class="st4" x1="351.54" y1="371.53" x2="352.96" y2="371.77"/>
          <line class="st4" x1="351.41" y1="372.26" x2="352.83" y2="372.5"/>
          <line class="st4" x1="351.28" y1="372.99" x2="352.7" y2="373.24"/>
          <line class="st4" x1="351.16" y1="373.72" x2="352.58" y2="373.97"/>
          <line class="st4" x1="351.03" y1="374.46" x2="352.45" y2="374.7"/>
          <line class="st4" x1="350.9" y1="375.19" x2="352.32" y2="375.43"/>
          <line class="st4" x1="350.78" y1="375.92" x2="352.2" y2="376.17"/>
          <line class="st4" x1="350.65" y1="376.65" x2="352.07" y2="376.9"/>
          <line class="st4" x1="350.52" y1="377.39" x2="351.95" y2="377.63"/>
          <line class="st4" x1="350.4" y1="378.12" x2="351.82" y2="378.36"/>
          <line class="st4" x1="350.27" y1="378.85" x2="351.69" y2="379.1"/>
          <line class="st4" x1="350.14" y1="379.58" x2="351.57" y2="379.83"/>
          <line class="st4" x1="350.02" y1="380.32" x2="351.44" y2="380.56"/>
        </g>
        <g>
          <rect class="st33" x="341.51" y="363.31" height="22.33"/>
          <path class="st3" d="M340.4,364.11l.22-.02c-.28-2.86-.55-5.18-.61-5.17s.11,2.33.39,5.2h0Z"/>
        </g>
        <g>
          <rect class="st32" x="341.3" y="363.48" height="22.33"/>
          <path class="st3" d="M339.09,364.39l.22-.04c-.58-2.82-1.09-5.09-1.15-5.08s.36,2.31.94,5.13h0Z"/>
        </g>
        <polygon class="st29" points="345.83 379.73 344.93 379.79 343.82 360.89 344.17 359.04 344.72 360.83 345.83 379.73"/>
        <polygon class="st55" points="344.11 381.99 343.21 382.07 341.65 363.2 341.95 361.34 342.55 363.12 344.11 381.99"/>
        <polygon class="st13" points="351.78 387.11 340.53 387.11 338.95 369.4 353.37 369.4 351.78 387.11"/>
      </g>
      <g>
        <g>
          <path class="st25" d="M186.94,304.13c1.37-1.78,1.04-4.34-.74-5.72l-4.98,6.46c1.78,1.37,4.34,1.04,5.72-.74Z"/>
          <path class="st21" d="M173.64,292.1l-3.71-2.86-2.14,2.77,3.71,2.86c-4.11,6.71-2.78,15.42,3.36,20.15l19.12-24.8c-6.14-4.73-14.9-3.81-20.34,1.88Z"/>
        </g>
        <g>
          <path class="st15" d="M172.48,287.95c-.51-.41-1.24-.36-1.63.11l-30.25,38.04c-.42-.84-1.36-1.3-2.26-1.06-1.03.28-1.63,1.36-1.36,2.44l.6,2.42-4.04,5.07,2.98,2.41,2.19-2.89,12.52,50.46,5.96-1.6-15.33-53.02,30.86-40.76c.38-.48.27-1.2-.24-1.62h0Z"/>
          <circle class="st59" cx="139.95" cy="329.44" r=".74"/>
        </g>
      </g>
      <path class="st21" d="M147.68,382h24.05c2.75,0,4.99,2.24,4.99,4.99h-31.33v-2.7c0-1.27,1.03-2.29,2.29-2.29h0Z"/>
      <g>
        <g>
          <circle class="st22" cx="318.4" cy="128.65" r="26.56"/>
          <path class="st21" d="M318.4,96.98c-17.49,0-31.67,14.18-31.67,31.67s14.18,31.67,31.67,31.67,31.67-14.18,31.67-31.67-14.18-31.67-31.67-31.67ZM318.4,153.92c-13.96,0-25.27-11.31-25.27-25.27s11.31-25.27,25.27-25.27,25.27,11.31,25.27,25.27-11.31,25.27-25.27,25.27Z"/>
        </g>
        <g>
          <line class="st1" x1="307.85" y1="111.04" x2="311.09" y2="116.66"/>
          <line class="st1" x1="300.07" y1="118.68" x2="305.69" y2="121.92"/>
          <line class="st1" x1="296.15" y1="129.18" x2="303.64" y2="129.18"/>
          <line class="st1" x1="299.88" y1="139.73" x2="305.49" y2="136.49"/>
          <line class="st1" x1="307.51" y1="147.51" x2="310.76" y2="141.9"/>
          <line class="st1" x1="318.02" y1="151.43" x2="318.02" y2="143.94"/>
          <line class="st1" x1="328.57" y1="147.71" x2="325.33" y2="142.09"/>
          <line class="st1" x1="336.35" y1="140.07" x2="330.73" y2="136.83"/>
          <line class="st1" x1="340.27" y1="129.57" x2="332.78" y2="129.57"/>
          <line class="st1" x1="336.54" y1="119.01" x2="330.93" y2="122.25"/>
          <line class="st1" x1="328.91" y1="111.23" x2="325.66" y2="116.85"/>
          <line class="st1" x1="318.4" y1="107.32" x2="318.4" y2="114.8"/>
        </g>
        <g>
          <line class="st1" x1="318.4" y1="119.92" x2="318.4" y2="130.29"/>
          <path class="st29" d="M318.4,118.68c-.22.58-.59,1.31-.98,1.76l.98-.35.98.35c-.39-.45-.76-1.17-.98-1.76Z"/>
        </g>
        <g>
          <line class="st1" x1="326.04" y1="130.29" x2="318.4" y2="130.29"/>
          <path class="st29" d="M327.28,130.29c-.58-.22-1.31-.59-1.76-.98l.35.98-.35.98c.45-.39,1.17-.76,1.76-.98Z"/>
        </g>
      </g>
      <g>
        <line class="st5" x1="437.24" y1="9.68" x2="437.24" y2="105.76"/>
        <path class="st23" d="M437.24,100.04c-16.3,0-29.52,13.22-29.52,29.52h59.03c0-16.3-13.22-29.52-29.52-29.52h.01Z"/>
      </g>
      <g>
        <line class="st5" x1="198.22" y1="9.68" x2="198.22" y2="105.76"/>
        <path class="st23" d="M198.22,100.04c-16.3,0-29.52,13.22-29.52,29.52h59.03c0-16.3-13.22-29.52-29.52-29.52h.01Z"/>
      </g>
      <rect class="st34" x="365.99" y="203.79" width="51.33" height="51.33"/>
      <polygon class="st0" points="413.55 207.47 414.57 206.39 414.57 206.31 368.55 206.31 369.73 207.47 368.55 206.31 368.08 206.31 368.08 252.29 369.73 250.47 368.08 252.29 368.08 252.79 414.57 252.79 414.57 252.7 413.55 251.67 414.57 252.7 414.57 206.39 413.55 207.47"/>
      <polygon class="st47" points="414.57 252.7 419.73 257.96 419.73 257.96 419.73 201.14 419.48 201.14 414.57 206.39 414.57 252.7"/>
      <polygon class="st57" points="414.57 252.7 414.57 252.79 368.08 252.79 368.08 252.29 362.93 257.96 419.73 257.96 414.57 252.7"/>
      <polygon class="st57" points="368.08 206.31 368.55 206.31 363.29 201.14 362.92 201.14 362.92 257.96 362.93 257.96 368.08 252.29 368.08 206.31"/>
      <polygon class="st49" points="414.57 206.31 414.57 206.39 419.48 201.14 363.29 201.14 368.55 206.31 414.57 206.31"/>
      <polygon class="st47" points="503.48 252.7 508.65 257.96 508.65 257.96 508.65 201.14 508.4 201.14 503.48 206.39 503.48 252.7"/>
      <polygon class="st49" points="503.48 206.31 503.48 206.39 508.4 201.14 452.2 201.14 457.46 206.31 503.48 206.31"/>
      <polygon class="st49" points="592.26 252.7 597.42 257.96 597.42 257.96 597.42 201.14 597.17 201.14 592.26 206.39 592.26 252.7"/>
      <polygon class="st49" points="592.26 206.31 592.26 206.39 597.17 201.14 540.98 201.14 546.24 206.31 592.26 206.31"/>
      <rect class="st49" x="379.85" y="218.52" width="10.13" height="10.13"/>
      <rect class="st49" x="392.02" y="230.5" width="10.13" height="10.13"/>
      <rect class="st51" x="374.96" y="230.06" width="15.64" height="15.64"/>
      <rect class="st51" x="391.3" y="213.45" width="15.64" height="15.64"/>
      <g>
        <polygon class="st0" points="502.33 207.47 503.34 206.39 503.34 206.31 457.32 206.31 458.51 207.47 457.32 206.31 456.86 206.31 456.86 252.29 458.51 250.47 456.86 252.29 456.86 252.79 503.34 252.79 503.34 252.7 502.33 251.67 503.34 252.7 503.34 206.39 502.33 207.47"/>
        <polygon class="st54" points="503.34 252.7 503.34 252.79 456.86 252.79 456.86 252.29 451.7 257.96 508.5 257.96 503.34 252.7"/>
        <polygon class="st54" points="456.86 206.31 457.32 206.31 452.06 201.14 451.69 201.14 451.69 257.96 451.7 257.96 456.86 252.29 456.86 206.31"/>
      </g>
      <path class="st51" d="M466.63,216.64v25.67h25.67v-25.67h-25.67ZM480.21,230.5h-6.92v-6.92h6.92v6.92Z"/>
      <g>
        <path class="st51" d="M564.55,237.66c0-8.14,6.6-14.73,14.73-14.73,1.36,0,2.68.2,3.93.55v-8.4h-28.02v28.02h10.41c-.67-1.69-1.05-3.52-1.05-5.44h0Z"/>
        <path class="st51" d="M583.21,231.07c-.07,0-.14,0-.21,0-4.27,0-7.73,3.46-7.73,7.73,0,1.6.48,3.08,1.31,4.31h6.62v-12.03h0Z"/>
      </g>
      <path class="st51" d="M578.15,500.03h-17.15c-1.54,0-2.83-1.16-3-2.69l-2.71-24.64c-.09-.85.57-1.59,1.43-1.59h25.71c.85,0,1.52.74,1.43,1.59l-2.71,24.64c-.17,1.53-1.46,2.69-3,2.69h0Z"/>
      <g>
        <polygon class="st0" points="591.1 207.47 592.11 206.39 592.11 206.31 546.09 206.31 547.28 207.47 546.09 206.31 545.63 206.31 545.63 252.29 547.28 250.47 545.63 252.29 545.63 252.79 592.11 252.79 592.11 252.7 591.1 251.67 592.11 252.7 592.11 206.39 591.1 207.47"/>
        <polygon class="st57" points="592.11 252.7 592.11 252.79 545.63 252.79 545.63 252.29 540.48 257.96 597.28 257.96 592.11 252.7"/>
        <polygon class="st57" points="545.63 206.31 546.09 206.31 540.83 201.14 540.46 201.14 540.46 257.96 540.48 257.96 545.63 252.29 545.63 206.31"/>
      </g>
    </g>
    <g id="ombreOggetti">
      <path class="st40" d="M343.53,383.03s2.38.14,3.58,2.53c.61,1.23.75,1.65,1.02,2.08h3.66s-8.7-8.44-7.44-12.34c1.26-3.89,9.45-6.36,9.45-6.36h-15.34l1.19,14.07h3.9l-.02.02Z"/>
      <path class="st45" d="M172.48,287.95s-7.6,10.88-16.94,22.88-14.85,18.6-15.59,18.6.57,3.92,2.41,8.83,11.59,38.84,11.05,40.71-1.21,2.32-1.21,2.32c0,0,8.67.83,11.17,3.2s.67,2.34.67,2.34l12.7.15s-1.85-3.96-3.77-4.47-16.14-.51-16.14-.51l-14.94-51.67,31.09-40.72-.47-1.66h-.03Z"/>
      <path class="st43" d="M175.61,290.35s-2.7,9.27,1.1,11.71,11.07-5.86,11.07-5.86c0,0-5.86,6.68-4.06,7.32s3.22.6,3.22.6c0,0,.07,1.04-1.75,1.31s-3.15.28-3.15.28l-7.17,9.3s-5.53-4.17-5.52-9.3,2.16-10.85,2.16-10.85l-1.62-1.25,2.12-2.78,1.51.83,2.09-1.32h0Z"/>
      <path class="st44" d="M363.29,201.14l5.26,5.17s20.27-.46,28.53,12.21,1.65,34.61,1.65,34.61l-2.82,4.83h23.83v-56.82h-56.45Z"/>
      <path class="st44" d="M451.88,201.14l5.26,5.17s20.27-.46,28.53,12.21,1.65,34.61,1.65,34.61l-2.82,4.83h23.83v-56.82h-56.45Z"/>
      <path class="st44" d="M540.98,201.14l5.26,5.17s20.27-.46,28.53,12.21,1.65,34.61,1.65,34.61l-2.82,4.83h23.83v-56.82h-56.45Z"/>
      <path class="st24" d="M433.45,100.08s8.79.48,16.88,9.6c9.7,10.92,5.62,19.29,5.62,19.29l11.26.33s-1.7-13.76-6.53-18.52-10.63-8.72-13.93-9.58-13.29-1.12-13.29-1.12h-.01Z"/>
      <path class="st20" d="M307.85,105.69s28.66-1.71,32.42,19.69c3.92,22.33-19.48,28.43-19.48,28.43,0,0,27.46-3.43,22.88-27.41-6.18-32.42-35.83-20.71-35.83-20.71h0Z"/>
      <path class="st36" d="M333.73,102.09s3.69,6.7,6.53,11.75c2.84,5.06,6.05,20.56,0,28.24-6.3,8.01-14.94,12.2-21.04,11.83-8.89-.54,4.88,5.9,5.46,5.77s12.76-3.9,16.91-9.49c4.15-5.59,12.52-14.77,6.97-31.19-5.54-16.41-14.84-16.92-14.84-16.92h.01Z"/>
      <path class="st35" d="M562.01,470.98s8.82,2.41,11.9,10.42c1.92,4.99,0,18.46,0,18.46,0,0,5.74.92,6.6-.86s1.03-5.16,1.03-5.16l2.12-19.31s1.55-3.57-2.99-3.42c-5.09.17-18.67-.13-18.67-.13h0Z"/>
      <path class="st39" d="M548.46,362.54s11.46,66.52,11.97,71.85,1.36,24.24,1.36,24.24v-26.04l-13.33-70.06h0Z"/>
      <path class="st39" d="M561.93,359.81s1.77,60.31,2.11,67.53-1.06,43.78-1.06,43.78l.89-.82,1.5-43.12-3.44-67.36h0Z"/>
      <path class="st39" d="M568.96,365.56l.62,96.69v8.7h9.59s8.61-65.15,8.45-64.63-11.89,62.38-11.89,62.38l-1.83-1.2-.22-6.25,1.45-5.8,5.15-71.99-7.07,69.86-4.26-87.74v-.02Z"/>
    </g>
    <g id="Monitorr">
      <polygon class="st18" points="277.17 387.27 251.4 387.27 253.54 378.36 275.02 378.36 277.17 387.27"/>
      <g>
        <rect class="st8" x="204.35" y="295.76" width="124.67" height="82.6" rx="2.53" ry="2.53"/>
        <rect class="st17" x="213.68" y="304.86" width="104.42" height="58.65" rx="1.25" ry="1.25"/>
      </g>
    </g>
    <g id="ombre_monitor">
      <path class="st43" d="M213.29,295.76h111.15s3.82,0,4.33.74.75,5.49.75,5.49l-.12,74.57s-1.22,1.8-2.41,1.8-29.86-.06-29.86-.06c0,0,0-33.31-18-51.14-18-17.83-65.83-31.39-65.83-31.39h-.01Z"/>
      <polygon class="st28" points="220.37 304.86 315.05 308.9 314.05 363.48 318.11 363.52 318.6 304.86 220.37 304.86"/>
      <path class="st41" d="M213.29,295.76s104.62,1.78,109.35,2.19c5.46.46,4.71,9.3,4.71,9.3l-1.32,70.97,1.21-.26c.87-.18,1.49-.95,1.49-1.83l.28-77.83s.5-2.56-4.58-2.53c-2.53.01-111.15,0-111.15,0h.01Z"/>
      <path class="st43" d="M253.54,378.36s15.35-.53,14.48,3.66c-.75,3.63-2.13,4.97-2.13,4.97l11.28.28-2.15-8.91h-21.48Z"/>
    </g>
    <g id="ombre_scrivania">
      <polygon class="st30" points="357.19 441.03 422.57 499.32 422.3 396.64 357.19 396.82 357.19 441.03"/>
    </g>
    <g id="Sedie_gropu">
      <g id="sedie">
        <path class="st12" d="M173.37,431.71h-3.33l-4.93-23.75c-.44-2.12,1.18-4.1,3.34-4.1h4.92v27.85Z"/>
        <path class="st12" d="M225.07,434.44h3.33l4.93-23.75c.44-2.12-1.18-4.1-3.34-4.1h-4.92v27.85Z"/>
        <g>
          <circle class="st19" cx="189.36" cy="499.8" r="3.18"/>
          <path class="st17" d="M204.99,482.32s-7.18,3.73-10.14,8.07-3.12,8.17-3.12,8.17h-4.77s0-4.75,3.58-10.64,4.44-7.81,4.44-7.81l10.02,2.22h0Z"/>
          <circle class="st19" cx="158.44" cy="499.8" r="3.18"/>
          <circle class="st19" cx="240.11" cy="499.8" r="3.18"/>
          <path class="st7" d="M191.66,442.78v12.68c0,1.4,1.05,2.53,2.4,2.69v14.83h8.38v-14.83c1.35-.16,2.4-1.3,2.4-2.69v-12.68h-13.19,0Z"/>
          <path class="st17" d="M209.87,478.6c-7.4-3.23-15.82-3.18-23.17.15l-27.47,12.61c-2.67,1.23-4.39,3.9-4.39,6.84v.35h6.91c0-3.1,1.97-5.85,4.9-6.84l22.03-7.46c6.07-2.09,12.66-2.1,18.74-.05l24.44,7.63c2.94.92,4.94,3.64,4.94,6.72h6.91v-.25c0-2.99-1.77-5.7-4.52-6.9l-29.32-12.8h0Z"/>
          <path class="st6" d="M194.8,472.49h6.84c2.74,0,4.96,2.22,4.96,4.96v6.77h-16.77v-6.77c0-2.74,2.22-4.96,4.96-4.96h.01Z"/>
        </g>
        <path class="st16" d="M237.11,342.12l-18.51-2.8c-12.81-1.94-25.84-1.94-38.65,0l-18.51,2.8c-1.04.16-1.77,1.11-1.65,2.16l10.5,89.06h.06c.81,5.38,13.45,9.65,28.92,9.65s28.11-4.27,28.92-9.65h.06l10.5-89.06c.12-1.05-.61-2-1.65-2.16h0Z"/>
      </g>
      <g id="ombre_sedie">
        <path class="st26" d="M161.63,342.22c.53,1.2,25.67,6.09,37.65,21.86s-10.41,68.26-13.1,68.26h-15.88s19.51,1.8,25.68,5.55,0,5.1,0,5.1c0,0,2.87,2.48,3.3,7.56s-2.46,21.94-2.46,21.94c0,0,1.91-1.7,4,3.83s1.96,7.9,1.96,7.9l4.64-.02s.52-5.52-.97-7.98-4-3.73-4-3.73v-14.33s2.4-.43,2.4-2.69v-11.96s3.17-.1,9.66-2.03,14.07-5.38,13.9-7.03-.17-2.73-.17-2.73c0,0,10.1-84.86,10.31-86.65s.3-3.68-3.27-4.22-25.56-4.4-36.01-3.97-16.26,1.03-24.47,2.23-13.18,3.12-13.18,3.12h0Z"/>
        <path class="st38" d="M189.36,480.1s-26.71,11.09-27.73,12.42-3.56,2.14-3.18,4.09-1.4,1.94-1.4,1.94c0,0,1.4.85,1.4,2.64v1.79s-.59,1.64,1.34-.3,1.97-4.13,1.97-4.13c0,0-1.02-4.36,3.29-6.06s24.64-8.24,24.64-8.24l-.33-4.15h0Z"/>
        <path class="st38" d="M194.6,484.22s-.77.58-2.05,5.11-3.18,7.28-3.18,7.28c0,0-.13,1.12,0,3.18s-1.39,2.86-1.39,2.86c0,0,2.2,1.24,3.31-.33s.37-5.72.37-5.72c0,0,1.48-5.01,4.32-7.63s5.82-4.76,5.82-4.76h-7.2,0Z"/>
        <path class="st38" d="M206.61,480.1s17.05,7.81,21.63,9.23,9.54,3.38,10.39,6.3.14,7.05.14,7.05c0,0-1.96-5.26-2.25-6.07s.25-3.24-5.39-5.01-23.71-7.4-23.71-7.4l-.82-4.1h0Z"/>
      </g>
    </g>
    <g id="Isolation_Mode">
      <g>
        <g>
          <g>
            <rect class="st51" x="384.16" y="361.38" width="24.06" height="4.77"/>
            <g>
              <g>
                <path class="st58" d="M405.57,362.43c0,.33.27.6.6.6s.6-.27.6-.6-.27-.6-.6-.6-.6.27-.6.6Z"/>
                <path class="st27" d="M406.17,362.65h0c.2,0,.36-.16.36-.36v-1.76c0-.2-.16-.36-.36-.36h0c-.2,0-.36.16-.36.36v1.76c0,.2.16.36.36.36Z"/>
              </g>
              <g>
                <path class="st58" d="M403.35,362.43c0,.33.27.6.6.6s.6-.27.6-.6-.27-.6-.6-.6-.6.27-.6.6Z"/>
                <path class="st27" d="M403.95,362.65h0c.2,0,.36-.16.36-.36v-1.76c0-.2-.16-.36-.36-.36h0c-.2,0-.36.16-.36.36v1.76c0,.2.16.36.36.36Z"/>
              </g>
              <g>
                <path class="st58" d="M401.13,362.43c0,.33.27.6.6.6s.6-.27.6-.6-.27-.6-.6-.6-.6.27-.6.6Z"/>
                <path class="st27" d="M401.73,362.65h0c.2,0,.36-.16.36-.36v-1.76c0-.2-.16-.36-.36-.36h0c-.2,0-.36.16-.36.36v1.76c0,.2.16.36.36.36Z"/>
              </g>
              <g>
                <path class="st58" d="M398.91,362.43c0,.33.27.6.6.6s.6-.27.6-.6-.27-.6-.6-.6-.6.27-.6.6Z"/>
                <path class="st27" d="M399.52,362.65h0c.2,0,.36-.16.36-.36v-1.76c0-.2-.16-.36-.36-.36h0c-.2,0-.36.16-.36.36v1.76c0,.2.16.36.36.36Z"/>
              </g>
              <g>
                <path class="st58" d="M396.7,362.43c0,.33.27.6.6.6s.6-.27.6-.6-.27-.6-.6-.6-.6.27-.6.6Z"/>
                <path class="st27" d="M397.3,362.65h0c.2,0,.36-.16.36-.36v-1.76c0-.2-.16-.36-.36-.36h0c-.2,0-.36.16-.36.36v1.76c0,.2.16.36.36.36Z"/>
              </g>
              <g>
                <path class="st58" d="M394.48,362.43c0,.33.27.6.6.6s.6-.27.6-.6-.27-.6-.6-.6-.6.27-.6.6Z"/>
                <path class="st27" d="M395.08,362.65h0c.2,0,.36-.16.36-.36v-1.76c0-.2-.16-.36-.36-.36h0c-.2,0-.36.16-.36.36v1.76c0,.2.16.36.36.36Z"/>
              </g>
              <g>
                <path class="st58" d="M392.26,362.43c0,.33.27.6.6.6s.6-.27.6-.6-.27-.6-.6-.6-.6.27-.6.6Z"/>
                <path class="st27" d="M392.86,362.65h0c.2,0,.36-.16.36-.36v-1.76c0-.2-.16-.36-.36-.36h0c-.2,0-.36.16-.36.36v1.76c0,.2.16.36.36.36Z"/>
              </g>
              <g>
                <path class="st58" d="M390.04,362.43c0,.33.27.6.6.6s.6-.27.6-.6-.27-.6-.6-.6-.6.27-.6.6Z"/>
                <path class="st27" d="M390.64,362.65h0c.2,0,.36-.16.36-.36v-1.76c0-.2-.16-.36-.36-.36h0c-.2,0-.36.16-.36.36v1.76c0,.2.16.36.36.36Z"/>
              </g>
              <g>
                <path class="st58" d="M387.82,362.43c0,.33.27.6.6.6s.6-.27.6-.6-.27-.6-.6-.6-.6.27-.6.6Z"/>
                <path class="st27" d="M388.42,362.65h0c.2,0,.36-.16.36-.36v-1.76c0-.2-.16-.36-.36-.36h0c-.2,0-.36.16-.36.36v1.76c0,.2.16.36.36.36Z"/>
              </g>
              <g>
                <circle class="st58" cx="386.21" cy="362.43" r=".6"/>
                <path class="st27" d="M386.21,362.65h0c.2,0,.36-.16.36-.36v-1.76c0-.2-.16-.36-.36-.36h0c-.2,0-.36.16-.36.36v1.76c0,.2.16.36.36.36Z"/>
              </g>
            </g>
            <rect class="st51" x="361.62" y="361.38" width="24.06" height="4.77"/>
            <g>
              <g>
                <circle class="st58" cx="383.64" cy="362.43" r=".6"/>
                <path class="st27" d="M383.64,362.65h0c.2,0,.36-.16.36-.36v-1.76c0-.2-.16-.36-.36-.36h0c-.2,0-.36.16-.36.36v1.76c0,.2.16.36.36.36Z"/>
              </g>
              <g>
                <path class="st58" d="M380.82,362.43c0,.33.27.6.6.6s.6-.27.6-.6-.27-.6-.6-.6-.6.27-.6.6Z"/>
                <path class="st27" d="M381.42,362.65h0c.2,0,.36-.16.36-.36v-1.76c0-.2-.16-.36-.36-.36h0c-.2,0-.36.16-.36.36v1.76c0,.2.16.36.36.36Z"/>
              </g>
              <g>
                <circle class="st58" cx="379.2" cy="362.43" r=".6"/>
                <path class="st27" d="M379.2,362.65h0c.2,0,.36-.16.36-.36v-1.76c0-.2-.16-.36-.36-.36h0c-.2,0-.36.16-.36.36v1.76c0,.2.16.36.36.36Z"/>
              </g>
              <g>
                <circle class="st58" cx="376.98" cy="362.43" r=".6"/>
                <path class="st27" d="M376.98,362.65h0c.2,0,.36-.16.36-.36v-1.76c0-.2-.16-.36-.36-.36h0c-.2,0-.36.16-.36.36v1.76c0,.2.16.36.36.36Z"/>
              </g>
              <g>
                <path class="st58" d="M374.16,362.43c0,.33.27.6.6.6s.6-.27.6-.6-.27-.6-.6-.6-.6.27-.6.6Z"/>
                <path class="st27" d="M374.77,362.65h0c.2,0,.36-.16.36-.36v-1.76c0-.2-.16-.36-.36-.36h0c-.2,0-.36.16-.36.36v1.76c0,.2.16.36.36.36Z"/>
              </g>
              <g>
                <path class="st58" d="M371.95,362.43c0,.33.27.6.6.6s.6-.27.6-.6-.27-.6-.6-.6-.6.27-.6.6Z"/>
                <path class="st27" d="M372.55,362.65h0c.2,0,.36-.16.36-.36v-1.76c0-.2-.16-.36-.36-.36h0c-.2,0-.36.16-.36.36v1.76c0,.2.16.36.36.36Z"/>
              </g>
              <g>
                <path class="st58" d="M369.73,362.43c0,.33.27.6.6.6s.6-.27.6-.6-.27-.6-.6-.6-.6.27-.6.6Z"/>
                <path class="st27" d="M370.33,362.65h0c.2,0,.36-.16.36-.36v-1.76c0-.2-.16-.36-.36-.36h0c-.2,0-.36.16-.36.36v1.76c0,.2.16.36.36.36Z"/>
              </g>
              <g>
                <circle class="st58" cx="368.11" cy="362.43" r=".6"/>
                <path class="st27" d="M368.11,362.65h0c.2,0,.36-.16.36-.36v-1.76c0-.2-.16-.36-.36-.36h0c-.2,0-.36.16-.36.36v1.76c0,.2.16.36.36.36Z"/>
              </g>
              <g>
                <path class="st58" d="M365.29,362.43c0,.33.27.6.6.6s.6-.27.6-.6-.27-.6-.6-.6-.6.27-.6.6Z"/>
                <path class="st27" d="M365.89,362.65h0c.2,0,.36-.16.36-.36v-1.76c0-.2-.16-.36-.36-.36h0c-.2,0-.36.16-.36.36v1.76c0,.2.16.36.36.36Z"/>
              </g>
              <g>
                <path class="st58" d="M363.07,362.43c0,.33.27.6.6.6s.6-.27.6-.6-.27-.6-.6-.6-.6.27-.6.6Z"/>
                <path class="st27" d="M363.67,362.65h0c.2,0,.36-.16.36-.36v-1.76c0-.2-.16-.36-.36-.36h0c-.2,0-.36.16-.36.36v1.76c0,.2.16.36.36.36Z"/>
              </g>
            </g>
          </g>
          <rect class="st58" x="375.21" y="364.03" width="19.41" height="1.15"/>
          <g>
            <rect class="st52" x="361.95" y="366.58" width="45.95" height="20.76"/>
            <path class="st55" d="M407.52,366.95v20.01h-45.2v-20.01h45.2M408.27,366.2h-46.7v21.51h46.7v-21.51h0Z"/>
          </g>
        </g>
        <g>
          <rect class="st51" x="373.29" y="369.1" width="1.77" height="1.77"/>
          <rect class="st51" x="367.9" y="369.1" width="1.77" height="1.77"/>
          <rect class="st51" x="400.17" y="369.1" width="1.77" height="1.77"/>
          <rect class="st51" x="394.79" y="369.1" width="1.77" height="1.77"/>
          <rect class="st51" x="389.41" y="369.1" width="1.77" height="1.77"/>
          <rect class="st51" x="384.04" y="369.1" width="1.77" height="1.77"/>
          <rect class="st51" x="378.66" y="369.1" width="1.77" height="1.77"/>
        </g>
        <g>
          <g>
            <rect class="st51" x="373.29" y="373.66" width="1.77" height="1.77"/>
            <rect class="st51" x="367.9" y="373.66" width="1.77" height="1.77"/>
            <rect class="st49" x="400.17" y="373.66" width="1.77" height="1.77"/>
            <rect class="st49" x="394.79" y="373.66" width="1.77" height="1.77"/>
            <rect class="st49" x="389.41" y="373.66" width="1.77" height="1.77"/>
            <rect class="st49" x="384.04" y="373.66" width="1.77" height="1.77"/>
            <rect class="st49" x="378.66" y="373.66" width="1.77" height="1.77"/>
          </g>
          <g>
            <rect class="st51" x="373.29" y="376.95" width="1.77" height="1.77"/>
            <rect class="st51" x="367.9" y="376.95" width="1.77" height="1.77"/>
            <rect class="st49" x="400.17" y="376.95" width="1.77" height="1.77"/>
            <rect class="st50" x="394.79" y="376.95" width="1.77" height="1.77"/>
            <rect class="st49" x="389.41" y="376.95" width="1.77" height="1.77"/>
            <rect class="st49" x="384.04" y="376.95" width="1.77" height="1.77"/>
            <rect class="st49" x="378.66" y="376.95" width="1.77" height="1.77"/>
          </g>
          <g>
            <rect class="st51" x="373.29" y="380.24" width="1.77" height="1.77"/>
            <rect class="st51" x="367.9" y="380.24" width="1.77" height="1.77"/>
            <rect class="st49" x="400.17" y="380.24" width="1.77" height="1.77"/>
            <rect class="st49" x="394.79" y="380.24" width="1.77" height="1.77"/>
            <rect class="st49" x="389.41" y="380.24" width="1.77" height="1.77"/>
            <rect class="st49" x="384.04" y="380.24" width="1.77" height="1.77"/>
            <rect class="st49" x="378.66" y="380.24" width="1.77" height="1.77"/>
          </g>
          <g>
            <rect class="st51" x="373.29" y="383.53" width="1.77" height="1.77"/>
            <rect class="st51" x="367.9" y="383.53" width="1.77" height="1.77"/>
            <rect class="st49" x="400.17" y="383.53" width="1.77" height="1.77"/>
            <rect class="st49" x="394.79" y="383.53" width="1.77" height="1.77"/>
            <rect class="st49" x="389.41" y="383.53" width="1.77" height="1.77"/>
            <rect class="st49" x="384.04" y="383.53" width="1.77" height="1.77"/>
            <rect class="st49" x="378.66" y="383.53" width="1.77" height="1.77"/>
          </g>
        </g>
      </g>
    </g>
  </g>
</svg>