<?xml version="1.0" encoding="UTF-8"?>
<svg id="Layer_1" xmlns="http://www.w3.org/2000/svg" version="1.1" viewBox="0 0 881.04 634.33">
  <!-- Generator: Adobe Illustrator 29.6.1, SVG Export Plug-In . SVG Version: 2.1.1 Build 9)  -->
  <defs>
    <style>
      .st0 {
        fill: #a1a09f;
      }

      .st1 {
        fill: #b5b9be;
      }

      .st1, .st2, .st3, .st4, .st5, .st6, .st7, .st8, .st9, .st10, .st11, .st12, .st13, .st14, .st15, .st16, .st17, .st18, .st19, .st20, .st21 {
        stroke-miterlimit: 10;
      }

      .st1, .st2, .st5, .st22, .st23, .st7, .st24, .st8, .st25, .st26, .st27, .st11, .st28, .st29, .st13, .st14, .st15, .st18 {
        stroke: #788088;
      }

      .st2, .st25 {
        fill: #f7f8f8;
      }

      .st30, .st3, .st31, .st32, .st9, .st10 {
        fill: #656c73;
      }

      .st3 {
        stroke-width: 1.42px;
      }

      .st3, .st16 {
        stroke: #53595e;
      }

      .st33 {
        stroke: #9d9d9c;
      }

      .st33, .st22, .st23, .st34, .st24, .st32, .st25, .st26, .st27, .st35, .st28, .st29, .st36 {
        stroke-linecap: round;
        stroke-linejoin: round;
      }

      .st33, .st32, .st36 {
        stroke-width: .15px;
      }

      .st33, .st37 {
        fill: #d4d4d6;
      }

      .st38 {
        stroke-miterlimit: 10;
        stroke-width: .75px;
      }

      .st38, .st4 {
        fill: #dadbdc;
      }

      .st38, .st4, .st19 {
        stroke: #61615f;
      }

      .st4, .st6, .st12 {
        stroke-width: .75px;
      }

      .st39 {
        fill: #e6e6e6;
      }

      .st31, .st40, .st41, .st42, .st43, .st44, .st45, .st46, .st37, .st47, .st48, .st49, .st50, .st51, .st52, .st53, .st54, .st55, .st17, .st56 {
        isolation: isolate;
      }

      .st31, .st57, .st51 {
        opacity: .85;
      }

      .st58 {
        fill: #edeff0;
      }

      .st5 {
        stroke-width: .71px;
      }

      .st5, .st6, .st59, .st7, .st41, .st47, .st12, .st29 {
        fill: #788088;
      }

      .st40 {
        fill: #cccfd2;
        opacity: .26;
      }

      .st40, .st41, .st44, .st45, .st46, .st37, .st48, .st49, .st50, .st52, .st53, .st54, .st55, .st17 {
        mix-blend-mode: multiply;
      }

      .st60, .st44, .st45, .st46, .st17 {
        fill: #b8b8b7;
      }

      .st22, .st19, .st61 {
        fill: #d5d8db;
      }

      .st62 {
        fill: #dee0e2;
      }

      .st63 {
        fill: #efefef;
      }

      .st23, .st52, .st53, .st54, .st36 {
        fill: #e4e5e7;
      }

      .st34 {
        stroke: #8c939a;
      }

      .st34, .st26 {
        fill: #8c939a;
      }

      .st34, .st35, .st29 {
        stroke-width: .88px;
      }

      .st64 {
        fill: #968e7f;
      }

      .st65 {
        fill: #fbfcfc;
      }

      .st6, .st36 {
        stroke: #e4e5e7;
      }

      .st41 {
        opacity: .68;
      }

      .st24 {
        fill: #f4f5f6;
        stroke-width: .19px;
      }

      .st66 {
        fill: #888c90;
      }

      .st8 {
        stroke-width: .64px;
      }

      .st8, .st67, .st48, .st49, .st50, .st55 {
        fill: #c3c6ca;
      }

      .st32, .st9, .st10 {
        stroke: #656c73;
      }

      .st43 {
        opacity: .72;
      }

      .st43, .st68 {
        fill: #d8dbdd;
      }

      .st69 {
        fill: #979da3;
      }

      .st44, .st50, .st54, .st17 {
        opacity: .37;
      }

      .st45 {
        opacity: .42;
      }

      .st46 {
        opacity: .27;
      }

      .st26, .st21 {
        stroke-width: .83px;
      }

      .st70 {
        fill: #61615f;
      }

      .st27 {
        fill: #c5c9cd;
        stroke-width: .17px;
      }

      .st10 {
        stroke-width: .62px;
      }

      .st47 {
        opacity: .79;
      }

      .st11 {
        stroke-width: 1.11px;
      }

      .st11, .st15 {
        fill: #a2a8ae;
      }

      .st48 {
        opacity: .46;
      }

      .st49 {
        opacity: .36;
      }

      .st35 {
        fill: #abb0b5;
      }

      .st35, .st20, .st21 {
        stroke: #a2a8ae;
      }

      .st51 {
        fill: #eeeff0;
      }

      .st28, .st14 {
        fill: #b0b5ba;
      }

      .st52 {
        opacity: .57;
      }

      .st53 {
        opacity: .52;
      }

      .st71 {
        fill: #787876;
      }

      .st12 {
        stroke: #d5d8db;
      }

      .st13 {
        fill: #f9fafa;
      }

      .st72 {
        fill: #ededed;
      }

      .st16, .st20, .st21 {
        fill: none;
      }

      .st17 {
        stroke: #c3c6ca;
      }

      .st18 {
        fill: #f5f6f6;
      }

      .st19 {
        stroke-width: .81px;
      }

      .st20 {
        stroke-width: .25px;
      }

      .st56 {
        fill: #fff;
        opacity: .31;
      }
    </style>
  </defs>
  <g class="st42">
    <g id="muro_sfondo">
      <g>
        <rect class="st39" x="6.55" y="0" width="879.86" height="494.92"/>
        <g>
          <g>
            <polygon class="st63" points="224.03 19.7 183.67 19.7 184.74 4.26 226.15 2.97 224.03 19.7"/>
            <polygon class="st63" points="136.42 19.7 96.07 19.7 97.13 4.26 138.54 2.97 136.42 19.7"/>
            <polygon class="st63" points="50.17 19.7 9.82 19.7 10.88 4.26 52.3 2.97 50.17 19.7"/>
            <polygon class="st63" points="181.37 20.8 142.08 20.8 140.85 4.07 180.31 2.97 181.37 20.8"/>
            <polygon class="st63" points="53.24 20.8 92.53 20.8 93.77 4.07 54.3 2.97 53.24 20.8"/>
          </g>
          <g>
            <polygon class="st63" points="443.03 19.7 402.68 19.7 403.74 4.26 445.16 2.97 443.03 19.7"/>
            <polygon class="st63" points="355.43 19.7 315.07 19.7 316.14 4.26 357.55 2.97 355.43 19.7"/>
            <polygon class="st63" points="269.18 19.7 228.83 19.7 229.89 4.26 271.3 2.97 269.18 19.7"/>
            <polygon class="st63" points="400.38 20.8 361.09 20.8 359.85 4.07 399.32 2.97 400.38 20.8"/>
            <polygon class="st63" points="272.25 20.8 311.54 20.8 312.77 4.07 273.31 2.97 272.25 20.8"/>
          </g>
          <g>
            <polygon class="st63" points="662.04 19.7 621.69 19.7 622.75 4.26 664.16 2.97 662.04 19.7"/>
            <polygon class="st63" points="574.43 19.7 534.08 19.7 535.14 4.26 576.56 2.97 574.43 19.7"/>
            <polygon class="st63" points="488.18 19.7 447.83 19.7 448.89 4.26 490.31 2.97 488.18 19.7"/>
            <polygon class="st63" points="619.39 20.8 580.1 20.8 578.86 4.07 618.32 2.97 619.39 20.8"/>
            <polygon class="st63" points="491.25 20.8 530.54 20.8 531.78 4.07 492.31 2.97 491.25 20.8"/>
          </g>
          <g>
            <polygon class="st63" points="881.04 19.7 840.69 19.7 841.75 4.26 883.17 2.97 881.04 19.7"/>
            <polygon class="st63" points="793.44 19.7 753.09 19.7 754.15 4.26 795.56 2.97 793.44 19.7"/>
            <polygon class="st63" points="707.19 19.7 666.84 19.7 667.9 4.26 709.31 2.97 707.19 19.7"/>
            <polygon class="st63" points="838.39 20.8 799.1 20.8 797.86 4.07 837.33 2.97 838.39 20.8"/>
            <polygon class="st63" points="710.26 20.8 749.55 20.8 750.79 4.07 711.32 2.97 710.26 20.8"/>
          </g>
        </g>
        <g>
          <g>
            <polygon class="st63" points="238.41 40.05 198.05 40.05 199.12 24.61 240.53 23.33 238.41 40.05"/>
            <polygon class="st63" points="150.8 40.05 110.45 40.05 111.51 24.61 152.92 23.33 150.8 40.05"/>
            <polygon class="st63" points="64.55 40.05 24.2 40.05 25.26 24.61 66.68 23.33 64.55 40.05"/>
            <polygon class="st63" points="195.75 41.15 156.46 41.15 155.23 24.43 194.69 23.33 195.75 41.15"/>
            <polygon class="st63" points="67.62 41.15 106.91 41.15 108.15 24.43 68.68 23.33 67.62 41.15"/>
          </g>
          <g>
            <polygon class="st63" points="457.41 40.05 417.06 40.05 418.12 24.61 459.54 23.33 457.41 40.05"/>
            <polygon class="st63" points="369.81 40.05 329.45 40.05 330.52 24.61 371.93 23.33 369.81 40.05"/>
            <polygon class="st63" points="283.56 40.05 243.21 40.05 244.27 24.61 285.68 23.33 283.56 40.05"/>
            <polygon class="st63" points="414.76 41.15 375.47 41.15 374.23 24.43 413.7 23.33 414.76 41.15"/>
            <polygon class="st63" points="286.63 41.15 325.92 41.15 327.15 24.43 287.69 23.33 286.63 41.15"/>
          </g>
          <g>
            <polygon class="st63" points="676.42 40.05 636.07 40.05 637.13 24.61 678.54 23.33 676.42 40.05"/>
            <polygon class="st63" points="588.81 40.05 548.46 40.05 549.52 24.61 590.94 23.33 588.81 40.05"/>
            <polygon class="st63" points="502.56 40.05 462.21 40.05 463.27 24.61 504.69 23.33 502.56 40.05"/>
            <polygon class="st63" points="633.76 41.15 594.48 41.15 593.24 24.43 632.7 23.33 633.76 41.15"/>
            <polygon class="st63" points="505.63 41.15 544.92 41.15 546.16 24.43 506.69 23.33 505.63 41.15"/>
          </g>
          <g>
            <polygon class="st63" points="886.41 23.67 886.41 40.05 855.07 40.05 856.13 24.61 886.41 23.67"/>
            <polygon class="st63" points="807.82 40.05 767.47 40.05 768.53 24.61 809.94 23.33 807.82 40.05"/>
            <polygon class="st63" points="721.57 40.05 681.22 40.05 682.28 24.61 723.69 23.33 721.57 40.05"/>
            <polygon class="st63" points="852.77 41.15 813.48 41.15 812.24 24.43 851.71 23.33 852.77 41.15"/>
            <polygon class="st63" points="724.64 41.15 763.93 41.15 765.17 24.43 725.7 23.33 724.64 41.15"/>
          </g>
        </g>
        <g>
          <g>
            <polygon class="st63" points="224.03 60.41 183.67 60.41 184.74 44.97 226.15 43.68 224.03 60.41"/>
            <polygon class="st63" points="136.42 60.41 96.07 60.41 97.13 44.97 138.54 43.68 136.42 60.41"/>
            <polygon class="st63" points="50.17 60.41 9.82 60.41 10.88 44.97 52.3 43.68 50.17 60.41"/>
            <polygon class="st63" points="181.37 61.51 142.08 61.51 140.85 44.79 180.31 43.68 181.37 61.51"/>
            <polygon class="st63" points="53.24 61.51 92.53 61.51 93.77 44.79 54.3 43.68 53.24 61.51"/>
          </g>
          <g>
            <polygon class="st63" points="443.03 60.41 402.68 60.41 403.74 44.97 445.16 43.68 443.03 60.41"/>
            <polygon class="st63" points="355.43 60.41 315.07 60.41 316.14 44.97 357.55 43.68 355.43 60.41"/>
            <polygon class="st63" points="269.18 60.41 228.83 60.41 229.89 44.97 271.3 43.68 269.18 60.41"/>
            <polygon class="st63" points="400.38 61.51 361.09 61.51 359.85 44.79 399.32 43.68 400.38 61.51"/>
            <polygon class="st63" points="272.25 61.51 311.54 61.51 312.77 44.79 273.31 43.68 272.25 61.51"/>
          </g>
          <g>
            <polygon class="st63" points="662.04 60.41 621.69 60.41 622.75 44.97 664.16 43.68 662.04 60.41"/>
            <polygon class="st63" points="574.43 60.41 534.08 60.41 535.14 44.97 576.56 43.68 574.43 60.41"/>
            <polygon class="st63" points="488.18 60.41 447.83 60.41 448.89 44.97 490.31 43.68 488.18 60.41"/>
            <polygon class="st63" points="619.39 61.51 580.1 61.51 578.86 44.79 618.32 43.68 619.39 61.51"/>
            <polygon class="st63" points="491.25 61.51 530.54 61.51 531.78 44.79 492.31 43.68 491.25 61.51"/>
          </g>
          <g>
            <polygon class="st63" points="881.04 60.41 840.69 60.41 841.75 44.97 883.17 43.68 881.04 60.41"/>
            <polygon class="st63" points="793.44 60.41 753.09 60.41 754.15 44.97 795.56 43.68 793.44 60.41"/>
            <polygon class="st63" points="707.19 60.41 666.84 60.41 667.9 44.97 709.31 43.68 707.19 60.41"/>
            <polygon class="st63" points="838.39 61.51 799.1 61.51 797.86 44.79 837.33 43.68 838.39 61.51"/>
            <polygon class="st63" points="710.26 61.51 749.55 61.51 750.79 44.79 711.32 43.68 710.26 61.51"/>
          </g>
        </g>
        <g>
          <g>
            <polygon class="st63" points="238.41 80.76 198.05 80.76 199.12 65.33 240.53 64.04 238.41 80.76"/>
            <polygon class="st63" points="150.8 80.76 110.45 80.76 111.51 65.33 152.92 64.04 150.8 80.76"/>
            <polygon class="st63" points="64.55 80.76 24.2 80.76 25.26 65.33 66.68 64.04 64.55 80.76"/>
            <polygon class="st63" points="195.75 81.87 156.46 81.87 155.23 65.14 194.69 64.04 195.75 81.87"/>
            <polygon class="st63" points="67.62 81.87 106.91 81.87 108.15 65.14 68.68 64.04 67.62 81.87"/>
          </g>
          <g>
            <polygon class="st63" points="457.41 80.76 417.06 80.76 418.12 65.33 459.54 64.04 457.41 80.76"/>
            <polygon class="st63" points="369.81 80.76 329.45 80.76 330.52 65.33 371.93 64.04 369.81 80.76"/>
            <polygon class="st63" points="283.56 80.76 243.21 80.76 244.27 65.33 285.68 64.04 283.56 80.76"/>
            <polygon class="st63" points="414.76 81.87 375.47 81.87 374.23 65.14 413.7 64.04 414.76 81.87"/>
            <polygon class="st63" points="286.63 81.87 325.92 81.87 327.15 65.14 287.69 64.04 286.63 81.87"/>
          </g>
          <g>
            <polygon class="st63" points="676.42 80.76 636.07 80.76 637.13 65.33 678.54 64.04 676.42 80.76"/>
            <polygon class="st63" points="588.81 80.76 548.46 80.76 549.52 65.33 590.94 64.04 588.81 80.76"/>
            <polygon class="st63" points="502.56 80.76 462.21 80.76 463.27 65.33 504.69 64.04 502.56 80.76"/>
            <polygon class="st63" points="633.76 81.87 594.48 81.87 593.24 65.14 632.7 64.04 633.76 81.87"/>
            <polygon class="st63" points="505.63 81.87 544.92 81.87 546.16 65.14 506.69 64.04 505.63 81.87"/>
          </g>
          <g>
            <polygon class="st63" points="886.41 64.39 886.41 80.76 855.07 80.76 856.13 65.33 886.41 64.39"/>
            <polygon class="st63" points="807.82 80.76 767.47 80.76 768.53 65.33 809.94 64.04 807.82 80.76"/>
            <polygon class="st63" points="721.57 80.76 681.22 80.76 682.28 65.33 723.69 64.04 721.57 80.76"/>
            <polygon class="st63" points="852.77 81.87 813.48 81.87 812.24 65.14 851.71 64.04 852.77 81.87"/>
            <polygon class="st63" points="724.64 81.87 763.93 81.87 765.17 65.14 725.7 64.04 724.64 81.87"/>
          </g>
        </g>
        <g>
          <g>
            <polygon class="st63" points="224.03 101.12 183.67 101.12 184.74 85.68 226.15 84.4 224.03 101.12"/>
            <polygon class="st63" points="136.42 101.12 96.07 101.12 97.13 85.68 138.54 84.4 136.42 101.12"/>
            <polygon class="st63" points="50.17 101.12 9.82 101.12 10.88 85.68 52.3 84.4 50.17 101.12"/>
            <polygon class="st63" points="181.37 102.22 142.08 102.22 140.85 85.5 180.31 84.4 181.37 102.22"/>
            <polygon class="st63" points="53.24 102.22 92.53 102.22 93.77 85.5 54.3 84.4 53.24 102.22"/>
          </g>
          <g>
            <polygon class="st63" points="443.03 101.12 402.68 101.12 403.74 85.68 445.16 84.4 443.03 101.12"/>
            <polygon class="st63" points="355.43 101.12 315.07 101.12 316.14 85.68 357.55 84.4 355.43 101.12"/>
            <polygon class="st63" points="269.18 101.12 228.83 101.12 229.89 85.68 271.3 84.4 269.18 101.12"/>
            <polygon class="st63" points="400.38 102.22 361.09 102.22 359.85 85.5 399.32 84.4 400.38 102.22"/>
            <polygon class="st63" points="272.25 102.22 311.54 102.22 312.77 85.5 273.31 84.4 272.25 102.22"/>
          </g>
          <g>
            <polygon class="st63" points="662.04 101.12 621.69 101.12 622.75 85.68 664.16 84.4 662.04 101.12"/>
            <polygon class="st63" points="574.43 101.12 534.08 101.12 535.14 85.68 576.56 84.4 574.43 101.12"/>
            <polygon class="st63" points="488.18 101.12 447.83 101.12 448.89 85.68 490.31 84.4 488.18 101.12"/>
            <polygon class="st63" points="619.39 102.22 580.1 102.22 578.86 85.5 618.32 84.4 619.39 102.22"/>
            <polygon class="st63" points="491.25 102.22 530.54 102.22 531.78 85.5 492.31 84.4 491.25 102.22"/>
          </g>
          <g>
            <polygon class="st63" points="881.04 101.12 840.69 101.12 841.75 85.68 883.17 84.4 881.04 101.12"/>
            <polygon class="st63" points="793.44 101.12 753.09 101.12 754.15 85.68 795.56 84.4 793.44 101.12"/>
            <polygon class="st63" points="707.19 101.12 666.84 101.12 667.9 85.68 709.31 84.4 707.19 101.12"/>
            <polygon class="st63" points="838.39 102.22 799.1 102.22 797.86 85.5 837.33 84.4 838.39 102.22"/>
            <polygon class="st63" points="710.26 102.22 749.55 102.22 750.79 85.5 711.32 84.4 710.26 102.22"/>
          </g>
        </g>
        <g>
          <g>
            <polygon class="st63" points="238.41 121.48 198.05 121.48 199.12 106.04 240.53 104.75 238.41 121.48"/>
            <polygon class="st63" points="150.8 121.48 110.45 121.48 111.51 106.04 152.92 104.75 150.8 121.48"/>
            <polygon class="st63" points="64.55 121.48 24.2 121.48 25.26 106.04 66.68 104.75 64.55 121.48"/>
            <polygon class="st63" points="195.75 122.58 156.46 122.58 155.23 105.86 194.69 104.75 195.75 122.58"/>
            <polygon class="st63" points="67.62 122.58 106.91 122.58 108.15 105.86 68.68 104.75 67.62 122.58"/>
          </g>
          <g>
            <polygon class="st63" points="457.41 121.48 417.06 121.48 418.12 106.04 459.54 104.75 457.41 121.48"/>
            <polygon class="st63" points="369.81 121.48 329.45 121.48 330.52 106.04 371.93 104.75 369.81 121.48"/>
            <polygon class="st63" points="283.56 121.48 243.21 121.48 244.27 106.04 285.68 104.75 283.56 121.48"/>
            <polygon class="st63" points="414.76 122.58 375.47 122.58 374.23 105.86 413.7 104.75 414.76 122.58"/>
            <polygon class="st63" points="286.63 122.58 325.92 122.58 327.15 105.86 287.69 104.75 286.63 122.58"/>
          </g>
          <g>
            <polygon class="st63" points="676.42 121.48 636.07 121.48 637.13 106.04 678.54 104.75 676.42 121.48"/>
            <polygon class="st63" points="588.81 121.48 548.46 121.48 549.52 106.04 590.94 104.75 588.81 121.48"/>
            <polygon class="st63" points="502.56 121.48 462.21 121.48 463.27 106.04 504.69 104.75 502.56 121.48"/>
            <polygon class="st63" points="633.76 122.58 594.48 122.58 593.24 105.86 632.7 104.75 633.76 122.58"/>
            <polygon class="st63" points="505.63 122.58 544.92 122.58 546.16 105.86 506.69 104.75 505.63 122.58"/>
          </g>
          <g>
            <polygon class="st63" points="886.41 105.1 886.41 121.48 855.07 121.48 856.13 106.04 886.41 105.1"/>
            <polygon class="st63" points="807.82 121.48 767.47 121.48 768.53 106.04 809.94 104.75 807.82 121.48"/>
            <polygon class="st63" points="721.57 121.48 681.22 121.48 682.28 106.04 723.69 104.75 721.57 121.48"/>
            <polygon class="st63" points="852.77 122.58 813.48 122.58 812.24 105.86 851.71 104.75 852.77 122.58"/>
            <polygon class="st63" points="724.64 122.58 763.93 122.58 765.17 105.86 725.7 104.75 724.64 122.58"/>
          </g>
        </g>
        <g>
          <g>
            <polygon class="st63" points="224.03 141.83 183.67 141.83 184.74 126.4 226.15 125.11 224.03 141.83"/>
            <polygon class="st63" points="136.42 141.83 96.07 141.83 97.13 126.4 138.54 125.11 136.42 141.83"/>
            <polygon class="st63" points="50.17 141.83 9.82 141.83 10.88 126.4 52.3 125.11 50.17 141.83"/>
            <polygon class="st63" points="181.37 142.94 142.08 142.94 140.85 126.21 180.31 125.11 181.37 142.94"/>
            <polygon class="st63" points="53.24 142.94 92.53 142.94 93.77 126.21 54.3 125.11 53.24 142.94"/>
          </g>
          <g>
            <polygon class="st63" points="443.03 141.83 402.68 141.83 403.74 126.4 445.16 125.11 443.03 141.83"/>
            <polygon class="st63" points="355.43 141.83 315.07 141.83 316.14 126.4 357.55 125.11 355.43 141.83"/>
            <polygon class="st63" points="269.18 141.83 228.83 141.83 229.89 126.4 271.3 125.11 269.18 141.83"/>
            <polygon class="st63" points="400.38 142.94 361.09 142.94 359.85 126.21 399.32 125.11 400.38 142.94"/>
            <polygon class="st63" points="272.25 142.94 311.54 142.94 312.77 126.21 273.31 125.11 272.25 142.94"/>
          </g>
          <g>
            <polygon class="st63" points="662.04 141.83 621.69 141.83 622.75 126.4 664.16 125.11 662.04 141.83"/>
            <polygon class="st63" points="574.43 141.83 534.08 141.83 535.14 126.4 576.56 125.11 574.43 141.83"/>
            <polygon class="st63" points="488.18 141.83 447.83 141.83 448.89 126.4 490.31 125.11 488.18 141.83"/>
            <polygon class="st63" points="619.39 142.94 580.1 142.94 578.86 126.21 618.32 125.11 619.39 142.94"/>
            <polygon class="st63" points="491.25 142.94 530.54 142.94 531.78 126.21 492.31 125.11 491.25 142.94"/>
          </g>
          <g>
            <polygon class="st63" points="881.04 141.83 840.69 141.83 841.75 126.4 883.17 125.11 881.04 141.83"/>
            <polygon class="st63" points="793.44 141.83 753.09 141.83 754.15 126.4 795.56 125.11 793.44 141.83"/>
            <polygon class="st63" points="707.19 141.83 666.84 141.83 667.9 126.4 709.31 125.11 707.19 141.83"/>
            <polygon class="st63" points="838.39 142.94 799.1 142.94 797.86 126.21 837.33 125.11 838.39 142.94"/>
            <polygon class="st63" points="710.26 142.94 749.55 142.94 750.79 126.21 711.32 125.11 710.26 142.94"/>
          </g>
        </g>
        <g>
          <g>
            <polygon class="st63" points="238.41 162.19 198.05 162.19 199.12 146.75 240.53 145.47 238.41 162.19"/>
            <polygon class="st63" points="150.8 162.19 110.45 162.19 111.51 146.75 152.92 145.47 150.8 162.19"/>
            <polygon class="st63" points="64.55 162.19 24.2 162.19 25.26 146.75 66.68 145.47 64.55 162.19"/>
            <polygon class="st63" points="195.75 163.29 156.46 163.29 155.23 146.57 194.69 145.47 195.75 163.29"/>
            <polygon class="st63" points="67.62 163.29 106.91 163.29 108.15 146.57 68.68 145.47 67.62 163.29"/>
          </g>
          <g>
            <polygon class="st63" points="457.41 162.19 417.06 162.19 418.12 146.75 459.54 145.47 457.41 162.19"/>
            <polygon class="st63" points="369.81 162.19 329.45 162.19 330.52 146.75 371.93 145.47 369.81 162.19"/>
            <polygon class="st63" points="283.56 162.19 243.21 162.19 244.27 146.75 285.68 145.47 283.56 162.19"/>
            <polygon class="st63" points="414.76 163.29 375.47 163.29 374.23 146.57 413.7 145.47 414.76 163.29"/>
            <polygon class="st63" points="286.63 163.29 325.92 163.29 327.15 146.57 287.69 145.47 286.63 163.29"/>
          </g>
          <g>
            <polygon class="st63" points="676.42 162.19 636.07 162.19 637.13 146.75 678.54 145.47 676.42 162.19"/>
            <polygon class="st63" points="588.81 162.19 548.46 162.19 549.52 146.75 590.94 145.47 588.81 162.19"/>
            <polygon class="st63" points="502.56 162.19 462.21 162.19 463.27 146.75 504.69 145.47 502.56 162.19"/>
            <polygon class="st63" points="633.76 163.29 594.48 163.29 593.24 146.57 632.7 145.47 633.76 163.29"/>
            <polygon class="st63" points="505.63 163.29 544.92 163.29 546.16 146.57 506.69 145.47 505.63 163.29"/>
          </g>
          <g>
            <polygon class="st63" points="886.41 145.81 886.41 162.19 855.07 162.19 856.13 146.75 886.41 145.81"/>
            <polygon class="st63" points="807.82 162.19 767.47 162.19 768.53 146.75 809.94 145.47 807.82 162.19"/>
            <polygon class="st63" points="721.57 162.19 681.22 162.19 682.28 146.75 723.69 145.47 721.57 162.19"/>
            <polygon class="st63" points="852.77 163.29 813.48 163.29 812.24 146.57 851.71 145.47 852.77 163.29"/>
            <polygon class="st63" points="724.64 163.29 763.93 163.29 765.17 146.57 725.7 145.47 724.64 163.29"/>
          </g>
        </g>
        <g>
          <g>
            <polygon class="st63" points="224.03 182.55 183.67 182.55 184.74 167.11 226.15 165.82 224.03 182.55"/>
            <polygon class="st63" points="136.42 182.55 96.07 182.55 97.13 167.11 138.54 165.82 136.42 182.55"/>
            <polygon class="st63" points="50.17 182.55 9.82 182.55 10.88 167.11 52.3 165.82 50.17 182.55"/>
            <polygon class="st63" points="181.37 183.65 142.08 183.65 140.85 166.92 180.31 165.82 181.37 183.65"/>
            <polygon class="st63" points="53.24 183.65 92.53 183.65 93.77 166.92 54.3 165.82 53.24 183.65"/>
          </g>
          <g>
            <polygon class="st63" points="443.03 182.55 402.68 182.55 403.74 167.11 445.16 165.82 443.03 182.55"/>
            <polygon class="st63" points="355.43 182.55 315.07 182.55 316.14 167.11 357.55 165.82 355.43 182.55"/>
            <polygon class="st63" points="269.18 182.55 228.83 182.55 229.89 167.11 271.3 165.82 269.18 182.55"/>
            <polygon class="st63" points="400.38 183.65 361.09 183.65 359.85 166.92 399.32 165.82 400.38 183.65"/>
            <polygon class="st63" points="272.25 183.65 311.54 183.65 312.77 166.92 273.31 165.82 272.25 183.65"/>
          </g>
          <g>
            <polygon class="st63" points="662.04 182.55 621.69 182.55 622.75 167.11 664.16 165.82 662.04 182.55"/>
            <polygon class="st63" points="574.43 182.55 534.08 182.55 535.14 167.11 576.56 165.82 574.43 182.55"/>
            <polygon class="st63" points="488.18 182.55 447.83 182.55 448.89 167.11 490.31 165.82 488.18 182.55"/>
            <polygon class="st63" points="619.39 183.65 580.1 183.65 578.86 166.92 618.32 165.82 619.39 183.65"/>
            <polygon class="st63" points="491.25 183.65 530.54 183.65 531.78 166.92 492.31 165.82 491.25 183.65"/>
          </g>
          <g>
            <polygon class="st63" points="881.04 182.55 840.69 182.55 841.75 167.11 883.17 165.82 881.04 182.55"/>
            <polygon class="st63" points="793.44 182.55 753.09 182.55 754.15 167.11 795.56 165.82 793.44 182.55"/>
            <polygon class="st63" points="707.19 182.55 666.84 182.55 667.9 167.11 709.31 165.82 707.19 182.55"/>
            <polygon class="st63" points="838.39 183.65 799.1 183.65 797.86 166.92 837.33 165.82 838.39 183.65"/>
            <polygon class="st63" points="710.26 183.65 749.55 183.65 750.79 166.92 711.32 165.82 710.26 183.65"/>
          </g>
        </g>
        <g>
          <g>
            <polygon class="st63" points="238.41 202.9 198.05 202.9 199.12 187.47 240.53 186.18 238.41 202.9"/>
            <polygon class="st63" points="150.8 202.9 110.45 202.9 111.51 187.47 152.92 186.18 150.8 202.9"/>
            <polygon class="st63" points="64.55 202.9 24.2 202.9 25.26 187.47 66.68 186.18 64.55 202.9"/>
            <polygon class="st63" points="195.75 204.01 156.46 204.01 155.23 187.28 194.69 186.18 195.75 204.01"/>
            <polygon class="st63" points="67.62 204.01 106.91 204.01 108.15 187.28 68.68 186.18 67.62 204.01"/>
          </g>
          <g>
            <polygon class="st63" points="457.41 202.9 417.06 202.9 418.12 187.47 459.54 186.18 457.41 202.9"/>
            <polygon class="st63" points="369.81 202.9 329.45 202.9 330.52 187.47 371.93 186.18 369.81 202.9"/>
            <polygon class="st63" points="283.56 202.9 243.21 202.9 244.27 187.47 285.68 186.18 283.56 202.9"/>
            <polygon class="st63" points="414.76 204.01 375.47 204.01 374.23 187.28 413.7 186.18 414.76 204.01"/>
            <polygon class="st63" points="286.63 204.01 325.92 204.01 327.15 187.28 287.69 186.18 286.63 204.01"/>
          </g>
          <g>
            <polygon class="st63" points="676.42 202.9 636.07 202.9 637.13 187.47 678.54 186.18 676.42 202.9"/>
            <polygon class="st63" points="588.81 202.9 548.46 202.9 549.52 187.47 590.94 186.18 588.81 202.9"/>
            <polygon class="st63" points="502.56 202.9 462.21 202.9 463.27 187.47 504.69 186.18 502.56 202.9"/>
            <polygon class="st63" points="633.76 204.01 594.48 204.01 593.24 187.28 632.7 186.18 633.76 204.01"/>
            <polygon class="st63" points="505.63 204.01 544.92 204.01 546.16 187.28 506.69 186.18 505.63 204.01"/>
          </g>
          <g>
            <polygon class="st63" points="886.41 186.53 886.41 202.9 855.07 202.9 856.13 187.46 886.41 186.53"/>
            <polygon class="st63" points="807.82 202.9 767.47 202.9 768.53 187.47 809.94 186.18 807.82 202.9"/>
            <polygon class="st63" points="721.57 202.9 681.22 202.9 682.28 187.47 723.69 186.18 721.57 202.9"/>
            <polygon class="st63" points="852.77 204.01 813.48 204.01 812.24 187.28 851.71 186.18 852.77 204.01"/>
            <polygon class="st63" points="724.64 204.01 763.93 204.01 765.17 187.28 725.7 186.18 724.64 204.01"/>
          </g>
        </g>
        <g>
          <g>
            <polygon class="st63" points="224.03 223.26 183.67 223.26 184.74 207.82 226.15 206.53 224.03 223.26"/>
            <polygon class="st63" points="136.42 223.26 96.07 223.26 97.13 207.82 138.54 206.53 136.42 223.26"/>
            <polygon class="st63" points="50.17 223.26 9.82 223.26 10.88 207.82 52.3 206.53 50.17 223.26"/>
            <polygon class="st63" points="181.37 224.36 142.08 224.36 140.85 207.64 180.31 206.53 181.37 224.36"/>
            <polygon class="st63" points="53.24 224.36 92.53 224.36 93.77 207.64 54.3 206.53 53.24 224.36"/>
          </g>
          <g>
            <polygon class="st63" points="443.03 223.26 402.68 223.26 403.74 207.82 445.16 206.53 443.03 223.26"/>
            <polygon class="st63" points="355.43 223.26 315.07 223.26 316.14 207.82 357.55 206.53 355.43 223.26"/>
            <polygon class="st63" points="269.18 223.26 228.83 223.26 229.89 207.82 271.3 206.53 269.18 223.26"/>
            <polygon class="st63" points="400.38 224.36 361.09 224.36 359.85 207.64 399.32 206.53 400.38 224.36"/>
            <polygon class="st63" points="272.25 224.36 311.54 224.36 312.77 207.64 273.31 206.53 272.25 224.36"/>
          </g>
          <g>
            <polygon class="st63" points="662.04 223.26 621.69 223.26 622.75 207.82 664.16 206.53 662.04 223.26"/>
            <polygon class="st63" points="574.43 223.26 534.08 223.26 535.14 207.82 576.56 206.53 574.43 223.26"/>
            <polygon class="st63" points="488.18 223.26 447.83 223.26 448.89 207.82 490.31 206.53 488.18 223.26"/>
            <polygon class="st63" points="619.39 224.36 580.1 224.36 578.86 207.64 618.32 206.53 619.39 224.36"/>
            <polygon class="st63" points="491.25 224.36 530.54 224.36 531.78 207.64 492.31 206.53 491.25 224.36"/>
          </g>
          <g>
            <polygon class="st63" points="881.04 223.26 840.69 223.26 841.75 207.82 883.17 206.53 881.04 223.26"/>
            <polygon class="st63" points="793.44 223.26 753.09 223.26 754.15 207.82 795.56 206.53 793.44 223.26"/>
            <polygon class="st63" points="707.19 223.26 666.84 223.26 667.9 207.82 709.31 206.53 707.19 223.26"/>
            <polygon class="st63" points="838.39 224.36 799.1 224.36 797.86 207.64 837.33 206.53 838.39 224.36"/>
            <polygon class="st63" points="710.26 224.36 749.55 224.36 750.79 207.64 711.32 206.53 710.26 224.36"/>
          </g>
        </g>
        <g>
          <g>
            <polygon class="st63" points="238.41 243.62 198.05 243.62 199.12 228.18 240.53 226.89 238.41 243.62"/>
            <polygon class="st63" points="150.8 243.62 110.45 243.62 111.51 228.18 152.92 226.89 150.8 243.62"/>
            <polygon class="st63" points="64.55 243.62 24.2 243.62 25.26 228.18 66.68 226.89 64.55 243.62"/>
            <polygon class="st63" points="195.75 244.72 156.46 244.72 155.23 227.99 194.69 226.89 195.75 244.72"/>
            <polygon class="st63" points="67.62 244.72 106.91 244.72 108.15 227.99 68.68 226.89 67.62 244.72"/>
          </g>
          <g>
            <polygon class="st63" points="457.41 243.62 417.06 243.62 418.12 228.18 459.54 226.89 457.41 243.62"/>
            <polygon class="st63" points="369.81 243.62 329.45 243.62 330.52 228.18 371.93 226.89 369.81 243.62"/>
            <polygon class="st63" points="283.56 243.62 243.21 243.62 244.27 228.18 285.68 226.89 283.56 243.62"/>
            <polygon class="st63" points="414.76 244.72 375.47 244.72 374.23 227.99 413.7 226.89 414.76 244.72"/>
            <polygon class="st63" points="286.63 244.72 325.92 244.72 327.15 227.99 287.69 226.89 286.63 244.72"/>
          </g>
          <g>
            <polygon class="st63" points="676.42 243.62 636.07 243.62 637.13 228.18 678.54 226.89 676.42 243.62"/>
            <polygon class="st63" points="588.81 243.62 548.46 243.62 549.52 228.18 590.94 226.89 588.81 243.62"/>
            <polygon class="st63" points="502.56 243.62 462.21 243.62 463.27 228.18 504.69 226.89 502.56 243.62"/>
            <polygon class="st63" points="633.76 244.72 594.48 244.72 593.24 227.99 632.7 226.89 633.76 244.72"/>
            <polygon class="st63" points="505.63 244.72 544.92 244.72 546.16 227.99 506.69 226.89 505.63 244.72"/>
          </g>
          <g>
            <polygon class="st63" points="886.41 227.24 886.41 243.62 855.07 243.62 856.13 228.18 886.41 227.24"/>
            <polygon class="st63" points="807.82 243.62 767.47 243.62 768.53 228.18 809.94 226.89 807.82 243.62"/>
            <polygon class="st63" points="721.57 243.62 681.22 243.62 682.28 228.18 723.69 226.89 721.57 243.62"/>
            <polygon class="st63" points="852.77 244.72 813.48 244.72 812.24 227.99 851.71 226.89 852.77 244.72"/>
            <polygon class="st63" points="724.64 244.72 763.93 244.72 765.17 227.99 725.7 226.89 724.64 244.72"/>
          </g>
        </g>
        <g>
          <g>
            <polygon class="st63" points="224.03 263.97 183.67 263.97 184.74 248.53 226.15 247.25 224.03 263.97"/>
            <polygon class="st63" points="136.42 263.97 96.07 263.97 97.13 248.53 138.54 247.25 136.42 263.97"/>
            <polygon class="st63" points="50.17 263.97 9.82 263.97 10.88 248.53 52.3 247.25 50.17 263.97"/>
            <polygon class="st63" points="181.37 265.07 142.08 265.07 140.85 248.35 180.31 247.25 181.37 265.07"/>
            <polygon class="st63" points="53.24 265.07 92.53 265.07 93.77 248.35 54.3 247.25 53.24 265.07"/>
          </g>
          <g>
            <polygon class="st63" points="443.03 263.97 402.68 263.97 403.74 248.53 445.16 247.25 443.03 263.97"/>
            <polygon class="st63" points="355.43 263.97 315.07 263.97 316.14 248.53 357.55 247.25 355.43 263.97"/>
            <polygon class="st63" points="269.18 263.97 228.83 263.97 229.89 248.53 271.3 247.25 269.18 263.97"/>
            <polygon class="st63" points="400.38 265.07 361.09 265.07 359.85 248.35 399.32 247.25 400.38 265.07"/>
            <polygon class="st63" points="272.25 265.07 311.54 265.07 312.77 248.35 273.31 247.25 272.25 265.07"/>
          </g>
          <g>
            <polygon class="st63" points="662.04 263.97 621.69 263.97 622.75 248.53 664.16 247.25 662.04 263.97"/>
            <polygon class="st63" points="574.43 263.97 534.08 263.97 535.14 248.53 576.56 247.25 574.43 263.97"/>
            <polygon class="st63" points="488.18 263.97 447.83 263.97 448.89 248.53 490.31 247.25 488.18 263.97"/>
            <polygon class="st63" points="619.39 265.07 580.1 265.07 578.86 248.35 618.32 247.25 619.39 265.07"/>
            <polygon class="st63" points="491.25 265.07 530.54 265.07 531.78 248.35 492.31 247.25 491.25 265.07"/>
          </g>
          <g>
            <polygon class="st63" points="881.04 263.97 840.69 263.97 841.75 248.53 883.17 247.25 881.04 263.97"/>
            <polygon class="st63" points="793.44 263.97 753.09 263.97 754.15 248.53 795.56 247.25 793.44 263.97"/>
            <polygon class="st63" points="707.19 263.97 666.84 263.97 667.9 248.53 709.31 247.25 707.19 263.97"/>
            <polygon class="st63" points="838.39 265.07 799.1 265.07 797.86 248.35 837.33 247.25 838.39 265.07"/>
            <polygon class="st63" points="710.26 265.07 749.55 265.07 750.79 248.35 711.32 247.25 710.26 265.07"/>
          </g>
        </g>
        <g>
          <g>
            <polygon class="st63" points="238.41 284.33 198.05 284.33 199.12 268.89 240.53 267.6 238.41 284.33"/>
            <polygon class="st63" points="150.8 284.33 110.45 284.33 111.51 268.89 152.92 267.6 150.8 284.33"/>
            <polygon class="st63" points="64.55 284.33 24.2 284.33 25.26 268.89 66.68 267.6 64.55 284.33"/>
            <polygon class="st63" points="195.75 285.43 156.46 285.43 155.23 268.71 194.69 267.6 195.75 285.43"/>
            <polygon class="st63" points="67.62 285.43 106.91 285.43 108.15 268.71 68.68 267.6 67.62 285.43"/>
          </g>
          <g>
            <polygon class="st63" points="457.41 284.33 417.06 284.33 418.12 268.89 459.54 267.6 457.41 284.33"/>
            <polygon class="st63" points="369.81 284.33 329.45 284.33 330.52 268.89 371.93 267.6 369.81 284.33"/>
            <polygon class="st63" points="283.56 284.33 243.21 284.33 244.27 268.89 285.68 267.6 283.56 284.33"/>
            <polygon class="st63" points="414.76 285.43 375.47 285.43 374.23 268.71 413.7 267.6 414.76 285.43"/>
            <polygon class="st63" points="286.63 285.43 325.92 285.43 327.15 268.71 287.69 267.6 286.63 285.43"/>
          </g>
          <g>
            <polygon class="st63" points="676.42 284.33 636.07 284.33 637.13 268.89 678.54 267.6 676.42 284.33"/>
            <polygon class="st63" points="588.81 284.33 548.46 284.33 549.52 268.89 590.94 267.6 588.81 284.33"/>
            <polygon class="st63" points="502.56 284.33 462.21 284.33 463.27 268.89 504.69 267.6 502.56 284.33"/>
            <polygon class="st63" points="633.76 285.43 594.48 285.43 593.24 268.71 632.7 267.6 633.76 285.43"/>
            <polygon class="st63" points="505.63 285.43 544.92 285.43 546.16 268.71 506.69 267.6 505.63 285.43"/>
          </g>
          <g>
            <polygon class="st63" points="886.41 267.95 886.41 284.33 855.07 284.33 856.13 268.89 886.41 267.95"/>
            <polygon class="st63" points="807.82 284.33 767.47 284.33 768.53 268.89 809.94 267.6 807.82 284.33"/>
            <polygon class="st63" points="721.57 284.33 681.22 284.33 682.28 268.89 723.69 267.6 721.57 284.33"/>
            <polygon class="st63" points="852.77 285.43 813.48 285.43 812.24 268.71 851.71 267.6 852.77 285.43"/>
            <polygon class="st63" points="724.64 285.43 763.93 285.43 765.17 268.71 725.7 267.6 724.64 285.43"/>
          </g>
        </g>
        <g>
          <g>
            <polygon class="st63" points="224.03 304.68 183.67 304.68 184.74 289.25 226.15 287.96 224.03 304.68"/>
            <polygon class="st63" points="136.42 304.68 96.07 304.68 97.13 289.25 138.54 287.96 136.42 304.68"/>
            <polygon class="st63" points="50.17 304.68 9.82 304.68 10.88 289.25 52.3 287.96 50.17 304.68"/>
            <polygon class="st63" points="181.37 305.79 142.08 305.79 140.85 289.06 180.31 287.96 181.37 305.79"/>
            <polygon class="st63" points="53.24 305.79 92.53 305.79 93.77 289.06 54.3 287.96 53.24 305.79"/>
          </g>
          <g>
            <polygon class="st63" points="443.03 304.68 402.68 304.68 403.74 289.25 445.16 287.96 443.03 304.68"/>
            <polygon class="st63" points="355.43 304.68 315.07 304.68 316.14 289.25 357.55 287.96 355.43 304.68"/>
            <polygon class="st63" points="269.18 304.68 228.83 304.68 229.89 289.25 271.3 287.96 269.18 304.68"/>
            <polygon class="st63" points="400.38 305.79 361.09 305.79 359.85 289.06 399.32 287.96 400.38 305.79"/>
            <polygon class="st63" points="272.25 305.79 311.54 305.79 312.77 289.06 273.31 287.96 272.25 305.79"/>
          </g>
          <g>
            <polygon class="st63" points="662.04 304.68 621.69 304.68 622.75 289.25 664.16 287.96 662.04 304.68"/>
            <polygon class="st63" points="574.43 304.68 534.08 304.68 535.14 289.25 576.56 287.96 574.43 304.68"/>
            <polygon class="st63" points="488.18 304.68 447.83 304.68 448.89 289.25 490.31 287.96 488.18 304.68"/>
            <polygon class="st63" points="619.39 305.79 580.1 305.79 578.86 289.06 618.32 287.96 619.39 305.79"/>
            <polygon class="st63" points="491.25 305.79 530.54 305.79 531.78 289.06 492.31 287.96 491.25 305.79"/>
          </g>
          <g>
            <polygon class="st63" points="881.04 304.68 840.69 304.68 841.75 289.25 883.17 287.96 881.04 304.68"/>
            <polygon class="st63" points="793.44 304.68 753.09 304.68 754.15 289.25 795.56 287.96 793.44 304.68"/>
            <polygon class="st63" points="707.19 304.68 666.84 304.68 667.9 289.25 709.31 287.96 707.19 304.68"/>
            <polygon class="st63" points="838.39 305.79 799.1 305.79 797.86 289.06 837.33 287.96 838.39 305.79"/>
            <polygon class="st63" points="710.26 305.79 749.55 305.79 750.79 289.06 711.32 287.96 710.26 305.79"/>
          </g>
        </g>
        <g>
          <g>
            <polygon class="st63" points="238.41 325.04 198.05 325.04 199.12 309.6 240.53 308.32 238.41 325.04"/>
            <polygon class="st63" points="150.8 325.04 110.45 325.04 111.51 309.6 152.92 308.32 150.8 325.04"/>
            <polygon class="st63" points="64.55 325.04 24.2 325.04 25.26 309.6 66.68 308.32 64.55 325.04"/>
            <polygon class="st63" points="195.75 326.14 156.46 326.14 155.23 309.42 194.69 308.32 195.75 326.14"/>
            <polygon class="st63" points="67.62 326.14 106.91 326.14 108.15 309.42 68.68 308.32 67.62 326.14"/>
          </g>
          <g>
            <polygon class="st63" points="457.41 325.04 417.06 325.04 418.12 309.6 459.54 308.32 457.41 325.04"/>
            <polygon class="st63" points="369.81 325.04 329.45 325.04 330.52 309.6 371.93 308.32 369.81 325.04"/>
            <polygon class="st63" points="283.56 325.04 243.21 325.04 244.27 309.6 285.68 308.32 283.56 325.04"/>
            <polygon class="st63" points="414.76 326.14 375.47 326.14 374.23 309.42 413.7 308.32 414.76 326.14"/>
            <polygon class="st63" points="286.63 326.14 325.92 326.14 327.15 309.42 287.69 308.32 286.63 326.14"/>
          </g>
          <g>
            <polygon class="st63" points="676.42 325.04 636.07 325.04 637.13 309.6 678.54 308.32 676.42 325.04"/>
            <polygon class="st63" points="588.81 325.04 548.46 325.04 549.52 309.6 590.94 308.32 588.81 325.04"/>
            <polygon class="st63" points="502.56 325.04 462.21 325.04 463.27 309.6 504.69 308.32 502.56 325.04"/>
            <polygon class="st63" points="633.76 326.14 594.48 326.14 593.24 309.42 632.7 308.32 633.76 326.14"/>
            <polygon class="st63" points="505.63 326.14 544.92 326.14 546.16 309.42 506.69 308.32 505.63 326.14"/>
          </g>
          <g>
            <polygon class="st63" points="886.41 308.66 886.41 325.04 855.07 325.04 856.13 309.6 886.41 308.66"/>
            <polygon class="st63" points="807.82 325.04 767.47 325.04 768.53 309.6 809.94 308.32 807.82 325.04"/>
            <polygon class="st63" points="721.57 325.04 681.22 325.04 682.28 309.6 723.69 308.32 721.57 325.04"/>
            <polygon class="st63" points="852.77 326.14 813.48 326.14 812.24 309.42 851.71 308.32 852.77 326.14"/>
            <polygon class="st63" points="724.64 326.14 763.93 326.14 765.17 309.42 725.7 308.32 724.64 326.14"/>
          </g>
        </g>
        <g>
          <g>
            <polygon class="st63" points="224.03 345.4 183.67 345.4 184.74 329.96 226.15 328.67 224.03 345.4"/>
            <polygon class="st63" points="136.42 345.4 96.07 345.4 97.13 329.96 138.54 328.67 136.42 345.4"/>
            <polygon class="st63" points="50.17 345.4 9.82 345.4 10.88 329.96 52.3 328.67 50.17 345.4"/>
            <polygon class="st63" points="181.37 346.5 142.08 346.5 140.85 329.78 180.31 328.67 181.37 346.5"/>
            <polygon class="st63" points="53.24 346.5 92.53 346.5 93.77 329.78 54.3 328.67 53.24 346.5"/>
          </g>
          <g>
            <polygon class="st63" points="443.03 345.4 402.68 345.4 403.74 329.96 445.16 328.67 443.03 345.4"/>
            <polygon class="st63" points="355.43 345.4 315.07 345.4 316.14 329.96 357.55 328.67 355.43 345.4"/>
            <polygon class="st63" points="269.18 345.4 228.83 345.4 229.89 329.96 271.3 328.67 269.18 345.4"/>
            <polygon class="st63" points="400.38 346.5 361.09 346.5 359.85 329.78 399.32 328.67 400.38 346.5"/>
            <polygon class="st63" points="272.25 346.5 311.54 346.5 312.77 329.78 273.31 328.67 272.25 346.5"/>
          </g>
          <g>
            <polygon class="st63" points="662.04 345.4 621.69 345.4 622.75 329.96 664.16 328.67 662.04 345.4"/>
            <polygon class="st63" points="574.43 345.4 534.08 345.4 535.14 329.96 576.56 328.67 574.43 345.4"/>
            <polygon class="st63" points="488.18 345.4 447.83 345.4 448.89 329.96 490.31 328.67 488.18 345.4"/>
            <polygon class="st63" points="619.39 346.5 580.1 346.5 578.86 329.78 618.32 328.67 619.39 346.5"/>
            <polygon class="st63" points="491.25 346.5 530.54 346.5 531.78 329.78 492.31 328.67 491.25 346.5"/>
          </g>
          <g>
            <polygon class="st63" points="881.04 345.4 840.69 345.4 841.75 329.96 883.17 328.67 881.04 345.4"/>
            <polygon class="st63" points="793.44 345.4 753.09 345.4 754.15 329.96 795.56 328.67 793.44 345.4"/>
            <polygon class="st63" points="707.19 345.4 666.84 345.4 667.9 329.96 709.31 328.67 707.19 345.4"/>
            <polygon class="st63" points="838.39 346.5 799.1 346.5 797.86 329.78 837.33 328.67 838.39 346.5"/>
            <polygon class="st63" points="710.26 346.5 749.55 346.5 750.79 329.78 711.32 328.67 710.26 346.5"/>
          </g>
        </g>
        <g>
          <g>
            <polygon class="st63" points="238.41 365.75 198.05 365.75 199.12 350.32 240.53 349.03 238.41 365.75"/>
            <polygon class="st63" points="150.8 365.75 110.45 365.75 111.51 350.32 152.92 349.03 150.8 365.75"/>
            <polygon class="st63" points="64.55 365.75 24.2 365.75 25.26 350.32 66.68 349.03 64.55 365.75"/>
            <polygon class="st63" points="195.75 366.86 156.46 366.86 155.23 350.13 194.69 349.03 195.75 366.86"/>
            <polygon class="st63" points="67.62 366.86 106.91 366.86 108.15 350.13 68.68 349.03 67.62 366.86"/>
          </g>
          <g>
            <polygon class="st63" points="457.41 365.75 417.06 365.75 418.12 350.32 459.54 349.03 457.41 365.75"/>
            <polygon class="st63" points="369.81 365.75 329.45 365.75 330.52 350.32 371.93 349.03 369.81 365.75"/>
            <polygon class="st63" points="283.56 365.75 243.21 365.75 244.27 350.32 285.68 349.03 283.56 365.75"/>
            <polygon class="st63" points="414.76 366.86 375.47 366.86 374.23 350.13 413.7 349.03 414.76 366.86"/>
            <polygon class="st63" points="286.63 366.86 325.92 366.86 327.15 350.13 287.69 349.03 286.63 366.86"/>
          </g>
          <g>
            <polygon class="st63" points="676.42 365.75 636.07 365.75 637.13 350.32 678.54 349.03 676.42 365.75"/>
            <polygon class="st63" points="588.81 365.75 548.46 365.75 549.52 350.32 590.94 349.03 588.81 365.75"/>
            <polygon class="st63" points="502.56 365.75 462.21 365.75 463.27 350.32 504.69 349.03 502.56 365.75"/>
            <polygon class="st63" points="633.76 366.86 594.48 366.86 593.24 350.13 632.7 349.03 633.76 366.86"/>
            <polygon class="st63" points="505.63 366.86 544.92 366.86 546.16 350.13 506.69 349.03 505.63 366.86"/>
          </g>
          <g>
            <polygon class="st63" points="886.41 349.38 886.41 365.75 855.07 365.75 856.13 350.32 886.41 349.38"/>
            <polygon class="st63" points="807.82 365.75 767.47 365.75 768.53 350.32 809.94 349.03 807.82 365.75"/>
            <polygon class="st63" points="721.57 365.75 681.22 365.75 682.28 350.32 723.69 349.03 721.57 365.75"/>
            <polygon class="st63" points="852.77 366.86 813.48 366.86 812.24 350.13 851.71 349.03 852.77 366.86"/>
            <polygon class="st63" points="724.64 366.86 763.93 366.86 765.17 350.13 725.7 349.03 724.64 366.86"/>
          </g>
        </g>
        <g>
          <g>
            <polygon class="st63" points="224.03 386.11 183.67 386.11 184.74 370.67 226.15 369.39 224.03 386.11"/>
            <polygon class="st63" points="136.42 386.11 96.07 386.11 97.13 370.67 138.54 369.39 136.42 386.11"/>
            <polygon class="st63" points="50.17 386.11 9.82 386.11 10.88 370.67 52.3 369.39 50.17 386.11"/>
            <polygon class="st63" points="181.37 387.21 142.08 387.21 140.85 370.49 180.31 369.39 181.37 387.21"/>
            <polygon class="st63" points="53.24 387.21 92.53 387.21 93.77 370.49 54.3 369.39 53.24 387.21"/>
          </g>
          <g>
            <polygon class="st63" points="443.03 386.11 402.68 386.11 403.74 370.67 445.16 369.39 443.03 386.11"/>
            <polygon class="st63" points="355.43 386.11 315.07 386.11 316.14 370.67 357.55 369.39 355.43 386.11"/>
            <polygon class="st63" points="269.18 386.11 228.83 386.11 229.89 370.67 271.3 369.39 269.18 386.11"/>
            <polygon class="st63" points="400.38 387.21 361.09 387.21 359.85 370.49 399.32 369.39 400.38 387.21"/>
            <polygon class="st63" points="272.25 387.21 311.54 387.21 312.77 370.49 273.31 369.39 272.25 387.21"/>
          </g>
          <g>
            <polygon class="st63" points="662.04 386.11 621.69 386.11 622.75 370.67 664.16 369.39 662.04 386.11"/>
            <polygon class="st63" points="574.43 386.11 534.08 386.11 535.14 370.67 576.56 369.39 574.43 386.11"/>
            <polygon class="st63" points="488.18 386.11 447.83 386.11 448.89 370.67 490.31 369.39 488.18 386.11"/>
            <polygon class="st63" points="619.39 387.21 580.1 387.21 578.86 370.49 618.32 369.39 619.39 387.21"/>
            <polygon class="st63" points="491.25 387.21 530.54 387.21 531.78 370.49 492.31 369.39 491.25 387.21"/>
          </g>
          <g>
            <polygon class="st63" points="881.04 386.11 840.69 386.11 841.75 370.67 883.17 369.39 881.04 386.11"/>
            <polygon class="st63" points="793.44 386.11 753.09 386.11 754.15 370.67 795.56 369.39 793.44 386.11"/>
            <polygon class="st63" points="707.19 386.11 666.84 386.11 667.9 370.67 709.31 369.39 707.19 386.11"/>
            <polygon class="st63" points="838.39 387.21 799.1 387.21 797.86 370.49 837.33 369.39 838.39 387.21"/>
            <polygon class="st63" points="710.26 387.21 749.55 387.21 750.79 370.49 711.32 369.39 710.26 387.21"/>
          </g>
        </g>
        <g>
          <g>
            <polygon class="st63" points="238.41 406.47 198.05 406.47 199.12 391.03 240.53 389.74 238.41 406.47"/>
            <polygon class="st63" points="150.8 406.47 110.45 406.47 111.51 391.03 152.92 389.74 150.8 406.47"/>
            <polygon class="st63" points="64.55 406.47 24.2 406.47 25.26 391.03 66.68 389.74 64.55 406.47"/>
            <polygon class="st63" points="195.75 407.57 156.46 407.57 155.23 390.84 194.69 389.74 195.75 407.57"/>
            <polygon class="st63" points="67.62 407.57 106.91 407.57 108.15 390.84 68.68 389.74 67.62 407.57"/>
          </g>
          <g>
            <polygon class="st63" points="457.41 406.47 417.06 406.47 418.12 391.03 459.54 389.74 457.41 406.47"/>
            <polygon class="st63" points="369.81 406.47 329.45 406.47 330.52 391.03 371.93 389.74 369.81 406.47"/>
            <polygon class="st63" points="283.56 406.47 243.21 406.47 244.27 391.03 285.68 389.74 283.56 406.47"/>
            <polygon class="st63" points="414.76 407.57 375.47 407.57 374.23 390.84 413.7 389.74 414.76 407.57"/>
            <polygon class="st63" points="286.63 407.57 325.92 407.57 327.15 390.84 287.69 389.74 286.63 407.57"/>
          </g>
          <g>
            <polygon class="st63" points="676.42 406.47 636.07 406.47 637.13 391.03 678.54 389.74 676.42 406.47"/>
            <polygon class="st63" points="588.81 406.47 548.46 406.47 549.52 391.03 590.94 389.74 588.81 406.47"/>
            <polygon class="st63" points="502.56 406.47 462.21 406.47 463.27 391.03 504.69 389.74 502.56 406.47"/>
            <polygon class="st63" points="633.76 407.57 594.48 407.57 593.24 390.84 632.7 389.74 633.76 407.57"/>
            <polygon class="st63" points="505.63 407.57 544.92 407.57 546.16 390.84 506.69 389.74 505.63 407.57"/>
          </g>
          <g>
            <polygon class="st63" points="886.41 390.09 886.41 406.47 855.07 406.47 856.13 391.03 886.41 390.09"/>
            <polygon class="st63" points="807.82 406.47 767.47 406.47 768.53 391.03 809.94 389.74 807.82 406.47"/>
            <polygon class="st63" points="721.57 406.47 681.22 406.47 682.28 391.03 723.69 389.74 721.57 406.47"/>
            <polygon class="st63" points="852.77 407.57 813.48 407.57 812.24 390.84 851.71 389.74 852.77 407.57"/>
            <polygon class="st63" points="724.64 407.57 763.93 407.57 765.17 390.84 725.7 389.74 724.64 407.57"/>
          </g>
        </g>
        <g>
          <g>
            <polygon class="st63" points="224.03 426.82 183.67 426.82 184.74 411.39 226.15 410.1 224.03 426.82"/>
            <polygon class="st63" points="136.42 426.82 96.07 426.82 97.13 411.39 138.54 410.1 136.42 426.82"/>
            <polygon class="st63" points="50.17 426.82 9.82 426.82 10.88 411.39 52.3 410.1 50.17 426.82"/>
            <polygon class="st63" points="181.37 427.93 142.08 427.93 140.85 411.2 180.31 410.1 181.37 427.93"/>
            <polygon class="st63" points="53.24 427.93 92.53 427.93 93.77 411.2 54.3 410.1 53.24 427.93"/>
          </g>
          <g>
            <polygon class="st63" points="443.03 426.82 402.68 426.82 403.74 411.39 445.16 410.1 443.03 426.82"/>
            <polygon class="st63" points="355.43 426.82 315.07 426.82 316.14 411.39 357.55 410.1 355.43 426.82"/>
            <polygon class="st63" points="269.18 426.82 228.83 426.82 229.89 411.39 271.3 410.1 269.18 426.82"/>
            <polygon class="st63" points="400.38 427.93 361.09 427.93 359.85 411.2 399.32 410.1 400.38 427.93"/>
            <polygon class="st63" points="272.25 427.93 311.54 427.93 312.77 411.2 273.31 410.1 272.25 427.93"/>
          </g>
          <g>
            <polygon class="st63" points="662.04 426.82 621.69 426.82 622.75 411.39 664.16 410.1 662.04 426.82"/>
            <polygon class="st63" points="574.43 426.82 534.08 426.82 535.14 411.39 576.56 410.1 574.43 426.82"/>
            <polygon class="st63" points="488.18 426.82 447.83 426.82 448.89 411.39 490.31 410.1 488.18 426.82"/>
            <polygon class="st63" points="619.39 427.93 580.1 427.93 578.86 411.2 618.32 410.1 619.39 427.93"/>
            <polygon class="st63" points="491.25 427.93 530.54 427.93 531.78 411.2 492.31 410.1 491.25 427.93"/>
          </g>
          <g>
            <polygon class="st63" points="881.04 426.82 840.69 426.82 841.75 411.39 883.17 410.1 881.04 426.82"/>
            <polygon class="st63" points="793.44 426.82 753.09 426.82 754.15 411.39 795.56 410.1 793.44 426.82"/>
            <polygon class="st63" points="707.19 426.82 666.84 426.82 667.9 411.39 709.31 410.1 707.19 426.82"/>
            <polygon class="st63" points="838.39 427.93 799.1 427.93 797.86 411.2 837.33 410.1 838.39 427.93"/>
            <polygon class="st63" points="710.26 427.93 749.55 427.93 750.79 411.2 711.32 410.1 710.26 427.93"/>
          </g>
        </g>
        <g>
          <g>
            <polygon class="st63" points="238.41 447.18 198.05 447.18 199.12 431.74 240.53 430.45 238.41 447.18"/>
            <polygon class="st63" points="150.8 447.18 110.45 447.18 111.51 431.74 152.92 430.45 150.8 447.18"/>
            <polygon class="st63" points="64.55 447.18 24.2 447.18 25.26 431.74 66.68 430.45 64.55 447.18"/>
            <polygon class="st63" points="195.75 448.28 156.46 448.28 155.23 431.56 194.69 430.45 195.75 448.28"/>
            <polygon class="st63" points="67.62 448.28 106.91 448.28 108.15 431.56 68.68 430.45 67.62 448.28"/>
            <polygon class="st63" points="20.91 24.43 19.67 41.15 6.55 41.15 6.55 24.03 20.91 24.43"/>
            <polygon class="st63" points="20.91 65.14 19.67 81.87 6.55 81.87 6.55 64.74 20.91 65.14"/>
            <polygon class="st63" points="20.91 105.86 19.67 122.58 6.55 122.58 6.55 105.46 20.91 105.86"/>
            <polygon class="st63" points="20.91 146.57 19.67 163.29 6.55 163.29 6.55 146.17 20.91 146.57"/>
            <polygon class="st63" points="20.91 187.28 19.67 204.01 6.55 204.01 6.55 186.88 20.91 187.28"/>
            <polygon class="st63" points="20.91 227.99 19.67 244.72 6.55 244.72 6.55 227.59 20.91 227.99"/>
            <polygon class="st63" points="20.91 268.71 19.67 285.43 6.55 285.43 6.55 268.31 20.91 268.71"/>
            <polygon class="st63" points="20.91 309.42 19.67 326.14 6.55 326.14 6.55 309.02 20.91 309.42"/>
            <polygon class="st63" points="20.91 350.13 19.67 366.86 6.55 366.86 6.55 349.73 20.91 350.13"/>
            <polygon class="st63" points="20.91 390.84 19.67 407.57 6.55 407.57 6.55 390.44 20.91 390.84"/>
            <polygon class="st63" points="20.91 431.56 19.67 448.28 6.55 448.28 6.55 431.16 20.91 431.56"/>
          </g>
          <g>
            <polygon class="st63" points="457.41 447.18 417.06 447.18 418.12 431.74 459.54 430.45 457.41 447.18"/>
            <polygon class="st63" points="369.81 447.18 329.45 447.18 330.52 431.74 371.93 430.45 369.81 447.18"/>
            <polygon class="st63" points="283.56 447.18 243.21 447.18 244.27 431.74 285.68 430.45 283.56 447.18"/>
            <polygon class="st63" points="414.76 448.28 375.47 448.28 374.23 431.56 413.7 430.45 414.76 448.28"/>
            <polygon class="st63" points="286.63 448.28 325.92 448.28 327.15 431.56 287.69 430.45 286.63 448.28"/>
          </g>
          <g>
            <polygon class="st63" points="676.42 447.18 636.07 447.18 637.13 431.74 678.54 430.45 676.42 447.18"/>
            <polygon class="st63" points="588.81 447.18 548.46 447.18 549.52 431.74 590.94 430.45 588.81 447.18"/>
            <polygon class="st63" points="502.56 447.18 462.21 447.18 463.27 431.74 504.69 430.45 502.56 447.18"/>
            <polygon class="st63" points="633.76 448.28 594.48 448.28 593.24 431.56 632.7 430.45 633.76 448.28"/>
            <polygon class="st63" points="505.63 448.28 544.92 448.28 546.16 431.56 506.69 430.45 505.63 448.28"/>
          </g>
          <g>
            <polygon class="st63" points="886.41 430.8 886.41 447.18 855.07 447.18 856.13 431.74 886.41 430.8"/>
            <polygon class="st63" points="807.82 447.18 767.47 447.18 768.53 431.74 809.94 430.45 807.82 447.18"/>
            <polygon class="st63" points="721.57 447.18 681.22 447.18 682.28 431.74 723.69 430.45 721.57 447.18"/>
            <polygon class="st63" points="852.77 448.28 813.48 448.28 812.24 431.56 851.71 430.45 852.77 448.28"/>
            <polygon class="st63" points="724.64 448.28 763.93 448.28 765.17 431.56 725.7 430.45 724.64 448.28"/>
          </g>
        </g>
        <g>
          <g>
            <polygon class="st63" points="224.03 467.54 183.67 467.54 184.74 452.1 226.15 450.81 224.03 467.54"/>
            <polygon class="st63" points="136.42 467.54 96.07 467.54 97.13 452.1 138.54 450.81 136.42 467.54"/>
            <polygon class="st63" points="50.17 467.54 9.82 467.54 10.88 452.1 52.3 450.81 50.17 467.54"/>
            <polygon class="st63" points="181.37 468.64 142.08 468.64 140.85 451.91 180.31 450.81 181.37 468.64"/>
            <polygon class="st63" points="53.24 468.64 92.53 468.64 93.77 451.91 54.3 450.81 53.24 468.64"/>
          </g>
          <g>
            <polygon class="st63" points="443.03 467.54 402.68 467.54 403.74 452.1 445.16 450.81 443.03 467.54"/>
            <polygon class="st63" points="355.43 467.54 315.07 467.54 316.14 452.1 357.55 450.81 355.43 467.54"/>
            <polygon class="st63" points="269.18 467.54 228.83 467.54 229.89 452.1 271.3 450.81 269.18 467.54"/>
            <polygon class="st63" points="400.38 468.64 361.09 468.64 359.85 451.91 399.32 450.81 400.38 468.64"/>
            <polygon class="st63" points="272.25 468.64 311.54 468.64 312.77 451.91 273.31 450.81 272.25 468.64"/>
          </g>
          <g>
            <polygon class="st63" points="662.04 467.54 621.69 467.54 622.75 452.1 664.16 450.81 662.04 467.54"/>
            <polygon class="st63" points="574.43 467.54 534.08 467.54 535.14 452.1 576.56 450.81 574.43 467.54"/>
            <polygon class="st63" points="488.18 467.54 447.83 467.54 448.89 452.1 490.31 450.81 488.18 467.54"/>
            <polygon class="st63" points="619.39 468.64 580.1 468.64 578.86 451.91 618.32 450.81 619.39 468.64"/>
            <polygon class="st63" points="491.25 468.64 530.54 468.64 531.78 451.91 492.31 450.81 491.25 468.64"/>
          </g>
          <g>
            <polygon class="st63" points="881.04 467.54 840.69 467.54 841.75 452.1 883.17 450.81 881.04 467.54"/>
            <polygon class="st63" points="793.44 467.54 753.09 467.54 754.15 452.1 795.56 450.81 793.44 467.54"/>
            <polygon class="st63" points="707.19 467.54 666.84 467.54 667.9 452.1 709.31 450.81 707.19 467.54"/>
            <polygon class="st63" points="838.39 468.64 799.1 468.64 797.86 451.91 837.33 450.81 838.39 468.64"/>
            <polygon class="st63" points="710.26 468.64 749.55 468.64 750.79 451.91 711.32 450.81 710.26 468.64"/>
          </g>
        </g>
        <g>
          <g>
            <polygon class="st63" points="238.41 487.89 198.05 487.89 199.12 472.45 240.53 471.17 238.41 487.89"/>
            <polygon class="st63" points="150.8 487.89 110.45 487.89 111.51 472.45 152.92 471.17 150.8 487.89"/>
            <polygon class="st63" points="64.55 487.89 24.2 487.89 25.26 472.45 66.68 471.17 64.55 487.89"/>
            <polygon class="st63" points="195.75 488.99 156.46 488.99 155.23 472.27 194.69 471.17 195.75 488.99"/>
            <polygon class="st63" points="67.62 488.99 106.91 488.99 108.15 472.27 68.68 471.17 67.62 488.99"/>
          </g>
          <g>
            <polygon class="st63" points="457.41 487.89 417.06 487.89 418.12 472.45 459.54 471.17 457.41 487.89"/>
            <polygon class="st63" points="369.81 487.89 329.45 487.89 330.52 472.45 371.93 471.17 369.81 487.89"/>
            <polygon class="st63" points="283.56 487.89 243.21 487.89 244.27 472.45 285.68 471.17 283.56 487.89"/>
            <polygon class="st63" points="414.76 488.99 375.47 488.99 374.23 472.27 413.7 471.17 414.76 488.99"/>
            <polygon class="st63" points="286.63 488.99 325.92 488.99 327.15 472.27 287.69 471.17 286.63 488.99"/>
          </g>
          <g>
            <polygon class="st63" points="676.42 487.89 636.07 487.89 637.13 472.45 678.54 471.17 676.42 487.89"/>
            <polygon class="st63" points="588.81 487.89 548.46 487.89 549.52 472.45 590.94 471.17 588.81 487.89"/>
            <polygon class="st63" points="502.56 487.89 462.21 487.89 463.27 472.45 504.69 471.17 502.56 487.89"/>
            <polygon class="st63" points="633.76 488.99 594.48 488.99 593.24 472.27 632.7 471.17 633.76 488.99"/>
            <polygon class="st63" points="505.63 488.99 544.92 488.99 546.16 472.27 506.69 471.17 505.63 488.99"/>
          </g>
          <g>
            <polygon class="st63" points="886.41 471.51 886.41 487.89 855.07 487.89 856.13 472.45 886.41 471.51"/>
            <polygon class="st63" points="807.82 487.89 767.47 487.89 768.53 472.45 809.94 471.17 807.82 487.89"/>
            <polygon class="st63" points="721.57 487.89 681.22 487.89 682.28 472.45 723.69 471.17 721.57 487.89"/>
            <polygon class="st63" points="852.77 488.99 813.48 488.99 812.24 472.27 851.71 471.17 852.77 488.99"/>
            <polygon class="st63" points="724.64 488.99 763.93 488.99 765.17 472.27 725.7 471.17 724.64 488.99"/>
          </g>
        </g>
      </g>
      <rect class="st67" x="13.33" y="486.07" width="870.66" height="10.01"/>
      <rect class="st65" y="492.09" width="887.8" height="142.24"/>
    </g>
    <g id="finestra">
      <g>
        <g>
          <path class="st67" d="M676.96,300.22h-284.76c0-5.25,8.26-9.5,18.45-9.5h247.86c10.19,0,18.45,4.25,18.45,9.5h0Z"/>
          <rect class="st41" x="392.19" y="300.22" width="284.76" height="2.62"/>
        </g>
        <g>
          <path class="st71" d="M453.71,280.99h-.06v-.1l.06.1Z"/>
          <g>
            <rect class="st47" x="418.18" y="107.36" width="108.5" height="175.96"/>
            <polygon class="st56" points="526.86 99.05 519.11 107.36 410.44 223.88 410.44 173.06 418.19 164.75 471.71 107.36 479.46 99.05 526.86 99.05"/>
            <polygon class="st56" points="469.87 99.05 410.44 162.78 410.44 156.5 456.27 107.36 464.02 99.05 469.87 99.05"/>
            <polygon class="st56" points="534.43 99.05 534.43 110.9 526.68 119.2 418.19 235.54 410.44 243.85 410.44 231.93 526.62 107.36 534.37 99.05 534.43 99.05"/>
            <polygon class="st56" points="534.43 116.42 534.43 119.35 526.68 127.65 418.19 243.99 410.44 252.29 410.44 249.36 418.19 241.06 526.68 124.72 534.43 116.42"/>
          </g>
          <g>
            <path class="st68" d="M410.8,98.89v192.58h123.78V98.89h-123.78,0ZM526.81,283.14h-108.73V107.22h108.73v175.93h0Z"/>
            <path class="st59" d="M417.59,106.69v177.49h110.19V106.69h-110.19ZM418.08,283.14V107.22h108.73v175.93h-108.73Z"/>
          </g>
          <g>
            <path class="st0" d="M611.89,249.31h2.43l-5.05-9.37h-36.69v-3.64h.64c.49,0,.82-.83.82-1.29v-2.33c0-.46-.33-.54-.82-.54h-6.54c-.49,0-.89.08-.89.54v2.33c0,.46.4,1.29.89,1.29h1.05v3.64h-7.35l-5.05,9.37h2.69v41.12h53.88v-41.12h-.01ZM568.69,269.09h-3.88v-12.49h3.88v12.49ZM568.69,286.26h-3.88v-11.97h3.88v11.97ZM574.03,269.09h-3.88v-12.49h3.88v12.49ZM574.51,286.26h-4.37v-11.97h4.37v11.97ZM584.22,269.09h-3.88v-12.49h3.88v12.49ZM584.22,286.26h-3.88v-11.97h3.88v11.97ZM589.56,269.09h-3.88v-12.49h3.88v12.49ZM589.56,286.26h-3.88v-11.97h3.88v11.97ZM599.75,269.09h-4.37v-12.49h4.37v12.49ZM599.75,286.26h-4.37v-11.97h4.37v11.97ZM605.09,269.09h-3.88v-12.49h3.88v12.49ZM605.09,286.26h-3.88v-11.97h3.88v11.97Z"/>
            <path class="st0" d="M590.04,192.06v98.89h45.14v-98.89h-7.77v-4.68h-2.43v-14.05h-.97v14.05h-11.16v4.68h-22.81ZM598.78,277.94h28.64v6.25h-28.64v-6.25ZM598.78,269.61h28.64v5.2h-28.64v-5.2ZM598.78,259.72h28.64v6.25h-28.64v-6.25ZM598.78,251.39h28.64v5.73h-28.64v-5.73ZM598.78,243.06h28.64v5.2h-28.64v-5.2ZM598.78,234.21h28.64v5.73h-28.64v-5.73ZM598.78,224.85h28.64v6.25h-28.64v-6.25ZM598.78,216.52h28.64v5.73h-28.64v-5.73ZM598.78,207.67h28.64v5.73h-28.64v-5.73ZM598.78,198.3h28.64v6.25h-28.64v-6.25Z"/>
          </g>
          <rect class="st47" x="542.41" y="107.36" width="108.5" height="175.96"/>
          <polygon class="st56" points="658.65 116.42 658.65 120.18 648.84 130.84 511.29 280.22 501.47 290.88 501.47 287.12 511.29 276.46 648.84 127.08 658.65 116.42"/>
          <g>
            <path class="st68" d="M534.58,98.89v192.58h124.26V98.89h-124.26ZM651.07,283.14h-108.73V107.22h108.73v175.93h0Z"/>
            <path class="st59" d="M541.86,106.69v177.49h109.7V106.69h-109.7ZM542.34,283.14V107.22h108.73v175.93h-108.73Z"/>
          </g>
          <polygon class="st56" points="658.84 98.89 658.84 99.42 651.73 106.94 650.96 107.73 650.88 107.78 542.43 224.07 534.43 232.64 527.42 240.16 526.69 240.94 526.64 240.99 487.16 283.24 479.42 291.47 458.49 291.47 465.46 284.07 466.23 283.28 526.64 218.52 527.42 217.7 534.43 210.18 534.67 209.93 541.59 202.51 542.37 201.6 638.07 98.89 658.84 98.89"/>
        </g>
        <g>
          <rect class="st67" x="403.52" y="91.2" width="261.83" height="3.96"/>
          <rect class="st43" x="408.64" y="88.71" width="251.87" height="77.14"/>
          <rect class="st51" x="408.64" y="88.71" width="251.87" height="8.79"/>
          <rect class="st31" x="408.64" y="97.5" width="251.87" height="1.55"/>
          <g class="st57">
            <path class="st64" d="M412.63,159.49h-3.99c-.07,0-.13-.03-.13-.07s.06-.07.13-.07h3.99c.07,0,.13.03.13.07s-.06.07-.13.07Z"/>
            <path class="st64" d="M651.74,159.49h-7.97c-.07,0-.13-.03-.13-.07s.06-.07.13-.07h7.97c.07,0,.13.03.13.07s-.06.07-.13.07ZM638.45,159.49h-7.97c-.07,0-.13-.03-.13-.07s.06-.07.13-.07h7.97c.07,0,.13.03.13.07s-.06.07-.13.07ZM625.17,159.49h-7.97c-.07,0-.13-.03-.13-.07s.06-.07.13-.07h7.97c.07,0,.13.03.13.07s-.06.07-.13.07ZM611.89,159.49h-7.97c-.07,0-.13-.03-.13-.07s.06-.07.13-.07h7.97c.07,0,.13.03.13.07s-.06.07-.13.07ZM598.6,159.49h-7.97c-.07,0-.13-.03-.13-.07s.06-.07.13-.07h7.97c.07,0,.13.03.13.07s-.06.07-.13.07ZM585.32,159.49h-7.97c-.07,0-.13-.03-.13-.07s.06-.07.13-.07h7.97c.07,0,.13.03.13.07s-.06.07-.13.07ZM572.04,159.49h-7.97c-.07,0-.13-.03-.13-.07s.06-.07.13-.07h7.97c.07,0,.13.03.13.07s-.06.07-.13.07ZM558.75,159.49h-7.97c-.07,0-.13-.03-.13-.07s.06-.07.13-.07h7.97c.07,0,.13.03.13.07s-.06.07-.13.07ZM545.47,159.49h-7.97c-.07,0-.13-.03-.13-.07s.06-.07.13-.07h7.97c.07,0,.13.03.13.07s-.06.07-.13.07ZM532.18,159.49h-7.97c-.07,0-.13-.03-.13-.07s.06-.07.13-.07h7.97c.07,0,.13.03.13.07s-.06.07-.13.07ZM518.9,159.49h-7.97c-.07,0-.13-.03-.13-.07s.06-.07.13-.07h7.97c.07,0,.13.03.13.07s-.06.07-.13.07ZM505.62,159.49h-7.97c-.07,0-.13-.03-.13-.07s.06-.07.13-.07h7.97c.07,0,.13.03.13.07s-.06.07-.13.07ZM492.33,159.49h-7.97c-.07,0-.13-.03-.13-.07s.06-.07.13-.07h7.97c.07,0,.13.03.13.07s-.06.07-.13.07ZM479.05,159.49h-7.97c-.07,0-.13-.03-.13-.07s.06-.07.13-.07h7.97c.07,0,.13.03.13.07s-.06.07-.13.07ZM465.77,159.49h-7.97c-.07,0-.13-.03-.13-.07s.06-.07.13-.07h7.97c.07,0,.13.03.13.07s-.06.07-.13.07ZM452.48,159.49h-7.97c-.07,0-.13-.03-.13-.07s.06-.07.13-.07h7.97c.07,0,.13.03.13.07s-.06.07-.13.07ZM439.2,159.49h-7.97c-.07,0-.13-.03-.13-.07s.06-.07.13-.07h7.97c.07,0,.13.03.13.07s-.06.07-.13.07ZM425.92,159.49h-7.97c-.07,0-.13-.03-.13-.07s.06-.07.13-.07h7.97c.07,0,.13.03.13.07s-.06.07-.13.07Z"/>
            <path class="st64" d="M661.04,159.49h-3.99c-.07,0-.13-.03-.13-.07s.06-.07.13-.07h3.99c.07,0,.13.03.13.07s-.06.07-.13.07Z"/>
          </g>
          <rect class="st31" x="408.64" y="90.04" width="251.87" height="2.33"/>
          <path class="st59" d="M666.15,96.57h0c-.88,0-1.6-.4-1.6-.88v-5.45c0-.48.72-.88,1.6-.88h0c.88,0,1.6.4,1.6.88v5.45c0,.48-.72.88-1.6.88Z"/>
          <rect class="st59" x="401.41" y="89.36" width="3.19" height="7.21" rx=".85" ry=".85"/>
        </g>
      </g>
    </g>
    <g id="scaffale_1_sotto">
      <rect class="st23" x="84.99" y="188.46" width="73.07" height="311.63"/>
      <polygon class="st28" points="166.14 491.25 158.07 500.09 158.07 188.46 166.14 200.31 166.14 491.25"/>
    </g>
    <g id="scaffale_1">
      <rect class="st15" x="92.75" y="195.64" width="58.22" height="25.78" rx=".14" ry=".14"/>
      <g>
        <path class="st8" d="M92.89,228.5h14.41v42.56h-14.41c-.08,0-.14-.06-.14-.14v-42.28c0-.08.06-.14.14-.14h0Z"/>
        <rect class="st8" x="107.3" y="228.5" width="14.56" height="42.56"/>
        <rect class="st8" x="121.86" y="228.5" width="14.56" height="42.56"/>
        <path class="st8" d="M136.41,228.5h14.41c.08,0,.14.06.14.14v42.28c0,.08-.06.14-.14.14h-14.41v-42.56h0Z"/>
        <rect class="st30" x="96.08" y="232.99" width="3.94" height="32.48" rx=".14" ry=".14"/>
        <rect class="st30" x="110.64" y="232.99" width="3.94" height="32.48" rx=".14" ry=".14"/>
        <rect class="st30" x="125.19" y="232.99" width="3.94" height="32.48" rx=".14" ry=".14"/>
        <rect class="st30" x="140.56" y="232.99" width="3.94" height="32.48" rx=".14" ry=".14"/>
      </g>
      <g>
        <path class="st8" d="M93.34,278.63h9.56v42.56h-9.56c-.08,0-.14-.06-.14-.14v-42.28c0-.08.06-.14.14-.14h0Z"/>
        <rect class="st8" x="102.9" y="278.63" width="9.7" height="42.56"/>
        <rect class="st8" x="112.61" y="278.63" width="9.7" height="42.56"/>
        <rect class="st8" x="122.31" y="278.63" width="9.7" height="42.56"/>
        <rect class="st8" x="132.01" y="278.63" width="9.7" height="42.56"/>
        <path class="st8" d="M141.72,278.63h9.56c.08,0,.14.06.14.14v42.28c0,.08-.06.14-.14.14h-9.56v-42.56h0Z"/>
        <path class="st30" d="M96.6,308.86h2.93v10.06h-3.07v-9.91c0-.08.06-.14.14-.14h0Z"/>
        <path class="st30" d="M107.44,308.86h2.93v10.06h-3.07v-9.91c0-.08.06-.14.14-.14h0Z"/>
        <path class="st30" d="M116.88,308.86h2.93v10.06h-3.07v-9.91c0-.08.06-.14.14-.14h0Z"/>
        <path class="st30" d="M126.2,308.86h2.93v10.06h-3.07v-9.91c0-.08.06-.14.14-.14h0Z"/>
        <path class="st30" d="M135.87,308.86h2.93v10.06h-3.07v-9.91c0-.08.06-.14.14-.14h0Z"/>
        <path class="st30" d="M145.18,308.86h2.93v10.06h-3.07v-9.91c0-.08.06-.14.14-.14h0Z"/>
      </g>
      <g>
        <path class="st8" d="M93.34,329.02h9.56v42.56h-9.56c-.08,0-.14-.06-.14-.14v-42.28c0-.08.06-.14.14-.14h0Z"/>
        <rect class="st8" x="102.9" y="329.02" width="9.7" height="42.56"/>
        <rect class="st8" x="112.61" y="329.02" width="9.7" height="42.56"/>
        <rect class="st8" x="122.31" y="329.02" width="9.7" height="42.56"/>
        <rect class="st8" x="132.01" y="329.02" width="9.7" height="42.56"/>
        <path class="st8" d="M141.72,329.02h9.56c.08,0,.14.06.14.14v42.28c0,.08-.06.14-.14.14h-9.56v-42.56h0Z"/>
        <path class="st30" d="M96.6,359.25h2.93v10.06h-3.07v-9.91c0-.08.06-.14.14-.14h0Z"/>
        <path class="st30" d="M107.44,359.25h2.93v10.06h-3.07v-9.91c0-.08.06-.14.14-.14h0Z"/>
        <path class="st30" d="M116.88,359.25h2.93v10.06h-3.07v-9.91c0-.08.06-.14.14-.14h0Z"/>
        <path class="st30" d="M126.2,359.25h2.93v10.06h-3.07v-9.91c0-.08.06-.14.14-.14h0Z"/>
        <path class="st30" d="M135.87,359.25h2.93v10.06h-3.07v-9.91c0-.08.06-.14.14-.14h0Z"/>
        <path class="st30" d="M145.18,359.25h2.93v10.06h-3.07v-9.91c0-.08.06-.14.14-.14h0Z"/>
      </g>
      <g>
        <rect class="st30" x="99.25" y="199.64" width="44.13" height="21.28"/>
        <rect class="st66" x="98.39" y="197.91" width="46.28" height="5.26"/>
        <rect class="st72" x="112.09" y="206.96" width="17.22" height="4.66"/>
      </g>
      <g>
        <rect class="st3" x="92.75" y="379.4" width="58.22" height="52.14"/>
        <path class="st67" d="M131.21,381.49l-1.28,3.66c-.35.99-1.28,1.65-2.32,1.65h-11.41c-1.04,0-1.98-.66-2.32-1.65l-1.28-3.66h-18.2v49.25h55.03v-49.25h-18.22Z"/>
      </g>
      <g>
        <rect class="st3" x="92.75" y="440.6" width="58.22" height="52.14"/>
        <path class="st67" d="M131.21,442.66l-1.28,3.66c-.35.99-1.28,1.65-2.32,1.65h-11.41c-1.04,0-1.98-.66-2.32-1.65l-1.28-3.66h-18.2v49.25h55.03v-49.25h-18.22Z"/>
      </g>
    </g>
    <g id="ombrescaffale">
      <rect class="st49" x="93.03" y="228.5" width="2.72" height="42.56"/>
      <rect class="st49" x="107.48" y="228.5" width="2.72" height="42.56"/>
      <rect class="st49" x="122.31" y="228.5" width="2.72" height="42.56"/>
      <rect class="st49" x="135.91" y="228.5" width="2.72" height="42.56"/>
      <polygon class="st49" points="92.75 195.78 98.39 197.91 120.7 203.17 121.9 221.41 91.99 221.41 92.75 195.78"/>
      <polygon class="st49" points="93.2 278.78 93.27 321.2 94.83 321.2 94.64 278.63 93.2 278.78"/>
      <polygon class="st49" points="102.89 278.78 102.96 321.2 104.52 321.2 104.33 278.63 102.89 278.78"/>
      <polygon class="st49" points="112.95 278.78 113.02 321.2 114.58 321.2 114.39 278.63 112.95 278.78"/>
      <polygon class="st49" points="122.86 278.78 122.93 321.2 124.49 321.2 124.3 278.63 122.86 278.78"/>
      <polygon class="st49" points="132.01 278.78 132.09 321.2 133.64 321.2 133.46 278.63 132.01 278.78"/>
      <polygon class="st49" points="141.72 278.93 141.79 321.35 143.35 321.35 143.16 278.79 141.72 278.93"/>
      <polygon class="st49" points="93.2 329.08 93.27 371.51 94.83 371.51 94.64 328.94 93.2 329.08"/>
      <polygon class="st49" points="102.89 329.08 102.96 371.51 104.52 371.51 104.33 328.94 102.89 329.08"/>
      <polygon class="st49" points="112.95 329.08 113.02 371.51 114.58 371.51 114.39 328.94 112.95 329.08"/>
      <polygon class="st49" points="122.86 329.08 122.93 371.51 124.49 371.51 124.3 328.94 122.86 329.08"/>
      <polygon class="st49" points="132.02 329.08 132.09 371.51 133.65 371.51 133.46 328.94 132.02 329.08"/>
      <polygon class="st49" points="141.72 329.24 141.79 371.66 143.35 371.66 143.16 329.09 141.72 329.24"/>
      <polygon class="st49" points="92.75 379.4 94.39 381.49 110.64 381.49 126.06 431.54 104.52 431.54 92.75 432.4 92.75 379.4"/>
      <polygon class="st49" points="92.75 440.6 94.39 442.66 112.59 442.66 129.13 491.92 92.75 492.74 92.75 440.6"/>
      <polygon class="st49" points="91.99 188.46 93.03 500.09 84.99 500.09 84.99 188.46 91.99 188.46"/>
    </g>
    <g id="scrivania">
      <polyline class="st28" points="491.12 500.09 488.2 491.92 488.2 396.64 491.12 391.31"/>
      <polyline class="st28" points="212.83 500.09 215.75 491.92 215.75 396.64 212.83 391.31"/>
      <g>
        <rect class="st22" x="204.41" y="388.31" width="295.27" height="8.33"/>
        <polyline class="st25" points="204.41 388.31 215.11 386.22 490.97 386.22 499.68 388.31"/>
      </g>
      <rect class="st22" x="204.41" y="396.64" width="8.07" height="103.69"/>
      <rect class="st22" x="491.6" y="396.64" width="8.07" height="103.69"/>
    </g>
    <g id="oggetti">
      <g>
        <polygon class="st36" points="304.75 199.59 302.13 234.18 307.37 234.18 304.75 199.59"/>
        <polygon class="st32" points="309.98 199.59 307.37 234.18 312.6 234.18 309.98 199.59"/>
        <polygon class="st32" points="315.21 199.59 312.6 234.18 317.83 234.18 315.21 199.59"/>
        <polygon class="st33" points="321.31 199.67 318.69 234.26 323.92 234.26 321.31 199.67"/>
        <polygon class="st27" points="317.83 188.26 315.21 234.18 320.45 234.18 317.83 188.26"/>
        <polygon class="st24" points="313.6 179.49 310.98 234.84 316.21 234.84 313.6 179.49"/>
        <polygon class="st27" points="308.24 185.93 305.62 234.85 310.85 234.85 308.24 185.93"/>
      </g>
      <path class="st29" d="M301.28,234.18h24.42v12.21c0,6.74-5.47,12.21-12.21,12.21h0c-6.74,0-12.21-5.47-12.21-12.21v-12.21h0Z"/>
      <g>
        <polygon class="st34" points="250.79 256.5 250.79 209.16 244.91 206.9 244.91 257.04 250.79 256.5"/>
        <path class="st8" d="M244.91,256.5h-18.86v-49.59s4.46-.91,9.43-.91c4.26,0,9.43.91,9.43.91v49.59Z"/>
        <path class="st35" d="M226.06,256.5h-18.86v-49.59s4.46-.91,9.43-.91c4.26,0,9.43.91,9.43.91v49.59Z"/>
      </g>
      <path class="st8" d="M293.95,257.04h-46.67s-.59-1.71-.59-4c0-2.6.59-4,.59-4h46.67s.74,1.91.74,4c0,1.84-.74,4-.74,4Z"/>
      <path class="st8" d="M293.95,248.76h-46.67s-.59-1.71-.59-4c0-2.6.59-4,.59-4h46.67s.74,1.91.74,4c0,1.84-.74,4-.74,4Z"/>
      <path class="st8" d="M293.95,240.48h-46.67s-.59-1.71-.59-4c0-2.6.59-4,.59-4h46.67s.74,1.91.74,4c0,1.84-.74,4-.74,4Z"/>
      <g>
        <g>
          <rect class="st61" x="271.73" y="357.36" width="3.96" height="22.8" transform="translate(-17.56 13.71) rotate(-2.78)"/>
          <line class="st20" x1="273.76" y1="358.66" x2="275.2" y2="358.59"/>
          <line class="st20" x1="273.8" y1="359.4" x2="275.24" y2="359.33"/>
          <line class="st20" x1="273.84" y1="360.14" x2="275.28" y2="360.07"/>
          <line class="st20" x1="273.87" y1="360.88" x2="275.31" y2="360.81"/>
          <line class="st20" x1="273.91" y1="361.63" x2="275.35" y2="361.56"/>
          <line class="st20" x1="273.94" y1="362.37" x2="275.39" y2="362.3"/>
          <line class="st20" x1="273.98" y1="363.11" x2="275.42" y2="363.04"/>
          <line class="st20" x1="274.02" y1="363.85" x2="275.46" y2="363.78"/>
          <line class="st20" x1="274.05" y1="364.6" x2="275.49" y2="364.53"/>
          <line class="st20" x1="274.09" y1="365.34" x2="275.53" y2="365.27"/>
          <line class="st20" x1="274.12" y1="366.08" x2="275.57" y2="366.01"/>
          <line class="st20" x1="274.16" y1="366.82" x2="275.6" y2="366.75"/>
          <line class="st20" x1="274.2" y1="367.57" x2="275.64" y2="367.5"/>
          <line class="st20" x1="274.23" y1="368.31" x2="275.67" y2="368.24"/>
          <line class="st20" x1="274.27" y1="369.05" x2="275.71" y2="368.98"/>
          <line class="st20" x1="274.3" y1="369.79" x2="275.75" y2="369.72"/>
          <line class="st20" x1="274.34" y1="370.54" x2="275.78" y2="370.47"/>
          <line class="st20" x1="274.38" y1="371.28" x2="275.82" y2="371.21"/>
          <line class="st20" x1="274.41" y1="372.02" x2="275.85" y2="371.95"/>
          <line class="st20" x1="274.45" y1="372.76" x2="275.89" y2="372.69"/>
          <line class="st20" x1="274.48" y1="373.5" x2="275.93" y2="373.43"/>
          <line class="st20" x1="274.52" y1="374.25" x2="275.96" y2="374.18"/>
          <line class="st20" x1="274.56" y1="374.99" x2="276" y2="374.92"/>
          <line class="st20" x1="274.59" y1="375.73" x2="276.03" y2="375.66"/>
          <line class="st20" x1="274.63" y1="376.47" x2="276.07" y2="376.4"/>
          <line class="st20" x1="274.66" y1="377.22" x2="276.11" y2="377.15"/>
          <line class="st20" x1="274.7" y1="377.96" x2="276.14" y2="377.89"/>
          <line class="st20" x1="274.74" y1="378.7" x2="276.18" y2="378.63"/>
        </g>
        <g>
          <rect class="st4" x="279.81" y="361.55" height="22.33"/>
          <path class="st16" d="M279.7,362.25h.22c0-2.88-.05-5.21-.11-5.21s-.11,2.33-.11,5.21h0Z"/>
        </g>
        <g>
          <rect class="st38" x="271.47" y="362.39" height="22.33"/>
          <path class="st16" d="M269.27,363.32l.22-.04c-.58-2.82-1.09-5.09-1.15-5.08s.36,2.31.94,5.13h-.01Z"/>
        </g>
        <polygon class="st30" points="280.95 377.57 280.05 377.49 281.79 358.64 282.41 356.86 282.69 358.72 280.95 377.57"/>
        <polygon class="st67" points="280.41 375.69 279.51 375.62 280.8 356.74 281.38 354.95 281.7 356.8 280.41 375.69"/>
        <polygon class="st8" points="281.96 386.04 270.72 386.04 269.13 368.33 283.55 368.33 281.96 386.04"/>
      </g>
      <g>
        <path class="st60" d="M288.16,327.23c2.09-.84,3.1-3.21,2.26-5.3l-7.57,3.04c.84,2.09,3.21,3.1,5.3,2.26h.01Z"/>
        <path class="st6" d="M282.81,310.12l-1.75-4.35-3.25,1.3,1.75,4.35c-6.95,3.69-10.21,11.88-7.33,19.07l29.06-11.67c-2.89-7.19-10.91-10.84-18.48-8.7h0Z"/>
        <g>
          <path class="st28" d="M282.34,303.62c-.33-.57-1.02-.79-1.56-.49l-40.87,23.85c-.35-1-1.37-1.59-2.36-1.33-1.03.28-1.63,1.36-1.36,2.44l.23.93-7.4,4.32,1.91,3.32,6.41-3.95,13.11,52.85,5.96-1.6-15.46-53.47,41.04-25.28c.53-.31.69-1.02.36-1.59h0Z"/>
          <circle class="st70" cx="238.58" cy="329.76" r=".74"/>
        </g>
        <path class="st6" d="M248.66,382.32h24.05c2.75,0,4.99,2.24,4.99,4.99h-31.33v-2.7c0-1.27,1.03-2.29,2.29-2.29h0Z"/>
      </g>
      <g>
        <rect class="st23" x="196.45" y="255.04" width="131.99" height="8.87"/>
        <polygon class="st26" points="314.15 268.34 211.2 268.34 196.45 263.91 328.44 263.91 314.15 268.34"/>
      </g>
      <g>
        <line class="st21" x1="765.47" y1="14.67" x2="765.47" y2="110.75"/>
        <path class="st12" d="M765.47,105.03c-16.3,0-29.52,13.22-29.52,29.52h59.03c0-16.3-13.22-29.52-29.52-29.52h.01Z"/>
      </g>
      <g>
        <line class="st21" x1="129.8" y1="14.67" x2="129.8" y2="110.75"/>
        <path class="st12" d="M129.8,105.03c-16.3,0-29.52,13.22-29.52,29.52h59.03c0-16.3-13.22-29.52-29.52-29.52h.01Z"/>
      </g>
    </g>
    <g id="ombreOggetti">
      <path class="st52" d="M281.7,303.07l-40.88,24.45s-2.42-1.13-2.98,0-6.02,4.89-5.61,5.73,6.34-1.33,6.34-1.33l13.83,50.39,16.5.51s-12.17,3.02-11.95,3.75-10.59.72-10.59.72c0,0-1.31-2.57,0-3.66s2.64-1.32,2.64-1.32l-11.56-49.13-6.53,3.48-1.91-3.32,6.77-4.14s.77-3.57,1.77-3.55,2.24,1.06,2.24,1.06l41.92-23.63h0Z"/>
      <path class="st45" d="M282.51,326.37s-7.86.15-6.17-4.44,5.36-9.62,5.36-9.62l-2.19-5.59-1.51.93,1.51,3.66s-3.14,1.15-5.17,4.54-3.46,6.96-3.15,9.47,1.05,5.17,1.05,5.17l10.27-4.13h0Z"/>
      <path class="st46" d="M273.72,381.96s2.38.14,3.58,2.53c.61,1.23.75,1.65,1.02,2.08h3.66s-8.7-8.44-7.44-12.34c1.26-3.89,9.45-6.36,9.45-6.36h-15.34l1.19,14.07h3.9l-.02.02Z"/>
      <path class="st37" d="M225.33,207.17s-9.98,1.4-12.58,2.59-.69,45.28-.69,45.28l-4.86-.55v-47.59s5.64-1.1,9.43-.91,8.7,1.17,8.7,1.17h0Z"/>
      <path class="st37" d="M244.91,206.9s-5.43-1.36-9.43-.91-10.15,1.17-10.15,1.17l.72,47.33h3.56s-2.18-41.8.87-44.11,14.42-3.49,14.42-3.49h0Z"/>
      <polygon class="st37" points="247.35 238.26 294.36 238.26 293.95 240.48 247.28 240.48 247.35 238.26"/>
      <polygon class="st37" points="247.28 246.38 294.68 246.38 293.95 249.04 247.28 249.04 247.28 246.38"/>
      <polygon class="st37" points="246.69 253.04 294.68 253.04 294.36 255.04 246.69 254.5 246.69 253.04"/>
      <path class="st50" d="M196.45,263.91s118.76,1.22,124.85-4.43c4.87-4.52-21.02-4.43-20.02-4.43h27.15v8.87l-14.94,4.91-102.29-.48-14.75-4.43h0Z"/>
      <path class="st55" d="M301.28,234.18l13.93,2.3s6.97,1.78,6.09,9.2c-.53,4.51-7.4,8.97-8.71,9.37s9.5,0,9.5,0c0,0,3.6-4.02,3.6-7.33v-13.54h-24.42.01Z"/>
      <polygon class="st48" points="308.24 185.93 308.24 233.87 323.92 233.43 321.31 199.67 321.31 232.92 320.32 231.97 317.83 188.26 317.7 232.46 316.08 232.48 313.6 179.49 313.6 232.83 310.74 232.83 308.24 185.93"/>
      <path class="st17" d="M761.23,105.34s8.79.48,16.88,9.6c9.7,10.92,5.62,19.29,5.62,19.29l11.26.33s-1.7-13.76-6.53-18.52-10.63-8.72-13.93-9.58-13.29-1.12-13.29-1.12h-.01Z"/>
      <path class="st17" d="M125.57,105.34s8.79.48,16.88,9.6c9.7,10.92,5.62,19.29,5.62,19.29l11.26.33s-1.7-13.76-6.53-18.52-10.63-8.72-13.93-9.58-13.29-1.12-13.29-1.12h0Z"/>
    </g>
    <g id="Sedie_gropu">
      <g id="sedie">
        <path class="st13" d="M379.64,430.68c.64-.45,2.72-8.18,14.25-9.51,9.31-1.08,30.48,0,30.48,0l-1.15,3.26"/>
        <g>
          <circle class="st5" cx="435.56" cy="499.65" r="3.18"/>
          <path class="st11" d="M419.92,482.18s7.18,3.73,10.14,8.07,3.12,8.17,3.12,8.17h4.77s0-4.75-3.58-10.64-4.44-7.81-4.44-7.81l-10.02,2.22h0Z"/>
          <circle class="st5" cx="385.96" cy="499.65" r="3.18"/>
          <circle class="st5" cx="467.63" cy="499.65" r="3.18"/>
          <path class="st2" d="M419.18,442.63v12.68c0,1.4,1.05,2.53,2.4,2.69v14.83h8.38v-14.83c1.35-.16,2.4-1.3,2.4-2.69v-12.68h-13.19.01Z"/>
          <path class="st15" d="M437.4,478.46c-7.4-3.23-15.82-3.18-23.17.15l-27.47,12.61c-2.67,1.23-4.39,3.9-4.39,6.84v.35h6.91c0-3.1,1.97-5.85,4.9-6.84l22.03-7.46c6.07-2.09,12.66-2.1,18.74-.05l24.44,7.63c2.94.92,4.94,3.64,4.94,6.72h6.91v-.25c0-2.99-1.77-5.7-4.52-6.9l-29.32-12.8h0Z"/>
          <path class="st1" d="M422.33,472.34h6.84c2.74,0,4.96,2.22,4.96,4.96v6.77h-16.77v-6.77c0-2.74,2.22-4.96,4.96-4.96h.01Z"/>
        </g>
        <path class="st14" d="M425.62,445.01l35.69-2.67c2.69-.08,4.99-1.93,5.64-4.54l4.18-28.95c1.02-7.09,2.65-14.09,4.87-20.9l13.22-40.63c.49-1.52-.52-3.11-2.1-3.3l-9.59-1.21c-10.84-1.37-21.84-.8-32.49,1.66l-1.95.45-17.48,100.1h.01Z"/>
        <path class="st18" d="M425.62,445.01l-2.4-20.59s2.35-5.49,5.49-20.14c2.74-12.79,3.29-42.75,3.03-49.81-.04-.99.44-1.92,1.25-2.49l10.1-7.07"/>
        <path class="st18" d="M425.57,445.01l-45.85-4.54c-.7-.07-1.23-.66-1.23-1.36v-3.13c0-7.3,6.08-13.14,13.38-12.84l31.34,1.28,2.35,20.59h.01Z"/>
        <path class="st9" d="M405.59,437.1h0c-1.4.34-2.8-.6-3.12-2.09l-4.86-22.82,5.08-1.23,4.86,22.82c.32,1.49-.56,2.98-1.96,3.32Z"/>
        <path class="st7" d="M426.12,416.3c-10.78-1.47-21.93-1.5-32.85-.06-1.47.2-2.61-.77-2.54-2.21.04-.74.07-1.48.11-2.22.07-1.43,1.32-2.66,2.77-2.69,10.87-.28,21.96.92,32.68,3.56,1.44.36,2.58,1.21,2.55,1.84-.02.33-.03.66-.05,1-.03.63-1.23.96-2.68.78h.01Z"/>
      </g>
      <g id="ombre_sedie">
        <path class="st53" d="M437.96,348.51s-2.96,44.54-5.58,54.31-9.16,21.6-9.16,21.6c0,0-8.35,3.29-14.35,3.73s-18.67.81-22,2.52-8.37,9.67-8.37,9.67l47.12,4.66,17.48-100.1-5.14,3.59v.02Z"/>
        <path class="st54" d="M443.09,344.92s17.6,18.8,14.39,39.54c-7.29,47.1-30.59,53.28-30.59,53.28l-1.27,7.27-4.31-.41s4.76,4.44,5.49,9.56,0,18.18,0,18.18l-5.21.49s5.82.24,7.35,4.21,0,7.03,0,7.03c0,0,2.06.35,4.22,5.11s3.71,9.07,3.49,10.47-1.08,3.18-1.08,3.18c0,0,4.04-1.02,3.18-3.18s-1.19-4.16-1.19-4.16c0,0-.37-2.69-1.99-5.58s-3.37-5.83-3.37-5.83h1.94l-.98-8s1.62-1.87-.78-2.55-3.21-1.18-3.21-1.18l.8-14.33s2.4-1.09,2.4-2.69v-10.3l27.83-2.59s3.29.22,5.53-2.24,1.6-5.04,1.6-5.04c0,0,4.46-32.8,6.57-40,2.11-7.2,15.33-47.83,15.33-47.83,0,0-.24-3.07-2.1-3.3s-21.41-2.68-29.64-1.55-14.39,2.45-14.39,2.45h0Z"/>
        <path class="st44" d="M416.42,479.96s-25.53,10.42-27.65,12.65-2.8,5.81-2.8,5.81c0,0,1.32,2.63,0,3.53s-2.21,0-2.21,0c0,0,2.76,1.7,3.92.4s1.1-4.17,1.1-4.17c0,0,.13-4.33,3.79-5.81s23.65-8.25,23.65-8.25l.21-4.15h-.01Z"/>
        <path class="st44" d="M434.13,479.96s23.18,9.31,25.84,10.42,5.23,2.48,6.44,4.28,1.21,3.75,1.21,3.75c0,0-1.23,2.18,0,3.3s0,1.12,0,1.12c0,0-3.07.85-3.18-1.79s0-4.58,0-4.58c0,0-.55-2.77-6.96-5.07s-23.35-7.32-23.35-7.32v-4.12h0Z"/>
      </g>
    </g>
    <g id="cassettiera">
      <g>
        <path class="st19" d="M206.02,546.28c-3.06,0-5.55-3.13-5.55-7s2.48-7,5.55-7h4.22v14h-4.22Z"/>
        <ellipse class="st9" cx="210.24" cy="539.28" rx="4.05" ry="7"/>
      </g>
      <g>
        <path class="st19" d="M287.49,546.96c2.24,0,4.05-3.13,4.05-7s-1.81-7-4.05-7h-3.08v14h3.08Z"/>
        <ellipse class="st10" cx="283.83" cy="539.96" rx="1.57" ry="7"/>
      </g>
      <rect class="st23" x="196.23" y="454.04" width="100" height="82.89"/>
      <polygon class="st25" points="296.23 454.04 196.23 454.04 236.23 436.87 308.23 436.87 296.23 454.04"/>
      <polygon class="st28" points="296.23 454.04 308.23 436.87 308.23 512.71 296.23 536.93 296.23 454.04"/>
      <rect class="st8" x="202.87" y="509.12" width="86.22" height="19.84"/>
      <rect class="st8" x="202.87" y="486.6" width="86.22" height="19.84"/>
      <rect class="st8" x="202.87" y="463.85" width="86.22" height="19.84"/>
      <rect class="st30" x="235.04" y="472.88" width="20" height="1.78"/>
      <rect class="st30" x="235.04" y="495.63" width="20" height="1.78"/>
      <rect class="st30" x="235.04" y="518.38" width="20" height="1.78"/>
    </g>
    <g id="ombre_cassettiera">
      <path class="st49" d="M269.97,436.87s13.49,1.41,13.86,8.59-6.93,8.59-6.93,8.59h19.33l12-17.17h-38.26,0Z"/>
      <path class="st40" d="M246.23,454.04l8.26,9.81s15.05,4.17,18.05,10.81,1.87,9.03,1.87,9.03h-13.86v2.59s15.59,5.87,16.46,13.01,0,6.67,0,6.67l-23.83.48,1.87,2.68h14.94s5.63,3.34,10.43,9.26,8.69,10.58,8.69,10.58h-23.89l4.77,7.97h15.27s.88-2.7,2.73,3.03-.49,7-.49,7l2.33-1.27,1.72-5.73-.27-2.49,4.96-.54v-82.89h-50.01Z"/>
    </g>
    <g id="pcportatile">
      <g>
        <g>
          <path class="st58" d="M390.58,383.52h-71.4c-.42,0-.8-.27-.95-.67l-15.24-43.92c-.24-.66.25-1.36.95-1.36h71.4c.42,0,.8.27.95.67l15.24,43.92c.24.66-.25,1.36-.95,1.36h0Z"/>
          <path class="st59" d="M393.84,383.71l-16.81-46.53c-.12-.33-.42-.54-.76-.54h-74.17c-.56,0-.95.57-.76,1.11l16.81,46.53c.12.33.42.54.76.54h74.17c.56,0,.95-.57.76-1.11h0ZM390.29,382.83h-70.44c-.32,0-.61-.21-.72-.52l-15.2-42.68c-.18-.51.19-1.05.72-1.05h70.44c.32,0,.61.21.72.52l15.2,42.68c.18.51-.19,1.05-.72,1.05Z"/>
        </g>
        <polygon class="st67" points="343.13 381.62 320.67 381.62 305.67 339.8 328.13 339.8 343.13 381.62"/>
        <path class="st67" d="M388.36,381.62h-43.43l-15-41.81h43.94c.3,0,.56.19.66.46l14.5,40.41c.16.46-.17.94-.66.94h-.01Z"/>
        <polygon class="st62" points="307.28 340.8 313.64 358.53 333.48 358.3 327.22 340.8 307.28 340.8"/>
        <polygon class="st62" points="331.67 340.8 345.86 380.32 387.17 380.52 373.25 340.8 331.67 340.8"/>
      </g>
      <g>
        <path class="st59" d="M341.8,385.3h66.17v.18c0,1.32-1.07,2.38-2.38,2.38h-63.79v-2.56h0Z"/>
        <path class="st69" d="M341.68,387.82l-22.13-.88c-.78-.03-1.4-.68-1.4-1.46v-1.22l26.11,1.04v.04c0,1.41-1.17,2.53-2.58,2.48h0Z"/>
        <polygon class="st61" points="318.15 384.26 394.49 384.26 407.97 385.48 344.26 385.34 318.15 384.26"/>
      </g>
      <path class="st54" d="M301.39,336.63s73.42-.54,74.17,0,1.71,3.17,1.71,3.17l15.86,43.9s-8.45-17.7-29.59-26.84c-33.5-14.5-62.16-20.23-62.16-20.23h.01Z"/>
    </g>
  </g>
</svg>