<?xml version="1.0" encoding="UTF-8"?>
<svg id="Layer_1" xmlns="http://www.w3.org/2000/svg" version="1.1" viewBox="0 0 672 621.26">
  <!-- Generator: Adobe Illustrator 29.6.1, SVG Export Plug-In . SVG Version: 2.1.1 Build 9)  -->
  <defs>
    <style>
      .st0 {
        fill: #b5b9be;
      }

      .st0, .st1, .st2, .st3, .st4, .st5, .st6, .st7, .st8, .st9, .st10, .st11, .st12, .st13, .st14, .st15, .st16, .st17, .st18, .st19, .st20 {
        stroke-miterlimit: 10;
      }

      .st0, .st1, .st4, .st21, .st22, .st6, .st23, .st7, .st24, .st25, .st26, .st10, .st27, .st28, .st12, .st13, .st14, .st17 {
        stroke: #788088;
      }

      .st1, .st24 {
        fill: #f7f8f8;
      }

      .st29, .st2, .st30, .st8, .st9 {
        fill: #656c73;
      }

      .st2 {
        stroke-width: 1.42px;
      }

      .st2, .st15 {
        stroke: #53595e;
      }

      .st31 {
        stroke: #9d9d9c;
      }

      .st31, .st21, .st22, .st32, .st23, .st30, .st24, .st25, .st26, .st33, .st27, .st28, .st34 {
        stroke-linecap: round;
        stroke-linejoin: round;
      }

      .st31, .st30, .st34 {
        stroke-width: .15px;
      }

      .st31, .st35 {
        fill: #d4d4d6;
      }

      .st36 {
        stroke-miterlimit: 10;
        stroke-width: .75px;
      }

      .st36, .st3 {
        fill: #dadbdc;
      }

      .st36, .st3, .st18 {
        stroke: #61615f;
      }

      .st3, .st5, .st11 {
        stroke-width: .75px;
      }

      .st37 {
        fill: #edeff0;
      }

      .st4 {
        stroke-width: .71px;
      }

      .st4, .st5, .st38, .st6, .st11, .st28 {
        fill: #788088;
      }

      .st39 {
        fill: #cccfd2;
        opacity: .26;
      }

      .st39, .st40, .st41, .st42, .st43, .st35, .st44, .st45, .st46, .st47, .st48, .st49, .st50, .st16 {
        isolation: isolate;
      }

      .st39, .st41, .st42, .st43, .st35, .st44, .st45, .st46, .st47, .st48, .st49, .st50, .st16 {
        mix-blend-mode: multiply;
      }

      .st51, .st41, .st42, .st43, .st16 {
        fill: #b8b8b7;
      }

      .st21, .st18, .st52 {
        fill: #d5d8db;
      }

      .st53 {
        fill: #dee0e2;
      }

      .st22, .st47, .st48, .st49, .st34 {
        fill: #e4e5e7;
      }

      .st32 {
        stroke: #8c939a;
      }

      .st32, .st25 {
        fill: #8c939a;
      }

      .st32, .st33, .st28 {
        stroke-width: .88px;
      }

      .st5, .st34 {
        stroke: #e4e5e7;
      }

      .st23 {
        fill: #f4f5f6;
        stroke-width: .19px;
      }

      .st54 {
        fill: #888c90;
      }

      .st7 {
        stroke-width: .64px;
      }

      .st7, .st55, .st44, .st45, .st46, .st50 {
        fill: #c3c6ca;
      }

      .st30, .st8, .st9 {
        stroke: #656c73;
      }

      .st56 {
        fill: #979da3;
      }

      .st41, .st46, .st49, .st16 {
        opacity: .37;
      }

      .st42 {
        opacity: .42;
      }

      .st43 {
        opacity: .27;
      }

      .st25, .st20 {
        stroke-width: .83px;
      }

      .st57 {
        fill: #61615f;
      }

      .st26 {
        fill: #c5c9cd;
        stroke-width: .17px;
      }

      .st9 {
        stroke-width: .62px;
      }

      .st10 {
        stroke-width: 1.11px;
      }

      .st10, .st14 {
        fill: #a2a8ae;
      }

      .st44 {
        opacity: .46;
      }

      .st45 {
        opacity: .36;
      }

      .st33 {
        fill: #abb0b5;
      }

      .st33, .st19, .st20 {
        stroke: #a2a8ae;
      }

      .st27, .st13 {
        fill: #b0b5ba;
      }

      .st47 {
        opacity: .57;
      }

      .st48 {
        opacity: .52;
      }

      .st11 {
        stroke: #d5d8db;
      }

      .st12 {
        fill: #f9fafa;
      }

      .st58 {
        fill: #ededed;
      }

      .st15, .st19, .st20 {
        fill: none;
      }

      .st16 {
        stroke: #c3c6ca;
      }

      .st17 {
        fill: #f5f6f6;
      }

      .st18 {
        stroke-width: .81px;
      }

      .st19 {
        stroke-width: .25px;
      }
    </style>
  </defs>
  <g class="st40">
    <g id="scaffale_1_sotto">
      <rect class="st22" x="111.15" y="188.46" width="73.07" height="311.63"/>
      <polygon class="st27" points="192.3 491.25 184.22 500.09 184.22 188.46 192.3 200.31 192.3 491.25"/>
    </g>
    <g id="scaffale_1">
      <rect class="st14" x="118.9" y="195.64" width="58.22" height="25.78" rx=".14" ry=".14"/>
      <g>
        <path class="st7" d="M119.04,228.5h14.41v42.56h-14.41c-.08,0-.14-.06-.14-.14v-42.28c0-.08.06-.14.14-.14h0Z"/>
        <rect class="st7" x="133.46" y="228.5" width="14.56" height="42.56"/>
        <rect class="st7" x="148.01" y="228.5" width="14.56" height="42.56"/>
        <path class="st7" d="M162.57,228.5h14.41c.08,0,.14.06.14.14v42.28c0,.08-.06.14-.14.14h-14.41v-42.56h0Z"/>
        <rect class="st29" x="122.24" y="232.99" width="3.94" height="32.48" rx=".14" ry=".14"/>
        <rect class="st29" x="136.79" y="232.99" width="3.94" height="32.48" rx=".14" ry=".14"/>
        <rect class="st29" x="151.35" y="232.99" width="3.94" height="32.48" rx=".14" ry=".14"/>
        <rect class="st29" x="166.72" y="232.99" width="3.94" height="32.48" rx=".14" ry=".14"/>
      </g>
      <g>
        <path class="st7" d="M119.5,278.63h9.56v42.56h-9.56c-.08,0-.14-.06-.14-.14v-42.28c0-.08.06-.14.14-.14h0Z"/>
        <rect class="st7" x="129.06" y="278.63" width="9.7" height="42.56"/>
        <rect class="st7" x="138.76" y="278.63" width="9.7" height="42.56"/>
        <rect class="st7" x="148.47" y="278.63" width="9.7" height="42.56"/>
        <rect class="st7" x="158.17" y="278.63" width="9.7" height="42.56"/>
        <path class="st7" d="M167.87,278.63h9.56c.08,0,.14.06.14.14v42.28c0,.08-.06.14-.14.14h-9.56v-42.56h0Z"/>
        <path class="st29" d="M122.76,308.86h2.93v10.06h-3.07v-9.91c0-.08.06-.14.14-.14h0Z"/>
        <path class="st29" d="M133.6,308.86h2.93v10.06h-3.07v-9.91c0-.08.06-.14.14-.14h0Z"/>
        <path class="st29" d="M143.04,308.86h2.93v10.06h-3.07v-9.91c0-.08.06-.14.14-.14h0Z"/>
        <path class="st29" d="M152.36,308.86h2.93v10.06h-3.07v-9.91c0-.08.06-.14.14-.14h0Z"/>
        <path class="st29" d="M162.03,308.86h2.93v10.06h-3.07v-9.91c0-.08.06-.14.14-.14h0Z"/>
        <path class="st29" d="M171.33,308.86h2.93v10.06h-3.07v-9.91c0-.08.06-.14.14-.14h0Z"/>
      </g>
      <g>
        <path class="st7" d="M119.5,329.02h9.56v42.56h-9.56c-.08,0-.14-.06-.14-.14v-42.28c0-.08.06-.14.14-.14h0Z"/>
        <rect class="st7" x="129.06" y="329.02" width="9.7" height="42.56"/>
        <rect class="st7" x="138.76" y="329.02" width="9.7" height="42.56"/>
        <rect class="st7" x="148.47" y="329.02" width="9.7" height="42.56"/>
        <rect class="st7" x="158.17" y="329.02" width="9.7" height="42.56"/>
        <path class="st7" d="M167.87,329.02h9.56c.08,0,.14.06.14.14v42.28c0,.08-.06.14-.14.14h-9.56v-42.56h0Z"/>
        <path class="st29" d="M122.76,359.25h2.93v10.06h-3.07v-9.91c0-.08.06-.14.14-.14h0Z"/>
        <path class="st29" d="M133.6,359.25h2.93v10.06h-3.07v-9.91c0-.08.06-.14.14-.14h0Z"/>
        <path class="st29" d="M143.04,359.25h2.93v10.06h-3.07v-9.91c0-.08.06-.14.14-.14h0Z"/>
        <path class="st29" d="M152.36,359.25h2.93v10.06h-3.07v-9.91c0-.08.06-.14.14-.14h0Z"/>
        <path class="st29" d="M162.03,359.25h2.93v10.06h-3.07v-9.91c0-.08.06-.14.14-.14h0Z"/>
        <path class="st29" d="M171.33,359.25h2.93v10.06h-3.07v-9.91c0-.08.06-.14.14-.14h0Z"/>
      </g>
      <g>
        <rect class="st29" x="125.4" y="199.64" width="44.13" height="21.28"/>
        <rect class="st54" x="124.55" y="197.91" width="46.28" height="5.26"/>
        <rect class="st58" x="138.25" y="206.96" width="17.22" height="4.66"/>
      </g>
      <g>
        <rect class="st2" x="118.9" y="379.4" width="58.22" height="52.14"/>
        <path class="st55" d="M157.37,381.49l-1.28,3.66c-.35.99-1.28,1.65-2.32,1.65h-11.41c-1.04,0-1.98-.66-2.32-1.65l-1.28-3.66h-18.2v49.25h55.03v-49.25h-18.22Z"/>
      </g>
      <g>
        <rect class="st2" x="118.9" y="440.6" width="58.22" height="52.14"/>
        <path class="st55" d="M157.37,442.66l-1.28,3.66c-.35.99-1.28,1.65-2.32,1.65h-11.41c-1.04,0-1.98-.66-2.32-1.65l-1.28-3.66h-18.2v49.25h55.03v-49.25h-18.22Z"/>
      </g>
    </g>
    <g id="ombrescaffale">
      <rect class="st45" x="119.18" y="228.5" width="2.72" height="42.56"/>
      <rect class="st45" x="133.63" y="228.5" width="2.72" height="42.56"/>
      <rect class="st45" x="148.47" y="228.5" width="2.72" height="42.56"/>
      <rect class="st45" x="162.06" y="228.5" width="2.72" height="42.56"/>
      <polygon class="st45" points="118.9 195.78 124.55 197.91 146.86 203.17 148.06 221.41 118.15 221.41 118.9 195.78"/>
      <polygon class="st45" points="119.36 278.78 119.43 321.2 120.99 321.2 120.8 278.63 119.36 278.78"/>
      <polygon class="st45" points="129.05 278.78 129.12 321.2 130.67 321.2 130.49 278.63 129.05 278.78"/>
      <polygon class="st45" points="139.11 278.78 139.18 321.2 140.74 321.2 140.55 278.63 139.11 278.78"/>
      <polygon class="st45" points="149.01 278.78 149.08 321.2 150.64 321.2 150.45 278.63 149.01 278.78"/>
      <polygon class="st45" points="158.17 278.78 158.24 321.2 159.8 321.2 159.61 278.63 158.17 278.78"/>
      <polygon class="st45" points="167.87 278.93 167.95 321.35 169.5 321.35 169.31 278.79 167.87 278.93"/>
      <polygon class="st45" points="119.36 329.08 119.43 371.51 120.99 371.51 120.8 328.94 119.36 329.08"/>
      <polygon class="st45" points="129.05 329.08 129.12 371.51 130.68 371.51 130.49 328.94 129.05 329.08"/>
      <polygon class="st45" points="139.11 329.08 139.18 371.51 140.74 371.51 140.55 328.94 139.11 329.08"/>
      <polygon class="st45" points="149.02 329.08 149.09 371.51 150.64 371.51 150.46 328.94 149.02 329.08"/>
      <polygon class="st45" points="158.17 329.08 158.24 371.51 159.8 371.51 159.61 328.94 158.17 329.08"/>
      <polygon class="st45" points="167.88 329.24 167.95 371.66 169.51 371.66 169.32 329.09 167.88 329.24"/>
      <polygon class="st45" points="118.9 379.4 120.54 381.49 136.79 381.49 152.22 431.54 130.67 431.54 118.9 432.4 118.9 379.4"/>
      <polygon class="st45" points="118.9 440.6 120.54 442.66 138.75 442.66 155.29 491.92 118.9 492.74 118.9 440.6"/>
      <polygon class="st45" points="118.15 188.46 119.18 500.09 111.15 500.09 111.15 188.46 118.15 188.46"/>
    </g>
    <g id="scrivania">
      <polyline class="st27" points="517.28 500.09 514.35 491.92 514.35 396.64 517.28 391.31"/>
      <polyline class="st27" points="238.98 500.09 241.91 491.92 241.91 396.64 238.98 391.31"/>
      <g>
        <rect class="st21" x="230.56" y="388.31" width="295.27" height="8.33"/>
        <polyline class="st24" points="230.56 388.31 241.27 386.22 517.13 386.22 525.83 388.31"/>
      </g>
      <rect class="st21" x="230.56" y="396.64" width="8.07" height="103.69"/>
      <rect class="st21" x="517.76" y="396.64" width="8.07" height="103.69"/>
    </g>
    <g id="oggetti">
      <g>
        <polygon class="st34" points="502.59 199.59 499.98 234.18 505.21 234.18 502.59 199.59"/>
        <polygon class="st30" points="507.82 199.59 505.21 234.18 510.44 234.18 507.82 199.59"/>
        <polygon class="st30" points="513.06 199.59 510.44 234.18 515.67 234.18 513.06 199.59"/>
        <polygon class="st31" points="519.15 199.67 516.53 234.26 521.76 234.26 519.15 199.67"/>
        <polygon class="st26" points="515.67 188.26 513.06 234.18 518.29 234.18 515.67 188.26"/>
        <polygon class="st23" points="511.44 179.49 508.82 234.84 514.06 234.84 511.44 179.49"/>
        <polygon class="st26" points="506.08 185.93 503.46 234.85 508.7 234.85 506.08 185.93"/>
      </g>
      <path class="st28" d="M499.13,234.18h24.42v12.21c0,6.74-5.47,12.21-12.21,12.21h0c-6.74,0-12.21-5.47-12.21-12.21v-12.21h0Z"/>
      <g>
        <polygon class="st32" points="448.63 256.5 448.63 209.16 442.75 206.9 442.75 257.04 448.63 256.5"/>
        <path class="st7" d="M442.75,256.5h-18.86v-49.59s4.46-.91,9.43-.91c4.26,0,9.43.91,9.43.91v49.59Z"/>
        <path class="st33" d="M423.9,256.5h-18.86v-49.59s4.46-.91,9.43-.91c4.26,0,9.43.91,9.43.91v49.59Z"/>
      </g>
      <path class="st7" d="M491.79,257.04h-46.67s-.59-1.71-.59-4c0-2.6.59-4,.59-4h46.67s.74,1.91.74,4c0,1.84-.74,4-.74,4Z"/>
      <path class="st7" d="M491.79,248.76h-46.67s-.59-1.71-.59-4c0-2.6.59-4,.59-4h46.67s.74,1.91.74,4c0,1.84-.74,4-.74,4Z"/>
      <path class="st7" d="M491.79,240.48h-46.67s-.59-1.71-.59-4c0-2.6.59-4,.59-4h46.67s.74,1.91.74,4c0,1.84-.74,4-.74,4Z"/>
      <g>
        <g>
          <rect class="st52" x="297.88" y="357.37" width="3.96" height="22.8" transform="translate(-17.53 14.98) rotate(-2.78)"/>
          <line class="st19" x1="299.92" y1="358.66" x2="301.36" y2="358.59"/>
          <line class="st19" x1="299.96" y1="359.4" x2="301.4" y2="359.33"/>
          <line class="st19" x1="299.99" y1="360.14" x2="301.43" y2="360.07"/>
          <line class="st19" x1="300.03" y1="360.88" x2="301.47" y2="360.81"/>
          <line class="st19" x1="300.06" y1="361.63" x2="301.51" y2="361.56"/>
          <line class="st19" x1="300.1" y1="362.37" x2="301.54" y2="362.3"/>
          <line class="st19" x1="300.14" y1="363.11" x2="301.58" y2="363.04"/>
          <line class="st19" x1="300.17" y1="363.85" x2="301.61" y2="363.78"/>
          <line class="st19" x1="300.21" y1="364.6" x2="301.65" y2="364.53"/>
          <line class="st19" x1="300.24" y1="365.34" x2="301.69" y2="365.27"/>
          <line class="st19" x1="300.28" y1="366.08" x2="301.72" y2="366.01"/>
          <line class="st19" x1="300.32" y1="366.82" x2="301.76" y2="366.75"/>
          <line class="st19" x1="300.35" y1="367.57" x2="301.79" y2="367.5"/>
          <line class="st19" x1="300.39" y1="368.31" x2="301.83" y2="368.24"/>
          <line class="st19" x1="300.42" y1="369.05" x2="301.87" y2="368.98"/>
          <line class="st19" x1="300.46" y1="369.79" x2="301.9" y2="369.72"/>
          <line class="st19" x1="300.5" y1="370.54" x2="301.94" y2="370.47"/>
          <line class="st19" x1="300.53" y1="371.28" x2="301.97" y2="371.21"/>
          <line class="st19" x1="300.57" y1="372.02" x2="302.01" y2="371.95"/>
          <line class="st19" x1="300.6" y1="372.76" x2="302.05" y2="372.69"/>
          <line class="st19" x1="300.64" y1="373.5" x2="302.08" y2="373.43"/>
          <line class="st19" x1="300.68" y1="374.25" x2="302.12" y2="374.18"/>
          <line class="st19" x1="300.71" y1="374.99" x2="302.15" y2="374.92"/>
          <line class="st19" x1="300.75" y1="375.73" x2="302.19" y2="375.66"/>
          <line class="st19" x1="300.78" y1="376.47" x2="302.23" y2="376.4"/>
          <line class="st19" x1="300.82" y1="377.22" x2="302.26" y2="377.15"/>
          <line class="st19" x1="300.86" y1="377.96" x2="302.3" y2="377.89"/>
          <line class="st19" x1="300.89" y1="378.7" x2="302.33" y2="378.63"/>
        </g>
        <g>
          <rect class="st3" x="305.97" y="361.55" height="22.33"/>
          <path class="st15" d="M305.86,362.25h.22c0-2.88-.05-5.21-.11-5.21s-.11,2.33-.11,5.21h0Z"/>
        </g>
        <g>
          <rect class="st36" x="297.64" y="362.39" height="22.33"/>
          <path class="st15" d="M295.43,363.32l.22-.04c-.58-2.82-1.09-5.09-1.15-5.08s.36,2.31.94,5.13h-.01Z"/>
        </g>
        <polygon class="st29" points="307.1 377.57 306.21 377.49 307.95 358.64 308.57 356.86 308.85 358.72 307.1 377.57"/>
        <polygon class="st55" points="306.57 375.69 305.67 375.62 306.96 356.74 307.54 354.95 307.86 356.8 306.57 375.69"/>
        <polygon class="st7" points="308.12 386.04 296.87 386.04 295.29 368.33 309.71 368.33 308.12 386.04"/>
      </g>
      <g>
        <path class="st51" d="M314.32,327.23c2.09-.84,3.1-3.21,2.26-5.3l-7.57,3.04c.84,2.09,3.21,3.1,5.3,2.26h.01Z"/>
        <path class="st5" d="M308.96,310.12l-1.75-4.35-3.25,1.3,1.75,4.35c-6.95,3.69-10.21,11.88-7.33,19.07l29.06-11.67c-2.89-7.19-10.91-10.84-18.48-8.7h0Z"/>
        <g>
          <path class="st27" d="M308.49,303.62c-.33-.57-1.02-.79-1.56-.49l-40.87,23.85c-.35-1-1.37-1.59-2.36-1.33-1.03.28-1.63,1.36-1.36,2.44l.23.93-7.4,4.32,1.91,3.32,6.41-3.95,13.11,52.85,5.96-1.6-15.46-53.47,41.04-25.28c.53-.31.69-1.02.36-1.59h-.01Z"/>
          <circle class="st57" cx="264.73" cy="329.76" r=".74"/>
        </g>
        <path class="st5" d="M274.81,382.32h24.05c2.75,0,4.99,2.24,4.99,4.99h-31.33v-2.7c0-1.27,1.03-2.29,2.29-2.29h0Z"/>
      </g>
      <g>
        <rect class="st22" x="394.29" y="255.04" width="131.99" height="8.87"/>
        <polygon class="st25" points="512 268.34 409.05 268.34 394.29 263.91 526.28 263.91 512 268.34"/>
      </g>
      <g>
        <line class="st20" x1="442.57" y1="4.67" x2="442.57" y2="100.75"/>
        <path class="st11" d="M442.57,95.03c-16.3,0-29.52,13.22-29.52,29.52h59.03c0-16.3-13.22-29.52-29.52-29.52h.01Z"/>
      </g>
      <g>
        <line class="st20" x1="252.21" y1="4.67" x2="252.21" y2="100.75"/>
        <path class="st11" d="M252.21,95.03c-16.3,0-29.52,13.22-29.52,29.52h59.03c0-16.3-13.22-29.52-29.52-29.52h0Z"/>
      </g>
    </g>
    <g id="ombreOggetti">
      <path class="st47" d="M307.86,303.07l-40.88,24.45s-2.42-1.13-2.98,0-6.02,4.89-5.61,5.73,6.34-1.33,6.34-1.33l13.83,50.39,16.5.51s-12.17,3.02-11.95,3.75-10.59.72-10.59.72c0,0-1.31-2.57,0-3.66s2.64-1.32,2.64-1.32l-11.56-49.13-6.53,3.48-1.91-3.32,6.77-4.14s.77-3.57,1.77-3.55,2.24,1.06,2.24,1.06l41.92-23.63h0Z"/>
      <path class="st42" d="M308.66,326.37s-7.86.15-6.17-4.44,5.36-9.62,5.36-9.62l-2.19-5.59-1.51.93,1.51,3.66s-3.14,1.15-5.17,4.54-3.46,6.96-3.15,9.47,1.05,5.17,1.05,5.17l10.27-4.13h0Z"/>
      <path class="st43" d="M299.87,381.96s2.38.14,3.58,2.53c.61,1.23.75,1.65,1.02,2.08h3.66s-8.7-8.44-7.44-12.34c1.26-3.89,9.45-6.36,9.45-6.36h-15.34l1.19,14.07h3.9l-.02.02Z"/>
      <path class="st35" d="M423.17,207.17s-9.98,1.4-12.58,2.59-.69,45.28-.69,45.28l-4.86-.55v-47.59s5.64-1.1,9.43-.91,8.7,1.17,8.7,1.17h0Z"/>
      <path class="st35" d="M442.75,206.9s-5.43-1.36-9.43-.91-10.15,1.17-10.15,1.17l.72,47.33h3.56s-2.18-41.8.87-44.11,14.42-3.49,14.42-3.49h.01Z"/>
      <polygon class="st35" points="445.19 238.26 492.2 238.26 491.79 240.48 445.12 240.48 445.19 238.26"/>
      <polygon class="st35" points="445.12 246.38 492.53 246.38 491.79 249.04 445.12 249.04 445.12 246.38"/>
      <polygon class="st35" points="444.53 253.04 492.53 253.04 492.2 255.04 444.53 254.5 444.53 253.04"/>
      <path class="st46" d="M394.29,263.91s118.76,1.22,124.85-4.43c4.87-4.52-21.02-4.43-20.02-4.43h27.15v8.87l-14.94,4.91-102.29-.48-14.75-4.43h0Z"/>
      <path class="st50" d="M499.13,234.18l13.93,2.3s6.97,1.78,6.09,9.2c-.53,4.51-7.4,8.97-8.71,9.37s9.5,0,9.5,0c0,0,3.6-4.02,3.6-7.33v-13.54h-24.42.01Z"/>
      <polygon class="st44" points="506.08 185.93 506.08 233.87 521.76 233.43 519.15 199.67 519.15 232.92 518.16 231.97 515.67 188.26 515.54 232.46 513.92 232.48 511.44 179.49 511.44 232.83 508.59 232.83 506.08 185.93"/>
      <path class="st16" d="M438.34,95.34s8.79.48,16.88,9.6c9.7,10.92,5.62,19.29,5.62,19.29l11.26.33s-1.7-13.76-6.53-18.52-10.63-8.72-13.93-9.58-13.29-1.12-13.29-1.12h-.01Z"/>
      <path class="st16" d="M247.98,95.34s8.79.48,16.88,9.6c9.7,10.92,5.62,19.29,5.62,19.29l11.26.33s-1.7-13.76-6.53-18.52-10.63-8.72-13.93-9.58-13.29-1.12-13.29-1.12h-.01Z"/>
    </g>
    <g id="Sedie_gropu">
      <g id="sedie">
        <path class="st12" d="M405.8,430.68c.64-.45,2.72-8.18,14.25-9.51,9.31-1.08,30.48,0,30.48,0l-1.15,3.26"/>
        <g>
          <circle class="st4" cx="461.71" cy="499.65" r="3.18"/>
          <path class="st10" d="M446.08,482.18s7.18,3.73,10.14,8.07,3.12,8.17,3.12,8.17h4.77s0-4.75-3.58-10.64-4.44-7.81-4.44-7.81l-10.02,2.22h.01Z"/>
          <circle class="st4" cx="412.12" cy="499.65" r="3.18"/>
          <circle class="st4" cx="493.79" cy="499.65" r="3.18"/>
          <path class="st1" d="M445.34,442.63v12.68c0,1.4,1.05,2.53,2.4,2.69v14.83h8.38v-14.83c1.35-.16,2.4-1.3,2.4-2.69v-12.68h-13.19,0Z"/>
          <path class="st14" d="M463.55,478.46c-7.4-3.23-15.82-3.18-23.17.15l-27.47,12.61c-2.67,1.23-4.39,3.9-4.39,6.84v.35h6.91c0-3.1,1.97-5.85,4.9-6.84l22.03-7.46c6.07-2.09,12.66-2.1,18.74-.05l24.44,7.63c2.94.92,4.94,3.64,4.94,6.72h6.91v-.25c0-2.99-1.77-5.7-4.52-6.9l-29.32-12.8h0Z"/>
          <path class="st0" d="M448.48,472.34h6.84c2.74,0,4.96,2.22,4.96,4.96v6.77h-16.77v-6.77c0-2.74,2.22-4.96,4.96-4.96h0Z"/>
        </g>
        <path class="st13" d="M451.77,445.01l35.69-2.67c2.69-.08,4.99-1.93,5.64-4.54l4.18-28.95c1.02-7.09,2.65-14.09,4.87-20.9l13.22-40.63c.49-1.52-.52-3.11-2.1-3.3l-9.59-1.21c-10.84-1.37-21.84-.8-32.49,1.66l-1.95.45-17.48,100.1h.01Z"/>
        <path class="st17" d="M451.77,445.01l-2.4-20.59s2.35-5.49,5.49-20.14c2.74-12.79,3.29-42.75,3.03-49.81-.04-.99.44-1.92,1.25-2.49l10.1-7.07"/>
        <path class="st17" d="M451.73,445.01l-45.85-4.54c-.7-.07-1.23-.66-1.23-1.36v-3.13c0-7.3,6.08-13.14,13.38-12.84l31.34,1.28,2.35,20.59h0Z"/>
        <path class="st8" d="M431.74,437.1h0c-1.4.34-2.8-.6-3.12-2.09l-4.86-22.82,5.08-1.23,4.86,22.82c.32,1.49-.56,2.98-1.96,3.32Z"/>
        <path class="st6" d="M452.28,416.3c-10.78-1.47-21.93-1.5-32.85-.06-1.47.2-2.61-.77-2.54-2.21.04-.74.07-1.48.11-2.22.07-1.43,1.32-2.66,2.77-2.69,10.87-.28,21.96.92,32.68,3.56,1.44.36,2.58,1.21,2.55,1.84-.02.33-.03.66-.05,1-.03.63-1.23.96-2.68.78h0Z"/>
      </g>
      <g id="ombre_sedie">
        <path class="st48" d="M464.11,348.51s-2.96,44.54-5.58,54.31-9.16,21.6-9.16,21.6c0,0-8.35,3.29-14.35,3.73s-18.67.81-22,2.52-8.37,9.67-8.37,9.67l47.12,4.66,17.48-100.1-5.14,3.59v.02Z"/>
        <path class="st49" d="M469.25,344.92s17.6,18.8,14.39,39.54c-7.29,47.1-30.59,53.28-30.59,53.28l-1.27,7.27-4.31-.41s4.76,4.44,5.49,9.56,0,18.18,0,18.18l-5.21.49s5.82.24,7.35,4.21,0,7.03,0,7.03c0,0,2.06.35,4.22,5.11s3.71,9.07,3.49,10.47-1.08,3.18-1.08,3.18c0,0,4.04-1.02,3.18-3.18s-1.19-4.16-1.19-4.16c0,0-.37-2.69-1.99-5.58s-3.37-5.83-3.37-5.83h1.94l-.98-8s1.62-1.87-.78-2.55-3.21-1.18-3.21-1.18l.8-14.33s2.4-1.09,2.4-2.69v-10.3l27.83-2.59s3.29.22,5.53-2.24,1.6-5.04,1.6-5.04c0,0,4.46-32.8,6.57-40s15.33-47.83,15.33-47.83c0,0-.24-3.07-2.1-3.3s-21.41-2.68-29.64-1.55-14.39,2.45-14.39,2.45h0Z"/>
        <path class="st41" d="M442.57,479.96s-25.53,10.42-27.65,12.65-2.8,5.81-2.8,5.81c0,0,1.32,2.63,0,3.53s-2.21,0-2.21,0c0,0,2.76,1.7,3.92.4s1.1-4.17,1.1-4.17c0,0,.13-4.33,3.79-5.81s23.65-8.25,23.65-8.25l.21-4.15h0Z"/>
        <path class="st41" d="M460.29,479.96s23.18,9.31,25.84,10.42,5.23,2.48,6.44,4.28,1.21,3.75,1.21,3.75c0,0-1.23,2.18,0,3.3s0,1.12,0,1.12c0,0-3.07.85-3.18-1.79s0-4.58,0-4.58c0,0-.55-2.77-6.96-5.07s-23.35-7.32-23.35-7.32v-4.12h0Z"/>
      </g>
    </g>
    <g id="cassettiera">
      <g>
        <path class="st18" d="M232.18,546.28c-3.06,0-5.55-3.13-5.55-7s2.48-7,5.55-7h4.22v14h-4.22Z"/>
        <ellipse class="st8" cx="236.4" cy="539.28" rx="4.05" ry="7"/>
      </g>
      <g>
        <path class="st18" d="M313.64,546.96c2.24,0,4.05-3.13,4.05-7s-1.81-7-4.05-7h-3.08v14h3.08Z"/>
        <ellipse class="st9" cx="309.99" cy="539.96" rx="1.57" ry="7"/>
      </g>
      <rect class="st22" x="222.39" y="454.04" width="100" height="82.89"/>
      <polygon class="st24" points="322.39 454.04 222.39 454.04 262.39 436.87 334.39 436.87 322.39 454.04"/>
      <polygon class="st27" points="322.39 454.04 334.39 436.87 334.39 512.71 322.39 536.93 322.39 454.04"/>
      <rect class="st7" x="229.03" y="509.12" width="86.22" height="19.84"/>
      <rect class="st7" x="229.03" y="486.6" width="86.22" height="19.84"/>
      <rect class="st7" x="229.03" y="463.85" width="86.22" height="19.84"/>
      <rect class="st29" x="261.19" y="472.88" width="20" height="1.78"/>
      <rect class="st29" x="261.19" y="495.63" width="20" height="1.78"/>
      <rect class="st29" x="261.19" y="518.38" width="20" height="1.78"/>
    </g>
    <g id="ombre_cassettiera">
      <path class="st45" d="M296.13,436.87s13.49,1.41,13.86,8.59-6.93,8.59-6.93,8.59h19.33l12-17.17h-38.26,0Z"/>
      <path class="st39" d="M272.39,454.04l8.26,9.81s15.05,4.17,18.05,10.81,1.87,9.03,1.87,9.03h-13.86v2.59s15.59,5.87,16.46,13.01,0,6.67,0,6.67l-23.83.48,1.87,2.68h14.94s5.63,3.34,10.43,9.26,8.69,10.58,8.69,10.58h-23.89l4.77,7.97h15.27s.88-2.7,2.73,3.03-.49,7-.49,7l2.33-1.27,1.72-5.73-.27-2.49,4.96-.54v-82.89h-50.01Z"/>
    </g>
    <g id="pcportatile">
      <g>
        <g>
          <path class="st37" d="M416.74,383.52h-71.4c-.42,0-.8-.27-.95-.67l-15.24-43.92c-.24-.66.25-1.36.95-1.36h71.4c.42,0,.8.27.95.67l15.24,43.92c.24.66-.25,1.36-.95,1.36h0Z"/>
          <path class="st38" d="M420,383.71l-16.81-46.53c-.12-.33-.42-.54-.76-.54h-74.17c-.56,0-.95.57-.76,1.11l16.81,46.53c.12.33.42.54.76.54h74.17c.56,0,.95-.57.76-1.11ZM416.44,382.83h-70.44c-.32,0-.61-.21-.72-.52l-15.2-42.68c-.18-.51.19-1.05.72-1.05h70.44c.32,0,.61.21.72.52l15.2,42.68c.18.51-.19,1.05-.72,1.05Z"/>
        </g>
        <polygon class="st55" points="369.28 381.62 346.83 381.62 331.83 339.8 354.28 339.8 369.28 381.62"/>
        <path class="st55" d="M414.52,381.62h-43.43l-15-41.81h43.94c.3,0,.56.19.66.46l14.5,40.41c.16.46-.17.94-.66.94h-.01Z"/>
        <polygon class="st53" points="333.44 340.8 339.8 358.53 359.64 358.3 353.38 340.8 333.44 340.8"/>
        <polygon class="st53" points="357.83 340.8 372.02 380.32 413.33 380.52 399.41 340.8 357.83 340.8"/>
      </g>
      <g>
        <path class="st38" d="M367.96,385.3h66.17v.18c0,1.32-1.07,2.38-2.38,2.38h-63.79v-2.56h0Z"/>
        <path class="st56" d="M367.84,387.82l-22.13-.88c-.78-.03-1.4-.68-1.4-1.46v-1.22l26.11,1.04v.04c0,1.41-1.17,2.53-2.58,2.48h0Z"/>
        <polygon class="st52" points="344.31 384.26 420.64 384.26 434.13 385.48 370.42 385.34 344.31 384.26"/>
      </g>
      <path class="st49" d="M327.54,336.63s73.42-.54,74.17,0,1.71,3.17,1.71,3.17l15.86,43.9s-8.45-17.7-29.59-26.84c-33.5-14.5-62.16-20.23-62.16-20.23h0Z"/>
    </g>
  </g>
</svg>