<svg fill="none" height="512" viewBox="0 0 512 512" width="512" xmlns="http://www.w3.org/2000/svg"><g fill="#fff"><path d="m256 0c-69.526 0-78.244.294695-105.549 1.54054-27.248 1.24382-45.858 5.57076-62.1421 11.89956-16.8342 6.5423-31.1106 15.2957-45.3424 29.5275-14.2317 14.2317-22.9852 28.5082-29.5274 45.3424-6.32882 16.283-10.65576 34.893-11.89957 62.141-1.245851 27.305-1.53953 36.023-1.53953 105.549 0 69.524.293679 78.242 1.53953 105.547 1.24381 27.248 5.57075 45.858 11.89957 62.141 6.5422 16.834 15.2957 31.111 29.5274 45.344 14.2318 14.231 28.5082 22.985 45.3424 29.527 16.2841 6.328 34.8941 10.656 62.1421 11.899 27.305 1.246 36.023 1.54 105.549 1.54 69.524 0 78.242-.294 105.547-1.54 27.248-1.243 45.858-5.571 62.141-11.899 16.834-6.542 31.111-15.296 45.344-29.527 14.231-14.233 22.985-28.51 29.527-45.344 6.328-16.283 10.656-34.893 11.899-62.141 1.246-27.305 1.54-36.023 1.54-105.547 0-69.526-.294-78.244-1.54-105.549-1.243-27.248-5.571-45.858-11.899-62.141-6.542-16.8342-15.296-31.1107-29.527-45.3424-14.233-14.2318-28.51-22.9852-45.344-29.5275-16.283-6.3288-34.893-10.65574-62.141-11.89956-27.305-1.245845-36.023-1.54054-105.547-1.54054zm0 46.1269c68.354 0 76.451.2601 103.445 1.4918 24.959 1.1391 38.514 5.3096 47.535 8.8144 11.949 4.644 20.477 10.1924 29.435 19.1501 8.959 8.9577 14.506 17.4866 19.15 29.4348 3.506 9.021 7.676 22.576 8.815 47.536 1.231 26.994 1.492 35.091 1.492 103.446 0 68.354-.261 76.451-1.492 103.445-1.139 24.959-5.309 38.514-8.815 47.535-4.644 11.949-10.191 20.477-19.15 29.435-8.958 8.959-17.486 14.506-29.435 19.15-9.021 3.506-22.576 7.676-47.535 8.815-26.99 1.231-35.086 1.492-103.445 1.492-68.361 0-76.455-.261-103.446-1.492-24.96-1.139-38.515-5.309-47.536-8.815-11.9492-4.644-20.4771-10.191-29.4358-19.15-8.9577-8.958-14.5061-17.486-19.1491-29.435-3.5059-9.021-7.6763-22.576-8.8154-47.535-1.2317-26.994-1.4918-35.091-1.4918-103.445 0-68.355.2601-76.452 1.4918-103.446 1.1391-24.96 5.3095-38.515 8.8154-47.536 4.643-11.9482 10.1914-20.4771 19.1491-29.4348 8.9587-8.9577 17.4866-14.5061 29.4358-19.1501 9.021-3.5048 22.576-7.6753 47.536-8.8144 26.994-1.2317 35.091-1.4918 103.446-1.4918z"/><path d="m255.998 341.333c-47.128 0-85.333-38.205-85.333-85.333s38.205-85.333 85.333-85.333 85.333 38.205 85.333 85.333-38.205 85.333-85.333 85.333zm0-216.792c-72.603 0-131.459 58.856-131.459 131.459s58.856 131.459 131.459 131.459 131.459-58.856 131.459-131.459-58.856-131.459-131.459-131.459z"/><path d="m423.373 119.346c0 16.967-13.754 30.72-30.72 30.72-16.965 0-30.719-13.753-30.719-30.72 0-16.966 13.754-30.719 30.719-30.719 16.966 0 30.72 13.753 30.72 30.719z"/></g></svg>