<svg fill="none" height="512" viewBox="0 0 536 512" width="536" xmlns="http://www.w3.org/2000/svg"><path d="m6.79699 166.531h114.87101v345.469h-114.87101zm58.20451-166.531c-39.3156 0-65.0015 25.7949-65.0015 59.6515 0 33.1603 24.9342 59.7055 63.4981 59.7055h.7326c40.0673 0 65.0193-26.5464 65.0193-59.7055-.752-33.8566-24.951-59.6515-64.2485-59.6515zm338.7075 158.416c-60.975 0-88.292 33.517-103.531 57.023v-48.908h-114.906c1.521 32.409 0 345.469 0 345.469h114.906v-192.934c0-10.333.752-20.628 3.775-28.031 8.319-20.628 27.225-41.99 58.937-41.99 41.606 0 58.222 31.695 58.222 78.116v184.838h114.888v-198.099c0-106.111-56.665-155.484-132.291-155.484z" fill="#fff"/></svg>