<svg fill="none" height="512" viewBox="0 0 448 512" width="448" xmlns="http://www.w3.org/2000/svg"><path d="m448 209.963c-44.038.106-86.996-13.628-122.806-39.26v178.766c-.012 33.109-10.132 65.425-29.007 92.628-18.876 27.202-45.606 47.994-76.617 59.595-31.012 11.602-64.826 13.459-96.922 5.324-32.0952-8.135-60.9423-25.874-82.6836-50.845-21.7414-24.971-35.34062-55.985-38.979392-88.894-3.638768-32.909 2.856392-66.144 18.616992-95.262 15.7606-29.117 40.0354-52.73 69.5785-67.68 29.5435-14.949 62.9465-20.524 95.7435-15.977v89.912c-15.008-4.72-31.124-4.578-46.046.407-14.922 4.984-27.888 14.556-37.045 27.349-9.1579 12.793-14.0388 28.152-13.9461 43.884s5.1541 31.032 14.4621 43.716c9.307 12.684 22.384 22.103 37.364 26.911 14.98 4.809 31.097 4.761 46.048-.136s27.973-14.393 37.205-27.131c9.232-12.739 14.203-28.069 14.203-43.801v-349.469h88.025c-.061 7.43328.562 14.8564 1.861 22.1756 3.059 16.339 9.419 31.8822 18.691 45.6789 9.272 13.7968 21.261 25.557 35.235 34.5615 19.879 13.144 43.187 20.15 67.019 20.145z" fill="#fff"/></svg>