<svg fill="none" height="384" viewBox="0 0 536 384" width="536" xmlns="http://www.w3.org/2000/svg"><path d="m252.579 210.006c-9.17-1.598 7.993 29.664 7.993 29.664l15.822-.362s4.714-30.395-2.634-27.733c-7.169 2.597 0 27.315 0 27.315l-.999-.781s7.254-35.771-2.512-35.907c-9.826-.138-.132 36.31-.132 36.31l-1.634.016s11.821-50.915 0-50.858c-11.858.057-2.503 51.146-2.503 51.146h-2.876s-1.531-27.242-10.525-28.81z" fill="#c3c6ca" opacity=".46"/><path d="m268.835 204.77c-13.547-.004-2.62 34.59-2.62 34.59h5.23s10.937-34.587-2.61-34.59z" fill="#656c73" stroke="#656c73" stroke-linecap="round" stroke-linejoin="round" stroke-width=".15"/><path d="m246.677 215.803c-5.347 9.596 16.439 11.588 16.439 11.588l2.063-3.706s-13.155-17.478-18.502-7.882z" fill="#656c73" stroke="#656c73" stroke-linecap="round" stroke-linejoin="round" stroke-width=".15"/><path d="m253.719 230.79c2.323 3.754 8.2-4.073 8.2-4.073l-.898-1.449s-9.626 1.769-7.302 5.522z" fill="#656c73" stroke="#656c73" stroke-linecap="round" stroke-linejoin="round" stroke-width=".15"/><path d="m284.261 215.803c-1.159-4.26-9.02 1.572-9.02 1.572l.448 1.644s9.731 1.044 8.572-3.216z" fill="#656c73" stroke="#656c73" stroke-linecap="round" stroke-linejoin="round" stroke-width=".15"/><path d="m257.397 203.636c-3.242 2.996 5.562 7.272 5.562 7.272l1.251-1.157s-3.572-9.112-6.813-6.115z" fill="#656c73" stroke="#656c73" stroke-linecap="round" stroke-linejoin="round" stroke-width=".15"/><path d="m254.812 239.359h24.42v12.21c0 6.74-5.47 12.21-12.21 12.21s-12.21-5.47-12.21-12.21z" fill="#788088" stroke="#788088" stroke-linecap="round" stroke-linejoin="round" stroke-width=".88"/><path d="m254.815 239.359 13.93 2.3s6.97 1.78 6.09 9.2c-.53 4.51-7.4 8.97-8.71 9.37s9.5 0 9.5 0 3.6-4.02 3.6-7.33v-13.54h-24.42z" fill="#c3c6ca"/><path d="m339.763 199.9c2.09-.84 3.1-3.21 2.26-5.3l-7.57 3.04c.84 2.09 3.21 3.1 5.3 2.26z" fill="#b8b8b7"/><path d="m334.401 182.791-1.75-4.35-3.25 1.3 1.75 4.35c-6.95 3.69-10.21 11.88-7.33 19.07l29.06-11.67c-2.89-7.19-10.91-10.84-18.48-8.7z" fill="#788088" stroke="#e4e5e7" stroke-miterlimit="10" stroke-width=".75"/><path d="m333.929 176.29c-.33-.57-1.02-.79-1.56-.49l-40.87 23.85c-.35-1-1.37-1.59-2.36-1.33-1.03.28-1.63 1.36-1.36 2.44l.23.93-7.4 4.32 1.91 3.32 6.41-3.95 13.11 52.85 5.96-1.6-15.46-53.47 41.04-25.28c.53-.31.69-1.02.36-1.59z" fill="#b0b5ba" stroke="#788088" stroke-linecap="round" stroke-linejoin="round"/><path d="m300.251 254.99h24.05c2.75 0 4.99 2.24 4.99 4.99h-31.33v-2.7c0-1.27 1.03-2.29 2.29-2.29z" fill="#788088" stroke="#e4e5e7" stroke-miterlimit="10" stroke-width=".75"/><path d="m333.302 175.74-40.88 24.45s-2.42-1.13-2.98 0-6.02 4.89-5.61 5.73 6.34-1.33 6.34-1.33l13.83 50.39 16.5.51s-12.17 3.02-11.95 3.75-10.59.72-10.59.72-1.31-2.57 0-3.66 2.64-1.32 2.64-1.32l-11.56-49.13-6.53 3.48-1.91-3.32 6.77-4.14s.77-3.57 1.77-3.55 2.24 1.06 2.24 1.06l41.92-23.63z" fill="#e4e5e7" opacity=".57"/><path d="m334.104 199.041s-7.86.15-6.17-4.44 5.36-9.62 5.36-9.62l-2.19-5.59-1.51.93 1.51 3.66s-3.14 1.15-5.17 4.54-3.46 6.96-3.15 9.47 1.05 5.17 1.05 5.17l10.27-4.13z" fill="#b8b8b7" opacity=".42"/><path d="m416.978 256.19h-66.352c-.39 0-.743-.27-.883-.67l-14.162-43.92c-.223-.66.232-1.36.883-1.36h66.351c.391 0 .744.27.883.67l14.163 43.92c.223.66-.233 1.36-.883 1.36z" fill="#edeff0"/><path d="m420.005 256.381-15.621-46.53c-.112-.33-.391-.54-.707-.54h-68.926c-.52 0-.882.57-.706 1.11l15.622 46.53c.111.33.39.54.706.54h68.926c.52 0 .883-.57.706-1.11zm-3.308-.88h-65.46c-.297 0-.567-.21-.669-.52l-14.125-42.68c-.167-.51.176-1.05.669-1.05h65.46c.297 0 .566.21.669.52l14.125 42.68c.167.51-.177 1.05-.669 1.05z" fill="#788088"/><path d="m372.148 257.969h61.98v.18c0 1.32-1.002 2.38-2.229 2.38h-59.751z" fill="#788088"/><path d="m372.04 260.49-20.729-.88c-.73-.03-1.311-.68-1.311-1.46v-1.22l24.457 1.04v.04c0 1.41-1.096 2.53-2.417 2.48z" fill="#979da3"/><path d="m350 256.93h71.497l12.636 1.22-59.676-.14z" fill="#d5d8db"/><path d="m338.009 210.903s64.017-.525 64.671 0 1.491 3.082 1.491 3.082l13.829 42.685s-7.368-17.21-25.801-26.097c-29.209-14.098-54.199-19.67-54.199-19.67z" fill="#e4e5e7" opacity=".37"/><path d="m187.578 372.734-3-14.119v-164.669l3-9.212" fill="#b0b5ba"/><path d="m187.578 372.734-3-14.119v-164.669l3-9.212" stroke="#788088" stroke-linecap="round" stroke-linejoin="round"/><path d="m45 372.736 3-14.12v-164.668l-3-9.212" fill="#b0b5ba"/><path d="m45 372.736 3-14.12v-164.668l-3-9.212" stroke="#788088" stroke-linecap="round" stroke-linejoin="round"/><path d="m196.579 179.283h-160.579v14.405h160.579z" fill="#d5d8db" stroke="#788088" stroke-linecap="round" stroke-linejoin="round"/><path d="m36 179.284 5.8245-3.614h150.0235l4.731 3.614" fill="#f7f8f8"/><path d="m36 179.284 5.8245-3.614h150.0235l4.731 3.614" stroke="#788088" stroke-linecap="round" stroke-linejoin="round"/><path d="m45 193.736h-9v179h9z" fill="#d5d8db" stroke="#788088" stroke-linecap="round" stroke-linejoin="round"/><path d="m196.578 193.734h-9v179h9z" fill="#d5d8db" stroke="#788088" stroke-linecap="round" stroke-linejoin="round"/><path d="m75.1549 171.55h66.3521c.39 0 .743-.27.883-.67l14.162-43.92c.223-.66-.232-1.36-.883-1.36h-66.3516c-.3904 0-.7435.27-.8829.67l-14.1625 43.92c-.223.66.2324 1.36.8829 1.36z" fill="#edeff0"/><path d="m72.1276 171.74 15.6215-46.53c.1115-.33.3903-.54.7062-.54h68.9257c.521 0 .883.57.707 1.11l-15.622 46.53c-.111.33-.39.54-.706.54h-68.9261c-.5204 0-.8829-.57-.7063-1.11zm3.3083-.88h65.4601c.297 0 .566-.21.669-.52l14.125-42.68c.167-.51-.177-1.05-.669-1.05h-65.4598c-.2974 0-.5669.21-.6691.52l-14.1253 42.68c-.1673.51.1766 1.05.6691 1.05z" fill="#788088"/><path d="m119.984 173.328h-61.9797v.18c0 1.32 1.0023 2.38 2.2293 2.38h59.7504z" fill="#788088"/><path d="m120.093 175.849 20.728-.88c.731-.03 1.312-.68 1.312-1.46v-1.22l-24.457 1.04v.04c0 1.41 1.096 2.53 2.417 2.48z" fill="#979da3"/><path d="m142.133 172.289h-71.4969l-12.6358 1.22 59.6757-.14z" fill="#d5d8db"/><path d="m517.274 372.76-2.93-8.17v-95.28l2.93-5.33" fill="#b0b5ba"/><path d="m517.274 372.76-2.93-8.17v-95.28l2.93-5.33" stroke="#788088" stroke-linecap="round" stroke-linejoin="round"/><path d="m238.977 372.76 2.93-8.17v-95.28l-2.93-5.33" fill="#b0b5ba"/><path d="m238.977 372.76 2.93-8.17v-95.28l-2.93-5.33" stroke="#788088" stroke-linecap="round" stroke-linejoin="round"/><path d="m525.825 260.98h-295.27v8.33h295.27z" fill="#d5d8db" stroke="#788088" stroke-linecap="round" stroke-linejoin="round"/><path d="m240 260.981 10.71-2.09h275.86l8.7 2.09" fill="#f7f8f8"/><path d="m240 260.981 10.71-2.09h275.86l8.7 2.09" stroke="#788088" stroke-linecap="round" stroke-linejoin="round"/><path d="m238.625 269.311h-8.07v103.69h8.07z" fill="#d5d8db" stroke="#788088" stroke-linecap="round" stroke-linejoin="round"/><path d="m525.828 269.311h-8.07v103.69h8.07z" fill="#d5d8db" stroke="#788088" stroke-linecap="round" stroke-linejoin="round"/><path d="m405.797 303.349c.64-.45 2.72-8.18 14.25-9.51 9.31-1.08 30.48 0 30.48 0l-1.15 3.26" fill="#f9fafa"/><g stroke="#788088"><path d="m405.797 303.349c.64-.45 2.72-8.18 14.25-9.51 9.31-1.08 30.48 0 30.48 0l-1.15 3.26" stroke-miterlimit="10"/><path d="m461.703 375.501c1.757 0 3.18-1.424 3.18-3.18 0-1.757-1.423-3.18-3.18-3.18-1.756 0-3.18 1.423-3.18 3.18 0 1.756 1.424 3.18 3.18 3.18z" fill="#788088" stroke-miterlimit="10" stroke-width=".71"/><path d="m446.072 354.851s7.18 3.73 10.14 8.07 3.12 8.17 3.12 8.17h4.77s0-4.75-3.58-10.64-4.44-7.81-4.44-7.81l-10.02 2.22h.01z" fill="#a2a8ae" stroke-miterlimit="10" stroke-width="1.11"/><path d="m412.117 375.501c1.757 0 3.18-1.424 3.18-3.18 0-1.757-1.423-3.18-3.18-3.18-1.756 0-3.179 1.423-3.179 3.18 0 1.756 1.423 3.18 3.179 3.18z" fill="#788088" stroke-miterlimit="10" stroke-width=".71"/><path d="m493.789 375.501c1.757 0 3.18-1.424 3.18-3.18 0-1.757-1.423-3.18-3.18-3.18-1.756 0-3.18 1.423-3.18 3.18 0 1.756 1.424 3.18 3.18 3.18z" fill="#788088" stroke-miterlimit="10" stroke-width=".71"/><path d="m445.338 315.301v12.68c0 1.4 1.05 2.53 2.4 2.69v14.83h8.38v-14.83c1.35-.16 2.4-1.3 2.4-2.69v-12.68h-13.19z" fill="#f7f8f8" stroke-miterlimit="10"/><path d="m463.546 351.132c-7.4-3.23-15.82-3.18-23.17.15l-27.47 12.61c-2.67 1.23-4.39 3.9-4.39 6.84v.35h6.91c0-3.1 1.97-5.85 4.9-6.84l22.03-7.46c6.07-2.09 12.66-2.1 18.74-.05l24.44 7.63c2.94.92 4.94 3.64 4.94 6.72h6.91v-.25c0-2.99-1.77-5.7-4.52-6.9z" fill="#a2a8ae" stroke-miterlimit="10"/><path d="m448.478 345.012h6.84c2.74 0 4.96 2.22 4.96 4.96v6.77h-16.77v-6.77c0-2.74 2.22-4.96 4.96-4.96z" fill="#b5b9be" stroke-miterlimit="10"/><path d="m451.768 317.68 35.69-2.67c2.69-.08 4.99-1.93 5.64-4.54l4.18-28.95c1.02-7.09 2.65-14.09 4.87-20.9l13.22-40.63c.49-1.52-.52-3.11-2.1-3.3l-9.59-1.21c-10.84-1.37-21.84-.8-32.49 1.66l-1.95.45-17.48 100.1h.01z" fill="#b0b5ba" stroke-miterlimit="10"/></g><path d="m451.767 317.68-2.4-20.59s2.35-5.49 5.49-20.14c2.74-12.79 3.29-42.75 3.03-49.81-.04-.99.44-1.92 1.25-2.49l10.1-7.07" fill="#f5f6f6"/><path d="m451.767 317.68-2.4-20.59s2.35-5.49 5.49-20.14c2.74-12.79 3.29-42.75 3.03-49.81-.04-.99.44-1.92 1.25-2.49l10.1-7.07" stroke="#788088" stroke-miterlimit="10"/><path d="m451.728 317.68-45.85-4.54c-.7-.07-1.23-.66-1.23-1.36v-3.13c0-7.3 6.08-13.14 13.38-12.84l31.34 1.28 2.35 20.59z" fill="#f5f6f6" stroke="#788088" stroke-miterlimit="10"/><path d="m431.738 309.769c-1.4.34-2.8-.6-3.12-2.09l-4.86-22.82 5.08-1.23 4.86 22.82c.32 1.49-.56 2.98-1.96 3.32z" fill="#656c73" stroke="#656c73" stroke-miterlimit="10"/><path d="m452.276 288.97c-10.78-1.47-21.93-1.5-32.85-.06-1.47.2-2.61-.77-2.54-2.21.04-.74.07-1.48.11-2.22.07-1.43 1.32-2.66 2.77-2.69 10.87-.28 21.96.92 32.68 3.56 1.44.36 2.58 1.21 2.55 1.84-.02.33-.03.66-.05 1-.03.63-1.23.96-2.68.78z" fill="#788088" stroke="#788088" stroke-miterlimit="10"/><path d="m464.108 221.18s-2.96 44.54-5.58 54.31-9.16 21.6-9.16 21.6-8.35 3.29-14.35 3.73-18.67.81-22 2.52-8.37 9.67-8.37 9.67l47.12 4.66 17.48-100.1-5.14 3.59z" fill="#e4e5e7" opacity=".52"/><path d="m469.249 217.59s17.6 18.8 14.39 39.54c-7.29 47.1-30.59 53.28-30.59 53.28l-1.27 7.27-4.31-.41s4.76 4.44 5.49 9.56 0 18.18 0 18.18l-5.21.49s5.82.24 7.35 4.21 0 7.03 0 7.03 2.06.35 4.22 5.11 3.71 9.07 3.49 10.47-1.08 3.18-1.08 3.18 4.04-1.02 3.18-3.18-1.19-4.16-1.19-4.16-.37-2.69-1.99-5.58-3.37-5.83-3.37-5.83h1.94l-.98-8s1.62-1.87-.78-2.55-3.21-1.18-3.21-1.18l.8-14.33s2.4-1.09 2.4-2.69v-10.3l27.83-2.59s3.29.22 5.53-2.24 1.6-5.04 1.6-5.04 4.46-32.8 6.57-40 15.33-47.83 15.33-47.83-.24-3.07-2.1-3.3-21.41-2.68-29.64-1.55-14.39 2.45-14.39 2.45z" fill="#e4e5e7" opacity=".37"/><path d="m442.566 352.629s-25.53 10.42-27.65 12.65-2.8 5.81-2.8 5.81 1.32 2.63 0 3.53-2.21 0-2.21 0 2.76 1.7 3.92.4 1.1-4.17 1.1-4.17.13-4.33 3.79-5.81 23.65-8.25 23.65-8.25l.21-4.15z" fill="#b8b8b7" opacity=".37"/><path d="m460.289 352.629s23.18 9.31 25.84 10.42 5.23 2.48 6.44 4.28 1.21 3.75 1.21 3.75-1.23 2.18 0 3.3 0 1.12 0 1.12-3.07.85-3.18-1.79 0-4.58 0-4.58-.55-2.77-6.96-5.07-23.35-7.32-23.35-7.32v-4.12z" fill="#b8b8b7" opacity=".37"/></svg>