<svg fill="none" height="385" viewBox="0 0 1070 385" width="1070" xmlns="http://www.w3.org/2000/svg"><path d="m252.579 210.006c-9.17-1.598 7.993 29.664 7.993 29.664l15.822-.362s4.714-30.395-2.634-27.733c-7.169 2.597 0 27.315 0 27.315l-.999-.781s7.254-35.771-2.512-35.907c-9.826-.138-.132 36.31-.132 36.31l-1.634.016s11.821-50.915 0-50.858c-11.858.057-2.503 51.146-2.503 51.146h-2.876s-1.531-27.242-10.525-28.81z" fill="#c3c6ca" opacity=".46"/><path d="m268.835 204.77c-13.547-.004-2.62 34.59-2.62 34.59h5.23s10.937-34.587-2.61-34.59z" fill="#656c73" stroke="#656c73" stroke-linecap="round" stroke-linejoin="round" stroke-width=".15"/><path d="m246.677 215.803c-5.347 9.596 16.439 11.588 16.439 11.588l2.063-3.706s-13.155-17.478-18.502-7.882z" fill="#656c73" stroke="#656c73" stroke-linecap="round" stroke-linejoin="round" stroke-width=".15"/><path d="m253.719 230.79c2.323 3.754 8.2-4.073 8.2-4.073l-.898-1.449s-9.626 1.769-7.302 5.522z" fill="#656c73" stroke="#656c73" stroke-linecap="round" stroke-linejoin="round" stroke-width=".15"/><path d="m284.261 215.803c-1.159-4.26-9.02 1.572-9.02 1.572l.448 1.644s9.731 1.044 8.572-3.216z" fill="#656c73" stroke="#656c73" stroke-linecap="round" stroke-linejoin="round" stroke-width=".15"/><path d="m257.397 203.636c-3.242 2.996 5.562 7.272 5.562 7.272l1.251-1.157s-3.572-9.112-6.813-6.115z" fill="#656c73" stroke="#656c73" stroke-linecap="round" stroke-linejoin="round" stroke-width=".15"/><path d="m254.812 239.359h24.42v12.21c0 6.74-5.47 12.21-12.21 12.21s-12.21-5.47-12.21-12.21z" fill="#788088" stroke="#788088" stroke-linecap="round" stroke-linejoin="round" stroke-width=".88"/><path d="m254.815 239.359 13.93 2.3s6.97 1.78 6.09 9.2c-.53 4.51-7.4 8.97-8.71 9.37s9.5 0 9.5 0 3.6-4.02 3.6-7.33v-13.54h-24.42z" fill="#c3c6ca"/><path d="m339.763 199.9c2.09-.84 3.1-3.21 2.26-5.3l-7.57 3.04c.84 2.09 3.21 3.1 5.3 2.26z" fill="#b8b8b7"/><path d="m334.401 182.791-1.75-4.35-3.25 1.3 1.75 4.35c-6.95 3.69-10.21 11.88-7.33 19.07l29.06-11.67c-2.89-7.19-10.91-10.84-18.48-8.7z" fill="#788088" stroke="#e4e5e7" stroke-miterlimit="10" stroke-width=".75"/><path d="m333.929 176.29c-.33-.57-1.02-.79-1.56-.49l-40.87 23.85c-.35-1-1.37-1.59-2.36-1.33-1.03.28-1.63 1.36-1.36 2.44l.23.93-7.4 4.32 1.91 3.32 6.41-3.95 13.11 52.85 5.96-1.6-15.46-53.47 41.04-25.28c.53-.31.69-1.02.36-1.59z" fill="#b0b5ba" stroke="#788088" stroke-linecap="round" stroke-linejoin="round"/><path d="m300.251 254.99h24.05c2.75 0 4.99 2.24 4.99 4.99h-31.33v-2.7c0-1.27 1.03-2.29 2.29-2.29z" fill="#788088" stroke="#e4e5e7" stroke-miterlimit="10" stroke-width=".75"/><path d="m333.302 175.74-40.88 24.45s-2.42-1.13-2.98 0-6.02 4.89-5.61 5.73 6.34-1.33 6.34-1.33l13.83 50.39 16.5.51s-12.17 3.02-11.95 3.75-10.59.72-10.59.72-1.31-2.57 0-3.66 2.64-1.32 2.64-1.32l-11.56-49.13-6.53 3.48-1.91-3.32 6.77-4.14s.77-3.57 1.77-3.55 2.24 1.06 2.24 1.06l41.92-23.63z" fill="#e4e5e7" opacity=".57"/><path d="m334.104 199.041s-7.86.15-6.17-4.44 5.36-9.62 5.36-9.62l-2.19-5.59-1.51.93 1.51 3.66s-3.14 1.15-5.17 4.54-3.46 6.96-3.15 9.47 1.05 5.17 1.05 5.17l10.27-4.13z" fill="#b8b8b7" opacity=".42"/><path d="m416.978 256.19h-66.352c-.39 0-.743-.27-.883-.67l-14.162-43.92c-.223-.66.232-1.36.883-1.36h66.351c.391 0 .744.27.883.67l14.163 43.92c.223.66-.233 1.36-.883 1.36z" fill="#edeff0"/><path d="m420.005 256.381-15.621-46.53c-.112-.33-.391-.54-.707-.54h-68.926c-.52 0-.882.57-.706 1.11l15.622 46.53c.111.33.39.54.706.54h68.926c.52 0 .883-.57.706-1.11zm-3.308-.88h-65.46c-.297 0-.567-.21-.669-.52l-14.125-42.68c-.167-.51.176-1.05.669-1.05h65.46c.297 0 .566.21.669.52l14.125 42.68c.167.51-.177 1.05-.669 1.05z" fill="#788088"/><path d="m372.148 257.969h61.98v.18c0 1.32-1.002 2.38-2.229 2.38h-59.751z" fill="#788088"/><path d="m372.04 260.49-20.729-.88c-.73-.03-1.311-.68-1.311-1.46v-1.22l24.457 1.04v.04c0 1.41-1.096 2.53-2.417 2.48z" fill="#979da3"/><path d="m350 256.93h71.497l12.636 1.22-59.676-.14z" fill="#d5d8db"/><path d="m338.009 210.903s64.017-.525 64.671 0 1.491 3.082 1.491 3.082l13.829 42.685s-7.368-17.21-25.801-26.097c-29.209-14.098-54.199-19.67-54.199-19.67z" fill="#e4e5e7" opacity=".37"/><path d="m187.578 372.734-3-14.119v-164.669l3-9.212" fill="#b0b5ba"/><path d="m187.578 372.734-3-14.119v-164.669l3-9.212" stroke="#788088" stroke-linecap="round" stroke-linejoin="round"/><path d="m45 372.736 3-14.12v-164.668l-3-9.212" fill="#b0b5ba"/><path d="m45 372.736 3-14.12v-164.668l-3-9.212" stroke="#788088" stroke-linecap="round" stroke-linejoin="round"/><path d="m196.579 179.283h-160.579v14.405h160.579z" fill="#d5d8db" stroke="#788088" stroke-linecap="round" stroke-linejoin="round"/><path d="m36 179.284 5.8245-3.614h150.0235l4.731 3.614" fill="#f7f8f8"/><path d="m36 179.284 5.8245-3.614h150.0235l4.731 3.614" stroke="#788088" stroke-linecap="round" stroke-linejoin="round"/><path d="m45 193.736h-9v179h9z" fill="#d5d8db" stroke="#788088" stroke-linecap="round" stroke-linejoin="round"/><path d="m196.578 193.734h-9v179h9z" fill="#d5d8db" stroke="#788088" stroke-linecap="round" stroke-linejoin="round"/><path d="m75.1549 171.55h66.3521c.39 0 .743-.27.883-.67l14.162-43.92c.223-.66-.232-1.36-.883-1.36h-66.3516c-.3904 0-.7435.27-.8829.67l-14.1625 43.92c-.223.66.2324 1.36.8829 1.36z" fill="#edeff0"/><path d="m72.1276 171.74 15.6215-46.53c.1115-.33.3903-.54.7062-.54h68.9257c.521 0 .883.57.707 1.11l-15.622 46.53c-.111.33-.39.54-.706.54h-68.9261c-.5204 0-.8829-.57-.7063-1.11zm3.3083-.88h65.4601c.297 0 .566-.21.669-.52l14.125-42.68c.167-.51-.177-1.05-.669-1.05h-65.4598c-.2974 0-.5669.21-.6691.52l-14.1253 42.68c-.1673.51.1766 1.05.6691 1.05z" fill="#788088"/><path d="m119.984 173.328h-61.9797v.18c0 1.32 1.0023 2.38 2.2293 2.38h59.7504z" fill="#788088"/><path d="m120.093 175.849 20.728-.88c.731-.03 1.312-.68 1.312-1.46v-1.22l-24.457 1.04v.04c0 1.41 1.096 2.53 2.417 2.48z" fill="#979da3"/><path d="m142.133 172.289h-71.4969l-12.6358 1.22 59.6757-.14z" fill="#d5d8db"/><path d="m517.274 372.76-2.93-8.17v-95.28l2.93-5.33" fill="#b0b5ba"/><path d="m517.274 372.76-2.93-8.17v-95.28l2.93-5.33" stroke="#788088" stroke-linecap="round" stroke-linejoin="round"/><path d="m238.977 372.76 2.93-8.17v-95.28l-2.93-5.33" fill="#b0b5ba"/><path d="m238.977 372.76 2.93-8.17v-95.28l-2.93-5.33" stroke="#788088" stroke-linecap="round" stroke-linejoin="round"/><path d="m525.825 260.98h-295.27v8.33h295.27z" fill="#d5d8db" stroke="#788088" stroke-linecap="round" stroke-linejoin="round"/><path d="m240 260.981 10.71-2.09h275.86l8.7 2.09" fill="#f7f8f8"/><path d="m240 260.981 10.71-2.09h275.86l8.7 2.09" stroke="#788088" stroke-linecap="round" stroke-linejoin="round"/><path d="m238.625 269.311h-8.07v103.69h8.07z" fill="#d5d8db" stroke="#788088" stroke-linecap="round" stroke-linejoin="round"/><path d="m525.828 269.311h-8.07v103.69h8.07z" fill="#d5d8db" stroke="#788088" stroke-linecap="round" stroke-linejoin="round"/><path d="m405.797 303.349c.64-.45 2.72-8.18 14.25-9.51 9.31-1.08 30.48 0 30.48 0l-1.15 3.26" fill="#f9fafa"/><path d="m405.797 303.349c.64-.45 2.72-8.18 14.25-9.51 9.31-1.08 30.48 0 30.48 0l-1.15 3.26" stroke="#788088" stroke-miterlimit="10"/><path d="m461.703 375.501c1.757 0 3.18-1.424 3.18-3.18 0-1.757-1.423-3.18-3.18-3.18-1.756 0-3.18 1.423-3.18 3.18 0 1.756 1.424 3.18 3.18 3.18z" fill="#788088" stroke="#788088" stroke-miterlimit="10" stroke-width=".71"/><path d="m446.072 354.851s7.18 3.73 10.14 8.07 3.12 8.17 3.12 8.17h4.77s0-4.75-3.58-10.64-4.44-7.81-4.44-7.81l-10.02 2.22h.01z" fill="#a2a8ae" stroke="#788088" stroke-miterlimit="10" stroke-width="1.11"/><path d="m412.117 375.501c1.757 0 3.18-1.424 3.18-3.18 0-1.757-1.423-3.18-3.18-3.18-1.756 0-3.179 1.423-3.179 3.18 0 1.756 1.423 3.18 3.179 3.18z" fill="#788088" stroke="#788088" stroke-miterlimit="10" stroke-width=".71"/><path d="m493.789 375.501c1.757 0 3.18-1.424 3.18-3.18 0-1.757-1.423-3.18-3.18-3.18-1.756 0-3.18 1.423-3.18 3.18 0 1.756 1.424 3.18 3.18 3.18z" fill="#788088" stroke="#788088" stroke-miterlimit="10" stroke-width=".71"/><path d="m445.338 315.301v12.68c0 1.4 1.05 2.53 2.4 2.69v14.83h8.38v-14.83c1.35-.16 2.4-1.3 2.4-2.69v-12.68h-13.19z" fill="#f7f8f8" stroke="#788088" stroke-miterlimit="10"/><path d="m463.546 351.132c-7.4-3.23-15.82-3.18-23.17.15l-27.47 12.61c-2.67 1.23-4.39 3.9-4.39 6.84v.35h6.91c0-3.1 1.97-5.85 4.9-6.84l22.03-7.46c6.07-2.09 12.66-2.1 18.74-.05l24.44 7.63c2.94.92 4.94 3.64 4.94 6.72h6.91v-.25c0-2.99-1.77-5.7-4.52-6.9z" fill="#a2a8ae" stroke="#788088" stroke-miterlimit="10"/><path d="m448.478 345.012h6.84c2.74 0 4.96 2.22 4.96 4.96v6.77h-16.77v-6.77c0-2.74 2.22-4.96 4.96-4.96z" fill="#b5b9be" stroke="#788088" stroke-miterlimit="10"/><path d="m451.768 317.68 35.69-2.67c2.69-.08 4.99-1.93 5.64-4.54l4.18-28.95c1.02-7.09 2.65-14.09 4.87-20.9l13.22-40.63c.49-1.52-.52-3.11-2.1-3.3l-9.59-1.21c-10.84-1.37-21.84-.8-32.49 1.66l-1.95.45-17.48 100.1h.01z" fill="#b0b5ba" stroke="#788088" stroke-miterlimit="10"/><path d="m451.767 317.68-2.4-20.59s2.35-5.49 5.49-20.14c2.74-12.79 3.29-42.75 3.03-49.81-.04-.99.44-1.92 1.25-2.49l10.1-7.07" fill="#f5f6f6"/><path d="m451.767 317.68-2.4-20.59s2.35-5.49 5.49-20.14c2.74-12.79 3.29-42.75 3.03-49.81-.04-.99.44-1.92 1.25-2.49l10.1-7.07" stroke="#788088" stroke-miterlimit="10"/><path d="m451.728 317.68-45.85-4.54c-.7-.07-1.23-.66-1.23-1.36v-3.13c0-7.3 6.08-13.14 13.38-12.84l31.34 1.28 2.35 20.59z" fill="#f5f6f6" stroke="#788088" stroke-miterlimit="10"/><path d="m431.738 309.769c-1.4.34-2.8-.6-3.12-2.09l-4.86-22.82 5.08-1.23 4.86 22.82c.32 1.49-.56 2.98-1.96 3.32z" fill="#656c73" stroke="#656c73" stroke-miterlimit="10"/><path d="m452.276 288.97c-10.78-1.47-21.93-1.5-32.85-.06-1.47.2-2.61-.77-2.54-2.21.04-.74.07-1.48.11-2.22.07-1.43 1.32-2.66 2.77-2.69 10.87-.28 21.96.92 32.68 3.56 1.44.36 2.58 1.21 2.55 1.84-.02.33-.03.66-.05 1-.03.63-1.23.96-2.68.78z" fill="#788088" stroke="#788088" stroke-miterlimit="10"/><path d="m464.108 221.18s-2.96 44.54-5.58 54.31-9.16 21.6-9.16 21.6-8.35 3.29-14.35 3.73-18.67.81-22 2.52-8.37 9.67-8.37 9.67l47.12 4.66 17.48-100.1-5.14 3.59z" fill="#e4e5e7" opacity=".52"/><path d="m469.249 217.59s17.6 18.8 14.39 39.54c-7.29 47.1-30.59 53.28-30.59 53.28l-1.27 7.27-4.31-.41s4.76 4.44 5.49 9.56 0 18.18 0 18.18l-5.21.49s5.82.24 7.35 4.21 0 7.03 0 7.03 2.06.35 4.22 5.11 3.71 9.07 3.49 10.47-1.08 3.18-1.08 3.18 4.04-1.02 3.18-3.18-1.19-4.16-1.19-4.16-.37-2.69-1.99-5.58-3.37-5.83-3.37-5.83h1.94l-.98-8s1.62-1.87-.78-2.55-3.21-1.18-3.21-1.18l.8-14.33s2.4-1.09 2.4-2.69v-10.3l27.83-2.59s3.29.22 5.53-2.24 1.6-5.04 1.6-5.04 4.46-32.8 6.57-40 15.33-47.83 15.33-47.83-.24-3.07-2.1-3.3-21.41-2.68-29.64-1.55-14.39 2.45-14.39 2.45z" fill="#e4e5e7" opacity=".37"/><path d="m442.566 352.629s-25.53 10.42-27.65 12.65-2.8 5.81-2.8 5.81 1.32 2.63 0 3.53-2.21 0-2.21 0 2.76 1.7 3.92.4 1.1-4.17 1.1-4.17.13-4.33 3.79-5.81 23.65-8.25 23.65-8.25l.21-4.15z" fill="#b8b8b7" opacity=".37"/><path d="m460.289 352.629s23.18 9.31 25.84 10.42 5.23 2.48 6.44 4.28 1.21 3.75 1.21 3.75-1.23 2.18 0 3.3 0 1.12 0 1.12-3.07.85-3.18-1.79 0-4.58 0-4.58-.55-2.77-6.96-5.07-23.35-7.32-23.35-7.32v-4.12z" fill="#b8b8b7" opacity=".37"/><path d="m849 256.689c.33.5 12 38.17 14.67 51s4.33 39.67 4.33 39.67h7.33s-2.83-19.33-9.33-41.83-17-48.83-17-48.83z" fill="#d8dbdd"/><path d="m858.172 232.85s7.17 54.01 8.17 63.01 3.67 55.17 3.67 55.17h6.79s-4.46-44.33-7.79-64.33-10.83-53.84-10.83-53.84z" fill="#c2c6c9"/><path d="m871.5 227.67v126.69l7.17-1z" fill="#d8dbdd"/><path d="m889.999 253.76-7.67 107.13-5.54.8z" fill="#e4e5e7"/><path d="m897.328 275.859-19.64 78.5 9.14 2.79z" fill="#8c939a"/><path d="m878.668 235.871-5.84 120.15h11.67z" fill="#8d9297"/><path d="m887.86 370.34h-17.15c-1.54 0-2.83-1.16-3-2.69l-2.71-24.64c-.09-.85.57-1.59 1.43-1.59h25.71c.85 0 1.52.74 1.43 1.59l-2.71 24.64c-.17 1.53-1.46 2.69-3 2.69z" fill="#788088"/><path d="m871.721 341.289s8.82 2.41 11.9 10.42c1.92 4.99 0 18.46 0 18.46s5.74.92 6.6-.86 1.03-5.16 1.03-5.16l2.12-19.31s1.55-3.57-2.99-3.42c-5.09.17-18.67-.13-18.67-.13z" fill="#787877" opacity=".25"/><path d="m858.172 232.85s11.46 66.52 11.97 71.85 1.36 24.24 1.36 24.24v-26.04l-13.33-70.06z" fill="#b8b8b7" opacity=".31"/><path d="m871.641 230.119s1.77 60.31 2.11 67.53-1.06 43.78-1.06 43.78l.89-.82 1.5-43.12-3.44-67.36z" fill="#b8b8b7" opacity=".31"/><path d="m878.674 235.869.62 96.69v8.7h9.59s8.61-65.15 8.45-64.63-11.89 62.38-11.89 62.38l-1.83-1.2-.22-6.25 1.45-5.8 5.15-71.99-7.07 69.86-4.26-87.74v-.02z" fill="#b8b8b7" opacity=".31"/><path d="m908.97 373.68-3.97-8.4v-95.28l3.97-5.33" fill="#b0b5ba"/><path d="m908.97 373.68-3.97-8.4v-95.28l3.97-5.33" stroke="#788088" stroke-linecap="round" stroke-linejoin="round"/><path d="m974.339 266.83h-65.37v106.85h65.37z" fill="#e4e5e7" stroke="#788088" stroke-linecap="round" stroke-linejoin="round"/><path d="m967.378 277.73h-50.44v89.22h50.44z" fill="#e4e5e7" stroke="#788088" stroke-linecap="round" stroke-linejoin="round"/><path d="m916.938 296.221h50.44" stroke="#788088" stroke-linecap="round" stroke-linejoin="round"/><path d="m916.938 316.84h50.44" stroke="#788088" stroke-linecap="round" stroke-linejoin="round"/><path d="m952.156 285.07h-20v1.78h20z" fill="#788088"/><path d="m952.156 305.65h-20v1.78h20z" fill="#788088"/><path d="m952.156 326.26h-20v1.78h20z" fill="#788088"/><path d="m908.969 315.39 65.38 58.29-.27-102.68-65.11.18z" fill="#cccfd2" opacity=".29"/><path d="m944.063 56.7695-2.61 34.59h5.23z" fill="#e4e5e7" stroke="#e4e5e7" stroke-linecap="round" stroke-linejoin="round" stroke-width=".15"/><path d="m949.294 56.7695-2.61 34.59h5.23z" fill="#656c73" stroke="#656c73" stroke-linecap="round" stroke-linejoin="round" stroke-width=".15"/><path d="m954.534 56.7695-2.62 34.59h5.23z" fill="#656c73" stroke="#656c73" stroke-linecap="round" stroke-linejoin="round" stroke-width=".15"/><path d="m960.624 56.8496-2.62 34.59h5.23z" fill="#d4d4d6" stroke="#9d9d9c" stroke-linecap="round" stroke-linejoin="round" stroke-width=".15"/><g stroke="#788088"><path d="m957.141 45.4395-2.61 45.92h5.23z" fill="#c5c9cd" stroke-linecap="round" stroke-linejoin="round" stroke-width=".17"/><path d="m952.913 36.6699-2.62 55.35h5.24z" fill="#f4f5f6" stroke-linecap="round" stroke-linejoin="round" stroke-width=".19"/><path d="m947.554 43.1094-2.62 48.92h5.24z" fill="#c5c9cd" stroke-linecap="round" stroke-linejoin="round" stroke-width=".17"/><path d="m940.602 91.3594h24.42v12.2096c0 6.74-5.47 12.21-12.21 12.21s-12.21-5.47-12.21-12.21z" fill="#788088" stroke-linecap="round" stroke-linejoin="round" stroke-width=".88"/><path d="m933.268 114.221h-46.67s-.59-1.71-.59-4c0-2.6.59-4 .59-4h46.67s.74 1.91.74 4c0 1.84-.74 4-.74 4z" fill="#c3c6ca" stroke-miterlimit="10" stroke-width=".64"/><path d="m983.302 171.518-.298-32.332s1.706-.416 3.996-.426c2.6-.012 4.004.391 4.004.391l.298 32.332s-1.906.521-3.996.53c-1.84.008-4.004-.495-4.004-.495z" fill="#c3c6ca" stroke-miterlimit="10" stroke-width=".64"/><path d="m933.268 105.939h-46.67s-.59-1.71-.59-4c0-2.5995.59-3.9995.59-3.9995h46.67s.74 1.91.74 3.9995c0 1.84-.74 4-.74 4z" fill="#c3c6ca" stroke-miterlimit="10" stroke-width=".64"/><path d="m991.583 171.483-.298-32.332s1.706-.416 3.996-.426c2.6-.012 4.004.391 4.004.391l.298 32.332s-1.905.521-3.995.53c-1.84.008-4.005-.495-4.005-.495z" fill="#c3c6ca" stroke-miterlimit="10" stroke-width=".64"/><path d="m933.268 97.6602h-46.67s-.59-1.71-.59-4c0-2.6.59-4 .59-4h46.67s.74 1.91.74 4c0 1.84-.74 4-.74 4z" fill="#c3c6ca" stroke-miterlimit="10" stroke-width=".64"/><path d="m999.864 171.446-.298-32.332s1.704-.416 3.994-.426c2.6-.012 4.01.391 4.01.391l.29 32.331s-1.9.522-3.99.531c-1.84.008-4.006-.495-4.006-.495z" fill="#c3c6ca" stroke-miterlimit="10" stroke-width=".64"/><path d="m1032 111.645h-152v8.87h152z" fill="#e4e5e7" stroke-linecap="round" stroke-linejoin="round"/><path d="m1015.56 124.946h-118.562l-16.998-4.43h152z" fill="#8c939a" stroke-linecap="round" stroke-linejoin="round" stroke-width=".83"/><path d="m1032 171.645h-152v8.87h152z" fill="#e4e5e7" stroke-linecap="round" stroke-linejoin="round"/><path d="m1015.56 184.946h-118.562l-16.998-4.43h152z" fill="#8c939a" stroke-linecap="round" stroke-linejoin="round" stroke-width=".83"/></g><path d="m886.664 95.4395h47.01l-.41 2.22h-46.67z" fill="#d4d4d6"/><path d="m1001.78 139.15.3 32.567-2.221-.274-.298-32.332z" fill="#d4d4d6"/><path d="m886.594 103.561h47.41l-.74 2.66h-46.67z" fill="#d4d4d6"/><path d="m993.664 139.137.303 32.844-2.665-.501-.298-32.332z" fill="#d4d4d6"/><path d="m886 110.221h48l-.33 2-47.67-.54z" fill="#d4d4d6"/><path d="m987 138.756.306 33.253-2.002-.22.236-33.027z" fill="#d4d4d6"/><path d="m940.604 91.3594 13.93 2.3s6.97 1.78 6.09 9.1996c-.53 4.51-7.4 8.97-8.71 9.37s9.5 0 9.5 0 3.6-4.02 3.6-7.33v-13.5396h-24.42z" fill="#c3c6ca"/><path d="m947.555 43.1099v47.94l15.68-.44-2.61-33.76v33.25l-.99-.95-2.49-43.71-.13 44.2-1.62.02-2.48-52.99v53.34h-2.85z" fill="#c3c6ca" opacity=".46"/><path d="m758.038 176.618c-1.37-1.78-1.04-4.34.74-5.72l4.98 6.46c-1.78 1.37-4.34 1.04-5.72-.74z" fill="#e4e5e7"/><path d="m771.337 164.588 3.711-2.86 2.14 2.77-3.711 2.86c4.11 6.71 2.78 15.42-3.36 20.15l-19.12-24.8c6.14-4.73 14.9-3.81 20.34 1.88z" fill="#788088" stroke="#e4e5e7" stroke-miterlimit="10" stroke-width=".75"/><path d="m772.497 160.438c.51-.41 1.24-.36 1.63.11l30.25 38.04c.42-.84 1.36-1.3 2.26-1.06 1.03.28 1.63 1.36 1.36 2.44l-.6 2.42 4.041 5.07-2.981 2.41-2.19-2.89-12.52 50.46-5.96-1.6 15.33-53.02-30.86-40.76c-.38-.48-.27-1.2.24-1.62z" fill="#b0b5ba" stroke="#788088" stroke-linecap="round" stroke-linejoin="round"/><path d="m772.494 160.438s7.6 10.879 16.94 22.879 14.85 18.6 15.59 18.6-.57 3.92-2.41 8.83-11.59 38.84-11.05 40.71 1.21 2.32 1.21 2.32-8.67.83-11.17 3.2-.67 2.34-.67 2.34l-12.7.15s1.85-3.96 3.77-4.47 16.14-.51 16.14-.51l14.94-51.67-31.09-40.72.47-1.659z" fill="#babdc0" opacity=".57"/><path d="m769.365 162.838s2.7 9.27-1.1 11.71-11.07-5.86-11.07-5.86 5.86 6.68 4.06 7.32-3.22.6-3.22.6-.07 1.04 1.75 1.31 3.15.28 3.15.28l7.17 9.3s5.53-4.17 5.52-9.3-2.16-10.85-2.16-10.85l1.62-1.25-2.12-2.78-1.51.83-2.09-1.32z" fill="#c3c6ca" opacity=".38"/><path d="m810.719 372.76-2.93-8.17v-95.28l2.93-5.33" fill="#b0b5ba"/><path d="m810.719 372.76-2.93-8.17v-95.28l2.93-5.33" stroke="#788088" stroke-linecap="round" stroke-linejoin="round"/><path d="m532.422 372.76 2.93-8.17v-95.28l-2.93-5.33" fill="#b0b5ba"/><path d="m532.422 372.76 2.93-8.17v-95.28l-2.93-5.33" stroke="#788088" stroke-linecap="round" stroke-linejoin="round"/><path d="m819.27 260.98h-295.27v8.33h295.27z" fill="#d5d8db" stroke="#788088" stroke-linecap="round" stroke-linejoin="round"/><path d="m524 260.981 10.71-2.09h275.86l8.7 2.09" fill="#f7f8f8"/><path d="m524 260.981 10.71-2.09h275.86l8.7 2.09" stroke="#788088" stroke-linecap="round" stroke-linejoin="round"/><path d="m532.07 269.311h-8.07v103.69h8.07z" fill="#d5d8db" stroke="#788088" stroke-linecap="round" stroke-linejoin="round"/><path d="m819.269 269.311h-8.07v103.69h8.07z" fill="#d5d8db" stroke="#788088" stroke-linecap="round" stroke-linejoin="round"/><path d="m682.821 256.18h-25.77l2.14-8.91h21.48z" fill="#c3c6ca" stroke="#788088" stroke-miterlimit="10"/><path d="m732.14 164.67h-119.61c-1.397 0-2.53 1.133-2.53 2.53v77.54c0 1.397 1.133 2.53 2.53 2.53h119.61c1.397 0 2.53-1.133 2.53-2.53v-77.54c0-1.397-1.133-2.53-2.53-2.53z" fill="#cccfd2" stroke="#788088" stroke-miterlimit="10"/><path d="m729.248 168.91h-114.199c-.773 0-1.401.697-1.401 1.556v69.888c0 .86.628 1.556 1.401 1.556h114.199c.773 0 1.4-.696 1.4-1.556v-69.888c0-.859-.627-1.556-1.4-1.556z" fill="#a2a8ae" stroke="#788088" stroke-miterlimit="10"/><path d="m618.941 164.67h111.15s3.82 0 4.33.74.75 5.49.75 5.49l-.12 74.57s-1.22 1.8-2.41 1.8-29.86-.06-29.86-.06 0-33.31-18-51.14-65.83-31.39-65.83-31.39h-.01z" fill="#c3c6ca" opacity=".38"/><path d="m618.94 164.67s104.62 1.78 109.35 2.19c5.46.46 4.71 9.3 4.71 9.3l-1.32 70.97 1.21-.26c.87-.18 1.49-.95 1.49-1.83l.28-77.83s.5-2.56-4.58-2.53c-2.53.01-111.15 0-111.15 0h.01z" fill="#788088" opacity=".73"/><path d="m659.191 247.27s15.35-.53 14.48 3.66c-.75 3.63-2.13 4.97-2.13 4.97l11.28.28-2.15-8.91z" fill="#c3c6ca" opacity=".38"/><path d="m797.038 254.67h-24.05c-2.75 0-4.99 2.24-4.99 4.99h31.33v-2.7c0-1.27-1.03-2.29-2.29-2.29z" fill="#788088" stroke="#e4e5e7" stroke-miterlimit="10" stroke-width=".75"/><path d="m646.532 312.532h-3.33l-4.93-23.75c-.44-2.12 1.18-4.1 3.34-4.1h4.92z" fill="#788088" stroke="#788088" stroke-miterlimit="10"/><path d="m698.23 315.262h3.33l4.93-23.75c.44-2.12-1.18-4.1-3.34-4.1h-4.92z" fill="#788088" stroke="#788088" stroke-miterlimit="10"/><path d="m662.52 383.801c1.756 0 3.18-1.423 3.18-3.18 0-1.756-1.424-3.18-3.18-3.18s-3.18 1.424-3.18 3.18c0 1.757 1.424 3.18 3.18 3.18z" fill="#788088" stroke="#61615f" stroke-miterlimit="10" stroke-width=".71"/><path d="m678.151 363.142s-7.18 3.73-10.14 8.07-3.12 8.17-3.12 8.17h-4.77s0-4.75 3.58-10.64 4.44-7.81 4.44-7.81l10.02 2.22z" fill="#a2a8ae" stroke="#788088" stroke-miterlimit="10"/><path d="m631.602 383.801c1.756 0 3.18-1.423 3.18-3.18 0-1.756-1.424-3.18-3.18-3.18s-3.18 1.424-3.18 3.18c0 1.757 1.424 3.18 3.18 3.18z" fill="#788088" stroke="#61615f" stroke-miterlimit="10" stroke-width=".71"/><path d="m713.27 383.801c1.756 0 3.18-1.423 3.18-3.18 0-1.756-1.424-3.18-3.18-3.18s-3.18 1.424-3.18 3.18c0 1.757 1.424 3.18 3.18 3.18z" fill="#788088" stroke="#61615f" stroke-miterlimit="10" stroke-width=".71"/><path d="m664.819 323.602v12.68c0 1.4 1.05 2.53 2.4 2.69v14.83h8.38v-14.83c1.35-.16 2.4-1.3 2.4-2.69v-12.68h-13.19z" fill="#f7f8f8" stroke="#788088" stroke-miterlimit="10"/><path d="m683.03 359.421c-7.4-3.23-15.82-3.18-23.17.15l-27.47 12.61c-2.67 1.23-4.39 3.9-4.39 6.84v.35h6.91c0-3.1 1.97-5.85 4.9-6.84l22.03-7.46c6.07-2.09 12.66-2.1 18.74-.05l24.44 7.63c2.94.92 4.94 3.64 4.94 6.72h6.91v-.25c0-2.99-1.77-5.7-4.52-6.9z" fill="#a2a8ae" stroke="#788088" stroke-miterlimit="10"/><path d="m667.958 353.312h6.84c2.74 0 4.96 2.221 4.96 4.961v6.77h-16.77v-6.77c0-2.74 2.22-4.961 4.96-4.961z" fill="#b5b9be" stroke="#788088" stroke-miterlimit="10"/><path d="m710.27 222.942-18.51-2.799c-12.81-1.941-25.84-1.941-38.65 0l-18.51 2.799c-1.04.16-1.77 1.11-1.65 2.16l10.5 89.06h.06c.81 5.38 13.45 9.65 28.92 9.65s28.11-4.27 28.92-9.65h.06l10.5-89.06c.12-1.05-.61-2-1.65-2.16z" fill="#b0b5ba" stroke="#788088" stroke-miterlimit="10"/><path d="m662.521 360.922s-26.71 11.09-27.73 12.42-3.56 2.14-3.18 4.09-1.4 1.94-1.4 1.94 1.4.85 1.4 2.64v1.79s-.59 1.64 1.34-.3 1.97-4.13 1.97-4.13-1.02-4.36 3.29-6.06 24.64-8.24 24.64-8.24z" fill="#b8b8b7" opacity=".37"/><path d="m667.761 365.041s-.77.58-2.05 5.11-3.18 7.28-3.18 7.28-.13 1.12 0 3.18-1.39 2.86-1.39 2.86 2.2 1.24 3.31-.33.37-5.72.37-5.72 1.48-5.01 4.32-7.63 5.82-4.76 5.82-4.76h-7.2z" fill="#b8b8b7" opacity=".37"/><path d="m679.772 360.922s17.05 7.81 21.63 9.23 9.54 3.38 10.39 6.3.14 7.05.14 7.05-1.96-5.26-2.25-6.07.25-3.24-5.39-5.01-23.71-7.4-23.71-7.4l-.82-4.1z" fill="#b8b8b7" opacity=".37"/></svg>