<svg fill="none" height="385" viewBox="0 0 547 385" width="547" xmlns="http://www.w3.org/2000/svg"><path d="m326 256.689c.33.5 12 38.17 14.67 51s4.33 39.67 4.33 39.67h7.33s-2.83-19.33-9.33-41.83-17-48.83-17-48.83z" fill="#d8dbdd"/><path d="m335.172 232.85s7.17 54.01 8.17 63.01 3.67 55.17 3.67 55.17h6.79s-4.46-44.33-7.79-64.33-10.83-53.84-10.83-53.84z" fill="#c2c6c9"/><path d="m348.5 227.67v126.69l7.17-1z" fill="#d8dbdd"/><path d="m366.999 253.76-7.67 107.13-5.54.8z" fill="#e4e5e7"/><path d="m374.328 275.859-19.64 78.5 9.14 2.79z" fill="#8c939a"/><path d="m355.668 235.871-5.84 120.15h11.67z" fill="#8d9297"/><path d="m364.86 370.34h-17.15c-1.54 0-2.83-1.16-3-2.69l-2.71-24.64c-.09-.85.57-1.59 1.43-1.59h25.71c.85 0 1.52.74 1.43 1.59l-2.71 24.64c-.17 1.53-1.46 2.69-3 2.69z" fill="#788088"/><path d="m348.721 341.289s8.82 2.41 11.9 10.42c1.92 4.99 0 18.46 0 18.46s5.74.92 6.6-.86 1.03-5.16 1.03-5.16l2.12-19.31s1.55-3.57-2.99-3.42c-5.09.17-18.67-.13-18.67-.13z" fill="#787877" opacity=".25"/><path d="m335.172 232.85s11.46 66.52 11.97 71.85 1.36 24.24 1.36 24.24v-26.04l-13.33-70.06z" fill="#b8b8b7" opacity=".31"/><path d="m348.641 230.119s1.77 60.31 2.11 67.53-1.06 43.78-1.06 43.78l.89-.82 1.5-43.12-3.44-67.36z" fill="#b8b8b7" opacity=".31"/><path d="m355.674 235.869.62 96.69v8.7h9.59s8.61-65.15 8.45-64.63-11.89 62.38-11.89 62.38l-1.83-1.2-.22-6.25 1.45-5.8 5.15-71.99-7.07 69.86-4.26-87.74v-.02z" fill="#b8b8b7" opacity=".31"/><path d="m385.97 373.68-3.97-8.4v-95.28l3.97-5.33" fill="#b0b5ba"/><path d="m385.97 373.68-3.97-8.4v-95.28l3.97-5.33" stroke="#788088" stroke-linecap="round" stroke-linejoin="round"/><path d="m451.339 266.83h-65.37v106.85h65.37z" fill="#e4e5e7" stroke="#788088" stroke-linecap="round" stroke-linejoin="round"/><path d="m444.378 277.73h-50.44v89.22h50.44z" fill="#e4e5e7" stroke="#788088" stroke-linecap="round" stroke-linejoin="round"/><path d="m393.938 296.221h50.44" stroke="#788088" stroke-linecap="round" stroke-linejoin="round"/><path d="m393.938 316.84h50.44" stroke="#788088" stroke-linecap="round" stroke-linejoin="round"/><path d="m429.156 285.07h-20v1.78h20z" fill="#788088"/><path d="m429.156 305.65h-20v1.78h20z" fill="#788088"/><path d="m429.156 326.26h-20v1.78h20z" fill="#788088"/><path d="m385.969 315.39 65.38 58.29-.27-102.68-65.11.18z" fill="#cccfd2" opacity=".29"/><path d="m421.063 56.7695-2.61 34.59h5.23z" fill="#e4e5e7" stroke="#e4e5e7" stroke-linecap="round" stroke-linejoin="round" stroke-width=".15"/><path d="m426.294 56.7695-2.61 34.59h5.23z" fill="#656c73" stroke="#656c73" stroke-linecap="round" stroke-linejoin="round" stroke-width=".15"/><path d="m431.534 56.7695-2.62 34.59h5.23z" fill="#656c73" stroke="#656c73" stroke-linecap="round" stroke-linejoin="round" stroke-width=".15"/><path d="m437.624 56.8496-2.62 34.59h5.23z" fill="#d4d4d6" stroke="#9d9d9c" stroke-linecap="round" stroke-linejoin="round" stroke-width=".15"/><g stroke="#788088"><path d="m434.141 45.4395-2.61 45.92h5.23z" fill="#c5c9cd" stroke-linecap="round" stroke-linejoin="round" stroke-width=".17"/><path d="m429.913 36.6699-2.62 55.35h5.24z" fill="#f4f5f6" stroke-linecap="round" stroke-linejoin="round" stroke-width=".19"/><path d="m424.554 43.1094-2.62 48.92h5.24z" fill="#c5c9cd" stroke-linecap="round" stroke-linejoin="round" stroke-width=".17"/><path d="m417.602 91.3594h24.42v12.2096c0 6.74-5.47 12.21-12.21 12.21s-12.21-5.47-12.21-12.21z" fill="#788088" stroke-linecap="round" stroke-linejoin="round" stroke-width=".88"/><path d="m410.268 114.221h-46.67s-.59-1.71-.59-4c0-2.6.59-4 .59-4h46.67s.74 1.91.74 4c0 1.84-.74 4-.74 4z" fill="#c3c6ca" stroke-miterlimit="10" stroke-width=".64"/><path d="m460.302 171.518-.298-32.332s1.706-.416 3.996-.426c2.6-.012 4.004.391 4.004.391l.298 32.332s-1.906.521-3.996.53c-1.84.008-4.004-.495-4.004-.495z" fill="#c3c6ca" stroke-miterlimit="10" stroke-width=".64"/><path d="m410.268 105.939h-46.67s-.59-1.71-.59-4c0-2.5995.59-3.9995.59-3.9995h46.67s.74 1.91.74 3.9995c0 1.84-.74 4-.74 4z" fill="#c3c6ca" stroke-miterlimit="10" stroke-width=".64"/><path d="m468.583 171.483-.298-32.332s1.706-.416 3.996-.426c2.6-.012 4.004.391 4.004.391l.298 32.332s-1.905.521-3.995.53c-1.84.008-4.005-.495-4.005-.495z" fill="#c3c6ca" stroke-miterlimit="10" stroke-width=".64"/><path d="m410.268 97.6602h-46.67s-.59-1.71-.59-4c0-2.6.59-4 .59-4h46.67s.74 1.91.74 4c0 1.84-.74 4-.74 4z" fill="#c3c6ca" stroke-miterlimit="10" stroke-width=".64"/><path d="m476.864 171.446-.298-32.332s1.707-.416 3.997-.426c2.6-.012 4.003.391 4.003.391l.298 32.331s-1.905.522-3.995.531c-1.84.008-4.005-.495-4.005-.495z" fill="#c3c6ca" stroke-miterlimit="10" stroke-width=".64"/><path d="m509 111.645h-152v8.87h152z" fill="#e4e5e7" stroke-linecap="round" stroke-linejoin="round"/><path d="m492.555 124.946h-118.557l-16.998-4.43h152z" fill="#8c939a" stroke-linecap="round" stroke-linejoin="round" stroke-width=".83"/><path d="m509 171.645h-152v8.87h152z" fill="#e4e5e7" stroke-linecap="round" stroke-linejoin="round"/><path d="m492.555 184.946h-118.557l-16.998-4.43h152z" fill="#8c939a" stroke-linecap="round" stroke-linejoin="round" stroke-width=".83"/></g><path d="m363.664 95.4395h47.01l-.41 2.22h-46.67z" fill="#d4d4d6"/><path d="m478.782 139.15.3 32.567-2.223-.274-.298-32.332z" fill="#d4d4d6"/><path d="m363.594 103.561h47.41l-.74 2.66h-46.67z" fill="#d4d4d6"/><path d="m470.664 139.137.303 32.844-2.665-.501-.298-32.332z" fill="#d4d4d6"/><path d="m363 110.221h48l-.33 2-47.67-.54z" fill="#d4d4d6"/><path d="m464 138.756.306 33.253-2.002-.22.236-33.027z" fill="#d4d4d6"/><path d="m417.604 91.3594 13.93 2.3s6.97 1.78 6.09 9.1996c-.53 4.51-7.4 8.97-8.71 9.37s9.5 0 9.5 0 3.6-4.02 3.6-7.33v-13.5396h-24.42z" fill="#c3c6ca"/><path d="m424.555 43.1099v47.94l15.68-.44-2.61-33.76v33.25l-.99-.95-2.49-43.71-.13 44.2-1.62.02-2.48-52.99v53.34h-2.85z" fill="#c3c6ca" opacity=".46"/><path d="m235.038 176.618c-1.37-1.78-1.04-4.34.74-5.72l4.98 6.46c-1.78 1.37-4.34 1.04-5.72-.74z" fill="#e4e5e7"/><path d="m248.337 164.588 3.711-2.86 2.14 2.77-3.711 2.86c4.11 6.71 2.78 15.42-3.36 20.15l-19.12-24.8c6.14-4.73 14.9-3.81 20.34 1.88z" fill="#788088" stroke="#e4e5e7" stroke-miterlimit="10" stroke-width=".75"/><path d="m249.497 160.438c.51-.41 1.24-.36 1.63.11l30.25 38.04c.42-.84 1.36-1.3 2.26-1.06 1.03.28 1.63 1.36 1.36 2.44l-.6 2.42 4.041 5.07-2.981 2.41-2.19-2.89-12.52 50.46-5.96-1.6 15.33-53.02-30.86-40.76c-.38-.48-.27-1.2.24-1.62z" fill="#b0b5ba" stroke="#788088" stroke-linecap="round" stroke-linejoin="round"/><path d="m249.494 160.438s7.6 10.879 16.94 22.879 14.85 18.6 15.59 18.6-.57 3.92-2.41 8.83-11.59 38.84-11.05 40.71 1.21 2.32 1.21 2.32-8.67.83-11.17 3.2-.67 2.34-.67 2.34l-12.7.15s1.85-3.96 3.77-4.47 16.14-.51 16.14-.51l14.94-51.67-31.09-40.72.47-1.659z" fill="#babdc0" opacity=".57"/><path d="m246.365 162.838s2.7 9.27-1.1 11.71-11.07-5.86-11.07-5.86 5.86 6.68 4.06 7.32-3.22.6-3.22.6-.07 1.04 1.75 1.31 3.15.28 3.15.28l7.17 9.3s5.53-4.17 5.52-9.3-2.16-10.85-2.16-10.85l1.62-1.25-2.12-2.78-1.51.83-2.09-1.32z" fill="#c3c6ca" opacity=".38"/><path d="m287.719 372.76-2.93-8.17v-95.28l2.93-5.33" fill="#b0b5ba"/><path d="m287.719 372.76-2.93-8.17v-95.28l2.93-5.33" stroke="#788088" stroke-linecap="round" stroke-linejoin="round"/><path d="m9.42188 372.76 2.93002-8.17v-95.28l-2.93002-5.33" fill="#b0b5ba"/><path d="m9.42188 372.76 2.93002-8.17v-95.28l-2.93002-5.33" stroke="#788088" stroke-linecap="round" stroke-linejoin="round"/><path d="m296.27 260.98h-295.27v8.33h295.27z" fill="#d5d8db" stroke="#788088" stroke-linecap="round" stroke-linejoin="round"/><path d="m1 260.981 10.71-2.09h275.86l8.7 2.09" fill="#f7f8f8"/><path d="m1 260.981 10.71-2.09h275.86l8.7 2.09" stroke="#788088" stroke-linecap="round" stroke-linejoin="round"/><path d="m9.07001 269.311h-8.07001v103.69h8.07001z" fill="#d5d8db" stroke="#788088" stroke-linecap="round" stroke-linejoin="round"/><path d="m296.269 269.311h-8.07v103.69h8.07z" fill="#d5d8db" stroke="#788088" stroke-linecap="round" stroke-linejoin="round"/><path d="m159.821 256.18h-25.77l2.14-8.91h21.48z" fill="#c3c6ca" stroke="#788088" stroke-miterlimit="10"/><path d="m209.14 164.67h-119.61c-1.3973 0-2.53 1.133-2.53 2.53v77.54c0 1.397 1.1327 2.53 2.53 2.53h119.61c1.397 0 2.53-1.133 2.53-2.53v-77.54c0-1.397-1.133-2.53-2.53-2.53z" fill="#cccfd2" stroke="#788088" stroke-miterlimit="10"/><path d="m206.248 168.91h-114.199c-.7735 0-1.4006.697-1.4006 1.556v69.888c0 .86.6271 1.556 1.4006 1.556h114.199c.773 0 1.4-.696 1.4-1.556v-69.888c0-.859-.627-1.556-1.4-1.556z" fill="#a2a8ae" stroke="#788088" stroke-miterlimit="10"/><path d="m95.9414 164.67h111.1496s3.82 0 4.33.74.75 5.49.75 5.49l-.12 74.57s-1.22 1.8-2.41 1.8-29.86-.06-29.86-.06 0-33.31-18-51.14-65.8296-31.39-65.8296-31.39h-.01z" fill="#c3c6ca" opacity=".38"/><path d="m95.9397 164.67s104.6203 1.78 109.3503 2.19c5.46.46 4.71 9.3 4.71 9.3l-1.32 70.97 1.21-.26c.87-.18 1.49-.95 1.49-1.83l.28-77.83s.5-2.56-4.58-2.53c-2.53.01-111.1503 0-111.1503 0h.01z" fill="#788088" opacity=".73"/><path d="m136.191 247.27s15.35-.53 14.48 3.66c-.75 3.63-2.13 4.97-2.13 4.97l11.28.28-2.15-8.91z" fill="#c3c6ca" opacity=".38"/><path d="m274.038 254.67h-24.05c-2.75 0-4.99 2.24-4.99 4.99h31.33v-2.7c0-1.27-1.03-2.29-2.29-2.29z" fill="#788088" stroke="#e4e5e7" stroke-miterlimit="10" stroke-width=".75"/><path d="m123.532 312.532h-3.33l-4.93-23.75c-.44-2.12 1.18-4.1 3.34-4.1h4.92z" fill="#788088" stroke="#788088" stroke-miterlimit="10"/><path d="m175.23 315.262h3.33l4.93-23.75c.44-2.12-1.18-4.1-3.34-4.1h-4.92z" fill="#788088" stroke="#788088" stroke-miterlimit="10"/><path d="m139.52 383.801c1.756 0 3.18-1.423 3.18-3.18 0-1.756-1.424-3.18-3.18-3.18s-3.18 1.424-3.18 3.18c0 1.757 1.424 3.18 3.18 3.18z" fill="#788088" stroke="#61615f" stroke-miterlimit="10" stroke-width=".71"/><path d="m155.151 363.142s-7.18 3.73-10.14 8.07-3.12 8.17-3.12 8.17h-4.77s0-4.75 3.58-10.64 4.44-7.81 4.44-7.81l10.02 2.22z" fill="#a2a8ae" stroke="#788088" stroke-miterlimit="10"/><path d="m108.602 383.801c1.756 0 3.18-1.423 3.18-3.18 0-1.756-1.424-3.18-3.18-3.18s-3.18 1.424-3.18 3.18c0 1.757 1.424 3.18 3.18 3.18z" fill="#788088" stroke="#61615f" stroke-miterlimit="10" stroke-width=".71"/><path d="m190.27 383.801c1.756 0 3.18-1.423 3.18-3.18 0-1.756-1.424-3.18-3.18-3.18s-3.18 1.424-3.18 3.18c0 1.757 1.424 3.18 3.18 3.18z" fill="#788088" stroke="#61615f" stroke-miterlimit="10" stroke-width=".71"/><path d="m141.819 323.602v12.68c0 1.4 1.05 2.53 2.4 2.69v14.83h8.38v-14.83c1.35-.16 2.4-1.3 2.4-2.69v-12.68h-13.19z" fill="#f7f8f8" stroke="#788088" stroke-miterlimit="10"/><path d="m160.03 359.421c-7.4-3.23-15.82-3.18-23.17.15l-27.47 12.61c-2.67 1.23-4.39 3.9-4.39 6.84v.35h6.91c0-3.1 1.97-5.85 4.9-6.84l22.03-7.46c6.07-2.09 12.66-2.1 18.74-.05l24.44 7.63c2.94.92 4.94 3.64 4.94 6.72h6.91v-.25c0-2.99-1.77-5.7-4.52-6.9z" fill="#a2a8ae" stroke="#788088" stroke-miterlimit="10"/><path d="m144.958 353.312h6.84c2.74 0 4.96 2.221 4.96 4.961v6.77h-16.77v-6.77c0-2.74 2.22-4.961 4.96-4.961z" fill="#b5b9be" stroke="#788088" stroke-miterlimit="10"/><path d="m187.27 222.942-18.51-2.799c-12.81-1.941-25.84-1.941-38.65 0l-18.51 2.799c-1.04.16-1.77 1.11-1.65 2.16l10.5 89.06h.06c.81 5.38 13.45 9.65 28.92 9.65s28.11-4.27 28.92-9.65h.06l10.5-89.06c.12-1.05-.61-2-1.65-2.16z" fill="#b0b5ba" stroke="#788088" stroke-miterlimit="10"/><path d="m139.521 360.922s-26.71 11.09-27.73 12.42-3.56 2.14-3.18 4.09-1.4 1.94-1.4 1.94 1.4.85 1.4 2.64v1.79s-.59 1.64 1.34-.3 1.97-4.13 1.97-4.13-1.02-4.36 3.29-6.06 24.64-8.24 24.64-8.24z" fill="#b8b8b7" opacity=".37"/><path d="m144.761 365.041s-.77.58-2.05 5.11-3.18 7.28-3.18 7.28-.13 1.12 0 3.18-1.39 2.86-1.39 2.86 2.2 1.24 3.31-.33.37-5.72.37-5.72 1.48-5.01 4.32-7.63 5.82-4.76 5.82-4.76h-7.2z" fill="#b8b8b7" opacity=".37"/><path d="m156.772 360.922s17.05 7.81 21.63 9.23 9.54 3.38 10.39 6.3.14 7.05.14 7.05-1.96-5.26-2.25-6.07.25-3.24-5.39-5.01-23.71-7.4-23.71-7.4l-.82-4.1z" fill="#b8b8b7" opacity=".37"/></svg>