<?xml version="1.0" encoding="UTF-8"?>
<svg id="Layer_1" xmlns="http://www.w3.org/2000/svg" xmlns:xlink="http://www.w3.org/1999/xlink" version="1.1" viewBox="0 0 751.89 417.32">
  <!-- Generator: Adobe Illustrator 29.6.1, SVG Export Plug-In . SVG Version: 2.1.1 Build 9)  -->
  <defs>
    <style>
      .st0, .st1, .st2 {
        fill: none;
      }

      .st3 {
        fill: #666c73;
      }

      .st4, .st5 {
        fill: #fafbfb;
      }

      .st5, .st1, .st2 {
        stroke: #545a5f;
      }

      .st5, .st1, .st2, .st6 {
        stroke-miterlimit: 10;
      }

      .st5, .st2 {
        stroke-width: 3px;
      }

      .st1 {
        stroke-width: 2.99px;
      }

      .st7 {
        clip-path: url(#clippath);
      }

      .st6 {
        fill: #a2a8ae;
        stroke: #a2a8ae;
      }
    </style>
    <clipPath id="clippath">
      <polygon class="st0" points="210.57 57.72 244.35 415.2 521.23 415.2 472.79 58.55 210.57 57.72"/>
    </clipPath>
  </defs>
  <g id="fill_pollice_copy">
    <path class="st5" d="M230.62,324.97s-40.96-91.54-43.83-106.47c-2.29-11.93,5.76-21.69,12.61-23.87,18.81-5.98,25.67,6.65,25.67,6.65,0,0,2.5,22.98,4.45,43.19s11.27,56.17,11.27,56.17"/>
    <path class="st4" d="M496.01,240.87c-.12,22.28,1.44,54.02,5,66.91s8.67,84.78,8.67,84.78l5.11,20.51h82.67s-16-36.24-20-50.85-8.37-34.96-9.78-51.79c-1.78-21.25-25.33-40.72-28.44-54.44s-10.67-46.03-10.67-46.03c0,0-3.56-5.75-13.33-2.21s-19.11,11.95-19.22,33.12h0Z"/>
  </g>
  <g id="delineopollice">
    <path class="st5" d="M230.62,324.97s-39.02-88.81-43.06-103.47-2.72-24.93,7.01-28.72c18.39-7.17,30.51,8.51,30.51,8.51,0,0,2.5,22.98,4.45,43.19s11.27,56.17,11.27,56.17"/>
    <path class="st1" d="M595.01,413.08s-16-36.24-20-50.85-4.32-26.31-6.39-43.07c-3.39-27.41-21.9-39.85-29.68-64.42-4.25-13.41-12.82-44.78-12.82-44.78,0,0-3.56-5.75-13.33-2.21s-19.11,11.95-19.22,33.12c-.12,22.28,1.44,54.02,5,66.91s13.78,105.29,13.78,105.29"/>
  </g>
  <g id="cellulare">
    <g class="st7">
      <g>
        <path class="st3" d="M247.5,415.2l-31.04-297.94c-2.19-22.77,18.3-54.54,40.88-54.54h168.4c21.66,0,39.91,16.4,42.51,38.2l41.3,311.96-262.06,2.31h.01Z"/>
        <path class="st6" d="M255.71,414.2l-31.04-309.88c-2.19-22.29,15.46-41.6,38.04-41.6h171.24c21.66,0,39.91,16.05,42.51,37.39l38.72,312.96-259.48,1.13h0Z"/>
        <path class="st4" d="M261.45,417.32l-29.69-308.81c-2.08-21.65,14.7-40.41,36.15-40.41h162.74c20.59,0,37.93,15.59,40.4,36.32l37.05,310.88-246.64,2.02h-.01Z"/>
      </g>
    </g>
  </g>
  <g id="fill_dito_1">
    <path class="st4" d="M243.46,366.42c6.96-6.64,10.23-16.21,13.39-26.9,3.8-12.83-2.85-27.09-8.56-31.37s-14.74-2.38-20.44.48-12.36,5.23-19.01,8.56-21.43,13.81-23.26,31.88c-1.49,14.68,12.1,64.86,12.1,64.86h49.17l-2.95-40.39-.44-7.11h0Z"/>
  </g>
  <g id="delineo_dito_1">
    <path class="st2" d="M227.01,379.31c20-14.22,26.67-29.1,29.84-39.79,3.8-12.83-2.85-27.09-8.56-31.37s-14.74-2.38-20.44.48-12.36,5.23-19.01,8.56-21.43,13.81-23.26,31.88c-1.49,14.68,12.1,64.86,12.1,64.86"/>
  </g>
</svg>