<?xml version="1.0" encoding="UTF-8"?>
<svg id="muro_sfondo" xmlns="http://www.w3.org/2000/svg" viewBox="0 0 1056.29 595.28">
  <defs>
    <style>
      .cls-1 {
        fill: #efefef;
      }

      .cls-2 {
        fill: #e7e6e6;
      }
    </style>
  </defs>
  <rect class="cls-2" y="2.17" width="1054.41" height="593.1"/>
  <g>
    <g>
      <polygon class="cls-1" points="260.62 25.77 212.27 25.77 213.54 7.27 263.17 5.73 260.62 25.77"/>
      <polygon class="cls-1" points="155.64 25.77 107.28 25.77 108.55 7.27 158.18 5.73 155.64 25.77"/>
      <polygon class="cls-1" points="52.28 25.77 3.92 25.77 5.19 7.27 54.82 5.73 52.28 25.77"/>
      <polygon class="cls-1" points="209.51 27.1 162.42 27.1 160.94 7.05 208.24 5.73 209.51 27.1"/>
      <polygon class="cls-1" points="55.95 27.1 103.04 27.1 104.52 7.05 57.23 5.73 55.95 27.1"/>
    </g>
    <g>
      <polygon class="cls-1" points="523.07 25.77 474.72 25.77 475.99 7.27 525.62 5.73 523.07 25.77"/>
      <polygon class="cls-1" points="418.09 25.77 369.73 25.77 371 7.27 420.63 5.73 418.09 25.77"/>
      <polygon class="cls-1" points="314.73 25.77 266.37 25.77 267.65 7.27 317.28 5.73 314.73 25.77"/>
      <polygon class="cls-1" points="471.96 27.1 424.88 27.1 423.39 7.05 470.69 5.73 471.96 27.1"/>
      <polygon class="cls-1" points="318.41 27.1 365.49 27.1 366.98 7.05 319.68 5.73 318.41 27.1"/>
    </g>
    <g>
      <polygon class="cls-1" points="785.52 25.77 737.17 25.77 738.44 7.27 788.07 5.73 785.52 25.77"/>
      <polygon class="cls-1" points="680.54 25.77 632.18 25.77 633.46 7.27 683.09 5.73 680.54 25.77"/>
      <polygon class="cls-1" points="577.18 25.77 528.83 25.77 530.1 7.27 579.73 5.73 577.18 25.77"/>
      <polygon class="cls-1" points="734.41 27.1 687.33 27.1 685.84 7.05 733.14 5.73 734.41 27.1"/>
      <polygon class="cls-1" points="580.86 27.1 627.94 27.1 629.43 7.05 582.13 5.73 580.86 27.1"/>
    </g>
    <g>
      <polygon class="cls-1" points="1047.98 25.77 999.62 25.77 1000.89 7.27 1050.52 5.73 1047.98 25.77"/>
      <polygon class="cls-1" points="942.99 25.77 894.64 25.77 895.91 7.27 945.54 5.73 942.99 25.77"/>
      <polygon class="cls-1" points="839.63 25.77 791.28 25.77 792.55 7.27 842.18 5.73 839.63 25.77"/>
      <polygon class="cls-1" points="996.86 27.1 949.78 27.1 948.29 7.05 995.59 5.73 996.86 27.1"/>
      <polygon class="cls-1" points="843.31 27.1 890.39 27.1 891.88 7.05 844.58 5.73 843.31 27.1"/>
    </g>
  </g>
  <g>
    <g>
      <polygon class="cls-1" points="277.85 50.17 229.5 50.17 230.77 31.67 280.4 30.13 277.85 50.17"/>
      <polygon class="cls-1" points="172.87 50.17 124.51 50.17 125.79 31.67 175.41 30.13 172.87 50.17"/>
      <polygon class="cls-1" points="69.51 50.17 21.15 50.17 22.43 31.67 72.06 30.13 69.51 50.17"/>
      <polygon class="cls-1" points="226.74 51.49 179.66 51.49 178.17 31.45 225.47 30.13 226.74 51.49"/>
      <polygon class="cls-1" points="73.19 51.49 120.27 51.49 121.76 31.45 74.46 30.13 73.19 51.49"/>
    </g>
    <g>
      <polygon class="cls-1" points="540.31 50.17 491.95 50.17 493.22 31.67 542.85 30.13 540.31 50.17"/>
      <polygon class="cls-1" points="435.32 50.17 386.96 50.17 388.24 31.67 437.87 30.13 435.32 50.17"/>
      <polygon class="cls-1" points="331.96 50.17 283.61 50.17 284.88 31.67 334.51 30.13 331.96 50.17"/>
      <polygon class="cls-1" points="489.19 51.49 442.11 51.49 440.62 31.45 487.92 30.13 489.19 51.49"/>
      <polygon class="cls-1" points="335.64 51.49 382.72 51.49 384.21 31.45 336.91 30.13 335.64 51.49"/>
    </g>
    <g>
      <polygon class="cls-1" points="802.76 50.17 754.4 50.17 755.67 31.67 805.3 30.13 802.76 50.17"/>
      <polygon class="cls-1" points="697.77 50.17 649.42 50.17 650.69 31.67 700.32 30.13 697.77 50.17"/>
      <polygon class="cls-1" points="594.41 50.17 546.06 50.17 547.33 31.67 596.96 30.13 594.41 50.17"/>
      <polygon class="cls-1" points="751.64 51.49 704.56 51.49 703.08 31.45 750.37 30.13 751.64 51.49"/>
      <polygon class="cls-1" points="598.09 51.49 645.17 51.49 646.66 31.45 599.36 30.13 598.09 51.49"/>
    </g>
    <g>
      <polygon class="cls-1" points="1054.41 30.54 1054.41 50.17 1016.85 50.17 1018.12 31.67 1054.41 30.54"/>
      <polygon class="cls-1" points="960.22 50.17 911.87 50.17 913.14 31.67 962.77 30.13 960.22 50.17"/>
      <polygon class="cls-1" points="856.87 50.17 808.51 50.17 809.78 31.67 859.41 30.13 856.87 50.17"/>
      <polygon class="cls-1" points="1014.1 51.49 967.01 51.49 965.53 31.45 1012.82 30.13 1014.1 51.49"/>
      <polygon class="cls-1" points="860.54 51.49 907.63 51.49 909.11 31.45 861.81 30.13 860.54 51.49"/>
    </g>
  </g>
  <g>
    <g>
      <polygon class="cls-1" points="260.62 74.56 212.27 74.56 213.54 56.06 263.17 54.52 260.62 74.56"/>
      <polygon class="cls-1" points="155.64 74.56 107.28 74.56 108.55 56.06 158.18 54.52 155.64 74.56"/>
      <polygon class="cls-1" points="52.28 74.56 3.92 74.56 5.19 56.06 54.82 54.52 52.28 74.56"/>
      <polygon class="cls-1" points="209.51 75.88 162.42 75.88 160.94 55.84 208.24 54.52 209.51 75.88"/>
      <polygon class="cls-1" points="55.95 75.88 103.04 75.88 104.52 55.84 57.23 54.52 55.95 75.88"/>
    </g>
    <g>
      <polygon class="cls-1" points="523.07 74.56 474.72 74.56 475.99 56.06 525.62 54.52 523.07 74.56"/>
      <polygon class="cls-1" points="418.09 74.56 369.73 74.56 371 56.06 420.63 54.52 418.09 74.56"/>
      <polygon class="cls-1" points="314.73 74.56 266.37 74.56 267.65 56.06 317.28 54.52 314.73 74.56"/>
      <polygon class="cls-1" points="471.96 75.88 424.88 75.88 423.39 55.84 470.69 54.52 471.96 75.88"/>
      <polygon class="cls-1" points="318.41 75.88 365.49 75.88 366.98 55.84 319.68 54.52 318.41 75.88"/>
    </g>
    <g>
      <polygon class="cls-1" points="785.52 74.56 737.17 74.56 738.44 56.06 788.07 54.52 785.52 74.56"/>
      <polygon class="cls-1" points="680.54 74.56 632.18 74.56 633.46 56.06 683.09 54.52 680.54 74.56"/>
      <polygon class="cls-1" points="577.18 74.56 528.83 74.56 530.1 56.06 579.73 54.52 577.18 74.56"/>
      <polygon class="cls-1" points="734.41 75.88 687.33 75.88 685.84 55.84 733.14 54.52 734.41 75.88"/>
      <polygon class="cls-1" points="580.86 75.88 627.94 75.88 629.43 55.84 582.13 54.52 580.86 75.88"/>
    </g>
    <g>
      <polygon class="cls-1" points="1047.98 74.56 999.62 74.56 1000.89 56.06 1050.52 54.52 1047.98 74.56"/>
      <polygon class="cls-1" points="942.99 74.56 894.64 74.56 895.91 56.06 945.54 54.52 942.99 74.56"/>
      <polygon class="cls-1" points="839.63 74.56 791.28 74.56 792.55 56.06 842.18 54.52 839.63 74.56"/>
      <polygon class="cls-1" points="996.86 75.88 949.78 75.88 948.29 55.84 995.59 54.52 996.86 75.88"/>
      <polygon class="cls-1" points="843.31 75.88 890.39 75.88 891.88 55.84 844.58 54.52 843.31 75.88"/>
    </g>
  </g>
  <g>
    <g>
      <polygon class="cls-1" points="277.85 98.96 229.5 98.96 230.77 80.46 280.4 78.92 277.85 98.96"/>
      <polygon class="cls-1" points="172.87 98.96 124.51 98.96 125.79 80.46 175.41 78.92 172.87 98.96"/>
      <polygon class="cls-1" points="69.51 98.96 21.15 98.96 22.43 80.46 72.06 78.92 69.51 98.96"/>
      <polygon class="cls-1" points="226.74 100.28 179.66 100.28 178.17 80.24 225.47 78.92 226.74 100.28"/>
      <polygon class="cls-1" points="73.19 100.28 120.27 100.28 121.76 80.24 74.46 78.92 73.19 100.28"/>
    </g>
    <g>
      <polygon class="cls-1" points="540.31 98.96 491.95 98.96 493.22 80.46 542.85 78.92 540.31 98.96"/>
      <polygon class="cls-1" points="435.32 98.96 386.96 98.96 388.24 80.46 437.87 78.92 435.32 98.96"/>
      <polygon class="cls-1" points="331.96 98.96 283.61 98.96 284.88 80.46 334.51 78.92 331.96 98.96"/>
      <polygon class="cls-1" points="489.19 100.28 442.11 100.28 440.62 80.24 487.92 78.92 489.19 100.28"/>
      <polygon class="cls-1" points="335.64 100.28 382.72 100.28 384.21 80.24 336.91 78.92 335.64 100.28"/>
    </g>
    <g>
      <polygon class="cls-1" points="802.76 98.96 754.4 98.96 755.67 80.46 805.3 78.92 802.76 98.96"/>
      <polygon class="cls-1" points="697.77 98.96 649.42 98.96 650.69 80.46 700.32 78.92 697.77 98.96"/>
      <polygon class="cls-1" points="594.41 98.96 546.06 98.96 547.33 80.46 596.96 78.92 594.41 98.96"/>
      <polygon class="cls-1" points="751.64 100.28 704.56 100.28 703.08 80.24 750.37 78.92 751.64 100.28"/>
      <polygon class="cls-1" points="598.09 100.28 645.17 100.28 646.66 80.24 599.36 78.92 598.09 100.28"/>
    </g>
    <g>
      <polygon class="cls-1" points="1054.41 79.33 1054.41 98.96 1016.85 98.96 1018.12 80.46 1054.41 79.33"/>
      <polygon class="cls-1" points="960.22 98.96 911.87 98.96 913.14 80.46 962.77 78.92 960.22 98.96"/>
      <polygon class="cls-1" points="856.87 98.96 808.51 98.96 809.78 80.46 859.41 78.92 856.87 98.96"/>
      <polygon class="cls-1" points="1014.1 100.28 967.01 100.28 965.53 80.24 1012.82 78.92 1014.1 100.28"/>
      <polygon class="cls-1" points="860.54 100.28 907.63 100.28 909.11 80.24 861.81 78.92 860.54 100.28"/>
    </g>
  </g>
  <g>
    <g>
      <polygon class="cls-1" points="260.62 123.35 212.27 123.35 213.54 104.85 263.17 103.31 260.62 123.35"/>
      <polygon class="cls-1" points="155.64 123.35 107.28 123.35 108.55 104.85 158.18 103.31 155.64 123.35"/>
      <polygon class="cls-1" points="52.28 123.35 3.92 123.35 5.19 104.85 54.82 103.31 52.28 123.35"/>
      <polygon class="cls-1" points="209.51 124.67 162.42 124.67 160.94 104.63 208.24 103.31 209.51 124.67"/>
      <polygon class="cls-1" points="55.95 124.67 103.04 124.67 104.52 104.63 57.23 103.31 55.95 124.67"/>
    </g>
    <g>
      <polygon class="cls-1" points="523.07 123.35 474.72 123.35 475.99 104.85 525.62 103.31 523.07 123.35"/>
      <polygon class="cls-1" points="418.09 123.35 369.73 123.35 371 104.85 420.63 103.31 418.09 123.35"/>
      <polygon class="cls-1" points="314.73 123.35 266.37 123.35 267.65 104.85 317.28 103.31 314.73 123.35"/>
      <polygon class="cls-1" points="471.96 124.67 424.88 124.67 423.39 104.63 470.69 103.31 471.96 124.67"/>
      <polygon class="cls-1" points="318.41 124.67 365.49 124.67 366.98 104.63 319.68 103.31 318.41 124.67"/>
    </g>
    <g>
      <polygon class="cls-1" points="785.52 123.35 737.17 123.35 738.44 104.85 788.07 103.31 785.52 123.35"/>
      <polygon class="cls-1" points="680.54 123.35 632.18 123.35 633.46 104.85 683.09 103.31 680.54 123.35"/>
      <polygon class="cls-1" points="577.18 123.35 528.83 123.35 530.1 104.85 579.73 103.31 577.18 123.35"/>
      <polygon class="cls-1" points="734.41 124.67 687.33 124.67 685.84 104.63 733.14 103.31 734.41 124.67"/>
      <polygon class="cls-1" points="580.86 124.67 627.94 124.67 629.43 104.63 582.13 103.31 580.86 124.67"/>
    </g>
    <g>
      <polygon class="cls-1" points="1047.98 123.35 999.62 123.35 1000.89 104.85 1050.52 103.31 1047.98 123.35"/>
      <polygon class="cls-1" points="942.99 123.35 894.64 123.35 895.91 104.85 945.54 103.31 942.99 123.35"/>
      <polygon class="cls-1" points="839.63 123.35 791.28 123.35 792.55 104.85 842.18 103.31 839.63 123.35"/>
      <polygon class="cls-1" points="996.86 124.67 949.78 124.67 948.29 104.63 995.59 103.31 996.86 124.67"/>
      <polygon class="cls-1" points="843.31 124.67 890.39 124.67 891.88 104.63 844.58 103.31 843.31 124.67"/>
    </g>
  </g>
  <g>
    <g>
      <polygon class="cls-1" points="277.85 147.75 229.5 147.75 230.77 129.25 280.4 127.7 277.85 147.75"/>
      <polygon class="cls-1" points="172.87 147.75 124.51 147.75 125.79 129.25 175.41 127.7 172.87 147.75"/>
      <polygon class="cls-1" points="69.51 147.75 21.15 147.75 22.43 129.25 72.06 127.7 69.51 147.75"/>
      <polygon class="cls-1" points="226.74 149.07 179.66 149.07 178.17 129.03 225.47 127.7 226.74 149.07"/>
      <polygon class="cls-1" points="73.19 149.07 120.27 149.07 121.76 129.03 74.46 127.7 73.19 149.07"/>
    </g>
    <g>
      <polygon class="cls-1" points="540.31 147.75 491.95 147.75 493.22 129.25 542.85 127.7 540.31 147.75"/>
      <polygon class="cls-1" points="435.32 147.75 386.96 147.75 388.24 129.25 437.87 127.7 435.32 147.75"/>
      <polygon class="cls-1" points="331.96 147.75 283.61 147.75 284.88 129.25 334.51 127.7 331.96 147.75"/>
      <polygon class="cls-1" points="489.19 149.07 442.11 149.07 440.62 129.03 487.92 127.7 489.19 149.07"/>
      <polygon class="cls-1" points="335.64 149.07 382.72 149.07 384.21 129.03 336.91 127.7 335.64 149.07"/>
    </g>
    <g>
      <polygon class="cls-1" points="802.76 147.75 754.4 147.75 755.67 129.25 805.3 127.7 802.76 147.75"/>
      <polygon class="cls-1" points="697.77 147.75 649.42 147.75 650.69 129.25 700.32 127.7 697.77 147.75"/>
      <polygon class="cls-1" points="594.41 147.75 546.06 147.75 547.33 129.25 596.96 127.7 594.41 147.75"/>
      <polygon class="cls-1" points="751.64 149.07 704.56 149.07 703.08 129.03 750.37 127.7 751.64 149.07"/>
      <polygon class="cls-1" points="598.09 149.07 645.17 149.07 646.66 129.03 599.36 127.7 598.09 149.07"/>
    </g>
    <g>
      <polygon class="cls-1" points="1054.41 128.12 1054.41 147.75 1016.85 147.75 1018.12 129.25 1054.41 128.12"/>
      <polygon class="cls-1" points="960.22 147.75 911.87 147.75 913.14 129.25 962.77 127.7 960.22 147.75"/>
      <polygon class="cls-1" points="856.87 147.75 808.51 147.75 809.78 129.25 859.41 127.7 856.87 147.75"/>
      <polygon class="cls-1" points="1014.1 149.07 967.01 149.07 965.53 129.03 1012.82 127.7 1014.1 149.07"/>
      <polygon class="cls-1" points="860.54 149.07 907.63 149.07 909.11 129.03 861.81 127.7 860.54 149.07"/>
    </g>
  </g>
  <g>
    <g>
      <polygon class="cls-1" points="260.62 172.14 212.27 172.14 213.54 153.64 263.17 152.1 260.62 172.14"/>
      <polygon class="cls-1" points="155.64 172.14 107.28 172.14 108.55 153.64 158.18 152.1 155.64 172.14"/>
      <polygon class="cls-1" points="52.28 172.14 3.92 172.14 5.19 153.64 54.82 152.1 52.28 172.14"/>
      <polygon class="cls-1" points="209.51 173.46 162.42 173.46 160.94 153.42 208.24 152.1 209.51 173.46"/>
      <polygon class="cls-1" points="55.95 173.46 103.04 173.46 104.52 153.42 57.23 152.1 55.95 173.46"/>
    </g>
    <g>
      <polygon class="cls-1" points="523.07 172.14 474.72 172.14 475.99 153.64 525.62 152.1 523.07 172.14"/>
      <polygon class="cls-1" points="418.09 172.14 369.73 172.14 371 153.64 420.63 152.1 418.09 172.14"/>
      <polygon class="cls-1" points="314.73 172.14 266.37 172.14 267.65 153.64 317.28 152.1 314.73 172.14"/>
      <polygon class="cls-1" points="471.96 173.46 424.88 173.46 423.39 153.42 470.69 152.1 471.96 173.46"/>
      <polygon class="cls-1" points="318.41 173.46 365.49 173.46 366.98 153.42 319.68 152.1 318.41 173.46"/>
    </g>
    <g>
      <polygon class="cls-1" points="785.52 172.14 737.17 172.14 738.44 153.64 788.07 152.1 785.52 172.14"/>
      <polygon class="cls-1" points="680.54 172.14 632.18 172.14 633.46 153.64 683.09 152.1 680.54 172.14"/>
      <polygon class="cls-1" points="577.18 172.14 528.83 172.14 530.1 153.64 579.73 152.1 577.18 172.14"/>
      <polygon class="cls-1" points="734.41 173.46 687.33 173.46 685.84 153.42 733.14 152.1 734.41 173.46"/>
      <polygon class="cls-1" points="580.86 173.46 627.94 173.46 629.43 153.42 582.13 152.1 580.86 173.46"/>
    </g>
    <g>
      <polygon class="cls-1" points="1047.98 172.14 999.62 172.14 1000.89 153.64 1050.52 152.1 1047.98 172.14"/>
      <polygon class="cls-1" points="942.99 172.14 894.64 172.14 895.91 153.64 945.54 152.1 942.99 172.14"/>
      <polygon class="cls-1" points="839.63 172.14 791.28 172.14 792.55 153.64 842.18 152.1 839.63 172.14"/>
      <polygon class="cls-1" points="996.86 173.46 949.78 173.46 948.29 153.42 995.59 152.1 996.86 173.46"/>
      <polygon class="cls-1" points="843.31 173.46 890.39 173.46 891.88 153.42 844.58 152.1 843.31 173.46"/>
    </g>
  </g>
  <g>
    <g>
      <polygon class="cls-1" points="277.85 196.54 229.5 196.54 230.77 178.04 280.4 176.49 277.85 196.54"/>
      <polygon class="cls-1" points="172.87 196.54 124.51 196.54 125.79 178.04 175.41 176.49 172.87 196.54"/>
      <polygon class="cls-1" points="69.51 196.54 21.15 196.54 22.43 178.04 72.06 176.49 69.51 196.54"/>
      <polygon class="cls-1" points="226.74 197.86 179.66 197.86 178.17 177.82 225.47 176.49 226.74 197.86"/>
      <polygon class="cls-1" points="73.19 197.86 120.27 197.86 121.76 177.82 74.46 176.49 73.19 197.86"/>
    </g>
    <g>
      <polygon class="cls-1" points="540.31 196.54 491.95 196.54 493.22 178.04 542.85 176.49 540.31 196.54"/>
      <polygon class="cls-1" points="435.32 196.54 386.96 196.54 388.24 178.04 437.87 176.49 435.32 196.54"/>
      <polygon class="cls-1" points="331.96 196.54 283.61 196.54 284.88 178.04 334.51 176.49 331.96 196.54"/>
      <polygon class="cls-1" points="489.19 197.86 442.11 197.86 440.62 177.82 487.92 176.49 489.19 197.86"/>
      <polygon class="cls-1" points="335.64 197.86 382.72 197.86 384.21 177.82 336.91 176.49 335.64 197.86"/>
    </g>
    <g>
      <polygon class="cls-1" points="802.76 196.54 754.4 196.54 755.67 178.04 805.3 176.49 802.76 196.54"/>
      <polygon class="cls-1" points="697.77 196.54 649.42 196.54 650.69 178.04 700.32 176.49 697.77 196.54"/>
      <polygon class="cls-1" points="594.41 196.54 546.06 196.54 547.33 178.04 596.96 176.49 594.41 196.54"/>
      <polygon class="cls-1" points="751.64 197.86 704.56 197.86 703.08 177.82 750.37 176.49 751.64 197.86"/>
      <polygon class="cls-1" points="598.09 197.86 645.17 197.86 646.66 177.82 599.36 176.49 598.09 197.86"/>
    </g>
    <g>
      <polygon class="cls-1" points="1054.41 176.91 1054.41 196.54 1016.85 196.54 1018.12 178.04 1054.41 176.91"/>
      <polygon class="cls-1" points="960.22 196.54 911.87 196.54 913.14 178.04 962.77 176.49 960.22 196.54"/>
      <polygon class="cls-1" points="856.87 196.54 808.51 196.54 809.78 178.04 859.41 176.49 856.87 196.54"/>
      <polygon class="cls-1" points="1014.1 197.86 967.01 197.86 965.53 177.82 1012.82 176.49 1014.1 197.86"/>
      <polygon class="cls-1" points="860.54 197.86 907.63 197.86 909.11 177.82 861.81 176.49 860.54 197.86"/>
    </g>
  </g>
  <g>
    <g>
      <polygon class="cls-1" points="260.62 220.93 212.27 220.93 213.54 202.43 263.17 200.89 260.62 220.93"/>
      <polygon class="cls-1" points="155.64 220.93 107.28 220.93 108.55 202.43 158.18 200.89 155.64 220.93"/>
      <polygon class="cls-1" points="52.28 220.93 3.92 220.93 5.19 202.43 54.82 200.89 52.28 220.93"/>
      <polygon class="cls-1" points="209.51 222.25 162.42 222.25 160.94 202.21 208.24 200.89 209.51 222.25"/>
      <polygon class="cls-1" points="55.95 222.25 103.04 222.25 104.52 202.21 57.23 200.89 55.95 222.25"/>
    </g>
    <g>
      <polygon class="cls-1" points="523.07 220.93 474.72 220.93 475.99 202.43 525.62 200.89 523.07 220.93"/>
      <polygon class="cls-1" points="418.09 220.93 369.73 220.93 371 202.43 420.63 200.89 418.09 220.93"/>
      <polygon class="cls-1" points="314.73 220.93 266.37 220.93 267.65 202.43 317.28 200.89 314.73 220.93"/>
      <polygon class="cls-1" points="471.96 222.25 424.88 222.25 423.39 202.21 470.69 200.89 471.96 222.25"/>
      <polygon class="cls-1" points="318.41 222.25 365.49 222.25 366.98 202.21 319.68 200.89 318.41 222.25"/>
    </g>
    <g>
      <polygon class="cls-1" points="785.52 220.93 737.17 220.93 738.44 202.43 788.07 200.89 785.52 220.93"/>
      <polygon class="cls-1" points="680.54 220.93 632.18 220.93 633.46 202.43 683.09 200.89 680.54 220.93"/>
      <polygon class="cls-1" points="577.18 220.93 528.83 220.93 530.1 202.43 579.73 200.89 577.18 220.93"/>
      <polygon class="cls-1" points="734.41 222.25 687.33 222.25 685.84 202.21 733.14 200.89 734.41 222.25"/>
      <polygon class="cls-1" points="580.86 222.25 627.94 222.25 629.43 202.21 582.13 200.89 580.86 222.25"/>
    </g>
    <g>
      <polygon class="cls-1" points="1047.98 220.93 999.62 220.93 1000.89 202.43 1050.52 200.89 1047.98 220.93"/>
      <polygon class="cls-1" points="942.99 220.93 894.64 220.93 895.91 202.43 945.54 200.89 942.99 220.93"/>
      <polygon class="cls-1" points="839.63 220.93 791.28 220.93 792.55 202.43 842.18 200.89 839.63 220.93"/>
      <polygon class="cls-1" points="996.86 222.25 949.78 222.25 948.29 202.21 995.59 200.89 996.86 222.25"/>
      <polygon class="cls-1" points="843.31 222.25 890.39 222.25 891.88 202.21 844.58 200.89 843.31 222.25"/>
    </g>
  </g>
  <g>
    <g>
      <polygon class="cls-1" points="277.85 245.33 229.5 245.33 230.77 226.83 280.4 225.28 277.85 245.33"/>
      <polygon class="cls-1" points="172.87 245.33 124.51 245.33 125.79 226.83 175.41 225.28 172.87 245.33"/>
      <polygon class="cls-1" points="69.51 245.33 21.15 245.33 22.43 226.83 72.06 225.28 69.51 245.33"/>
      <polygon class="cls-1" points="226.74 246.65 179.66 246.65 178.17 226.6 225.47 225.28 226.74 246.65"/>
      <polygon class="cls-1" points="73.19 246.65 120.27 246.65 121.76 226.6 74.46 225.28 73.19 246.65"/>
    </g>
    <g>
      <polygon class="cls-1" points="540.31 245.33 491.95 245.33 493.22 226.83 542.85 225.28 540.31 245.33"/>
      <polygon class="cls-1" points="435.32 245.33 386.96 245.33 388.24 226.83 437.87 225.28 435.32 245.33"/>
      <polygon class="cls-1" points="331.96 245.33 283.61 245.33 284.88 226.83 334.51 225.28 331.96 245.33"/>
      <polygon class="cls-1" points="489.19 246.65 442.11 246.65 440.62 226.6 487.92 225.28 489.19 246.65"/>
      <polygon class="cls-1" points="335.64 246.65 382.72 246.65 384.21 226.6 336.91 225.28 335.64 246.65"/>
    </g>
    <g>
      <polygon class="cls-1" points="802.76 245.33 754.4 245.33 755.67 226.83 805.3 225.28 802.76 245.33"/>
      <polygon class="cls-1" points="697.77 245.33 649.42 245.33 650.69 226.83 700.32 225.28 697.77 245.33"/>
      <polygon class="cls-1" points="594.41 245.33 546.06 245.33 547.33 226.83 596.96 225.28 594.41 245.33"/>
      <polygon class="cls-1" points="751.64 246.65 704.56 246.65 703.08 226.6 750.37 225.28 751.64 246.65"/>
      <polygon class="cls-1" points="598.09 246.65 645.17 246.65 646.66 226.6 599.36 225.28 598.09 246.65"/>
    </g>
    <g>
      <polygon class="cls-1" points="1054.41 225.7 1054.41 245.33 1016.85 245.33 1018.12 226.82 1054.41 225.7"/>
      <polygon class="cls-1" points="960.22 245.33 911.87 245.33 913.14 226.83 962.77 225.28 960.22 245.33"/>
      <polygon class="cls-1" points="856.87 245.33 808.51 245.33 809.78 226.83 859.41 225.28 856.87 245.33"/>
      <polygon class="cls-1" points="1014.1 246.65 967.01 246.65 965.53 226.6 1012.82 225.28 1014.1 246.65"/>
      <polygon class="cls-1" points="860.54 246.65 907.63 246.65 909.11 226.6 861.81 225.28 860.54 246.65"/>
    </g>
  </g>
  <g>
    <g>
      <polygon class="cls-1" points="260.62 269.72 212.27 269.72 213.54 251.22 263.17 249.68 260.62 269.72"/>
      <polygon class="cls-1" points="155.64 269.72 107.28 269.72 108.55 251.22 158.18 249.68 155.64 269.72"/>
      <polygon class="cls-1" points="52.28 269.72 3.92 269.72 5.19 251.22 54.82 249.68 52.28 269.72"/>
      <polygon class="cls-1" points="209.51 271.04 162.42 271.04 160.94 251 208.24 249.68 209.51 271.04"/>
      <polygon class="cls-1" points="55.95 271.04 103.04 271.04 104.52 251 57.23 249.68 55.95 271.04"/>
    </g>
    <g>
      <polygon class="cls-1" points="523.07 269.72 474.72 269.72 475.99 251.22 525.62 249.68 523.07 269.72"/>
      <polygon class="cls-1" points="418.09 269.72 369.73 269.72 371 251.22 420.63 249.68 418.09 269.72"/>
      <polygon class="cls-1" points="314.73 269.72 266.37 269.72 267.65 251.22 317.28 249.68 314.73 269.72"/>
      <polygon class="cls-1" points="471.96 271.04 424.88 271.04 423.39 251 470.69 249.68 471.96 271.04"/>
      <polygon class="cls-1" points="318.41 271.04 365.49 271.04 366.98 251 319.68 249.68 318.41 271.04"/>
    </g>
    <g>
      <polygon class="cls-1" points="785.52 269.72 737.17 269.72 738.44 251.22 788.07 249.68 785.52 269.72"/>
      <polygon class="cls-1" points="680.54 269.72 632.18 269.72 633.46 251.22 683.09 249.68 680.54 269.72"/>
      <polygon class="cls-1" points="577.18 269.72 528.83 269.72 530.1 251.22 579.73 249.68 577.18 269.72"/>
      <polygon class="cls-1" points="734.41 271.04 687.33 271.04 685.84 251 733.14 249.68 734.41 271.04"/>
      <polygon class="cls-1" points="580.86 271.04 627.94 271.04 629.43 251 582.13 249.68 580.86 271.04"/>
    </g>
    <g>
      <polygon class="cls-1" points="1047.98 269.72 999.62 269.72 1000.89 251.22 1050.52 249.68 1047.98 269.72"/>
      <polygon class="cls-1" points="942.99 269.72 894.64 269.72 895.91 251.22 945.54 249.68 942.99 269.72"/>
      <polygon class="cls-1" points="839.63 269.72 791.28 269.72 792.55 251.22 842.18 249.68 839.63 269.72"/>
      <polygon class="cls-1" points="996.86 271.04 949.78 271.04 948.29 251 995.59 249.68 996.86 271.04"/>
      <polygon class="cls-1" points="843.31 271.04 890.39 271.04 891.88 251 844.58 249.68 843.31 271.04"/>
    </g>
  </g>
  <g>
    <g>
      <polygon class="cls-1" points="277.85 294.12 229.5 294.12 230.77 275.61 280.4 274.07 277.85 294.12"/>
      <polygon class="cls-1" points="172.87 294.12 124.51 294.12 125.79 275.61 175.41 274.07 172.87 294.12"/>
      <polygon class="cls-1" points="69.51 294.12 21.15 294.12 22.43 275.61 72.06 274.07 69.51 294.12"/>
      <polygon class="cls-1" points="226.74 295.44 179.66 295.44 178.17 275.39 225.47 274.07 226.74 295.44"/>
      <polygon class="cls-1" points="73.19 295.44 120.27 295.44 121.76 275.39 74.46 274.07 73.19 295.44"/>
    </g>
    <g>
      <polygon class="cls-1" points="540.31 294.12 491.95 294.12 493.22 275.61 542.85 274.07 540.31 294.12"/>
      <polygon class="cls-1" points="435.32 294.12 386.96 294.12 388.24 275.61 437.87 274.07 435.32 294.12"/>
      <polygon class="cls-1" points="331.96 294.12 283.61 294.12 284.88 275.61 334.51 274.07 331.96 294.12"/>
      <polygon class="cls-1" points="489.19 295.44 442.11 295.44 440.62 275.39 487.92 274.07 489.19 295.44"/>
      <polygon class="cls-1" points="335.64 295.44 382.72 295.44 384.21 275.39 336.91 274.07 335.64 295.44"/>
    </g>
    <g>
      <polygon class="cls-1" points="802.76 294.12 754.4 294.12 755.67 275.61 805.3 274.07 802.76 294.12"/>
      <polygon class="cls-1" points="697.77 294.12 649.42 294.12 650.69 275.61 700.32 274.07 697.77 294.12"/>
      <polygon class="cls-1" points="594.41 294.12 546.06 294.12 547.33 275.61 596.96 274.07 594.41 294.12"/>
      <polygon class="cls-1" points="751.64 295.44 704.56 295.44 703.08 275.39 750.37 274.07 751.64 295.44"/>
      <polygon class="cls-1" points="598.09 295.44 645.17 295.44 646.66 275.39 599.36 274.07 598.09 295.44"/>
    </g>
    <g>
      <polygon class="cls-1" points="1054.41 274.49 1054.41 294.11 1016.85 294.11 1018.12 275.61 1054.41 274.49"/>
      <polygon class="cls-1" points="960.22 294.12 911.87 294.12 913.14 275.61 962.77 274.07 960.22 294.12"/>
      <polygon class="cls-1" points="856.87 294.12 808.51 294.12 809.78 275.61 859.41 274.07 856.87 294.12"/>
      <polygon class="cls-1" points="1014.1 295.44 967.01 295.44 965.53 275.39 1012.82 274.07 1014.1 295.44"/>
      <polygon class="cls-1" points="860.54 295.44 907.63 295.44 909.11 275.39 861.81 274.07 860.54 295.44"/>
    </g>
  </g>
  <g>
    <g>
      <polygon class="cls-1" points="260.62 318.51 212.27 318.51 213.54 300.01 263.17 298.47 260.62 318.51"/>
      <polygon class="cls-1" points="155.64 318.51 107.28 318.51 108.55 300.01 158.18 298.47 155.64 318.51"/>
      <polygon class="cls-1" points="52.28 318.51 3.92 318.51 5.19 300.01 54.82 298.47 52.28 318.51"/>
      <polygon class="cls-1" points="209.51 319.83 162.42 319.83 160.94 299.79 208.24 298.47 209.51 319.83"/>
      <polygon class="cls-1" points="55.95 319.83 103.04 319.83 104.52 299.79 57.23 298.47 55.95 319.83"/>
    </g>
    <g>
      <polygon class="cls-1" points="523.07 318.51 474.72 318.51 475.99 300.01 525.62 298.47 523.07 318.51"/>
      <polygon class="cls-1" points="418.09 318.51 369.73 318.51 371 300.01 420.63 298.47 418.09 318.51"/>
      <polygon class="cls-1" points="314.73 318.51 266.37 318.51 267.65 300.01 317.28 298.47 314.73 318.51"/>
      <polygon class="cls-1" points="471.96 319.83 424.88 319.83 423.39 299.79 470.69 298.47 471.96 319.83"/>
      <polygon class="cls-1" points="318.41 319.83 365.49 319.83 366.98 299.79 319.68 298.47 318.41 319.83"/>
    </g>
    <g>
      <polygon class="cls-1" points="785.52 318.51 737.17 318.51 738.44 300.01 788.07 298.47 785.52 318.51"/>
      <polygon class="cls-1" points="680.54 318.51 632.18 318.51 633.46 300.01 683.09 298.47 680.54 318.51"/>
      <polygon class="cls-1" points="577.18 318.51 528.83 318.51 530.1 300.01 579.73 298.47 577.18 318.51"/>
      <polygon class="cls-1" points="734.41 319.83 687.33 319.83 685.84 299.79 733.14 298.47 734.41 319.83"/>
      <polygon class="cls-1" points="580.86 319.83 627.94 319.83 629.43 299.79 582.13 298.47 580.86 319.83"/>
    </g>
    <g>
      <polygon class="cls-1" points="1047.98 318.51 999.62 318.51 1000.89 300.01 1050.52 298.47 1047.98 318.51"/>
      <polygon class="cls-1" points="942.99 318.51 894.64 318.51 895.91 300.01 945.54 298.47 942.99 318.51"/>
      <polygon class="cls-1" points="839.63 318.51 791.28 318.51 792.55 300.01 842.18 298.47 839.63 318.51"/>
      <polygon class="cls-1" points="996.86 319.83 949.78 319.83 948.29 299.79 995.59 298.47 996.86 319.83"/>
      <polygon class="cls-1" points="843.31 319.83 890.39 319.83 891.88 299.79 844.58 298.47 843.31 319.83"/>
    </g>
  </g>
  <g>
    <g>
      <polygon class="cls-1" points="277.85 342.9 229.5 342.9 230.77 324.4 280.4 322.86 277.85 342.9"/>
      <polygon class="cls-1" points="172.87 342.9 124.51 342.9 125.79 324.4 175.41 322.86 172.87 342.9"/>
      <polygon class="cls-1" points="69.51 342.9 21.15 342.9 22.43 324.4 72.06 322.86 69.51 342.9"/>
      <polygon class="cls-1" points="226.74 344.23 179.66 344.23 178.17 324.18 225.47 322.86 226.74 344.23"/>
      <polygon class="cls-1" points="73.19 344.23 120.27 344.23 121.76 324.18 74.46 322.86 73.19 344.23"/>
    </g>
    <g>
      <polygon class="cls-1" points="540.31 342.9 491.95 342.9 493.22 324.4 542.85 322.86 540.31 342.9"/>
      <polygon class="cls-1" points="435.32 342.9 386.96 342.9 388.24 324.4 437.87 322.86 435.32 342.9"/>
      <polygon class="cls-1" points="331.96 342.9 283.61 342.9 284.88 324.4 334.51 322.86 331.96 342.9"/>
      <polygon class="cls-1" points="489.19 344.23 442.11 344.23 440.62 324.18 487.92 322.86 489.19 344.23"/>
      <polygon class="cls-1" points="335.64 344.23 382.72 344.23 384.21 324.18 336.91 322.86 335.64 344.23"/>
    </g>
    <g>
      <polygon class="cls-1" points="802.76 342.9 754.4 342.9 755.67 324.4 805.3 322.86 802.76 342.9"/>
      <polygon class="cls-1" points="697.77 342.9 649.42 342.9 650.69 324.4 700.32 322.86 697.77 342.9"/>
      <polygon class="cls-1" points="594.41 342.9 546.06 342.9 547.33 324.4 596.96 322.86 594.41 342.9"/>
      <polygon class="cls-1" points="751.64 344.23 704.56 344.23 703.08 324.18 750.37 322.86 751.64 344.23"/>
      <polygon class="cls-1" points="598.09 344.23 645.17 344.23 646.66 324.18 599.36 322.86 598.09 344.23"/>
    </g>
    <g>
      <polygon class="cls-1" points="1054.41 323.28 1054.41 342.9 1016.85 342.9 1018.12 324.4 1054.41 323.28"/>
      <polygon class="cls-1" points="960.22 342.9 911.87 342.9 913.14 324.4 962.77 322.86 960.22 342.9"/>
      <polygon class="cls-1" points="856.87 342.9 808.51 342.9 809.78 324.4 859.41 322.86 856.87 342.9"/>
      <polygon class="cls-1" points="1014.1 344.23 967.01 344.23 965.53 324.18 1012.82 322.86 1014.1 344.23"/>
      <polygon class="cls-1" points="860.54 344.23 907.63 344.23 909.11 324.18 861.81 322.86 860.54 344.23"/>
    </g>
  </g>
  <g>
    <g>
      <polygon class="cls-1" points="260.62 367.3 212.27 367.3 213.54 348.8 263.17 347.26 260.62 367.3"/>
      <polygon class="cls-1" points="155.64 367.3 107.28 367.3 108.55 348.8 158.18 347.26 155.64 367.3"/>
      <polygon class="cls-1" points="52.28 367.3 3.92 367.3 5.19 348.8 54.82 347.26 52.28 367.3"/>
      <polygon class="cls-1" points="209.51 368.62 162.42 368.62 160.94 348.58 208.24 347.26 209.51 368.62"/>
      <polygon class="cls-1" points="55.95 368.62 103.04 368.62 104.52 348.58 57.23 347.26 55.95 368.62"/>
    </g>
    <g>
      <polygon class="cls-1" points="523.07 367.3 474.72 367.3 475.99 348.8 525.62 347.26 523.07 367.3"/>
      <polygon class="cls-1" points="418.09 367.3 369.73 367.3 371 348.8 420.63 347.26 418.09 367.3"/>
      <polygon class="cls-1" points="314.73 367.3 266.37 367.3 267.65 348.8 317.28 347.26 314.73 367.3"/>
      <polygon class="cls-1" points="471.96 368.62 424.88 368.62 423.39 348.58 470.69 347.26 471.96 368.62"/>
      <polygon class="cls-1" points="318.41 368.62 365.49 368.62 366.98 348.58 319.68 347.26 318.41 368.62"/>
    </g>
    <g>
      <polygon class="cls-1" points="785.52 367.3 737.17 367.3 738.44 348.8 788.07 347.26 785.52 367.3"/>
      <polygon class="cls-1" points="680.54 367.3 632.18 367.3 633.46 348.8 683.09 347.26 680.54 367.3"/>
      <polygon class="cls-1" points="577.18 367.3 528.83 367.3 530.1 348.8 579.73 347.26 577.18 367.3"/>
      <polygon class="cls-1" points="734.41 368.62 687.33 368.62 685.84 348.58 733.14 347.26 734.41 368.62"/>
      <polygon class="cls-1" points="580.86 368.62 627.94 368.62 629.43 348.58 582.13 347.26 580.86 368.62"/>
    </g>
    <g>
      <polygon class="cls-1" points="1047.98 367.3 999.62 367.3 1000.89 348.8 1050.52 347.26 1047.98 367.3"/>
      <polygon class="cls-1" points="942.99 367.3 894.64 367.3 895.91 348.8 945.54 347.26 942.99 367.3"/>
      <polygon class="cls-1" points="839.63 367.3 791.28 367.3 792.55 348.8 842.18 347.26 839.63 367.3"/>
      <polygon class="cls-1" points="996.86 368.62 949.78 368.62 948.29 348.58 995.59 347.26 996.86 368.62"/>
      <polygon class="cls-1" points="843.31 368.62 890.39 368.62 891.88 348.58 844.58 347.26 843.31 368.62"/>
    </g>
  </g>
  <g>
    <g>
      <polygon class="cls-1" points="277.85 391.69 229.5 391.69 230.77 373.19 280.4 371.65 277.85 391.69"/>
      <polygon class="cls-1" points="172.87 391.69 124.51 391.69 125.79 373.19 175.41 371.65 172.87 391.69"/>
      <polygon class="cls-1" points="69.51 391.69 21.15 391.69 22.43 373.19 72.06 371.65 69.51 391.69"/>
      <polygon class="cls-1" points="226.74 393.02 179.66 393.02 178.17 372.97 225.47 371.65 226.74 393.02"/>
      <polygon class="cls-1" points="73.19 393.02 120.27 393.02 121.76 372.97 74.46 371.65 73.19 393.02"/>
    </g>
    <g>
      <polygon class="cls-1" points="540.31 391.69 491.95 391.69 493.22 373.19 542.85 371.65 540.31 391.69"/>
      <polygon class="cls-1" points="435.32 391.69 386.96 391.69 388.24 373.19 437.87 371.65 435.32 391.69"/>
      <polygon class="cls-1" points="331.96 391.69 283.61 391.69 284.88 373.19 334.51 371.65 331.96 391.69"/>
      <polygon class="cls-1" points="489.19 393.02 442.11 393.02 440.62 372.97 487.92 371.65 489.19 393.02"/>
      <polygon class="cls-1" points="335.64 393.02 382.72 393.02 384.21 372.97 336.91 371.65 335.64 393.02"/>
    </g>
    <g>
      <polygon class="cls-1" points="802.76 391.69 754.4 391.69 755.67 373.19 805.3 371.65 802.76 391.69"/>
      <polygon class="cls-1" points="697.77 391.69 649.42 391.69 650.69 373.19 700.32 371.65 697.77 391.69"/>
      <polygon class="cls-1" points="594.41 391.69 546.06 391.69 547.33 373.19 596.96 371.65 594.41 391.69"/>
      <polygon class="cls-1" points="751.64 393.02 704.56 393.02 703.08 372.97 750.37 371.65 751.64 393.02"/>
      <polygon class="cls-1" points="598.09 393.02 645.17 393.02 646.66 372.97 599.36 371.65 598.09 393.02"/>
    </g>
    <g>
      <polygon class="cls-1" points="1054.41 372.07 1054.41 391.69 1016.85 391.69 1018.12 373.19 1054.41 372.07"/>
      <polygon class="cls-1" points="960.22 391.69 911.87 391.69 913.14 373.19 962.77 371.65 960.22 391.69"/>
      <polygon class="cls-1" points="856.87 391.69 808.51 391.69 809.78 373.19 859.41 371.65 856.87 391.69"/>
      <polygon class="cls-1" points="1014.1 393.02 967.01 393.02 965.53 372.97 1012.82 371.65 1014.1 393.02"/>
      <polygon class="cls-1" points="860.54 393.02 907.63 393.02 909.11 372.97 861.81 371.65 860.54 393.02"/>
    </g>
  </g>
  <g>
    <g>
      <polygon class="cls-1" points="260.62 416.09 212.27 416.09 213.54 397.59 263.17 396.05 260.62 416.09"/>
      <polygon class="cls-1" points="155.64 416.09 107.28 416.09 108.55 397.59 158.18 396.05 155.64 416.09"/>
      <polygon class="cls-1" points="52.28 416.09 3.92 416.09 5.19 397.59 54.82 396.05 52.28 416.09"/>
      <polygon class="cls-1" points="209.51 417.41 162.42 417.41 160.94 397.37 208.24 396.05 209.51 417.41"/>
      <polygon class="cls-1" points="55.95 417.41 103.04 417.41 104.52 397.37 57.23 396.05 55.95 417.41"/>
    </g>
    <g>
      <polygon class="cls-1" points="523.07 416.09 474.72 416.09 475.99 397.59 525.62 396.05 523.07 416.09"/>
      <polygon class="cls-1" points="418.09 416.09 369.73 416.09 371 397.59 420.63 396.05 418.09 416.09"/>
      <polygon class="cls-1" points="314.73 416.09 266.37 416.09 267.65 397.59 317.28 396.05 314.73 416.09"/>
      <polygon class="cls-1" points="471.96 417.41 424.88 417.41 423.39 397.37 470.69 396.05 471.96 417.41"/>
      <polygon class="cls-1" points="318.41 417.41 365.49 417.41 366.98 397.37 319.68 396.05 318.41 417.41"/>
    </g>
    <g>
      <polygon class="cls-1" points="785.52 416.09 737.17 416.09 738.44 397.59 788.07 396.05 785.52 416.09"/>
      <polygon class="cls-1" points="680.54 416.09 632.18 416.09 633.46 397.59 683.09 396.05 680.54 416.09"/>
      <polygon class="cls-1" points="577.18 416.09 528.83 416.09 530.1 397.59 579.73 396.05 577.18 416.09"/>
      <polygon class="cls-1" points="734.41 417.41 687.33 417.41 685.84 397.37 733.14 396.05 734.41 417.41"/>
      <polygon class="cls-1" points="580.86 417.41 627.94 417.41 629.43 397.37 582.13 396.05 580.86 417.41"/>
    </g>
    <g>
      <polygon class="cls-1" points="1047.98 416.09 999.62 416.09 1000.89 397.59 1050.52 396.05 1047.98 416.09"/>
      <polygon class="cls-1" points="942.99 416.09 894.64 416.09 895.91 397.59 945.54 396.05 942.99 416.09"/>
      <polygon class="cls-1" points="839.63 416.09 791.28 416.09 792.55 397.59 842.18 396.05 839.63 416.09"/>
      <polygon class="cls-1" points="996.86 417.41 949.78 417.41 948.29 397.37 995.59 396.05 996.86 417.41"/>
      <polygon class="cls-1" points="843.31 417.41 890.39 417.41 891.88 397.37 844.58 396.05 843.31 417.41"/>
    </g>
  </g>
  <g>
    <g>
      <polygon class="cls-1" points="277.85 440.48 229.5 440.48 230.77 421.98 280.4 420.44 277.85 440.48"/>
      <polygon class="cls-1" points="172.87 440.48 124.51 440.48 125.79 421.98 175.41 420.44 172.87 440.48"/>
      <polygon class="cls-1" points="69.51 440.48 21.15 440.48 22.43 421.98 72.06 420.44 69.51 440.48"/>
      <polygon class="cls-1" points="226.74 441.8 179.66 441.8 178.17 421.76 225.47 420.44 226.74 441.8"/>
      <polygon class="cls-1" points="73.19 441.8 120.27 441.8 121.76 421.76 74.46 420.44 73.19 441.8"/>
    </g>
    <g>
      <polygon class="cls-1" points="540.31 440.48 491.95 440.48 493.22 421.98 542.85 420.44 540.31 440.48"/>
      <polygon class="cls-1" points="435.32 440.48 386.96 440.48 388.24 421.98 437.87 420.44 435.32 440.48"/>
      <polygon class="cls-1" points="331.96 440.48 283.61 440.48 284.88 421.98 334.51 420.44 331.96 440.48"/>
      <polygon class="cls-1" points="489.19 441.8 442.11 441.8 440.62 421.76 487.92 420.44 489.19 441.8"/>
      <polygon class="cls-1" points="335.64 441.8 382.72 441.8 384.21 421.76 336.91 420.44 335.64 441.8"/>
    </g>
    <g>
      <polygon class="cls-1" points="802.76 440.48 754.4 440.48 755.67 421.98 805.3 420.44 802.76 440.48"/>
      <polygon class="cls-1" points="697.77 440.48 649.42 440.48 650.69 421.98 700.32 420.44 697.77 440.48"/>
      <polygon class="cls-1" points="594.41 440.48 546.06 440.48 547.33 421.98 596.96 420.44 594.41 440.48"/>
      <polygon class="cls-1" points="751.64 441.8 704.56 441.8 703.08 421.76 750.37 420.44 751.64 441.8"/>
      <polygon class="cls-1" points="598.09 441.8 645.17 441.8 646.66 421.76 599.36 420.44 598.09 441.8"/>
    </g>
    <g>
      <polygon class="cls-1" points="1054.41 420.86 1054.41 440.48 1016.85 440.48 1018.12 421.98 1054.41 420.86"/>
      <polygon class="cls-1" points="960.22 440.48 911.87 440.48 913.14 421.98 962.77 420.44 960.22 440.48"/>
      <polygon class="cls-1" points="856.87 440.48 808.51 440.48 809.78 421.98 859.41 420.44 856.87 440.48"/>
      <polygon class="cls-1" points="1014.1 441.8 967.01 441.8 965.53 421.76 1012.82 420.44 1014.1 441.8"/>
      <polygon class="cls-1" points="860.54 441.8 907.63 441.8 909.11 421.76 861.81 420.44 860.54 441.8"/>
    </g>
  </g>
  <g>
    <g>
      <polygon class="cls-1" points="260.62 464.88 212.27 464.88 213.54 446.38 263.17 444.84 260.62 464.88"/>
      <polygon class="cls-1" points="155.64 464.88 107.28 464.88 108.55 446.38 158.18 444.84 155.64 464.88"/>
      <polygon class="cls-1" points="52.28 464.88 3.92 464.88 5.19 446.38 54.82 444.84 52.28 464.88"/>
      <polygon class="cls-1" points="209.51 466.2 162.42 466.2 160.94 446.16 208.24 444.84 209.51 466.2"/>
      <polygon class="cls-1" points="55.95 466.2 103.04 466.2 104.52 446.16 57.23 444.84 55.95 466.2"/>
    </g>
    <g>
      <polygon class="cls-1" points="523.07 464.88 474.72 464.88 475.99 446.38 525.62 444.84 523.07 464.88"/>
      <polygon class="cls-1" points="418.09 464.88 369.73 464.88 371 446.38 420.63 444.84 418.09 464.88"/>
      <polygon class="cls-1" points="314.73 464.88 266.37 464.88 267.65 446.38 317.28 444.84 314.73 464.88"/>
      <polygon class="cls-1" points="471.96 466.2 424.88 466.2 423.39 446.16 470.69 444.84 471.96 466.2"/>
      <polygon class="cls-1" points="318.41 466.2 365.49 466.2 366.98 446.16 319.68 444.84 318.41 466.2"/>
    </g>
    <g>
      <polygon class="cls-1" points="785.52 464.88 737.17 464.88 738.44 446.38 788.07 444.84 785.52 464.88"/>
      <polygon class="cls-1" points="680.54 464.88 632.18 464.88 633.46 446.38 683.09 444.84 680.54 464.88"/>
      <polygon class="cls-1" points="577.18 464.88 528.83 464.88 530.1 446.38 579.73 444.84 577.18 464.88"/>
      <polygon class="cls-1" points="734.41 466.2 687.33 466.2 685.84 446.16 733.14 444.84 734.41 466.2"/>
      <polygon class="cls-1" points="580.86 466.2 627.94 466.2 629.43 446.16 582.13 444.84 580.86 466.2"/>
    </g>
    <g>
      <polygon class="cls-1" points="1047.98 464.88 999.62 464.88 1000.89 446.38 1050.52 444.84 1047.98 464.88"/>
      <polygon class="cls-1" points="942.99 464.88 894.64 464.88 895.91 446.38 945.54 444.84 942.99 464.88"/>
      <polygon class="cls-1" points="839.63 464.88 791.28 464.88 792.55 446.38 842.18 444.84 839.63 464.88"/>
      <polygon class="cls-1" points="996.86 466.2 949.78 466.2 948.29 446.16 995.59 444.84 996.86 466.2"/>
      <polygon class="cls-1" points="843.31 466.2 890.39 466.2 891.88 446.16 844.58 444.84 843.31 466.2"/>
    </g>
  </g>
  <g>
    <g>
      <polygon class="cls-1" points="277.85 489.27 229.5 489.27 230.77 470.77 280.4 469.23 277.85 489.27"/>
      <polygon class="cls-1" points="172.87 489.27 124.51 489.27 125.79 470.77 175.41 469.23 172.87 489.27"/>
      <polygon class="cls-1" points="69.51 489.27 21.15 489.27 22.43 470.77 72.06 469.23 69.51 489.27"/>
      <polygon class="cls-1" points="226.74 490.59 179.66 490.59 178.17 470.55 225.47 469.23 226.74 490.59"/>
      <polygon class="cls-1" points="73.19 490.59 120.27 490.59 121.76 470.55 74.46 469.23 73.19 490.59"/>
    </g>
    <g>
      <polygon class="cls-1" points="540.31 489.27 491.95 489.27 493.22 470.77 542.85 469.23 540.31 489.27"/>
      <polygon class="cls-1" points="435.32 489.27 386.96 489.27 388.24 470.77 437.87 469.23 435.32 489.27"/>
      <polygon class="cls-1" points="331.96 489.27 283.61 489.27 284.88 470.77 334.51 469.23 331.96 489.27"/>
      <polygon class="cls-1" points="489.19 490.59 442.11 490.59 440.62 470.55 487.92 469.23 489.19 490.59"/>
      <polygon class="cls-1" points="335.64 490.59 382.72 490.59 384.21 470.55 336.91 469.23 335.64 490.59"/>
    </g>
    <g>
      <polygon class="cls-1" points="802.76 489.27 754.4 489.27 755.67 470.77 805.3 469.23 802.76 489.27"/>
      <polygon class="cls-1" points="697.77 489.27 649.42 489.27 650.69 470.77 700.32 469.23 697.77 489.27"/>
      <polygon class="cls-1" points="594.41 489.27 546.06 489.27 547.33 470.77 596.96 469.23 594.41 489.27"/>
      <polygon class="cls-1" points="751.64 490.59 704.56 490.59 703.08 470.55 750.37 469.23 751.64 490.59"/>
      <polygon class="cls-1" points="598.09 490.59 645.17 490.59 646.66 470.55 599.36 469.23 598.09 490.59"/>
    </g>
    <g>
      <polygon class="cls-1" points="1054.41 469.64 1054.41 489.27 1016.85 489.27 1018.12 470.77 1054.41 469.64"/>
      <polygon class="cls-1" points="960.22 489.27 911.87 489.27 913.14 470.77 962.77 469.23 960.22 489.27"/>
      <polygon class="cls-1" points="856.87 489.27 808.51 489.27 809.78 470.77 859.41 469.23 856.87 489.27"/>
      <polygon class="cls-1" points="1014.1 490.59 967.01 490.59 965.53 470.55 1012.82 469.23 1014.1 490.59"/>
      <polygon class="cls-1" points="860.54 490.59 907.63 490.59 909.11 470.55 861.81 469.23 860.54 490.59"/>
    </g>
  </g>
  <g>
    <g>
      <polygon class="cls-1" points="260.62 513.67 212.27 513.67 213.54 495.17 263.17 493.62 260.62 513.67"/>
      <polygon class="cls-1" points="155.64 513.67 107.28 513.67 108.55 495.17 158.18 493.62 155.64 513.67"/>
      <polygon class="cls-1" points="52.28 513.67 3.92 513.67 5.19 495.17 54.82 493.62 52.28 513.67"/>
      <polygon class="cls-1" points="209.51 514.99 162.42 514.99 160.94 494.95 208.24 493.62 209.51 514.99"/>
      <polygon class="cls-1" points="55.95 514.99 103.04 514.99 104.52 494.95 57.23 493.62 55.95 514.99"/>
    </g>
    <g>
      <polygon class="cls-1" points="523.07 513.67 474.72 513.67 475.99 495.17 525.62 493.62 523.07 513.67"/>
      <polygon class="cls-1" points="418.09 513.67 369.73 513.67 371 495.17 420.63 493.62 418.09 513.67"/>
      <polygon class="cls-1" points="314.73 513.67 266.37 513.67 267.65 495.17 317.28 493.62 314.73 513.67"/>
      <polygon class="cls-1" points="471.96 514.99 424.88 514.99 423.39 494.95 470.69 493.62 471.96 514.99"/>
      <polygon class="cls-1" points="318.41 514.99 365.49 514.99 366.98 494.95 319.68 493.62 318.41 514.99"/>
    </g>
    <g>
      <polygon class="cls-1" points="785.52 513.67 737.17 513.67 738.44 495.17 788.07 493.62 785.52 513.67"/>
      <polygon class="cls-1" points="680.54 513.67 632.18 513.67 633.46 495.17 683.09 493.62 680.54 513.67"/>
      <polygon class="cls-1" points="577.18 513.67 528.83 513.67 530.1 495.17 579.73 493.62 577.18 513.67"/>
      <polygon class="cls-1" points="734.41 514.99 687.33 514.99 685.84 494.95 733.14 493.62 734.41 514.99"/>
      <polygon class="cls-1" points="580.86 514.99 627.94 514.99 629.43 494.95 582.13 493.62 580.86 514.99"/>
    </g>
    <g>
      <polygon class="cls-1" points="1047.98 513.67 999.62 513.67 1000.89 495.17 1050.52 493.62 1047.98 513.67"/>
      <polygon class="cls-1" points="942.99 513.67 894.64 513.67 895.91 495.17 945.54 493.62 942.99 513.67"/>
      <polygon class="cls-1" points="839.63 513.67 791.28 513.67 792.55 495.17 842.18 493.62 839.63 513.67"/>
      <polygon class="cls-1" points="996.86 514.99 949.78 514.99 948.29 494.95 995.59 493.62 996.86 514.99"/>
      <polygon class="cls-1" points="843.31 514.99 890.39 514.99 891.88 494.95 844.58 493.62 843.31 514.99"/>
    </g>
  </g>
  <g>
    <g>
      <polygon class="cls-1" points="277.85 538.06 229.5 538.06 230.77 519.56 280.4 518.02 277.85 538.06"/>
      <polygon class="cls-1" points="172.87 538.06 124.51 538.06 125.79 519.56 175.41 518.02 172.87 538.06"/>
      <polygon class="cls-1" points="69.51 538.06 21.15 538.06 22.43 519.56 72.06 518.02 69.51 538.06"/>
      <polygon class="cls-1" points="226.74 539.38 179.66 539.38 178.17 519.34 225.47 518.02 226.74 539.38"/>
      <polygon class="cls-1" points="73.19 539.38 120.27 539.38 121.76 519.34 74.46 518.02 73.19 539.38"/>
      <polygon class="cls-1" points="17.21 31.45 15.73 51.49 0 51.49 0 30.97 17.21 31.45"/>
      <polygon class="cls-1" points="17.21 80.24 15.73 100.28 0 100.28 0 79.76 17.21 80.24"/>
      <polygon class="cls-1" points="17.21 129.03 15.73 149.07 0 149.07 0 128.55 17.21 129.03"/>
      <polygon class="cls-1" points="17.21 177.82 15.73 197.86 0 197.86 0 177.33 17.21 177.82"/>
      <polygon class="cls-1" points="17.21 226.61 15.73 246.65 0 246.65 0 226.12 17.21 226.61"/>
      <polygon class="cls-1" points="17.21 275.39 15.73 295.44 0 295.44 0 274.91 17.21 275.39"/>
      <polygon class="cls-1" points="17.21 324.18 15.73 344.23 0 344.23 0 323.7 17.21 324.18"/>
      <polygon class="cls-1" points="17.21 372.97 15.73 393.01 0 393.01 0 372.49 17.21 372.97"/>
      <polygon class="cls-1" points="17.21 421.76 15.73 441.8 0 441.8 0 421.28 17.21 421.76"/>
      <polygon class="cls-1" points="17.21 470.55 15.73 490.59 0 490.59 0 470.07 17.21 470.55"/>
      <polygon class="cls-1" points="17.21 519.34 15.73 539.38 0 539.38 0 518.86 17.21 519.34"/>
    </g>
    <g>
      <polygon class="cls-1" points="540.31 538.06 491.95 538.06 493.22 519.56 542.85 518.02 540.31 538.06"/>
      <polygon class="cls-1" points="435.32 538.06 386.96 538.06 388.24 519.56 437.87 518.02 435.32 538.06"/>
      <polygon class="cls-1" points="331.96 538.06 283.61 538.06 284.88 519.56 334.51 518.02 331.96 538.06"/>
      <polygon class="cls-1" points="489.19 539.38 442.11 539.38 440.62 519.34 487.92 518.02 489.19 539.38"/>
      <polygon class="cls-1" points="335.64 539.38 382.72 539.38 384.21 519.34 336.91 518.02 335.64 539.38"/>
    </g>
    <g>
      <polygon class="cls-1" points="802.76 538.06 754.4 538.06 755.67 519.56 805.3 518.02 802.76 538.06"/>
      <polygon class="cls-1" points="697.77 538.06 649.42 538.06 650.69 519.56 700.32 518.02 697.77 538.06"/>
      <polygon class="cls-1" points="594.41 538.06 546.06 538.06 547.33 519.56 596.96 518.02 594.41 538.06"/>
      <polygon class="cls-1" points="751.64 539.38 704.56 539.38 703.08 519.34 750.37 518.02 751.64 539.38"/>
      <polygon class="cls-1" points="598.09 539.38 645.17 539.38 646.66 519.34 599.36 518.02 598.09 539.38"/>
    </g>
    <g>
      <polygon class="cls-1" points="1054.41 518.43 1054.41 538.06 1016.85 538.06 1018.12 519.56 1054.41 518.43"/>
      <polygon class="cls-1" points="960.22 538.06 911.87 538.06 913.14 519.56 962.77 518.02 960.22 538.06"/>
      <polygon class="cls-1" points="856.87 538.06 808.51 538.06 809.78 519.56 859.41 518.02 856.87 538.06"/>
      <polygon class="cls-1" points="1014.1 539.38 967.01 539.38 965.53 519.34 1012.82 518.02 1014.1 539.38"/>
      <polygon class="cls-1" points="860.54 539.38 907.63 539.38 909.11 519.34 861.81 518.02 860.54 539.38"/>
    </g>
  </g>
  <g>
    <g>
      <polygon class="cls-1" points="260.62 562.46 212.27 562.46 213.54 543.96 263.17 542.41 260.62 562.46"/>
      <polygon class="cls-1" points="155.64 562.46 107.28 562.46 108.55 543.96 158.18 542.41 155.64 562.46"/>
      <polygon class="cls-1" points="52.28 562.46 3.92 562.46 5.19 543.96 54.82 542.41 52.28 562.46"/>
      <polygon class="cls-1" points="209.51 563.78 162.42 563.78 160.94 543.74 208.24 542.41 209.51 563.78"/>
      <polygon class="cls-1" points="55.95 563.78 103.04 563.78 104.52 543.74 57.23 542.41 55.95 563.78"/>
    </g>
    <g>
      <polygon class="cls-1" points="523.07 562.46 474.72 562.46 475.99 543.96 525.62 542.41 523.07 562.46"/>
      <polygon class="cls-1" points="418.09 562.46 369.73 562.46 371 543.96 420.63 542.41 418.09 562.46"/>
      <polygon class="cls-1" points="314.73 562.46 266.37 562.46 267.65 543.96 317.28 542.41 314.73 562.46"/>
      <polygon class="cls-1" points="471.96 563.78 424.88 563.78 423.39 543.74 470.69 542.41 471.96 563.78"/>
      <polygon class="cls-1" points="318.41 563.78 365.49 563.78 366.98 543.74 319.68 542.41 318.41 563.78"/>
    </g>
    <g>
      <polygon class="cls-1" points="785.52 562.46 737.17 562.46 738.44 543.96 788.07 542.41 785.52 562.46"/>
      <polygon class="cls-1" points="680.54 562.46 632.18 562.46 633.46 543.96 683.09 542.41 680.54 562.46"/>
      <polygon class="cls-1" points="577.18 562.46 528.83 562.46 530.1 543.96 579.73 542.41 577.18 562.46"/>
      <polygon class="cls-1" points="734.41 563.78 687.33 563.78 685.84 543.74 733.14 542.41 734.41 563.78"/>
      <polygon class="cls-1" points="580.86 563.78 627.94 563.78 629.43 543.74 582.13 542.41 580.86 563.78"/>
    </g>
    <g>
      <polygon class="cls-1" points="1047.98 562.46 999.62 562.46 1000.89 543.96 1050.52 542.41 1047.98 562.46"/>
      <polygon class="cls-1" points="942.99 562.46 894.64 562.46 895.91 543.96 945.54 542.41 942.99 562.46"/>
      <polygon class="cls-1" points="839.63 562.46 791.28 562.46 792.55 543.96 842.18 542.41 839.63 562.46"/>
      <polygon class="cls-1" points="996.86 563.78 949.78 563.78 948.29 543.74 995.59 542.41 996.86 563.78"/>
      <polygon class="cls-1" points="843.31 563.78 890.39 563.78 891.88 543.74 844.58 542.41 843.31 563.78"/>
    </g>
  </g>
  <g>
    <g>
      <polygon class="cls-1" points="277.85 586.85 229.5 586.85 230.77 568.35 280.4 566.81 277.85 586.85"/>
      <polygon class="cls-1" points="172.87 586.85 124.51 586.85 125.79 568.35 175.41 566.81 172.87 586.85"/>
      <polygon class="cls-1" points="69.51 586.85 21.15 586.85 22.43 568.35 72.06 566.81 69.51 586.85"/>
      <polygon class="cls-1" points="226.74 588.17 179.66 588.17 178.17 568.13 225.47 566.81 226.74 588.17"/>
      <polygon class="cls-1" points="73.19 588.17 120.27 588.17 121.76 568.13 74.46 566.81 73.19 588.17"/>
    </g>
    <g>
      <polygon class="cls-1" points="540.31 586.85 491.95 586.85 493.22 568.35 542.85 566.81 540.31 586.85"/>
      <polygon class="cls-1" points="435.32 586.85 386.96 586.85 388.24 568.35 437.87 566.81 435.32 586.85"/>
      <polygon class="cls-1" points="331.96 586.85 283.61 586.85 284.88 568.35 334.51 566.81 331.96 586.85"/>
      <polygon class="cls-1" points="489.19 588.17 442.11 588.17 440.62 568.13 487.92 566.81 489.19 588.17"/>
      <polygon class="cls-1" points="335.64 588.17 382.72 588.17 384.21 568.13 336.91 566.81 335.64 588.17"/>
    </g>
    <g>
      <polygon class="cls-1" points="802.76 586.85 754.4 586.85 755.67 568.35 805.3 566.81 802.76 586.85"/>
      <polygon class="cls-1" points="697.77 586.85 649.42 586.85 650.69 568.35 700.32 566.81 697.77 586.85"/>
      <polygon class="cls-1" points="594.41 586.85 546.06 586.85 547.33 568.35 596.96 566.81 594.41 586.85"/>
      <polygon class="cls-1" points="751.64 588.17 704.56 588.17 703.08 568.13 750.37 566.81 751.64 588.17"/>
      <polygon class="cls-1" points="598.09 588.17 645.17 588.17 646.66 568.13 599.36 566.81 598.09 588.17"/>
    </g>
    <g>
      <polygon class="cls-1" points="1054.41 567.22 1054.41 586.85 1016.85 586.85 1018.12 568.35 1054.41 567.22"/>
      <polygon class="cls-1" points="960.22 586.85 911.87 586.85 913.14 568.35 962.77 566.81 960.22 586.85"/>
      <polygon class="cls-1" points="856.87 586.85 808.51 586.85 809.78 568.35 859.41 566.81 856.87 586.85"/>
      <polygon class="cls-1" points="1014.1 588.17 967.01 588.17 965.53 568.13 1012.82 566.81 1014.1 588.17"/>
      <polygon class="cls-1" points="860.54 588.17 907.63 588.17 909.11 568.13 861.81 566.81 860.54 588.17"/>
    </g>
  </g>
</svg>