<?xml version="1.0" encoding="UTF-8"?>
<svg xmlns="http://www.w3.org/2000/svg" viewBox="0 0 209.23 225.04">
  <defs>
    <style>
      .cls-1 {
        fill: #e4e5e7;
      }

      .cls-2 {
        fill: #c4c6cb;
        opacity: .38;
      }

      .cls-2, .cls-3 {
        mix-blend-mode: multiply;
      }

      .cls-3 {
        fill: #b5b5b9;
        opacity: .57;
      }

      .cls-4 {
        isolation: isolate;
      }

      .cls-5 {
        fill: #788088;
        stroke: #e4e5e7;
        stroke-miterlimit: 10;
        stroke-width: .75px;
      }

      .cls-6 {
        fill: #b0b4ba;
        stroke: #788088;
        stroke-linecap: round;
        stroke-linejoin: round;
      }

      .cls-7 {
        fill: #626160;
      }
    </style>
  </defs>
  <g class="cls-4">
    <g id="oggetti">
      <g>
        <g>
          <path class="cls-1" d="M121.26,81.95c1.37-1.78,1.04-4.34-.74-5.72l-4.98,6.46c1.78,1.37,4.34,1.04,5.72-.74Z"/>
          <path class="cls-5" d="M107.96,69.92l-3.71-2.86-2.14,2.77,3.71,2.86c-4.11,6.71-2.78,15.42,3.36,20.15l19.12-24.8c-6.14-4.73-14.9-3.81-20.34,1.88Z"/>
        </g>
        <g>
          <path class="cls-6" d="M106.79,65.78c-.51-.41-1.24-.36-1.63.11l-30.25,38.04c-.42-.84-1.36-1.3-2.26-1.06-1.03.28-1.63,1.36-1.36,2.44l.6,2.42-4.04,5.07,2.98,2.41,2.19-2.89,12.52,50.46,5.96-1.6-15.33-53.02,30.86-40.76c.38-.48.27-1.2-.24-1.62Z"/>
          <circle class="cls-7" cx="74.26" cy="107.26" r=".74"/>
        </g>
      </g>
      <path class="cls-5" d="M81.99,159.82h24.05c2.75,0,4.99,2.24,4.99,4.99h-31.33v-2.7c0-1.27,1.03-2.29,2.29-2.29Z"/>
    </g>
    <g id="ombreOggetti">
      <path class="cls-3" d="M106.79,65.78s-7.6,10.88-16.94,22.88c-9.34,12-14.85,18.6-15.59,18.6s.57,3.92,2.41,8.83,11.59,38.84,11.05,40.71-1.21,2.32-1.21,2.32c0,0,8.67.83,11.17,3.2s.67,2.34.67,2.34l12.7.15s-1.85-3.96-3.77-4.47-16.14-.51-16.14-.51l-14.94-51.67,31.09-40.72-.47-1.66Z"/>
      <path class="cls-2" d="M109.93,68.18s-2.7,9.27,1.1,11.71,11.07-5.86,11.07-5.86c0,0-5.86,6.68-4.06,7.32s3.22.6,3.22.6c0,0,.07,1.04-1.75,1.31s-3.15.28-3.15.28l-7.17,9.3s-5.53-4.17-5.52-9.3,2.16-10.85,2.16-10.85l-1.62-1.25,2.12-2.78,1.51.83,2.09-1.32Z"/>
    </g>
  </g>
</svg>