<?xml version="1.0" encoding="UTF-8"?>
<svg xmlns="http://www.w3.org/2000/svg" version="1.1" viewBox="0 0 175.65 164.79">
  <!-- Generator: Adobe Illustrator 29.6.1, SVG Export Plug-In . SVG Version: 2.1.1 Build 9)  -->
  <defs>
    <style>
      .st0 {
        fill: none;
      }

      .st1 {
        fill: #a8abb1;
      }

      .st2 {
        fill: #e7e6e6;
      }

      .st3 {
        fill: #788088;
      }

      .st4 {
        fill: #b1aeae;
        mix-blend-mode: multiply;
        opacity: .35;
      }

      .st4, .st5 {
        isolation: isolate;
      }
    </style>
  </defs>
  <g class="st5">
    <g id="Layer_1">
      <rect class="st2" x="58.77" y="60.15" width="51.33" height="51.33"/>
      <polygon class="st0" points="106.33 63.83 107.34 62.75 107.34 62.66 61.32 62.66 62.51 63.83 61.32 62.66 60.86 62.66 60.86 108.65 62.51 106.83 60.86 108.65 60.86 109.15 107.34 109.15 107.34 109.06 106.33 108.03 107.34 109.06 107.34 62.75 106.33 63.83"/>
      <polygon class="st1" points="107.34 109.06 107.34 109.15 60.86 109.15 60.86 108.65 55.71 114.31 112.51 114.31 107.34 109.06"/>
      <polygon class="st1" points="60.86 62.66 61.32 62.66 56.06 57.5 55.69 57.5 55.69 114.31 55.71 114.31 60.86 108.65 60.86 62.66"/>
      <path class="st3" d="M79.78,94.01c0-8.14,6.6-14.73,14.73-14.73,1.36,0,2.68.2,3.93.55v-8.4h-28.02v28.02h10.41c-.67-1.69-1.05-3.52-1.05-5.44Z"/>
      <path class="st3" d="M98.44,87.43c-.07,0-.14-.01-.21-.01-4.27,0-7.73,3.46-7.73,7.73,0,1.6.48,3.08,1.31,4.31h6.62v-12.03h.01Z"/>
      <path class="st4" d="M55.69,57.5l5.26,5.17s20.27-.46,28.53,12.21c8.26,12.67,1.65,34.61,1.65,34.61l-2.82,4.83h23.83v-56.82h-56.45Z"/>
      <polygon class="st3" points="107.16 109.06 112.33 114.31 112.33 114.31 112.33 57.49 112.08 57.49 107.16 62.74 107.16 109.06"/>
      <polygon class="st3" points="107.16 62.67 107.16 62.74 112.08 57.49 55.89 57.49 61.14 62.67 107.16 62.67"/>
    </g>
  </g>
</svg>