<?xml version="1.0" encoding="UTF-8"?>
<svg xmlns="http://www.w3.org/2000/svg" viewBox="0 0 109.95 163.96">
  <defs>
    <style>
      .cls-1 {
        fill: #e4e5e7;
      }

      .cls-2 {
        fill: #788088;
      }

      .cls-3 {
        fill: #8b9097;
      }

      .cls-4 {
        fill: #767472;
        opacity: .25;
      }

      .cls-4, .cls-5 {
        mix-blend-mode: multiply;
      }

      .cls-6 {
        isolation: isolate;
      }

      .cls-7 {
        fill: #d8dbdd;
      }

      .cls-8 {
        fill: #8a8c92;
      }

      .cls-5 {
        fill: #b1aeae;
        opacity: .31;
      }

      .cls-9 {
        fill: #c0c1c5;
      }
    </style>
  </defs>
  <g class="cls-6">
    <g id="oggetti">
      <g>
        <path class="cls-7" d="M25.7,39.21c.33.5,12,38.17,14.67,51,2.67,12.83,4.33,39.67,4.33,39.67h7.33s-2.83-19.33-9.33-41.83c-6.5-22.5-17-48.83-17-48.83Z"/>
        <path class="cls-9" d="M34.87,15.37s7.17,54.01,8.17,63.01c1,9,3.67,55.17,3.67,55.17h6.79s-4.46-44.33-7.79-64.33c-3.33-20-10.83-53.84-10.83-53.84Z"/>
        <polygon class="cls-7" points="48.2 10.2 48.2 136.88 55.37 135.88 48.2 10.2"/>
        <polygon class="cls-1" points="66.7 36.28 59.04 143.41 53.5 144.21 66.7 36.28"/>
        <polygon class="cls-3" points="74.04 58.38 54.39 136.88 63.54 139.67 74.04 58.38"/>
        <polygon class="cls-8" points="55.37 18.39 49.54 138.54 61.2 138.54 55.37 18.39"/>
      </g>
      <path class="cls-2" d="M64.57,152.86h-17.15c-1.54,0-2.83-1.16-3-2.69l-2.71-24.64c-.09-.85.57-1.59,1.43-1.59h25.71c.85,0,1.52.74,1.43,1.59l-2.71,24.64c-.17,1.53-1.46,2.69-3,2.69Z"/>
    </g>
    <g id="ombreOggetti">
      <path class="cls-4" d="M48.42,123.81s8.82,2.41,11.9,10.42c1.92,4.99,0,18.46,0,18.46,0,0,5.74.92,6.6-.86s1.03-5.16,1.03-5.16l2.12-19.31s1.55-3.57-2.99-3.42c-5.09.17-18.67-.13-18.67-.13Z"/>
      <path class="cls-5" d="M34.87,15.37s11.46,66.52,11.97,71.85,1.36,24.24,1.36,24.24v-26.04L34.87,15.37Z"/>
      <path class="cls-5" d="M48.34,12.64s1.77,60.31,2.11,67.53-1.06,43.78-1.06,43.78l.89-.82,1.5-43.12-3.44-67.36Z"/>
      <path class="cls-5" d="M55.37,18.39l.62,96.69v8.7h9.59s8.61-65.15,8.45-64.63-11.89,62.38-11.89,62.38l-1.83-1.2-.22-6.25,1.45-5.8,5.15-71.99-7.07,69.86-4.26-87.74Z"/>
    </g>
  </g>
</svg>