<?xml version="1.0" encoding="UTF-8"?>
<svg id="Layer_1" xmlns="http://www.w3.org/2000/svg" version="1.1" viewBox="0 0 121.18 130.12">
  <!-- Generator: Adobe Illustrator 29.6.1, SVG Export Plug-In . SVG Version: 2.1.1 Build 9)  -->
  <defs>
    <style>
      .st0 {
        fill: #c4c6cb;
      }

      .st1 {
        fill: #d5d6d9;
      }

      .st2 {
        fill: #788088;
      }

      .st3 {
        fill: #b1aeae;
      }

      .st4, .st5 {
        isolation: isolate;
      }

      .st6 {
        fill: #666c73;
      }

      .st5 {
        mix-blend-mode: multiply;
        opacity: .27;
      }

      .st7 {
        fill: #545a5f;
      }

      .st8 {
        fill: #a2a8ae;
      }
    </style>
  </defs>
  <g class="st4">
    <g id="oggetti">
      <g>
        <g>
          <rect class="st1" x="53.75" y="60.23" width="22.8" height="3.96" transform="translate(-7.24 115.82) rotate(-80.2)"/>
          <polygon class="st8" points="68.81 52.73 67.39 52.48 67.43 52.24 68.85 52.49 68.81 52.73"/>
          <polygon class="st8" points="68.68 53.46 67.26 53.22 67.3 52.98 68.72 53.22 68.68 53.46"/>
          <rect class="st8" x="67.74" y="53.23" width=".25" height="1.45" transform="translate(3.03 111.51) rotate(-80.08)"/>
          <polygon class="st8" points="68.43 54.93 67.01 54.68 67.05 54.44 68.47 54.69 68.43 54.93"/>
          <polygon class="st8" points="68.3 55.66 66.88 55.41 66.92 55.17 68.34 55.42 68.3 55.66"/>
          <polygon class="st8" points="68.18 56.39 66.75 56.15 66.79 55.91 68.22 56.15 68.18 56.39"/>
          <polygon class="st8" points="68.05 57.12 66.63 56.88 66.67 56.64 68.09 56.88 68.05 57.12"/>
          <polygon class="st8" points="67.92 57.86 66.5 57.61 66.54 57.37 67.96 57.62 67.92 57.86"/>
          <polygon class="st8" points="67.8 58.59 66.38 58.34 66.42 58.1 67.84 58.35 67.8 58.59"/>
          <polygon class="st8" points="67.67 59.32 66.25 59.08 66.29 58.84 67.71 59.08 67.67 59.32"/>
          <polygon class="st8" points="67.54 60.05 66.12 59.81 66.16 59.57 67.58 59.81 67.54 60.05"/>
          <polygon class="st8" points="67.42 60.79 66 60.54 66.04 60.3 67.46 60.55 67.42 60.79"/>
          <polygon class="st8" points="67.29 61.52 65.87 61.27 65.91 61.03 67.33 61.28 67.29 61.52"/>
          <polygon class="st8" points="67.16 62.25 65.74 62.01 65.78 61.77 67.2 62.01 67.16 62.25"/>
          <polygon class="st8" points="67.04 62.98 65.62 62.74 65.66 62.5 67.08 62.74 67.04 62.98"/>
          <polygon class="st8" points="66.91 63.72 65.49 63.47 65.53 63.23 66.95 63.48 66.91 63.72"/>
          <rect class="st8" x="65.97" y="63.48" width=".25" height="1.45" transform="translate(-8.54 118.25) rotate(-80.08)"/>
          <polygon class="st8" points="66.66 65.18 65.24 64.94 65.28 64.7 66.7 64.94 66.66 65.18"/>
          <polygon class="st8" points="66.53 65.91 65.11 65.67 65.15 65.43 66.57 65.67 66.53 65.91"/>
          <rect class="st8" x="65.59" y="65.68" width=".25" height="1.45" transform="translate(-11.02 119.7) rotate(-80.08)"/>
          <polygon class="st8" points="66.28 67.38 64.86 67.13 64.9 66.89 66.32 67.14 66.28 67.38"/>
          <polygon class="st8" points="66.15 68.11 64.73 67.86 64.77 67.62 66.19 67.87 66.15 68.11"/>
          <polygon class="st8" points="66.03 68.84 64.6 68.6 64.64 68.36 66.07 68.6 66.03 68.84"/>
          <polygon class="st8" points="65.9 69.58 64.48 69.33 64.52 69.09 65.94 69.34 65.9 69.58"/>
          <polygon class="st8" points="65.77 70.31 64.35 70.06 64.39 69.82 65.81 70.07 65.77 70.31"/>
          <rect class="st8" x="64.83" y="70.07" width=".25" height="1.45" transform="translate(-15.97 122.58) rotate(-80.08)"/>
          <polygon class="st8" points="65.52 71.77 64.1 71.53 64.14 71.29 65.56 71.53 65.52 71.77"/>
          <polygon class="st8" points="65.39 72.51 63.97 72.26 64.01 72.02 65.43 72.27 65.39 72.51"/>
        </g>
        <path class="st7" d="M57.57,77.27l-2.77-20.91c.07-.03.12-.07.17-.13.08-.1.13-.23.11-.37-.52-5.3-.6-5.36-.8-5.52-.11-.08-.25-.12-.39-.1-.56.1-.57.1-.02,5.74.01.13.08.25.17.33l1.33,10.03-1.68-9.89s0,0,0,0c.08-.11.1-.25.08-.38-1.12-5.46-1.15-5.46-1.62-5.48-.23,0-.44.14-.5.37-.04.15-.06.23.92,5.3,0,.07.03.14.06.2.07.13.2.2.33.23l3.52,20.69.34-.06v.04s.75-.1.75-.1Z"/>
        <polygon class="st6" points="59.81 71.56 58.91 71.61 57.8 52.71 58.14 50.86 58.7 52.66 59.81 71.56"/>
        <polygon class="st0" points="58.08 73.82 57.18 73.89 55.63 55.02 55.93 53.17 56.52 54.95 58.08 73.82"/>
        <g>
          <polygon class="st0" points="65.76 78.93 54.51 78.93 52.92 61.23 67.34 61.23 65.76 78.93"/>
          <path class="st2" d="M66.05,79.25h-11.84l-1.65-18.34h15.12l-1.64,18.34ZM54.8,78.61h10.66l1.52-17.06h-13.72l1.53,17.06Z"/>
        </g>
      </g>
    </g>
    <g id="ombreOggetti">
      <g class="st5">
        <path class="st3" d="M57.53,78.93l2.6-.28c.61,1.23,1.87-.1,2.14.33l3.49-.06s-8.56-1.94-7.43-11.8c1.26-3.89,9.01-5.9,9.01-5.9h-14.42l.71,13.61.88,4.09h3.02Z"/>
      </g>
    </g>
  </g>
</svg>