<?xml version="1.0" encoding="UTF-8"?>
<svg xmlns="http://www.w3.org/2000/svg" version="1.1" viewBox="0 0 175.65 164.79">
  <!-- Generator: Adobe Illustrator 29.6.1, SVG Export Plug-In . SVG Version: 2.1.1 Build 9)  -->
  <defs>
    <style>
      .st0 {
        fill: none;
      }

      .st1 {
        fill: #a8abb1;
      }

      .st2 {
        opacity: .51;
      }

      .st2, .st3 {
        mix-blend-mode: multiply;
      }

      .st4 {
        fill: #e7e6e6;
      }

      .st5, .st3 {
        fill: #788088;
      }

      .st3 {
        opacity: .35;
      }

      .st3, .st6 {
        isolation: isolate;
      }
    </style>
  </defs>
  <g class="st6">
    <g id="Layer_1">
      <rect class="st4" x="58.32" y="53.14" width="51.33" height="51.33"/>
      <polygon class="st5" points="107.18 101.96 112.35 107.21 112.35 107.21 112.35 50.39 112.1 50.39 107.18 55.64 107.18 101.96"/>
      <polygon class="st5" points="107.18 55.56 107.18 55.64 112.1 50.39 55.91 50.39 61.16 55.56 107.18 55.56"/>
      <g class="st6">
        <g id="oggetti">
          <g>
            <polygon class="st0" points="106.02 56.73 107.03 55.64 107.03 55.56 61.01 55.56 62.2 56.73 61.01 55.56 60.55 55.56 60.55 101.54 62.2 99.73 60.55 101.54 60.55 102.04 107.03 102.04 107.03 101.96 106.02 100.92 107.03 101.96 107.03 55.64 106.02 56.73"/>
            <polygon class="st1" points="107.03 101.96 107.03 102.04 60.55 102.04 60.55 101.54 55.4 107.21 112.2 107.21 107.03 101.96"/>
            <polygon class="st1" points="60.55 55.56 61.01 55.56 55.76 50.39 55.38 50.39 55.38 107.21 55.4 107.21 60.55 101.54 60.55 55.56"/>
          </g>
        </g>
      </g>
      <path class="st5" d="M71.29,65.97v25.67h25.67v-25.67h-25.67ZM84.87,79.83h-6.92v-6.92h6.92v6.92Z"/>
      <g id="ombreOggetti" class="st2">
        <path class="st3" d="M55.76,50.39l5.26,5.17s20.27-.46,28.53,12.21c8.26,12.67,1.65,34.61,1.65,34.61l-2.82,4.83h23.83v-56.82h-56.45Z"/>
      </g>
    </g>
  </g>
</svg>