<?xml version="1.0" encoding="UTF-8"?>
<svg id="Sedie_gropu" xmlns="http://www.w3.org/2000/svg" viewBox="0 0 107.43 123.42">
  <defs>
    <style>
      .cls-1 {
        fill: #b1aeae;
      }

      .cls-2 {
        fill: #788088;
        stroke: #e4e5e7;
        stroke-miterlimit: 10;
        stroke-width: .75px;
      }

      .cls-3 {
        fill: #b0b4ba;
        stroke: #788088;
        stroke-linecap: round;
        stroke-linejoin: round;
      }

      .cls-4 {
        fill: #626160;
      }
    </style>
  </defs>
  <path class="cls-1" d="M78.83,45.65c2.09-.84,3.1-3.21,2.26-5.3l-7.57,3.04c.84,2.09,3.21,3.1,5.3,2.26Z"/>
  <path class="cls-2" d="M73.48,28.54l-1.75-4.35-3.25,1.3,1.75,4.35c-6.95,3.69-10.21,11.88-7.33,19.07l29.06-11.67c-2.89-7.19-10.91-10.84-18.48-8.7Z"/>
  <g>
    <path class="cls-3" d="M73.01,22.04c-.33-.57-1.02-.79-1.56-.49l-40.87,23.85c-.35-1-1.37-1.59-2.36-1.33-1.03.28-1.63,1.36-1.36,2.44l.23.93-7.4,4.32,1.91,3.32,6.41-3.95,13.11,52.85,5.96-1.6-15.46-53.47,41.04-25.28c.53-.31.69-1.02.36-1.59Z"/>
    <circle class="cls-4" cx="29.25" cy="48.18" r=".74"/>
  </g>
  <path class="cls-2" d="M39.33,100.74h24.05c2.75,0,4.99,2.24,4.99,4.99h-31.33v-2.7c0-1.27,1.03-2.29,2.29-2.29Z"/>
</svg>