<?xml version="1.0" encoding="UTF-8"?>
<svg xmlns="http://www.w3.org/2000/svg" viewBox="0 0 219.77 267.5">
  <defs>
    <style>
      .cls-1 {
        fill: #b5b8bd;
      }

      .cls-1, .cls-2, .cls-3, .cls-4, .cls-5, .cls-6, .cls-7, .cls-8, .cls-9, .cls-10 {
        stroke-miterlimit: 10;
      }

      .cls-1, .cls-2, .cls-3, .cls-5, .cls-6, .cls-7, .cls-8, .cls-9, .cls-10 {
        stroke: #788088;
      }

      .cls-2, .cls-9 {
        fill: #788088;
      }

      .cls-3 {
        fill: #f6f6f7;
      }

      .cls-4 {
        fill: #666c73;
        stroke: #666c73;
      }

      .cls-11 {
        isolation: isolate;
      }

      .cls-5 {
        fill: #b0b4ba;
      }

      .cls-6 {
        fill: #f8f8f9;
      }

      .cls-7 {
        stroke-width: 1.11px;
      }

      .cls-7, .cls-10 {
        fill: #a2a8ae;
      }

      .cls-12, .cls-13 {
        fill: #e4e5e7;
      }

      .cls-12, .cls-13, .cls-14 {
        mix-blend-mode: multiply;
      }

      .cls-12, .cls-14 {
        opacity: .37;
      }

      .cls-13 {
        opacity: .52;
      }

      .cls-8 {
        fill: #fafbfb;
      }

      .cls-14 {
        fill: #b1aeae;
      }

      .cls-9 {
        stroke-width: .71px;
      }
    </style>
  </defs>
  <g class="cls-11">
    <g id="Sedie_gropu">
      <path class="cls-8" d="M52.22,141.9c.64-.45,2.72-8.18,14.25-9.51,9.31-1.08,30.48,0,30.48,0l-1.15,3.26"/>
      <g>
        <circle class="cls-9" cx="108.14" cy="210.88" r="3.18"/>
        <path class="cls-7" d="M92.5,193.4s7.18,3.73,10.14,8.07,3.12,8.17,3.12,8.17h4.77s0-4.75-3.58-10.64c-3.58-5.89-4.44-7.81-4.44-7.81l-10.02,2.22Z"/>
        <circle class="cls-9" cx="58.54" cy="210.88" r="3.18"/>
        <circle class="cls-9" cx="140.21" cy="210.88" r="3.18"/>
        <path class="cls-6" d="M91.76,153.86v12.68c0,1.4,1.05,2.53,2.4,2.69v14.83h8.38v-14.83c1.35-.16,2.4-1.3,2.4-2.69v-12.68h-13.19Z"/>
        <path class="cls-10" d="M109.98,189.69c-7.4-3.23-15.82-3.18-23.17.15l-27.47,12.61c-2.67,1.23-4.39,3.9-4.39,6.84v.35s6.91,0,6.91,0h0c0-3.1,1.97-5.85,4.9-6.84l22.03-7.46c6.07-2.09,12.66-2.1,18.74-.05l24.44,7.63c2.94.92,4.94,3.64,4.94,6.72h0s6.91,0,6.91,0v-.25c0-2.99-1.77-5.7-4.52-6.9l-29.32-12.8Z"/>
        <path class="cls-1" d="M94.9,183.57h6.84c2.74,0,4.96,2.22,4.96,4.96v6.77h-16.77v-6.77c0-2.74,2.22-4.96,4.96-4.96Z"/>
      </g>
      <path class="cls-5" d="M98.2,156.24l35.69-2.67c2.69-.08,4.99-1.93,5.64-4.54l4.18-28.95c1.02-7.09,2.65-14.09,4.87-20.9l13.22-40.63c.49-1.52-.52-3.11-2.1-3.3l-9.59-1.21c-10.84-1.37-21.84-.8-32.49,1.66l-1.95.45-17.48,100.1Z"/>
      <path class="cls-3" d="M98.2,156.24l-2.4-20.59s2.35-5.49,5.49-20.14c2.74-12.79,3.29-42.75,3.03-49.81-.04-.99.44-1.92,1.25-2.49l10.1-7.07"/>
      <path class="cls-3" d="M98.15,156.24l-45.85-4.54c-.7-.07-1.23-.66-1.23-1.36v-3.13c0-7.3,6.08-13.14,13.38-12.84l31.34,1.28,2.35,20.59Z"/>
      <path class="cls-4" d="M78.17,148.33h0c-1.4.34-2.8-.6-3.12-2.09l-4.86-22.82,5.08-1.23,4.86,22.82c.32,1.49-.56,2.98-1.96,3.32Z"/>
      <path class="cls-2" d="M98.7,127.53c-10.78-1.47-21.93-1.5-32.85-.06-1.47.2-2.61-.77-2.54-2.21.04-.74.07-1.48.11-2.22.07-1.43,1.32-2.66,2.77-2.69,10.87-.28,21.96.92,32.68,3.56,1.44.36,2.58,1.21,2.55,1.84-.02.33-.03.66-.05,1-.03.63-1.23.96-2.68.78Z"/>
      <path class="cls-13" d="M110.53,59.74s-2.96,44.54-5.58,54.31-9.16,21.6-9.16,21.6c0,0-8.35,3.29-14.35,3.73s-18.67.81-22,2.52-8.37,9.67-8.37,9.67l47.12,4.66,17.48-100.1-5.14,3.59Z"/>
      <path class="cls-12" d="M115.67,56.15s17.6,18.8,14.39,39.54c-7.29,47.1-30.59,53.28-30.59,53.28l-1.27,7.27-4.31-.41s4.76,4.44,5.49,9.56,0,18.18,0,18.18l-5.21.49s5.82.24,7.35,4.21,0,7.03,0,7.03c0,0,2.06.35,4.22,5.11s3.71,9.07,3.49,10.47-1.08,3.18-1.08,3.18c0,0,4.04-1.02,3.18-3.18s-1.19-4.16-1.19-4.16c0,0-.37-2.69-1.99-5.58s-3.37-5.83-3.37-5.83h1.94l-.98-8s1.62-1.87-.78-2.55-3.21-1.18-3.21-1.18l.8-14.33s2.4-1.09,2.4-2.69v-10.3l27.83-2.59s3.29.22,5.53-2.24,1.6-5.04,1.6-5.04c0,0,4.46-32.8,6.57-40,2.11-7.2,15.33-47.83,15.33-47.83,0,0-.24-3.07-2.1-3.3s-21.41-2.68-29.64-1.55-14.39,2.45-14.39,2.45Z"/>
      <path class="cls-14" d="M89,191.19s-25.53,10.42-27.65,12.65-2.8,5.81-2.8,5.81c0,0,1.32,2.63,0,3.53s-2.21,0-2.21,0c0,0,2.76,1.7,3.92.4s1.1-4.17,1.1-4.17c0,0,.13-4.33,3.79-5.81s23.65-8.25,23.65-8.25l.21-4.15Z"/>
      <path class="cls-14" d="M106.71,191.19s23.18,9.31,25.84,10.42,5.23,2.48,6.44,4.28,1.21,3.75,1.21,3.75c0,0-1.23,2.18,0,3.3s0,1.12,0,1.12c0,0-3.07.85-3.18-1.79s0-4.58,0-4.58c0,0-.55-2.77-6.96-5.07s-23.35-7.32-23.35-7.32v-4.12Z"/>
    </g>
  </g>
</svg>