<?xml version="1.0" encoding="UTF-8"?>
<svg xmlns="http://www.w3.org/2000/svg" viewBox="0 0 273.21 267.5">
  <defs>
    <style>
      .cls-1 {
        fill: #f8f8f9;
      }

      .cls-1, .cls-2, .cls-3, .cls-4 {
        stroke: #788088;
      }

      .cls-1, .cls-2, .cls-4 {
        stroke-linecap: round;
        stroke-linejoin: round;
      }

      .cls-5 {
        stroke-width: 1px;
      }

      .cls-5, .cls-6 {
        stroke: #666c73;
      }

      .cls-5, .cls-6, .cls-7, .cls-3 {
        stroke-miterlimit: 10;
      }

      .cls-5, .cls-6, .cls-8 {
        fill: #666c73;
      }

      .cls-6 {
        stroke-width: .62px;
      }

      .cls-7 {
        fill: #d5d6d9;
        stroke: #626160;
        stroke-width: .81px;
      }

      .cls-9 {
        opacity: .36;
      }

      .cls-9, .cls-3 {
        fill: #c4c6cb;
      }

      .cls-9, .cls-10 {
        mix-blend-mode: multiply;
      }

      .cls-11 {
        isolation: isolate;
      }

      .cls-2 {
        fill: #e4e5e7;
      }

      .cls-3 {
        stroke-width: .64px;
      }

      .cls-4 {
        fill: #b0b4ba;
      }

      .cls-10 {
        fill: #cccfd2;
        opacity: .26;
      }
    </style>
  </defs>
  <g class="cls-11">
    <g id="cassettiera">
      <g>
        <path class="cls-7" d="M82.51,199.67c-3.06,0-5.55-3.13-5.55-7s2.48-7,5.55-7h4.22v14h-4.22Z"/>
        <ellipse class="cls-5" cx="86.73" cy="192.67" rx="4.05" ry="7"/>
      </g>
      <g>
        <path class="cls-7" d="M163.97,200.35c2.24,0,4.05-3.13,4.05-7s-1.81-7-4.05-7h-3.08s0,14,0,14h3.08Z"/>
        <ellipse class="cls-6" cx="160.32" cy="193.35" rx="1.57" ry="7"/>
      </g>
      <rect class="cls-2" x="72.72" y="107.43" width="100" height="82.89"/>
      <polygon class="cls-1" points="172.72 107.43 72.72 107.43 112.72 90.26 184.72 90.26 172.72 107.43"/>
      <polygon class="cls-4" points="172.72 107.43 184.72 90.26 184.72 166.1 172.72 190.32 172.72 107.43"/>
      <rect class="cls-3" x="79.36" y="162.51" width="86.22" height="19.84"/>
      <rect class="cls-3" x="79.36" y="139.98" width="86.22" height="19.84"/>
      <rect class="cls-3" x="79.36" y="117.24" width="86.22" height="19.84"/>
      <rect class="cls-8" x="111.52" y="126.27" width="20" height="1.78"/>
      <rect class="cls-8" x="111.52" y="149.02" width="20" height="1.78"/>
      <rect class="cls-8" x="111.52" y="171.77" width="20" height="1.78"/>
    </g>
    <g id="ombre_cassettiera">
      <path class="cls-9" d="M146.46,90.26s13.49,1.41,13.86,8.59-6.93,8.59-6.93,8.59h19.33l12-17.17h-38.26Z"/>
      <path class="cls-10" d="M122.72,107.43l8.26,9.81s15.05,4.17,18.05,10.81c3,6.64,1.87,9.03,1.87,9.03h-13.86v2.59s15.59,5.87,16.46,13.01c.87,7.14,0,6.67,0,6.67l-23.83.48,1.87,2.68h14.94s5.63,3.34,10.43,9.26,8.69,10.58,8.69,10.58h-23.89l4.77,7.97h15.27s.88-2.7,2.73,3.03-.49,7-.49,7l2.33-1.27,1.72-5.73-.27-2.49,4.96-.54v-82.89h-50Z"/>
    </g>
  </g>
</svg>