<?xml version="1.0" encoding="UTF-8"?>
<svg xmlns="http://www.w3.org/2000/svg" viewBox="0 0 192.06 129.98">
  <defs>
    <style>
      .cls-1 {
        fill: #788088;
      }

      .cls-2 {
        fill: #c4c6cb;
      }

      .cls-3 {
        fill: #d5d6d9;
      }

      .cls-4 {
        isolation: isolate;
      }

      .cls-5 {
        fill: #dee1e2;
      }

      .cls-6 {
        fill: #e4e5e7;
        mix-blend-mode: multiply;
        opacity: .37;
      }

      .cls-7 {
        fill: #9599a0;
      }

      .cls-8 {
        fill: #eeeff0;
      }
    </style>
  </defs>
  <g class="cls-4">
    <g id="Layer_21" data-name="Layer 21">
      <g>
        <g>
          <path class="cls-8" d="M131.98,89.22H60.58c-.42,0-.8-.27-.95-.67l-15.24-43.92c-.24-.66.25-1.36.95-1.36h71.4c.42,0,.8.27.95.67l15.24,43.92c.24.66-.25,1.36-.95,1.36Z"/>
          <path class="cls-1" d="M135.24,89.41l-16.81-46.53c-.12-.33-.42-.54-.76-.54H43.49c-.56,0-.95.57-.76,1.11l16.81,46.53c.12.33.42.54.76.54h74.17c.56,0,.95-.57.76-1.11ZM131.69,88.54H61.25c-.32,0-.61-.21-.72-.52l-15.2-42.68c-.18-.51.19-1.05.72-1.05h70.44c.32,0,.61.21.72.52l15.2,42.68c.18.51-.19,1.05-.72,1.05Z"/>
        </g>
        <polygon class="cls-2" points="84.52 87.32 62.07 87.32 47.07 45.51 69.52 45.51 84.52 87.32"/>
        <path class="cls-2" d="M129.76,87.32h-43.43l-15-41.81h43.94c.3,0,.56.19.66.46l14.5,40.41c.16.46-.17.94-.66.94Z"/>
        <polygon class="cls-5" points="48.68 46.51 55.04 64.23 74.88 64 68.62 46.51 48.68 46.51"/>
        <polygon class="cls-5" points="73.07 46.51 87.26 86.03 128.57 86.22 114.65 46.51 73.07 46.51"/>
      </g>
      <g>
        <path class="cls-1" d="M83.2,91.01h66.17v.18c0,1.32-1.07,2.38-2.38,2.38h-63.79v-2.56h0Z"/>
        <path class="cls-7" d="M83.08,93.52l-22.13-.88c-.78-.03-1.4-.68-1.4-1.46v-1.22l26.11,1.04v.04c0,1.41-1.17,2.53-2.58,2.48Z"/>
        <polygon class="cls-3" points="59.55 89.96 135.89 89.96 149.37 91.18 85.66 91.05 59.55 89.96"/>
      </g>
      <path class="cls-6" d="M42.79,42.33s73.42-.54,74.17,0,1.71,3.17,1.71,3.17l15.86,43.9s-8.45-17.7-29.59-26.84c-33.5-14.5-62.16-20.23-62.16-20.23Z"/>
    </g>
  </g>
</svg>