<?xml version="1.0" encoding="UTF-8"?>
<svg xmlns="http://www.w3.org/2000/svg" viewBox="0 0 209.89 163.96">
  <defs>
    <style>
      .cls-1 {
        fill: #cccfd2;
      }

      .cls-1, .cls-2, .cls-3 {
        stroke: #788088;
        stroke-miterlimit: 10;
      }

      .cls-4 {
        fill: #788088;
        opacity: .73;
      }

      .cls-5 {
        opacity: .38;
      }

      .cls-5, .cls-6 {
        mix-blend-mode: multiply;
      }

      .cls-5, .cls-3 {
        fill: #c4c6cb;
      }

      .cls-7 {
        isolation: isolate;
      }

      .cls-6 {
        fill: #545a5f;
        opacity: .28;
      }

      .cls-2 {
        fill: #a2a8ae;
      }
    </style>
  </defs>
  <g class="cls-7">
    <g id="Monitorr">
      <polygon class="cls-3" points="116.68 132.7 90.91 132.7 93.05 123.79 114.53 123.79 116.68 132.7"/>
      <g>
        <rect class="cls-1" x="43.86" y="41.2" width="124.67" height="82.6" rx="2.53" ry="2.53"/>
        <rect class="cls-2" x="53.19" y="50.29" width="104.42" height="58.65" rx="1.25" ry="1.25"/>
      </g>
    </g>
    <g id="ombre_monitor">
      <path class="cls-5" d="M52.8,41.2h111.15s3.82,0,4.33.74.75,5.49.75,5.49l-.12,74.57s-1.22,1.8-2.41,1.8-29.86-.06-29.86-.06c0,0,0-33.31-18-51.14-18-17.83-65.83-31.39-65.83-31.39Z"/>
      <polygon class="cls-6" points="59.88 50.29 154.56 54.34 153.56 108.92 157.61 108.96 158.11 50.29 59.88 50.29"/>
      <path class="cls-4" d="M52.8,41.2s104.62,1.78,109.35,2.19c5.46.46,4.71,9.3,4.71,9.3l-1.32,70.97,1.21-.26c.87-.18,1.49-.95,1.49-1.83l.28-77.83s.5-2.56-4.58-2.53c-2.53.01-111.15,0-111.15,0Z"/>
      <path class="cls-5" d="M93.05,123.79s15.35-.53,14.48,3.66c-.75,3.63-2.13,4.97-2.13,4.97l11.28.28-2.15-8.91h-21.48Z"/>
    </g>
  </g>
</svg>