<?xml version="1.0" encoding="UTF-8"?>
<svg xmlns="http://www.w3.org/2000/svg" viewBox="0 0 224.29 225.04">
  <defs>
    <style>
      .cls-1 {
        opacity: .33;
        stroke: #c4c6cb;
      }

      .cls-1, .cls-2 {
        fill: #b1aeae;
        mix-blend-mode: multiply;
      }

      .cls-1, .cls-3, .cls-4, .cls-5, .cls-6 {
        stroke-miterlimit: 10;
      }

      .cls-7 {
        isolation: isolate;
      }

      .cls-8 {
        fill: #666c73;
      }

      .cls-3 {
        fill: #788088;
        stroke: #e4e5e7;
        stroke-width: .75px;
      }

      .cls-4 {
        fill: #f4f4f4;
        stroke: #626160;
        stroke-width: .78px;
      }

      .cls-5 {
        stroke-width: .76px;
      }

      .cls-5, .cls-6 {
        fill: none;
        stroke: #666c73;
      }

      .cls-6 {
        stroke-width: .76px;
      }
    </style>
  </defs>
  <g class="cls-7">
    <g id="Sedie_gropu">
      <g>
        <g>
          <circle class="cls-4" cx="112.66" cy="101.47" r="26.56"/>
          <path class="cls-3" d="M112.66,69.8c-17.49,0-31.67,14.18-31.67,31.67s14.18,31.67,31.67,31.67,31.67-14.18,31.67-31.67-14.18-31.67-31.67-31.67ZM112.66,126.74c-13.96,0-25.27-11.31-25.27-25.27s11.31-25.27,25.27-25.27,25.27,11.31,25.27,25.27-11.31,25.27-25.27,25.27Z"/>
        </g>
        <g>
          <line class="cls-5" x1="102.1" y1="83.86" x2="105.35" y2="89.48"/>
          <line class="cls-5" x1="94.33" y1="91.5" x2="99.94" y2="94.74"/>
          <line class="cls-5" x1="90.41" y1="102" x2="97.89" y2="102"/>
          <line class="cls-5" x1="94.13" y1="112.55" x2="99.75" y2="109.31"/>
          <line class="cls-5" x1="101.77" y1="120.33" x2="105.01" y2="114.71"/>
          <line class="cls-5" x1="112.27" y1="124.25" x2="112.27" y2="116.76"/>
          <line class="cls-5" x1="122.83" y1="120.52" x2="119.58" y2="114.91"/>
          <line class="cls-5" x1="130.6" y1="112.89" x2="124.99" y2="109.65"/>
          <line class="cls-5" x1="134.52" y1="102.39" x2="127.04" y2="102.39"/>
          <line class="cls-5" x1="130.8" y1="91.83" x2="125.18" y2="95.07"/>
          <line class="cls-5" x1="123.16" y1="84.05" x2="119.92" y2="89.67"/>
          <line class="cls-5" x1="112.66" y1="80.13" x2="112.66" y2="87.62"/>
        </g>
        <g>
          <line class="cls-6" x1="112.66" y1="92.74" x2="112.66" y2="103.11"/>
          <path class="cls-8" d="M112.66,91.5c-.22.58-.59,1.31-.98,1.76l.98-.35.98.35c-.39-.45-.76-1.17-.98-1.76Z"/>
        </g>
        <g>
          <line class="cls-6" x1="120.3" y1="103.11" x2="112.66" y2="103.11"/>
          <path class="cls-8" d="M121.54,103.11c-.58-.22-1.31-.59-1.76-.98l.35.98-.35.98c.45-.39,1.17-.76,1.76-.98Z"/>
        </g>
      </g>
      <path class="cls-1" d="M102.1,78.51s28.66-1.71,32.42,19.69c3.92,22.33-19.48,28.43-19.48,28.43,0,0,27.46-3.43,22.88-27.41-6.18-32.42-35.83-20.71-35.83-20.71Z"/>
      <path class="cls-2" d="M127.99,74.91s3.69,6.7,6.53,11.75c2.84,5.06,6.05,20.56,0,28.24-6.3,8.01-14.94,12.2-21.04,11.83-8.89-.54,4.88,5.9,5.46,5.77s12.76-3.9,16.91-9.49c4.15-5.59,12.52-14.77,6.97-31.19-5.54-16.41-14.84-16.92-14.84-16.92Z"/>
    </g>
  </g>
</svg>