<?xml version="1.0" encoding="UTF-8"?>
<svg xmlns="http://www.w3.org/2000/svg" viewBox="0 0 153.33 221.04">
  <defs>
    <style>
      .cls-1 {
        fill: #b5b8bd;
      }

      .cls-1, .cls-2, .cls-3, .cls-4, .cls-5, .cls-6 {
        stroke-miterlimit: 10;
      }

      .cls-1, .cls-2, .cls-3, .cls-4, .cls-6 {
        stroke: #788088;
      }

      .cls-2, .cls-5 {
        fill: #788088;
      }

      .cls-7 {
        isolation: isolate;
      }

      .cls-3 {
        fill: #b0b4ba;
      }

      .cls-4 {
        fill: #f8f8f9;
      }

      .cls-5 {
        stroke: #626160;
        stroke-width: .71px;
      }

      .cls-8 {
        fill: #e4e5e7;
      }

      .cls-8, .cls-9 {
        mix-blend-mode: multiply;
        opacity: .37;
      }

      .cls-9 {
        fill: #b1aeae;
      }

      .cls-6 {
        fill: #a2a8ae;
      }
    </style>
  </defs>
  <g class="cls-7">
    <g id="Sedie_gropu">
      <path class="cls-2" d="M53.55,126.15h-3.33l-4.93-23.75c-.44-2.12,1.18-4.1,3.34-4.1h4.92v27.85Z"/>
      <path class="cls-2" d="M105.25,128.88h3.33s4.93-23.75,4.93-23.75c.44-2.12-1.18-4.1-3.34-4.1h-4.92s0,27.85,0,27.85Z"/>
      <g>
        <circle class="cls-5" cx="69.53" cy="194.24" r="3.18"/>
        <path class="cls-6" d="M85.17,176.76s-7.18,3.73-10.14,8.07-3.12,8.17-3.12,8.17h-4.77s0-4.75,3.58-10.64c3.58-5.89,4.44-7.81,4.44-7.81l10.02,2.22Z"/>
        <circle class="cls-5" cx="38.62" cy="194.24" r="3.18"/>
        <circle class="cls-5" cx="120.28" cy="194.24" r="3.18"/>
        <path class="cls-4" d="M71.83,137.22v12.68c0,1.4,1.05,2.53,2.4,2.69v14.83h8.38v-14.83c1.35-.16,2.4-1.3,2.4-2.69v-12.68h-13.19Z"/>
        <path class="cls-6" d="M90.05,173.04c-7.4-3.23-15.82-3.18-23.17.15l-27.47,12.61c-2.67,1.23-4.39,3.9-4.39,6.84v.35s6.91,0,6.91,0h0c0-3.1,1.97-5.85,4.9-6.84l22.03-7.46c6.07-2.09,12.66-2.1,18.74-.05l24.44,7.63c2.94.92,4.94,3.64,4.94,6.72h0s6.91,0,6.91,0v-.25c0-2.99-1.77-5.7-4.52-6.9l-29.32-12.8Z"/>
        <path class="cls-1" d="M74.98,166.93h6.84c2.74,0,4.96,2.22,4.96,4.96v6.77h-16.77v-6.77c0-2.74,2.22-4.96,4.96-4.96Z"/>
      </g>
      <path class="cls-3" d="M117.29,36.56l-18.51-2.8c-12.81-1.94-25.84-1.94-38.65,0l-18.51,2.8c-1.04.16-1.77,1.11-1.65,2.16l10.5,89.06h.06c.81,5.38,13.45,9.65,28.92,9.65s28.11-4.27,28.92-9.65h.06l10.5-89.06c.12-1.05-.61-2-1.65-2.16Z"/>
      <path class="cls-8" d="M41.8,36.66c.53,1.2,25.67,6.09,37.65,21.86s-10.41,68.26-13.1,68.26h-15.88s19.51,1.8,25.68,5.55,0,5.1,0,5.1c0,0,2.87,2.48,3.3,7.56s-2.46,21.94-2.46,21.94c0,0,1.91-1.7,4,3.83s1.96,7.9,1.96,7.9l4.64-.02s.52-5.52-.97-7.98-4-3.73-4-3.73v-14.33s2.4-.43,2.4-2.69v-11.96s3.17-.1,9.66-2.03,14.07-5.38,13.9-7.03-.17-2.73-.17-2.73c0,0,10.1-84.86,10.31-86.65s.3-3.68-3.27-4.22-25.56-4.4-36.01-3.97-16.26,1.03-24.47,2.23-13.18,3.12-13.18,3.12Z"/>
      <path class="cls-9" d="M69.53,174.54s-26.71,11.09-27.73,12.42-3.56,2.14-3.18,4.09-1.4,1.94-1.4,1.94c0,0,1.4.85,1.4,2.64v1.79s-.59,1.64,1.34-.3,1.97-4.13,1.97-4.13c0,0-1.02-4.36,3.29-6.06s24.64-8.24,24.64-8.24l-.33-4.15Z"/>
      <path class="cls-9" d="M74.77,178.66s-.77.58-2.05,5.11-3.18,7.28-3.18,7.28c0,0-.13,1.12,0,3.18s-1.39,2.86-1.39,2.86c0,0,2.2,1.24,3.31-.33s.37-5.72.37-5.72c0,0,1.48-5.01,4.32-7.63s5.82-4.76,5.82-4.76h-7.2Z"/>
      <path class="cls-9" d="M86.78,174.54s17.05,7.81,21.63,9.23,9.54,3.38,10.39,6.3.14,7.05.14,7.05c0,0-1.96-5.26-2.25-6.07s.25-3.24-5.39-5.01-23.71-7.4-23.71-7.4l-.82-4.1Z"/>
    </g>
  </g>
</svg>