<?xml version="1.0" encoding="UTF-8"?>
<svg id="Layer_1" xmlns="http://www.w3.org/2000/svg" version="1.1" viewBox="0 0 121.18 130.12">
  <!-- Generator: Adobe Illustrator 29.6.1, SVG Export Plug-In . SVG Version: 2.1.1 Build 9)  -->
  <defs>
    <style>
      .st0 {
        fill: #c4c6cb;
      }

      .st1 {
        mix-blend-mode: multiply;
        opacity: .28;
      }

      .st2 {
        fill: #d5d6d9;
      }

      .st3 {
        fill: #788088;
      }

      .st4 {
        isolation: isolate;
      }

      .st5 {
        fill: #666c73;
      }

      .st6 {
        fill: #545a5f;
      }

      .st7 {
        fill: #a2a8ae;
      }
    </style>
  </defs>
  <g class="st4">
    <g id="Sedie_gropu">
      <g>
        <g>
          <rect class="st2" x="56.18" y="56.41" width="3.96" height="22.8" transform="translate(-3.22 2.9) rotate(-2.78)"/>
          <polygon class="st7" points="58.21 57.84 58.19 57.59 59.63 57.51 59.65 57.76 58.21 57.84"/>
          <polygon class="st7" points="58.25 58.57 58.23 58.32 59.67 58.26 59.69 58.51 58.25 58.57"/>
          <polygon class="st7" points="58.28 59.32 58.26 59.07 59.71 58.99 59.73 59.24 58.28 59.32"/>
          <polygon class="st7" points="58.32 60.07 58.3 59.82 59.74 59.74 59.76 59.99 58.32 60.07"/>
          <polygon class="st7" points="58.36 60.8 58.34 60.55 59.78 60.49 59.8 60.74 58.36 60.8"/>
          <polygon class="st7" points="58.39 61.55 58.37 61.3 59.81 61.22 59.83 61.47 58.39 61.55"/>
          <polygon class="st7" points="58.43 62.28 58.41 62.03 59.85 61.97 59.87 62.22 58.43 62.28"/>
          <polygon class="st7" points="58.46 63.03 58.44 62.78 59.89 62.72 59.91 62.97 58.46 63.03"/>
          <polygon class="st7" points="58.5 63.78 58.48 63.53 59.92 63.45 59.94 63.7 58.5 63.78"/>
          <polygon class="st7" points="58.54 64.51 58.52 64.26 59.96 64.2 59.98 64.45 58.54 64.51"/>
          <polygon class="st7" points="58.57 65.26 58.55 65.01 59.99 64.93 60.01 65.18 58.57 65.26"/>
          <polygon class="st7" points="58.61 66.01 58.59 65.76 60.03 65.68 60.05 65.93 58.61 66.01"/>
          <polygon class="st7" points="58.64 66.75 58.62 66.5 60.07 66.42 60.09 66.67 58.64 66.75"/>
          <polygon class="st7" points="58.68 67.48 58.66 67.23 60.1 67.17 60.12 67.42 58.68 67.48"/>
          <polygon class="st7" points="58.72 68.22 58.7 67.97 60.14 67.91 60.16 68.16 58.72 68.22"/>
          <polygon class="st7" points="58.75 68.97 58.73 68.72 60.17 68.66 60.19 68.91 58.75 68.97"/>
          <polygon class="st7" points="58.79 69.72 58.77 69.47 60.21 69.39 60.23 69.64 58.79 69.72"/>
          <polygon class="st7" points="58.83 70.46 58.81 70.21 60.25 70.13 60.27 70.38 58.83 70.46"/>
          <polygon class="st7" points="58.86 71.19 58.84 70.94 60.28 70.88 60.3 71.13 58.86 71.19"/>
          <polygon class="st7" points="58.9 71.94 58.88 71.69 60.32 71.63 60.34 71.88 58.9 71.94"/>
          <polygon class="st7" points="58.93 72.68 58.91 72.43 60.35 72.37 60.37 72.62 58.93 72.68"/>
          <polygon class="st7" points="58.97 73.42 58.95 73.17 60.39 73.1 60.41 73.35 58.97 73.42"/>
          <polygon class="st7" points="59.01 74.17 58.99 73.92 60.43 73.84 60.45 74.09 59.01 74.17"/>
          <polygon class="st7" points="59.04 74.91 59.02 74.66 60.46 74.59 60.48 74.84 59.04 74.91"/>
          <polygon class="st7" points="59.08 75.66 59.06 75.41 60.5 75.34 60.52 75.59 59.08 75.66"/>
          <rect class="st7" x="59.1" y="76.11" width="1.45" height=".25" transform="translate(-3.5 2.88) rotate(-2.68)"/>
          <polygon class="st7" points="59.15 77.13 59.13 76.88 60.57 76.81 60.59 77.06 59.15 77.13"/>
          <polygon class="st7" points="59.19 77.88 59.17 77.63 60.61 77.55 60.63 77.8 59.19 77.88"/>
        </g>
        <path class="st6" d="M64.86,61.3q0-5.71-.61-5.71t-.61,5.71v.5h.24v21.14h.75v-21.14h.24v-.5Z"/>
        <path class="st6" d="M58.52,83.47l-4.25-20.79s.06-.04.08-.08c.08-.11.1-.25.08-.38q-1.15-5.58-1.72-5.47c-.13.02-.26.1-.33.21-.14.2-.21.3.85,5.46.01.11.06.23.15.31.05.05.11.09.17.11l4.25,20.78.73-.15Z"/>
        <polygon class="st5" points="65.39 76.63 64.49 76.54 66.23 57.69 66.85 55.92 67.13 57.77 65.39 76.63"/>
        <polygon class="st0" points="64.85 74.74 63.95 74.68 65.24 55.79 65.82 54 66.14 55.85 64.85 74.74"/>
        <g>
          <polygon class="st0" points="66.4 85.09 55.16 85.09 53.57 67.39 67.99 67.39 66.4 85.09"/>
          <path class="st3" d="M66.69,85.41h-11.83l-1.65-18.34h15.12l-1.65,18.34ZM55.45,84.77h10.65l1.53-17.06h-13.72l1.53,17.06Z"/>
        </g>
      </g>
      <g class="st1">
        <path class="st0" d="M57.89,85.41h8.8s-8.64-6.94-7.71-12.12c1.26-3.89,9.36-6.22,9.36-6.22h-15.12l1.65,18.34h3.02Z"/>
      </g>
    </g>
  </g>
</svg>