<?xml version="1.0" encoding="UTF-8"?>
<svg xmlns="http://www.w3.org/2000/svg" viewBox="0 0 377.83 256.21">
  <defs>
    <style>
      .cls-1 {
        fill: #f5f5f6;
        stroke-width: .19px;
      }

      .cls-1, .cls-2, .cls-3, .cls-4, .cls-5, .cls-6, .cls-7, .cls-8, .cls-9, .cls-10 {
        stroke-linecap: round;
        stroke-linejoin: round;
      }

      .cls-1, .cls-2, .cls-6, .cls-7, .cls-11, .cls-8 {
        stroke: #788088;
      }

      .cls-2 {
        fill: #788088;
      }

      .cls-2, .cls-4, .cls-10 {
        stroke-width: .88px;
      }

      .cls-3 {
        stroke: #969493;
      }

      .cls-3, .cls-5, .cls-9 {
        stroke-width: .15px;
      }

      .cls-3, .cls-12 {
        fill: #d4d5d6;
      }

      .cls-4 {
        stroke: #8b9097;
      }

      .cls-4, .cls-6 {
        fill: #8b9097;
      }

      .cls-13 {
        opacity: .37;
      }

      .cls-13, .cls-14, .cls-11, .cls-15 {
        fill: #c4c6cb;
      }

      .cls-13, .cls-14, .cls-12, .cls-15 {
        mix-blend-mode: multiply;
      }

      .cls-14 {
        opacity: .46;
      }

      .cls-5 {
        fill: #666c73;
        stroke: #666c73;
      }

      .cls-16 {
        isolation: isolate;
      }

      .cls-6 {
        stroke-width: .83px;
      }

      .cls-7, .cls-9 {
        fill: #e4e5e7;
      }

      .cls-11 {
        stroke-miterlimit: 10;
        stroke-width: .64px;
      }

      .cls-8 {
        fill: #c5c7cc;
        stroke-width: .17px;
      }

      .cls-9 {
        stroke: #e4e5e7;
      }

      .cls-10 {
        fill: #a8abb1;
        stroke: #a2a8ae;
      }
    </style>
  </defs>
  <g class="cls-16">
    <g id="Sedie_gropu">
      <g>
        <polygon class="cls-9" points="225.21 94.85 222.59 129.44 227.82 129.44 225.21 94.85"/>
        <polygon class="cls-5" points="230.44 94.85 227.82 129.44 233.06 129.44 230.44 94.85"/>
        <polygon class="cls-5" points="235.67 94.85 233.06 129.44 238.29 129.44 235.67 94.85"/>
        <polygon class="cls-3" points="241.76 94.94 239.15 129.52 244.38 129.52 241.76 94.94"/>
        <polygon class="cls-8" points="238.29 83.52 235.67 129.44 240.91 129.44 238.29 83.52"/>
        <polygon class="cls-1" points="234.06 74.75 231.44 130.11 236.67 130.11 234.06 74.75"/>
        <polygon class="cls-8" points="228.69 81.19 226.08 130.12 231.31 130.12 228.69 81.19"/>
      </g>
      <path class="cls-2" d="M221.74,129.44h24.42v12.21c0,6.74-5.47,12.21-12.21,12.21h0c-6.74,0-12.21-5.47-12.21-12.21v-12.21h0Z"/>
      <g>
        <polygon class="cls-4" points="171.25 151.76 171.25 104.43 165.37 102.17 165.37 152.31 171.25 151.76"/>
        <path class="cls-11" d="M165.37,151.76h-18.86v-49.59s4.46-.91,9.43-.91c4.26,0,9.43.91,9.43.91v49.59Z"/>
        <path class="cls-10" d="M146.51,151.76h-18.86v-49.59s4.46-.91,9.43-.91c4.26,0,9.43.91,9.43.91v49.59Z"/>
      </g>
      <path class="cls-11" d="M214.41,152.31h-46.67s-.59-1.71-.59-4c0-2.6.59-4,.59-4h46.67s.74,1.91.74,4c0,1.84-.74,4-.74,4Z"/>
      <path class="cls-11" d="M214.41,144.03h-46.67s-.59-1.71-.59-4c0-2.6.59-4,.59-4h46.67s.74,1.91.74,4c0,1.84-.74,4-.74,4Z"/>
      <path class="cls-11" d="M214.41,135.74h-46.67s-.59-1.71-.59-4c0-2.6.59-4,.59-4h46.67s.74,1.91.74,4c0,1.84-.74,4-.74,4Z"/>
      <g>
        <rect class="cls-7" x="116.91" y="150.31" width="131.99" height="8.87"/>
        <polygon class="cls-6" points="234.61 163.61 131.66 163.61 116.91 159.17 248.9 159.17 234.61 163.61"/>
      </g>
      <path class="cls-12" d="M145.79,102.43s-9.98,1.4-12.58,2.59-.69,45.28-.69,45.28l-4.86-.55v-47.59s5.64-1.1,9.43-.91,8.7,1.17,8.7,1.17Z"/>
      <path class="cls-12" d="M165.37,102.17s-5.43-1.36-9.43-.91-10.15,1.17-10.15,1.17l.72,47.33h3.56s-2.18-41.8.87-44.11,14.42-3.49,14.42-3.49Z"/>
      <polygon class="cls-12" points="167.81 133.52 214.82 133.52 214.41 135.74 167.74 135.74 167.81 133.52"/>
      <polygon class="cls-12" points="167.74 141.65 215.14 141.65 214.41 144.31 167.74 144.31 167.74 141.65"/>
      <polygon class="cls-12" points="167.15 148.31 215.14 148.31 214.82 150.31 167.15 149.76 167.15 148.31"/>
      <path class="cls-13" d="M116.91,159.17s118.76,1.22,124.85-4.43c4.87-4.52-21.02-4.43-20.02-4.43h27.15v8.87l-14.94,4.91-102.29-.48-14.75-4.43Z"/>
      <path class="cls-15" d="M221.74,129.44l13.93,2.3s6.97,1.78,6.09,9.2c-.53,4.51-7.4,8.97-8.71,9.37s9.5,0,9.5,0c0,0,3.6-4.02,3.6-7.33v-13.54h-24.42Z"/>
      <polygon class="cls-14" points="228.69 81.19 228.69 129.13 244.38 128.69 241.76 94.94 241.76 128.18 240.78 127.24 238.29 83.52 238.16 127.72 236.54 127.74 234.06 74.75 234.06 128.09 231.2 128.09 228.69 81.19"/>
    </g>
  </g>
</svg>