<?xml version="1.0" encoding="UTF-8"?>
<svg xmlns="http://www.w3.org/2000/svg" viewBox="0 0 370.5 224.93">
  <defs>
    <style>
      .cls-1 {
        fill: #f8f8f9;
      }

      .cls-1, .cls-2, .cls-3, .cls-4, .cls-5 {
        stroke: #788088;
        stroke-linecap: round;
        stroke-linejoin: round;
      }

      .cls-2 {
        fill: none;
      }

      .cls-6 {
        fill: #788088;
      }

      .cls-3 {
        fill: #d5d6d9;
      }

      .cls-7 {
        isolation: isolate;
      }

      .cls-4 {
        fill: #e4e5e7;
      }

      .cls-5 {
        fill: #b0b4ba;
      }

      .cls-8 {
        fill: #cccfd2;
        mix-blend-mode: multiply;
        opacity: .29;
      }
    </style>
  </defs>
  <g class="cls-7">
    <g id="ombrescaffale">
      <polyline class="cls-5" points="269.37 175.32 265.4 166.92 265.4 71.64 269.37 66.31"/>
    </g>
    <g id="scrivania">
      <polyline class="cls-5" points="47.98 176.09 50.91 167.92 50.91 72.64 47.98 67.31"/>
      <g>
        <rect class="cls-4" x="269.37" y="68.48" width="65.37" height="106.85"/>
        <g>
          <rect class="cls-4" x="277.33" y="79.37" width="50.44" height="89.22"/>
          <line class="cls-2" x1="277.33" y1="97.87" x2="327.78" y2="97.87"/>
          <line class="cls-2" x1="277.33" y1="118.49" x2="327.78" y2="118.49"/>
          <rect class="cls-6" x="292.56" y="86.71" width="20" height="1.78"/>
          <rect class="cls-6" x="292.56" y="107.29" width="20" height="1.78"/>
          <rect class="cls-6" x="292.56" y="127.91" width="20" height="1.78"/>
        </g>
      </g>
      <g>
        <rect class="cls-3" x="39.56" y="64.31" width="295.27" height="8.33"/>
        <polyline class="cls-1" points="39.56 64.31 50.27 62.23 326.13 62.23 334.83 64.31"/>
      </g>
      <rect class="cls-3" x="39.56" y="72.64" width="8.07" height="103.69"/>
    </g>
    <g id="ombre_scrivania">
      <polygon class="cls-8" points="269.37 117.03 334.74 175.32 334.48 72.64 269.37 72.82 269.37 117.03"/>
    </g>
  </g>
</svg>