<?xml version="1.0" encoding="UTF-8"?>
<svg xmlns="http://www.w3.org/2000/svg" viewBox="0 0 841.89 595.28">
  <defs>
    <style>
      .cls-1, .cls-2, .cls-3 {
        fill: #788088;
      }

      .cls-2 {
        opacity: .79;
      }

      .cls-4 {
        fill: #c4c6cb;
      }

      .cls-5 {
        fill: #fff;
        opacity: .31;
      }

      .cls-6 {
        fill: #968e7f;
      }

      .cls-7 {
        fill: #797977;
      }

      .cls-8 {
        isolation: isolate;
      }

      .cls-9, .cls-10 {
        fill: #d8dbdd;
      }

      .cls-11 {
        fill: #666c73;
      }

      .cls-11, .cls-12, .cls-13 {
        opacity: .85;
      }

      .cls-10 {
        opacity: .72;
      }

      .cls-14 {
        fill: #a2a0a0;
      }

      .cls-3 {
        mix-blend-mode: multiply;
        opacity: .68;
      }

      .cls-12 {
        fill: #eeeff0;
      }
    </style>
  </defs>
  <g class="cls-8">
    <g id="finestra">
      <g>
        <g>
          <path class="cls-4" d="M547.53,393.42h-284.76c0-5.25,8.26-9.5,18.45-9.5h247.86c10.19,0,18.45,4.25,18.45,9.5h0Z"/>
          <rect class="cls-3" x="262.76" y="393.42" width="284.76" height="2.62"/>
        </g>
        <g>
          <path class="cls-7" d="M324.28,374.19s-.04,0-.06,0v-.1s.06.1.06.1Z"/>
          <g>
            <rect class="cls-2" x="255.02" y="234.29" width="175.96" height="108.5" transform="translate(631.54 -54.47) rotate(90)"/>
            <polygon class="cls-5" points="397.42 192.25 389.68 200.56 281.01 317.08 281.01 266.26 288.76 257.95 342.28 200.56 350.03 192.25 397.42 192.25"/>
            <polygon class="cls-5" points="340.44 192.25 281.01 255.98 281.01 249.7 326.84 200.56 334.59 192.25 340.44 192.25"/>
            <polygon class="cls-5" points="405 192.25 405 204.1 397.25 212.4 288.76 328.74 281.01 337.05 281.01 325.13 397.19 200.56 404.94 192.25 405 192.25"/>
            <polygon class="cls-5" points="405 209.62 405 212.55 397.25 220.85 288.76 337.19 281.01 345.49 281.01 342.56 288.76 334.26 397.25 217.92 405 209.62"/>
          </g>
          <g>
            <path class="cls-9" d="M281.37,192.09v192.58h123.78v-192.58h-123.78ZM397.38,376.34h-108.73v-175.93h108.73v175.93Z"/>
            <path class="cls-1" d="M288.16,199.89v177.49h110.19v-177.49h-110.19ZM288.65,376.34v-175.93h108.73v175.93h-108.73Z"/>
          </g>
          <g>
            <path class="cls-14" d="M482.46,342.51h2.43l-5.05-9.37h-36.69v-3.64h.64c.49,0,.82-.83.82-1.29v-2.33c0-.46-.33-.54-.82-.54h-6.54c-.49,0-.89.08-.89.54v2.33c0,.46.4,1.29.89,1.29h1.05v3.64h-7.35l-5.05,9.37h2.69v41.12h53.88v-41.12ZM439.26,362.29h-3.88v-12.49h3.88v12.49ZM439.26,379.46h-3.88v-11.97h3.88v11.97ZM444.6,362.29h-3.88v-12.49h3.88v12.49ZM445.08,379.46h-4.37v-11.97h4.37v11.97ZM454.79,362.29h-3.88v-12.49h3.88v12.49ZM454.79,379.46h-3.88v-11.97h3.88v11.97ZM460.13,362.29h-3.88v-12.49h3.88v12.49ZM460.13,379.46h-3.88v-11.97h3.88v11.97ZM470.32,362.29h-4.37v-12.49h4.37v12.49ZM470.32,379.46h-4.37v-11.97h4.37v11.97ZM475.66,362.29h-3.88v-12.49h3.88v12.49ZM475.66,379.46h-3.88v-11.97h3.88v11.97Z"/>
            <path class="cls-14" d="M460.61,285.26v98.89h45.14v-98.89h-7.77v-4.68h-2.43v-14.05h-.97v14.05h-11.16v4.68h-22.81ZM469.35,371.14h28.64v6.25h-28.64v-6.25ZM469.35,362.81h28.64v5.2h-28.64v-5.2ZM469.35,352.92h28.64v6.25h-28.64v-6.25ZM469.35,344.59h28.64v5.73h-28.64v-5.73ZM469.35,336.26h28.64v5.2h-28.64v-5.2ZM469.35,327.41h28.64v5.73h-28.64v-5.73ZM469.35,318.05h28.64v6.25h-28.64v-6.25ZM469.35,309.72h28.64v5.73h-28.64v-5.73ZM469.35,300.87h28.64v5.73h-28.64v-5.73ZM469.35,291.5h28.64v6.25h-28.64v-6.25Z"/>
          </g>
          <rect class="cls-2" x="379.25" y="234.29" width="175.96" height="108.5" transform="translate(755.77 -178.69) rotate(90)"/>
          <polygon class="cls-5" points="529.22 209.62 529.22 213.38 519.41 224.04 381.86 373.42 372.04 384.08 372.04 380.32 381.86 369.66 519.41 220.28 529.22 209.62"/>
          <g>
            <path class="cls-9" d="M405.14,192.09v192.58h124.26v-192.58h-124.26ZM521.64,376.34h-108.73v-175.93h108.73v175.93Z"/>
            <path class="cls-1" d="M412.43,199.89v177.49h109.7v-177.49h-109.7ZM412.91,376.34v-175.93h108.73v175.93h-108.73Z"/>
          </g>
          <polygon class="cls-5" points="529.41 192.09 529.41 192.62 522.3 200.14 521.53 200.93 521.45 200.98 413 317.27 405 325.84 397.99 333.36 397.26 334.14 397.21 334.19 357.73 376.44 349.99 384.67 329.06 384.67 336.03 377.27 336.8 376.48 397.21 311.72 397.98 310.9 405 303.38 405.24 303.13 412.16 295.71 412.93 294.8 508.64 192.09 529.41 192.09"/>
        </g>
        <g>
          <rect class="cls-4" x="274.09" y="184.4" width="261.83" height="3.96"/>
          <rect class="cls-10" x="279.21" y="181.91" width="251.87" height="77.14"/>
          <rect class="cls-12" x="279.21" y="181.91" width="251.87" height="8.79"/>
          <rect class="cls-11" x="279.21" y="190.7" width="251.87" height="1.55"/>
          <g class="cls-13">
            <path class="cls-6" d="M283.2,252.69h-3.99c-.07,0-.13-.03-.13-.07s.06-.07.13-.07h3.99c.07,0,.13.03.13.07s-.06.07-.13.07Z"/>
            <path class="cls-6" d="M522.31,252.69h-7.97c-.07,0-.13-.03-.13-.07s.06-.07.13-.07h7.97c.07,0,.13.03.13.07s-.06.07-.13.07ZM509.02,252.69h-7.97c-.07,0-.13-.03-.13-.07s.06-.07.13-.07h7.97c.07,0,.13.03.13.07s-.06.07-.13.07ZM495.74,252.69h-7.97c-.07,0-.13-.03-.13-.07s.06-.07.13-.07h7.97c.07,0,.13.03.13.07s-.06.07-.13.07ZM482.46,252.69h-7.97c-.07,0-.13-.03-.13-.07s.06-.07.13-.07h7.97c.07,0,.13.03.13.07s-.06.07-.13.07ZM469.17,252.69h-7.97c-.07,0-.13-.03-.13-.07s.06-.07.13-.07h7.97c.07,0,.13.03.13.07s-.06.07-.13.07ZM455.89,252.69h-7.97c-.07,0-.13-.03-.13-.07s.06-.07.13-.07h7.97c.07,0,.13.03.13.07s-.06.07-.13.07ZM442.6,252.69h-7.97c-.07,0-.13-.03-.13-.07s.06-.07.13-.07h7.97c.07,0,.13.03.13.07s-.06.07-.13.07ZM429.32,252.69h-7.97c-.07,0-.13-.03-.13-.07s.06-.07.13-.07h7.97c.07,0,.13.03.13.07s-.06.07-.13.07ZM416.04,252.69h-7.97c-.07,0-.13-.03-.13-.07s.06-.07.13-.07h7.97c.07,0,.13.03.13.07s-.06.07-.13.07ZM402.75,252.69h-7.97c-.07,0-.13-.03-.13-.07s.06-.07.13-.07h7.97c.07,0,.13.03.13.07s-.06.07-.13.07ZM389.47,252.69h-7.97c-.07,0-.13-.03-.13-.07s.06-.07.13-.07h7.97c.07,0,.13.03.13.07s-.06.07-.13.07ZM376.19,252.69h-7.97c-.07,0-.13-.03-.13-.07s.06-.07.13-.07h7.97c.07,0,.13.03.13.07s-.06.07-.13.07ZM362.9,252.69h-7.97c-.07,0-.13-.03-.13-.07s.06-.07.13-.07h7.97c.07,0,.13.03.13.07s-.06.07-.13.07ZM349.62,252.69h-7.97c-.07,0-.13-.03-.13-.07s.06-.07.13-.07h7.97c.07,0,.13.03.13.07s-.06.07-.13.07ZM336.34,252.69h-7.97c-.07,0-.13-.03-.13-.07s.06-.07.13-.07h7.97c.07,0,.13.03.13.07s-.06.07-.13.07ZM323.05,252.69h-7.97c-.07,0-.13-.03-.13-.07s.06-.07.13-.07h7.97c.07,0,.13.03.13.07s-.06.07-.13.07ZM309.77,252.69h-7.97c-.07,0-.13-.03-.13-.07s.06-.07.13-.07h7.97c.07,0,.13.03.13.07s-.06.07-.13.07ZM296.49,252.69h-7.97c-.07,0-.13-.03-.13-.07s.06-.07.13-.07h7.97c.07,0,.13.03.13.07s-.06.07-.13.07Z"/>
            <path class="cls-6" d="M531.61,252.69h-3.99c-.07,0-.13-.03-.13-.07s.06-.07.13-.07h3.99c.07,0,.13.03.13.07s-.06.07-.13.07Z"/>
          </g>
          <rect class="cls-11" x="279.21" y="183.24" width="251.87" height="2.33"/>
          <path class="cls-1" d="M536.72,189.77h0c-.88,0-1.6-.4-1.6-.88v-5.45c0-.48.72-.88,1.6-.88h0c.88,0,1.6.4,1.6.88v5.45c0,.48-.72.88-1.6.88Z"/>
          <rect class="cls-1" x="271.98" y="182.56" width="3.19" height="7.21" rx=".85" ry=".85"/>
        </g>
      </g>
    </g>
  </g>
</svg>