<svg width="527" height="563" viewBox="0 0 527 563" fill="none" xmlns="http://www.w3.org/2000/svg">
<path d="M356.531 213.765C355.981 210.132 354.86 208.524 354.86 208.524C354.86 208.524 348.038 194.565 347.651 193.429C347.264 192.285 357.822 188.405 361.767 188.946C365.72 189.495 370.624 192.138 370.624 192.138C370.624 192.138 384.508 192.447 388.932 183.272C393.356 174.105 400.859 163.292 408.555 159.428C416.259 155.555 441.057 153.19 441.057 153.19L460.967 162.071C460.967 162.071 461.075 168.27 459.946 170.967C458.816 173.665 456.403 177.336 456.403 177.336L434.9 201.135C434.9 201.135 432.727 201.004 432.17 202.719C431.613 204.435 430.754 209.815 431.087 211.593C431.427 213.37 433.09 213.881 431.373 215.465C429.656 217.05 427.854 217.096 425.928 217.227L424.002 217.359C424.002 217.359 419.933 220.999 416.043 225.003C412.152 229.015 406.536 233.559 402.174 235.244C397.812 236.929 390.123 237.617 386.975 236.288C383.827 234.958 371.436 226.124 371.436 226.124C371.436 226.124 371.405 224.014 370.616 227.871C369.827 231.728 369.889 238.429 369.889 238.429C369.889 238.429 358.008 240.601 354.063 233.103C350.111 225.606 350.691 222.646 350.691 222.646L353.468 221.571C353.468 221.571 355.247 223.04 356.036 220.273C356.825 217.513 356.523 213.765 356.523 213.765H356.531Z" fill="#FAFBFC"/>
<path d="M410.812 295.595C413.016 300.085 414.176 303.262 414.176 303.262L430.396 291.653L448.109 289.558C448.109 289.558 449.757 288.7 451.984 286.358C454.212 284.016 456.138 277.817 456.138 277.817C456.138 277.817 457.592 274.725 458.435 273.01C459.278 271.294 460.052 268.542 460.052 268.542L461.622 265.984C463.192 263.425 464.948 259.653 464.948 259.653L447.15 271.742L440.274 271.835L450.878 264.283L458.381 258.788L460.222 256.639C460.222 256.639 462.132 254.614 462.241 253.501C462.349 252.388 460.593 252.357 459.007 251.97C457.422 251.576 450.847 250.247 448.944 250.038C447.042 249.829 446.044 251.252 446.044 251.252H443.159C443.159 251.252 442.084 251.816 440.312 253.215C438.541 254.614 434.155 260.295 434.155 260.295L429.669 260.565C429.669 260.565 428.068 262.034 427.217 264.963C426.366 267.893 429.669 272.206 429.669 272.206C429.669 272.206 428.393 275.344 427.503 277.067C426.606 278.791 425.005 281.45 423.125 282.857L418.809 285.199C418.809 285.199 410.665 283.962 408.785 283.367C406.905 282.772 402.814 281.45 402.814 281.45C402.814 281.45 402.249 283.019 402.203 284.689L402.156 286.358L406.921 290.192L410.819 295.595H410.812Z" fill="#FAFBFC"/>
<path d="M290.206 498.953C290.206 498.953 289.332 501.743 286.13 505.484C283.608 508.429 281.125 509.349 279.323 510.022C277.521 510.694 275.688 511.212 275.688 511.212C275.688 511.212 278.402 518.887 279.57 521.283C280.738 523.679 284.938 531.401 287.336 533.573C289.742 535.745 293.965 538.226 295.845 537.832C297.724 537.437 297.43 536.858 297.43 536.858C297.43 536.858 294.104 528.58 294.592 524.236C295.079 519.892 295.342 516.39 296.896 514.273C298.451 512.155 301.174 509.194 301.174 509.194L290.214 498.953H290.206Z" fill="#FAFBFC"/>
<path d="M394.07 522.017C394.07 522.017 396.87 526.16 397.992 529.476C399.113 532.792 400.583 538.736 400.243 540.599C399.91 542.462 399.16 543.992 399.16 543.992C399.16 543.992 401.171 545.321 403.963 545.445C406.755 545.576 414.923 545.198 419.881 543.775C424.832 542.353 431.909 539.741 434.307 538.419C436.705 537.097 439.574 534.933 439.574 534.933C439.574 534.933 431.987 533.913 427.531 532.553C423.076 531.192 417.955 529.19 416.014 527.668C414.073 526.153 411.984 524.29 410.948 522.729C409.919 521.175 407.583 516.7 407.583 516.7L394.062 522.01L394.07 522.017Z" fill="#FAFBFC"/>
<path d="M340.929 328.043C340.929 328.043 338.887 328.205 338.306 329.596C337.726 330.987 337.641 331.606 337.641 331.606L336.922 345.696L336.945 348.448C336.945 348.448 340.658 350.914 342.731 351.524C344.811 352.135 354.681 356.262 360.536 356.115C366.392 355.969 370.035 355.304 372.587 354.423C375.14 353.542 379.904 351.308 379.904 351.308C379.904 351.308 383.122 349.584 383.517 348.448C383.911 347.312 384.406 344.189 384.654 341.646C384.893 339.103 385.489 333.484 385.574 331.606C385.667 329.728 385.118 328.043 385.118 328.043L384.089 327.324L383.478 328.707C383.478 328.707 380.616 331.451 374.428 333.515C368.24 335.579 366.075 336.522 359.368 336.344C352.662 336.166 350.605 335.78 346.861 334.234C343.117 332.688 340.82 330.871 340.82 330.871L340.929 328.05V328.043Z" fill="#FAFBFC"/>
<path d="M275.688 511.212C275.688 511.212 271.635 510.957 268.572 512.727C265.501 514.497 263.196 517.519 263.196 517.519H262.183L259.406 520.735C259.406 520.735 262.531 526.246 263.815 528.425C265.099 530.605 275.464 546.28 278.743 549.016C282.023 551.752 287.515 555.818 294.553 556.738C301.592 557.657 307.455 558.353 308.685 557.232C309.915 556.112 311.369 555.068 311.485 552.888C311.601 550.709 311.74 548.954 310.441 547.571C309.134 546.187 299.72 538.504 299.72 538.504L297.261 537.438C297.261 537.438 294.26 537.724 291.498 536.858C288.737 535.992 283.547 529.453 281.482 525.063C279.416 520.665 275.704 511.212 275.704 511.212H275.688Z" fill="#D4D4D6"/>
<path d="M399.172 543.992C399.172 543.992 397.246 542.021 397.331 543.992C397.416 545.963 397.578 553.213 397.973 554.666C398.375 556.119 398.615 556.738 398.615 556.738L399.149 561.739C399.149 561.739 409.057 560.865 412.174 560.363C415.291 559.86 436.593 555.656 443.562 552.896C450.524 550.137 459.295 546.009 459.991 544.518C460.687 543.026 461.035 539.756 459.991 538.473L458.947 537.198C458.947 537.198 450.825 533.836 447.917 533.774C445.009 533.712 440.855 534.408 440.855 534.408C440.855 534.408 434.226 538.69 431.736 539.725C429.245 540.761 423.861 543.25 417.851 544.487C411.841 545.731 406.094 545.422 404.199 545.476C402.304 545.522 399.172 543.992 399.172 543.992Z" fill="#D4D4D6"/>
<path d="M336.936 348.448C336.936 348.448 334.917 354.361 334.461 358.148C334.004 361.935 333.037 374.364 341.236 386.244C349.443 398.132 343.673 389.475 343.673 389.475V429.041C343.673 429.041 339.96 428.222 339.318 429.041C338.676 429.853 338.104 430.958 338.39 432.52C338.676 434.089 338.885 434.838 338.885 434.838C338.885 434.838 320.7 454.958 315.518 459.943C310.336 464.921 297.248 476.994 297.248 476.994C297.248 476.994 294.208 473.98 292.87 474.691C291.54 475.394 291.084 476.376 290.418 476.994C289.753 477.612 285.445 482.83 283.797 484.151C282.15 485.473 280.015 486.764 280.146 487.406C280.278 488.047 284.919 495.908 286.566 497.832C288.222 499.765 297.271 509.024 302.678 512.348C308.085 515.672 316.523 519.776 316.523 519.776L318.411 518.423L327.631 508.136L330.013 505.477L326.726 500.994C326.726 500.994 330.647 496.109 332.697 493.89C334.747 491.672 353.643 473.191 355.476 471.414C357.309 469.636 362.909 463.839 363.258 462.896C363.606 461.953 364.116 463.847 364.116 463.847L374.736 505.028C374.736 505.028 370.714 506.837 370.536 507.687C370.358 508.537 370.49 509.674 370.923 510.818C371.364 511.969 374.504 524.955 376.105 525.604C377.706 526.253 387.22 526.918 393.269 525.519C399.325 524.12 411.368 518.91 415.213 516.599C419.057 514.288 423.644 511.482 423.644 510.238C423.644 508.993 420.673 500.669 419.567 497.763C418.461 494.857 417.247 492.801 416.025 492.94C414.803 493.071 412.869 493.72 412.869 493.72C412.869 493.72 407.284 474.776 403.177 460.917C399.078 447.066 393.779 425.053 391.219 409.146C388.659 393.231 382.711 362.963 382.486 358.589C382.262 354.214 382.084 350.017 382.084 350.017C382.084 350.017 373.862 355.69 366.382 355.984C358.903 356.27 353.952 356.401 347.502 353.696C341.058 350.991 336.928 348.455 336.928 348.455H336.936V348.448Z" fill="#EAE9EA"/>
<path d="M354.951 217.228L351.161 218.024C351.161 218.024 351.339 218.294 349.946 219.933C348.554 221.571 345.274 225.351 345.274 225.351L344.083 226.897L345.274 230.105C345.274 230.105 341.716 233.722 338.909 237.401C336.109 241.08 331.143 246.553 328.815 252.659C326.486 258.765 325.141 260.991 325.133 266.255C325.133 271.518 326.076 277.578 326.587 279.704C327.097 281.829 332.071 299.328 333.927 303.263C335.784 307.197 340.664 325.964 340.866 327.324C341.067 328.684 341.33 330.872 341.33 330.872C341.33 330.872 346.489 333.77 350.635 335.37C354.781 336.97 364.217 336.19 367.396 335.37C370.575 334.551 376.376 333.276 379.045 331.614C381.713 329.944 383.956 328.715 383.956 328.715L384.413 322.455L397.175 316.603C397.175 316.603 399.844 319.695 402.195 319.17C404.547 318.644 413.906 313.836 413.906 313.836C413.906 313.836 415.754 311.262 415.298 308.511C414.849 305.759 412.885 298.215 409.899 294.212C406.906 290.208 402.195 286.312 402.195 286.312C402.195 286.312 403.796 282.618 402.806 281.466C401.816 280.314 400.95 279.541 400.95 279.541L390.098 276.728C390.098 276.728 381.419 260.975 380.166 258.007C378.913 255.039 375.108 244.721 375.108 244.721C375.108 244.721 376.144 244.373 377.243 243.925C378.341 243.469 375.827 239.125 375.525 237.417C375.224 235.701 375.634 233.498 374.11 232.006C372.586 230.514 369.879 227.886 369.879 227.886C369.879 227.886 369.438 229.169 369.152 230.878C368.866 232.586 368.866 234.881 368.866 234.881C368.866 234.881 365.547 232.887 360.713 230.12C355.484 227.129 353.821 220.427 353.821 220.427C353.821 220.427 355.252 221.409 355.515 219.353C355.778 217.297 354.951 217.251 354.951 217.251V217.228Z" fill="#D4D4D6"/>
<path d="M319.297 110.192C319.297 110.192 333.978 102.215 343.035 99.1155C352.093 96.016 363.022 90.7678 381.578 88.8819C400.142 86.9959 412.688 86.4162 418.806 88.9592C424.924 91.4944 432.218 95.4905 441.647 107.989C451.076 120.487 461.286 135.296 466.058 147.764C470.831 160.231 466.259 159.52 466.135 160.154C466.012 160.795 466.074 165.495 463.428 169.012C460.775 172.529 458.068 175.126 458.068 175.126C458.068 175.126 459.855 170.465 459.963 167.976L460.071 165.487C460.071 165.487 454.162 165.85 448.956 166.446C443.751 167.049 441.392 166.098 434.477 170.009C427.562 173.92 422.967 178.217 418.814 182.785C414.66 187.353 404.303 205.556 404.303 205.556L402.841 208.516C402.841 208.516 401.72 191.326 402.81 187.191C403.901 183.056 407.83 170.125 407.83 170.125C407.83 170.125 405.548 168.803 402.81 170.009C400.072 171.222 398.015 173.935 398.015 173.935C398.015 173.935 396.916 175.991 397.481 177.359C398.046 178.728 400.118 181.974 400.118 181.974C400.118 181.974 398.007 183.597 396.599 187.763C395.191 191.929 391.053 205.989 391.053 205.989L369.883 192.13C369.883 192.13 362.914 190.128 357.399 191.504C351.884 192.88 347.753 195.523 347.753 195.523C347.753 195.523 342.695 177.97 342.153 172.606C341.612 167.242 342.54 161.298 342.03 160.363C341.519 159.42 331.742 143.66 328.153 135.088C324.564 126.516 319.312 110.192 319.312 110.192H319.297Z" fill="#D4D4D6"/>
<g style="mix-blend-mode:multiply" opacity="0.27">
<path d="M411.984 177.367C406.198 189.425 402.841 208.524 402.841 208.524C402.841 208.524 403.615 178.248 408.789 167.644C413.964 157.039 418.76 147.246 426.239 141.356C433.719 135.467 439.582 131.927 440.324 131.563C441.067 131.2 425.891 118.849 392.917 127.985C371.059 134.044 358.497 154.921 356.935 167.621C356.27 173.039 359.232 182.144 359.232 182.144C359.232 182.144 340.189 160.448 335.215 150.021C330.242 139.594 319.305 110.192 319.305 110.192C319.305 110.192 323.953 106.922 335.215 102.192C346.477 97.4615 373.704 88.8819 388.191 87.9389C402.679 87.0037 417.839 86.6636 423.563 90.7679C429.287 94.8644 436.751 101.589 442.421 108.916C448.09 116.244 460.234 135.567 460.234 135.567C460.234 135.567 427.082 145.893 411.984 177.367Z" fill="#D4D4D6"/>
</g>
<g style="mix-blend-mode:multiply" opacity="0.27">
<path d="M459.781 168.965C459.781 168.965 446.926 167.759 442.424 172.954C437.923 178.148 440.328 183.28 440.328 183.28C440.328 183.28 437.807 178.797 434.171 183.28C430.536 187.763 429.701 189.533 429.701 189.533C429.701 189.533 425.88 183.28 420.829 187.199C413.047 193.243 407.092 202.163 403.634 206.947C400.169 211.732 418.609 182.19 422.871 178.434C427.133 174.677 434.574 170.001 437.698 168.849C440.831 167.698 444.737 166.7 448.968 166.461C453.199 166.221 460.083 165.502 460.083 165.502L459.797 168.973H459.781V168.965Z" fill="#D4D4D6"/>
</g>
<g style="mix-blend-mode:multiply" opacity="0.27">
<path d="M402.841 208.524C402.841 208.524 401.047 202.859 397.102 203.477C391.541 204.343 385.871 220.659 385.585 227.871C385.299 235.082 391.541 238.073 391.541 238.073C391.541 238.073 387.542 239.627 378.345 231.99C369.148 224.354 363.749 217.227 362.001 218.812C359.062 221.471 361.235 230.105 361.235 230.105C361.235 230.105 358.513 227.136 357.391 231.99C356.27 236.844 361.235 245.772 361.235 245.772C361.235 245.772 357.987 238.669 354.29 242.139C350.592 245.61 344.845 257.111 345.271 263.982C345.696 270.854 356.146 296.6 361.235 304.468C366.317 312.337 372.436 317.09 377.239 317.028C382.042 316.967 400.281 309.245 400.281 309.245L397.311 302.312C397.311 302.312 399.523 304.198 406.539 299.962C410.924 297.311 410.599 296.839 410.599 296.839C410.599 296.839 411.698 298.88 411.968 299.421C413.863 303.139 427.84 286.212 430.339 285.493C432.837 284.766 447.178 285.879 448.941 284.697C450.705 283.514 456.521 277.539 456.521 277.539C456.521 277.539 452.685 288.77 450.364 289.984C448.044 291.205 430.377 291.645 430.377 291.645L414.157 303.255C414.157 303.255 419.417 309.315 415.441 312.074C411.466 314.833 402.795 319.154 402.795 319.154C402.795 319.154 398.347 317.933 397.752 317.26C397.156 316.588 384.169 322.996 384.169 322.996C384.169 322.996 382.065 326.01 374.091 330.864C372.018 332.124 369.86 334.736 369.86 334.736C369.86 334.736 366.634 338.864 364.02 346.083C361.406 353.294 366.805 355.66 366.805 355.66C366.805 355.66 353.864 351.803 370.68 417.193C378.09 446 386.033 480.419 389.963 490.799C393.892 501.18 397.234 506.003 398.587 505.477C399.941 504.951 401.565 504.287 401.565 504.287C401.565 504.287 403.831 512.789 406.523 516.375C409.207 519.962 413.887 517.659 413.887 517.659C413.887 517.659 405.131 523.054 404.28 527.444C403.429 531.834 406.33 540.615 412.193 542.4C418.064 544.186 423.625 542.725 423.625 542.725C423.625 542.725 441.585 541.117 445.708 541.89C449.831 542.663 456.181 544.147 456.444 545.499C456.707 546.852 453.698 548.576 453.698 548.576C453.698 548.576 438.406 555.834 418.272 559.312C406.453 561.352 400.374 561.723 400.374 561.723L398.703 557.774L397.195 546.79C397.195 546.79 398.123 543.714 398.579 543.699C398.579 543.699 401.913 542.106 399.392 532.955C397.551 526.277 395.656 525.055 395.656 525.055C395.656 525.055 393.103 525.658 386.668 525.921C380.232 526.184 375.383 525.055 375.383 525.055L370.788 508.005L374.292 505.477L358.157 441.896C358.157 441.896 358.83 445.072 354.189 449.038C349.548 453.003 323.25 477.219 317.58 484.693C311.91 492.167 311.462 497.191 311.462 497.191C311.462 497.191 306.148 493.157 305.521 492.646C302.744 490.405 295.605 498.698 294.762 503.236C293.919 507.773 293.919 505.516 293.919 505.516C293.919 505.516 291.985 504.418 289.309 508.592C286.633 512.766 285.782 517.659 285.403 524.228C285.024 530.791 286.416 532.607 288.713 534.926C291.018 537.245 295.76 543.567 297.222 547.702C298.684 551.838 296.185 557.032 296.185 557.032C296.185 557.032 282.765 553.623 278.72 549.009C274.675 544.394 261.549 525.055 261.549 525.055L259.383 520.727C259.383 520.727 261.402 517.102 262.16 517.512C262.918 517.921 263.428 516.638 263.428 516.638C263.428 516.638 263.683 515.865 266.004 514.319C268.324 512.774 273.422 511.204 273.422 511.204H275.286C275.286 511.204 278.851 510.37 282.479 508.352C286.114 506.335 289.301 500.986 289.301 500.986C289.301 500.986 279.834 489.524 280.244 488.04L280.654 486.563C280.654 486.563 285.148 483.302 287.306 480.651C289.464 477.999 292.039 474.908 292.039 474.908L295.621 476.129L297.214 476.855C297.214 476.855 334.326 439.871 335.618 438.58C336.909 437.289 338.859 434.847 338.859 434.847C338.859 434.847 338.07 429.552 339.299 429.042C340.522 428.532 343.105 428.794 343.105 428.794L343.654 389.483C343.654 389.483 333.715 376.498 333.885 368.761C334.055 361.032 336.917 348.448 336.917 348.448L338.866 328.986L341.388 328.329C341.388 328.329 330.466 294.753 328.478 287.039C326.49 279.333 323.884 264.067 327.047 256.972C330.211 249.876 342.788 232.941 342.788 232.941L345.255 230.105L344.064 226.897L348.535 221.571L351.861 217.227H354.924L356.471 212.203C356.471 212.203 347.382 195.972 345.812 190.113C344.242 184.254 341.806 171.547 341.604 167.613C341.403 163.679 341.45 160.007 341.45 160.007C341.45 160.007 359.418 182.894 364.02 186.936C368.622 190.979 378.886 198.631 383.937 202.148C388.988 205.664 389.963 205.463 389.963 205.463C389.963 205.463 395.779 190.128 397.264 187.199C398.75 184.262 400.095 181.982 400.095 181.982C400.095 181.982 396.158 176.479 397.992 173.943C399.825 171.408 402.153 170.017 402.153 170.017C402.153 170.017 398.881 172.645 401.41 175.76C403.94 178.875 404.435 177.839 404.435 177.839C404.435 177.839 403.46 184.092 403.058 190.113C402.656 196.134 401.983 198.693 402.4 203.601L402.818 208.517H402.841V208.524Z" fill="#D4D4D6"/>
</g>
<g style="mix-blend-mode:multiply" opacity="0.27">
<path d="M366.828 271.456C366.828 271.456 372.188 282.084 377.247 287.031C382.313 291.977 385.856 290.919 385.856 290.919L385.253 295.061L375.12 297.465L366.828 271.456Z" fill="#D4D4D6"/>
</g>
<g style="mix-blend-mode:multiply" opacity="0.27">
<path d="M391.547 280.484C391.547 280.484 402.855 281.226 402.67 282.502C402.476 283.777 402.175 285.802 402.175 285.802C402.175 285.802 399.313 284.187 397.456 285.168C395.6 286.15 392.846 287.031 392.846 287.031C392.846 287.031 394.301 287.031 392.924 283.754L391.547 280.477V280.484Z" fill="#D4D4D6"/>
</g>
<g style="mix-blend-mode:multiply" opacity="0.27">
<path d="M413.914 287.03C413.914 287.03 413.844 286.698 408.793 287.03C403.742 287.363 402.188 284.457 402.188 284.457L402.667 287.054L406.921 290.184L413.921 287.023H413.914V287.03Z" fill="#D4D4D6"/>
</g>
<g style="mix-blend-mode:multiply" opacity="0.27">
<path d="M428.903 274.046C428.903 274.046 423.396 267.066 427.217 264.964C431.038 262.861 433.304 263.124 436.297 262.861C439.291 262.606 443.452 262.861 443.452 262.861C443.452 262.861 441.093 263.024 440.32 263.974C439.546 264.925 437.682 265.095 437.682 265.095C437.682 265.095 437.024 264.523 435.323 265.752C433.621 266.981 431.672 268.751 431.486 269.926C431.301 271.109 428.903 274.038 428.903 274.038V274.046Z" fill="#D4D4D6"/>
</g>
<g style="mix-blend-mode:multiply" opacity="0.27">
<path d="M440.32 260.295C440.32 260.295 441.31 258.355 444.296 257.86C447.282 257.365 450.523 259.12 452.905 257.86C455.287 256.6 456.533 255.75 456.533 255.75H460.067C462.032 255.75 462.009 254.622 462.009 254.622L451.311 263.982L446.052 264.886H442.416C442.416 264.886 444.513 264.933 443.445 262.877C442.378 260.813 440.312 260.31 440.312 260.31V260.295H440.32Z" fill="#D4D4D6"/>
</g>
<g style="mix-blend-mode:multiply" opacity="0.27">
<path d="M464.558 260.797C464.558 260.797 461.534 264.013 457.117 268.596C452.701 273.172 450.38 276.727 447.155 276.241C443.929 275.754 437.68 271.75 437.68 271.75C437.68 271.75 443.086 273.443 445.314 272.407C447.542 271.371 450.434 269.423 453.884 267.174C457.334 264.925 464.551 260.805 464.551 260.805H464.558V260.797Z" fill="#D4D4D6"/>
</g>
<path d="M400.118 181.982C400.118 181.982 397.937 185.135 394.897 192.656C391.865 200.177 391.045 205.997 391.045 205.997C349.942 185.862 326.111 137.592 319.297 110.192C344.984 94.1998 409.949 77.203 428.15 93.821C447.115 111.127 460.675 133.596 467.481 151.289C469.701 157.07 466.221 164.753 455.477 166.021C444.741 167.281 424.947 162.651 402.833 208.524C402.833 208.524 398.169 175.798 420.26 147.764C429.178 136.441 441.376 131.053 441.376 131.053" stroke="#61615F" stroke-width="1.31" stroke-linecap="round" stroke-linejoin="round"/>
<path d="M466.902 159.428C465.997 164.034 464.969 168.834 458.997 174.283C454.001 178.852 460.56 172.243 460.065 165.488" stroke="#61615F" stroke-width="1.31" stroke-linecap="round" stroke-linejoin="round"/>
<path d="M370.7 226.124C369.092 229.208 368.937 230.615 369.154 235.245C361.991 232.091 355.617 227.028 353.312 218.812" stroke="#61615F" stroke-width="1.31" stroke-linecap="round" stroke-linejoin="round"/>
<path d="M341.503 159.428C340.776 169.128 344.094 193.073 353.144 206.476C353.144 206.476 357.151 213.757 358.489 214.963" stroke="#61615F" stroke-width="1.31" stroke-linecap="round" stroke-linejoin="round"/>
<path d="M432.281 177.413C436.303 177.251 439.9 177.174 440.326 183.28" stroke="#61615F" stroke-width="1.31" stroke-linecap="round" stroke-linejoin="round"/>
<path d="M408.786 231.009C407.154 229.455 404.099 226.619 404.316 221.363" stroke="#61615F" stroke-width="1.31" stroke-linecap="round" stroke-linejoin="round"/>
<path d="M406.922 290.193C409.637 288.933 423.413 283.623 425.014 281.458C427.597 277.957 431.697 266.556 436.461 265.258C438.395 264.732 448.992 265.428 451.32 263.982" stroke="#61615F" stroke-width="1.31" stroke-linecap="round" stroke-linejoin="round"/>
<path d="M456.474 276.72C455.128 281.612 451.756 288.553 448.113 289.558C443.17 290.926 430.4 291.653 430.4 291.653C426.47 294.18 414.18 303.262 414.18 303.262" stroke="#61615F" stroke-width="1.31" stroke-linecap="round" stroke-linejoin="round"/>
<path d="M448.109 277.539C462.427 269.547 464.956 259.653 464.956 259.653" stroke="#61615F" stroke-width="1.31" stroke-linecap="round" stroke-linejoin="round"/>
<path d="M460.223 267.777C459.264 272.693 454.63 281.536 448.945 284.689" stroke="#61615F" stroke-width="1.31" stroke-linecap="round" stroke-linejoin="round"/>
<path d="M395.672 525.063C398.495 528.727 402.069 540.344 399.153 543.993" stroke="#61615F" stroke-width="1.3" stroke-linecap="round" stroke-linejoin="round"/>
<path d="M409.234 519.977C414.347 529.608 423.938 532.468 439.578 534.941" stroke="#61615F" stroke-width="1.3" stroke-linecap="round" stroke-linejoin="round"/>
<path d="M289.332 500.986C288.21 503.954 283.43 509.404 275.688 511.212" stroke="#61615F" stroke-width="1.31" stroke-linecap="round" stroke-linejoin="round"/>
<path d="M299.705 511.035C292.171 516.584 294.778 532.113 297.725 537.446" stroke="#61615F" stroke-width="1.31" stroke-linecap="round" stroke-linejoin="round"/>
<path d="M402.656 282.501C405.843 283.352 410.615 284.704 418.296 285.168" stroke="#61615F" stroke-width="1.31" stroke-linecap="round" stroke-linejoin="round"/>
<path d="M347.742 195.531C352.159 191.218 361.201 190.059 370.699 192.818" stroke="#61615F" stroke-width="1.31" stroke-linecap="round" stroke-linejoin="round"/>
<path d="M366.992 222.368C366.992 222.368 374.232 229.162 378.347 231.991C386.221 237.409 393.461 242.24 406.44 232.679C418.731 223.628 423.263 217.367 423.263 217.367C426.845 218.256 430.542 216.918 430.635 215.473C430.913 211.044 429.954 205.672 431.431 202.727C438.594 196.413 453.166 180.544 456.972 175.768" stroke="#61615F" stroke-width="1.31" stroke-linecap="round" stroke-linejoin="round"/>
<path d="M354.289 220.412C354.289 220.412 359.216 214.971 355.589 210.789" stroke="#61615F" stroke-width="1.31" stroke-linecap="round" stroke-linejoin="round"/>
<path d="M403.563 184.231C403.563 184.231 395.225 180.003 398.017 173.943C400.81 167.883 406.912 170.65 406.912 170.65" stroke="#61615F" stroke-width="1.31" stroke-linecap="round" stroke-linejoin="round"/>
<path d="M429.472 187.779C429.472 187.779 428.76 188.405 429.688 189.533C430.616 190.662 431.483 189.819 431.483 189.819L429.472 187.779Z" fill="#1D1D1B" stroke="#61615F" stroke-width="1.31" stroke-linecap="round" stroke-linejoin="round"/>
<path d="M428.898 274.045C428.751 273.651 426.492 268.357 427.211 264.963C427.853 261.934 428.441 260.782 429.663 260.565C430.885 260.349 435.147 260.295 438.11 260.295C447.755 260.295 442.619 264.801 439.641 264.878" stroke="#61615F" stroke-width="1.31" stroke-linecap="round" stroke-linejoin="round"/>
<path d="M434.156 260.295C436.523 258.618 438.828 253.107 442.943 251.337C444.606 250.618 455.86 253.138 456.363 253.718C456.866 254.297 455.497 258.981 450.214 257.744C449.038 257.466 445.72 256.964 444.281 257.86" stroke="#61615F" stroke-width="1.31" stroke-linecap="round" stroke-linejoin="round"/>
<path d="M446.055 251.252C446.055 251.252 448.043 249.289 449.837 249.289C452.235 249.289 460.519 252.272 461.586 252.635C463.048 253.13 462.793 254.715 462.035 255.758C461.277 256.794 458.245 257.397 455.29 256.608" stroke="#61615F" stroke-width="1.31" stroke-linecap="round" stroke-linejoin="round"/>
<path d="M437.68 271.742C437.68 271.742 442.7 273.906 447.155 271.742" stroke="#61615F" stroke-width="1.31" stroke-linecap="round" stroke-linejoin="round"/>
<path d="M383.961 328.321C383.961 324.688 384.417 322.439 384.417 322.439" stroke="#61615F" stroke-width="1.31" stroke-linecap="round" stroke-linejoin="round"/>
<path d="M345.274 230.097C341.987 234.332 325.141 249.907 325.141 267.723C325.141 287.363 339.435 311.139 341.33 330.864" stroke="#61615F" stroke-width="1.31" stroke-linecap="round" stroke-linejoin="round"/>
<path d="M369.875 227.871C372.025 230.414 374.609 231.333 375.111 234.966C375.614 238.591 376.558 242.247 378.337 243.453C377.355 244.156 376.194 244.721 375.111 244.705" stroke="#61615F" stroke-width="1.31" stroke-linecap="round" stroke-linejoin="round"/>
<path d="M379.044 331.606C378.642 338.284 377.946 344.019 377.242 352.645" stroke="#61615F" stroke-width="1.31" stroke-linecap="round" stroke-linejoin="round"/>
<path d="M324.57 503.954C335.871 487.437 361.814 467.363 363.484 462.347" stroke="#61615F" stroke-width="1.3" stroke-linecap="round" stroke-linejoin="round"/>
<path d="M336.928 348.448C335.45 354.546 328.087 370.329 343.665 389.475C343.665 389.475 344.083 422.927 343.665 427.982C343.665 427.982 343.564 429.25 343.077 429.01C342.59 428.771 340.323 428.276 339.318 429.041C337.137 430.711 339.194 436.168 339.681 436.771" stroke="#61615F" stroke-width="1.31" stroke-linecap="round" stroke-linejoin="round"/>
<path d="M413.915 496.588C410.983 489.686 389.805 422 382.086 350.009" stroke="#61615F" stroke-width="1.3" stroke-linecap="round" stroke-linejoin="round"/>
<path d="M343.672 389.476C345.134 394.075 375.207 502.957 375.416 508.6" stroke="#61615F" stroke-width="1.3" stroke-linecap="round" stroke-linejoin="round"/>
<path d="M297.242 476.994C293.158 474.853 292.648 473.864 291.534 475.394C291.534 475.394 290.853 476.793 286.39 481.702C285.214 482.992 282.089 485.721 280.682 486.571C280.171 486.88 279.993 487.522 280.272 488.047L282.724 492.67C284.936 495.993 295.1 510.849 316.517 519.776C316.811 519.9 317.152 519.823 317.368 519.583L330.015 505.469C329.319 503.235 327.447 501.473 326.967 500.677" stroke="#61615F" stroke-width="1.3" stroke-linecap="round" stroke-linejoin="round"/>
<path d="M275.689 511.212C276.602 514.829 286.077 541.511 297.726 537.445C302.011 539.432 304.061 542.199 309.127 546.195C311.463 548.034 312.283 551.242 311.076 553.963C309.754 556.946 308.825 557.789 305.724 557.789C302.622 557.789 287.33 557.789 278.737 549.024C271.126 541.264 265.526 530.272 259.461 522.103C259.16 521.701 259.137 521.167 259.407 520.742C260.243 519.39 262.13 516.677 263.197 517.527C264.667 512.549 275.48 510.377 275.689 511.212Z" stroke="#61615F" stroke-width="1.31" stroke-linecap="round" stroke-linejoin="round"/>
<path d="M263.188 517.519C264.874 520.186 279.052 544.448 286.771 548.382C294.49 552.309 307.408 552.888 311.476 552.888" stroke="#61615F" stroke-width="1.31" stroke-linecap="round" stroke-linejoin="round"/>
<path d="M399.173 543.992C403.915 547.741 425.943 544.904 440.098 534.941C442.233 533.195 444.066 533.828 446.387 533.72C448.9 533.604 455.754 534.918 458.94 537.198C460.99 538.659 461.299 543.413 459.985 544.518C446.503 555.811 409.46 561.283 400.403 561.739C399.653 561.778 399.003 561.221 398.887 560.479C398.57 558.438 398.98 557.171 398.369 556.12C397.634 554.868 396.095 541.558 399.173 543.992Z" stroke="#61615F" stroke-width="1.3" stroke-linecap="round" stroke-linejoin="round"/>
<path d="M398.609 556.738C402.129 556.645 457.603 550.122 458.423 536.866" stroke="#61615F" stroke-width="1.3" stroke-linecap="round" stroke-linejoin="round"/>
<path d="M440.281 271.843C451.11 264.376 466.835 252.419 469.728 250.51C471.886 249.088 472.11 249.768 471.971 251.94C471.832 254.119 467.902 257.335 464.955 259.654L447.158 271.742" stroke="#61615F" stroke-width="1.31" stroke-linecap="round" stroke-linejoin="round"/>
<path d="M292.891 476.121C292.891 476.121 292.195 480.357 298.321 486.285C305.669 493.396 315.809 500.747 321.355 503.274C326.901 505.802 327.992 505.462 327.992 505.462" stroke="#61615F" stroke-width="1.3" stroke-linecap="round" stroke-linejoin="round"/>
<path d="M373.047 508.816C373.047 508.816 384.239 510.919 398.611 505.485C413.639 499.804 416.022 494.726 416.022 494.726" stroke="#61615F" stroke-width="1.3" stroke-linecap="round" stroke-linejoin="round"/>
<path d="M294.164 479.63C294.164 479.63 309.657 465.686 313.996 461.466C318.336 457.246 338.879 434.846 338.879 434.846" stroke="#61615F" stroke-width="1.3" stroke-linecap="round" stroke-linejoin="round"/>
<path d="M340.923 328.043C340.923 328.043 338.138 328.468 337.713 330.987C337.295 333.515 336.777 344.181 336.924 348.448C348.294 354.972 365.21 360.738 382.072 350.009C382.072 350.009 383.658 349.631 384.13 346.145C384.81 341.121 385.553 331.644 385.568 328.707C385.568 327.911 384.841 327.556 384.076 327.324V327.873" stroke="#61615F" stroke-width="1.31" stroke-linecap="round" stroke-linejoin="round"/>
<path d="M339.859 330.137C344.446 333.87 359.444 342.736 383.956 328.707" stroke="#61615F" stroke-width="1.31" stroke-linecap="round" stroke-linejoin="round"/>
<path d="M401.44 314.54C395.964 317.345 387.185 321.024 375.397 326.651C361.497 333.507 356.168 321.867 348.023 310.644C343.251 303.633 333.188 287.456 330.875 282.501" stroke="#61615F" stroke-width="1.31" stroke-linecap="round" stroke-linejoin="round"/>
<path d="M366.828 273.52C366.828 273.52 369.056 280.144 370.27 283.329C371.484 286.513 375.12 297.458 375.12 297.458" stroke="#61615F" stroke-width="1.31" stroke-linecap="round" stroke-linejoin="round"/>
<path d="M373.18 304.468C373.18 304.468 375.601 301.377 375.121 297.466C375.121 297.466 377.65 297.419 380.536 296.623C383.421 295.827 389.988 293.307 389.988 293.307" stroke="#61615F" stroke-width="1.31" stroke-linecap="round" stroke-linejoin="round"/>
<path d="M354.946 217.228C354.946 217.228 351.952 217.297 351.156 218.024C350.359 218.742 350.575 219.562 348.557 221.571C346.538 223.573 344.086 226.897 344.086 226.897C344.086 226.897 344.79 231.627 349.949 237.401C355.789 243.94 364.583 247.789 364.8 246.514C366.749 235.036 370.702 236.296 370.702 236.296" stroke="#61615F" stroke-width="1.31" stroke-linecap="round" stroke-linejoin="round"/>
<path d="M392.833 287.031C393.629 280.492 388.184 276.859 381.578 261.308C378.933 255.086 375.545 247.055 374.176 242.897C371.655 235.245 369.148 235.245 369.148 235.245" stroke="#61615F" stroke-width="1.31" stroke-linecap="round" stroke-linejoin="round"/>
<path d="M389.797 276.635L401.214 279.572C402.242 279.835 402.907 280.832 402.753 281.883L402.173 285.802" stroke="#61615F" stroke-width="1.31" stroke-linecap="round" stroke-linejoin="round"/>
<path d="M385.254 295.062C385.238 294.536 384.705 292.078 385.857 290.919C387.01 289.767 397.158 284.72 400.29 285.207C405.697 286.049 416.495 305.241 415.381 310.992C413.772 314.717 405.341 318.041 402.82 319.162C400.298 320.282 398.411 317.995 397.189 316.588" stroke="#61615F" stroke-width="1.31" stroke-linecap="round" stroke-linejoin="round"/>
<path d="M388.188 291.375C393.633 293.299 402.389 309.6 401.53 317.028" stroke="#61615F" stroke-width="1.31" stroke-linecap="round" stroke-linejoin="round"/>
<path d="M374.315 505.485C374.315 505.485 371.167 507.062 370.811 508.012C370.456 508.971 374.455 522.775 375.406 525.063C376.226 527.042 390.953 526.609 402.687 522.574C413.755 518.764 420.585 513.67 422.913 511.622C423.602 511.019 423.826 510.045 423.494 509.195L417.7 493.45C417.507 492.925 416.981 492.6 416.424 492.662C415.534 492.762 414.127 492.932 412.719 493.118" stroke="#61615F" stroke-width="1.3" stroke-linecap="round" stroke-linejoin="round"/>
<path d="M267.853 169.781C266.955 167.017 263.045 167.017 262.147 169.781L258.938 179.657C258.536 180.893 257.385 181.729 256.085 181.729H245.701C242.795 181.729 241.587 185.448 243.938 187.157L252.339 193.26C253.39 194.024 253.83 195.378 253.428 196.614L250.22 206.489C249.322 209.253 252.485 211.552 254.836 209.843L263.237 203.74C264.288 202.976 265.712 202.976 266.763 203.74L275.164 209.843C277.515 211.552 280.678 209.253 279.78 206.489L276.572 196.614C276.17 195.378 276.61 194.024 277.661 193.26L286.062 187.157C288.413 185.448 287.205 181.729 284.299 181.729H273.915C272.615 181.729 271.464 180.893 271.062 179.657L267.853 169.781Z" fill="#17A1E9"/>
<path d="M223.217 118.881C221.635 116.444 217.858 117.456 217.706 120.358L217.401 126.166C217.333 127.463 216.437 128.57 215.182 128.906L209.564 130.412C206.757 131.164 206.552 135.069 209.266 136.11L214.695 138.194C215.908 138.66 216.684 139.854 216.616 141.152L216.311 146.96C216.159 149.862 219.81 151.263 221.639 149.005L225.299 144.485C226.117 143.475 227.492 143.107 228.705 143.572L234.135 145.657C236.848 146.698 239.309 143.659 237.726 141.222L234.558 136.344C233.851 135.254 233.925 133.832 234.743 132.822L238.403 128.303C240.232 126.044 238.102 122.765 235.295 123.517L229.677 125.022C228.422 125.359 227.093 124.848 226.385 123.758L223.217 118.881Z" fill="#17A1E9"/>
<path d="M494.252 197.3C493.197 195.675 490.679 196.35 490.578 198.284L490.074 207.891C490.029 208.756 489.431 209.494 488.594 209.718L479.302 212.208C477.431 212.71 477.294 215.313 479.103 216.007L488.084 219.455C488.893 219.765 489.41 220.561 489.365 221.426L488.861 231.033C488.76 232.968 491.194 233.902 492.413 232.397L498.467 224.92C499.012 224.247 499.929 224.001 500.738 224.312L509.719 227.759C511.528 228.454 513.168 226.428 512.113 224.803L506.874 216.735C506.402 216.008 506.451 215.06 506.997 214.387L513.051 206.911C514.27 205.405 512.85 203.219 510.979 203.72L501.687 206.21C500.85 206.435 499.964 206.094 499.492 205.368L494.252 197.3Z" fill="#17A1E9"/>
<path d="M159.457 105.794C159.254 101.925 154.218 100.575 152.108 103.825L144.342 115.783C143.398 117.237 141.626 117.917 139.952 117.468L126.179 113.778C122.436 112.775 119.597 117.148 122.035 120.159L131.009 131.24C132.099 132.587 132.199 134.483 131.255 135.936L123.489 147.894C121.379 151.144 124.66 155.196 128.277 153.807L141.589 148.697C143.207 148.076 145.04 148.568 146.131 149.914L155.104 160.995C157.543 164.007 162.41 162.138 162.207 158.269L161.461 144.03C161.37 142.299 162.404 140.707 164.022 140.086L177.334 134.976C180.951 133.587 180.678 128.381 176.935 127.378L163.163 123.688C161.489 123.239 160.294 121.764 160.203 120.033L159.457 105.794Z" fill="#17A1E9"/>
<path d="M104.255 14.6353C102.759 10.0287 96.2415 10.0287 94.7447 14.6353L89.5091 30.7487C88.8398 32.8089 86.92 34.2037 84.7538 34.2037H67.8111C62.9675 34.2037 60.9536 40.4017 64.8722 43.2487L78.5791 53.2074C80.3316 54.4806 81.0649 56.7375 80.3955 58.7976L75.1599 74.9111C73.6632 79.5176 78.9356 83.3483 82.8541 80.5013L96.5611 70.5426C98.3135 69.2694 100.686 69.2694 102.439 70.5426L116.146 80.5013C120.064 83.3483 125.337 79.5176 123.84 74.9111L118.604 58.7976C117.935 56.7375 118.668 54.4806 120.421 53.2074L134.128 43.2487C138.046 40.4017 136.032 34.2037 131.189 34.2037H114.246C112.08 34.2037 110.16 32.8089 109.491 30.7487L104.255 14.6353Z" fill="#17A1E9"/>
<path d="M25.4021 52.8541C24.8034 51.0115 22.1966 51.0115 21.5979 52.8541L18.6729 61.8561C18.4052 62.6802 17.6373 63.2381 16.7708 63.2381H7.30553C5.36809 63.2381 4.56254 65.7173 6.12997 66.8561L13.7876 72.4197C14.4885 72.929 14.7818 73.8317 14.5141 74.6558L11.5892 83.6578C10.9905 85.5004 13.0994 87.0327 14.6668 85.8939L22.3244 80.3303C23.0254 79.821 23.9746 79.821 24.6756 80.3303L32.3332 85.8939C33.9006 87.0327 36.0095 85.5004 35.4108 83.6578L32.4859 74.6558C32.2182 73.8317 32.5115 72.929 33.2124 72.4197L40.87 66.8561C42.4375 65.7173 41.6319 63.2381 39.6945 63.2381H30.2292C29.3627 63.2381 28.5948 62.6802 28.3271 61.8561L25.4021 52.8541Z" fill="#17A1E9"/>
</svg>
