<?xml version="1.0" encoding="UTF-8"?>
<svg xmlns="http://www.w3.org/2000/svg" viewBox="0 0 538.83 841.75">
  <defs>
    <style>
      .cls-1 {
        fill: #f5f4f5;
      }

      .cls-2 {
        fill: #60605f;
      }

      .cls-3 {
        isolation: isolate;
      }

      .cls-4, .cls-5 {
        fill: #d4d4d6;
      }

      .cls-6 {
        fill: #fbfcfc;
      }

      .cls-7 {
        fill: #eae9ea;
      }

      .cls-8 {
        stroke-width: 1.2px;
      }

      .cls-8, .cls-9 {
        fill: none;
        stroke: #60605f;
        stroke-dasharray: 138 3 1 3;
        stroke-linecap: round;
        stroke-linejoin: round;
      }

      .cls-9 {
        stroke-width: 1.3px;
      }

      .cls-5 {
        mix-blend-mode: multiply;
        opacity: .37;
      }
    </style>
  </defs>
  <g class="cls-3">
    <g id="corpo_colore_sfondo">
      <path class="cls-6" d="M251.67,110.73s.73,11.38-3.95,19-15.65,24.12-18.72,28.23-5.1,46.31-5.8,54.68c-.7,8.37,1.9,21.92,1.9,21.92,0,0,12.18,27.69,23.63,35.96,6.65,4.8,9.85,7.51,9.85,7.51,0,0,2.04,4.8-.76,9.17s-6.15,6.95-6.15,6.95c0,0-57.29,47.92-61.1,50.12-3.8,2.21-24.72-2.19-30.8-6.46-6.08-4.26-12.91-9.62-12.91-9.62l-16.26-14.42s-8.83-11.61-11.74-16.65c-2.91-5.03-11.5-21.04-13.1-26.99s-3.37-17.32-5.3-16.28c-1.93,1.04-2.36,1.89-2.5,6.76-.14,4.87,1.97,28.74,2.5,34.28s.39,14.62.39,14.62l-.39,3.21s-1.96,2.02-2.21,4.96c-.25,2.93-.76,9.84,3.17,8.34,3.93-1.5,5.49-5.48,8.91-5.14,3.42.33,4.18,2.19,4.18,2.19l26.08,28.7,10.7,14.19s15.11,14.84,23.14,16.32c8.04,1.49,11.91,2.06,16.35-1.79,4.44-3.86,27.64-26.71,27.64-26.71,0,0-2.21,11.6-.94,14.78,1.26,3.18,8.82,10.01,10.42,15.21,1.61,5.2,5.29,24.28,6.44,28.25,1.14,3.97,1.92,5.45,1.92,5.45,0,0-2.41-.29-1.24,5.65,1.17,5.95,3.08,14.46,3.08,14.46l1.15,1.6s-1.4,8.13.86,11.73c2.26,3.6.86,5.48.86,5.48,0,0-2.99,5.88-6.64,16.84-3.64,10.96-11.02,36.43-12.91,48.17-1.89,11.73-3.71,34.68-3,43.72s1.71,16.83,6.5,20.38c4.79,3.55,18.22,12.45,22.34,16.19s39.51,27.77,39.51,27.77l18.21,13.04v5.35s6.16,5.27,12.25,8.45c6.09,3.17,5.78,6.72,10.36,3.22,4.57-3.5,15-14.96,15-14.96,0,0,12.41,6.42,16.57,14.96,4.16,8.54,9.06,24.54,10.61,28.45s2.75,5.39,4.49,2.64c1.74-2.75,3.55-6.85,3.85-12.93.3-6.08-.79-31.93-1.91-35.68-1.12-3.74-2.11-4.89-2.11-4.89,0,0-6.84-1.38-11.75-4.6-4.9-3.22-8.18-5.49-8.18-5.49,0,0-34-29.96-37.97-32.62-3.97-2.66-30.47-24.49-33.12-26.34-2.64-1.85-7.46-5.2-7.46-5.2,0,0-8.17-8.3-7.46-14.17s8.84-31.92,10.91-39.86c2.08-7.94,6.61-27.06,6.61-27.06,0,0,7.15-.44,17.42-6.64,10.27-6.21,21.48-17.7,23.27-23.8,1.79-6.11-2.06-16.87-3.84-19.54-1.78-2.67-6.33-10.16-6.33-10.16l11.85,9.67s16.44,9.37,23.9,13.2c7.46,3.83,16.45,8.36,16.45,8.36v-4.33l-.74-10.61,3.2-1.4-18.91-18.63s-24.88-21.98-31.35-40.99c-6.47-19.01-21.82-61.22-27.26-68.82-5.44-7.6-12.95-6.98-14.38-13.93-1.43-6.95-1.43-14.75-1.43-14.75,0,0,5.08.86,15.92-8.09s20.18-19.11,23.89-24.6c3.7-5.49,11.99-18.99,11.99-18.99,0,0,3.47,1.74,5.59.03,2.12-1.71,4.85-1.68,5.73-7.46.88-5.78.58-9.37-1.87-9.32-2.45.05-3.48,0-3.48,0,0,0,.52-39.02-20.21-68.68-20.73-29.66-63.44-31.56-63.44-31.56Z"/>
      <path class="cls-1" d="M303.23,682.08s1.61,5.67,1.78,8.59c.17,2.92-1.74,8.83-2.87,11.75-1.13,2.92-1.31,4.03-1.31,4.03,0,0,.36,5.87,4.18,6.82,3.82.95,7.33,2.97,12.44,1.52,5.11-1.45,8.23-1.31,9.62-3.6,1.38-2.29,0-6.51,0-6.51,0,0-4.77-11.87-4.8-11.95-.03-.08-1.45-4.99-1.38-7.82.06-2.83.35-4.46.35-4.46l-18,1.63Z"/>
      <path class="cls-1" d="M369.35,454.52s-1.86.47-4.01,3.62c-2.15,3.15-4.73,8.38-2.02,10.75s10.75,7.57,12.16,6.82c1.42-.75,1.68-2.87,1.68-2.87l-4.7-7.73-2.67-2.7-.44-7.89Z"/>
      <path class="cls-1" d="M410.35,455.12s-4.94,7.78-6.01,10.04-.74,5.37-.74,5.37c0,0,1.67,2.06,3.96.15,2.29-1.9-3.45,4.64-4.01,6.46s1.01,5.95,1.01,5.95c0,0,.44,1.16,2.48-.11l2.03-1.28s-3.33,3.58-3.24,5.18c.08,1.61.98,2.62,2.82,2.01,1.84-.61,2.92-1.35,3.49-3.26.58-1.91,0-3.32,0-4.99,0-1.67-.41-2.29-.41-2.29,0,0,2.69-3.65,1.98-6.93-.71-3.28-1.25-4.41-1.25-4.41,0,0,2.36-5.76,1.55-8.32-.81-2.56-3.65-3.57-3.65-3.57Z"/>
    </g>
    <g id="bicchiere">
      <path class="cls-4" d="M367.18,438.06l3.05,24.35s3.57,4.9,5.25,7.67c1.68,2.77,2.6,4.46,1.3,5.05-1.3.59-4.1,0-4.1,0l3.01,14.55,1.53,7.38s5.58,5.09,11.11,5.34c5.53.25,12.16-.66,13.75-1.85,1.59-1.19,3.55-4.1,3.55-4.1l.19-6.77s-.74-.83,0-2.78c.74-1.95,1.21-3.91,1.21-3.91,0,0-3.37.35-3.6-1.12-.24-1.47.28-4.02,1.57-6.46s2.56-4.72,2.56-4.72c0,0-3.92,2.02-4.24-.43-.33-2.45.36-4.03,1.53-6.07,1.17-2.04,4.32-7.78,4.32-7.78l.31-18.38-7.39-2.47-2.99-6.16s-4.75-2.97-9.23-2.81c-4.49.16-8.19-.06-10.02,1.91-1.83,1.97-4.25,6-4.25,6l-8.4,3.55Z"/>
    </g>
    <g id="scarpe">
      <path class="cls-4" d="M374.11,637.12s2.58-.54,3.46,16.02,2.1,25.62,0,30.73c-2.1,5.11-1.64,5.89-3.46,6.99s-2.79,1.03-2.79,1.03c0,0,.62,7.58,1.26,10.53.65,2.95,1.61,8.21,4.28,9.68,2.66,1.47,7.52,1.94,7.52,1.94,0,0,4.93.21,6.21-.97,1.28-1.18,2.22-3.09,3.02-7.73.8-4.64,3.98-35.65,3.7-42.3-.28-6.65-1.34-19.73-2.72-21.8-1.37-2.07-2.92-2.7-2.92-2.7l-10.44-.94-7.13-.47"/>
      <path class="cls-4" d="M301.48,704.1s-1.79,3.85,0,6.07c1.79,2.22,6.34,4.96,11.97,4.62,5.64-.34,6.08.03,8.81-1.08,2.74-1.12,6.02-2.27,6.05-4.25s-1.12-6.23-1.12-6.23c0,0,6.41,6.67,7.32,10.84.92,4.17,1.13,11.04.98,12.24-.15,1.21-.86,4.8-7.04,5.61-6.18.81-23.21,2.43-25.26,1.52-2.05-.9-6.36-2.29-7.44-5.83s-2.55-7.84-2.04-10.45c.51-2.61-.19-2.35,1.85-5.26,2.04-2.91,5.91-7.81,5.91-7.81Z"/>
    </g>
    <g id="pantalone">
      <path class="cls-7" d="M239.26,439.19s.07,9.64.52,11.1c.45,1.45,1.2,6.11,1.2,6.11,0,0-9.17,24.59-11.08,31.23-1.9,6.63-8.77,29.82-10.35,45.38-1.58,15.57-3.76,33.35-.27,41.82s4.6,9.98,11.01,14.59c6.41,4.6,17.32,12.31,19.7,14.24s31.33,21.99,31.33,21.99l24.53,18.09s-1.57,3.29-.83,4.6c.74,1.31,1.14,2.06,3.42,3.21,2.28,1.15,9.93,6.06,11.94,6.76,2.01.71,5.06,2.58,6.6,1.67,1.54-.91,8.93-7.21,11.81-10.69,2.88-3.48,10.93-13.81,12.67-17.05,1.74-3.24,5.63-10.87,6.63-13.99,1.01-3.12,2.16-5.23-1.42-7.79-3.58-2.57-16.41-11.55-16.41-11.55,0,0-1.35-1.35-2.84-.14-1.49,1.22-4.03,2.92-4.03,2.92,0,0-14.93-8.6-18.85-11.17-3.93-2.57-38.9-27.66-38.9-27.66,0,0,1.45-6.29,0-6.72-1.45-.43-6.05-.95-7-2.3s-.04-14.98,2.34-21.12c2.38-6.14,9.64-29.56,10.45-32.94s3.9-16.52,3.9-16.52l.36-1.48.86,48.64.23,30.59v13.4l46.29,30.32,1.35-1.5,1.36-62.12s.72-38.05.46-43.45-2.32-32.08-3.36-36.55c-1.04-4.47-5.81-19.11-7.91-23.52-2.11-4.41-8.07-15.39-8.07-15.39,0,0-1.02,3.44-8.33,8.58-7.31,5.14-18.14,11.24-28.7,13.27-10.56,2.03-13.27,2.3-21.79.81-8.53-1.49-18.83-5.67-18.83-5.67Z"/>
      <path class="cls-7" d="M289.65,627.02l.73,24.47s-3.66.82-5.2,2.19c-1.54,1.38-2.02,2.02-1.99,2.61.03.59,1.31,7.04,1.71,9.23.4,2.19.5,7.1.88,9.05.39,1.95.41,3.55,3.86,4.58,3.46,1.03,12.61,3.79,19.61,3.69,7-.11,16.7-1.36,20.92-3.28,4.22-1.92,7-1.91,7.42-3.98.42-2.07.42-14.94.42-14.94,0,0,.22-4.47-.96-5.19-1.18-.72-2.58-1.16-4.97.05-2.39,1.2-1.2,4.22-5.11,4.47-3.91.25-37.33-32.96-37.33-32.96Z"/>
    </g>
    <g id="camicia">
      <path class="cls-4" d="M146.86,328.19s4.34-5.1,5.91-5.02,6.91,3.39,9.38,5.02c2.47,1.64,1.28-.95,2.47,1.64,1.2,2.59,1.1,6.82,1.1,6.82l4.94,2.63,6.06,2.63s1.81-4.32,4-4.01c2.18.31,5.41,2.58,5.41,2.58,0,0,27.33-23.7,30.55-26.7,3.22-3,19.42-18.61,19.42-18.61,0,0-2.91-5.8,1.12-8.26,4.03-2.46,11.74-5.18,14.44-4.94,2.7.24,5.23,1.56,5.23,1.56l.92,3.68s-.54,1.06-2.7,3.58-3.46,3.37-3.46,3.37c0,0-.03,3.57,2.19,6.44,2.22,2.88,4.72,4.78,7.5,8.56,2.78,3.78,4.38,7.88,4.38,7.88,0,0,1.78-4.84,5.27-5.61,3.48-.77,7.05,0,7.05,0l5.06-12.64s-3.2-1.66-4.13-4.62-1.43-6.95-1.43-6.95c0,0,7.78.74,10.39,2.86,2.6,2.12,5.17,4.07,6.23,6.72,1.06,2.65,1.59,9,1.59,9,0,0,5.16,4.03,8.58,10.38,3.41,6.35,11.43,24.97,14.03,35.12,2.59,10.16,3.82,20.14,8.04,26.71,4.21,6.57,12.11,16.4,12.11,16.4,0,0,5.49-2.2,6.38-.86.89,1.34,2.04,3.48,4.81,6.03,2.76,2.55,4.47,2.4,4.91,5.47.44,3.07,1.29,7.49-1.63,11.25s-3.63,6.14-10.54,9.54c-6.91,3.39-19.89,5.98-19.89,5.98l-5.42-8.67s-2.6-11.24-3.36-15.8.85-5.42-1.28-6.13c-2.14-.71-2.38.34-2.38.34,0,0,.04,6.45-12.25,11.75-12.29,5.3-22.68,9.19-30.75,9.51-8.07.32-17-.32-21.86-1.81-4.86-1.49-8.97-3.5-8.97-3.5l-8.36-33.7s-10.63-12.19-11.06-17.14c-.43-4.94.85-12.33.85-12.33,0,0,1.4-1.11-7.89,7.93s-17.24,18.21-21.43,19.78c-4.19,1.58-11.77,2.06-17.72-1.34-5.95-3.4-19.36-14.72-19.36-14.72l-5.15,2.46s-2.99-.56-6.91-3.3c-2.82-1.97-6.44-4.56-6.44-4.56l.1-3.68,3.92-9.26,3.56,4.58s3.05-5.74,5.9-10.28c2.85-4.55,3.83-11.21,3.83-11.21l-3.24-2.5Z"/>
    </g>
    <g id="orologio">
      <path class="cls-4" d="M113,322.25s6.66-6.72,7.26-8.47c.6-1.76.61-1.69,1.21-.98.6.71,3.94,5.4,4.45,5.66.51.26.68,1.83.68,1.83,0,0-5.82,7.55-7.13,8.23s-1.77.9-2.21-.32c-.44-1.22.19-2.28-1.53-2.97-1.73-.69-2.89-1.69-2.89-2.05,0-.36.16-.92.16-.92Z"/>
      <path class="cls-7" d="M122.85,306.02s-1.38,4.8-1.69,5.39.3,1.38.3,1.38c0,0,1.91,1.99,3.03,3.35,1.12,1.36,1.97,3.37,1.97,3.37,0,0,1.82-1.62,2.83-3.37,1.01-1.75,1.68-4.13,1.68-4.13l-3.37-4.88s0-2.18-1.58-1.95c-1.59.22-3.17.84-3.17.84Z"/>
    </g>
    <g id="capelli_colore" data-name="capelli colore">
      <path class="cls-4" d="M202.69,202.36s9.63,20.27,14.17,25.38c4.53,5.11,8.25,7.53,8.25,7.53,0,0-3.61-49.48.78-64.74,4.39-15.26,3.86-14.89,10.47-23.66,6.61-8.77,14.59-19.83,15.25-29.09,0,0,1.34,10.43,6.98,14.28s14.86,7.3,21.36,14.13c6.5,6.82,8.7,12.24,11.87,16.95s3.2,6.4,3.2,6.4c0,0,2.49-8.5,1.68-13.83-.81-5.33-2.58-12.17-2.58-12.17,0,0,12.23,9.31,16,15.82s10.52,24.06,10.52,39.28-1.94,45.18-1.94,45.18l-1.31,2.9s11.11-13.83,16.19-28.59c2.48-7.21,1.76-7.14,2.79-7.09,3.17.15,5.19,3.48,5.19,3.48,1.36-1.18,24.97-22.32,27.47-24.65s4.5-4.5,7.33-7.17c2.33-2.17-1-8-2.83-11.83s-26.06-73.14-57.3-88.72c-25.05-12.48-44.7-5.78-54.37-2.95-13.12-2.52-25.75,7.15-38.65,22.11-4.17,4.83-48.85,58.89-51.85,62.39s4.67,15.33,6.67,18,5.83,8,9.5,11.96c3.67,3.96,11.33,9.88,13.72,11.23"/>
    </g>
    <g id="ombre">
      <path class="cls-5" d="M318.34,159.34c7,10.94,11.71,34.18,11.33,48.67-.31,12.16,0,19.08-6.78,30.81s-23.22,28.52-23.22,28.52c0,0,10.91-14.59,13.33-22.67,5.87-19.58,5.7-39.65,4.36-55.65-1.33-16-16.1-34.68-16.1-34.68,0,0,1.33,7.2,0,13.2-1.33,6-7.26,10.35-7.26,10.35,0,0-5-9.65-10.19-18.09-9.9-16.1-19.73-18.26-22.46-20.24-13.36-9.69-10.35-17.56-10.35-17.56,0,0,1.27,12.36-3.7,21.23-4.97,8.87-8.5,11.79-13.47,24.56-4.97,12.77-2.59,48.43,4.5,73.62,7.1,25.19,30.85,39.81,30.85,39.81,0,0-6.65,3.84-7.83,17.55-.59,6.8,4.15,17.27,4.15,17.27,0,0-3.04-6.15-7.3-10.76-4.26-4.61-6.74-11.71-7.2-15.61s4.12-6.89,4.12-6.89c0,0,4.08,4.05,3.84,1.82-.46-4.23-1.17-7.21-1.17-7.21,0,0-7.22-6.06-12.9-12.09-5.68-6.03-20.4-28.49-20.4-28.49,0,0-5.68-5.68-7.45-8.51-1.77-2.84-4.33-16.39-5.26-25.93-1.97-20.35-1.52-29.34,1.61-39.35,8.2-26.18,18.34-28.34,30.26-42.58,7.35-8.78,10.19-21.01,10.19-21.01,0,0,.82,16.64,4.73,21.25,3.9,4.61,12.14,7.92,21.36,15.02,9.22,7.1,17.29,23.06,17.29,23.06l-.71-5.68c-.71-5.68-2.18-9.37-2.18-9.37,0,0,17,4.69,24,15.63Z"/>
      <path class="cls-5" d="M335.19,124.33s10.29,15.61,13.84,26.61c3.55,11,8.51,26.61,12.42,31.93,3.9,5.32,6.39,7.1,6.39,7.1l-25.9,24.13s-1.77-2.48-3.19-3.19l-1.42-.71s7.62-32.65,8.16-44.35c.98-21.37-10.29-41.51-10.29-41.51Z"/>
      <path class="cls-5" d="M177.36,180.77s4.58.19,9.35-5.91,15.07-23.4,15.07-23.4c0,0-4.39,19.2-2.86,30.84s4.01,19.84,4.01,19.84l-1.72,2.29s-5.53-1.91-14.5-11.07c-7.59-7.75-9.35-12.59-9.35-12.59Z"/>
      <path class="cls-5" d="M222.96,322.33s1.72,0,1.91,4.96c.19,4.96,0,23.66.95,29.57.95,5.91,3.24,11.45,7.44,16.41,4.2,4.96,9.73,10.11,9.73,10.11,0,0-.95,11.45,1.14,19.46,2.1,8.01,7.63,18.12,7.63,18.12,0,0,.38,1.53,7.82,1.91,7.44.38,16.22-.95,16.22-.95,0,0-2.29,3.24-2.67,8.39-.38,5.15,1.72,12.4,1.72,12.4,0,0,12.97-.19,17.93-2.29,4.96-2.1,11.07-5.34,11.07-5.34,0,0-9.54,9.92-20.41,12.4-10.87,2.48-20.6,3.05-22.89,5.15-2.29,2.1-5.72,2.1-11.83,15.07s-11.07,33.01-14.88,54.18c-3.82,21.18-5.72,33.77-4.77,39.3s1.14,8.01,8.78,14.31c7.63,6.3,27.09,24.23,38.16,31.1,11.07,6.87,34.53,18.12,40.26,18.32,5.72.19,11.45-.95,11.45-.95,0,0-.19,5.72,4.58,9.16,4.77,3.43,19.65-3.05,19.65-3.05l1.91-2.86s.19,7.25,1.91,11.83c1.72,4.58,10.68,12.78,12.78,16.79,2.1,4.01,5.91,19.46,6.49,24.04.57,4.58,1.14,8.39,1.14,8.39,0,0,1.72,10.68,3.24,13.74,1.53,3.05,4.96,5.91,7.06,6.68,2.1.76,5.91,0,5.91,0v3.82s-2.67,2.29-6.11,1.91c-3.43-.38-10.3-.38-11.45-3.05-1.14-2.67-4.39-17.93-4.58-20.03-.19-2.1-4.96-18.32-7.63-25.18-2.67-6.87-5.72-11.45-9.35-14.69-3.62-3.24-10.3-6.87-10.3-6.87l-10.11,10.68s-4.58,5.53-6.87,4.96c-2.29-.57-4.96-1.53-4.96-1.53,0,0-6.49,4.01-8.01,7.25-1.53,3.24-2.48,6.11-1.91,9.54.57,3.43,2.1,7.44,2.1,7.44,0,0,1.91,9.54.95,14.69-.95,5.15-3.05,11.45-3.82,13.36-.76,1.91-1.91,3.48-1.91,3.48,0,0-1.53,3.96-1.14,5.87.38,1.91,3.24,7.82,4.01,8.97.76,1.14,2.67,3.62,2.67,3.62l-16.6-2.67-2.1-5.91s-3.05-5.91-1.91-8.97,5.15-8.01,6.3-10.11c1.14-2.1,4.58-8.59,4.58-8.59,0,0,.76-4.39.57-8.01-.19-3.62-.38-5.72-.38-5.72,0,0-17.17-3.82-17.74-5.34-.57-1.53-.95-8.01-1.53-11.26-.57-3.24-3.05-11.26-1.53-11.64,1.53-.38,6.3-3.62,6.3-3.62l-1.72-20.6-32.24-23.47s-7.63-6.3-14.88-10.3-19.08-13.36-20.6-17.17c-1.53-3.82-3.43-21.94-2.86-32.62.57-10.68,5.91-39.49,10.3-54.76,4.39-15.26,13.16-36.06,13.16-36.06l-1.91-16.6-1.53-1.91-4.39-20.03,2.48-1.14s-5.58-23.38-6.53-27.95c-.95-4.58-.34-4.48-.34-4.48,0,0-9.92-8.97-11.44-14.88-1.19-4.64,1-15.4,1-15.4,0,0-14.82,13.87-20.36,19.97-5.53,6.11-12.4,10.06-16.62,9.71-13.27-1.11-25.08-13.13-25.08-13.13l-5.72-5.15-4.01,3.43-6.21-2.14-7.52-7.02,2.86-11.45-16.79-18.69-1.25-.25-1.52-3.28-3.38-2.51.8-2.36s-2.29-1.72-5.91,1.53-4.2,4.96-6.3,3.62c-2.1-1.34-4.77-2.63-4.01-5.61s3.62-10.23,3.62-10.23l-1.91-24.99s-.95-28.81.38-29.57c1.34-.76,2.86-1.14,2.86-1.14,0,0-.95,13.16-1.14,21.75-.19,8.59,2.1,30.53,3.24,34.15,1.14,3.62,3.05,5.72,5.72,5.72h7.25l4.01-3.24,4.96,5.91-1.53,4.2s1.91,3.43,5.53,7.82c3.62,4.39,11.26,11.26,13.16,11.64,1.91.38,2.67-1.14,2.67-1.14,0,0,.76,6.3,2.86,7.44,2.1,1.14,12.4-1.14,13.55-2.67,1.14-1.53.19,3.62,1.72,6.49s8.78,5.91,12.59,4.2c3.82-1.72,5.53-4.96,7.44-4.96s5.34,5.53,7.63,4.77c2.29-.76,13.16-11.83,17.36-15.84,4.2-4.01,10.49-12.59,10.49-12.59l3.05-5.72Z"/>
      <path class="cls-5" d="M309.67,365.67s-6.72,6.92-7.72,13.25c-1,6.33-.95,13.41.39,17.41,1.33,4,2.89,10.33,2.89,10.33l5.11-3.33,4.67,11s1.33,6.33,3,9.33c1.67,3,4.33,7.67,4.33,7.67h5.75s22.59,12.67,26.25,14.67c3.67,2,13.5,7.33,13.5,7.33h1.83l-1.83-9.33s-11.48-5-16.32-10.67c-4.85-5.67-5.51-8.33-5.51-8.33,0,0-3-5.67-7.33-9.33-4.33-3.67-5.67-5.33-5.67-5.33,0,0,.83.67-4.92-7.33-5.75-8-11.41-15.67-12.75-23.33-1.33-7.67-5.33-26-6.67-29-1.33-3,1,15,1,15Z"/>
      <path class="cls-5" d="M388.34,434.01v5.33l3,4.33-5,1.33s-3.67,1.67-4,5c-.33,3.33,3.33,3.33,3.33,3.33,0,0,9,1,12.67,0,3.67-1,7-3,7-3,0,0-12.33,7.67-16.67,10-4.33,2.33-7.38,10.33-6.35,15.67,1.02,5.33,1.69,16.33,3.35,20.67s4.67,5.33,4.67,5.33c0,0-9-1.33-11-4.33s-5.67-11-5.67-11l-1.67-11,4-.33s-1-1.33-4-5.67c-3-4.33-5.34-6.67-4.17-7.67,1.17-1,1.83-2.33,1.83-2.33l-2.14-20.67s4.81-3,5.81-3,2.67-2,2.67-2l2-4.33s.33,1.67,4.33,3c4,1.33,6,1.33,6,1.33Z"/>
      <path class="cls-5" d="M409.67,453.34s0,3.33-4.33,8c-4.33,4.67-5.67,7.67-4.67,9.67l1,2s-2.3,6.67-1.32,8.67,4.54,3.33,4.54,3.33c0,0-1.22,4,.45,5,1.67,1,2.67,0,2.67,0l1.67-2.67s-2-6,0-7.67c2-1.67-7,1.67-4.33-2.33,2.67-4,4.63-7,4.63-7,0,0-7.29.67-4.63-3,2.67-3.67,3.59-5.67,4.63-7.67s-.29-6.33-.29-6.33Z"/>
      <path class="cls-5" d="M287,481.67l10-4s-.33,1.64-1.67,15.99c-1.33,14.35-1,38.68-.67,49.01.33,10.33,2.33,34.33,2.33,34.33l-11.67-7.67v-67.33l1.67-20.33Z"/>
    </g>
    <g id="TRACCIATO">
      <path class="cls-8" d="M222.21,319.52c2.86,2.95-4.54,34.81-5.3,43.52-.97,10.99,11.1,18.83,11.87,22.39,1.23,5.66,4.7,23.29,5.58,26.59.69,2.6.84,4.98,3.38,6.33,3.24,1.73,11.12,3.64,14.62,4.17,20.95,3.14,41.25-7,45.5-9.25s12.25-8.5,12.25-11.75-1.46-9.89-2.43-14.52c-.73-3.5-1.57-6.23-.57-9.73s2.49-11.1,2.79-15.6c1.01-15.16-14.14-31.44-13.29-42.15"/>
      <path class="cls-8" d="M277.55,287.2c1.28.05,1.04.1,3.36.57,1.25.25,5.13.84,7.03,2.29,2.29,1.75,3.15,2.46,5.04,4.81,1.62,2.03,2.96,5.99,2.75,7.9-.12,1.12-.38,4.5-.88,6.25s-1.75,5.38-2.38,6.62-1.75,3.12-2.75,3.88-3.88,1.25-5.12,0-3-4.88-4.38-6.5-4.25-2.62-5.75-2.38-5.04.77-6.88,3.25c-1.56,2.11-1.38,2-1.88,3.12-1-3.88-2.62-5.88-4.38-7.88s-4.2-4.3-6.57-7.19c-1.78-2.15-4.3-8.16-3.68-11.9.48-2.87,1.62-4.91,2.62-5.91s2.9-.77,3.91.44"/>
      <path class="cls-8" d="M257.64,284.59s-1.28-3.85-8.91-2.22-10.38,3.16-11.5,4.54-1.38,5.38-.88,8,2.25,7.62,3,9.38,2.29,4.98,3.41,6.72c1.59,2.47,3.91,7.39,5.47,5.66,2.78-3.09,3.38-4.62,4.5-5.62s4-4,8.62-1.88"/>
      <path class="cls-8" d="M277.55,287.2c3.11,1.57,4.43,3.2,5.55,5.33s.75,5,0,7.88-3.37,8.91-5.06,11.02"/>
      <path class="cls-8" d="M236.35,294.9c-1.62,1.75-10.12,10.25-12.75,12.5s-18.38,17.25-21.38,19.62-14.09,11.95-16.09,13.45"/>
      <path class="cls-8" d="M186.94,342.84c-1.62-1.75-3.11-5.63-6.21-4.94-1.78.4-3.88,2.38-4.75,6.38"/>
      <line class="cls-8" x1="176.73" y1="341.9" x2="165.73" y2="336.65"/>
      <path class="cls-8" d="M218.43,353.79c-4.21,2.86-10.08,9.24-14.08,13.49s-9.38,9.75-11.25,11.38-6.16,5.12-10.62,5.12c-5.2,0-10.88-2.25-14.25-4.5s-7.75-5.8-10.38-8.15c-2.62-2.35-4.55-3.41-6.55-5.16"/>
      <path class="cls-8" d="M265.73,317.02c-1.12,4.75-3.39,28.61-3.14,32.85.25,4.24-.07,15.36,2.66,22.86,4.47,12.26,7.23,22.18,10.04,48.24"/>
      <path class="cls-8" d="M295.75,305.77c1.85,1.75,9.2,6.18,18.8,33.28,2.86,8.08,8.75,33,11.45,38.22,1.34,2.59,5.35,8.51,7.1,10.76s5,6.75,8.5,8.75"/>
      <path class="cls-8" d="M236.27,417.47s-2.66,0-1.74,3.5c.97,3.69,2.59,13.98,3.58,16.62.82,2.19,3.3,2.75,5.05,3.5s14.45,7,39.09,2.34c15.76-2.98,31.6-16.4,33.1-18.9s.75-3.98,0-7.12c-.75-3.13-.75-5.38-1.25-7.13s-.46-10.94-4-8.75"/>
      <path class="cls-8" d="M261.48,423.16c.62,1.99,4.07,16.62,5.62,21.89"/>
      <path class="cls-8" d="M290.02,417.47c.87,2.02,3.33,11.5,6.66,20.12"/>
      <path class="cls-8" d="M315.1,416.27c3.5,0,23.83-.33,27.33-21.33"/>
      <path class="cls-8" d="M338.51,394.38c2.85-1.6,5.27-3.41,7.27.48,2.17,4.23,8.08,7.42,8.83,10.17s.91,7.49-2.34,12.45c-2.78,4.25-15.31,14.28-29.71,14.32"/>
      <path class="cls-8" d="M133.6,357.77c2.39-1.83,6.96-3.23,11.16-12.81,4.21-9.57,6.53-16.95,7.09-20.44.73-4.56,8.78,2.95,10.78,3.95s3.82,2.31,3.09,6.8c-1.62,10.08-5.01,17.02-9.62,24-3.51,5.3-5.57,7.44-8.09,8.99-.56.34-1.25.4-1.86.16-4.58-1.84-16.55-7.59-12.55-10.64Z"/>
      <path class="cls-8" d="M239.26,439.19c0,2.12.34,10.08,1.72,17.21"/>
      <path class="cls-8" d="M338.39,598.49s-4.4,20.08-14.16,31.54c0,0-6.94,9.33-18.1,18.31"/>
      <path class="cls-8" d="M242.38,454.52c-1.87,3.5-.9,1.38-4.78,10.25s-18.26,49.44-19.82,87.57c-.25,6,0,19.78,2.67,26.44s7.16,8.83,10.79,11.24c0,0,33.83,24.76,44.41,31.76s32.8,23.22,32.8,23.22"/>
      <path class="cls-8" d="M316.22,421.63c3.13,4.29,13.05,21.55,16.68,39.48,1.18,5.83,2.5,19.91,2.78,25.25.32,6,1.06,18.17.83,26.5-.17,6.17-2.17,86.33-2.33,88.83"/>
      <path class="cls-8" d="M276.85,483.09c2.5-.07,13.33-1.57,19.83-4.9"/>
      <path class="cls-8" d="M276.02,568.36c-.83-3.5,0-9.5-.33-11.33s-4.67-1.83-6.24-2.17c-1.58-.33-1.26-4-1.26-6.17s.83-6.83,1.26-8.5c.42-1.67,1.91-7,2.74-9.83.83-2.83,3.67-11.33,4.67-14.04s2.83-9.62,3.67-12.79,4.5-19,5.18-21.75"/>
      <path class="cls-8" d="M285.7,481.77c.42,1.99,1.25,72.4,1.07,88.87"/>
      <path class="cls-8" d="M275.65,562.86c1.71,1.16,21.13,14.7,23.8,17.03s28.01,19.5,37.17,23.33"/>
      <path class="cls-8" d="M334.19,601.69c1.5-1.83,4.5-4.33,6-2.83s4.17,3,6.33,4.67,8.83,5.67,9.83,6.67,4,1.83,2.33,6.5-6.08,14.02-8.02,16.83c-1.15,1.67-8.81,12.17-10.31,14s-6.17,6.67-8.17,8.5-5,5.24-8.83,3.45-8.33-4.46-10.67-5.79-8-3.33-7.67-5.83.84-4.12.84-4.12"/>
      <line class="cls-8" x1="289.65" y1="630.7" x2="290.88" y2="656.71"/>
      <path class="cls-8" d="M290.39,651.5c-2.28,1.03-7.66,2.15-7.16,5.4s2.62,12.25,2.5,14.62.04,6.32,2,7c22.9,7.93,38.38,3.25,46-.5,3.25-1.88,4.46-1.88,4.29-4.5s.17-11.38,0-12.88.96-6.88-4.44-5.96"/>
      <path class="cls-8" d="M284.35,654.3c1.63,1.48,15.75,6.27,34.25,2.75"/>
      <path class="cls-8" d="M371.35,691.88c-.16,2.31.67,7.97,1.51,11.81s1.83,7.67,4.83,8.83,6,1.69,9,1.51c3-.18,4.83-1.01,5.67-3.01s3.5-18.33,3.83-23.5,1.06-16.2,1.12-21.04c.06-4.79-.29-13.13-.96-17.29s-1.33-10.5-4.67-10.67-13.39-1.55-17.57-1.41"/>
      <path class="cls-8" d="M386.5,638.3c6.39,4.39,3.52,52.22,3.02,56.22s-1.6,17.19-5.13,19.51"/>
      <path class="cls-8" d="M302.01,702.42c-2.57,4.25-5.99,8.6-7.16,10.6s-1.5,6.17-.67,9.17,1.5,6.67,3.41,8.33c1.92,1.67,4.43,3.86,21,2.5,5.6-.46,16.08-.83,16.75-5.5s.33-10.24-.83-13.45c-1.17-3.21-4.85-7.95-8.01-11.65"/>
      <path class="cls-9" d="M293.98,721.26c2.38,2.26,2.26,4.17,9.14,4.74,13.44,1.11,31.21-.84,32.56-4.74"/>
      <path class="cls-8" d="M122.86,306.69c1.33-1.67,3.33-2.33,4.49,0,1.17,2.33,4.77,4.3,3.25,7.08s-7.15,10.85-8.49,12.35-3.59,4.24-4.59,2.57-.5-2.5-1.83-3.5c-1.33-1-4.37-1.4-1.93-3.98"/>
      <path class="cls-8" d="M120.85,312.02c1,1.84,4.49,3.7,5.75,8.27"/>
      <path class="cls-8" d="M152.77,323.17c-1.17.74-2.29,1.49-5.39,5.02"/>
      <path class="cls-8" d="M136.82,347.77c-2.36,4.31-3.25,9.61-3.92,10.9"/>
      <path class="cls-8" d="M367.18,438.06c1.14.74,7.17,7.7,21.15,7.67,16.7-.03,20.2-6.78,21.15-7.71"/>
      <path class="cls-8" d="M368.42,449.01c2.87,1.69,4.12,3.06,8.18,4.4,11.51,3.78,21.74,1.3,25.86-.54,4.5-2.01,5.25-3.64,7.06-5.59"/>
      <ellipse class="cls-2" cx="236.35" cy="189.02" rx="2.5" ry="2.25"/>
      <ellipse class="cls-2" cx="309.98" cy="193.52" rx="2.5" ry="2.25"/>
      <path class="cls-8" d="M270.99,218.33c1.91-1-5.99,1.68-2.78,6.7,1.37,2.15,7.64,4.5,10.64.75,2.34-2.93.5-6.77-1.75-7.39"/>
      <path class="cls-8" d="M253.85,247.52c4,4,7.43,7.75,15.59,8.5,8.16.75,18.66-8.75,20.91-11.25"/>
      <path class="cls-8" d="M225.89,170.53c2.47.25,7.97-1.85,12.97,3"/>
      <path class="cls-8" d="M316.93,177.23c2.54,1.64-6.58-4.46-14.33,2.29"/>
      <path class="cls-8" d="M257.52,277.38c1.52,3.72,2.64,11.77-5.86,16.77"/>
      <path class="cls-8" d="M277.75,280.37c0,3.43-1.77,14.52,5.36,18.4"/>
      <path class="cls-8" d="M122.85,306.02c.3-3.34-11.75-20.83-14.31-27.64-6.17-16.38-5.43-24.59-8.08-24.52-3.29.09-2.32,4.52-2.5,6.76-1.14,14.13,4.7,41.28,2.89,48.9-.65,2.72-.75,3.5-1.75,5.5s-1.89,6.72,0,9.5c1.36,2,2.75,2,6.25,0s5-5.5,8.5-3.25c3.5-3.75,8.5-9.75,9-15.25Z"/>
      <path class="cls-8" d="M100.46,312.73c2.78-3.49,7.21-3.72,4.4-13.24"/>
      <path class="cls-8" d="M118.86,329.09c3.25-2.97,10.24-11.81,11.74-15.31,6,5,16.75,15,19.5,17.25-.5,4.75-6.25,16.75-9.5,20.75-2.75-3-21.74-22.69-21.74-22.69Z"/>
      <path class="cls-8" d="M351.97,417.89s16.91,17.38,18.91,18.63"/>
      <path class="cls-8" d="M368.42,452.86s-31.29-15.56-40.35-21.56"/>
      <path class="cls-8" d="M369.35,454.52c-7.24,4.82-8.04,12.13-6.03,14.37,2.68,3,13.24,9.92,13.87,5.24.58-4.33-6.03-10.54-8.03-12.15"/>
      <path class="cls-9" d="M405.6,463.02c-1,1.75-4,6-2,7.5s3,1.25,6.25-1.75,4.48-6.19,4.5-8.25c.04-3.63-4-5.41-4-5.41l-4.75,7.91Z"/>
      <path class="cls-8" d="M303.53,682.32c.62,2.12,2.03,7.57,1.8,10.24-.29,3.39-3.48,10.21-4.23,12.59s-.15,6.86,3.9,8.12c12.65,3.94,23.06-.6,23.44-4.37.23-2.24-2.08-6.81-2.97-8.93-.81-1.94-1.87-4.2-3.25-7.31-2-4.53-1.25-6.04-1.29-10.57-7.48,1.67-17.41.24-17.41.24Z"/>
      <path class="cls-8" d="M354.69,627.02c2,2,11.64,9.07,19.43,10.09,0,0,1.44.58,2.11,4.89.66,4.28,4.78,33.87-.21,45.85-1.42,3.42-4.83,6-5.67,2.5s-3.33-14.83-5.67-19.5-5.17-11.5-8.5-15.5-11.91-9.8-13.57-10.8"/>
      <path class="cls-8" d="M336.35,211.02c3-.5,6.32,2.76,4.32,9.27-2,6.5-9.16,10.32-10.66,6.62"/>
      <path class="cls-8" d="M202.69,202.36c-1,1.33-6.35,12.15,7.13,14.67"/>
      <path class="cls-8" d="M225.1,235.98c-3.75-2.29-10.25-10.29-12.92-14.79s-26.05-35.36-5-85.5"/>
      <path class="cls-8" d="M201.24,204.88c-2.39-1.36-10.06-7.27-13.72-11.23-3.67-3.96-7.5-9.29-9.5-11.96s-9.67-14.5-6.67-18,47.69-57.56,51.85-62.39c12.9-14.96,25.52-24.62,38.65-22.11,9.67-2.83,30.41-9.2,50.63.88,36.41,18.15,59.2,86.95,61.04,90.79s5.17,9.67,2.83,11.83c-2.83,2.67-4.83,4.83-7.33,7.17s-26.12,23.47-27.47,24.65"/>
      <path class="cls-8" d="M318.35,244.77c3.25-4,10.25-14,12.25-19.25s8.25-19.93,9.75-25.97c1.5-6.03,3.61-13.78,3.93-20.03.32-6.25,1.18-13.5,0-23.25-1.18-9.75-4.25-22.75-7.96-31"/>
      <path class="cls-8" d="M261.85,79.19c-6.25,7.08-10.38,28.33-10.25,38.58.19,15.32,11.48,15.93,20.3,22.25,5.65,4.04,10.44,7.26,15.65,14.99,4.5,6.67,7.45,14.51,7.45,14.51,2.5-4.75,1.1-21-.9-26,2.75,3.5,9.5,7.25,12.5,11s8.25,11.25,10.5,19.75,3.5,25.5,3.5,33.5.32,30.61-1.93,36.03c-1.33,5.65-27.15,37.15-48.6,36.57-26.13-.71-45.72-43.6-46.47-50.85s-.25-13.5,0-19.75.75-25,1.5-32.75,1.75-12.5,3-16.5,2.5-6.25,5.25-9.75,9.25-12.25,11.75-15.5,4.25-11.5,6.5-17.5"/>
      <path class="cls-8" d="M287.56,243.02c3.5.5,4,2,4.25,3.5"/>
      <path class="cls-9" d="M407.56,470.68s-1.22,2.11-2.56,4.72-2.78,7-.44,7.69c2.33.69,4.84-.9,7.33-4.9,3.78-6.07.56-11.18.56-11.18"/>
      <path class="cls-9" d="M406.7,484.64s-1.92,3.89-.07,4.81c1.86.92,5.74-.89,6.39-7.75.17-1.76-1.25-3.35-1.25-3.35l-5.08,6.29Z"/>
      <path class="cls-9" d="M402.08,435.56s7.04,1.4,7.39,2.47c.13.39-.05,10.37-.33,19.05"/>
      <path class="cls-8" d="M402.08,435.56l-2.99-6.16s-2.58-2.81-10.76-2.81-9.95,3.28-9.95,3.28l-2.9,4.64-7.81,3.41c-.48.21-.77.72-.69,1.25l1.37,8.92,1.87,14.33"/>
      <path class="cls-8" d="M375.48,434.51s2.9,5.27,14.69,4.58c10.32-.6,11.92-3.53,11.92-3.53"/>
      <path class="cls-8" d="M378.38,429.87s0,3.75,10.3,3.75c9.17,0,10.4-4.22,10.4-4.22"/>
      <path class="cls-8" d="M372.68,475.13l4.54,21.92s2.83,5.61,15.65,5.61c11.22,0,12.77-6.21,12.77-6.21l1.4-13.47"/>
    </g>
  </g>
</svg>