<svg width="392" height="942" viewBox="0 0 392 942" fill="none" xmlns="http://www.w3.org/2000/svg">
<path d="M163.082 20.1757C163.082 20.1757 142.078 21.8058 127.1 29.9828C112.123 38.1598 96.8643 51.1202 85.7612 62.5306C74.6716 73.9544 58.8253 107.852 54.5231 122.723C50.2208 137.594 41.6564 174.07 44.7294 198.601C48.1231 225.671 52.9465 239.058 73.3622 243.548C97.3453 248.826 99.7503 247.195 99.7503 247.195C99.7503 247.195 104.093 250.255 107.059 259.033C110.025 267.812 111.348 282.963 111.348 282.963C111.348 282.963 121.101 278.127 124.107 275.922C127.114 273.717 128.45 274.88 132.298 267.144C136.146 259.408 137.535 247.369 137.535 247.369C137.535 247.369 143.615 247.529 164.338 242.76C185.061 237.99 191.768 236.172 198.275 233.353C204.782 230.534 222.351 220.78 222.351 220.78C222.351 220.78 275.328 192.936 279.777 143.299C284.226 93.6622 270.424 44.2258 239.694 29.9694C208.964 15.7131 163.082 20.1757 163.082 20.1757Z" fill="#FBFCFC"/>
<path d="M60.5227 462.203C60.5227 462.203 61.3377 482.031 60.9903 493.335C60.6429 504.638 58.4918 517.572 58.4918 517.572L56.4208 522.075C56.4208 522.075 48.2572 531.013 41.3095 536.358C34.3617 541.702 25.8374 547.247 17.5669 550.186C9.29638 553.126 2.3219 554.262 2.3219 554.262C2.3219 554.262 -0.37703 555.972 2.20165 558.203C4.78034 560.435 8.33438 562.238 11.2204 561.543C14.1064 560.849 24.2207 557.148 24.2207 557.148C24.2207 557.148 18.609 565.031 20.7334 567.062C22.8579 569.093 25.9843 569.841 28.5898 567.062C31.1952 564.283 41.2293 551.71 41.2293 551.71L45.0372 550.681C45.0372 550.681 40.2139 561.062 43.0197 561.116C45.8255 561.169 48.3908 562.238 52.466 557.214C56.5411 552.191 58.4784 549.104 58.4784 549.104C58.4784 549.104 61.0438 548.583 65.1055 549.171C69.1673 549.759 71.1581 549.999 75.153 552.538C79.148 555.077 83.5705 558.591 88.14 558.871C92.7095 559.152 97.8802 557.041 97.5328 555.17C97.1854 553.3 89.0486 548.236 85.0803 540.74C81.1121 533.245 79.8561 526.297 79.8561 526.297L86.0423 509.769L92.6828 489.861L94.7404 465.864L60.496 462.203H60.5227Z" fill="#FBFCFC"/>
<path d="M259.394 479.145L279.756 456.685C279.756 456.685 293.278 479.372 298.635 488.966C303.993 498.559 312.985 507.778 321.389 513.123C329.793 518.467 356.302 533.579 362.087 536.612C367.872 539.645 370.01 539.872 369.77 541.822C369.529 543.773 369.703 546.646 364.692 546.339C359.682 546.031 348.352 542.116 348.352 542.116L351.612 551.99C351.612 551.99 350.957 553.901 347.31 552.177C343.662 550.454 337.636 543.199 337.636 543.199C337.636 543.199 334.911 547.033 332.132 545.991C329.352 544.949 317.822 534.781 317.822 534.781C317.822 534.781 313.172 534.126 311.502 535.837C309.832 537.547 301.962 546.298 299.811 547.073C297.66 547.848 295.415 549.238 294.093 547.407C292.77 545.577 293.505 537.774 293.505 537.774L293.785 524.546C293.785 524.546 291.982 517.545 286.116 509.876C280.237 502.207 261.826 482.325 261.826 482.325L259.367 479.172L259.394 479.145Z" fill="#FBFCFC"/>
<path d="M148.845 811.878C149.74 812.346 151.945 821.498 150.408 827.19C148.871 832.882 143.527 842.93 135.858 848.956C128.189 854.982 117.032 862.998 115.576 863.653C114.119 864.308 105.648 870.347 105.648 870.347C105.648 870.347 117.673 871.028 133.453 868.81C149.232 866.592 169.194 863.733 176.449 860.393C183.704 857.053 189.943 851.16 189.943 851.16L187.365 846.47C187.365 846.47 183.41 842.075 182.608 832.855C181.806 823.636 181.165 809.674 181.165 809.674L148.858 811.878H148.845Z" fill="#FBFCFC"/>
<path d="M286.011 815.914C286.011 815.914 310.355 808.792 314.51 803.742L318.666 798.691L325.359 817.357C325.359 817.357 328.179 819.214 329.234 820.069C330.29 820.924 332.013 824.933 333.51 828.5C335.006 832.068 343.183 849.116 346.216 854.194C349.249 859.271 362.316 881.638 363.906 886.367C365.496 891.097 368.422 896.469 365.616 901.773C362.81 907.077 361.448 911.259 355.729 913.237C350.011 915.214 348.087 916.631 343.557 915.027C339.028 913.424 335.019 910.03 335.019 910.03L329.608 893.943C329.608 893.943 316.007 857.467 315.392 854.648C314.777 851.829 296.366 827.792 296.366 827.792L285.984 815.901H286.011V815.914Z" fill="#FBFCFC"/>
<path d="M91.7266 440.705L93.3299 436.897L112.797 439.556L134.575 442.535L136.393 444.62L154.016 441.573C154.016 441.573 175.514 433.717 179.415 431.539C183.317 429.361 187.071 426.195 187.071 426.195V422.2L187.405 417.75C187.405 417.75 192.175 418.539 193.498 420.196C194.82 421.852 196.878 429.842 197.733 433.41C198.588 436.977 200.886 444.459 202.623 446.196C204.36 447.933 206.605 449.523 206.485 450.405C206.364 451.287 205.63 455.683 205.63 455.683L203.144 459.05L199.831 456.391C199.831 456.391 187.058 464.889 183.33 466.519C179.602 468.149 164.103 472.959 158.532 473.747C152.96 474.535 150.555 474.843 150.555 474.843V476.82L105.863 471.182L91.7399 440.692H91.7266V440.705Z" fill="#FBFCFC"/>
<path d="M109.146 867.074C109.146 867.074 105.512 869.866 105.645 870.334C105.779 870.802 117.657 870.428 117.657 870.428C117.657 870.428 146.477 867.381 154.988 865.551C163.499 863.72 177.835 860.567 181.162 858.536C184.489 856.505 189.94 849.758 189.94 849.758C189.94 849.758 195.432 858.322 196.928 863.64C198.425 868.958 199.507 870.16 199.306 874.85C199.106 879.54 199.306 890.135 199.306 890.135C199.306 890.135 168.282 896.001 157.994 897.177C147.706 898.352 117.871 901.466 108.13 901.572C98.3903 901.679 79.0702 899.902 79.0702 899.902C79.0702 899.902 77.3332 894.21 78.7762 889.293C80.2192 884.377 81.1678 880.288 86.6192 877.028C92.0705 873.768 109.146 867.06 109.146 867.06V867.074Z" fill="#D4D4D6"/>
<path d="M335.99 910.765C335.99 910.765 336.124 916.617 344.915 915.428C353.707 914.239 368.11 913.05 365.972 893.943C365.037 885.592 354.455 868.169 354.455 868.169L343.579 849.317L338.649 839.697L361.777 853.713C361.777 853.713 377.583 876.667 382.433 889.32C387.283 901.973 393.189 917.646 389.327 925.155C385.466 932.664 381.885 936.726 377.77 938.276C373.655 939.825 363.273 940.066 363.273 940.066C363.273 940.066 356.619 942.524 350.326 937.086C344.033 931.648 340.559 927.239 338.689 922.135C336.818 917.031 335.977 910.778 335.977 910.778H335.99V910.765Z" fill="#D4D4D6"/>
<path d="M107.305 471.382L133.973 474.749C134.615 474.83 149.659 476.834 149.659 476.834L150.528 474.856C150.528 474.856 167.283 472.906 173.91 470.354C180.537 467.802 200.258 456.164 200.258 456.164C200.258 456.164 214.728 470.501 219.778 478.544C224.829 486.587 228.677 492.56 232.538 504.344C236.399 516.129 247.556 566.648 253.902 588.587C260.249 610.526 273.85 645.746 273.85 645.746C273.85 645.746 307.961 728.852 308.268 729.52C308.576 730.188 318.703 752.622 318.703 752.622C318.703 752.622 324.449 750.765 327.321 753.931C330.194 757.098 342.072 777.955 342.727 779.946C343.381 781.936 345.078 786.132 340.896 792.398C336.714 798.664 329.513 806.908 323.046 811.892C316.579 816.876 302.643 824.933 291.808 827.231C280.972 829.529 267.397 831.319 264.484 828.807C261.571 826.295 255.278 816.609 253.114 811.892C250.949 807.176 245.204 797.609 247.155 794.563C249.106 791.516 253.555 788.082 253.555 788.082L228.93 733.435L188.607 636.059L196.129 772.356C196.129 772.356 203.291 770.272 204.64 775.309C205.989 780.346 208.167 795.271 208.314 798.531C208.461 801.791 208.862 807.149 206.564 808.739C204.266 810.329 188.714 820.363 173.415 821.606C158.117 822.848 119.343 819.254 115.682 816.515C112.021 813.776 110.752 812.573 109.683 804.089C108.614 795.605 106.116 782.831 108.227 780.988C110.338 779.144 116.978 775.469 116.978 775.469C116.978 775.469 121.254 679.216 120.492 634.028C119.73 588.841 117.847 543.974 116.885 532.483C115.923 520.992 114.199 503.997 111.847 492.64C109.496 481.283 107.305 471.356 107.305 471.356V471.382Z" fill="#EAE9EA"/>
<path d="M111.356 282.976C111.356 282.976 111.41 273.142 110.367 269.241C109.325 265.339 108.751 264.324 108.751 264.324C108.751 264.324 92.8644 273.597 90.4461 276.002C88.0277 278.407 85.8499 280.437 83.5518 284.285C81.2537 288.133 70.6183 308.068 65.4876 318.009C60.357 327.95 52.9282 343.743 52.9549 350.53C52.9816 357.318 53.1554 365 55.4935 370.291C57.8317 375.582 60.5574 379.978 60.5574 379.978C60.5574 379.978 60.8112 393.259 60.5841 404.67C60.357 416.08 55.4935 456.137 55.4935 456.137C55.4935 456.137 47.6907 456.431 46.3679 459.41C45.0452 462.39 44.8047 483.487 44.8047 483.487L49.3474 486.721C49.3474 486.721 60.4906 490.97 66.984 492.225C73.4775 493.481 92.1563 494.109 97.0331 493.268C101.91 492.426 104.275 490.382 104.275 490.382L107.375 472.945L103.219 467.454C103.219 467.454 92.5037 443.577 92.1296 441.974C91.7555 440.371 93.3321 436.87 93.3321 436.87L99.7587 437.765C99.7587 437.765 129.006 441.613 130.543 441.854C132.079 442.094 134.591 440.732 135.5 442.669L136.408 444.606C136.408 444.606 158.534 441.239 166.404 437.779C174.273 434.318 187.113 426.756 187.795 425.5C188.476 424.244 186.352 415.853 187.407 410.321C188.463 404.79 190.173 400.047 190.173 400.047C190.173 400.047 209.386 423.389 210.722 425.5C212.058 427.611 233.289 461.161 233.289 461.161C233.289 461.161 229.695 468.83 229.121 471.623C228.546 474.415 227.477 474.696 229.989 477.461C232.501 480.227 240.691 489.313 243.711 492.119C246.73 494.924 249.884 499.507 252.556 499.053C255.228 498.599 267.44 489.54 270.74 485.665C274.04 481.79 286.88 465.116 288.497 460.88C290.114 456.645 292.131 450.619 290.675 447.706C289.219 444.793 282.084 428.319 279.171 423.602C276.806 419.768 275.483 417.577 273.199 419.18C270.914 420.783 265.89 425.486 265.89 425.486C265.89 425.486 227.905 352.574 220.917 339.334C213.929 326.093 190.761 280.357 184.441 274.398C178.121 268.439 168.622 263.549 163.077 264.431C157.532 265.313 157.198 264.311 157.198 264.311C157.198 264.311 144.198 248.945 143.236 247.409C142.274 245.872 137.397 246.313 137.397 246.313C137.397 246.313 138.479 249.894 137.183 254.677C135.887 259.46 131.959 267.237 129.915 270.39C127.87 273.543 126.16 274.599 126.16 274.599C126.16 274.599 120.816 277.445 117.302 279.262C113.788 281.079 111.356 282.963 111.356 282.963V282.976Z" fill="#D4D4D6"/>
<path d="M154.867 12.4928C154.867 12.4928 130.296 16.0202 115.506 24.224C100.715 32.4277 89.7055 37.358 86.9131 40.7384C84.1206 44.1188 78.8563 54.1664 78.1616 56.1705C77.4668 58.1747 75.7031 76.4929 75.7031 76.4929C75.7031 76.4929 88.3694 57.3597 99.7664 47.7263C111.163 38.0929 109.213 39.0415 119.207 33.8707C129.201 28.7 144.526 24.2507 144.526 24.2507L154.867 12.4795V12.4928Z" fill="#D4D4D6"/>
<path d="M60.9375 105.272C60.9375 105.272 51.1305 113.462 41.3368 116.843C31.5432 120.223 20.1328 122.735 20.1328 122.735C20.1328 122.735 22.805 129.482 27.3344 133.972C31.8638 138.461 37.4087 142.884 41.3368 144.701C45.265 146.518 48.0173 147.627 48.0173 147.627C48.0173 147.627 51.6516 131.433 54.5376 122.735C57.4235 114.037 60.9375 105.272 60.9375 105.272Z" fill="#D4D4D6"/>
<path d="M157.208 10.9827L144.528 24.2638C144.528 24.2638 143.887 26.8959 144.528 29.4746C145.169 32.0533 148.817 40.551 152.17 46.951C155.524 53.351 160.628 62.9176 161.563 71.2016C162.499 79.4855 163.674 90.1744 161.75 101.518C159.826 112.862 159.292 117.552 155.965 122.736C152.638 127.92 150.14 130.953 150.14 130.953L165.825 115.948C165.825 115.948 161.724 128.361 154.856 138.676C147.988 148.99 138.088 162.418 131.006 171.865C123.925 181.311 119.195 185.881 119.195 185.881C119.195 185.881 132.944 181.992 144.515 176.207C156.085 170.422 177.062 158.049 182.714 152.478C188.366 146.906 198.266 136.083 198.266 136.083L182.714 161.39C182.714 161.39 188.78 165.251 186.375 169.66C183.97 174.069 182.046 177.81 174.777 178.826C167.509 179.841 164.65 180.416 164.65 180.416C164.65 180.416 153.026 190.918 146.559 195.701C140.092 200.484 129.898 205.281 129.898 205.281C129.898 205.281 152.718 212.242 159.051 213.846C165.384 215.449 177.597 218.442 177.597 218.442C177.597 218.442 182.901 225.924 184.918 229.211C186.936 232.498 190.316 236.372 190.316 236.372L222.343 221.101C222.343 221.101 254.383 218.669 267.49 215.85C280.597 213.03 310.633 204.974 324.996 198.627C339.359 192.281 348.378 186.776 348.378 186.776C348.378 186.776 341.604 132.302 332.572 107.744C323.539 83.1866 309.15 49.4362 290.003 30.2496C270.857 11.0629 245.912 3.71426 233.78 2.48504C221.648 1.25581 193.777 0.347248 183.409 2.48504C173.04 4.62282 157.167 10.9827 157.167 10.9827H157.208Z" fill="#D4D4D6"/>
<g style="mix-blend-mode:multiply" opacity="0.37">
<path d="M31.2266 135.495C31.2266 135.495 42.1693 132.863 48.302 126.303C54.4347 119.742 56.185 115.36 56.185 115.36C56.185 115.36 51.8026 133.304 50.0523 138.996C48.302 144.688 47.4202 147.306 47.4202 147.306C47.4202 147.306 43.9196 146.866 39.5371 143.806C35.1547 140.746 31.2266 135.495 31.2266 135.495Z" fill="#D4D4D6"/>
</g>
<g style="mix-blend-mode:multiply" opacity="0.37">
<path d="M74.9922 75.5305C74.9922 75.5305 85.9349 59.7776 94.6864 51.0127C103.438 42.2478 115.703 33.9371 121.823 32.1868C127.942 30.4365 143.708 25.1855 143.708 25.1855L146.34 21.244C146.34 21.244 137.589 20.8031 124.455 26.054C111.321 31.305 105.629 33.0553 95.635 41.3258C89.6626 46.2561 76.6089 66.4582 76.6089 66.4582L74.9922 75.5171V75.5305Z" fill="#D4D4D6"/>
</g>
<g style="mix-blend-mode:multiply" opacity="0.37">
<path d="M387.519 901.505C385.328 890.562 366.529 859.925 366.529 859.925C366.529 859.925 352.5 846.791 347.249 844.6C341.998 842.408 339.807 841.54 339.807 841.54C339.807 841.54 338.497 838.039 336.747 834.098C334.997 830.156 332.365 825.787 327.995 821.846C323.613 817.904 321.863 812.653 321.863 812.653C321.863 812.653 327.555 807.402 336.306 798.21C345.058 789.017 344.189 782.884 344.189 782.884L327.114 753.997H319.672C319.672 753.997 296.904 705.416 289.476 685.281C282.033 665.146 256.206 599.93 252.706 585.914C249.205 571.898 233.453 502.741 230.82 496.18C228.188 489.62 204.553 458.542 204.553 458.542L205.434 456.791C206.316 455.041 201.934 443.657 200.624 440.157C199.315 436.656 196.683 423.963 195.374 421.331C194.064 418.699 187.491 418.271 187.491 418.271L189.241 398.577L168.224 371.44C168.224 371.44 162.532 346.495 163.093 339.053C163.654 331.611 166.914 325.919 174.798 326.36C182.681 326.801 202.816 357.879 219.009 384.574C235.203 411.27 256.5 453.237 256.5 453.237L243.888 465.85C243.888 465.85 253.361 468.723 259.493 475.283C265.626 481.844 266.935 489.286 266.935 489.286L274.738 481.483C274.738 481.483 286.189 492.359 291.88 498.478C297.572 504.611 314.207 521.246 321.649 525.174C329.091 529.115 361.198 545.911 364.698 546.338C368.199 546.779 369.789 540.954 369.789 540.954C369.789 540.954 357.096 533.485 351.417 530.425C345.726 527.365 323.399 514.231 318.589 511.599C313.779 508.967 312.029 504.598 309.397 502.407C306.765 500.215 286.175 467.48 286.175 467.48C286.175 467.48 288.834 460.105 290.144 456.163C291.453 452.222 290.023 445.541 288.273 442.482C286.523 439.422 280.617 422.199 274.524 420.075C273.028 419.554 266.374 426.903 266.374 426.903C266.374 426.903 236.085 370.986 226.451 349.1C216.818 327.215 185.74 278.634 180.489 272.06C175.238 265.499 159.045 265.059 159.045 265.059L156.413 262.426L138.91 246.674H144.161C144.161 246.674 184.431 237.481 200.184 231.348C215.936 225.216 220.76 222.597 220.76 222.597C220.76 222.597 248.778 219.965 268.913 217.346C289.048 214.714 347.703 188.018 347.703 188.018C347.703 188.018 341.143 135.054 331.95 101.785C322.758 68.5156 293.43 35.2463 293.43 35.2463C293.43 35.2463 282.047 24.7444 276.355 22.9941C270.663 21.2438 235.644 20.8028 215.081 25.1853C194.505 29.5678 170.869 45.7615 170.869 45.7615C170.869 45.7615 172.179 54.954 171.31 72.0296C170.428 89.1052 164.336 115.36 164.336 115.36L151.175 131.34C151.175 131.34 155.117 124.111 161.236 106.608C167.355 89.1052 158.604 61.5277 154.676 51.4534C150.734 41.3924 143.733 25.1853 143.733 25.1853L138.349 26.9623L138.041 33.0684C137.734 39.1745 145.042 50.144 152.925 65.4559C160.808 80.7812 153.5 84.1482 149.131 94.2092C144.748 104.27 141.488 118.78 141.488 118.78C141.488 118.78 144.548 131.34 137.814 146.438C134.648 153.519 120.097 185.399 120.097 185.399C120.097 185.399 104.345 212.095 89.9013 226.979C75.458 241.864 66.2656 240.113 66.2656 240.113C66.2656 240.113 75.0171 242.745 90.3422 246.674C105.667 250.615 117.919 248.424 117.919 248.424C117.919 248.424 124.052 251.925 126.671 260.676C129.29 269.428 117.919 278.62 117.919 278.62L124.48 274.679L133.672 266.368C133.672 266.368 136.304 267.25 140.673 275.12C145.042 282.989 143.306 287.813 143.306 287.813L137.173 296.123C137.173 296.123 139.805 303.565 141.555 319.759C143.306 335.953 139.364 357.839 139.364 357.839C139.364 357.839 137.614 365.281 131.481 376.224C125.348 387.166 112.228 390.667 112.228 390.667L135.863 442.762L109.168 438.821C109.168 438.821 124.052 454.146 129.744 461.147C135.436 468.148 137.186 473.84 137.186 473.84C137.186 473.84 153.821 488.725 168.705 512.802C183.589 536.878 238.303 655.499 238.303 655.499L293.457 785.944C293.457 785.944 286.456 790.327 271.131 795.137C263.488 797.542 259.213 797.114 256.861 796.072C258.852 797.408 262.085 798.878 267.189 799.519C277.691 800.828 285.574 796.459 297.826 801.71C310.078 806.961 314.02 818.345 314.02 818.345C314.02 818.345 329.345 846.363 337.656 859.925C345.966 873.5 361.732 901.946 361.732 901.946C361.732 901.946 363.923 910.697 368.292 921.64C372.675 932.583 380.117 936.965 380.117 936.965C380.117 936.965 382.749 935.215 387.559 928.655C392.369 922.095 389.75 912.461 387.559 901.518H387.519V901.505Z" fill="#D4D4D6"/>
<path d="M254.016 793.386C254.016 793.386 254.457 795.03 256.821 796.072C254.724 794.655 254.016 793.386 254.016 793.386Z" fill="#D4D4D6"/>
</g>
<g style="mix-blend-mode:multiply" opacity="0.37">
<path d="M70.1774 393.313C70.1774 393.313 75.8692 411.257 75.8692 429.201C75.8692 447.146 73.0233 465.53 73.0233 465.53L81.1201 469.031C81.1201 469.031 79.8107 473.039 78.488 479.359C77.1653 485.679 75.6421 492.667 75.6421 492.667H81.1201C81.1201 492.667 79.8108 502.728 77.6195 509.302C75.4283 515.875 67.3449 533.632 73.2505 538.883C79.1561 544.134 86.812 550.882 88.1213 554.382C89.4307 557.883 85.1151 558.217 85.1151 558.217C85.1151 558.217 93.3722 559.58 95.5501 557.389C97.7279 555.197 96.9797 552.873 96.9797 552.873L85.7431 541.823L80.3853 525.789L83.5519 517.599L90.2858 493.522C90.2858 493.522 101.295 492.507 103.487 490.756C105.678 489.006 104.729 483.461 104.729 483.461L107.361 472.959L91.6086 437.94L95.5501 433.998L75.415 397.669L70.1641 393.287V393.313H70.1774Z" fill="#D4D4D6"/>
</g>
<g style="mix-blend-mode:multiply" opacity="0.37">
<path d="M48.8446 548.917C48.8446 548.917 51.4768 551.108 48.8446 554.608C46.2125 558.109 43.5938 561.169 43.5938 561.169C43.5938 561.169 46.8004 562.679 50.0071 558.203C53.2137 553.727 56.7143 548.917 56.7143 548.917H48.8313H48.8446Z" fill="#D4D4D6"/>
</g>
<g style="mix-blend-mode:multiply" opacity="0.37">
<path d="M19.8359 568.839C19.8359 568.839 24.2184 572.34 29.0283 568.839C33.8383 565.338 41.0266 551.83 41.0266 551.83L30.9657 555.01C30.9657 555.01 30.792 558.578 27.719 563.053C24.6459 567.529 19.8359 568.839 19.8359 568.839Z" fill="#D4D4D6"/>
</g>
<g style="mix-blend-mode:multiply" opacity="0.37">
<path d="M148.968 546.953C148.968 546.953 160.579 624.862 163.091 656.381C165.603 687.9 165.603 739.982 159.911 760.558C154.219 781.135 142.408 789.004 142.408 789.004C142.408 789.004 160.472 788.563 164.347 790.755C168.222 792.946 168.235 797.315 169.544 803.007C170.854 808.699 170.426 818.332 169.544 820.51C168.663 822.688 173.045 822.701 173.045 822.701C173.045 822.701 174.354 845.469 170.413 852.029C166.471 858.589 157.827 862.531 157.827 862.531C157.827 862.531 120.082 874.783 110.448 878.725C100.815 882.666 87.2536 889.227 83.3121 892.727C79.3706 896.228 78.9297 900.61 78.9297 900.61C78.9297 900.61 130.089 899.622 144.145 898.419C189.933 894.504 199.3 888.024 199.3 888.024V874.85C199.3 874.85 198.859 874.422 199.3 871.349C199.74 868.276 198.859 862.958 194.49 857.708C190.12 852.457 187.488 848.515 187.488 848.515C187.488 848.515 180.046 823.57 180.928 821.819C181.81 820.069 194.503 816.128 201.504 811.318C208.505 806.508 208.505 803.875 208.505 803.875C208.505 803.875 208.064 778.489 205.446 775.857C202.827 773.225 197.563 772.797 197.563 772.797L189.68 639.292L148.968 546.94V546.953Z" fill="#D4D4D6"/>
</g>
<path d="M67.7026 148.335C67.7026 148.335 68.9451 150.018 64.8032 146.424C61.5966 143.645 63.8279 137.205 63.8279 137.205C63.8279 137.205 58.7774 144.914 61.4229 147.613C64.0684 150.312 68.9585 150.018 68.9585 150.018L67.7159 148.335H67.7026Z" fill="#D4D4D6"/>
<path d="M2.12512 556.8C2.12512 556.8 14.0165 558.39 28.0857 551.83C42.1549 545.269 49.116 543.345 54.7677 543.706C60.4194 544.067 71.2285 549.959 71.2285 549.959C71.2285 549.959 67.1401 548.623 58.736 549.104C50.3318 549.585 46.083 550.347 41.0593 551.83C36.0355 553.313 24.6118 556.934 19.8686 558.844C15.1254 560.755 10.9167 562.038 8.15097 561.757C5.38523 561.476 3.10049 560.368 2.13849 558.644C1.17649 556.92 2.13849 556.8 2.13849 556.8H2.12512Z" fill="#D4D4D6"/>
<path d="M165.84 115.934C161.591 122.829 150.154 130.939 150.154 130.939C150.154 130.939 152.853 128.494 157.209 120.544C161.564 112.594 164.343 86.3929 161.564 71.1879C158.785 55.9829 152.88 50.1975 145.878 34.124C143.153 27.8843 146.627 23.7825 144.529 24.2501C73.3812 40.3503 53.1125 127.906 51.1084 134.426C48.9973 141.334 44.7619 161.59 44.321 177.957C44.0805 186.989 44.5882 204.947 46.5522 214.807C51.7631 241.062 71.9516 248.09 116.791 247.355C161.631 246.62 190.344 236.332 190.344 236.332" stroke="#61615F" stroke-width="1.2" stroke-linecap="round" stroke-linejoin="round"/>
<path d="M164.658 180.403C162.881 182.634 158.98 185.587 151.271 192.134C143.561 198.681 129.906 205.268 129.906 205.268L148.906 211.24C154.691 212.804 169.575 216.384 175.588 218.162C179.596 221.502 191.394 236.199 187.386 237.308" stroke="#61615F" stroke-width="1.2" stroke-linecap="round" stroke-linejoin="round"/>
<path d="M182.716 161.39C186.056 157.382 196.932 139.651 198.268 136.084C186.016 150.18 176.37 159.038 168.019 163.835C134.99 182.794 119.211 185.881 119.211 185.881L136.848 164.957C141.524 158.504 148.645 149.151 151.772 144.247C154.885 139.344 162.006 124.206 164.345 119.088" stroke="#61615F" stroke-width="1.2" stroke-linecap="round" stroke-linejoin="round"/>
<path d="M67.6875 63.6772C72.9859 66.5649 80.714 73.0229 94.3757 62.504" stroke="#61615F" stroke-width="1.2" stroke-linecap="round" stroke-linejoin="round"/>
<path d="M145.195 88.9644C143.652 95.3481 139.04 105.292 153.947 116.692" stroke="#61615F" stroke-width="1.2" stroke-linecap="round" stroke-linejoin="round"/>
<path d="M79.4897 88.4647C78.9152 90.5356 77.4054 91.9252 76.1227 91.5778C74.8401 91.2171 74.2655 89.253 74.8401 87.182C75.4146 85.111 76.9244 83.7214 78.2071 84.0688C79.4897 84.4296 80.0642 86.3937 79.4897 88.4647Z" fill="#61615F"/>
<path d="M137.165 124.352C136.069 126.209 133.958 126.984 132.449 126.089C130.939 125.194 130.591 122.976 131.687 121.119C132.783 119.262 134.894 118.487 136.403 119.382C137.913 120.277 138.261 122.508 137.165 124.352Z" fill="#61615F"/>
<path d="M63.4717 188.652C65.1635 185.815 68.3207 184.772 70.4658 186.03C72.609 187.288 73.2177 190.534 71.5293 193.346L71.5283 193.348C69.8365 196.185 66.6793 197.228 64.5342 195.97C62.3913 194.712 61.7816 191.487 63.4717 188.652Z" fill="#C7C7C9" stroke="#61615F"/>
<path d="M73.3857 142.51C73.3857 138.635 70.1924 133.892 64.701 136.684C57.112 140.532 60.7194 154.041 68.9499 150.032" stroke="#61615F" stroke-width="1.2" stroke-linecap="round" stroke-linejoin="round"/>
<path d="M62.5542 101.519C53.2415 110.818 42.3389 119.075 20.1328 122.736C26.6797 136.685 36.5669 143.312 48.0173 147.628" stroke="#61615F" stroke-width="1.2" stroke-linecap="round" stroke-linejoin="round"/>
<path d="M74.0234 78.3234C75.6936 65.7238 74.6514 49.4365 94.025 36.6766C121.789 18.3851 138.21 14.9646 154.871 12.4928C180.618 -5.65165 243.802 0.320794 262.575 9.78051C336.007 46.8043 347.07 174.297 348.406 186.763C339.053 193.002 319.947 203.705 295.309 209.45C277.312 213.632 236.173 226.405 175.608 218.161" stroke="#61615F" stroke-width="1.2" stroke-linecap="round" stroke-linejoin="round"/>
<path d="M334.219 537.439C336.036 541.034 340.164 547.54 342.69 549.732C345.215 551.923 352.27 554.288 351.575 551.509C350.88 548.73 349.758 546.365 348.355 542.102" stroke="#61615F" stroke-width="1.2" stroke-linecap="round" stroke-linejoin="round"/>
<path d="M337.647 543.186C335.108 546.606 332.409 547.274 326.771 543.346C326.771 543.346 320.064 537.841 317.258 534.007" stroke="#61615F" stroke-width="1.2" stroke-linecap="round" stroke-linejoin="round"/>
<path d="M61.0495 491.425C61.0495 491.425 60.7289 501.285 59.8737 509.235C59.0186 517.185 58.4575 518.468 56.4399 522.075C54.4224 525.683 37.6276 539.178 37.6276 539.178C30.947 543.854 24.2665 547.862 17.586 550.201C8.56726 553.875 6.01529 553.942 2.341 554.276C-1.33329 554.61 3.89089 560.556 2.22075 558.217C1.72639 557.536 5.22699 562.867 11.2395 561.558C17.3321 560.235 18.7617 559.113 23.5985 557.389C24.8678 556.935 26.3642 556.44 28.2347 555.893C37.2935 553.22 45.3102 549.546 55.331 549.212C65.3518 548.878 69.9747 548.878 75.1855 552.552C80.383 556.227 90.4038 561.571 95.0801 558.231C99.7565 554.89 97.0843 552.218 93.076 549.212C89.0677 546.206 79.3809 536.519 80.383 525.83L91.1386 494.097" stroke="#61615F" stroke-width="1.2" stroke-linecap="round" stroke-linejoin="round"/>
<path d="M24.2514 557.148C22.608 560.542 19.5216 564.551 20.7642 567.062C22.5278 570.617 26.4426 569.735 30.1169 565.566C33.7912 561.397 38.7081 555.732 41.26 551.71" stroke="#61615F" stroke-width="1.2" stroke-linecap="round" stroke-linejoin="round"/>
<path d="M58.5048 549.091C55.993 553.166 55.1646 554.529 52.4924 557.202C49.8201 559.874 47.1479 561.758 43.0461 561.103C40.6812 560.729 41.7901 555.986 45.0636 550.668" stroke="#61615F" stroke-width="1.2" stroke-linecap="round" stroke-linejoin="round"/>
<path d="M150.324 822.915C150.458 827.698 152.288 834.753 133.422 851.161C133.422 851.161 113.394 866.138 109.172 867.087" stroke="#61615F" stroke-width="1.2" stroke-linecap="round" stroke-linejoin="round"/>
<path d="M187.391 237.321C187.391 237.321 204.533 232.243 222.357 221.087" stroke="#61615F" stroke-width="1.2" stroke-linecap="round" stroke-linejoin="round"/>
<path d="M164.344 119.075C166.575 115.454 178.106 85.231 177.598 69.3579" stroke="#61615F" stroke-width="1.2" stroke-linecap="round" stroke-linejoin="round"/>
<path d="M137.389 246.34C139.42 256.508 131.497 269.95 126.152 274.626C126.152 274.626 124.308 276.136 119.204 278.354C114.1 280.572 110.359 284.299 110.359 284.299" stroke="#61615F" stroke-width="1.2" stroke-linecap="round" stroke-linejoin="round"/>
<path d="M338.649 839.697C340.011 841.3 342.39 847.861 344.394 851.161C353.559 866.246 364.556 885.245 365.518 891.084C366.48 896.923 368.31 904.592 356.846 912.555C348.883 918.087 338.234 914.6 335.99 910.765C333.745 906.93 320.584 867.114 316.79 857.534C312.995 847.954 295.078 826.162 295.078 826.162C295.078 826.162 300.85 824.398 310.35 819.722C316.83 816.529 323.056 811.879 323.056 811.879C323.056 811.879 323.671 814.591 325.368 817.344C325.368 817.344 330.365 822.514 332.783 825.734C336.805 831.106 338.649 839.684 338.649 839.684V839.697Z" stroke="#61615F" stroke-width="1.2" stroke-linecap="round" stroke-linejoin="round"/>
<path d="M99.7656 247.209C99.7656 247.209 101.93 247.022 106.393 257.403C110.855 267.785 111.363 273.717 111.363 278.34C111.363 282.963 111.363 281.453 111.363 281.453" stroke="#61615F" stroke-width="1.2" stroke-linecap="round" stroke-linejoin="round"/>
<path d="M157.219 179.454C157.219 179.454 168.642 180.723 174.802 178.812C196.754 172.011 180.961 159.438 180.961 159.438" stroke="#61615F" stroke-width="1.2" stroke-linecap="round" stroke-linejoin="round"/>
<path d="M144.539 24.2639C144.539 24.2639 153.691 13.6818 154.881 12.4927" stroke="#61615F" stroke-width="1.2" stroke-linecap="round" stroke-linejoin="round"/>
<path d="M267.68 490.409C267.68 490.409 293.253 512.108 294.442 527.994L292.798 545.564C292.798 545.564 293.52 548.744 297.689 547.836C301.857 546.927 304.783 542.892 307.937 539.338C311.09 535.784 313.054 532.617 325.106 535.049C336.903 537.427 350.986 543.694 358.081 545.658C365.175 547.622 369.184 545.337 369.544 543.747C369.905 542.157 369.772 540.607 369.772 540.607C369.772 540.607 321.191 515.782 311.571 505.427C295.431 488.058 286.171 467.481 286.171 467.481" stroke="#61615F" stroke-width="1.2" stroke-linecap="round" stroke-linejoin="round"/>
<path d="M282.219 507.737C282.219 507.737 293.108 503.034 294.925 501.658C296.742 500.282 297.571 499.547 297.571 499.547L304.198 508.218C304.198 508.218 303.583 509.648 299.014 511.425C294.444 513.202 287.87 515.086 287.87 515.086L282.219 507.724V507.737Z" fill="#D4D4D6"/>
<path d="M303.539 492.145C303.539 492.145 300.453 496.488 299.678 497.356C298.903 498.225 297.594 499.547 297.594 499.547L304.221 508.219C304.221 508.219 305.704 507.083 306.706 505.573C307.708 504.063 309.886 499.534 309.886 499.534L303.553 492.132L303.539 492.145Z" fill="#D4D4D6"/>
<path d="M108.866 263.843C102.333 267.771 99.233 275.32 96.2668 280.624C91.9779 288.294 86.9141 293.264 86.9141 293.264C86.9141 293.264 97.4559 285.007 102.533 277.645C107.383 270.604 111.338 276.309 111.325 279.676" stroke="#61615F" stroke-width="1.2" stroke-linecap="round" stroke-linejoin="round"/>
<path d="M142.277 245.886C145.417 250.99 149.372 256.762 156.226 262.761C159.727 265.821 157.549 265.34 151.403 265.834C149.559 270.764 152.619 273.183 143.6 288.695C139.177 296.297 131.749 303.619 131.842 302.885C133.232 292.009 133.873 274.091 125.055 275.374" stroke="#61615F" stroke-width="1.2" stroke-linecap="round" stroke-linejoin="round"/>
<path d="M238.642 469.9C234.968 464.141 199.641 403.535 150.539 354.125" stroke="#61615F" stroke-width="1.2" stroke-linecap="round" stroke-linejoin="round"/>
<path d="M157.547 265.339C163.239 265.593 177.441 256.561 201.157 301.842C204.885 308.964 241.08 377.493 245.917 386.686C250.754 395.878 269.606 432.421 269.018 435.414" stroke="#61615F" stroke-width="1.2" stroke-linecap="round" stroke-linejoin="round"/>
<path d="M137.196 363.143C135.353 369.49 131.692 383.693 112.812 390.373" stroke="#61615F" stroke-width="1.2" stroke-linecap="round" stroke-linejoin="round"/>
<path d="M60.5621 380.005C60.522 387.02 60.7625 397.374 60.5621 406.233C60.3616 415.078 60.188 418.592 59.5199 427.45C58.8518 436.309 57.8498 445.328 56.8477 452.837C55.8456 460.346 53.6277 461.014 58.745 463.018C63.8622 465.022 65.6927 465.85 72.5469 466.692C79.4012 467.534 89.2483 468.696 95.9288 468.536C102.609 468.376 103.451 468.175 103.451 466.505" stroke="#61615F" stroke-width="1.2" stroke-linecap="round" stroke-linejoin="round"/>
<path d="M110.371 284.299C106.964 288.802 71.691 338.572 79.2133 372.336C82.6471 387.754 105.855 422.2 110.251 438.968" stroke="#61615F" stroke-width="1.2" stroke-linecap="round" stroke-linejoin="round"/>
<path d="M187.391 417.751C190.557 418.553 194.419 418.927 195.755 424.271C197.091 429.616 197.278 433.21 199.469 439.303C201.313 444.433 202.649 446.812 204.479 448.321C208.367 451.501 205.602 456.325 204.145 457.835" stroke="#61615F" stroke-width="1.2" stroke-linecap="round" stroke-linejoin="round"/>
<path d="M107.305 471.382C109.576 481.884 113.945 499.454 115.842 520.137C120.492 570.455 122.416 648.752 118.181 767.226C117.9 774.908 118.448 775.683 116.791 782.444" stroke="#61615F" stroke-width="1.2" stroke-linecap="round" stroke-linejoin="round"/>
<path d="M117.003 775.483C115.212 776.872 107.423 779.451 107.516 782.911C107.637 787.681 108.478 795.03 109.481 801.711C110.483 808.391 107.877 815.112 120.557 818.198C176.647 831.813 202.006 811.397 205.346 809.727C208.686 808.057 208.686 802.365 208.352 798.531C208.018 794.696 206.014 785.343 206.014 782.337C206.014 779.331 206.843 772.396 197.236 772.356" stroke="#61615F" stroke-width="1.2" stroke-linecap="round" stroke-linejoin="round"/>
<path d="M253.582 788.082C249.694 790.768 244.175 793.814 248.184 802.285C252.192 810.756 254.637 814.537 257.977 819.655C261.318 824.772 260.877 829.448 269.561 829.903C278.246 830.343 284.7 829.234 291.834 827.23C298.969 825.226 315.884 817.65 320.12 814.31C324.355 810.97 333.922 802.686 337.93 797.141C341.938 791.596 344.838 785.143 343.047 780.68C341.257 776.217 335.699 765.542 333.467 762.642C331.236 759.743 329.793 753.717 324.342 752.622C321.002 751.953 319.946 752.328 319.946 752.328" stroke="#61615F" stroke-width="1.2" stroke-linecap="round" stroke-linejoin="round"/>
<path d="M294.266 785.33C291.166 779.331 275.36 744.819 272.234 737.471C269.12 730.122 245.952 681.581 243.734 676.45" stroke="#61615F" stroke-width="1.2" stroke-linecap="round" stroke-linejoin="round"/>
<path d="M189.924 849.771C189.924 849.771 198.489 864.414 199.29 871.376C200.092 878.337 199.29 888.037 199.29 888.037C199.29 891.551 173.717 897.43 108.114 901.585C99.109 902.16 87.4047 901.251 79.054 899.915C78.386 894.905 77.3839 887.556 82.0603 881.209C86.7366 874.863 102.075 868.904 110.252 866.672C110.252 866.672 104.654 869.786 105.763 870.814C106.872 871.843 138.23 868.757 152.059 866.071C165.888 863.386 177.298 860.82 182.041 858.068C189.924 853.485 189.924 849.771 189.924 849.771Z" stroke="#61615F" stroke-width="1.2" stroke-linecap="round" stroke-linejoin="round"/>
<path d="M78.5469 891.323C93.2574 896.601 167.345 892.072 199.304 874.862" stroke="#61615F" stroke-width="1.2" stroke-linecap="round" stroke-linejoin="round"/>
<path d="M55.5092 456.164C55.5092 456.164 51.7012 457.059 49.2963 457.834C46.8913 458.609 44.6333 460.039 45.1143 463.873C45.5953 467.708 44.6199 477.008 44.8604 479.306C45.1009 481.604 44.8203 483.514 44.8203 483.514C44.8203 483.514 46.9314 487.242 60.3592 490.409C70.4736 492.787 85.1306 494.337 99.427 493.121C102.219 492.881 104.624 491.104 105.092 488.351L107.31 475.524" stroke="#61615F" stroke-width="1.2" stroke-linecap="round" stroke-linejoin="round"/>
<path d="M341.313 841.793L361.782 853.712C361.782 853.712 381.41 880.728 387.943 904.204C392.526 920.678 392.406 925.635 384.469 933.611C382.826 935.268 380.915 936.377 379.379 937.366C376.573 939.183 373.34 940.198 370.013 940.372C365.016 940.626 357.32 940.613 353.018 938.528C347.82 936.003 343.424 932.81 339.336 923.617C335.247 914.425 335.047 908.613 335.047 908.613" stroke="#61615F" stroke-width="1.2" stroke-linecap="round" stroke-linejoin="round"/>
<path d="M353.664 848.982C353.664 848.982 383.78 893.943 383.78 915.722C383.78 934.454 361.494 940.56 358.648 940.026" stroke="#61615F" stroke-width="1.2" stroke-linecap="round" stroke-linejoin="round"/>
<path d="M188.633 638.062C188.633 638.062 192.361 695.061 192.788 709.024C193.135 720.301 196.583 778.221 196.583 778.221" stroke="#61615F" stroke-width="1.2" stroke-linecap="round" stroke-linejoin="round"/>
<path d="M322.43 758.968C319.424 753.958 303.538 719.713 300.037 710.855C296.537 701.996 266.741 629.138 260.702 611.033C253.073 588.159 246.74 560.461 244.469 550.16C239.806 528.969 236.746 511.185 226.044 488.885C219.216 474.669 204.238 460.319 200.297 456.15" stroke="#61615F" stroke-width="1.2" stroke-linecap="round" stroke-linejoin="round"/>
<path d="M126.594 518.267C126.594 518.267 135.198 521.433 139.955 528.969C144.711 536.505 193.813 647.723 193.813 647.723C195.657 652.399 202.164 667.604 204.502 673.27C206.84 678.935 219.199 709.011 222.032 716.025C224.864 723.04 236.729 753.103 239.735 760.117C242.741 767.132 254.766 789.886 257.105 795.391" stroke="#61615F" stroke-width="1.2" stroke-linecap="round" stroke-linejoin="round"/>
<path d="M108.763 264.337C108.763 264.337 93.3712 271.673 86.5037 279.983C81.7738 285.702 65.8742 316.499 60.5966 328.378C55.3189 340.256 43.6146 363.117 66.9965 388.356C66.9965 388.356 74.3451 397.268 77.7522 401.717C81.1592 406.166 96.7249 436.897 96.7249 436.897" stroke="#61615F" stroke-width="1.2" stroke-linecap="round" stroke-linejoin="round"/>
<path d="M187.784 425.513C187.784 425.513 186.462 417.456 187.397 410.335C188.332 403.213 190.163 400.06 190.163 400.06" stroke="#61615F" stroke-width="1.2" stroke-linecap="round" stroke-linejoin="round"/>
<path d="M93.3272 436.883C93.3272 436.883 113.195 439.716 119.141 440.304C125.086 440.892 135.481 442.682 135.481 442.682L150.539 474.842V476.82L105.847 471.181L92.1247 441.987C91.2963 440.21 91.7907 438.099 93.3272 436.883Z" stroke="#61615F" stroke-width="1.2" stroke-linecap="round" stroke-linejoin="round"/>
<path d="M190.171 422.2C190.171 422.2 184.479 430.657 168.753 436.884C153.027 443.11 140.268 444.019 136.406 444.62" stroke="#61615F" stroke-width="1.2" stroke-linecap="round" stroke-linejoin="round"/>
<path d="M150.539 474.856C151.822 474.161 165.771 474.001 178.838 468.549C191.905 463.098 201.899 454.921 201.899 454.921" stroke="#61615F" stroke-width="1.2" stroke-linecap="round" stroke-linejoin="round"/>
<path d="M113.203 782.658C113.203 782.658 132.537 793.173 160.328 790.354C188.119 787.535 201.399 776.886 201.399 776.886" stroke="#61615F" stroke-width="1.2" stroke-linecap="round" stroke-linejoin="round"/>
<path d="M251.742 795.404C251.742 795.404 269.005 800.949 294.27 785.329C319.536 769.71 324.774 757.391 324.774 757.391" stroke="#61615F" stroke-width="1.2" stroke-linecap="round" stroke-linejoin="round"/>
<path d="M181.261 820.068C181.261 820.068 180.687 823.569 182.33 831.586C183.974 839.602 185.911 844.412 187.354 846.47C188.797 848.528 189.933 849.77 189.933 849.77" stroke="#61615F" stroke-width="1.2" stroke-linecap="round" stroke-linejoin="round"/>
<path d="M233.771 462.59C233.771 462.59 230.618 466.839 229.656 469.886C228.694 472.932 227.946 474.575 229.87 476.82C231.794 479.065 245.262 493.682 249.858 497.677C253.225 500.603 258.369 497.837 263.794 492.907C274.122 483.541 285.105 467.801 288.792 460.706C292.159 454.213 290.97 447.532 290.97 447.532C290.97 447.532 283.034 431.873 279.907 424.417C276.781 416.962 272.853 419.167 270.942 420.85C269.031 422.534 265.691 427.17 265.691 427.17" stroke="#61615F" stroke-width="1.2" stroke-linecap="round" stroke-linejoin="round"/>
<path d="M232.469 471.382C232.469 471.382 236.677 474.469 251.014 459.291C265.35 444.112 270.401 435.695 272.926 430.644C275.451 425.594 274.61 424.271 274.61 424.271" stroke="#61615F" stroke-width="1.2" stroke-linecap="round" stroke-linejoin="round"/>
<path d="M282.783 509.247C282.222 508.512 282.529 507.444 283.398 507.136C286.431 506.054 292.671 503.596 296.291 500.683C296.746 500.322 297.173 499.935 297.587 499.56C299.966 497.343 301.529 495.004 302.397 493.481C302.838 492.72 303.907 492.653 304.428 493.361L308.877 499.293C309.211 499.734 309.318 500.309 309.158 500.83C308.637 502.54 307.02 506.441 302.705 509.394C298.389 512.347 291.228 514.231 288.462 514.846C287.74 515.006 287.005 514.739 286.565 514.151L282.797 509.234L282.783 509.247Z" stroke="#61615F" stroke-miterlimit="10"/>
<path d="M297.578 499.562L304.205 508.233" stroke="#61615F" stroke-miterlimit="10"/>
</svg>
