<?xml version="1.0" encoding="UTF-8"?>
<svg id="Layer_1" xmlns="http://www.w3.org/2000/svg" version="1.1" viewBox="0 0 662 970">
  <!-- Generator: Adobe Illustrator 29.6.1, SVG Export Plug-In . SVG Version: 2.1.1 Build 9)  -->
  <defs>
    <style>
      .st0 {
        fill: #eaeaea;
      }

      .st1 {
        opacity: .16;
      }

      .st1, .st2, .st3 {
        isolation: isolate;
      }

      .st1, .st4 {
        fill: #61615f;
      }

      .st1, .st3 {
        mix-blend-mode: multiply;
      }

      .st5 {
        fill: #fbfcfc;
      }

      .st6, .st3 {
        fill: #d4d4d6;
      }

      .st7 {
        stroke-dasharray: 165.57 3.6 1.2 3.6;
      }

      .st7, .st8, .st9, .st10, .st11 {
        fill: none;
        stroke: #61615f;
      }

      .st7, .st9, .st10, .st11 {
        stroke-linecap: round;
        stroke-linejoin: round;
      }

      .st7, .st10 {
        stroke-width: 1.25px;
      }

      .st3 {
        opacity: .37;
      }

      .st8 {
        stroke-miterlimit: 10;
      }

      .st8, .st11 {
        stroke-width: .52px;
      }

      .st9 {
        stroke-width: 1.17px;
      }
    </style>
  </defs>
  <g class="st2">
    <g id="corpo_colore_sfondo">
      <path class="st5" d="M220.48,211.2s-9.67,22.41-5.09,33.32,32.62,50.71,32.62,50.71c0,0,15.27,11.87,24.26,15.75s22.9,7.85,31.02,7.15l8.12-.69s2.55,2.98,1.79,6.1-1.21,3.97-3.44,7.83-2.76,1.85-3.02,5.73.73,10.6.73,10.6l.67,2.82s1.8-8.31,6.14-11.42c4.35-3.12,10.21-6.39,13.24-9.85s8.34-9.12,8.17-11.13-.71-3.77-.71-3.77c0,0-1.46-1.83-2.05-5.78s0-7.72,0-7.72c0,0,4.46-4.52,8.95-11.33s13.78-23.8,13.78-23.8c0,0,4.62-4.14-2.68-4.71s-10.35,2.35-10.35,2.35c0,0-23.37,17.81-26.57,19.15s-3.01-6.9-4.75-19.15-8.69-48.28-28.86-60.51-31.6-11.24-32.5-11.24-29.49,19.58-29.49,19.58h.02Z"/>
      <path class="st5" d="M271.94,408.24s-6.42-.37-9.39-1.84-3.52-1.98-3.52-1.98l.17-8.61s1.14-1.72,2.09-4.61.19-8.85-.6-9.24-1.66.02-1.66.02c0,0-3.62,3.98-5.1,5.49s-1.6,2.52-3.22,2.52-3.42.09-6.18-2.95-6.13-7.57-9.37-7.7-4.36-1.18-5.74.93-1.52,6.06-4.35,7.11-4.21-1.08-6.23,1.11-.36,8.4-2.14,9.25-3.54.92-3.85,2.67,2.97,11.53,4.09,13.45,1.65,3.11,4.49,4.09,9.22,3.51,10.23,2.51.97-4.42.97-4.42l3.54,1.62s2.17,6.22,3.91,6.16,3.21,0,3.21,0c.77-3.64,1.03-7.87,1.03-7.87h2.27l7.29,6.08,14.69,11.02,10.61,6.4,4.15,1.75s-1.95-4.82-5.53-9.52-8.11-9-7.18-14.02,1.34-9.41,1.34-9.41h-.02Z"/>
      <path class="st5" d="M256.74,430.37c-1.02,1.71-1.88,2.85-1.51,4.33s2.35,5.62,3.69,7.27,2.38,4.25,2.38,4.25c0,0-19.43-1.59-23.32-2.09s-4.61-2.11-6.79,0-3.06,2.29-1.92,3.27,4.1,2.2,5.77,3.07l1.67.87s-2.41,1.24-1.54,3.52,12.38,5.71,12.38,5.71c0,0-3.14.94-2.18,2.32s2.78,3.71,5.71,4.53,19.83,5.99,21.85,5.83,16.14-3.25,18.47-3.89,9.95-3.31,11.72-3.4,34.3-1.71,34.3-1.71c0,0-2.38-5.72-5.5-10.5s-8.28-11.26-8.28-11.26c0,0-17.66,5.78-20.52,6.8-2.86,1.02-8.65-.55-11.72-2.07s-8.9-5.17-11.82-5.66-5-1.37-5-1.37c0,0-2.64-.56-7.84-4.31s-6.17-5.51-8.08-5.51h-1.92Z"/>
      <path class="st5" d="M288.59,779.31s.88,6.4,0,8.45-3.8,8.34-11.57,11.62c-7.78,3.28-19.32,6.87-24.16,8.14s-6.79,1.23-7.76,2.35-.95,2.8-.65,3.06,2.19,1.54,5.08,1.92c2.89.39,12.54.8,19.31.13s21.02-3.34,26.29-4.3c5.28-.96,11.03-2.77,11.52-3.2s1.01-1.77,1.01-1.77c0,0-2.03-7.45-2.03-10.39s1.36-14.22,1.36-14.22l-18.41-1.79h.01Z"/>
      <path class="st5" d="M366.73,790.68s1.48,6.97.88,10.51-2.2,10.51-2.2,10.51l.88,2.59s3.36,10.74,5.58,12.57,3.57,4.64,7.97,5.21,15.57,1.58,20.04.15,11.75-1.48,12.06-2.35-.41-2.6-2.95-4.73-9.56-7.31-9.56-7.31c0,0-8.36-4.31-10.72-11.97s-3.86-9.79-3.59-12.34-.82-4.92-.82-4.92l-17.57,2.07h0Z"/>
      <path class="st5" d="M284.81,471.08l3.78,22.05s5.8,3.01,11.5,5.1,15.54,5.39,21.7,5.45c8.41.08,22.16-2.45,26.62-4.41,4.46-1.96,9.83-6.76,9.83-6.76l.54-19.68-14.54,6.73-2.33.37-4.5-4.83s-7.12,2.94-15.61,2.71-22.35-3.86-22.35-3.86l-10.04-4.1-4.58,1.23h-.02Z"/>
    </g>
    <g id="scarpe">
      <path class="st6" d="M307.67,805.7s3.49,9.86,3.46,13.93-.5,5.95-.5,5.95l-.53,2.5-.7,5.86s-23.85,3.35-33.82,3.34-38.54-.46-38.54-.46l-8.04-2.08-2.75-7.08s-2.69-4.75,0-7.49,3.74-4.19,8.53-6.35,10.33-3.96,10.33-3.96c0,0-2.18,2.55.74,3.96s4.45,2.18,13.64,1.67,26.3-3.53,33.71-4.55,9.61-.5,12.04-2.88l2.43-2.37h0Z"/>
      <path class="st6" d="M365.41,811.7s-2.96,3.44-4.29,6.19-3.62,8.85-3.7,9.53.11,2.97.11,2.97l.71,6.9,10.47,8.66s8.89,5.76,13.15,8.23,5.04,2.4,11.92,2.31,17.27-.58,21.64-2.1,6.74-2.12,7.91-5.31,3.13-11.1-3.15-17.8c-2.38-2.54-17.02-10.78-17.02-10.78,0,0,9.71,5.82,8.85,7.97s-1.63,3.68-7.25,3.42-7.82-.44-13.74-.22c-5.92.22-7.41,1.93-12.28.57s-4.62-1.62-7.68-6.73-5.64-13.8-5.64-13.8h0Z"/>
    </g>
    <g id="pantalone">
      <path class="st0" d="M288.59,493.14l-10.2,138.2-6.45,93.39-.21,17.81s-4.17-.96-6.28,1.46-.85,22.99-.85,22.99c0,0,2.49,5.76,15.43,8.7,12.93,2.94,20.1,4.37,27.96,4.66,0,0,5.51.54,11.95,0s8.8-1,9.22-3.41,2.66-15.34,2.66-15.34c0,0,2.12-5.08,1.13-6.94s-5.9-3.45-5.9-3.45l4.77-65.37,10.07,72.13s-3.78,1.18-4.5,2.71-.39,4.55-.25,5.65,1.62,11.37,2.8,14.33,1.11,4.71,3.23,6.05,12.18,3.38,18.4,3.93,24.81-2.14,29.53-3.67,12.33-4.39,14.23-6.37,2.46-4.01,2.46-4.01l-4.14-21.93s-.28-2.97-2.93-2.51l-2.65.46s-.34-5.87-2.99-20.28-8.08-50.98-9.75-64.98-7.65-74.1-7.46-85.15c.2-11.06,2.58-27.04,2.45-32.09s-2.76-20.64-8.08-31.08-14.02-26.48-14.02-26.48c0,0-7,7.02-16.34,9.03-9.33,2.01-14.58,3.74-21.3,2.35s-22.4-6.44-22.4-6.44l-9.6-4.32v-.03Z"/>
    </g>
    <g id="camicia_-_capelli">
      <path class="st6" d="M305.8,317.94l6.37-1.17s1.79,3.41,1.9,6.48-2.88,7.05-4.02,8.84-2.76,4.64-3.33,7.91,2.26,11.92,2.26,11.92l2.23-5.84s1.56-3.59,3.43-6.09,2.34-2.03,5.93-4.37,6.4-4.53,9.68-6.87,5.77-8.27,6.99-11.4.19-3.85.19-3.85c0,0-2.18-1.61-3.12-3.32s-.29-2.82-.29-2.82h2.32s5.21.63,5.88.92,1.61,1.89,2.3,6.72,4.9,4.02,6.26,5.99c1.7,2.46.46,5.63.46,5.63,0,0,.09,1.02.81,1.38s6.66,7.5,9.84,12.22c3.18,4.72,11.76,21.93,20.01,40.67,8.24,18.74,12.73,36.77,15.13,47.37s-4.11,16.46-9,21.49c-4.89,5.03-26.46,17.15-26.46,17.15,0,0-.04,2.63-.87,4.21s-1.94,1.71-3.61,2.47l-13.96,6.34-5.75-4.83s-6.93,2.1-11.87,2.73c-4.93.63-9.89-.56-13.31-.72s-12.71-3.15-15.88-4.09-7.11-2.96-7.11-2.96l13.86-4.1,34.3-1.71s-1.65-3.99-4.22-8.42-9.56-13.34-9.56-13.34l-5.51,1.64s-18.14,5.61-19.61,5.51-13.38-5.51-13.38-5.51c0,0-.29-.97-1.16-2.95s-2.78-4.31-5.07-7.22-5.82-7.33-7.46-10.16-.8-10.3,0-13.91,3.66-14.17,3.66-14.17c0,0,2.88-19.99,3.51-24.16s3.35-22.21,4.47-25.56,2.75-5,6.32-8.83,6.59-4.44,6.59-4.44c0,0,.36-1.16,1.26-3.41s3.25-6,4.73-7.98l3.82-3.4h.04Z"/>
      <path class="st6" d="M221.96,215.67s-2.48,4.47-2.54,11.22c-.07,6.76.14,14.31,1.49,19.05s4.07,11.83,6.53,15.81,9.6,15.87,11.17,17.97,6.21,7.9,8.1,9.74,5.41,4.75,5.41,4.75c0,0-.92.44-4.11,1.02s-22.9-5.75-28.69-9.24-12.26-8.41-13.7-10.59-2.34-4.34-2.34-4.34c0,0-2.99-20.82-1.69-35.8,1.3-14.97.61-20.15,4.83-35.54,4.22-15.39,5.84-22.43,10.49-31.32,4.65-8.88,11.46-19.9,15.93-24.5,4.48-4.6,10.28-9.84,13.52-11.94s6.62-4.06,6.62-4.06c0,0,1.36-2.94,8.39-8.36s11.78-9.63,19.37-11.5,12.54-3.16,18.26-2.52,11.26,1.1,17.66,3.58,11.47,4.31,18.09,8.5c6.63,4.19,21.9,16.14,26.12,19.51s14.76,11.61,19.09,14.6,15.36,9.13,16.02,10.26.93,3.47-.31,8.32-6.2,20.53-9.23,27.47-7.25,17.64-14.57,28.9c-7.31,11.26-7.18,11.06-7.18,11.06,0,0,.73,3.45-1.6,9.67s-8.41,20.34-8.41,20.34c0,0,.64-1.48-3.03-2.66s-6.61-1.39-6.61-1.39l-3.15.36s-17.79,14.4-24.89,17.96-13.03,6.08-13.03,6.08c0,0,.81-18.74-1.54-29.17-2.35-10.43-7.05-23.51-11.75-30.12s-10.35-13.56-18.4-18.75-17.6-9.66-17.6-9.66c0,0,11.68,8.2,14.75,12.08s7.09,8.65,8.88,14.79,2.69,12.67,2.69,12.67c0,0-10.97-12.85-19.79-17.11s-19.61-9.73-28.28-8.99-10.96,1.84-10.96,1.84h-.01Z"/>
    </g>
    <g id="Layer_14">
      <path class="st6" d="M213.38,422.36s-1.2,1.79-1.71,3.1-.63,3.63-.63,3.63l.16,1.1,17.57,15.83s2.88-2.44,4.95-2.38,14.09,1.44,14.09,1.44c0,0,11.53,1.18,12.51,1.16s-5.72-11.09-5.14-12.65,1.56-2.56,1.56-2.56l-4.4-6.18-14.26-1.22s-17.51-.99-20.15-1.28-4.56,0-4.56,0h.01Z"/>
    </g>
    <g id="TRACCIATO">
      <path class="st10" d="M227,391.84c.3-.03,2.32,7.43,5.83,15.82,3.24,7.75,4.57,15.9,7.24,16.15,2.03.19,4.47,1.05,4.37-2.44-.09-3.24-1.25-14.14-1.25-14.14,0,0-.71-9.33-.8-11.99"/>
      <path class="st7" d="M340.21,759.38c-2.63,1.44-4.01.6-3.39,4.49.68,4.26,2.03,22.26,8.48,24.15,27,7.91,63.62-4.16,62.51-11.47-.47-3.12-2.24-13.29-2.7-15.04-1.75-6.62-.48-10.85-7.02-8.95"/>
      <path class="st7" d="M338.92,763.38c2.09,1.61,31.76,8.65,61.82-7.45"/>
      <path class="st10" d="M311.4,317.44c-8.21.39-15.06,14.13-15.06,14.13,0,0-3.84,13.17-8.34,15.6-5.06,2.74.97,2.39,3.44.74,3.3-2.22,5.35-11.51,9.79-9,3.01,1.7,6.19,7.59,7.47,12.19"/>
      <path class="st10" d="M296.34,331.57c-1.83,2.36-9.41,5.54-12.86,13.45-3.96,9.09-2.88,18.09-9.05,54.73"/>
      <path class="st10" d="M361.58,467.42c7.4-4,17.05-10.53,22.25-14.33,18.92-13.83,13.8-22.8,9.45-40.79-2.65-10.95-28.39-80.27-44.86-86.56"/>
      <path class="st10" d="M289.23,470.06c3.04,1.87,11.21,4.82,24.81,6.98,9.44,1.5,16.9.87,23.36-1.94"/>
      <path class="st10" d="M284.81,471.12c2.17,10.13,3.78,22.01,3.78,22.01,4.2,1.02,39.56,24.08,69.64-.62,0-3.38-.03-11.03.54-19.68"/>
      <path class="st10" d="M308.71,540.18c6.52,1.88,9.77,16.82,13.09,50.6,6.46,65.79,21.45,179.63,20.01,172.74"/>
      <path class="st10" d="M399.24,755.93c-7.69-19.71-16.4-122.16-20.17-156.79-3.18-29.22.79-37.79,1.27-49.07.95-22.4-19.6-50.56-22.1-57.56"/>
      <path class="st10" d="M313.74,477.12c.8,4.54,3.32,19.14,3.49,25.64"/>
      <path class="st10" d="M246.06,809.3c-11.65,3.82-26.58,10.73-19.06,18.85,2.47,2.67,27.39,2.93,47.9,2.18,17.98-.65,34.76-3.28,35.72-4.75,1.51-2.31-.68-14.17-2.87-20.33,0,0,1.19,2.86-7.35,4.46s-30.28,6.18-42.54,5.85c-19.46-.53-13.37-5.74-11.81-6.26"/>
      <path class="st4" d="M237.77,272.4l1.21-.51c.31-.13.65.1.65.43v1.15c0,.35-.38.58-.69.42l-1.21-.64c-.35-.19-.33-.69.04-.85h0Z"/>
      <path class="st4" d="M285.96,256.33l2.57-1.06c.47-.19.93.29.71.75l-.92,1.98c-.14.29-.49.41-.77.25l-1.65-.92c-.41-.23-.37-.82.06-1Z"/>
      <path class="st10" d="M344.32,374.98c.77.17,6.62,15.36,9.46,25.05s2.56,20.24,2.56,20.24c0,0-.33,1.81-5.78,5.48s-9.14,4.63-9.14,4.63"/>
      <path class="st10" d="M356.34,420.78s6.96-1.55,11.8.62c4.84,2.17,8.48,5.97,8.48,5.97"/>
      <path class="st10" d="M225.09,824.72l3.9,10.03c.22.56.71.96,1.3,1.05,4.22.65,22.38,2.26,41.59,1.29,21.54-1.08,31.42-2.46,35.79-3.03,2.42-.32,1.52-1.7,1.67-2.42l1.42-6.68"/>
      <path class="st10" d="M231.83,415.69c.67.44,2.25,5.27-1.19,4.72-1.73-.28-11.08-2.15-12.6-4.63-2.61-4.26-6.71-12.63-5.2-15.37,1.01-1.82,3-2.06,3.85-2.67,1.68-1.22.56-5.92,1.2-7.68,1.07-2.93,3.1-2.29,5.23-2.29s2.83-1.06,2.83-1.06c1.58-1.77,1.93-6.29,4.66-7.18,7.45-2.41,11.64,5.84,14.75,8.24s4.81,3.18,7.09,1.21c2.64-2.28,6.98-9.13,8.24-7.02,4.08,6.82-.62,9.98-1.49,13.85-.71,3.16-.32,8.4-.17,8.61,1.25,1.67,9.48,4.26,12.91,3.82"/>
      <path class="st10" d="M219.91,399.86s4.89,9.25,6.04,11.11,3.58,3.73,6.63,5.07,3.58,1.61,3.58,1.61"/>
      <path class="st10" d="M246.58,415.94s24.17,21.11,36.74,25.25"/>
      <path class="st10" d="M244.53,416.62s5.67-2.12,7.81-5.16"/>
      <path class="st10" d="M268.75,445.81s-4.49.87-15.53.07c-5-.36-19.62-3.43-22.04-1.75-2.1,1.46-2.65,2.91-.79,4.24.54.38,2.51,1.33,4.63,2.09,5.24,1.88,12.14,4.03,15.87,4.89,5.25,1.2,11.08,1.8,11.08,1.8"/>
      <path class="st10" d="M267.28,465.1s-8.27-1.29-15.78-3.31-15.54-5.97-16.35-6.93.05-3.44,1.54-3.52,3.99,1.06,3.99,1.06"/>
      <path class="st10" d="M337.4,464.25l-34.3,1.71s-23.55,7.28-30.18,7.29c-2.15,0-5.01-.98-12.7-3.01s-14.84-5.58-14.85-7.36c0-1.41.63-2.01,2.18-2.32"/>
      <path class="st10" d="M323.62,442.5c-.38.37-20.71,8.27-25.12,7.15s-9.48-3.23-13.38-5.51c-9.46-5.53-7.73.23-24.64-12.82-2.63-2.03-5.74.26-5.25,3.39.82,5.2,7.43,11.51,7.43,11.51"/>
      <path class="st10" d="M318.11,444.14s-3.54-9.32-2.77-10.27c.68-.83,13.86-7.43,17.15-8.9.48-.21.98-.08,1.46.12,12.69,5.28,26.27,37.68,27.56,43.16.3,1.27-.33,3.49-1.52,4.03l-16.84,7.65s-5.75-3.46-14.91-15.22"/>
      <path class="st10" d="M317.23,435.57c11.01,8.57,25.95,36.69,25.95,41.91"/>
      <path class="st10" d="M219.91,415.24s2.05.28,3.01-1.38"/>
      <path class="st10" d="M227,408.88s.12,1,2.42-1.49"/>
      <path class="st10" d="M284.78,365.66s-11.98,39.84-13.34,44.23c-2.69,8.65.75,16.04,3,18.79,3.03,3.71,9.53,10.51,10.68,15.45"/>
      <path class="st10" d="M337.22,311.2c2.76,3.29-2.42,13.71-10.35,20.37-6.48,5.45-11.5,6.18-14.8,12.28-4.27,7.9-2.49,7.25-3.37,8.07"/>
      <path class="st10" d="M335.05,307.37s4.41.07,6.65.67,1.83,5.14,2.83,6.97c1.98,3.63,4.45,4.45,6.81,6.41,2.64,2.18-.09,5.2-.09,5.2"/>
      <path class="st10" d="M349.3,324.91s-3.13.82-7.74,13.34c-3.51,9.53-5.17,16.96-6.85,18.86-1.67,1.9-2.05,1.31-2.87-1.9-.8-3.15-4.78-24.7-19.76-11.36"/>
      <path class="st11" d="M303.09,465.97c2.52,9.48,2.09,9.38,2.09,9.38"/>
      <path class="st11" d="M307.96,353.9c.49,4.61-5.6,20.75-10.59,35.74-4.99,14.99-9.8,24.75-8.85,33.81.87,8.22,6,17.24,9.97,26.2"/>
      <path class="st11" d="M312.17,316.77c.61-.93-4.62,3.1-8.87,13.06-1.73,4.06-2.07,6.77-2.07,6.77"/>
      <line class="st10" x1="288.59" y1="493.14" x2="271.46" y2="746.14"/>
      <path class="st10" d="M268.75,744.81s11.94,6.85,34.24,9.05c21.53,2.12,27.7.38,27.7.38"/>
      <line class="st10" x1="332.01" y1="683.36" x2="326.92" y2="754.63"/>
      <path class="st10" d="M271.73,742.53l-4.85.71c-1.2.18-2.1,1.2-2.11,2.42l-.17,21.33c0,1.15.58,2.23,1.56,2.83,3.54,2.2,13.31,7.19,31.78,9.53,16.32,2.06,24.74,1.21,28.44.46,1.44-.29,2.55-1.43,2.78-2.87l3.79-21.49c.25-1.54-.76-3-2.29-3.31l-3.61-.94"/>
      <path class="st9" d="M221.96,215.67c-3.34,4.49-4.24,25.28,1.41,37.86,5.65,12.58,17.71,32.73,28.75,40.68-2.95,4.62-41.33-6.93-48.38-21.82-4.42-9.32-9.63-112.64,49.24-144.47,9.24-9.58,38.33-45.17,96.85,0,12.66,10.95,32.85,26.69,41.07,30.8,8.21,4.11,5.48,4.79,5.13,9.58-.34,4.79-22.93,92.76-92.06,119.79.9-5.19,5.13-67.05-49.03-87.07,4.74,1.92,24.49,14.82,26.05,38.89-4.36-5.13-28.62-32.34-59.04-24.26-2.57-4.88-1.84-7.52,1.41-18.84,2.78-9.66,19.12-59.57,29.6-68.9"/>
      <path class="st9" d="M279.02,248.53c1.43-1.89,9.83-6.83,15.1-4.62"/>
      <path class="st9" d="M229.89,265.74c1.63-2.35,4.36-4.19,8.71-4.71"/>
      <path class="st9" d="M265.63,282.53c-3.59,3.39,3.82,11.68,10.36,3.31"/>
      <path class="st9" d="M272.27,303.07c2.44,3.34,16.04,7.06,26.73-6.16"/>
      <path class="st9" d="M365.19,237.02c.89,8.19-17.35,54.84-43.43,74.17-9.92,7.36-24.16,11.6-47.23.86-12.49-5.82-16.26-8.81-26.52-16.82"/>
      <path class="st9" d="M341.89,264.07c4.52-1.14,9.94.47,12.79,3.69"/>
      <path class="st10" d="M312.17,316.77c5.29,9.2-1.81,12.32-4.96,20.89-.48,1.32-.57,2.75-.27,4.12.59,2.67,1.55,7.22,1.76,9.31"/>
      <path class="st10" d="M337.22,313.51c-4.76-2.1-3-8.64-2.18-14.34"/>
      <path class="st10" d="M288.4,777.77c1.16,9.18,2.8,20.7-30.4,28.39l-11.94,3.14"/>
      <path class="st10" d="M307.99,780.34c-2.43,6.94-2.7,19.62-.32,25.37"/>
      <path class="st10" d="M366.73,790.68c2.98,8.57-1.32,21.02-1.32,21.02"/>
      <path class="st10" d="M384.3,788.61s.93,7.34,3.15,14.27c3.05,9.54,14.39,16.67,14.39,16.67,0,0,12.67,8.86,10.09,10.33-7.06,4.04-16.7.64-28.71,2.24-13.74,1.83-17.81-20.42-17.81-20.42"/>
      <path class="st10" d="M365.41,811.7s-2.17,2.02-3.36,4.38c-.6,1.2-4.43,8.24-4.72,12.01,0,0,.69,8.55.9,9.2s15.52,13.69,24.67,17.34c7.33,2.93,25.43,2.27,35.37-1.07,6.46-2.17,8.15-11.4,5.24-17.97-3.3-7.45-23.17-17.03-23.17-17.03"/>
      <path class="st10" d="M357.33,828.09c0,3.89,20.34,16.21,23.85,17.72,13.92,5.97,30.85,2.09,33.71,1.44,7.16-1.62,9.35-4.84,9.84-6.11"/>
      <path class="st10" d="M261.29,446.22l-11.48-13.64c-.46-.58-1.15-.94-1.9-.99l-36.36-2.26c-.46-.03-.7.54-.37.85l17.82,16.06"/>
      <line class="st8" x1="363.8" y1="685.81" x2="376.62" y2="763.88"/>
    </g>
    <g id="cellulare">
      <path class="st10" d="M256.74,430.37l-3.66-4.9c-.4-.53-1.01-.87-1.67-.91l-36.68-2.54c-1-.07-1.92.52-2.29,1.45l-1.49,3.82s-.71,1.6.24,2.89"/>
      <line class="st11" x1="249.08" y1="431.67" x2="252.34" y2="424.86"/>
    </g>
    <g id="ombrecellulare">
      <path class="st1" d="M211.03,429.09l40.6-4.23,5.1,5.51s-2.13,1.62-1.51,4.33,6.07,11.52,6.07,11.52c0,0-22-2.76-25.69-2.59s-4.22.46-5.53,1.42l-1.31.96-17.57-15.83-.16-1.1h0Z"/>
    </g>
    <g id="ombre-2">
      <path class="st3" d="M221.96,215.67s-3.03-1.77-5.77,9.15-2.74,29.9-2.74,38.89.11,18.82.11,18.82c0,0,23.29,11.24,28.87,11.97s9.69-.29,9.69-.29c0,0-16.74-18.69-19.92-24.13s-8.73-23.01-7.65-36.44,6.25-19.43,7.65-19.44-10.24,1.47-10.24,1.47h0Z"/>
      <path class="st3" d="M234.51,214.2s-5.95-1.55,7.49,6c13.44,7.56,37.74,32.94,43.64,40.82s20.53,31.47,21.82,45.21,0,11.08,0,11.08c0,0,7.07-1.64,9.32-2.95s2.95-2.72,3.67,7.87c.49,7.14,0,12.6,0,12.6l13.03-9.74c5.09.92,6.28,8.68,6.42,11.5s3.78-5.27,6.05-7.96-.44-2.77-.44-2.77l5.73.74-.27-3.27c-.12-1.46-.81-2.82-1.92-3.78-1.39-1.19-3.32-2.96-4.53-4.57-2.09-2.76-2.3-6.72-2.3-6.72l-7.07.39-2.21-.09v-7.72s10.89-13.28,15.34-21.29,15.07-29.89,15.99-36.22,1.93-7.81,1.93-7.81c0,0,14.7-24.11,19.12-35.14s12.79-34.78,11.42-36.88-3.3-2.75-9.4-6.8-26.2-22.81-43.32-33.06c-17.12-10.26-32.97-17.96-42.92-17.89s-16.87,1.29-16.87,1.29c2.45-.55,14.12,22.92,12.26,37.92s.15,28.04-12.26,37.82c-12.42,9.78-29.29,18.25-29.29,18.25,0,0,7.53,2.22-1.07,8.49-8.59,6.27-14.03,5.14-14.03,5.14"/>
      <path class="st3" d="M314.07,342.23s13.77,13.99,16.13,26.92.84,35.1-1.97,42.3c-2.81,7.21-6.7,18.92-6.7,18.92l10.95-5.41,8.92,5.41s5.46-1.8,9.14-4.63,5.78-5.48,5.78-5.48c0,0-.22-11.81-1.87-17.59s-10.15-27.7-10.15-27.7c0,0-1.41-21.05,7.02-16.78s20.48,28.03,27.39,46.7,14.05,20.1,3.79,30.98-32.18,7.75-32.18,7.75c0,0,6.33,8.37-1.93,12.89s-20.17-6.87-20.17-6.87c0,0-20.38,7.09-24.08,8.57s-22.57,6.88-29.72,6.88-26.89-4.54-26.89-4.54c0,0-2.9,1.16-2.18,2.32s1.44,2.7,6.98,4.69,20.57,5.67,20.57,5.67c0,0,10.4-1.4,18.47-3.89,6.03-1.86,11.72-3.4,11.72-3.4l25.14-1.25s7.18,8.54,9.16,10.4,5.75,4.83,5.75,4.83l16.84-7.65s2.53-2.95,1.59-4.86,10.22-5.69,17.4-10.9,18.5-13.83,18.38-20.21-6.78-34.2-12.57-48.26c-5.79-14.07-19.61-44.46-25.29-51.44s-8.25-9.98-8.25-9.98c0,0-2.62-4.78-6.7,4.95s-5.27,15.16-7.56,20.35-4.56,5.75-5.15,3.29-1.37-11.67-5.89-13.66-7.69-6.05-8.72-3.36-3.16,4.04-3.16,4.04h0Z"/>
      <path class="st3" d="M291.21,471.08s11.56.87,18.31,11.36,2.56,19.65,2.56,19.65c0,0,15.85,12.32,26.33,28.82,10.48,16.5,11.32,51.58,14.93,74.94,1.3,8.39,6.25,60.03,10.82,81.89,4.56,21.86,7.54,55.82,11.01,68.18,1.45,5.18,1.45,7.95,1.45,7.95,0,0,13.04-3.25,16.16,2.42s3.18,19.21,0,20.14,5.38-1.68,7.96-3.08,7.07-6.79,7.07-6.79l-2.7-15.04s.05-9.41-2.13-9.4-4.89.46-4.89.46c0,0-3.66-21.09-6.29-38.56s-8.53-76.63-10.12-91.03c-1.59-14.39-4.81-34.43-3.8-47.32s3.99-26.51,1.64-35.5-9.29-25.78-13.05-32.46c-3.76-6.69-8.24-15.2-8.24-15.2l-.39-19.26-14.7,6.68s-6.27-1.62-9.11-6.68-5.8-8.54-5.8-8.54l-25.14,1.25-11.89,5.12h0Z"/>
      <path class="st3" d="M308.71,540.18s5.31,58.24,6.78,80.54c1.47,22.3,1.14,77.2-.26,95.5s-4.55,38.84-6.53,38.41,6.21-1.07,6.78,9.25c.58,10.31-4.18,16.32-6.78,16.5s9.11.59,13.39,0,7.07-3.46,7.07-3.46c0,0,6.06-20.29,3.79-21.49s-1.26-5.5-3.58-4.88l-2.31.63,4.77-65.11s-9.73-102.11-12.63-117.61c-2.89-15.49-2.24-18.6-5.46-22.98s-5.04-5.31-5.04-5.31h.01Z"/>
      <path class="st3" d="M372.26,790.68c.22-.91,6.25,8.02,9.82,15.02s15.92,13.86,18.67,17.79,2.74,5.81-1.51,7.04-6.01,0-6.01,0c0,0,13.13,2.81,19.05,6.76,5.93,3.95,3.51,17.01,3.51,17.01,0,0,4.06.29,6.1-3.14s5.12-10.4,2.84-13.87-6.32-8.87-15.35-13.8c-9.04-4.93-16.71-9.73-19.39-15.41s-3.74-10.64-3.74-10.64l-1.94-8.83-12.05,2.07Z"/>
      <path class="st3" d="M291.21,778.31s8.07,14.67,7.59,23.23-.43,10.84-7.42,16.35-41.19,2.81-51.97,6.98-6.51,11.35-6.51,11.35c0,0,31.4,1.29,38.98.88,7.57-.42,35.79-3.03,35.79-3.03l2.96-8.47s2.67,2.48,1.45-2.09-2.99-12.74-4.41-17.79-2.45-12.73-2.45-12.73l1.79-11.88-15.79-2.78v-.02Z"/>
      <path class="st3" d="M218.04,415.77s1.81.9,4.88-1.92,1.95-4.77,1.95-4.77c0,0,2.37,1.11,4.55-1.69s.8-4.7.8-4.7l5.95,14.96-4.33-1.96s1.58,4.39.2,4.55-3.37-1.09-7.74-1.32-6.24-3.15-6.24-3.15h-.02Z"/>
      <path class="st3" d="M240.07,423.81v-16.27c-.19-10.48-6.07-20.89-2.6-20.63s7.77,6.94,10.96,8.55,7.2-.03,9.33-3.62,3.52-7.33,3.52-7.33c0,0,1.96.65.95,3.8s-3.04,7.5-3.04,7.5l-.17,8.61s3.92,2.49,7.11,3.11,5.8.7,5.8.7c0,0-1.85,2.06-1.49,7.02s.64,9.17,3.24,12.4-5.41-5.98-12.4-10.01-9.66-5.35-9.66-5.35l-7.1,4.32s1.05,7.19,0,7.19"/>
    </g>
  </g>
</svg>