<?xml version="1.0" encoding="UTF-8"?>
<svg id="Layer_1" xmlns="http://www.w3.org/2000/svg" version="1.1" viewBox="0 0 584 786.94">
  <!-- Generator: Adobe Illustrator 29.6.1, SVG Export Plug-In . SVG Version: 2.1.1 Build 9)  -->
  <defs>
    <style>
      .st0 {
        fill: #fafbfc;
      }

      .st1, .st2 {
        isolation: isolate;
      }

      .st3, .st2 {
        fill: #d4d4d6;
      }

      .st4 {
        fill: #eae9ea;
      }

      .st2 {
        mix-blend-mode: multiply;
        opacity: .27;
      }

      .st5 {
        fill: #1d1d1b;
      }

      .st5, .st6, .st7 {
        stroke: #61615f;
        stroke-linecap: round;
        stroke-linejoin: round;
      }

      .st5, .st7 {
        stroke-width: 1.31px;
      }

      .st6 {
        stroke-width: 1.3px;
      }

      .st6, .st7 {
        fill: none;
      }
    </style>
  </defs>
  <g class="st1">
    <g id="corpo_colore_sfondo">
      <path class="st0" d="M251.84,214.35c-.71-4.7-2.16-6.78-2.16-6.78,0,0-8.82-18.06-9.32-19.53-.5-1.48,13.15-6.5,18.25-5.8,5.11.71,11.45,4.13,11.45,4.13,0,0,17.95.4,23.67-11.47,5.72-11.86,15.42-25.85,25.37-30.85,9.96-5.01,42.02-8.07,42.02-8.07l25.74,11.49s.14,8.02-1.32,11.51c-1.46,3.49-4.58,8.24-4.58,8.24l-27.8,30.79s-2.81-.17-3.53,2.05c-.72,2.22-1.83,9.18-1.4,11.48.44,2.3,2.59,2.96.37,5.01s-4.55,2.11-7.04,2.28l-2.49.17s-5.26,4.71-10.29,9.89c-5.03,5.19-12.29,11.07-17.93,13.25s-15.58,3.07-19.65,1.35c-4.07-1.72-20.09-13.15-20.09-13.15,0,0-.04-2.73-1.06,2.26s-.94,13.66-.94,13.66c0,0-15.36,2.81-20.46-6.89-5.11-9.7-4.36-13.53-4.36-13.53l3.59-1.39s2.3,1.9,3.32-1.68c1.02-3.57.63-8.42.63-8.42h.01Z"/>
      <path class="st0" d="M322.02,320.22c2.85,5.81,4.35,9.92,4.35,9.92l20.97-15.02,22.9-2.71s2.13-1.11,5.01-4.14,5.37-11.05,5.37-11.05c0,0,1.88-4,2.97-6.22,1.09-2.22,2.09-5.78,2.09-5.78l2.03-3.31c2.03-3.31,4.3-8.19,4.3-8.19l-23.01,15.64-8.89.12,13.71-9.77,9.7-7.11,2.38-2.78s2.47-2.62,2.61-4.06-2.13-1.48-4.18-1.98c-2.05-.51-10.55-2.23-13.01-2.5s-3.75,1.57-3.75,1.57h-3.73s-1.39.73-3.68,2.54-7.96,9.16-7.96,9.16l-5.8.35s-2.07,1.9-3.17,5.69,3.17,9.37,3.17,9.37c0,0-1.65,4.06-2.8,6.29-1.16,2.23-3.23,5.67-5.66,7.49l-5.58,3.03s-10.53-1.6-12.96-2.37-7.72-2.48-7.72-2.48c0,0-.73,2.03-.79,4.19l-.06,2.16,6.16,4.96,5.04,6.99h-.01Z"/>
      <path class="st0" d="M166.1,583.32s-1.13,3.61-5.27,8.45c-3.26,3.81-6.47,5-8.8,5.87s-4.7,1.54-4.7,1.54c0,0,3.51,9.93,5.02,13.03s6.94,13.09,10.04,15.9c3.11,2.81,8.57,6.02,11,5.51s2.05-1.26,2.05-1.26c0,0-4.3-10.71-3.67-16.33.63-5.62.97-10.15,2.98-12.89s5.53-6.57,5.53-6.57l-14.17-13.25h-.01Z"/>
      <path class="st0" d="M300.38,613.16s3.62,5.36,5.07,9.65,3.35,11.98,2.91,14.39c-.43,2.41-1.4,4.39-1.4,4.39,0,0,2.6,1.72,6.21,1.88,3.61.17,14.17-.32,20.58-2.16,6.4-1.84,15.55-5.22,18.65-6.93,3.1-1.71,6.81-4.51,6.81-4.51,0,0-9.81-1.32-15.57-3.08s-12.38-4.35-14.89-6.32c-2.51-1.96-5.21-4.37-6.55-6.39-1.33-2.01-4.35-7.8-4.35-7.8l-17.48,6.87h0Z"/>
      <path class="st0" d="M231.67,362.2s-2.64.21-3.39,2.01-.86,2.6-.86,2.6l-.93,18.23.03,3.56s4.8,3.19,7.48,3.98c2.69.79,15.45,6.13,23.02,5.94s12.28-1.05,15.58-2.19,9.46-4.03,9.46-4.03c0,0,4.16-2.23,4.67-3.7s1.15-5.51,1.47-8.8c.31-3.29,1.08-10.56,1.19-12.99.12-2.43-.59-4.61-.59-4.61l-1.33-.93-.79,1.79s-3.7,3.55-11.7,6.22-10.8,3.89-19.47,3.66c-8.67-.23-11.33-.73-16.17-2.73s-7.81-4.35-7.81-4.35l.14-3.65h0Z"/>
    </g>
    <g id="scarpe">
      <path class="st3" d="M147.33,599.18s-5.24-.33-9.2,1.96c-3.97,2.29-6.95,6.2-6.95,6.2h-1.31l-3.59,4.16s4.04,7.13,5.7,9.95,15.06,23.1,19.3,26.64c4.24,3.54,11.34,8.8,20.44,9.99,9.1,1.19,16.68,2.09,18.27.64s3.47-2.8,3.62-5.62.33-5.09-1.35-6.88c-1.69-1.79-13.86-11.73-13.86-11.73l-3.18-1.38s-3.88.37-7.45-.75-10.28-9.58-12.95-15.26c-2.67-5.69-7.47-17.92-7.47-17.92h-.02Z"/>
      <path class="st3" d="M306.97,641.59s-2.49-2.55-2.38,0,.32,11.93.83,13.81c.52,1.88.83,2.68.83,2.68l.69,6.47s12.81-1.13,16.84-1.78,31.57-6.09,40.58-9.66c9-3.57,20.34-8.91,21.24-10.84s1.35-6.16,0-7.82l-1.35-1.65s-10.5-4.35-14.26-4.43-9.13.82-9.13.82c0,0-8.57,5.54-11.79,6.88s-10.18,4.56-17.95,6.16c-7.77,1.61-15.2,1.21-17.65,1.28-2.45.06-6.5-1.92-6.5-1.92h0Z"/>
    </g>
    <g id="pantalone">
      <path class="st4" d="M226.51,388.6s-2.61,7.65-3.2,12.55c-.59,4.9-1.84,20.98,8.76,36.35,10.61,15.38,3.15,4.18,3.15,4.18v51.19s-4.8-1.06-5.63,0c-.83,1.05-1.57,2.48-1.2,4.5.37,2.03.64,3,.64,3,0,0-23.51,26.03-30.21,32.48-6.7,6.44-23.62,22.06-23.62,22.06,0,0-3.93-3.9-5.66-2.98-1.72.91-2.31,2.18-3.17,2.98-.86.8-6.43,7.55-8.56,9.26s-4.89,3.38-4.72,4.21,6.17,11,8.3,13.49c2.14,2.5,13.84,14.48,20.83,18.78,6.99,4.3,17.9,9.61,17.9,9.61l2.44-1.75,11.92-13.31,3.08-3.44-4.25-5.8s5.07-6.32,7.72-9.19c2.65-2.87,27.08-26.78,29.45-29.08s9.61-9.8,10.06-11.02c.45-1.22,1.11,1.23,1.11,1.23l13.73,53.28s-5.2,2.34-5.43,3.44-.06,2.57.5,4.05c.57,1.49,4.63,18.29,6.7,19.13s14.37,1.7,22.19-.11c7.83-1.81,23.4-8.55,28.37-11.54s10.9-6.62,10.9-8.23-3.84-12.38-5.27-16.14-3-6.42-4.58-6.24c-1.58.17-4.08,1.01-4.08,1.01,0,0-7.22-24.51-12.53-42.44-5.3-17.92-12.15-46.4-15.46-66.98-3.31-20.59-11-59.75-11.29-65.41-.29-5.66-.52-11.09-.52-11.09,0,0-10.63,7.34-20.3,7.72-9.67.37-16.07.54-24.41-2.96-8.33-3.5-13.67-6.78-13.67-6.78h.01Z"/>
    </g>
    <g id="camicia">
      <path class="st3" d="M249.8,218.83l-4.9,1.03s.23.35-1.57,2.47-6.04,7.01-6.04,7.01l-1.54,2,1.54,4.15s-4.6,4.68-8.23,9.44c-3.62,4.76-10.04,11.84-13.05,19.74-3.01,7.9-4.75,10.78-4.76,17.59,0,6.81,1.22,14.65,1.88,17.4.66,2.75,7.09,25.39,9.49,30.48s8.71,29.37,8.97,31.13c.26,1.76.6,4.59.6,4.59,0,0,6.67,3.75,12.03,5.82,5.36,2.07,17.56,1.06,21.67,0s11.61-2.71,15.06-4.86c3.45-2.16,6.35-3.75,6.35-3.75l.59-8.1,16.5-7.57s3.45,4,6.49,3.32,15.14-6.9,15.14-6.9c0,0,2.39-3.33,1.8-6.89-.58-3.56-3.12-13.32-6.98-18.5-3.87-5.18-9.96-10.22-9.96-10.22,0,0,2.07-4.78.79-6.27s-2.4-2.49-2.4-2.49l-14.03-3.64s-11.22-20.38-12.84-24.22-6.54-17.19-6.54-17.19c0,0,1.34-.45,2.76-1.03,1.42-.59-1.83-6.21-2.22-8.42-.39-2.22.14-5.07-1.83-7-1.97-1.93-5.47-5.33-5.47-5.33,0,0-.57,1.66-.94,3.87s-.37,5.18-.37,5.18c0,0-4.29-2.58-10.54-6.16-6.76-3.87-8.91-12.54-8.91-12.54,0,0,1.85,1.27,2.19-1.39.34-2.66-.73-2.72-.73-2.72v-.03Z"/>
    </g>
    <g id="capelli_colore">
      <path class="st3" d="M203.71,80.35s18.98-10.32,30.69-14.33c11.71-4.01,25.84-10.8,49.83-13.24,24-2.44,40.22-3.19,48.13.1,7.91,3.28,17.34,8.45,29.53,24.62,12.19,16.17,25.39,35.33,31.56,51.46s.26,15.21.1,16.03c-.16.83-.08,6.91-3.5,11.46-3.43,4.55-6.93,7.91-6.93,7.91,0,0,2.31-6.03,2.45-9.25l.14-3.22s-7.64.47-14.37,1.24c-6.73.78-9.78-.45-18.72,4.61-8.94,5.06-14.88,10.62-20.25,16.53s-18.76,29.46-18.76,29.46l-1.89,3.83s-1.45-22.24-.04-27.59c1.41-5.35,6.49-22.08,6.49-22.08,0,0-2.95-1.71-6.49-.15-3.54,1.57-6.2,5.08-6.2,5.08,0,0-1.42,2.66-.69,4.43s3.41,5.97,3.41,5.97c0,0-2.73,2.1-4.55,7.49-1.82,5.39-7.17,23.58-7.17,23.58l-27.37-17.93s-9.01-2.59-16.14-.81-12.47,5.2-12.47,5.2c0,0-6.54-22.71-7.24-29.65s.5-14.63-.16-15.84c-.66-1.22-13.3-21.61-17.94-32.7-4.64-11.09-11.43-32.21-11.43-32.21h-.02Z"/>
    </g>
    <g id="ombre">
      <path class="st2" d="M323.53,167.26c-7.48,15.6-11.82,40.31-11.82,40.31,0,0,1-39.17,7.69-52.89,6.69-13.72,12.89-26.39,22.56-34.01s17.25-12.2,18.21-12.67-18.66-16.45-61.29-4.63c-28.26,7.84-44.5,34.85-46.52,51.28-.86,7.01,2.97,18.79,2.97,18.79,0,0-24.62-28.07-31.05-41.56s-20.57-51.53-20.57-51.53c0,0,6.01-4.23,20.57-10.35s49.76-17.22,68.49-18.44c18.73-1.21,38.33-1.65,45.73,3.66,7.4,5.3,17.05,14,24.38,23.48s23.03,34.48,23.03,34.48c0,0-42.86,13.36-62.38,54.08h0Z"/>
      <path class="st2" d="M385.33,156.39s-16.62-1.56-22.44,5.16-2.71,13.36-2.71,13.36c0,0-3.26-5.8-7.96,0s-5.78,8.09-5.78,8.09c0,0-4.94-8.09-11.47-3.02-10.06,7.82-17.76,19.36-22.23,25.55-4.48,6.19,19.36-32.03,24.87-36.89s15.13-10.91,19.17-12.4c4.05-1.49,9.1-2.78,14.57-3.09,5.47-.31,14.37-1.24,14.37-1.24l-.37,4.49h-.02Z"/>
      <path class="st2" d="M311.72,207.57s-2.32-7.33-7.42-6.53c-7.19,1.12-14.52,22.23-14.89,31.56s7.7,13.2,7.7,13.2c0,0-5.17,2.01-17.06-7.87s-18.87-19.1-21.13-17.05c-3.8,3.44-.99,14.61-.99,14.61,0,0-3.52-3.84-4.97,2.44-1.45,6.28,4.97,17.83,4.97,17.83,0,0-4.2-9.19-8.98-4.7-4.78,4.49-12.21,19.37-11.66,28.26.55,8.89,14.06,42.2,20.64,52.38,6.57,10.18,14.48,16.33,20.69,16.25s29.79-10.07,29.79-10.07l-3.84-8.97s2.86,2.44,11.93-3.04c5.67-3.43,5.25-4.04,5.25-4.04,0,0,1.42,2.64,1.77,3.34,2.45,4.81,20.52-17.09,23.75-18.02,3.23-.94,21.77.5,24.05-1.03,2.28-1.53,9.8-9.26,9.8-9.26,0,0-4.96,14.53-7.96,16.1-3,1.58-25.84,2.15-25.84,2.15l-20.97,15.02s6.8,7.84,1.66,11.41c-5.14,3.57-16.35,9.16-16.35,9.16,0,0-5.75-1.58-6.52-2.45s-17.56,7.42-17.56,7.42c0,0-2.72,3.9-13.03,10.18-2.68,1.63-5.47,5.01-5.47,5.01,0,0-4.17,5.34-7.55,14.68-3.38,9.33,3.6,12.39,3.6,12.39,0,0-16.73-4.99,5.01,79.61,9.58,37.27,19.85,81.8,24.93,95.23s9.4,19.67,11.15,18.99,3.85-1.54,3.85-1.54c0,0,2.93,11,6.41,15.64,3.47,4.64,9.52,1.66,9.52,1.66,0,0-11.32,6.98-12.42,12.66s2.65,17.04,10.23,19.35c7.59,2.31,14.78.42,14.78.42,0,0,23.22-2.08,28.55-1.08s13.54,2.92,13.88,4.67-3.55,3.98-3.55,3.98c0,0-19.77,9.39-45.8,13.89-15.28,2.64-23.14,3.12-23.14,3.12l-2.16-5.11-1.95-14.21s1.2-3.98,1.79-4c0,0,4.31-2.06,1.05-13.9-2.38-8.64-4.83-10.22-4.83-10.22,0,0-3.3.78-11.62,1.12s-14.59-1.12-14.59-1.12l-5.94-22.06,4.53-3.27-20.86-82.26s.87,4.11-5.13,9.24-40,36.46-47.33,46.13-7.91,16.17-7.91,16.17c0,0-6.87-5.22-7.68-5.88-3.59-2.9-12.82,7.83-13.91,13.7s-1.09,2.95-1.09,2.95c0,0-2.5-1.42-5.96,3.98-3.46,5.4-4.56,11.73-5.05,20.23-.49,8.49,1.31,10.84,4.28,13.84,2.98,3,9.11,11.18,11,16.53,1.89,5.35-1.34,12.07-1.34,12.07,0,0-17.35-4.41-22.58-10.38-5.23-5.97-22.2-30.99-22.2-30.99l-2.8-5.6s2.61-4.69,3.59-4.16,1.64-1.13,1.64-1.13c0,0,.33-1,3.33-3s9.59-4.03,9.59-4.03h2.41s4.61-1.08,9.3-3.69c4.7-2.61,8.82-9.53,8.82-9.53,0,0-12.24-14.83-11.71-16.75l.53-1.91s5.81-4.22,8.6-7.65c2.79-3.43,6.12-7.43,6.12-7.43l4.63,1.58,2.06.94s47.98-47.85,49.65-49.52c1.67-1.67,4.19-4.83,4.19-4.83,0,0-1.02-6.85.57-7.51,1.58-.66,4.92-.32,4.92-.32l.71-50.86s-12.85-16.8-12.63-26.81c.22-10,3.92-26.28,3.92-26.28l2.52-25.18,3.26-.85s-14.12-43.44-16.69-53.42c-2.57-9.97-5.94-29.72-1.85-38.9,4.09-9.18,20.35-31.09,20.35-31.09l3.19-3.67-1.54-4.15,5.78-6.89,4.3-5.62h3.96l2-6.5s-11.75-21-13.78-28.58-5.18-24.02-5.44-29.11c-.26-5.09-.2-9.84-.2-9.84,0,0,23.23,29.61,29.18,34.84,5.95,5.23,19.22,15.13,25.75,19.68s7.79,4.29,7.79,4.29c0,0,7.52-19.84,9.44-23.63,1.92-3.8,3.66-6.75,3.66-6.75,0,0-5.09-7.12-2.72-10.4s5.38-5.08,5.38-5.08c0,0-4.23,3.4-.96,7.43,3.27,4.03,3.91,2.69,3.91,2.69,0,0-1.26,8.09-1.78,15.88s-1.39,11.1-.85,17.45l.54,6.36h.03Z"/>
      <path class="st2" d="M265.16,288.99s6.93,13.75,13.47,20.15c6.55,6.4,11.13,5.03,11.13,5.03l-.78,5.36-13.1,3.11-10.72-33.65Z"/>
      <path class="st2" d="M297.11,300.67s14.62.96,14.38,2.61c-.25,1.65-.64,4.27-.64,4.27,0,0-3.7-2.09-6.1-.82-2.4,1.27-5.96,2.41-5.96,2.41,0,0,1.88,0,.1-4.24l-1.78-4.24h0Z"/>
      <path class="st2" d="M326.03,309.14s-.09-.43-6.62,0c-6.53.43-8.54-3.33-8.54-3.33l.62,3.36,5.5,4.05,9.05-4.09h-.01Z"/>
      <path class="st2" d="M345.41,292.34s-7.12-9.03-2.18-11.75,7.87-2.38,11.74-2.72c3.87-.33,9.25,0,9.25,0,0,0-3.05.21-4.05,1.44s-3.41,1.45-3.41,1.45c0,0-.85-.74-3.05.85-2.2,1.59-4.72,3.88-4.96,5.4-.24,1.53-3.34,5.32-3.34,5.32h0Z"/>
      <path class="st2" d="M360.17,274.55s1.28-2.51,5.14-3.15,8.05,1.63,11.13,0,4.69-2.73,4.69-2.73h4.57c2.54,0,2.51-1.46,2.51-1.46l-13.83,12.11-6.8,1.17h-4.7s2.71.06,1.33-2.6c-1.38-2.67-4.05-3.32-4.05-3.32v-.02Z"/>
      <path class="st2" d="M391.51,275.2s-3.91,4.16-9.62,10.09c-5.71,5.92-8.71,10.52-12.88,9.89s-12.25-5.81-12.25-5.81c0,0,6.99,2.19,9.87.85s6.62-3.86,11.08-6.77,13.79-8.24,13.79-8.24h.01Z"/>
    </g>
    <g id="TRACCIATO">
      <path class="st7" d="M308.2,173.23s-2.82,4.08-6.75,13.81c-3.92,9.73-4.98,17.26-4.98,17.26-53.14-26.05-83.95-88.5-92.76-123.95,33.21-20.69,117.2-42.68,140.73-21.18,24.52,22.39,42.05,51.46,50.85,74.35,2.87,7.48-1.63,17.42-15.52,19.06-13.88,1.63-39.47-4.36-68.06,54.99,0,0-6.03-42.34,22.53-78.61,11.53-14.65,27.3-21.62,27.3-21.62"/>
      <path class="st7" d="M394.54,144.05c-1.17,5.96-2.5,12.17-10.22,19.22-6.46,5.91,2.02-2.64,1.38-11.38"/>
      <path class="st7" d="M270.17,230.34c-2.08,3.99-2.28,5.81-2,11.8-9.26-4.08-17.5-10.63-20.48-21.26"/>
      <path class="st7" d="M232.42,144.05c-.94,12.55,3.35,43.53,15.05,60.87,0,0,5.18,9.42,6.91,10.98"/>
      <path class="st7" d="M349.78,167.32c5.2-.21,9.85-.31,10.4,7.59"/>
      <path class="st7" d="M319.41,236.66c-2.11-2.01-6.06-5.68-5.78-12.48"/>
      <path class="st7" d="M316.99,313.23c3.51-1.63,21.32-8.5,23.39-11.3,3.34-4.53,8.64-19.28,14.8-20.96,2.5-.68,16.2.22,19.21-1.65"/>
      <path class="st7" d="M381.06,295.8c-1.74,6.33-6.1,15.31-10.81,16.61-6.39,1.77-22.9,2.71-22.9,2.71-5.08,3.27-20.97,15.02-20.97,15.02"/>
      <path class="st7" d="M370.24,296.86c18.51-10.34,21.78-23.14,21.78-23.14"/>
      <path class="st7" d="M385.91,284.23c-1.24,6.36-7.23,17.8-14.58,21.88"/>
      <path class="st6" d="M302.46,617.1c3.65,4.74,8.27,19.77,4.5,24.49"/>
      <path class="st6" d="M319.98,610.52c6.61,12.46,19.01,16.16,39.23,19.36"/>
      <path class="st7" d="M164.97,585.95c-1.45,3.84-7.63,10.89-17.64,13.23"/>
      <path class="st7" d="M178.38,598.95c-9.74,7.18-6.37,27.27-2.56,34.17"/>
      <path class="st7" d="M311.48,303.28c4.12,1.1,10.29,2.85,20.22,3.45"/>
      <path class="st7" d="M240.49,190.76c5.71-5.58,17.4-7.08,29.68-3.51"/>
      <path class="st7" d="M265.37,225.48s9.36,8.79,14.68,12.45c10.18,7.01,19.54,13.26,36.32.89,15.89-11.71,21.75-19.81,21.75-19.81,4.63,1.15,9.41-.58,9.53-2.45.36-5.73-.88-12.68,1.03-16.49,9.26-8.17,28.1-28.7,33.02-34.88"/>
      <path class="st7" d="M248.95,222.95s6.37-7.04,1.68-12.45"/>
      <path class="st7" d="M312.65,176.14s-10.78-5.47-7.17-13.31c3.61-7.84,11.5-4.26,11.5-4.26"/>
      <path class="st5" d="M346.15,180.73s-.92.81.28,2.27,2.32.37,2.32.37l-2.6-2.64h0Z"/>
      <path class="st7" d="M345.41,292.34c-.19-.51-3.11-7.36-2.18-11.75.83-3.92,1.59-5.41,3.17-5.69s7.09-.35,10.92-.35c12.47,0,5.83,5.83,1.98,5.93"/>
      <path class="st7" d="M352.21,274.55c3.06-2.17,6.04-9.3,11.36-11.59,2.15-.93,16.7,2.33,17.35,3.08.65.75-1.12,6.81-7.95,5.21-1.52-.36-5.81-1.01-7.67.15"/>
      <path class="st7" d="M367.59,262.85s2.57-2.54,4.89-2.54c3.1,0,13.81,3.86,15.19,4.33,1.89.64,1.56,2.69.58,4.04-.98,1.34-4.9,2.12-8.72,1.1"/>
      <path class="st7" d="M356.76,289.36s6.49,2.8,12.25,0"/>
      <path class="st7" d="M287.31,362.56c0-4.7.59-7.61.59-7.61"/>
      <path class="st7" d="M237.3,235.48c-4.25,5.48-26.03,25.63-26.03,48.68,0,25.41,18.48,56.17,20.93,81.69"/>
      <path class="st7" d="M269.1,232.6c2.78,3.29,6.12,4.48,6.77,9.18.65,4.69,1.87,9.42,4.17,10.98-1.27.91-2.77,1.64-4.17,1.62"/>
      <path class="st7" d="M280.95,366.81c-.52,8.64-1.42,16.06-2.33,27.22"/>
      <path class="st6" d="M210.53,589.79c14.61-21.37,48.15-47.34,50.31-53.83"/>
      <path class="st7" d="M226.51,388.6c-1.91,7.89-11.43,28.31,8.71,53.08,0,0,.54,43.28,0,49.82,0,0-.13,1.64-.76,1.33s-3.56-.95-4.86.04c-2.82,2.16-.16,9.22.47,10"/>
      <path class="st6" d="M326.03,580.26c-3.79-8.93-31.17-96.5-41.15-189.64"/>
      <path class="st6" d="M235.22,441.68c1.89,5.95,40.77,146.82,41.04,154.12"/>
      <path class="st6" d="M175.2,554.91c-5.28-2.77-5.94-4.05-7.38-2.07,0,0-.88,1.81-6.65,8.16-1.52,1.67-5.56,5.2-7.38,6.3-.66.4-.89,1.23-.53,1.91l3.17,5.98c2.86,4.3,16,23.52,43.69,35.07.38.16.82.06,1.1-.25l16.35-18.26c-.9-2.89-3.32-5.17-3.94-6.2"/>
      <path class="st7" d="M147.33,599.18c1.18,4.68,13.43,39.2,28.49,33.94,5.54,2.57,8.19,6.15,14.74,11.32,3.02,2.38,4.08,6.53,2.52,10.05-1.71,3.86-2.91,4.95-6.92,4.95s-23.78,0-34.89-11.34c-9.84-10.04-17.08-24.26-24.92-34.83-.39-.52-.42-1.21-.07-1.76,1.08-1.75,3.52-5.26,4.9-4.16,1.9-6.44,15.88-9.25,16.15-8.17Z"/>
      <path class="st7" d="M131.17,607.34c2.18,3.45,20.51,34.84,30.49,39.93,9.98,5.08,26.68,5.83,31.94,5.83"/>
      <path class="st6" d="M306.97,641.59c6.13,4.85,34.61,1.18,52.91-11.71,2.76-2.26,5.13-1.44,8.13-1.58,3.25-.15,12.11,1.55,16.23,4.5,2.65,1.89,3.05,8.04,1.35,9.47-17.43,14.61-65.32,21.69-77.03,22.28-.97.05-1.81-.67-1.96-1.63-.41-2.64.12-4.28-.67-5.64-.95-1.62-2.94-18.84,1.04-15.69h0Z"/>
      <path class="st6" d="M306.25,658.08c4.55-.12,76.27-8.56,77.33-25.71"/>
      <path class="st7" d="M360.12,289.49c14-9.66,34.33-25.13,38.07-27.6,2.79-1.84,3.08-.96,2.9,1.85-.18,2.82-5.26,6.98-9.07,9.98l-23.01,15.64"/>
      <path class="st6" d="M169.57,553.78s-.9,5.48,7.02,13.15c9.5,9.2,22.61,18.71,29.78,21.98,7.17,3.27,8.58,2.83,8.58,2.83"/>
      <path class="st6" d="M273.2,596.08s14.47,2.72,33.05-4.31c19.43-7.35,22.51-13.92,22.51-13.92"/>
      <path class="st6" d="M171.22,558.32s20.03-18.04,25.64-23.5,32.17-34.44,32.17-34.44"/>
      <path class="st7" d="M231.67,362.2s-3.6.55-4.15,3.81c-.54,3.27-1.21,17.07-1.02,22.59,14.7,8.44,36.57,15.9,58.37,2.02,0,0,2.05-.49,2.66-5,.88-6.5,1.84-18.76,1.86-22.56,0-1.03-.94-1.49-1.93-1.79v.71"/>
      <path class="st7" d="M230.3,364.91c5.93,4.83,25.32,16.3,57.01-1.85"/>
      <path class="st7" d="M309.91,344.73c-7.08,3.63-18.43,8.39-33.67,15.67-17.97,8.87-24.86-6.19-35.39-20.71-6.17-9.07-19.18-30-22.17-36.41"/>
      <path class="st7" d="M265.16,291.66s2.88,8.57,4.45,12.69,6.27,18.28,6.27,18.28"/>
      <path class="st7" d="M273.37,331.7s3.13-4,2.51-9.06c0,0,3.27-.06,7-1.09s12.22-4.29,12.22-4.29"/>
      <path class="st7" d="M249.8,218.83s-3.87.09-4.9,1.03c-1.03.93-.75,1.99-3.36,4.59-2.61,2.59-5.78,6.89-5.78,6.89,0,0,.91,6.12,7.58,13.59,7.55,8.46,18.92,13.44,19.2,11.79,2.52-14.85,7.63-13.22,7.63-13.22"/>
      <path class="st7" d="M298.78,309.14c1.03-8.46-6.01-13.16-14.55-33.28-3.42-8.05-7.8-18.44-9.57-23.82-3.26-9.9-6.5-9.9-6.5-9.9"/>
      <path class="st7" d="M294.86,295.69l14.76,3.8c1.33.34,2.19,1.63,1.99,2.99l-.75,5.07"/>
      <path class="st7" d="M288.98,319.53c-.02-.68-.71-3.86.78-5.36,1.49-1.49,14.61-8.02,18.66-7.39,6.99,1.09,20.95,25.92,19.51,33.36-2.08,4.82-12.98,9.12-16.24,10.57s-5.7-1.51-7.28-3.33"/>
      <path class="st7" d="M292.78,314.76c7.04,2.49,18.36,23.58,17.25,33.19"/>
      <path class="st6" d="M274.84,591.77s-4.07,2.04-4.53,3.27c-.46,1.24,4.71,19.1,5.94,22.06,1.06,2.56,20.1,2,35.27-3.22,14.31-4.93,23.14-11.52,26.15-14.17.89-.78,1.18-2.04.75-3.14l-7.49-20.37c-.25-.68-.93-1.1-1.65-1.02-1.15.13-2.97.35-4.79.59"/>
    </g>
  </g>
</svg>