<?xml version="1.0" encoding="UTF-8"?>
<svg id="Layer_1" xmlns="http://www.w3.org/2000/svg" version="1.1" viewBox="0 0 633 963.54">
  <!-- Generator: Adobe Illustrator 29.5.1, SVG Export Plug-In . SVG Version: 2.1.0 Build 141)  -->
  <defs>
    <style>
      .st0, .st1 {
        mix-blend-mode: multiply;
        opacity: .37;
      }

      .st2 {
        fill: #fbfcfc;
      }

      .st3, .st1 {
        isolation: isolate;
      }

      .st4, .st1 {
        fill: #d4d4d6;
      }

      .st5 {
        fill: #61615f;
      }

      .st6 {
        fill: #eae9ea;
      }

      .st7 {
        stroke-miterlimit: 10;
      }

      .st7, .st8 {
        fill: none;
        stroke: #61615f;
      }

      .st8 {
        stroke-linecap: round;
        stroke-linejoin: round;
        stroke-width: 1.2px;
      }
    </style>
  </defs>
  <g class="st3">
    <g id="corpo_colore_sfondo">
      <path class="st2" d="M293.1,155.01s-15.72,1.22-26.93,7.34-22.63,15.82-30.94,24.36c-8.3,8.55-20.16,33.92-23.38,45.05s-9.63,38.43-7.33,56.79c2.54,20.26,6.15,30.28,21.43,33.64,17.95,3.95,19.75,2.73,19.75,2.73,0,0,3.25,2.29,5.47,8.86s3.21,17.91,3.21,17.91c0,0,7.3-3.62,9.55-5.27s3.25-.78,6.13-6.57,3.92-14.8,3.92-14.8c0,0,4.55.12,20.06-3.45s20.53-4.93,25.4-7.04,18.02-9.41,18.02-9.41c0,0,39.65-20.84,42.98-57.99s-7-74.15-30-84.82-57.34-7.33-57.34-7.33h0Z"/>
      <path class="st2" d="M216.34,485.84s.61,14.84.35,23.3-1.87,18.14-1.87,18.14l-1.55,3.37s-6.11,6.69-11.31,10.69-11.58,8.15-17.77,10.35-11.41,3.05-11.41,3.05c0,0-2.02,1.28-.09,2.95s4.59,3.02,6.75,2.5,9.73-3.29,9.73-3.29c0,0-4.2,5.9-2.61,7.42s3.93,2.08,5.88,0,9.46-11.49,9.46-11.49l2.85-.77s-3.61,7.77-1.51,7.81,4.02.84,7.07-2.92,4.5-6.07,4.5-6.07c0,0,1.92-.39,4.96.05s4.53.62,7.52,2.52,6.3,4.53,9.72,4.74,7.29-1.37,7.03-2.77-6.35-5.19-9.32-10.8-3.91-10.81-3.91-10.81l4.63-12.37,4.97-14.9,1.54-17.96-25.63-2.74h.02Z"/>
      <path class="st2" d="M365.18,498.52l15.24-16.81s10.12,16.98,14.13,24.16,10.74,14.08,17.03,18.08,26.13,15.31,30.46,17.58,5.93,2.44,5.75,3.9-.05,3.61-3.8,3.38-12.23-3.16-12.23-3.16l2.44,7.39s-.49,1.43-3.22.14-7.24-6.72-7.24-6.72c0,0-2.04,2.87-4.12,2.09s-10.71-8.39-10.71-8.39c0,0-3.48-.49-4.73.79s-7.14,7.83-8.75,8.41-3.29,1.62-4.28.25-.44-7.21-.44-7.21l.21-9.9s-1.35-5.24-5.74-10.98c-4.4-5.74-18.18-20.62-18.18-20.62l-1.84-2.36.02-.02Z"/>
      <path class="st2" d="M282.44,747.55c.67.35,2.32,7.2,1.17,11.46s-5.15,11.78-10.89,16.29-14.09,10.51-15.18,11-7.43,5.01-7.43,5.01c0,0,9,.51,20.81-1.15s26.75-3.8,32.18-6.3,10.1-6.91,10.1-6.91l-1.93-3.51s-2.96-3.29-3.56-10.19-1.08-17.35-1.08-17.35l-24.18,1.65h-.01Z"/>
      <path class="st2" d="M385.11,750.57s18.22-5.33,21.33-9.11l3.11-3.78,5.01,13.97s2.11,1.39,2.9,2.03,2.08,3.64,3.2,6.31,7.24,15.43,9.51,19.23,12.05,20.54,13.24,24.08,3.38,7.56,1.28,11.53-3.12,7.1-7.4,8.58-5.72,2.54-9.11,1.34-6.39-3.74-6.39-3.74l-4.05-12.04s-10.18-27.3-10.64-29.41-14.24-20.1-14.24-20.1l-7.77-8.9h.02Z"/>
      <path class="st2" d="M239.69,469.75l1.2-2.85,14.57,1.99,16.3,2.23,1.36,1.56,13.19-2.28s16.09-5.88,19.01-7.51,5.73-4,5.73-4v-2.99l.25-3.33s3.57.59,4.56,1.83,2.53,7.22,3.17,9.89,2.36,8.27,3.66,9.57,2.98,2.49,2.89,3.15-.64,3.95-.64,3.95l-1.86,2.52-2.48-1.99s-9.56,6.36-12.35,7.58-14.39,4.82-18.56,5.41-5.97.82-5.97.82v1.48l-33.45-4.22-10.57-22.82h-.01Z"/>
    </g>
    <g id="scarpe">
      <path class="st4" d="M252.73,788.86s-2.72,2.09-2.62,2.44,8.99.07,8.99.07c0,0,21.57-2.28,27.94-3.65s17.1-3.73,19.59-5.25,6.57-6.57,6.57-6.57c0,0,4.11,6.41,5.23,10.39s1.93,4.88,1.78,8.39,0,11.44,0,11.44c0,0-23.22,4.39-30.92,5.27s-30.03,3.21-37.32,3.29-21.75-1.25-21.75-1.25c0,0-1.3-4.26-.22-7.94s1.79-6.74,5.87-9.18,16.86-7.46,16.86-7.46h0Z"/>
      <path class="st4" d="M422.51,821.56s.1,4.38,6.68,3.49,17.36-1.78,15.76-16.08c-.7-6.25-8.62-19.29-8.62-19.29l-8.14-14.11-3.69-7.2,17.31,10.49s11.83,17.18,15.46,26.65,8.05,21.2,5.16,26.82-5.57,8.66-8.65,9.82-10.85,1.34-10.85,1.34c0,0-4.98,1.84-9.69-2.23s-7.31-7.37-8.71-11.19-2.03-8.5-2.03-8.5h.01Z"/>
    </g>
    <g id="pantalone">
      <path class="st6" d="M251.35,492.71l19.96,2.52c.48.06,11.74,1.56,11.74,1.56l.65-1.48s12.54-1.46,17.5-3.37,19.72-10.62,19.72-10.62c0,0,10.83,10.73,14.61,16.75s6.66,10.49,9.55,19.31,11.24,46.63,15.99,63.05,14.93,42.78,14.93,42.78c0,0,25.53,62.2,25.76,62.7s7.81,17.29,7.81,17.29c0,0,4.3-1.39,6.45.98s11.04,17.98,11.53,19.47,1.76,4.63-1.37,9.32-8.52,10.86-13.36,14.59-15.27,9.76-23.38,11.48-18.27,3.06-20.45,1.18-6.89-9.13-8.51-12.66-5.92-10.69-4.46-12.97,4.79-4.85,4.79-4.85l-18.43-40.9-30.18-72.88,5.63,102.01s5.36-1.56,6.37,2.21,2.64,14.94,2.75,17.38.41,6.45-1.31,7.64-13.36,8.7-24.81,9.63-40.47-1.76-43.21-3.81-3.69-2.95-4.49-9.3-2.67-15.91-1.09-17.29c1.58-1.38,6.55-4.13,6.55-4.13,0,0,3.2-72.04,2.63-105.86s-1.98-67.4-2.7-76-2.01-21.32-3.77-29.82-3.4-15.93-3.4-15.93v.02Z"/>
    </g>
    <g id="camicia_-_capelli">
      <path class="st4" d="M254.38,351.7s.04-7.36-.74-10.28-1.21-3.68-1.21-3.68c0,0-11.89,6.94-13.7,8.74s-3.44,3.32-5.16,6.2-9.68,17.8-13.52,25.24-9.4,19.26-9.38,24.34.15,10.83,1.9,14.79,3.79,7.25,3.79,7.25c0,0,.19,9.94.02,18.48s-3.81,38.52-3.81,38.52c0,0-5.84.22-6.83,2.45s-1.17,18.02-1.17,18.02l3.4,2.42s8.34,3.18,13.2,4.12,18.84,1.41,22.49.78,5.42-2.16,5.42-2.16l2.32-13.05-3.11-4.11s-8.02-17.87-8.3-19.07.9-3.82.9-3.82l4.81.67s21.89,2.88,23.04,3.06,3.03-.84,3.71.61l.68,1.45s16.56-2.52,22.45-5.11c5.89-2.59,15.5-8.25,16.01-9.19s-1.08-7.22-.29-11.36,2.07-7.69,2.07-7.69c0,0,14.38,17.47,15.38,19.05s16.89,26.69,16.89,26.69c0,0-2.69,5.74-3.12,7.83s-1.23,2.3.65,4.37,8.01,8.87,10.27,10.97,4.62,5.53,6.62,5.19,11.14-7.12,13.61-10.02,12.08-15.38,13.29-18.55,2.72-7.68,1.63-9.86-6.43-14.51-8.61-18.04c-1.77-2.87-2.76-4.51-4.47-3.31s-5.47,4.72-5.47,4.72c0,0-28.43-54.57-33.66-64.48s-22.57-44.14-27.3-48.6-11.84-8.12-15.99-7.46-4.4-.09-4.4-.09c0,0-9.73-11.5-10.45-12.65s-4.37-.82-4.37-.82c0,0,.81,2.68-.16,6.26s-3.91,9.4-5.44,11.76-2.81,3.15-2.81,3.15c0,0-4,2.13-6.63,3.49s-4.45,2.77-4.45,2.77h0Z"/>
      <path class="st4" d="M286.95,149.26s-18.39,2.64-29.46,8.78-19.31,9.83-21.4,12.36-6.03,10.05-6.55,11.55-1.84,15.21-1.84,15.21c0,0,9.48-14.32,18.01-21.53s7.07-6.5,14.55-10.37,18.95-7.2,18.95-7.2l7.74-8.81h0Z"/>
      <path class="st4" d="M216.65,218.7s-7.34,6.13-14.67,8.66-15.87,4.41-15.87,4.41c0,0,2,5.05,5.39,8.41s7.54,6.67,10.48,8.03,5,2.19,5,2.19c0,0,2.72-12.12,4.88-18.63s4.79-13.07,4.79-13.07Z"/>
      <path class="st4" d="M288.7,148.13l-9.49,9.94s-.48,1.97,0,3.9,3.21,8.29,5.72,13.08,6.33,11.95,7.03,18.15,1.58,14.2.14,22.69c-1.44,8.49-1.84,12-4.33,15.88s-4.36,6.15-4.36,6.15l11.74-11.23s-3.07,9.29-8.21,17.01-12.55,17.77-17.85,24.84-8.84,10.49-8.84,10.49c0,0,10.29-2.91,18.95-7.24s24.36-13.59,28.59-17.76,11.64-12.27,11.64-12.27l-11.64,18.94s4.54,2.89,2.74,6.19-3.24,6.1-8.68,6.86-7.58,1.19-7.58,1.19c0,0-8.7,7.86-13.54,11.44s-12.47,7.17-12.47,7.17c0,0,17.08,5.21,21.82,6.41s13.88,3.44,13.88,3.44c0,0,3.97,5.6,5.48,8.06s4.04,5.36,4.04,5.36l23.97-11.43s23.98-1.82,33.79-3.93,32.29-8.14,43.04-12.89,17.5-8.87,17.5-8.87c0,0-5.07-40.77-11.83-59.15s-17.53-43.64-31.86-58-33-19.86-42.08-20.78-29.94-1.6-37.7,0-19.64,6.36-19.64,6.36h.03Z"/>
    </g>
    <g id="ombre">
      <path class="st1" d="M194.4,241.32s8.19-1.97,12.78-6.88,5.9-8.19,5.9-8.19c0,0-3.28,13.43-4.59,17.69s-1.97,6.22-1.97,6.22c0,0-2.62-.33-5.9-2.62s-6.22-6.22-6.22-6.22Z"/>
      <path class="st1" d="M227.16,196.44s8.19-11.79,14.74-18.35,15.73-12.78,20.31-14.09,16.38-5.24,16.38-5.24l1.97-2.95s-6.55-.33-16.38,3.6-14.09,5.24-21.57,11.43c-4.47,3.69-14.24,18.81-14.24,18.81l-1.21,6.78h0Z"/>
      <g class="st0">
        <path class="st4" d="M461.07,814.63c-1.64-8.19-15.71-31.12-15.71-31.12,0,0-10.5-9.83-14.43-11.47-3.93-1.64-5.57-2.29-5.57-2.29,0,0-.98-2.62-2.29-5.57s-3.28-6.22-6.55-9.17c-3.28-2.95-4.59-6.88-4.59-6.88,0,0,4.26-3.93,10.81-10.81s5.9-11.47,5.9-11.47l-12.78-21.62h-5.57s-17.04-36.36-22.6-51.43c-5.57-15.07-24.9-63.88-27.52-74.37s-14.41-62.25-16.38-67.16c-1.97-4.91-19.66-28.17-19.66-28.17l.66-1.31c.66-1.31-2.62-9.83-3.6-12.45s-2.95-12.12-3.93-14.09c-.98-1.97-5.9-2.29-5.9-2.29l1.31-14.74-15.73-20.31s-4.26-18.67-3.84-24.24c.42-5.57,2.86-9.83,8.76-9.5,5.9.33,20.97,23.59,33.09,43.57s28.06,51.39,28.06,51.39l-9.44,9.44s7.09,2.15,11.68,7.06,5.57,10.48,5.57,10.48l5.84-5.84s8.57,8.14,12.83,12.72c4.26,4.59,16.71,17.04,22.28,19.98,5.57,2.95,29.6,15.52,32.22,15.84,2.62.33,3.81-4.03,3.81-4.03,0,0-9.5-5.59-13.75-7.88-4.26-2.29-20.97-12.12-24.57-14.09-3.6-1.97-4.91-5.24-6.88-6.88s-17.38-26.14-17.38-26.14c0,0,1.99-5.52,2.97-8.47.98-2.95-.09-7.95-1.4-10.24s-5.73-15.18-10.29-16.77c-1.12-.39-6.1,5.11-6.1,5.11,0,0-22.67-41.85-29.88-58.23s-30.47-52.74-34.4-57.66c-3.93-4.91-16.05-5.24-16.05-5.24l-1.97-1.97-13.1-11.79h3.93s30.14-6.88,41.93-11.47,15.4-6.55,15.4-6.55c0,0,20.97-1.97,36.04-3.93,15.07-1.97,58.97-21.95,58.97-21.95,0,0-4.91-39.64-11.79-64.54s-28.83-49.8-28.83-49.8c0,0-8.52-7.86-12.78-9.17s-30.47-1.64-45.86,1.64c-15.4,3.28-33.09,15.4-33.09,15.4,0,0,.98,6.88.33,19.66-.66,12.78-5.22,32.43-5.22,32.43l-9.85,11.96s2.95-5.41,7.53-18.51-1.97-33.74-4.91-41.28c-2.95-7.53-8.19-19.66-8.19-19.66l-4.03,1.33-.23,4.57c-.23,4.57,5.24,12.78,11.14,24.24,5.9,11.47.43,13.99-2.84,21.52-3.28,7.53-5.72,18.39-5.72,18.39,0,0,2.29,9.4-2.75,20.7-2.37,5.3-13.26,29.16-13.26,29.16,0,0-11.79,19.98-22.6,31.12-10.81,11.14-17.69,9.83-17.69,9.83,0,0,6.55,1.97,18.02,4.91,11.47,2.95,20.64,1.31,20.64,1.31,0,0,4.59,2.62,6.55,9.17s-6.55,13.43-6.55,13.43l4.91-2.95,6.88-6.22s1.97.66,5.24,6.55,1.97,9.5,1.97,9.5l-4.59,6.22s1.97,5.57,3.28,17.69-1.64,28.5-1.64,28.5c0,0-1.31,5.57-5.9,13.76s-14.41,10.81-14.41,10.81l17.69,38.99-19.98-2.95s11.14,11.47,15.4,16.71c4.26,5.24,5.57,9.5,5.57,9.5,0,0,12.45,11.14,23.59,29.16,11.14,18.02,52.09,106.8,52.09,106.8l41.28,97.63s-5.24,3.28-16.71,6.88c-5.72,1.8-8.92,1.48-10.68.7,1.49,1,3.91,2.1,7.73,2.58,7.86.98,13.76-2.29,22.93,1.64s12.12,12.45,12.12,12.45c0,0,11.47,20.97,17.69,31.12,6.22,10.16,18.02,31.45,18.02,31.45,0,0,1.64,6.55,4.91,14.74,3.28,8.19,8.85,11.47,8.85,11.47,0,0,1.97-1.31,5.57-6.22s1.64-12.12,0-20.31h-.03Z"/>
        <path class="st4" d="M361.15,733.71s.33,1.23,2.1,2.01c-1.57-1.06-2.1-2.01-2.1-2.01Z"/>
      </g>
      <path class="st1" d="M223.56,434.28s4.26,13.43,4.26,26.86-2.13,27.19-2.13,27.19l6.06,2.62s-.98,3-1.97,7.73-2.13,9.96-2.13,9.96h4.1s-.98,7.53-2.62,12.45-7.69,18.21-3.27,22.14,10.15,8.98,11.13,11.6-2.25,2.87-2.25,2.87c0,0,6.18,1.02,7.81-.62s1.07-3.38,1.07-3.38l-8.41-8.27-4.01-12,2.37-6.13,5.04-18.02s8.24-.76,9.88-2.07.93-5.46.93-5.46l1.97-7.86-11.79-26.21,2.95-2.95-15.07-27.19-3.93-3.28v.02Z"/>
      <path class="st1" d="M207.59,550.74s1.97,1.64,0,4.26-3.93,4.91-3.93,4.91c0,0,2.4,1.13,4.8-2.22s5.02-6.95,5.02-6.95h-5.9,0Z"/>
      <path class="st1" d="M185.88,565.65s3.28,2.62,6.88,0,8.98-12.73,8.98-12.73l-7.53,2.38s-.13,2.67-2.43,6.02-5.9,4.33-5.9,4.33h0Z"/>
      <path class="st1" d="M282.53,549.27s8.69,58.31,10.57,81.9,1.88,62.57-2.38,77.97-13.1,21.29-13.1,21.29c0,0,13.52-.33,16.42,1.31s2.91,4.91,3.89,9.17.66,11.47,0,13.1,2.62,1.64,2.62,1.64c0,0,.98,17.04-1.97,21.95s-9.42,7.86-9.42,7.86c0,0-28.25,9.17-35.46,12.12s-17.36,7.86-20.31,10.48-3.28,5.9-3.28,5.9c0,0,38.29-.74,48.81-1.64,34.27-2.93,41.28-7.78,41.28-7.78v-9.86s-.33-.32,0-2.62-.33-6.28-3.6-10.21-5.24-6.88-5.24-6.88c0,0-5.57-18.67-4.91-19.98s10.16-4.26,15.4-7.86,5.24-5.57,5.24-5.57c0,0-.33-19-2.29-20.97s-5.9-2.29-5.9-2.29l-5.9-99.92-30.47-69.12h0Z"/>
      <path class="st4" d="M221.71,250.93s.93,1.26-2.17-1.43c-2.4-2.08-.73-6.9-.73-6.9,0,0-3.78,5.77-1.8,7.79s5.64,1.8,5.64,1.8l-.93-1.26h-.01Z"/>
      <path class="st4" d="M210.68,269.13s1.13,4.41,6.57,5.04,10.45-.53,10.45-.53c0,0-3.1,4.36-3.87,6.97s-1.19,4.2-1.19,4.2c0,0-4.2-.76-6.34,2.15s-3.1,3.95-3.1,3.95l-2.52-21.79h0Z"/>
      <path class="st4" d="M172.62,556.64s8.9,1.19,19.43-3.72,15.74-6.35,19.97-6.08,12.32,4.68,12.32,4.68c0,0-3.06-1-9.35-.64s-9.47.93-13.23,2.04-12.31,3.82-15.86,5.25-6.7,2.39-8.77,2.18-3.78-1.04-4.5-2.33,0-1.38,0-1.38h0Z"/>
    </g>
    <g id="BODY">
      <path class="st8" d="M295.16,226.68c-3.18,5.16-11.74,11.23-11.74,11.23,0,0,2.02-1.83,5.28-7.78s5.34-25.56,3.26-36.94-6.5-15.71-11.74-27.74c-2.04-4.67.56-7.74-1.01-7.39-53.25,12.05-68.42,77.58-69.92,82.46-1.58,5.17-4.75,20.33-5.08,32.58-.18,6.76.2,20.2,1.67,27.58,3.9,19.65,19.01,24.91,52.57,24.36s55.05-8.25,55.05-8.25"/>
      <path class="st8" d="M294.28,274.93c-1.33,1.67-4.25,3.88-10.02,8.78s-15.99,9.83-15.99,9.83l14.22,4.47c4.33,1.17,15.47,3.85,19.97,5.18,3,2.5,11.83,13.5,8.83,14.33"/>
      <path class="st8" d="M307.79,260.7c2.5-3,10.64-16.27,11.64-18.94-9.17,10.55-16.39,17.18-22.64,20.77-24.72,14.19-36.53,16.5-36.53,16.5l13.2-15.66c3.5-4.83,8.83-11.83,11.17-15.5,2.33-3.67,7.66-15,9.41-18.83"/>
      <path class="st8" d="M238.14,183.13c2.26,1.38,6.41,2.9,5.41,10.4"/>
      <path class="st8" d="M270.06,215.15c1.67-2.33,6.4-6.45,9.73-6.45s9.29,0,8.33,10"/>
      <path class="st5" d="M230.53,206.12c-.43,1.55-1.56,2.59-2.52,2.33-.96-.27-1.39-1.74-.96-3.29.43-1.55,1.56-2.59,2.52-2.33.96.27,1.39,1.74.96,3.29Z"/>
      <path class="st5" d="M273.69,232.98c-.82,1.39-2.4,1.97-3.53,1.3s-1.39-2.33-.57-3.72,2.4-1.97,3.53-1.3,1.39,2.34.57,3.72Z"/>
      <path class="st8" d="M225.96,246.57c0-2.9-2.39-6.45-6.5-4.36-5.68,2.88-2.98,12.99,3.18,9.99"/>
      <path class="st8" d="M217.85,215.89c-6.97,6.96-15.13,13.14-31.75,15.88,4.9,10.44,12.3,15.4,20.87,18.63"/>
      <path class="st8" d="M226.44,198.53c1.25-9.43.47-21.62,14.97-31.17,20.78-13.69,33.07-16.25,45.54-18.1,19.27-13.58,66.56-9.11,80.61-2.03,54.96,27.71,63.24,123.13,64.24,132.46-7,4.67-21.3,12.68-39.74,16.98-13.47,3.13-44.26,12.69-89.59,6.52"/>
      <path class="st8" d="M421.18,542.15c1.36,2.69,4.45,7.56,6.34,9.2s7.17,3.41,6.65,1.33c-.52-2.08-1.36-3.85-2.41-7.04"/>
      <path class="st8" d="M423.75,546.45c-1.9,2.56-3.92,3.06-8.14.12,0,0-5.02-4.12-7.12-6.99"/>
      <path class="st8" d="M216.73,507.71s-.24,7.38-.88,13.33-1.06,6.91-2.57,9.61-14.08,12.8-14.08,12.8c-5,3.5-10,6.5-15,8.25-6.75,2.75-8.66,2.8-11.41,3.05s1.16,4.7-.09,2.95c-.37-.51,2.25,3.48,6.75,2.5,4.56-.99,5.63-1.83,9.25-3.12.95-.34,2.07-.71,3.47-1.12,6.78-2,12.78-4.75,20.28-5s10.96-.25,14.86,2.5c3.89,2.75,11.39,6.75,14.89,4.25s1.5-4.5-1.5-6.75-10.25-9.5-9.5-17.5l8.05-23.75"/>
      <path class="st8" d="M189.19,556.9c-1.23,2.54-3.54,5.54-2.61,7.42,1.32,2.66,4.25,2,7-1.12s6.43-7.36,8.34-10.37"/>
      <path class="st8" d="M214.83,550.87c-1.88,3.05-2.5,4.07-4.5,6.07s-4,3.41-7.07,2.92c-1.77-.28-.94-3.83,1.51-7.81"/>
      <path class="st8" d="M283.54,755.81c.1,3.58,1.47,8.86-12.65,21.14,0,0-14.99,11.21-18.15,11.92"/>
      <path class="st8" d="M311.29,317.53s12.83-3.8,26.17-12.15"/>
      <path class="st8" d="M294.04,229.03c1.67-2.71,10.3-25.33,9.92-37.21"/>
      <path class="st8" d="M273.87,324.28c1.52,7.61-4.41,17.67-8.41,21.17,0,0-1.38,1.13-5.2,2.79s-6.62,4.45-6.62,4.45"/>
      <path class="st8" d="M424.5,768.37c1.02,1.2,2.8,6.11,4.3,8.58,6.86,11.29,15.09,25.51,15.81,29.88s2.09,10.11-6.49,16.07c-5.96,4.14-13.93,1.53-15.61-1.34s-11.53-32.67-14.37-39.84-16.25-23.48-16.25-23.48c0,0,4.32-1.32,11.43-4.82,4.85-2.39,9.51-5.87,9.51-5.87,0,0,.46,2.03,1.73,4.09,0,0,3.74,3.87,5.55,6.28,3.01,4.02,4.39,10.44,4.39,10.44h0Z"/>
      <path class="st8" d="M245.71,324.93s1.62-.14,4.96,7.63,3.72,12.21,3.72,15.67,0,2.33,0,2.33"/>
      <path class="st8" d="M210.68,269.13s1.79,21.77,2.9,24.88,5.61,4.13,6.92-.48c1.17-4.14,2.09-9.23,3.33-12.91,1.09-3.23,3.87-6.97,3.87-6.97,0,0-5.06,2.31-10.45.53-3.17-1.04-6.57-5.04-6.57-5.04h0Z"/>
      <path class="st8" d="M213.19,292.38s.96-3.75,4.03-5.96,5.41-1.6,5.41-1.6"/>
      <path class="st8" d="M288.7,274.22s8.55.95,13.16-.48c16.43-5.09,4.61-14.5,4.61-14.5"/>
      <path class="st8" d="M279.21,158.07s6.85-7.92,7.74-8.81"/>
      <path class="st8" d="M371.38,506.95s19.14,16.24,20.03,28.13l-1.23,13.15s.54,2.38,3.66,1.7,5.31-3.7,7.67-6.36,3.83-5.03,12.85-3.21c8.83,1.78,19.37,6.47,24.68,7.94s8.31-.24,8.58-1.43.17-2.35.17-2.35c0,0-36.36-18.58-43.56-26.33-12.08-13-19.01-28.4-19.01-28.4"/>
    </g>
    <g id="orologio">
      <path class="st4" d="M382.26,519.92s8.15-3.52,9.51-4.55,1.98-1.58,1.98-1.58l4.96,6.49s-.46,1.07-3.88,2.4-8.34,2.74-8.34,2.74l-4.23-5.51h0Z"/>
      <path class="st4" d="M398.21,508.25s-2.31,3.25-2.89,3.9-1.56,1.64-1.56,1.64l4.96,6.49s1.11-.85,1.86-1.98,2.38-4.52,2.38-4.52l-4.74-5.54h0Z"/>
    </g>
    <g id="DRESS">
      <path class="st8" d="M252.51,337.38c-4.89,2.94-7.21,8.59-9.43,12.56-3.21,5.74-7,9.46-7,9.46,0,0,7.89-6.18,11.69-11.69,3.63-5.27,6.59-1,6.58,1.52"/>
      <path class="st8" d="M277.52,323.94c2.35,3.82,5.31,8.14,10.44,12.63,2.62,2.29.99,1.93-3.61,2.3-1.38,3.69.91,5.5-5.84,17.11-3.31,5.69-8.87,11.17-8.8,10.62,1.04-8.14,1.52-21.55-5.08-20.59"/>
      <path class="st8" d="M349.65,491.6c-2.75-4.31-29.19-49.67-65.94-86.65"/>
      <path class="st8" d="M288.95,338.5c4.26.19,14.89-6.57,32.64,27.32,2.79,5.33,29.88,56.62,33.5,63.5s17.73,34.23,17.29,36.47"/>
      <path class="st8" d="M273.71,411.7c-1.38,4.75-4.12,15.38-18.25,20.38"/>
      <path class="st8" d="M216.36,424.32c-.03,5.25.15,13,0,19.63-.15,6.62-.28,9.25-.78,15.88s-1.25,13.38-2,19-2.41,6.12,1.42,7.62,5.2,2.12,10.33,2.75,12.5,1.5,17.5,1.38,5.63-.27,5.63-1.52"/>
      <path class="st8" d="M253.64,352.69c-2.55,3.37-28.95,40.62-23.32,65.89,2.57,11.54,19.94,37.32,23.23,49.87"/>
      <path class="st8" d="M311.29,452.57c2.37.6,5.26.88,6.26,4.88s1.14,6.69,2.78,11.25c1.38,3.84,2.38,5.62,3.75,6.75,2.91,2.38.84,5.99-.25,7.12"/>
      <path class="st8" d="M251.35,492.71c1.7,7.86,4.97,21.01,6.39,36.49,3.48,37.66,4.92,96.26,1.75,184.93-.21,5.75.2,6.33-1.04,11.39"/>
      <path class="st8" d="M258.6,720.31c-1.34,1.04-7.17,2.97-7.1,5.56.09,3.57.72,9.07,1.47,14.07s-1.2,10.03,8.29,12.34c41.98,10.19,60.96-5.09,63.46-6.34s2.5-5.51,2.25-8.38-1.75-9.87-1.75-12.12.62-7.44-6.57-7.47"/>
      <path class="st8" d="M360.83,729.74c-2.91,2.01-7.04,4.29-4.04,10.63s4.83,9.17,7.33,13,2.17,7.33,8.67,7.67c6.5.33,11.33-.5,16.67-2s18-7.17,21.17-9.67,10.33-8.7,13.33-12.85,5.17-8.98,3.83-12.32-5.5-11.33-7.17-13.5-2.75-6.68-6.83-7.5c-2.5-.5-3.29-.22-3.29-.22"/>
      <path class="st8" d="M391.28,727.68c-2.32-4.49-14.15-30.32-16.49-35.82-2.33-5.5-19.67-41.83-21.33-45.67"/>
      <path class="st8" d="M313.19,775.91s6.41,10.96,7.01,16.17,0,12.47,0,12.47c0,2.63-19.14,7.03-68.24,10.14-6.74.43-15.5-.25-21.75-1.25-.5-3.75-1.25-9.25,2.25-14s14.98-9.21,21.1-10.88c0,0-4.19,2.33-3.36,3.1s24.3-1.54,34.65-3.55,18.89-3.93,22.44-5.99c5.9-3.43,5.9-6.21,5.9-6.21h0Z"/>
      <path class="st8" d="M229.82,807.01c11.01,3.95,66.46.56,90.38-12.32"/>
      <path class="st8" d="M212.58,481.32s-2.85.67-4.65,1.25-3.49,1.65-3.13,4.52-.37,9.83-.19,11.55-.03,3.15-.03,3.15c0,0,1.58,2.79,11.63,5.16,7.57,1.78,18.54,2.94,29.24,2.03,2.09-.18,3.89-1.51,4.24-3.57l1.66-9.6"/>
      <path class="st8" d="M426.49,769.94l15.32,8.92s14.69,20.22,19.58,37.79c3.43,12.33,3.34,16.04-2.6,22.01-1.23,1.24-2.66,2.07-3.81,2.81-2.1,1.36-4.52,2.12-7.01,2.25-3.74.19-9.5.18-12.72-1.38-3.89-1.89-7.18-4.28-10.24-11.16s-3.21-11.23-3.21-11.23"/>
      <path class="st8" d="M435.73,775.32s22.54,33.65,22.54,49.95c0,14.02-16.68,18.59-18.81,18.19"/>
      <path class="st8" d="M312.22,617.46s2.79,42.66,3.11,53.11c.26,8.44,2.84,51.79,2.84,51.79"/>
      <path class="st8" d="M412.35,707.95c-2.25-3.75-14.14-29.38-16.76-36.01s-24.92-61.16-29.44-74.71c-5.71-17.12-10.45-37.85-12.15-45.56-3.49-15.86-5.78-29.17-13.79-45.86-5.11-10.64-16.32-21.38-19.27-24.5"/>
      <path class="st8" d="M265.78,527.8s6.44,2.37,10,8.01,40.31,88.88,40.31,88.88c1.38,3.5,6.25,14.88,8,19.12s11,26.75,13.12,32,11,27.75,13.25,33,11.25,22.28,13,26.4"/>
      <path class="st8" d="M252.44,337.75s-11.52,5.49-16.66,11.71c-3.54,4.28-15.44,27.33-19.39,36.22s-12.71,26,4.79,44.89c0,0,5.5,6.67,8.05,10s14.2,26.33,14.2,26.33"/>
      <path class="st8" d="M311.58,458.38s-.99-6.03-.29-11.36,2.07-7.69,2.07-7.69"/>
      <path class="st8" d="M240.89,466.89h0s14.87,2.12,19.32,2.56,12.23,1.78,12.23,1.78l11.27,24.07v1.48l-33.45-4.22-10.27-21.85c-.62-1.33-.25-2.91.9-3.82h0Z"/>
      <path class="st8" d="M313.37,455.9s-4.26,6.33-16.03,10.99c-11.77,4.66-21.32,5.34-24.21,5.79"/>
      <path class="st8" d="M283.71,495.31c.96-.52,11.4-.64,21.18-4.72s17.26-10.2,17.26-10.2"/>
      <path class="st8" d="M255.76,725.68s14.47,7.87,35.27,5.76,30.74-10.08,30.74-10.08"/>
      <path class="st8" d="M359.45,735.22s12.92,4.15,31.83-7.54,22.83-20.91,22.83-20.91"/>
      <path class="st8" d="M306.7,753.68s-.43,2.62.8,8.62,2.68,9.6,3.76,11.14,1.93,2.47,1.93,2.47"/>
      <path class="st8" d="M346,486.13s-2.36,3.18-3.08,5.46-1.28,3.51.16,5.19,11.52,12.62,14.96,15.61c2.52,2.19,6.37.12,10.43-3.57,7.73-7.01,15.95-18.79,18.71-24.1,2.52-4.86,1.63-9.86,1.63-9.86,0,0-5.94-11.72-8.28-17.3s-5.28-3.93-6.71-2.67-3.93,4.73-3.93,4.73"/>
      <path class="st8" d="M345.03,492.71s3.15,2.31,13.88-9.05,14.51-17.66,16.4-21.44,1.26-4.77,1.26-4.77"/>
      <path class="st7" d="M382.68,521.05c-.42-.55-.19-1.35.46-1.58,2.27-.81,6.94-2.65,9.65-4.83.34-.27.66-.56.97-.84,1.78-1.66,2.95-3.41,3.6-4.55.33-.57,1.13-.62,1.52-.09l3.33,4.44c.25.33.33.76.21,1.15-.39,1.28-1.6,4.2-4.83,6.41s-8.59,3.62-10.66,4.08c-.54.12-1.09-.08-1.42-.52l-2.82-3.68h0Z"/>
      <line class="st7" x1="393.75" y1="513.8" x2="398.71" y2="520.29"/>
    </g>
  </g>
</svg>