<?xml version="1.0" encoding="UTF-8"?>
<svg xmlns="http://www.w3.org/2000/svg" version="1.1" viewBox="0 0 586 941.55">
  <!-- Generator: Adobe Illustrator 29.5.1, SVG Export Plug-In . SVG Version: 2.1.0 Build 141)  -->
  <defs>
    <style>
      .st0 {
        fill: #fbfcfc;
      }

      .st1, .st2 {
        isolation: isolate;
      }

      .st3, .st2 {
        fill: #d4d4d6;
      }

      .st4 {
        fill: #eae9ea;
      }

      .st2 {
        mix-blend-mode: multiply;
        opacity: .37;
      }

      .st5 {
        fill: #61615f;
      }

      .st5, .st6, .st7 {
        stroke: #61615f;
        stroke-linecap: round;
        stroke-linejoin: round;
      }

      .st5, .st7 {
        stroke-width: 1.2px;
      }

      .st6 {
        stroke-width: 1.37px;
      }

      .st6, .st7 {
        fill: none;
      }
    </style>
  </defs>
  <g class="st1">
    <g id="Layer_1">
      <g id="corpo_colore_sfondo">
        <path class="st0" d="M231.62,153.81c-14.5,17.64-32.1,66.43-31.91,74.61.18,8.18,3.27,16.96,3.27,16.96,0,0-3.59,8.34-3.18,10.34s6.84,9.59,9.66,9.96l2.82.37,12.75,16.57s17.87,29.23,25.18,34.78,12.23,8.11,12.23,8.11c0,0,3.93,5.48,2.4,11.04s-1.31,7.72-3.97,7.48c-2.66-.23-7.13.02-7.13.02,0,0,2.48,19.98,12.63,24.8,10.15,4.82,21.36,6.53,26.07,2.46s9.74-20.35,9.74-20.35l-11.72-6.09s-6.76-6.12-6.37-12c.4-5.88,2.92-8.58,2.92-8.58,0,0,7-2.55,13.6-8.69s18.15-23.2,23.98-29,11.78-16.92,11.78-16.92c0,0,7.22.28,9.58-2.38s5.75-8.42,3.58-11.58c-3.12-4.56-3.52-4.81-3.52-4.81,0,0-8.15-50.53-20.37-78.57s-35.28-52.91-54.72-46.12c-19.44,6.78-39.31,27.58-39.31,27.58h0Z"/>
        <path class="st0" d="M181.63,448.72s9.4-9.37,16.79-10.83c7.39-1.46,11.04-.71,11.04-.71l2,7.63s7.84,10.81,10.67,12.78c2.83,1.97,6.48,3.35,8.89,4.2,2.41.85,5.54,2.22,5.54,2.22l-.85,8.95-4.09,2.19s2.53,12.01,2.7,15.83-.36,9.84-.36,9.84c0,0-7.56,6.75-8.75,6.58-1.19-.18-4.32-3.59-2.14-6.75s-8.2-6.88-7.31-8.63c.9-1.76,2.56-1.86,2.56-1.86l6.45.28s-8.82-10.1-10.51-14.19-4.81-6.73-4.81-6.73c0,0-10.51-7.61-17.48-12.21-6.97-4.59-10.35-8.58-10.35-8.58h.01Z"/>
        <path class="st0" d="M345.96,434.83s-13.91,10.23-17.03,12.38-8.11,5.1-8.11,5.1c0,0-4.08,8.22-5.06,12.27s-1.59,11.93-1.59,11.93c0,0,3.21-1.94,3.85.92.64,2.87-.19,15.23,0,18.28.19,3.05.56,5.89.56,5.89,0,0-2.92,1.76.63,1.78,3.55.02,9.28.23,11.01.4s5.82.79,5.82.79c0,0,2.79-2.23-.76-4.08s-6.28-2.67-7.21-4.03c-.93-1.36-.3-.52,2-1.24s7.3-3.42,6.77-4.27c-.53-.85-.72-1.7-3.64-2.12s-4.87-1.01-4.87-1.01c0,0,.64-6.82.67-9.9s-.05-5.75-.05-5.75c0,0,3.43-6.75,6.35-7s32.36-11.47,32.36-11.47l-21.68-18.89-.02.02Z"/>
        <path class="st0" d="M219.87,756.7s.87,16.91,0,19.31-11.67,14.17-12.55,15.18-4.98,5.8-4.98,5.8c0,0-.76,4.65,1.89,6.41,2.64,1.76,8.85,4.01,12.06,3.69s6.37-.71,8.87-3.27,14.84-19.72,14.84-19.72c0,0-2.24-1.74-1.68-6.62s5.54-19.62,5.54-19.62l-23.97-1.17h-.02Z"/>
        <path class="st0" d="M367.73,754.4s6.87,14.69,7.46,18.62-.99,10.51-.99,10.51c0,0,36.84,19.15,39.57,20.16,2.73,1.01,9.52,2.47,12.12,1.23,2.59-1.24,7.14-3.98,7.53-6.55.39-2.57-1.51-5.14-1.51-5.14l-26.06-17.23s-6.61-2.04-9.36-6.39c-2.75-4.36-10.27-24.19-10.27-24.19l-18.49,8.98h0Z"/>
      </g>
      <g id="scarpe">
        <path class="st3" d="M202.97,796.2s-8.44,10.16-9.78,13.81-2.48,9.07-2.26,11.14.92,9.84,3.98,10.92c3.07,1.08,15.56,6.61,20.71,4.92,5.16-1.69,11.55-6.49,14.91-11.16s14.74-24.42,14.74-24.42c0,0,.74-6.45.32-9.02-.41-2.57-1.85-8.69-3.27-10.47-1.42-1.78-3.43-2.95-3.43-2.95,0,0-1,1-.37,2.68s.6,2.47.6,2.47c0,0-6.91,11.83-10.69,16.45-3.78,4.63-8.62,6.31-11.98,6.52s-7.15.84-10.09-2.1-3.87-2.99-4.04-5.07.63-3.71.63-3.71h.02Z"/>
        <path class="st3" d="M372.98,784.11s-2.05,2.24-2.23,5.1c-.18,2.85-.94,16.19-.94,16.19l48.42,23.2s9.79,3.67,12.46,3.47c2.67-.21,10.71-2.91,13.7-5.81,3-2.9,6.13-6.55,6.13-6.55l1.57-8.03s-.08-1.9-1.32-4.55c-1.24-2.65-4.38-4.88-6.23-5.81s-12.65-8.08-12.65-8.08c0,0,3.62,3.54-.59,7.75-4.2,4.2-9.69,4.62-11.99,4.41s-22.06-7.99-22.06-7.99c0,0-11.56-5.05-17.03-8.83s-7.26-4.47-7.26-4.47h.02Z"/>
      </g>
      <g id="pantalone">
        <path class="st4" d="M234.8,504.58s17.87,9.68,35.27,9.43c17.41-.25,32.85-2.29,38.76-4.71,5.91-2.43,9.19-4.39,9.19-4.39,0,0,34.09,97.39,35.23,100.79,1.15,3.4,24.29,73.02,24.29,73.02l14.65,37.43,6.56,1.1s3.32,17,4.39,19.03,3.39,6.63,3.39,6.63c0,0-6.74,8.76-12.17,12.28-5.42,3.52-21.95,11.42-29.07,12.02s-21.65-1.3-21.65-1.3c0,0-.4-4.47-2.09-8.46-1.68-3.99-7.11-15.35-6.71-16.4.4-1.05,5.66-5.68,5.66-5.68l-59.08-172.14-1.99-.33-16.41,167.21,5.58,4.91.59,22.18s-19.41,16.54-37,14.49-25.67-4.08-31.13-8.49c-5.46-4.4-6.15-6.52-6.15-6.52,0,0-.25-22.44.94-23.31s7.11-3.26,7.11-3.26l15.36-114.36,14.54-96.5,1.94-14.69v.02Z"/>
        <path class="st0" d="M235.7,472.95s-4.35.9-4.08,2.19c.27,1.28,2.54,12.53,2.7,15.83s.63,2.34.14,6.09c-.5,3.75-.5,5.75-.5,5.75,0,0,10.89,6.79,20.14,8.69,9.25,1.89,25.02,3.36,31.74,2.52,6.73-.84,20.39-3.36,24.6-5.26,4.2-1.89,8.77-5.38,8.77-5.38,0,0-1.31-6.03-1.21-9.78.09-3.75,1.23-11.53.63-13.85s-1.72-3.3-2.86-3.3-1.78.14-1.78.14l-.11,4.7s1.02,2.65-7.73,6.02c-8.74,3.36-15.94,5.08-30.74,4.65-14.79-.43-24.55-2.6-30.71-6.56s-9.33-7.46-9.33-7.46l.33-4.99h0Z"/>
      </g>
      <g id="orologio">
        <path class="st3" d="M322.14,466.26l7.02-5.47s5.37,4.92,6.12,5.47,1.64,1.01,1.64,1.01l-7.99,6.48-6.8-7.49h0Z"/>
        <polygon class="st4" points="320.12 452.81 321.06 450.73 329.16 460.79 322.14 466.26 316.88 460.79 320.12 452.81"/>
      </g>
      <g id="camicia_-_capelli">
        <path class="st3" d="M264.22,330.01s-9.2,1.04-10.4,2.02c-1.2.98-8.73,10.72-8.73,10.72,0,0-19.1,9.56-26.31,14.74-7.2,5.18-37.12,29.38-42.08,34.23s-16.5,16.56-18.58,20.61c-2.09,4.05-3.52,8.92-2.13,11.99,1.39,3.07,10.84,19.72,10.84,19.72,0,0-.88,2.61-.5,4.68s4.24,7.94,6.92,10.83,3.28,5.38,5.36,5.48c2.08.11,19.21-3.42,19.21-3.42l-9.1-6.81s4.74-4.81,11.47-6.97,11.25-3.03,11.25-3.03l5.02,5.76s4.61-6.99,3.98-9.4-4.63-8.51-6.31-10.4c-1.68-1.89-5.06-3.35-5.06-3.35,0,0-6.03-7.97-7-10.3,0,0,2.49-2.29,9.37-4.68,6.89-2.39,11.67-3.23,11.67-3.23,0,0-1.77,9.54-1,14.25s3.18,16.69,4.68,20.58c1.5,3.89,6.07,14.04,7.14,18.29,1.08,4.24,1.97,9.68,1.74,12.19-.22,2.51-.34,3.41-.34,3.41,0,0,8.52,7.26,14.37,9.24,5.85,1.97,37.84,10.34,57.99-.65l6.14-5.24s-.24-12.52,3-20.5c3.25-7.98,9.36-22.46,9.71-29.39.35-6.93-1.99-20.46-1.99-20.46,0,0,6.62,1.22,10.68,3.24s10.68,7.03,10.68,7.03l-1.51,3.12-4.58-.86-10.71,10.44s.41,4.54,1.03,6.31c.63,1.77,1.64,4.34,1.64,4.34l6.6-4.34s6.18,2.46,8.38,4.58,9.47,9.47,10.5,10.99l1.03,1.51-8.8,3.37s8.25,4.37,12.83,3.33,8.21-3.55,10.37-5.5c2.16-1.96,5.03-5.72,5.03-5.72l-1.39-3.05s10.39-13.76,12.61-17.18c2.22-3.43,7.84-8.62,2.19-15.72-5.65-7.09-26.37-28.47-34.39-35.55s-24.17-20.68-31.43-25.01c-7.26-4.33-8.45-5.74-11.79-6.82-3.34-1.08-7.98-2.96-7.98-2.96l-4.01-6.3-6.92-7.69-10.12-2.43s-.72,3.32-.45,6.5,1.37,6.54,2.92,7.18c1.56.63,3.44,1.15,3.44,1.15,0,0-6.09,4.95-8.4,7.05-2.31,2.1-5.02,6.41-5.02,6.41,0,0-1.71-5.14-6.12-6.83-4.41-1.68-10.19-5.91-11.51-6.63l-1.32-.72s4.57-.24,5.41-2.37,1.65-5.25,1.65-7.01-.93-4.77-.93-4.77h.06Z"/>
        <path class="st3" d="M250.21,164.41s.78,4.79-.46,6.93-11.04,13.35-14.17,16.56c-3.13,3.21-7.23,9.56-8.36,14.22-1.13,4.66-2.07,24.53-1.92,33.57.15,9.03-.15,33.84-.27,38.05s-.6,9.8-1.32,8.9-14.7-19.65-17.71-28.45l-3.02-8.79s-3.28,2.12-3.27,5.66.51,6.68.51,6.68c0,0-16.55-19.1-19.65-22.92-3.1-3.82-13.43-11.68-13.43-13.84s4.61-7.55,6.25-10.81,9.98-18.52,18.41-31.84c8.44-13.32,21.55-31.55,29.53-40.18,7.98-8.63,18.75-19.92,23.92-21.54,5.16-1.63,12.42-2.4,14.54-2.21,2.13.18,3.44.34,3.44.34,0,0,6.9-3.17,13.95-4.42s31.49-6.72,47.1,8.35,36.56,57.25,36.56,57.25l26.19,45.91s-21.89,19.83-25.9,23.58-11.64,12.38-11.64,12.38c0,0-3.5-6.7-3.51-6.72,0,0,1.88-.28-5.87,13.29s-14.74,23.57-14.74,20.93.84-13.22,1.89-23.1c1.05-9.88-2.52-38.26-7.78-48.14s-18.08-22.7-22.7-26.28-1.64.74-.79,3.34c2.48,7.59,2.72,17.44,2.72,17.44,0,0-4.06-6.48-6.67-11.53-2.62-5.05-3.23-8.39-14.8-14.81-11.57-6.42-18.75-8.67-21.13-10.92s-5.89-6.86-5.89-6.86v-.02Z"/>
      </g>
      <g id="ombre">
        <path class="st2" d="M250.2,143.37s-1.33,11-9.33,19.67c-8,8.67-16,18-20.33,25s-6.67,22-6.67,27.33.67,29.67,0,34-9.67-3.33-10.67-6.33,6.33,10.33,3.33,13.67-5,0-5,0c0,0,1.67,7,5,8s5,0,5,0c0,0,6.67,12,8.67,14.67s4,2.33,4,2.33c0,0,8.67,13,14.33,21.67,5.67,8.67,16.33,18.33,20,20.33s2.33,0,3.67,2c1.33,2,1.67,10.67,1.67,10.67,0,0-4.67,1-6,2.33s-2.67,1-1,3.67,12,8.67,12,8.67c0,0,6,1.33,6.33,3.33s-4.33-6-4.67-12.67c-.33-6.67.33-12.67.33-12.67,0,0,5,0,8-1s1,1.33-11.33-5-29-19.67-40-89.33c-1.88-11.89,1.33-27.33,4-32.33,2.67-5,17-17.33,18.67-21l1.67-3.67s7.47,5.2,16.67,8.33c16.67,5.67,27,23.33,27,23.33,0,0-1.69-12.33-7.68-18s-14.99-10.67-20.32-13.33c-5.33-2.67-9.67-3.67-12.67-7.33-3-3.67-3.67-6.33-3.67-6.33l-1-20h0Z"/>
        <path class="st2" d="M293.2,184.04s34.33,11,41.67,55.67c1.57,9.56.33,26-1.33,32-1.67,6-6.33,13.33-7.67,13.33s-.33-5,0-9.33,1.33-33.33-.33-42.5c-1.67-9.17-5.68-18.83-11.34-27.83s-20.99-21.33-20.99-21.33h-.01Z"/>
        <path class="st2" d="M345.86,179.04s8,19,9.67,27.67c1.67,8.67,16,22.33,20.33,21.33s-25.67,29.67-25.67,29.67c0,0-4-4.67-4.33-5.33-.33-.67,0-3.34,0-3.34,0,0,3.33-8.32,5-16.32s3.71-12.35,3.33-18c-1.67-25-8.33-35.67-8.33-35.67h0Z"/>
        <path class="st2" d="M195.2,201.37s-3.67,22-10.33,24c-6.67,2-12.33,0-12.33,0,0,0,10.67,16.67,16.33,21.67,5.67,5,11,8.33,11,8.33,0,0,0-4.33,1.67-8.33s0-3.67,0-3.67c0,0-7-20.67-7.33-27s1-15,1-15h0Z"/>
        <path class="st2" d="M341.86,261.04s.7,3.33,3.85,2,.85,1.33,0,3-3.19,3.67-5.52,4-4.61,0-4.61,0l6.28-9h0Z"/>
        <path class="st2" d="M275.53,362.37s-2.33-3.33-6-2.33-8,4.67-9.67,7l-1.67,2.33s-1.33-11.71,2.67-14.69,6.07-4.18,8-3.65,6,3.67,6.67,6,0,5.33,0,5.33h0Z"/>
        <path class="st2" d="M277.53,363.37s.67-4.46,7-3.23c6.33,1.23,11,3.23,11,3.23,0,0-3.02-6.38-7.68-8.69s-5.99-.69-7.66,0-2.67,3.74-2.67,3.74v4.94h.01Z"/>
        <path class="st2" d="M284.2,335.71s2.32-.67,4.82,1.33c2.51,2,3.18,3.67,2.18,5.33l-1,1.67s-1,2.33-3.67-1.33c-2.67-3.67-2.33-5-2.33-5v-2Z"/>
        <path class="st2" d="M233.96,381.04s-4.77,7.67-13.1,13-22.67,14-22.67,14l4.07,9s6.59-5,10.59-5.67,8.67-1,8.67-1c0,0,.59,7.28.67,11.67.25,15.14,10.39,35.26,10.39,35.26l4.28,15.74-4.67,2,2.33,19.67s.33,7,0,8l-.33,1-13,89.67-18.33,137.33s-7,0-7,2.33,1,9.33.67,13l-.92,12.78,6.15,4.88s-.1-7.19,0-12.76-2.53-10.01,0-10.7,12.05,5.35,16.74,5.21c4.69-.14-7.65-3.41-8.98-12.74s25-214.67,32.33-215c7.33-.33,28,1.33,35,.33s14.98-4.78,14.98-4.78c0,0-5.86,3.5-22.32.71-16.46-2.79-24.43-5.31-24.43-5.31,0,0-.9-8,2.76-11.98,3.67-3.97,11.73-6.54,11.73-6.54,0,0-15.9-2.93-17.32-6.68s-1.08-27.05-1.08-34.74-14.02-15.85-12.14-31.9c2.56-21.87,4.9-35.78,4.9-35.78h.03Z"/>
        <path class="st2" d="M161.42,408.01s-1.56,7.56,2.77,15.46,10.69,14.42,10.69,14.42c0,0,.64,7.52,3.98,10.83,3.33,3.32,8.03,7.82,10.1,6.08,2.07-1.73,9.46-6.17,9.46-6.17,0,0-1.1,4.26,5.34,8.66,6.44,4.4,12.71,9.19,14.57,8.96s4.57,9.89,6.89,14.83c2.31,4.94,6.79,10.09,8.22,10.68s1.83,7.67.53,9.03c-1.3,1.36-8.75,6.58-8.75,6.58l-1.35-3.6.6-5.21-7.72-4.21s-2.24-2.8-.56-3.39c1.68-.59,4.28-.82,4.28-.82l4.75,1.64s-7.99-9.5-9.5-12.95c-1.52-3.45-4.25-7.51-4.25-7.51l-13.62-9.7s-19.38,3.75-20.07,3.01c-.69-.75-7.33-7.84-8.72-9.82s-3.24-2.73-2.71-6.08l.52-3.35s-8.93-15.64-10.15-19.32-2.44-5.41-.9-8.93,5.61-9.12,5.61-9.12h-.01Z"/>
        <path class="st2" d="M316.88,393.06s30.38,17.88,32.66,17.88h3.84s3.48.95,1.48,6.7c-2,5.74-3.05,8.78-3.05,8.78,0,0,6.78,3.42,7.9,4.41s-7.95.47-12.9,4.01-2.69,8.51-1.67,9.21c1.02.71-1.22,2.38-8.25,6.69s-9.93,7.27-9.93,7.27c0,0-6.76,5.04-6.69,5.86s-3.39,12.37-3.39,12.37l-2.7.27s1.43-11.32,2.39-14.73c.96-3.41,3.7-8.98,3.7-8.98l11.95-8.76s-4.42-8.01-3.05-10.01,10.71-10.57,10.71-10.57l4.58.86,1.51-3.12s-6.39-5.45-10.68-7.02c-4.29-1.57-10.68-3.25-10.68-3.25l-7.72-17.88h-.01Z"/>
        <path class="st2" d="M282.86,563.25s8.76-.89,10.65-1.3c1.89-.4,5.68,26.75,11.02,46.08s38.57,107.33,42.28,116c3.72,8.67,14.89,13.61,18.05,14.03,3.16.43-12,1.77-14.33,5.7s-.67,15.6,1.83,18.26,8.06,3.03,12.93,3.67c4.87.63,7.44,0,7.44,0,0,0-22.74,2.34-25.92,1.28-3.17-1.06-4.25-6.56-4.25-6.56,0,0-4.01-8.8-5.67-12.88s-2.63-6.1-1.33-7.31c1.3-1.21,4.97-4.87,4.97-4.87l-57.67-168.04v-4.08.02Z"/>
        <path class="st2" d="M232.2,771.71s-2.38,1.23-6.69,5.78c-4.31,4.55-16.9,25-19.1,27.44-2.21,2.44-6.6,16.23-7.21,18.11s1.09,11.47,3.78,12.33c2.69.86-7.67-1.86-9.46-5.5-1.79-3.64-5.13-14.06-2.1-18.19s6.77-9.73,10.35-13.97c3.59-4.24,15.51-16.88,16.62-19.11s1.6-1.33,1.48-4.53l-.12-3.2,12.44.84h.01Z"/>
        <path class="st2" d="M390.36,759.37s-5.83,2.76-6.5,12.38,9.81,16.99,17.33,23.57,17.5,10.18,24,7.88,10.18,9.72-23.07-4.05c-33.26-13.77-17.92-10.77-20.92-8.44s39.32,33.51,45.33,33.51,12.59-.52,15.1-2.34-2.76,8.19-2.76,8.19c0,0-3.35,3.04-9.01,2.01-5.66-1.03-10.98-3.05-21-7.86-10.02-4.8-38.36-18.35-38.36-18.35,0,0-1.57-12.17.24-16.48,1.82-4.32,3.08-6.94,3.08-6.94,0,0,2.86-1.51,1.84-6.42s-2.95-10.3-2.95-10.3l17.63-6.33.02-.03Z"/>
      </g>
      <g id="DRESS">
        <path class="st7" d="M284.54,330.06c1.33-.11,5.22.75,7.69,1.34,1.4.34,2.67,1.08,3.64,2.15,3.36,3.7,11.11,12.52,9.51,13.5-2.17,1.34-4.09,9.01-6.67,13-1.83,2.83-3.17,6-5,2.5s-10.79-17.68-16.48-3.64"/>
        <path class="st7" d="M289.02,336.56c9.87,7.48-4.46,12.22-7.43,16.65"/>
        <path class="st7" d="M305.38,347.05c25.73,4.28,79.56,61.28,82.23,65.11s8.32,8.73,5.16,14.35c-3.29,5.85-13.72,20.55-16.39,23.21"/>
        <path class="st7" d="M351.82,410.93c-2.05,5.25-4.62,11.42-7.36,13.39"/>
        <path class="st7" d="M324.6,410.93c2.71.82,13.24,2.25,21.36,10.27"/>
        <path class="st7" d="M245.1,342.75c-4.99,2.62-17.55,9.14-23.39,12.81-5.83,3.67-19.5,14-26,19.67s-12.83,10.83-19,16.5-14.33,14.86-17.33,18.85-5.83,8.99-2.67,15.49,8.5,14.5,10.5,18.75"/>
        <path class="st7" d="M198.05,406.22c.83,4.33,4.25,13.7,11.42,21.2"/>
        <path class="st7" d="M222.13,409.22c-4.49.67-12.67,3.47-20.04,7.9"/>
        <path class="st7" d="M332.22,437.89c2.5.5,18.66,6,27.5,21.67"/>
        <path class="st7" d="M216.49,450.57c1.83-2.5,2.39-3.35,3.73-6.85s-1.75-7.44-5.25-12.1-7.31-5.25-14.45-4.75c-4.1.29-9.99,1.75-15.24,4.56-5.15,2.76-10.56,5.79-16.56,11.96s1.03,12.06,3,14.42c1.94,2.31,4.37,4.58,5.37,6.07s2.31,1.49,5.5,1.06c3.19-.44,13.56-2.94,15.25-3.31"/>
        <path class="st7" d="M181.63,460.81c3.58-2.33,14.92-16.17,33.58-16"/>
        <path class="st7" d="M235.37,477.94c3.6-25.63-23.26-35.12-8.49-86.22"/>
        <path class="st7" d="M316.88,393.06c3.13,10.71,19.56,26.42,2.33,61.67-2.73,5.59-6.78,20.23-5.34,26.57"/>
        <path class="st7" d="M262.04,490.43c-.83,5.63-1.17,17.7,0,22.41"/>
        <path class="st7" d="M394.36,721.61c-.35-.64-3.21-8.24-4.13-10.37-3.92-9.04-11.74-28.47-12.68-32.51-1.17-5-47.92-143.11-50.7-150.67-1.96-5.33-6.58-15.81-8.82-23.15"/>
        <path class="st7" d="M343.5,742.84c-.59-1.72-40.82-116.69-48.45-138.29l-13.63-41.63"/>
        <path class="st7" d="M262.63,736.26c0-3.67,2.58-34.37,3.08-41.87s13.72-131.46,13.72-131.46"/>
        <path class="st7" d="M202.24,737.19c1.08.5,2.57-19.81,3.31-28.3,3.88-44.67,29-200.33,29.35-205.11"/>
        <path class="st7" d="M263.46,561.56c2.5,1,17.96,3.26,31.94,0"/>
        <path class="st7" d="M230.55,662.06c-5.29,31.65-8.86,81.31-10.08,81.72"/>
        <path class="st7" d="M352.36,657.04c8.5,25.48,26.9,71.89,28.83,75.67"/>
        <path class="st7" d="M329.16,460.79c-2.19,1.61-4.28,3.21-7.02,5.47"/>
        <path class="st7" d="M276.65,357.49c-1.44-7.43-24.68-9.86-19.9-22.03"/>
        <path class="st7" d="M277.31,358.73c-3.07,11.1,2.13,30.62.46,46.22-.9,8.46-3.23,56-2.58,61.32.66,5.32,3.11,25.73,3.11,25.73"/>
        <path class="st7" d="M233.96,476.24s10.32,15.76,44.35,15.76,37.46-13.07,37.46-13.07"/>
        <path class="st7" d="M235.71,472.95s-4.09.74-4.09,2.19,3.82,13.64,2.66,24.25c-.28,2.59-1.18,3.05.61,4.4s17.93,10.47,41.93,10.47,39.54-7.73,41.2-9.35c1.65-1.62.49-1.6.19-6.14-.5-7.54,1.48-18.84-.19-21.34-.92-1.38-3.85-.92-3.85-.92"/>
        <path class="st7" d="M295.4,490.96s1.6,18.75,1.3,21.28"/>
        <path class="st7" d="M199.2,735.04s7.56,11.01,30,10.39,36-9.02,36-9.02"/>
        <path class="st7" d="M203.3,730.28s-6.77,1.91-7.44,3.11c-.67,1.21.22,6.09,0,12.76s-1.84,11.56-.25,12.67,12.92,13.78,36.59,12.89,36.56-13.2,37-14.49.44-7.51,0-11.29c-.44-3.78.33-10.89.33-10.89l-6.5-4.91"/>
        <path class="st7" d="M339.86,741.93c7.36,4.49,51.33-6.89,55.74-22.39"/>
        <path class="st7" d="M340.95,735.04s-4.86,4.2-5.97,5.99,5.33,13.03,6.67,16.19c1.33,3.16,1.33,7.6,2,8.71.67,1.11,19.11,5.11,37.78-3.33s24.22-18.67,25.11-19.67-3.11-4.55-3.78-7.89c-.67-3.33-3.56-16.89-4-17.78s-6.56-1.1-6.56-1.1"/>
        <path class="st7" d="M219.75,770.86s.71,5.51-1.37,7.73-15.41,17.61-15.41,17.61"/>
        <path class="st7" d="M239.18,770.86s-2.43,11.41.81,13.25"/>
        <path class="st7" d="M372.73,765.71s3.35,8.04,2.91,11.13-1.81,5.59-1.81,5.59"/>
        <path class="st7" d="M390.36,757.87s4.17,10.37,7.95,13.88,35.11,22.4,35.11,22.4"/>
        <path class="st7" d="M316.88,460.79s6.71,7.6,8.35,9.4c1.64,1.8,3.71,3.56,3.71,3.56"/>
        <path class="st7" d="M328.94,474.53l7.99-7.26c-4.69-1.8-15.87-16.54-15.87-16.54"/>
        <path class="st7" d="M331.84,444.56s-3.75-8.84-2.67-10.65c0,0,9.36-10.44,10.71-10.44s14.28,1.89,20.96,8.34c11.97,11.56,16.31,19.53,16.94,20.97s-11.28,11.55-14.17,11.82-10.65-1.71-12.63-3.16"/>
        <path class="st7" d="M264.22,330.01s-7.95.55-10.4,2.02-7.26,8.85-8.73,10.72c-.97,1.24-.25,5.16,3.08,12.56,2.56,5.69,9.67,13.55,9.67,13.55,0,0,.21-10.06,3.68-13.82,6.59-7.13,13.71,1.15,15.52,3.3"/>
        <path class="st7" d="M202.98,245.38c-.92,1.82-4.6,6.01-2.77,12.34,1.82,6.29,9.16,8.42,12.07,8.34"/>
        <path class="st5" d="M239.16,234.81c0,1.24-1.16,2.25-2.6,2.25s-2.6-1.01-2.6-2.25,1.16-2.25,2.6-2.25,2.6,1.01,2.6,2.25Z"/>
        <path class="st5" d="M317.06,234.81c0,1.24-1.16,2.25-2.6,2.25s-2.6-1.01-2.6-2.25,1.16-2.25,2.6-2.25,2.6,1.01,2.6,2.25Z"/>
        <path class="st7" d="M225.03,217.31c2.18-4.25,7.34-7,16.43-1.86"/>
        <path class="st7" d="M305.71,221.81c2.5-2.5,5.48-8.24,13.99-5.75"/>
        <path class="st7" d="M346.67,251.56c1.08.52,4.63,5.67,2.46,11.42s-6.86,6.95-11.78,6.73"/>
        <path class="st7" d="M263.21,114.72c-4,4.33-16.67,27-13,48.67,0,0,1.9,7.05-2.75,11.21s-8.59,9.3-14.21,16.16c-5.62,6.86-8.6,15.67-8.21,32.56s1.37,58.87-1.32,59.3c0,0-5.63-6.93-9.3-12.92-3.67-5.99-26.2-52.83-20.32-71.03"/>
        <path class="st7" d="M188.96,454.81c2.46,2.46,14.06,10.46,20.45,14.67,1.34.88,2.42,2.09,3.16,3.52,2.03,3.95,4.81,9.06,6.89,11.56,2.5,3,9.75,9.5,7.5,11.5s-4.25,4.25-4.25,6-.4,7.75,4.68,4.25c5.07-3.5,6.57-5.5,6.57-5.5"/>
        <path class="st7" d="M211.46,444.81c1.75,2.25,5.25,5.75,7,8.25s4,5.5,6.5,6.5,8.47,3.07,8.47,3.07"/>
        <path class="st7" d="M225.22,490.96c-3.66.14-9.4-2.77-9.5,1.59-.04,1.81,3.34,3.27,4.34,3.77s2.4.97,4.41,2.24"/>
        <path class="st7" d="M262.44,325.52c2.53,1.58,5.23,20.86-4.23,18.29"/>
        <path class="st7" d="M284.83,326.04c-.36,2.77-3.23,18.84,5.64,18.84"/>
        <path class="st7" d="M338.44,440.22c-3,2.25-13.61,10.33-17.61,12.08"/>
        <path class="st7" d="M358.34,457.3c-4.5,2-20.06,7.21-23.06,8.96"/>
        <path class="st7" d="M319.21,503.39s10.3-.16,16.83,1.19c.74.15,2.39-2.97-2.41-4.96-2.52-1.05-5.32-2.93-5.32-2.93"/>
        <path class="st7" d="M328.94,473.75c-.07-.41.76,8.37-.73,14.56-.21.89-.41,1.68-.55,2.39-.85,4.11-.45,5.51,1.28,6.36"/>
        <path class="st7" d="M325.37,285.27s-23.06,42.35-53.18,42.36c-25.47,0-47.16-45-47.16-45"/>
        <path class="st7" d="M250.21,163.39s3.08,7.29,8,9.01c4.92,1.71,24.5,10.53,31.85,21.55,7.35,11.02,8.32,15.91,8.32,15.91,0,0,3.59-10.53-5.67-24.73,0,0,12.04,8,16.93,13.55,4.89,5.55,23.5,28.08,15.72,83.95,0,0-2.25,11.21,10.36-10.26,20.36-34.65,24.6-75.73,8.93-95.32"/>
        <path class="st7" d="M202.97,796.2s-4.44,8.67,10.22,10.67c8.17,1.11,11.84-1.78,17.03-8.89s9.76-14.45,9.76-14.45"/>
        <path class="st7" d="M202.94,796.26s-5.11,6.22-7.56,9.78c-2.44,3.56-4.89,9.78-4.44,15.11.44,5.33,1.33,7.56,3.33,9.56s18.61,11.81,29.32,2.69c10.71-9.11,21.69-32,21.69-32,0,0,.73-3.35.54-6.65-.41-7.15-3.03-14.85-6.92-15.8"/>
        <path class="st7" d="M191.41,815.38c.04.68-.24,7.99,11.52,11.1,7.36,1.95,14.85,2.17,22.44-5.56,10.73-10.92,20.23-28.54,20.23-28.54"/>
        <path class="st7" d="M373.74,783.13c.11,4.06,35.24,19.69,43.91,21.92s13.78-2.9,15.78-6.68c2-3.78-2.79-5.91-2.79-5.91,0,0,9.04,5.08,13.93,8.85s7.13,5.79,7.98,10.16l-1.18,6.05c-.05.8-.33,1.57-.83,2.19-10.53,13.3-19.05,13.78-27.39,11-4.96-1.65-46.56-22.24-52.63-24.85-.44-.19-.71-.61-.7-1.09.08-3.88-.56-14.1,4.02-22.34"/>
        <path class="st7" d="M370.07,799.14s38.38,17.36,45.35,20.57c10.76,4.96,17.7,5.09,22.61,3.81,6.73-1.75,12.28-10.25,12.28-10.25"/>
        <path class="st7" d="M258.21,293.37c2.34,4.36,20.08,13.67,32.96,1.33"/>
        <path class="st7" d="M328.32,487.84s4.46.55,5.95,1.07c2.39.83,4.6,3.09-.37,5.03-4.46,1.74-6.37,1.78-6.37,1.78"/>
        <path class="st7" d="M200.21,257.72c1.68.97-30-35.92-33.57-35.92,0,0,27.9-48.42,31.9-54.42s16-20.67,20.67-26.67,13.67-15.33,21.33-21.33,17.67-5.33,22.67-4.67c6.5-3.17,34.85-12.06,53.85-1.09,24.17,13.96,32.57,45.29,47.43,68.31l22.52,39.86s-32.15,26.59-36.68,35.86"/>
        <path class="st6" d="M272.39,258.89s-4.62,4.12-4.41,6.22,3.94,5.68,7.23,5.68,6.56-1.47,6.39-3.57-1.43-3.99-1.43-3.99"/>
      </g>
    </g>
  </g>
</svg>