<svg width="583" height="752" viewBox="0 0 583 752" fill="none" xmlns="http://www.w3.org/2000/svg">
<path d="M255.941 115.67C255.941 115.67 255.311 114.22 250.561 119.27C245.811 124.32 237.021 143.89 234.491 147.2C231.961 150.51 226.631 163.31 222.881 168.36C219.131 173.41 203.001 192.19 200.111 195.14C197.221 198.08 195.291 200.38 194.801 203.9C194.311 207.42 194.301 216.09 196.031 220.98C197.751 225.88 197.061 226.61 197.061 226.61C197.061 226.61 194.711 228.83 193.801 233.72C192.891 238.61 192.661 246.34 192.661 246.34C192.661 246.34 190.781 254 191.181 257.75L191.581 261.5C191.581 261.5 189.971 264.88 190.241 271.09C190.511 277.31 192.011 286.91 193.801 291.56C195.591 296.22 199.811 308.73 199.811 308.73C199.811 308.73 201.471 337.31 202.531 343.59C203.601 349.87 208.721 372.97 211.911 378.3C215.101 383.63 218.621 385.02 223.081 383.98C227.541 382.94 241.831 377.94 247.801 373.47C253.771 369 272.181 353.01 272.181 353.01C272.181 353.01 269.371 344.59 265.841 338.98C262.311 333.37 256.181 326.84 256.181 326.84L237.501 338.98L217.261 299.15C217.261 299.15 215.631 298.26 218.731 291.52C221.831 284.77 227.121 274.79 227.121 274.79C227.121 274.79 243.581 278.15 253.011 278.42C262.441 278.69 287.051 275.93 295.881 273.23C304.711 270.54 318.021 247.9 318.021 247.9C318.021 247.9 322.091 215.45 332.671 203.12C343.241 190.78 357.091 163.34 346.261 149.25C335.431 135.15 313.031 141.7 301.201 131.38C289.371 121.06 285.341 116.2 274.261 115.48C263.181 114.76 255.941 115.67 255.941 115.67Z" fill="#F9FAFB"/>
<path d="M199.77 319.21C199.77 319.21 190.68 332.82 189.2 337.58C187.72 342.33 187.11 351.15 187.01 354.93C186.91 358.71 188.87 370.47 190.62 375.6C192.37 380.73 196.51 391.19 196.51 391.19C196.51 391.19 190.16 400.78 188.98 403.81C187.8 406.84 186.76 406.5 187.41 409.71C188.05 412.92 188.65 410.61 187 414.24C185.35 417.87 184.33 419.5 185.36 422.17C186.39 424.84 185.29 425.84 185.09 427.53C184.89 429.21 182.93 429.37 185.83 433.16C188.73 436.96 191.6 441.5 193.81 441.48C196.01 441.46 197.54 443.34 198.68 440.81C199.82 438.28 198.96 434.78 198.96 434.78C198.96 434.78 203.57 437.59 204.56 435.04C205.56 432.49 202.37 424.59 202.37 424.59C202.37 424.59 204.65 424.92 205.56 422.16C206.47 419.4 205.02 414.52 201.84 410.44C198.67 406.36 197.63 404.08 197.63 404.08L198.66 370.5L200.56 326.15L199.75 319.22L199.77 319.21Z" fill="#F9FAFB"/>
<path d="M238.403 273.68C238.403 273.68 239.303 280.65 238.613 283.71C237.923 286.77 235.003 291.58 235.563 293C236.123 294.42 235.423 294.89 238.403 295.68C241.383 296.47 246.773 296.93 251.363 295.25C255.953 293.57 261.423 290.9 263.353 288.89C265.283 286.88 266.813 285.85 268.633 282.43C270.453 279.01 270.453 277.99 270.453 277.99L238.393 273.67L238.403 273.68Z" fill="#F9FAFB"/>
<path d="M201.586 435.91C201.586 435.91 231.256 456.55 238.606 458.96C245.956 461.37 251.546 463.34 257.256 461.96C262.966 460.58 281.386 453.92 281.386 453.92C281.386 453.92 284.946 467.72 282.876 478.8C280.806 489.87 280.006 500.2 280.096 506.23C280.186 512.26 279.096 539.22 278.846 546.01C278.586 552.8 278.686 564.87 279.376 572.18C280.066 579.49 282.146 588.55 282.106 593.08C282.066 597.61 281.046 602.38 281.306 604.9C281.566 607.43 282.226 626.88 281.766 629.36C281.306 631.84 278.456 636.78 278.456 636.78C278.456 636.78 270.746 641.38 264.946 641.29C259.156 641.2 247.286 639.33 242.556 636.89C237.826 634.45 232.796 628.17 232.326 626.25L231.846 624.33C231.846 624.33 218.786 623.11 215.846 621.5C212.906 619.89 207.156 615.14 207.156 615.14L206.526 592.29C206.526 592.29 207.766 590.42 206.636 589.29C205.506 588.16 203.356 583.98 203.596 581.74C203.836 579.5 204.996 559.35 205.386 556.44C205.776 553.54 207.786 552.38 205.566 550.52C203.346 548.66 202.286 545.73 201.586 539.69C200.876 533.65 202.766 510.49 202.516 506.96C202.266 503.44 200.556 467 199.836 461.93C199.116 456.86 198.016 440.96 198.016 440.96C198.016 440.96 199.946 441.89 199.836 439.48C199.726 437.08 199.726 435.28 199.726 435.28L201.596 435.87L201.586 435.91Z" fill="#E5E4E5"/>
<path d="M238.398 280.35C238.398 280.35 229.878 281.44 226.108 283.71C222.338 285.97 220.738 287.33 220.738 287.33L216.898 296.97L221.838 308.36L237.498 339L256.178 326.86C256.178 326.86 263.518 334.82 264.678 336.91C265.838 339 272.178 353.03 272.178 353.03L268.538 356.66C268.538 356.66 252.448 372.29 243.288 376.58C234.128 380.87 227.758 383.95 223.078 384C218.398 384.05 214.128 382.42 210.998 375.38C207.868 368.34 203.668 350.29 203.668 350.29L200.938 333.3L197.648 404.09C197.648 404.09 206.628 412.97 206.528 417.13C206.428 421.29 206.958 422.3 205.568 423.51L204.178 424.72C204.178 424.72 206.458 427.35 205.508 431.2C204.558 435.05 203.768 435.93 203.768 435.93L200.168 435.62L213.168 444.2C213.168 444.2 236.178 458.84 241.398 460.17C246.618 461.5 254.148 464.07 259.928 461.97C265.708 459.87 288.218 450.72 288.218 450.72L290.678 449.5C290.678 449.5 284.998 421.64 285.508 412.84C286.018 404.03 288.798 369.65 290.678 359.14C292.558 348.63 296.058 343.11 297.328 332.28C298.608 321.45 297.988 307.59 295.198 300.93C292.408 294.27 276.818 283.72 276.818 283.72L270.468 279.03C270.468 279.03 266.468 287.73 259.918 291.5C253.368 295.28 246.528 297.7 241.388 296.49C236.248 295.28 235.558 293.01 235.558 293.01C235.558 293.01 237.038 292.22 237.638 288.2C238.248 284.18 238.398 280.37 238.398 280.37V280.35Z" fill="#CACACC"/>
<path d="M251.848 118.27C251.848 118.27 262.898 109.95 277.358 107.07C288.508 104.85 302.938 102.31 317.978 106.23C333.018 110.15 377.038 128.79 381.938 170.17C386.838 211.54 363.528 229.41 363.528 229.41C363.528 229.41 362.768 219.74 357.498 213.48C352.228 207.22 320.968 181.05 320.968 181.05C320.968 181.05 324.238 175.41 324.098 172.44C323.968 169.48 321.998 153.49 316.758 149.09C311.518 144.69 307.668 146.69 296.268 144.97C284.868 143.26 267.588 139.17 265.728 133.2C263.868 127.23 267.348 124.91 265.258 121.51C263.168 118.11 259.648 118.11 256.258 117.91C252.868 117.71 251.828 118.27 251.828 118.27H251.848Z" fill="#CACACC"/>
<path d="M300.926 226.1C300.926 226.1 298.146 230.43 298.426 236.96C298.706 243.48 298.276 245.78 300.336 250.3C302.396 254.82 303.166 257.66 302.846 261.51C302.526 265.36 299.056 272.38 299.056 272.38C299.056 272.38 302.726 273.53 315.836 265.9C328.936 258.27 337.636 252.02 337.636 252.02C337.636 252.02 337.516 245.7 333.766 240.85C330.016 236.01 315.836 223.38 315.836 223.38C315.836 223.38 313.766 227.27 310.626 228.63C307.476 229.99 306.156 230.17 303.996 228.71C301.836 227.25 300.926 226.1 300.926 226.1Z" fill="#CACACC"/>
<path d="M297.32 213.89C297.32 213.89 300.09 208.5 303.31 204.32C306.53 200.14 320.73 181.5 320.73 181.5C320.73 181.5 330.2 187.33 332.01 189.08C333.82 190.83 348.38 203.37 351.79 206.74C355.19 210.11 361.11 217.95 361.93 222.1C362.74 226.25 363.54 229.43 362.78 230.15C362.02 230.87 338.17 251.61 338.17 251.61C338.17 251.61 338.85 248.68 336.27 243.86C333.69 239.04 327.43 232.3 322.84 228.93C318.25 225.55 315.84 223.39 315.84 223.39C315.84 223.39 318.49 218.59 318.53 214.68C318.56 210.77 315.77 207.33 311.43 207.93C307.09 208.52 303.57 210.53 302.18 211.6C300.79 212.66 297.32 213.9 297.32 213.9V213.89Z" fill="#E5E4E5"/>
<path d="M211.631 619.24C211.631 619.24 202.641 624.61 198.681 626.97C194.721 629.33 190.031 632.6 190.031 632.6C190.031 632.6 198.921 635.64 203.621 637.39C208.321 639.15 213.131 642.01 214.941 645.14C216.751 648.26 217.201 651.34 217.201 651.34L232.341 650.58C232.341 650.58 234.161 647.71 235.561 643.11C236.961 638.51 237.841 634.45 237.841 634.45C237.841 634.45 234.651 634.42 233.501 630.34C232.341 626.26 231.871 624.34 231.871 624.34C231.871 624.34 224.951 625.57 220.411 623.54C215.871 621.51 211.651 619.23 211.651 619.23L211.631 619.24Z" fill="#CACACC"/>
<path d="M237.827 634.46C237.827 634.46 237.567 639.33 234.567 645.75C231.567 652.17 227.117 661.85 227.117 661.85C227.117 661.85 228.527 660.16 231.847 658.11C235.167 656.06 241.897 652.31 249.627 651.83C257.347 651.35 263.837 651.12 269.337 651.98C274.847 652.84 281.097 654.19 283.397 655.25C285.707 656.31 288.177 658.05 288.177 658.05L275.517 638.91C275.517 638.91 273.197 641.53 266.177 641.98C259.157 642.43 250.597 639.78 250.597 639.78L237.817 634.46H237.827Z" fill="#CACACC"/>
<path d="M190.02 632.61C190.02 632.61 181.27 639.43 179.56 641.31C177.85 643.19 176.87 643.95 176.5 646.97C176.13 649.99 177.19 655.85 177.19 655.85C177.19 655.85 178.05 658.11 182.2 658.72C186.34 659.33 212.42 660.31 212.42 660.31L227.52 660.13L232.33 650.59L217.19 651.34C217.19 651.34 215.5 645.17 212.42 642.65C209.34 640.13 203.26 637.06 199.84 635.81C196.42 634.56 190.03 632.6 190.03 632.6L190.02 632.61Z" fill="#E5E4E5"/>
<path d="M227.12 661.85C227.12 661.85 224.72 667.76 225.38 670.37C226.04 672.99 225.19 675.42 232.33 677.79C239.47 680.16 253.4 683.39 260.68 683.07C267.96 682.74 282.58 680.56 286.37 678.7C290.15 676.84 293.32 675.58 293.26 672.47C293.19 669.36 291.6 665.01 291.6 665.01L287.24 656.59C287.24 656.59 276.24 651.3 266.2 651.34C256.16 651.37 247.59 650.73 240.79 653.74C233.98 656.74 227.14 661.85 227.14 661.85H227.12Z" fill="#E5E4E5"/>
<g style="mix-blend-mode:multiply" opacity="0.37">
<path d="M252.385 117.83C252.385 117.83 263.925 118.11 264.795 120.9C265.675 123.69 263.445 129.41 264.795 131.82C266.145 134.22 275.625 142.4 284.105 143.1C292.585 143.8 305.225 146.32 310.175 154.8C315.125 163.29 321.135 175.66 315.475 186.27C309.815 196.88 296.235 211.02 288.355 224.1C280.475 237.18 277.645 247.44 269.155 255.21C263.615 260.29 242.285 265.11 239.105 265.46C235.925 265.81 233.805 265.46 233.805 265.46C233.805 265.46 238.045 261.92 238.405 258.39C238.755 254.85 231.685 255.21 231.685 255.21C231.685 255.21 230.275 261.57 224.615 269.35C218.955 277.13 215.065 283.14 212.945 289.15C210.825 295.16 216.835 315.67 219.305 324.86C221.775 334.05 226.025 345.01 226.025 345.01L236.635 339L216.835 299.75C216.835 299.75 222.135 284.55 223.905 280.3C225.675 276.06 227.795 273.94 227.795 273.94C227.795 273.94 238.045 277.12 242.645 277.48C247.245 277.83 249.715 275.36 250.425 278.54C251.135 281.72 252.895 284.2 250.075 289.15C247.245 294.1 244.065 295.51 244.065 295.51C244.065 295.51 253.255 294.8 258.565 291.62C263.865 288.44 267.055 286.67 267.755 288.79C268.455 290.91 266.695 294.09 266.695 294.09C266.695 294.09 276.945 296.21 280.135 301.51C283.315 306.81 287.205 306.81 278.015 317.77C268.825 328.73 266.705 330.85 263.345 330.5C259.985 330.15 256.805 326.96 256.805 326.96C256.805 326.96 257.535 346.05 252.395 351.36C247.255 356.66 234.525 363.73 229.225 366.21C223.925 368.68 216.855 368.33 214.725 371.16C212.605 373.99 212.515 376.82 212.515 376.82C212.515 376.82 214.025 383.5 221.095 386.7C228.165 389.9 241.605 386.7 241.605 386.7C241.605 386.7 245.145 398.38 243.015 412.53C240.895 426.67 237.355 435.86 233.115 440.81C228.875 445.76 217.205 447.53 217.205 447.53C217.205 447.53 234.175 458.84 240.535 460.61C246.895 462.38 248.665 467.68 249.375 475.11C250.085 482.53 249.725 538.04 248.315 545.47C246.905 552.89 247.605 557.14 250.785 558.91C253.965 560.68 259.625 556.79 260.335 563.86C261.045 570.93 263.965 613.03 261.495 624.35C259.025 635.66 246.625 637.4 246.625 637.4C246.625 637.4 252.205 638.9 255.035 641.51C257.865 644.12 260.695 653.31 263.345 660.03C265.995 666.75 263.875 675.59 263.345 679.48C262.815 683.37 260.675 683.08 260.675 683.08C260.675 683.08 274.925 683.96 283.405 679.72C291.895 675.48 293.245 675.31 293.245 672.48C293.245 669.65 292.685 667.21 292.685 667.21C292.685 667.21 292.505 668.52 292.155 664.63C291.805 660.74 283.665 651.19 280.845 647.31C278.015 643.42 274.485 637.06 274.485 637.06C274.485 637.06 278.725 636.26 279.785 634.18C280.845 632.11 281.905 631.4 281.905 626.45C281.905 621.5 280.845 599.93 280.845 599.93C280.845 599.93 282.255 591.8 281.195 584.73C280.135 577.66 277.655 563.52 278.015 558.57C278.365 553.62 280.135 492.1 280.485 489.98C280.835 487.86 282.255 480.43 282.255 480.43L281.195 454.62C281.195 454.62 289.325 450.73 290.385 448.96C291.445 447.19 285.085 413.41 285.085 402.19C285.085 390.97 289.685 363.75 291.805 351.73C293.925 339.71 298.875 330.16 298.875 317.43C298.875 304.7 292.155 294.45 285.795 289.5C279.435 284.55 270.235 277.83 270.235 277.83C270.235 277.83 282.965 277.83 295.695 273.23C308.425 268.63 323.275 264.74 340.245 251.66C357.215 238.58 366.055 228.68 373.475 217.36C380.895 206.05 388.675 189.78 380.195 163.27C371.705 136.75 355.445 123.28 344.835 117.82C334.225 112.36 313.365 103.52 294.275 104.58C275.185 105.64 270.585 108.12 265.285 110.59C259.985 113.06 252.395 117.82 252.395 117.82L252.385 117.83Z" fill="#CACACC"/>
</g>
<g style="mix-blend-mode:multiply" opacity="0.37">
<path d="M287.303 170C287.303 170 291.008 170 287.303 177.605C283.598 185.211 279.001 189.013 279.001 189.013C279.001 189.013 278.779 191.086 283.979 193.158C289.179 195.231 293.515 193.158 296.441 190.392C299.366 187.625 301 182.004 301 182.004C301 182.004 300.74 175.533 296.441 172.766C292.141 170 287.312 170 287.312 170H287.303Z" fill="#CACACC"/>
</g>
<g style="mix-blend-mode:multiply" opacity="0.37">
<path d="M240.259 147C240.259 147 239.998 150.542 238.421 154.093C236.845 157.636 235 160 235 160H237.633L244 148.479L240.259 147Z" fill="#CACACC"/>
</g>
<g style="mix-blend-mode:multiply" opacity="0.37">
<path d="M231.341 188.73C231.341 188.73 227.801 192.27 231.341 196.51C234.881 200.75 242.301 206.06 244.421 206.76C246.541 207.47 243.011 209.59 243.011 209.59C243.011 209.59 232.441 205.35 229.771 201.46C227.101 197.57 224.811 197.58 227.451 194.19C230.091 190.8 231.341 188.73 231.341 188.73Z" fill="#CACACC"/>
</g>
<g style="mix-blend-mode:multiply" opacity="0.37">
<path d="M199.878 330.86C199.878 330.86 195.278 338.64 194.218 345.71C193.158 352.78 198.458 386.71 198.458 386.71L199.868 330.86H199.878Z" fill="#CACACC"/>
</g>
<g style="mix-blend-mode:multiply" opacity="0.37">
<path d="M196.977 405.11C196.977 405.11 203.407 411.83 202.707 416.78C202.007 421.73 199.877 422.08 199.877 422.08C199.877 422.08 204.577 424.91 202.757 428.8C200.937 432.69 199.877 434.81 199.877 434.81L209.427 442.23C209.427 442.23 209.077 436.93 209.427 433.04C209.777 429.15 210.837 425.97 209.427 421.02C208.017 416.07 196.987 405.11 196.987 405.11H196.977Z" fill="#CACACC"/>
</g>
<g style="mix-blend-mode:multiply" opacity="0.37">
<path d="M216.138 474.76C216.138 474.76 222.388 530.63 221.328 539.82C220.268 549.01 218.158 550.07 218.158 550.07C218.158 550.07 217.148 555.02 220.178 563.51C222.558 570.17 223.068 594.03 223.178 603.99C223.208 606.88 222.728 609.75 221.748 612.48L218.258 622.2C218.258 622.2 223.558 627.41 221.798 634.17C220.028 640.93 210.138 644.47 210.138 644.47C210.138 644.47 194.218 648.71 192.448 651.54C190.678 654.37 191.038 659.32 191.038 659.32C191.038 659.32 196.698 661.09 205.538 661.09C214.378 661.09 227.458 659.32 227.458 659.32L233.848 648.85L237.678 635.98C237.678 635.98 230.638 626.44 230.638 618.31C230.638 610.18 232.048 600.99 232.048 600.99L235.838 570.58C235.838 570.58 232.048 567.4 231.698 562.45C231.348 557.5 226.748 522.85 226.398 516.84C226.048 510.83 225.688 482.19 225.688 482.19L216.138 474.77V474.76Z" fill="#CACACC"/>
</g>
<path d="M299.062 272.37C306.442 261.64 301.052 252.85 299.682 248.47C298.312 244.09 298.182 236.97 298.682 233.72C299.182 230.47 299.932 228.47 300.932 226.1C301.312 225.22 302.342 229.36 307.022 229.97C312.682 230.71 326.742 211.01 312.042 208.02C306.802 206.95 303.172 211.08 299.692 213.45C293.682 217.53 300.682 208.1 302.182 205.85C303.682 203.6 313.362 190.92 315.532 188.41C330.202 171.4 324.072 158.49 317.522 149.94C313.342 144.48 301.912 144.73 298.412 144.48C294.912 144.23 277.542 143.46 267.512 135.64C262.892 132.04 266.582 127.6 265.852 123.29C264.682 116.33 254.392 118.03 251.852 118.27" stroke="#4E4E4D" stroke-width="1.5" stroke-miterlimit="10"/>
<path d="M321.977 181.05C324.187 182.22 341.187 195.6 347.937 202.72C354.687 209.84 363.737 217.96 362.777 230.15" stroke="#CACACC" stroke-width="1.5" stroke-miterlimit="10"/>
<path d="M285.559 167.588C289.75 169.569 305.717 174.053 299.247 190.64" stroke="#4E4E4D" stroke-width="2" stroke-miterlimit="10"/>
<path d="M236 144C239.46 145.48 242.84 147.98 243.84 149.48" stroke="#4E4E4D" stroke-width="2" stroke-miterlimit="10"/>
<path d="M237.586 158.97C237.186 160.2 236.216 160.98 235.406 160.72C234.596 160.46 234.266 159.25 234.656 158.02C235.056 156.79 236.026 156.01 236.836 156.27C237.646 156.53 237.976 157.74 237.586 158.97Z" fill="#4E4E4D" stroke="#4E4E4D" stroke-width="1.5" stroke-miterlimit="10"/>
<path d="M281.247 190.6C282.523 190.6 283.557 189.619 283.557 188.41C283.557 187.2 282.523 186.22 281.247 186.22C279.972 186.22 278.938 187.2 278.938 188.41C278.938 189.619 279.972 190.6 281.247 190.6Z" fill="#4E4E4D" stroke="#4E4E4D" stroke-width="1.5" stroke-miterlimit="10"/>
<path d="M208.469 215.336C216.426 222.578 228.269 222.31 234.578 223.898C240.887 225.487 243.257 227.652 243.421 239.555" stroke="#4E4E4D" stroke-width="1.5" stroke-miterlimit="10"/>
<path d="M238.188 276.34C238.688 280.35 238.348 287.35 237.018 290.02C235.688 292.69 234.008 293.97 238.408 295.69C245.308 298.38 263.498 294.58 270.468 279.02" stroke="#4E4E4D" stroke-width="1.5" stroke-miterlimit="10"/>
<path d="M192.667 246.35C191.347 251.85 188.837 258.85 196.417 279.02" stroke="#4E4E4D" stroke-width="1.5" stroke-miterlimit="10"/>
<path d="M191.585 261.5C190.345 265.34 188.345 277.68 194.345 293.01C200.345 308.34 200.515 310.68 200.175 314.18C199.845 317.68 200.845 330.51 201.345 335.35C201.845 340.18 204.675 357.18 206.345 363.18C206.345 363.18 211.575 386.71 224.455 383.83C250.215 378.07 269.675 356.18 272.175 353.02" stroke="#4E4E4D" stroke-width="1.5" stroke-miterlimit="10"/>
<path d="M197.762 225.88C195.182 228.18 192.852 234.68 192.682 241.68C192.512 248.68 194.512 259.01 200.182 264.85" stroke="#4E4E4D" stroke-width="1.5" stroke-miterlimit="10"/>
<path d="M237.499 338.99C235.499 334.32 229.349 323.35 226.679 317.85C224.009 312.35 218.919 303 217.259 299.16C217.259 299.16 217.349 294.35 219.349 290.01C221.349 285.68 226.019 276.01 228.019 273.34L235.479 263.94C242.769 257.1 235.649 254.69 231.219 254.94C226.789 255.18 220.739 259.58 215.969 258.25" stroke="#4E4E4D" stroke-width="1.5" stroke-miterlimit="10"/>
<path d="M256.18 326.85C252.85 328.68 233.35 342.18 227.68 344.85" stroke="#4E4E4D" stroke-width="1.5" stroke-miterlimit="10"/>
<path d="M200.165 318.67C197.845 321.85 190.245 331.77 187.725 342.33C186.125 349.03 187.515 362.69 188.845 369.19C190.175 375.69 195.345 388.86 196.515 391.19" stroke="#4E4E4D" stroke-width="1.5" stroke-miterlimit="10"/>
<path d="M202.375 424.58C204.895 426.11 208.175 421.37 205.565 416.48C203.115 411.9 200.675 408.68 198.675 406.35C196.675 404.02 198.165 404.2 197.995 401.2C197.825 398.2 198.675 388.69 198.675 388.69C196.335 391.87 194.805 394.51 193.515 396.4C191.465 399.4 187.215 405.37 187.415 409.71C187.475 411.1 188.055 412.92 188.055 412.92C188.055 412.92 181.065 419.85 188.565 427.52" stroke="#4E4E4D" stroke-width="1.5" stroke-miterlimit="10"/>
<path d="M316.836 223.38C316.836 223.38 329.506 232.87 335.096 243.03C338.086 248.46 337.606 252.28 337.606 252.28" stroke="#CACACC" stroke-width="1.5" stroke-miterlimit="10"/>
<path d="M232.967 188.41C232.967 188.41 225.817 191.66 227.327 197.32C228.567 201.94 238.217 208.02 241.377 209.48" stroke="#4E4E4D" stroke-width="1.5" stroke-miterlimit="10"/>
<path d="M186.388 424.83C186.388 424.83 184.608 430.2 185.068 431.63C185.728 433.67 189.538 438.35 192.128 440.07C196.278 442.84 202.028 441.74 198.958 434.78" stroke="#4E4E4D" stroke-width="1.5" stroke-miterlimit="10"/>
<path d="M191.766 429.59L199.716 435.33C200.796 436.11 206.176 437.09 205.506 431.19C204.936 426.21 200.506 421.86 195.006 418.86" stroke="#4E4E4D" stroke-width="1.5" stroke-miterlimit="10"/>
<path d="M214.438 257.11C213.988 256.44 201.508 240 197.898 227.83C194.288 215.66 192.668 205.97 196.428 199.88C200.178 193.8 219.388 175.54 226.038 163.38C232.688 151.21 246.188 123.26 250.568 119.27C254.938 115.28 287.878 95.8998 324.348 108.05C336.328 112.04 360.288 125.83 370.728 140.94C388.518 166.7 387.108 206.91 362.778 230.15C323.198 267.94 307.128 270.5 283.568 276.33C258.938 282.43 227.138 274.79 227.138 274.79" stroke="#4E4E4D" stroke-width="1.5" stroke-miterlimit="10"/>
<path d="M270.456 279.02C272.466 280.99 285.466 289.33 289.196 293.08C292.926 296.83 305.916 308.35 293.426 344.85C292.226 348.37 290.676 361.1 289.176 368.6C287.676 376.1 285.026 401.02 286.156 423.17C287.326 446 292.986 448.34 290.656 449.5C267.596 461.03 254.326 464.33 241.926 460.35C233.766 457.73 202.626 437.68 200.156 435.61" stroke="#4E4E4D" stroke-width="1.5" stroke-miterlimit="10"/>
<path d="M220.742 287.06C225.602 283.68 229.572 281.25 238.412 280.35" stroke="#4E4E4D" stroke-width="1.5" stroke-miterlimit="10"/>
<path d="M264.68 308.35C263.3 311.23 252.18 321.61 250.68 322.54C249.18 323.47 249.93 326.77 251.12 330.06" stroke="#4E4E4D" stroke-width="1.5" stroke-miterlimit="10"/>
<path d="M200.94 330.85C200.02 338.68 198.74 384.68 198.68 388.68" stroke="#4E4E4D" stroke-width="1.5" stroke-miterlimit="10"/>
<path d="M198.009 441C197.849 444.35 199.869 464.52 200.279 471.52C200.679 478.52 201.179 489.02 201.349 495.52C201.519 502.02 202.349 510.19 202.179 513.02C202.009 515.85 201.679 522.349 201.179 526.349C200.679 530.349 200.849 538.85 201.349 542.18C201.849 545.51 202.179 547.35 203.349 548.68C204.519 550.01 205.519 551.01 205.519 553.51C205.519 556.01 205.019 562.01 204.519 564.68C204.019 567.35 203.689 576.18 203.849 579.51C204.019 582.84 203.849 585.51 205.519 588.18C207.189 590.85 206.519 592.009 206.349 593.349C206.179 594.689 206.229 603.68 206.619 608.02C206.619 608.02 206.649 613.839 207.149 615.169C207.659 616.499 213.359 620.84 218.179 622.5C222.999 624.17 231.849 625.289 231.849 625.289" stroke="#4E4E4D" stroke-width="1.5" stroke-miterlimit="10"/>
<path d="M215.852 473.849C218.682 474.679 226.022 480.849 226.182 483.849C226.342 486.849 225.852 492.349 226.182 497.679C226.512 503.009 226.852 515.349 227.182 520.349C227.512 525.349 230.852 553.519 231.182 557.519C231.512 561.519 233.092 569.289 234.512 571.019C236.832 573.839 235.012 581.189 234.182 583.689C233.352 586.189 232.182 590.859 231.852 594.019C231.522 597.189 232.682 600.019 232.682 602.519C232.682 605.019 232.182 606.849 231.852 610.019C231.522 613.189 231.182 624.019 232.852 628.019C234.522 632.019 238.522 635.019 241.022 636.189C243.522 637.359 261.982 646.719 278.462 636.799C282.342 634.469 282.352 622.689 282.352 622.689C282.352 620.689 280.522 599.689 281.522 597.019C282.522 594.349 282.192 590.019 281.022 584.689C279.852 579.359 279.022 569.019 279.022 565.859C279.022 562.699 278.192 554.029 278.852 546.029C279.522 538.029 280.022 520.859 280.182 515.699C280.342 510.539 279.412 494.279 281.162 488.349C284.162 478.179 284.052 457.769 281.382 453.939" stroke="#4E4E4D" stroke-width="1.5" stroke-miterlimit="10"/>
<path d="M249.75 557.519C254.35 558.519 259.35 559.189 266.18 554.689" stroke="#4E4E4D" stroke-width="1.5" stroke-miterlimit="10"/>
<path d="M206.641 546.649C207.531 548.509 212.411 553.509 218.181 551.019" stroke="#4E4E4D" stroke-width="1.5" stroke-miterlimit="10"/>
<path d="M211.629 619.24C205.689 622.18 194.849 629.51 191.189 631.84C187.519 634.17 180.079 640.3 177.859 643.17C176.269 645.21 175.189 653.17 177.189 655.84C179.189 658.51 181.499 658.68 186.339 659.32C192.389 660.12 220.669 660.58 227.519 660.12" stroke="#4E4E4D" stroke-width="1.5" stroke-miterlimit="10"/>
<path d="M237.826 634.459C237.316 637.839 235.516 644.179 233.186 648.849C230.856 653.519 230.856 654.019 229.186 656.679C227.516 659.349 226.176 662.149 227.516 665.009C233.816 678.439 277.496 675.349 283.936 671.339C289.556 667.839 292.916 666.259 291.246 663.089C289.576 659.919 284.516 652.509 282.186 648.839C279.856 645.169 276.786 640.879 274.986 637.779" stroke="#4E4E4D" stroke-width="1.5" stroke-miterlimit="10"/>
<path d="M201.312 625.29C205.682 626.35 209.493 625.29 214.923 631.18" stroke="#4E4E4D" stroke-width="1.5" stroke-miterlimit="10"/>
<path d="M190.016 632.609C193.846 633.679 217.846 640.179 217.176 651.349" stroke="#4E4E4D" stroke-width="1.5" stroke-miterlimit="10"/>
<path d="M176.5 646.97C179.87 648.8 181.17 651.35 192.67 651.54C201.18 651.69 224.47 651.66 232.33 650.59" stroke="#4E4E4D" stroke-width="1.5" stroke-miterlimit="10"/>
<path d="M246.625 646.969C253.975 644.589 258.055 643.569 269.335 645.679" stroke="#4E4E4D" stroke-width="1.5" stroke-miterlimit="10"/>
<path d="M227.117 661.849C231.847 658.009 238.157 651.569 257.347 651.349C272.347 651.179 284.707 654.549 288.177 658.049" stroke="#4E4E4D" stroke-width="1.5" stroke-miterlimit="10"/>
<path d="M227.52 660.129C226.19 663.629 222.38 673.609 229.98 676.849C259.28 689.329 286.32 679.679 290.15 676.849C293.98 674.019 294.02 668.589 291.6 665.019" stroke="#4E4E4D" stroke-width="1.5" stroke-miterlimit="10"/>
<path d="M268.539 356.64C268.539 356.64 271.639 360.24 274.309 358.78C276.979 357.32 283.789 351.24 285.499 350.27" stroke="#4E4E4D" stroke-width="1.5" stroke-miterlimit="10"/>
<path d="M250.68 322.54C250.68 322.54 260.14 328.91 264.68 336.9C271.17 348.33 274.31 358.79 274.31 358.79" stroke="#4E4E4D" stroke-width="1.5" stroke-miterlimit="10"/>
<path d="M237.761 283.709C237.761 283.709 235.051 285.589 231.211 290.209C227.371 294.829 228.691 297.239 229.561 298.749C231.211 301.599 242.261 305.059 250.671 302.869C259.091 300.679 263.491 297.749 268.531 292.399C273.571 287.049 275.271 282.439 275.271 282.439" stroke="#4E4E4D" stroke-width="1.5" stroke-miterlimit="10"/>
</svg>
