<svg width="527" height="699" viewBox="0 0 527 699" fill="none" xmlns="http://www.w3.org/2000/svg">
<path d="M40.3427 94.5365C40.3427 94.5365 38.0741 95.7813 38.109 98.9225C38.1439 102.064 37.1317 106.636 40.3427 113.581C43.5536 120.526 49.3938 128.112 52.8374 134.033C56.281 139.955 62.412 154.392 64.0873 162.967C65.7625 171.541 67.9729 195.076 71.4515 199.892C74.93 204.709 83.0154 211.805 91.1126 214.981C99.2097 218.157 115.858 224.416 122.535 224.184C129.213 223.951 132.541 223.369 132.541 223.369C132.541 223.369 130.83 227.092 130.83 229.407C130.83 231.722 130.272 236.411 134.448 236.387C138.625 236.364 145.884 236.946 152.888 232.676C159.892 228.407 166.488 223.23 169.431 219.437C172.375 215.644 174.399 212.538 174.399 212.538C174.399 212.538 169.955 212.782 169.303 207.629L168.652 202.475C168.652 202.475 185.37 183.512 190.477 174.74C195.584 165.968 203.658 148.122 203.658 148.122C203.658 148.122 202.844 143.457 196.969 141.595C191.093 139.734 175.97 136.139 175.97 136.139C175.97 136.139 180.844 138.78 182.45 132.556C184.055 126.332 179.553 112.569 177.04 111.196C174.527 109.823 171.967 107.95 169.303 110.475C166.639 112.999 165.278 117.118 165.278 117.118L164.638 124.435C164.638 124.435 160.182 100.528 157.437 94.5365C154.691 88.5451 144.826 75.1081 133.657 74.3751C122.489 73.6422 119.627 76.795 112.495 84.4616C105.364 92.1283 94.4282 102.11 83.9811 104.483C73.5339 106.857 71.9633 108.183 64.5875 101.982C57.2 95.7813 52.8025 90.9533 49.3705 91.2674C45.9385 91.5815 40.3427 94.5365 40.3427 94.5365Z" fill="#F9FAFB"/>
<path d="M188.664 288.274C188.664 288.274 190.886 308.179 191.189 311.739C191.491 315.299 191.77 319.406 191.77 319.406C191.77 319.406 176.844 325.816 169.701 329.981C162.558 334.146 149.435 340.731 149.435 340.731C149.435 340.731 137.057 329.83 130.833 329.295C124.608 328.759 120.455 328.783 117.803 329.981C115.15 331.179 111.73 332.482 111.73 332.482C111.73 332.482 104.424 330.982 99.6656 332.482C94.9074 333.983 97.6995 333.378 97.6995 333.378L97.4436 301.152L90.0794 295.394C90.0794 295.394 88.7298 302.316 87.9969 305.224C87.264 308.133 83.6924 318.394 82.2266 320.79C80.7607 323.187 77.9453 326.095 77.9453 326.095L85.5538 342.883C85.5538 342.883 96.8735 367.593 97.4436 367.291C98.0136 366.988 97.8973 344.302 97.8973 344.302L102.493 345.57C102.493 345.57 101.387 347.711 105.052 350.177L108.728 352.644C108.728 352.644 108.81 355.564 110.229 359.531C111.648 363.498 115.139 366.43 117.814 367.686C120.49 368.943 125.016 372.456 128.773 372.223C132.531 371.991 139.639 370.757 146.05 367.291C152.46 363.824 155.624 362.253 155.624 362.253C155.624 362.253 190.875 358.693 199.658 358.1C208.442 357.507 221.576 356.436 224.915 351.387C228.254 346.338 231 338.695 230.092 328.725C229.185 318.754 224.171 291.473 224.171 291.473L223.158 288.262H188.664V288.274Z" fill="#F9FAFB"/>
<path d="M42.0857 332.494C42.0857 332.494 40.2475 333.728 39.154 338.265C38.0604 342.802 36.9202 346.199 35.9779 348.886C35.0356 351.574 33.3138 353.016 34.7796 356.588C36.2455 360.16 42.8651 363.429 42.8651 363.429C42.8651 363.429 43.1094 364.522 43.9587 367.303C44.808 370.083 46.8904 371.747 49.3917 373.085C51.893 374.423 51.7533 378.32 54.1848 380.216C56.6163 382.113 60.1878 384.951 62.6658 384.195C65.1438 383.439 69.4018 381.054 72.9967 379.681C76.5915 378.308 79.0346 375.318 77.941 374.516C76.8474 373.713 73.9506 372.003 70.158 372.247C66.3654 372.491 65.3067 374.644 63.1079 374.167C60.9091 373.69 60.4554 367.303 60.4554 367.303C60.4554 367.303 64.8995 361.812 61.9097 363.429C61.9097 363.429 67.8545 362.463 69.6461 358.403C71.4377 354.343 67.4706 346.688 64.6203 348.165C61.77 349.643 57.3492 353.051 55.3598 355.064C53.3704 357.077 51.9395 358.822 50.4271 356.576C48.9147 354.331 47.9607 352.551 47.9607 352.551C47.9607 352.551 50.7412 342.116 49.3568 337.916C47.9724 333.716 47.9607 332.971 46.204 332.483C44.4473 331.994 42.0973 332.483 42.0973 332.483L42.0857 332.494Z" fill="#F9FAFB"/>
<path d="M111.362 412.011C111.362 412.011 111.525 432.707 111.048 439.048C110.571 445.388 106.406 505.023 106.557 510.991C106.708 516.959 104.079 556.549 104.347 563.425C104.614 570.3 103.812 580.119 102.776 585.796C101.741 591.474 100.007 604.469 102.055 609.588C104.102 614.706 108.035 620.186 113.293 622.676C118.552 625.165 126.684 625.735 134.734 626.026C142.785 626.317 148.241 625.828 150.556 622.129C152.871 618.429 156.42 602.468 157.571 593.23C158.723 583.993 162.167 551.151 162.167 551.151C162.167 551.151 169.461 573.278 170.38 577.781C171.299 582.283 171.578 597.733 173.719 604.876C175.86 612.019 176.825 619.755 176.825 619.755L179.804 634.891C179.804 634.891 189.599 638.835 199.721 639.603C209.842 640.371 221.104 638.311 223.71 636.857C226.315 635.403 228.538 633.658 228.538 633.658C228.538 633.658 226.804 595.708 226.025 593.102C225.245 590.496 224.466 587.541 224.466 587.541L224.617 583.411L223.023 566.577L220.859 544.776L215.798 507.722C215.798 507.722 209.667 461.92 209.074 459.197C208.481 456.475 209.923 449.6 209.923 449.6C209.923 449.6 212.134 446.226 211.634 440.455C211.133 434.685 208.411 404.786 208.411 404.786C208.411 404.786 188.017 419.317 171.067 421.108C154.116 422.9 139.667 422.283 132.977 420.341C126.288 418.398 111.397 412.011 111.397 412.011H111.362Z" fill="#E5E4E5"/>
<path d="M26.1143 312.612C26.1143 312.612 25.6955 311.414 27.7081 311.763C29.7208 312.112 59.5033 317.289 61.3996 317.626C63.2959 317.964 64.785 316.451 66.3091 318.848C67.8331 321.244 79.7694 346.734 80.8164 348.979L92.5782 374.085C93.4624 375.97 96.3708 380.984 95.3819 381.38C94.3931 381.775 74.7668 379.39 74.7668 379.39C74.7668 379.39 79.8275 378.587 78.8736 376.552C77.9196 374.516 72.696 371.886 70.1482 372.247C67.6004 372.608 63.6915 373.899 63.6915 373.899L57.9444 370.746C57.9444 370.746 58.1654 368.21 60.0152 366.197C61.865 364.185 68.1588 360.229 69.6247 358.403C71.0906 356.576 70.8695 350.003 68.7871 349.119C66.7046 348.235 63.0865 348.642 61.4229 349.875C59.7592 351.108 54.652 357.658 52.7557 357.391C50.8594 357.123 48.3581 354.773 48.1603 353.668C47.9626 352.563 49.347 339.242 49.347 337.927C49.347 336.613 48.5675 332.425 45.6474 332.273C42.7274 332.122 40.6333 333.658 40.6333 333.658L38.4345 341.301L27.3591 316.544L26.1376 312.612H26.1143Z" fill="#757574"/>
<path d="M30.5916 304.41C30.5916 304.41 31.3362 304.143 33.279 304.457C35.2219 304.771 68.7039 309.75 69.972 310.751C71.2401 311.751 73.9624 317.382 73.9624 317.382L90.052 352.9L100.045 375.621L96.6134 380.205L95.3686 379.984C95.3686 379.984 68.0175 320.046 66.3074 318.848C64.5972 317.65 42.0625 314.264 42.0625 314.264L26.5547 311.705L29.2537 306.377L30.58 304.422H30.5916V304.41Z" fill="#A8A8A8"/>
<path d="M132.535 223.358C132.535 223.358 131.627 224.172 128.184 224.172C124.74 224.172 121.529 225.161 121.529 225.161C121.529 225.161 122.018 222.113 114.584 229.012C107.15 235.911 103.148 240.739 100.053 244.996C96.9586 249.254 86.4533 271.475 84.6966 275.268C82.9399 279.06 82.1953 283.795 82.1953 283.795C82.1953 283.795 83.1493 287.576 86.6045 291.485C90.0598 295.394 97.4123 301.165 97.4123 301.165L97.6683 333.39C97.6683 333.39 101.321 331.25 102.857 331.878C104.393 332.506 110.186 333.076 110.186 333.076C110.186 333.076 118.132 329.435 121.552 329.097C124.973 328.76 130.813 327.852 134.443 329.993C138.072 332.134 149.415 340.743 149.415 340.743C149.415 340.743 157.734 336.997 162.724 334.053C167.715 331.11 180.757 323.385 184.922 321.989C189.087 320.593 191.751 319.418 191.751 319.418L190.483 305.225L188.656 294.987C188.656 294.987 195.322 291.66 203.675 290.892C212.029 290.124 223.686 290.054 223.686 290.054L226.547 302.409C226.547 302.409 235.343 299.466 235.889 296.476C236.436 293.486 234.051 282.097 230.061 272.429C226.07 262.761 212.843 238.04 205.944 231.781C199.045 225.522 185.538 216.75 184.294 216.75C183.049 216.75 176.057 211.189 176.057 211.189H172.52C172.52 211.189 176.173 210.735 172.776 215.109C169.379 219.484 159.106 230.85 150.09 233.956C141.074 237.062 134.734 237.12 132.546 234.561C130.359 232.002 130.836 229.419 130.836 229.419L132.546 223.381V223.358H132.535Z" fill="#CACACC"/>
<path d="M97.7259 344.314L102.472 345.582C102.472 345.582 102.821 348.537 105.032 350.189C107.242 351.841 108.708 352.655 108.708 352.655C108.708 352.655 108.022 357.751 109.523 360.287C111.023 362.823 115.572 366.488 117.783 367.698C119.993 368.908 122.552 370.222 124.856 371.176C127.159 372.13 129.079 373.259 134.442 371.618C139.805 369.978 155.581 362.265 155.581 362.265L175.975 360.252L207.991 357.402C207.991 357.402 207.049 368.943 207.991 372.27C208.933 375.597 211.725 402.413 211.725 402.413C211.725 402.413 218.648 399.144 205.932 406.462C193.216 413.779 174.742 420.934 163.713 422.726C152.684 424.517 130.987 420.725 123.204 417.549C115.421 414.373 98.9242 404.088 98.9242 404.088L97.6328 380.472C97.6328 380.472 100.157 377.715 100.053 375.632C99.9479 373.55 98.0167 370.478 98.0167 370.478L97.7143 344.326H97.7259V344.314Z" fill="#CACACC"/>
<path d="M38.872 96.0609C38.872 96.0609 36.9641 92.373 41.2919 81.1696C45.6196 69.9663 49.2727 60.0078 58.7309 46.9896C68.1892 33.9713 72.7031 24.4432 84.7092 17.463C96.7153 10.4827 107.674 4.56109 126.032 1.96675C144.391 -0.627586 169.159 3.51405 181.595 11.204C194.032 18.8939 196.987 26.0952 196.987 26.0952C196.987 26.0952 209.517 42.2197 211.68 61.7179C213.844 81.2162 213.414 104.088 212.402 111.22C211.39 118.351 203.676 148.134 203.676 148.134C203.676 148.134 204.386 143.829 196.987 141.607C189.588 139.385 179.315 137.338 178.466 136.989C177.617 136.64 175.93 135.488 175.93 135.488C175.93 135.488 182.305 136.325 183.038 132.033C183.771 127.74 184.457 120.55 181.025 115.42C177.593 110.289 174.185 107.543 171.439 109.254C168.694 110.964 165.564 114.687 165.273 117.13C164.982 119.573 164.633 124.447 164.633 124.447C164.633 124.447 159.456 100.703 156.711 93.1757C153.965 85.6487 139.004 70.1873 128.173 74.6664C117.342 79.1454 117.54 80.1226 108.035 88.6502C98.5302 97.1778 92.0967 102.483 84.6976 104.263C77.2985 106.043 71.1558 108.591 62.2443 100.203C53.3329 91.8146 49.5751 90.0928 45.4684 91.8146C41.3617 93.5364 38.872 96.0725 38.872 96.0725V96.0609Z" fill="#CACACC"/>
<path d="M159.039 100.191C159.039 100.191 161.505 100.703 169.382 93.8504C177.258 86.9981 181.364 81.8676 184.785 76.0507C188.205 70.2338 192.661 57.9136 194.371 51.7477C196.081 45.5817 196.977 33.2615 196.977 33.2615V26.0835C196.977 26.0835 209.797 45.3025 211.67 61.7062C213.543 78.1098 212.392 111.208 212.392 111.208C212.392 111.208 208.401 118.398 204.806 122.9C201.212 127.402 197.559 131.556 194.08 134.441C190.602 137.326 186.518 138.408 186.518 138.408L175.92 135.488C175.92 135.488 180.585 135.639 183.028 132.032C185.471 128.426 183.761 120.213 181.015 115.419C178.27 110.626 174.512 107.206 171.429 109.254C168.346 111.301 168.567 110.056 166.915 113.593C165.263 117.13 165.089 126.146 165.089 126.146L159.039 100.179V100.191Z" fill="#E5E4E5"/>
<path d="M104.187 614.928L88.4698 622.339L78.4531 627.097C78.4531 627.097 85.5381 629.645 90.529 632.611C95.5199 635.578 105.339 642.244 108.05 645.211C110.76 648.178 114.204 653.459 114.53 654.809L114.867 656.158L139.321 646.851C139.321 646.851 138.39 642.268 141.101 637.067C143.812 631.867 148.302 625.631 148.302 625.631L147.36 623.968C147.36 623.968 139.554 627.318 131.678 627.097C123.802 626.876 120.184 626.736 113.389 622.874C106.595 619.012 104.199 614.917 104.199 614.917H104.187V614.928Z" fill="#CACACC"/>
<path d="M185.654 638.103L184.805 648.911V657.182L202.674 674.575C202.674 674.575 203.849 667.629 211.4 665.047C218.95 662.464 224.139 660.707 231.375 660.265C238.611 659.823 251.85 658.194 251.85 658.194C251.85 658.194 240.88 651.365 235.516 648.154C230.153 644.943 226.907 643.082 225.523 640.581C224.139 638.08 223.766 637.067 223.766 637.067C223.766 637.067 216.844 640.686 209.899 640.581C202.953 640.476 185.642 638.103 185.642 638.103H185.654Z" fill="#CACACC"/>
<path d="M79.5522 626.585C79.5522 626.585 71.6528 630.098 67.4414 634.007C63.23 637.916 58.7044 641.255 58.7742 644.408C58.844 647.561 59.9143 657.182 59.9143 657.182C59.9143 657.182 59.6468 659.299 63.1834 661.545C66.7201 663.79 75.1663 670.188 81.495 670.735C87.8238 671.282 90.7904 671.852 101.11 668.862C111.429 665.872 130.683 659.637 136.628 657.194C142.572 654.75 148.261 653.796 149.192 650.923C150.123 648.049 150.169 637.09 150.169 637.09L148.308 625.654C148.308 625.654 146.598 627.26 144.573 630.703C142.549 634.147 140.374 635.392 140.106 639.452C139.839 643.512 139.338 646.863 139.338 646.863L114.884 656.17C114.884 656.17 112.557 649.352 108.067 645.222C103.576 641.092 97.1658 635.939 90.5461 632.623C83.9265 629.307 79.5638 626.597 79.5638 626.597L79.5522 626.585Z" fill="#E5E4E5"/>
<path d="M184.816 657.182L201.452 674.574C201.452 674.574 203.919 667.513 211.411 665.046C218.903 662.58 230.746 660.218 238.006 659.706C245.265 659.195 251.862 659.357 251.862 659.357C251.862 659.357 257.807 662.848 259.447 666.594C261.087 670.34 262.576 676.18 261.983 679.728L261.39 683.277L258.656 692.351C258.656 692.351 249.465 696.458 240.716 697.004C231.968 697.551 218.252 698.214 211.423 693.293C204.594 688.372 184.234 665.744 184.234 665.744L184.816 657.159V657.182Z" fill="#E5E4E5"/>
<g style="mix-blend-mode:multiply" opacity="0.37">
<path d="M261.752 670.526C257.68 663.651 256.016 660.614 251.491 657.427C246.965 654.239 232.481 645.874 232.481 645.874C232.481 645.874 226.92 643.326 225.164 639.825L223.407 636.311L228.235 633.112C228.235 633.112 227.793 602.085 226.199 595.477C224.605 588.88 224.314 582.854 224.314 582.854L222.837 568.23C222.837 568.23 220.498 547.022 220.568 544.23C220.638 541.438 219.544 530.037 218.73 525.395C217.904 520.764 212.134 488.783 211.459 482.722C210.784 476.661 208.411 453.789 208.69 452.416C208.969 451.043 211.145 448.123 211.25 444.016C211.354 439.91 209.47 417.724 208.993 413.07C208.504 408.417 208.039 404.019 208.039 404.019C208.039 404.019 211.994 402.786 211.982 400.704C211.982 398.621 211.203 389.186 209.481 381.077C207.759 372.969 207.375 367.687 207.655 362.649C207.945 357.612 208.225 355.809 208.225 355.809C208.225 355.809 213.041 355.739 218.486 353.412C223.93 351.085 226.257 349.201 227.06 347.398C227.863 345.594 230.55 332.169 229.701 325.328C228.851 318.488 226.199 301.63 226.199 301.63C226.199 301.63 235.227 298.256 235.378 296.977C235.529 295.697 236.39 294.208 236.39 294.208C236.39 294.208 230.573 271.51 225.419 261.354C220.266 251.186 212.203 236.562 204.618 230.036C197.033 223.509 181.165 217.925 181.165 217.925L179.082 215.54L175.487 212.341L171.439 210.258C171.439 210.258 168.321 207.78 168.507 205.14C168.681 202.487 171.834 199.532 171.834 199.532C171.834 199.532 183.805 184.815 189.762 174.589C195.707 164.363 205.165 145.063 207.771 133.289C210.377 121.516 214.856 96.5613 213.623 81.9841C212.39 67.407 209.016 43.9998 203.327 35.3791C197.638 26.7585 186.97 7.4231 159.421 3.80499C131.872 0.18688 119.04 3.53741 119.04 3.53741C119.04 3.53741 131.174 10.9714 130.488 25.3275C129.813 39.6836 118.877 66.0109 114.514 73.5263C110.152 81.0418 107.697 84.2062 107.697 84.2062L103.125 92.0241C103.125 92.0241 122.042 69.6639 137.561 88.278C153.069 106.892 145.309 123.645 145.309 123.645C145.309 123.645 143.145 119.829 137.049 120.76C131.919 121.551 116.783 125.18 116.783 125.18C116.783 125.18 124.834 122.109 127.835 128.089C128.952 130.311 128.952 136.884 128.952 136.884C128.952 136.884 143.192 136.454 153.592 144.923C163.993 153.381 170.834 184.362 161.934 197.333C147.124 218.891 149.044 215.028 149.044 215.028C149.044 215.028 152.604 211.294 153.36 214.889C154.581 220.752 158.769 228.593 152.01 232.921C148.613 235.097 145.437 233.584 144.821 237.447C143.343 246.754 147.892 338.056 147.892 338.056L149.73 340.894C149.73 340.894 167.553 330.005 174.056 326.596C180.56 323.176 191.402 318.639 191.402 318.639L190.134 304.446L175.627 299.594C175.627 299.594 174.231 288.368 174.056 284.494C173.882 280.62 171.066 264.53 171.066 264.53C171.066 264.53 170.054 255.781 178.105 250.092C186.155 244.404 197.208 249.825 203.315 261.331C209.423 272.837 211.273 284.017 209.551 286.797C207.841 289.578 199.592 290.694 199.592 290.694C199.592 290.694 211.587 295.104 213.6 303.62C215.612 312.136 220.021 334.472 209.551 338.044C199.069 341.616 170.171 344.431 161.876 348.189C153.581 351.946 141.493 356.6 134.094 356.6C126.695 356.6 123.647 358.136 120.087 356.6C116.527 355.064 108.337 351.865 108.337 351.865C108.337 351.865 106.697 358.077 110.233 361.474C113.77 364.872 120.238 369.327 124.496 370.398C128.754 371.468 128.65 373.015 135.781 370.398C142.913 367.78 146.798 365.953 146.798 365.953C146.798 365.953 151.033 376.552 149.718 389.07C148.404 401.588 152.918 401.076 144.192 408.836C135.467 416.595 126.846 418.131 126.846 418.131C126.846 418.131 157.513 431.591 171.055 439.863C184.596 448.135 185.783 451.543 188.296 458.628C190.797 465.713 195.288 505.373 195.369 518.635C195.451 531.898 194.497 543.276 191.391 543.276C188.284 543.276 196.16 546.894 203.304 564.473C210.447 582.051 214.332 611.962 209.539 621.571C204.746 631.181 196.928 637.335 196.928 637.335C196.928 637.335 229.305 655.158 236.425 658.939C243.533 662.72 252.282 673.749 252.387 680.299C252.491 686.849 252.387 694.213 252.387 694.213L258.529 691.316C258.529 691.316 265.824 677.39 261.763 670.526H261.752ZM179.001 113.954C177.919 113.046 173.475 113.57 171.52 116.339C167.565 121.935 168.879 132.545 168.879 132.568C168.879 132.591 164.645 124.843 164.645 124.843C164.645 123.912 164.866 117.188 166.471 113.756C168.076 110.324 171.369 109.917 172.939 109.3C174.836 108.556 177.279 110.813 178.465 112.546" fill="#CACACC"/>
</g>
<g style="mix-blend-mode:multiply" opacity="0.37">
<path d="M57.1328 135.475C57.1328 135.475 57.8309 134.091 61.0883 136.138C64.3458 138.186 66.1257 140.187 65.9861 142.607C65.8465 145.027 64.9391 145.271 64.9391 145.271L67.9522 148.051C67.9522 148.051 68.3129 148.331 69.6042 144.771C70.8956 141.211 68.4525 132.555 68.4525 132.555C68.4525 132.555 62.0539 133.09 59.7621 133.777C57.4702 134.463 57.1445 135.475 57.1445 135.475H57.1328Z" fill="#CACACC"/>
</g>
<g style="mix-blend-mode:multiply" opacity="0.37">
<path d="M88.3039 161.804C88.3039 161.804 87.5593 163.781 88.3039 168.226C89.0484 172.67 94.4116 179.894 108.151 175.927C112.956 174.543 114.573 171.972 114.573 171.972C114.573 171.972 111.502 179.918 106.325 180.941C101.148 181.965 99.9144 182.896 91.1192 181.43C86.4774 180.65 83.8481 176.323 84.709 173.123C85.5699 169.924 88.3039 161.804 88.3039 161.804Z" fill="#CACACC"/>
</g>
<g style="mix-blend-mode:multiply" opacity="0.37">
<path d="M102.469 262.121C102.469 262.121 99.5024 265.868 97.42 270.056C95.3375 274.244 90.5327 290.857 88.8226 291.485C87.1124 292.113 88.8226 294.103 88.8226 294.103C88.8226 294.103 93.9531 302.177 94.1858 305.225C94.4184 308.273 91.1261 333.378 91.1261 333.378L90.0674 334.891L97.6875 333.378V300.362C97.6875 300.362 100.584 270.765 101.108 268.194C101.631 265.623 102.469 262.11 102.469 262.11V262.121Z" fill="#CACACC"/>
</g>
<g style="mix-blend-mode:multiply" opacity="0.37">
<path d="M90.0528 344.315L85.5156 342.896L92.0887 357.391L97.417 369.141L97.7078 344.315H90.0528Z" fill="#CACACC"/>
</g>
<g style="mix-blend-mode:multiply" opacity="0.37">
<path d="M43.958 332.494C43.958 332.494 46.4244 331.878 46.1917 338.835C45.9591 345.792 43.3298 352.318 42.085 354.878C40.8402 357.437 37.1406 359.555 37.1406 359.555L43.3996 362.265C43.3996 362.265 45.4937 360.032 48.0648 359.555C50.6358 359.078 52.2529 357.402 52.2529 357.402C52.2529 357.402 47.5994 356.099 47.9484 352.574C48.2974 349.049 49.6237 345.78 49.391 340.743C49.1584 335.705 49.2747 334.414 47.5994 333.402C45.9241 332.39 43.958 332.506 43.958 332.506V332.494Z" fill="#CACACC"/>
</g>
<g style="mix-blend-mode:multiply" opacity="0.37">
<path d="M45.0078 370.467C45.0078 370.467 55.9087 366.29 61.4231 360.694C66.9375 355.098 68.2405 349.782 67.1237 348.979C66.0068 348.176 69.8809 348.165 70.6603 351.399C71.4398 354.633 71.6841 356.483 70.6603 357.437C69.6366 358.391 68.5779 358.705 64.6108 361.799C60.6436 364.894 58.9684 366.627 58.1773 369.14C57.3862 371.653 53.0468 374.562 52.2557 374.213C51.4646 373.864 48.8586 374.05 46.939 372.258L45.0195 370.467H45.0078Z" fill="#CACACC"/>
</g>
<g style="mix-blend-mode:multiply" opacity="0.37">
<path d="M56.1875 381.844C56.5132 382.065 62.2138 382.601 66.3205 379.809C70.4273 377.016 71.6139 371.816 73.9523 372.619C76.2907 373.422 79.3271 374.434 78.8385 375.841C78.3499 377.249 77.8845 376.993 72.9867 379.681C68.0889 382.368 67.9376 384.334 64.5987 384.218C61.2598 384.101 56.1991 381.844 56.1991 381.844H56.1875Z" fill="#CACACC"/>
</g>
<g style="mix-blend-mode:multiply" opacity="0.37">
<path d="M135.037 454.812C135.037 454.812 141.249 483.256 138.69 515.179C136.131 547.102 133.327 552.687 133.327 552.687C133.327 552.687 135.421 585.773 133.327 603.014C131.233 620.256 127.731 625.13 127.731 625.13C127.731 625.13 118.226 624.77 117.668 624.595C117.109 624.421 118.11 631.296 113.13 637.078C108.151 642.86 102.928 647.048 93.0738 648.456C83.22 649.864 69.2478 653.808 67.8401 657.193C66.4324 660.578 66.7 663.801 66.7 663.801C66.7 663.801 78.0895 671.538 87.6525 671.305C97.2155 671.072 117.086 664.418 127.824 660.427C138.562 656.437 149.184 650.934 149.184 650.934C149.184 650.934 150.824 644.454 150.312 638.125C149.8 631.797 148.043 625.154 148.043 625.154L151.429 622.373C151.429 622.373 158.235 588.798 158.328 588.077C158.421 587.355 161.457 560.365 161.457 560.365L162.946 553.629L151.429 492.121L145.566 457.22L135.037 454.823V454.812Z" fill="#CACACC"/>
</g>
<g style="mix-blend-mode:multiply" opacity="0.37">
<path d="M26.1269 312.612C26.1269 312.612 25.4754 311.367 27.7207 311.763C29.9661 312.158 56.2003 316.719 56.2003 316.719L71.8594 312.693L93.9171 361.392L100.071 375.807L95.3945 381.379L82.2134 380.356L74.1745 379.495C74.1745 379.495 79.3283 378.331 78.828 375.842C78.3278 373.352 74.8376 371.921 71.2428 372.27C67.6479 372.619 63.6924 373.91 63.6924 373.91C63.6924 373.91 58.9342 372.037 58.1548 371.316C57.3753 370.595 58.7481 366.779 61.0632 364.801C63.3783 362.823 70.6378 357.46 70.6378 357.46C70.6378 357.46 72.9413 352.795 70.1143 350.212C67.2873 347.63 66.0541 347.49 63.1224 348.898C60.1907 350.305 56.0839 354.656 54.1644 356.029C52.2448 357.402 50.4066 356.599 50.4066 356.599L47.9403 352.574L49.3829 335.798C49.3829 335.798 47.3935 332.064 45.0086 332.11C42.6236 332.157 40.6226 333.669 40.6226 333.669L38.4238 341.313L29.5356 322.594L26.1269 312.624V312.612Z" fill="#CACACC"/>
</g>
<path d="M196.987 26.0835C196.987 46.7917 189.03 84.9621 159.945 100.191" stroke="#CACACC" stroke-width="0.5" stroke-miterlimit="10"/>
<path d="M186.523 138.245C196.982 136.79 212.723 113.476 212.723 107.543" stroke="#CACACC" stroke-width="0.5" stroke-miterlimit="10"/>
<path d="M224.144 291.485C225.505 296.139 233.649 332.006 228.216 346.362C225.645 353.156 221.363 353.633 211.928 355.867C197.584 359.264 170.338 361.486 157.633 361.881C154.958 361.963 152.596 363.824 150.851 364.79C149.106 365.755 132.039 375.458 124.873 371.188C117.695 366.919 107.224 365.756 108.713 352.667" stroke="#4E4E4D" stroke-width="1.2" stroke-miterlimit="10"/>
<path d="M122.545 359.543C121.288 354.89 103.931 354.89 102.477 345.583" stroke="#4E4E4D" stroke-width="1.2" stroke-miterlimit="10"/>
<path d="M118.765 345.582C114.112 345.582 94.6483 345.896 85.5391 342.883" stroke="#4E4E4D" stroke-width="1.2" stroke-miterlimit="10"/>
<path d="M83.0078 337.311C85.6254 336.345 99.6674 332.308 104.414 332.506C109.161 332.704 114.791 333.96 119.34 333.96C123.889 333.96 126.809 334.251 130.101 334.053" stroke="#4E4E4D" stroke-width="1.2" stroke-miterlimit="10"/>
<path d="M103.242 335.798C102.661 337.055 102.172 339.184 102.754 340.731" stroke="#4E4E4D" stroke-width="1.2" stroke-miterlimit="10"/>
<path d="M117.781 348.979C118.165 349.945 118.165 351.108 118.747 351.399" stroke="#4E4E4D" stroke-width="1.2" stroke-miterlimit="10"/>
<path d="M123.219 362.265C123.51 363.626 122.637 365.755 125.836 367.303" stroke="#4E4E4D" stroke-width="1.2" stroke-miterlimit="10"/>
<path d="M48.2611 358.717C46.6091 357.46 47.7841 354.214 48.168 350.922C48.5519 347.63 48.8428 341.882 49.3198 337.927C49.9712 332.494 42.7816 330.097 40.606 333.657C39.1751 336.007 38.3374 344.104 35.9525 348.874C33.7188 353.33 34.8822 357.891 37.1159 359.543C39.3496 361.195 42.3511 361.869 42.8397 363.417" stroke="#4E4E4D" stroke-width="1.2" stroke-miterlimit="10"/>
<path d="M44.3913 361.578C43.8097 363.812 43.1349 370.618 46.9159 372.258C50.6969 373.899 52.1511 372.63 52.2442 376.609C52.3372 380.588 59.9225 384.578 62.6448 384.195C65.3671 383.811 70.1602 380.844 72.9756 379.681C75.791 378.517 81.0262 377.424 77.92 374.515C74.8137 371.607 68.008 371.711 63.6918 373.899C63.6918 373.899 57.8749 372.247 57.9447 370.746C58.1076 367.023 63.0985 362.265 69.6251 358.402C73.8016 355.936 70.3231 345.349 63.1334 348.886C55.9437 352.423 52.2558 362.579 47.8001 352.969" stroke="#4E4E4D" stroke-width="1.2" stroke-miterlimit="10"/>
<path d="M90.0675 295.395C88.6133 300.967 86.845 318.069 77.9219 326.096" stroke="#4E4E4D" stroke-width="1.2" stroke-miterlimit="10"/>
<path d="M183.039 216.737C220.849 229.441 234.996 285.83 236.752 294.975C237.45 298.593 230.33 301.106 226.561 302.397" stroke="#4E4E4D" stroke-width="1.2" stroke-miterlimit="10"/>
<path d="M171.414 265.309C177.208 279.072 171.344 298.78 177.208 301.374C180.942 303.026 186.875 305.376 190.482 305.213" stroke="#4E4E4D" stroke-width="1.2" stroke-miterlimit="10"/>
<path d="M235.895 296.464C234.417 288.239 198.259 286.296 175.992 300.361" stroke="#4E4E4D" stroke-width="1.2" stroke-miterlimit="10"/>
<path d="M97.7109 344.314C97.7109 348.886 97.9669 362.719 98.0134 370.467" stroke="#4E4E4D" stroke-width="1.2" stroke-miterlimit="10"/>
<path d="M128.734 454.358C132.271 454.684 136.878 454.335 145.557 457.197C147.337 457.778 149.28 458.511 151.42 459.395" stroke="#4E4E4D" stroke-width="1.2" stroke-miterlimit="10"/>
<path d="M104.182 614.928C101.809 616.114 81.2521 625.666 76.6451 627.992C72.0381 630.319 59.4038 638.242 58.8919 646.304C58.3801 654.366 59.0781 659.59 65.5465 663.138C72.0265 666.687 78.8439 672.852 91.6992 670.933C104.555 669.013 136.129 657.787 142.562 654.739C148.996 651.691 150.299 652.005 150.206 644.885C150.136 638.765 150.636 628.563 147.344 623.99" stroke="#4E4E4D" stroke-width="1.2" stroke-miterlimit="10"/>
<path d="M58.8984 646.305C61.0972 649.655 72.5798 660.568 88.1109 661.499C97.511 662.069 113.81 656.787 122.559 653.401C131.307 650.016 145.628 644.397 150.294 642.454" stroke="#4E4E4D" stroke-width="1.2" stroke-miterlimit="10"/>
<path d="M78.4531 627.108C81.7804 627.504 112.238 641.988 114.855 656.17" stroke="#4E4E4D" stroke-width="1.2" stroke-miterlimit="10"/>
<path d="M93.0781 625.13C97.6386 625.037 103.048 628.702 106.038 632.611" stroke="#4E4E4D" stroke-width="1.2" stroke-miterlimit="10"/>
<path d="M98.9297 622.35C101.745 622.385 106.782 622.094 113.123 628.934" stroke="#4E4E4D" stroke-width="1.2" stroke-miterlimit="10"/>
<path d="M148.297 625.642C145.714 629.062 138.734 637.09 139.316 646.862" stroke="#4E4E4D" stroke-width="1.2" stroke-miterlimit="10"/>
<path d="M185.65 638.102C185.184 653.191 184.265 660.881 184.219 665.768C184.196 667.478 188.384 672.085 191.001 674.574C193.619 677.064 206.66 694.189 219.807 696.69C232.953 699.191 251.462 695.841 255.802 694.038C260.141 692.234 259.164 691.327 260.525 686.499C261.886 681.671 265.888 668.792 251.846 658.194C237.804 647.596 226.705 646.269 223.774 637.079" stroke="#4E4E4D" stroke-width="1.2" stroke-miterlimit="10"/>
<path d="M184.797 657.183C187.961 659.928 212.369 686.395 219.896 687.989C229.634 690.048 251.342 691.677 261.371 683.301" stroke="#4E4E4D" stroke-width="1.2" stroke-miterlimit="10"/>
<path d="M205.961 649.655C207.462 647.293 212.406 642.652 223.214 645.118" stroke="#4E4E4D" stroke-width="1.2" stroke-miterlimit="10"/>
<path d="M211.406 654.809C213.524 652.819 218.363 649.876 229.636 651.272" stroke="#4E4E4D" stroke-width="1.2" stroke-miterlimit="10"/>
<path d="M202.281 676.041C203.747 671.678 202.177 659.986 252.737 658.893" stroke="#4E4E4D" stroke-width="1.2" stroke-miterlimit="10"/>
<path d="M38.4188 341.301L26.1219 313.81C25.6449 312.74 26.5524 311.565 27.7157 311.763L64.9206 318.231C65.956 318.406 66.8402 319.08 67.2823 320.034L95.2499 379.751C95.7386 380.798 94.8777 381.973 93.7375 381.833L74.0183 379.285" stroke="#4E4E4D" stroke-width="1.2" stroke-miterlimit="10"/>
<path d="M95.377 381.367L99.0416 377.912C100.647 376.516 99.9956 374.829 99.4139 373.55L71.8302 312.67C71.2718 311.425 70.12 310.553 68.7705 310.331L33.2758 304.433C31.7518 304.189 30.2277 304.805 29.2854 306.015L26.1094 312.588" stroke="#4E4E4D" stroke-width="1.2" stroke-miterlimit="10"/>
<path d="M163.379 208.42C164.007 207.954 174.791 197.309 185.122 182.767C195.453 168.225 206.703 148.052 211.403 118.327C216.103 88.603 217.034 45.9186 190.451 18.2302C165.403 -7.85279 99.2764 -4.53716 71.7392 29.4917C49.2162 57.3314 32.8707 87.8701 39.6765 111.44C43.7483 125.517 52.5668 129.182 59.5354 147.098C67.2021 166.805 67.6442 194.994 72.5187 201.835C82.5238 215.912 114.587 222.787 120.38 223.73C126.174 224.672 133.049 224.358 142.124 219.821C151.198 215.283 153.897 212.526 153.897 212.526" stroke="#4E4E4D" stroke-width="1.2" stroke-miterlimit="10"/>
<path d="M84.7031 154.299C84.7031 154.299 89.5544 157.58 88.298 161.803C87.0415 166.026 81.2014 177.287 88.5074 180.568C95.8134 183.849 115.044 182.441 114.579 171.971" stroke="#4E4E4D" stroke-width="1.2" stroke-miterlimit="10"/>
<path d="M68.4523 132.555C68.4523 132.555 57.2839 133.37 56.0972 135.371C54.9106 137.372 55.4806 138.395 55.4806 138.395" stroke="#4E4E4D" stroke-width="1.2" stroke-miterlimit="10"/>
<path d="M118.634 124.424C117.948 124.529 123.52 123.726 137.144 120.073C140.925 119.061 145.066 121.295 146.474 122.155" stroke="#4E4E4D" stroke-width="1.2" stroke-miterlimit="10"/>
<path d="M64.9336 145.272L69.0403 144.19C69.3893 144.097 69.7034 144.423 69.5871 144.772L68.6099 147.796C68.5168 148.076 68.191 148.204 67.9351 148.041L64.794 146.098C64.4566 145.888 64.5264 145.365 64.9219 145.272H64.9336Z" fill="#4E4E4D"/>
<path d="M127.648 135.184L133.803 134.044C134.268 133.963 134.617 134.475 134.349 134.882L132.267 138.011C132.116 138.232 131.825 138.314 131.581 138.198L127.497 136.208C127.032 135.975 127.125 135.277 127.637 135.184H127.648Z" fill="#4E4E4D"/>
<path d="M91.1328 199.659C93.9482 207.512 116.622 207.791 128.198 194.657" stroke="#4E4E4D" stroke-width="1.2" stroke-miterlimit="10"/>
<path d="M38.1172 98.9337C38.1172 98.9337 38.6174 92.5002 47.6453 91.2787C56.6731 90.0571 63.9093 109.16 79.708 105.67C106.605 99.7248 114.877 72.4436 133.666 74.3864C152.454 76.3293 157.91 93.1517 159.318 101.598C160.726 110.044 165.1 126.157 165.1 126.157C165.1 126.157 162.913 110.521 172.139 109.579C181.364 108.636 187.158 129.6 182.458 132.567C179.549 134.417 177.362 135.092 176.117 135.336C175.838 135.394 175.815 135.79 176.082 135.871C178.165 136.581 182.911 138.081 188.24 139.128C195.429 140.536 201.572 142.398 203.666 148.121" stroke="#4E4E4D" stroke-width="1.2" stroke-miterlimit="10"/>
<path d="M132.535 223.358C132.535 223.358 133.291 223.742 132.535 225.778C131.779 227.814 131.127 229.372 130.825 231.722C130.522 234.073 135.734 238.703 147.159 235.003C165.086 229.221 174.405 212.538 174.405 212.538C170.799 210.177 167.518 207.105 168.658 202.475" stroke="#4E4E4D" stroke-width="1.2" stroke-miterlimit="10"/>
<path d="M171.426 210.247C171.426 210.247 174.09 210.596 176.056 211.177C178.022 211.759 183.036 216.738 183.036 216.738C183.036 216.738 173.392 231.106 159.001 239.855C148.426 246.276 133.511 247.835 125.682 240.948C117.852 234.061 128.183 224.172 128.183 224.172" stroke="#4E4E4D" stroke-width="1.2" stroke-miterlimit="10"/>
<path d="M124.744 224.172C124.744 224.172 119.032 225.149 112.505 230.629C105.979 236.108 97.1371 247.428 90.0638 262.563C82.9904 277.699 82.2109 283.807 82.2109 283.807C82.2109 283.807 85.4917 293.812 97.4279 301.164" stroke="#4E4E4D" stroke-width="1.2" stroke-miterlimit="10"/>
<path d="M191.77 319.406C191.77 319.406 190.805 302.339 188.664 294.975" stroke="#4E4E4D" stroke-width="1.2" stroke-miterlimit="10"/>
<path d="M110.195 333.064L118.269 329.981C118.269 329.981 123.435 327.712 130.81 329.295C138.186 330.877 149.413 338.823 150.076 341.673" stroke="#4E4E4D" stroke-width="1.2" stroke-miterlimit="10"/>
<path d="M149.422 340.731C150.236 340.417 154.459 339.021 163.848 333.39C173.236 327.759 184.184 322.129 187.464 320.872C190.745 319.616 192.944 318.894 194.189 319.418" stroke="#4E4E4D" stroke-width="1.2" stroke-miterlimit="10"/>
<path d="M102.463 262.122C96.3667 285.273 97.3555 327.608 97.6696 333.39" stroke="#4E4E4D" stroke-width="1.2" stroke-miterlimit="10"/>
<path d="M97.6562 380.46L98.9476 404.077C103.869 408.172 152.987 445.831 211.737 402.402C214.681 400.226 205.723 370.991 208.585 356.588" stroke="#4E4E4D" stroke-width="1.2" stroke-miterlimit="10"/>
<path d="M162.236 551.361C162.038 556.98 156.861 603.701 154.721 612.426C152.58 621.152 151.707 626.178 135.222 626.561C118.737 626.945 108.011 622.827 103.16 612.554C98.3083 602.282 103.497 585.331 103.939 575.64C104.474 564.1 107.604 479.603 109.547 460.221L111.14 439.269L111.454 412.232" stroke="#4E4E4D" stroke-width="1.2" stroke-miterlimit="10"/>
<path d="M144.562 456.883C144.562 456.883 152.741 499.323 154.312 509.805C155.882 520.287 161.234 547.731 163.584 556.026C165.934 564.321 170.099 574.942 171.192 581.353C172.286 587.763 173.217 605.877 174.938 610.728C176.66 615.579 178.626 633.286 179.883 635.112C179.883 635.112 188.399 639.859 200.602 640.487C212.806 641.115 223.498 638.8 228.617 633.879C228.617 633.879 227.511 598.326 226.104 593.324C224.696 588.321 224.068 588.158 224.696 583.621C225.324 579.084 220.531 550.546 220.938 544.985C221.346 539.424 220.171 530.653 216.413 511.887C212.655 493.122 208.269 458.337 209.049 453.171C209.828 448.006 212.015 448.797 211.713 440.665C211.41 432.533 208.397 404.775 208.397 404.775" stroke="#4E4E4D" stroke-width="1.2" stroke-miterlimit="10"/>
<path d="M108.047 538.622C108.047 538.622 110.199 545.893 114.864 545.893" stroke="#4E4E4D" stroke-width="1.2" stroke-miterlimit="10"/>
<path d="M188.664 544.055C188.664 544.055 194.528 548.708 198.413 547.545C202.299 546.381 205.952 544.055 205.952 544.055" stroke="#4E4E4D" stroke-width="1.2" stroke-miterlimit="10"/>
<path d="M66.3203 318.847L71.2414 311.739" stroke="#4E4E4D" stroke-width="0.25" stroke-miterlimit="10"/>
<path d="M258.233 185.781C259.131 183.017 263.041 183.017 263.939 185.781L267.148 195.657C267.549 196.893 268.701 197.729 270.001 197.729H280.385C283.291 197.729 284.499 201.448 282.148 203.157L273.747 209.26C272.696 210.024 272.256 211.378 272.658 212.614L275.866 222.489C276.764 225.253 273.601 227.552 271.25 225.843L262.849 219.74C261.798 218.976 260.374 218.976 259.323 219.74L250.922 225.843C248.571 227.552 245.407 225.253 246.306 222.489L249.514 212.614C249.916 211.378 249.476 210.024 248.424 209.26L240.024 203.157C237.673 201.448 238.881 197.729 241.787 197.729H252.171C253.471 197.729 254.622 196.893 255.024 195.657L258.233 185.781Z" fill="#17A1E9"/>
<path d="M302.868 134.881C304.451 132.444 308.228 133.456 308.38 136.358L308.685 142.166C308.753 143.463 309.649 144.57 310.904 144.906L316.522 146.412C319.329 147.164 319.534 151.069 316.82 152.11L311.391 154.194C310.178 154.66 309.402 155.854 309.47 157.152L309.775 162.96C309.927 165.862 306.276 167.263 304.447 165.005L300.787 160.485C299.969 159.475 298.594 159.107 297.381 159.572L291.951 161.657C289.238 162.698 286.777 159.659 288.36 157.222L291.528 152.344C292.235 151.254 292.161 149.833 291.343 148.822L287.683 144.303C285.854 142.044 287.984 138.765 290.791 139.517L296.408 141.022C297.664 141.359 298.993 140.848 299.701 139.758L302.868 134.881Z" fill="#17A1E9"/>
<path d="M31.8259 213.3C32.8811 211.675 35.3991 212.35 35.5005 214.284L36.004 223.891C36.0494 224.756 36.6467 225.494 37.4836 225.718L46.7758 228.208C48.6473 228.71 48.7837 231.313 46.9749 232.007L37.9939 235.455C37.185 235.765 36.668 236.561 36.7134 237.426L37.2168 247.033C37.3182 248.968 34.8846 249.902 33.6653 248.397L27.6112 240.92C27.0659 240.247 26.1491 240.001 25.3402 240.312L16.3591 243.759C14.5504 244.454 12.9098 242.428 13.9651 240.803L19.2045 232.735C19.6764 232.008 19.6267 231.06 19.0814 230.387L13.0274 222.911C11.8081 221.405 13.2279 219.219 15.0993 219.72L24.3915 222.21C25.2284 222.435 26.1146 222.094 26.5865 221.368L31.8259 213.3Z" fill="#17A1E9"/>
<path d="M366.629 121.794C366.832 117.925 371.868 116.575 373.978 119.825L381.744 131.783C382.688 133.237 384.46 133.917 386.134 133.468L399.907 129.778C403.65 128.775 406.489 133.148 404.051 136.159L395.077 147.24C393.987 148.587 393.887 150.483 394.831 151.936L402.597 163.894C404.707 167.144 401.426 171.196 397.809 169.807L384.497 164.697C382.879 164.076 381.046 164.568 379.955 165.914L370.982 176.995C368.543 180.007 363.676 178.138 363.879 174.269L364.625 160.03C364.716 158.299 363.682 156.707 362.064 156.086L348.752 150.976C345.135 149.587 345.408 144.381 349.151 143.378L362.923 139.688C364.597 139.239 365.792 137.764 365.883 136.033L366.629 121.794Z" fill="#17A1E9"/>
<path d="M421.831 30.6353C423.327 26.0287 429.844 26.0287 431.341 30.6353L436.577 46.7487C437.246 48.8089 439.166 50.2037 441.332 50.2037H458.275C463.118 50.2037 465.132 56.4017 461.214 59.2487L447.507 69.2074C445.754 70.4806 445.021 72.7375 445.69 74.7976L450.926 90.9111C452.423 95.5176 447.15 99.3483 443.232 96.5013L429.525 86.5426C427.772 85.2694 425.399 85.2694 423.647 86.5426L409.94 96.5013C406.021 99.3483 400.749 95.5176 402.246 90.9111L407.481 74.7976C408.151 72.7375 407.418 70.4806 405.665 69.2074L391.958 59.2487C388.04 56.4017 390.053 50.2037 394.897 50.2037H411.84C414.006 50.2037 415.926 48.8089 416.595 46.7487L421.831 30.6353Z" fill="#17A1E9"/>
<path d="M500.684 68.8541C501.283 67.0115 503.889 67.0115 504.488 68.8541L507.413 77.8561C507.681 78.6802 508.449 79.2381 509.315 79.2381H518.78C520.718 79.2381 521.523 81.7173 519.956 82.8561L512.298 88.4197C511.597 88.929 511.304 89.8317 511.572 90.6558L514.497 99.6578C515.095 101.5 512.987 103.033 511.419 101.894L503.762 96.3303C503.061 95.821 502.111 95.821 501.41 96.3303L493.753 101.894C492.185 103.033 490.076 101.5 490.675 99.6578L493.6 90.6558C493.868 89.8317 493.574 88.929 492.873 88.4197L485.216 82.8561C483.648 81.7173 484.454 79.2381 486.391 79.2381H495.857C496.723 79.2381 497.491 78.6802 497.759 77.8561L500.684 68.8541Z" fill="#17A1E9"/>
</svg>
