<?xml version="1.0" encoding="UTF-8"?>
<svg xmlns="http://www.w3.org/2000/svg" viewBox="0 0 569.2 739.2">
  <defs>
    <style>
      .cls-1, .cls-2, .cls-3 {
        stroke: #4e4e4d;
        stroke-linecap: round;
        stroke-linejoin: round;
        stroke-width: 1.2px;
      }

      .cls-1, .cls-4, .cls-5 {
        fill: #4e4e4d;
      }

      .cls-6 {
        mix-blend-mode: multiply;
        opacity: .37;
      }

      .cls-6, .cls-7, .cls-3 {
        fill: #cacacc;
      }

      .cls-8 {
        isolation: isolate;
      }

      .cls-2 {
        fill: none;
      }

      .cls-4 {
        opacity: .71;
      }

      .cls-5 {
        opacity: .48;
      }

      .cls-9 {
        fill: #e5e4e5;
      }

      .cls-10 {
        fill: #f9fafb;
      }
    </style>
  </defs>
  <g class="cls-8">
    <g id="corpo_colore_sfondo">
      <path class="cls-10" d="M247.26,126.3l.17,25.46c0,1.48-1.31,2.62-2.77,2.38l-1.66-.27c-1.42-.23-2.72.83-2.77,2.27-.12,3.06-.31,7.84-.42,9.47-.17,2.48-1.68,3.53.53,5.5,1.24,1.11,2.88,1.87,4.06,2.32.94.36,1.56,1.24,1.56,2.25-.03,5.81-.12,24.41-.14,27.75-.03,3.96.62,17.07,2.69,20.78,2.08,3.71,16.9,20.81,21.2,24.5,2.94,2.53,7.69,6.87,10.39,9.35,1.08.99,1.02,2.7-.13,3.62h0c-.76.61-1.07,1.61-.8,2.54.58,1.97,1.88,5.24,4.37,6.64,3.68,2.07,7.93,3.52,12.06,3.01,7.27-.9,8.92-3.68,11.19-5.22.85-.57-.17-1.35-.44-2.34l-.31-1.14c-.41-1.51.94-2.18,2.5-2.21,2.25-.03,5.14-.16,6.55-.62,2.5-.82,12.38-9.04,17.69-13.26,6.18-4.92,10.13-9.11,16.12-14.75,4.13-3.89,7.34-9.16,8.15-13.84s1.65-9.57.85-17.22c-.64-6.08.6-21.12-.05-26.12-.15-1.14,1.23-.17,2.32-.52,1.68-.54,3.98-1.46,4.63-2.69,1.07-2.01,1.59-4.71,1.73-8.33.04-.92.05-1.72.06-2.4.01-1.54-1.43-2.69-2.93-2.34l-1.4.32c-1.51.35-2.94-.8-2.93-2.35l.16-29.22c0-.49-.14-.96-.42-1.36-2.27-3.32-13.11-18.88-17.88-19.75-5.34-.97-7.31-1.41-16.56,2.9-9.26,4.31-12.74,8.48-19.26,7.33-6.52-1.15-22.16-12.4-28.99-13.16-6.83-.76-8.09-2.46-13.28,2.66-4.45,4.38-12.9,13.83-15.24,16.45-.39.44-.61,1.01-.6,1.61Z"/>
      <path class="cls-10" d="M111.12,211.4s1.73-2.8-.86-18.29c-1.07-6.4-2.52-20.19-1.31-23.16,1.22-2.97,1.5-4.16,3.89-4.82,2.39-.66,4.85-2.05,5.37,0,.51,2.05.48,16.79,1.19,18.81.72,2.01,4.7,17.18,5.79,19.54,1.09,2.36,7.16,15.41,7.16,15.41l8.67,9.64s25.54,17.22,30.23,21.17c4.69,3.95,6.29,7.09,10.33,7.51,4.04.42,14.06,1.02,14.06,1.02l14.13.23s3.17,9.93,3.26,16.14c.09,6.21-.51,15.05-.51,15.05,0,0-22.45,1.06-30.04,0-7.59-1.06-13.62,1.15-24.03-11.36s-28.48-37.87-28.48-37.87c0,0-7.49-7.99-12-8.73-4.52-.74-7.61-2.14-9.44-1.22-1.83.91-9.21,7.13-10.21,3.88s-.03-9.23-.03-9.23c0,0,3.7-2.59,7.05-6.24,3.35-3.66,5.78-7.47,5.78-7.47Z"/>
      <path class="cls-10" d="M330.45,332.82s8.04-4,12.13-9.18c4.09-5.18,6.85-10.52,6.85-10.52,0,0,7.69,2.92,10.54,5.13,2.85,2.2,5.14,4.71,5.14,4.71,0,0-4.36-11.08-1.11-16.44,3.26-5.36,8.15-10.31,11.87-9.74,3.72.57,5.82,4.81,5.96,6.91.15,2.1-2.03,10.25-1.88,12.51.15,2.26.96,8.85,4.98,12.74,4.02,3.89,7.84,5.23,10.77,7.07,2.92,1.84,5.29,2.45,5.35,4.79.05,2.33-3.61,8.19-2.61,10.51,1,2.32,5.4,10.51,5.28,11.5-.12.99-5.77,8.26-6.9,9.85-1.13,1.59-1.47,2.63-.88,4.3.59,1.66,2.25,4.01-.93,6.38-3.17,2.37-4.55,4.9-8.29,5.84s-11.65.46-16.47-4.22c-4.82-4.68-12.52-12.23-14.01-15.58-1.49-3.34-2.57-5.03-2.57-5.03,0,0-10.31-7.56-13.8-13.28-3.49-5.72-9.44-18.24-9.44-18.24Z"/>
    </g>
    <g id="pantalone">
      <path class="cls-9" d="M200.56,378.62s-1.89,3.48-2.62,5.91-2.16,6.42-2.16,6.42c0,0-16.23,17.04-27.3,28.47-11.07,11.43-23.83,23.88-25.63,27.73-1.8,3.85-2.87,8.1-2.86,12.13.02,4.03,0,10.99,0,10.99,0,0-1.54,5.55-1.76,10.18-.22,4.63-1.77,11.53-1.76,14.47.01,2.94.9,8.35.9,8.35,0,0-1.06,7.45-.31,12.82.75,5.37,1.7,14.43,3.66,16.64s7.59,5.44,12.67,5.44c5.08,0,17.36-.53,21.97-3.54,4.61-3.01,9.03-8.51,9.3-9.92.27-1.41.13-15.57.79-17.08.65-1.5,1.19-3.05,1.19-3.05,0,0,.95-5.3.52-10.42-.43-5.12-1.16-9.28-.48-10.86.68-1.59,3.03-3.11,3.17-4.67s-.42-5.38-.42-5.38c0,0-.36-.9,1.42-3.08s23.84-23.8,23.84-23.8l11.41-10.73s6.33,5.93,7.31,8.09c.98,2.17,7.55,33.47,8.98,40.74,1.43,7.27,4.41,20.11,4.86,22.29.45,2.19.69,1.2.69,5.54,0,4.34.18,11.84-.28,16.12-.45,4.28-.48,7.93.31,9.76.79,1.83,1.72,1.09,1.13,3.11-.58,2.02-1.68,5.09-1.92,9.3-.24,4.21-.63,13.84.31,17.52.94,3.68,1.47,5.58,4.08,7.16,2.61,1.58,11.6,5.13,14.85,5.26,3.26.13,10.35.21,15.27-1.72s8.75-5.7,8.75-5.7c0,0-1.36-14.88-.34-18.48,1.01-3.61,2.49-5.44,3.14-9.54.65-4.11,1.28-11.54.7-16.12-.58-4.58-1.25-12.81-1.25-12.81,0,0,2.84-7.29,2.83-13.2,0-5.9.88-14.23,0-18.49-.88-4.26-7.26-46.33-7.92-51.17-.66-4.84-2.85-12.92-2.13-15.01.72-2.09,1.14-3.61,1.14-3.61,0,0-35.19,3.76-48.02-1.97s-26.02-13.36-31.33-20.34c-5.32-6.98-6.7-13.74-6.7-13.74Z"/>
    </g>
    <g id="orologio">
      <path class="cls-3" d="M133.47,220.5s-5.42,3.02-6.96,4.83c-1.54,1.81-5.38,4.84-5.79,7.42s-.94,4.48-.94,4.48c0,0,1.24,1.67,3.57,3.19s3.86,3.19,5.09,2.19c1.22-1,.83-2.41,3.13-5.56,2.3-3.15,7.4-7.58,8.42-8.05,1.02-.47-6.53-8.5-6.53-8.5Z"/>
    </g>
    <g id="T-shirt">
      <path class="cls-7" d="M204.64,258.22s.89-5.27,3.39-5.14,9.53.48,13.8.57c4.28.09,26.41-.33,33-.57,6.59-.24,19.16-.66,19.16-.66l4.78,4.79,3.35,2.75-3.35,2.7s.1,3.8,2.43,6.01,5.31,5.51,10.84,5.24c5.53-.27,8.96-.79,10.82-2.12,1.87-1.34,3.92-3.83,3.92-3.83v-4.53l5.56.16s9.87,7.55,12.5,11.2c2.63,3.66,5.76,8.82,8.27,12.05s9.51,11.02,13.1,14.28c3.58,3.26,6.44,4.44,6.84,6.07.39,1.63.14,1.55-2.18,5.36-3.77,6.18-8.58,12.55-12.57,15.65-4,3.1-9.94,7.08-12.33,6.42l-5.62-7.65-2.9-2.76s-4.81,21.27-9.39,30.36c-4.58,9.09-13.36,40.18-14.47,45.68-1.11,5.5-2.48,13.18-2.48,13.18,0,0-26.19,4.69-38.77,2.16-12.58-2.53-28.52-5.72-44.16-22.38-9.8-10.44-10.93-18.09-10.93-18.09,0,0-.46-1.78,10.17-15.84,6.21-8.21,19.52-36.21,22.24-45.75,2.71-9.54,4.86-19.81,4.86-19.81,0,0-2.21-.07-9.01,1.17-6.8,1.23-12.26,2.17-13.66,1.83-1.4-.34-3.48-1.98-3.48-1.98l-1.11-5.11h5.27s1.55-11.14,0-19.93c-1.55-8.79-2.75-11.26-2.75-11.26l-5.14-.23Z"/>
    </g>
    <g id="capelli_colore" data-name="capelli colore">
      <path class="cls-7" d="M247.43,155.42l-7.27-.83s-.12-39.21.85-42.5c.97-3.29,7.04-15.66,12.78-21.32,5.74-5.66,21.08-23.3,49.05-21.25,27.97,2.05,32.44,7,32.44,7,0,0,15.21,8.21,21.35,17.6,6.14,9.39,9.53,15.38,9.66,18,.13,2.62.21,48.1.21,48.1l-7.22,1.66s.81-30.8.43-33.27c-.38-2.47-9.32-14.83-14.26-17.87-4.94-3.04-7.22-4.75-14.45-1.9s-18.82,9.13-24.34,9.7c-5.51.57-16.16-3.61-21.29-7.61-5.13-3.99-10.85-7.48-15.69-6.12-4.84,1.36-10.65,7.32-14.4,10.81-3.75,3.49-7.17,6.15-8.12,9.76-.95,3.61.38,17.68.19,21.48-.19,3.8.08,8.57.08,8.57Z"/>
      <polygon class="cls-9" points="359.72 128.6 366.41 124.41 366.51 160.21 359.3 161.87 359.72 128.6"/>
      <polygon class="cls-9" points="247.17 125.37 240.37 124.41 240.17 154.59 247.43 155.42 247.17 125.37"/>
    </g>
    <g id="scarpe">
      <path class="cls-7" d="M141.35,533.67s-10.92,15.42-11.81,16.9c-.89,1.49-3.43,5.8-3.43,5.8,0,0,12.56.2,18.46,2.2,5.91,2,17.69,7.68,18.99,10.51l1.29,2.83,9.83-19.12,6.32-11.16-1.02-10.03s-7.82,5.15-12.18,5.75c-4.36.6-13.93,1.65-16.61.81-2.68-.84-9.84-4.49-9.84-4.49Z"/>
      <path class="cls-7" d="M250.65,574.52l-5.45,19.5,19.64,13.15s5.36-9.22,12.61-11.48c7.25-2.26,15.63-3.25,15.63-3.25l11-.14-17.46-15.44s-6.67,2.94-13.43,3.77c-6.76.84-9.78.08-14.31-1.43s-8.24-4.7-8.24-4.7Z"/>
      <path class="cls-9" d="M126.11,556.37s-5.11,7.44-5.75,11.76c0,0-1.2,3.13-.6,5.8.6,2.67,2.85,8.03,2.85,8.03l3.5,5.43s8.22,5.15,16.2,4.89c7.99-.26,12.66-.37,16.91-4.49,4.25-4.12,12.39-15.71,14.24-19.43,1.84-3.71,8.16-17.79,8.16-17.79l-.61-8.94s-10.16,19.85-11.92,23.25c-1.76,3.41-3.54,7.03-3.54,7.03,0,0-4.79-6.68-10.55-9.26-5.75-2.58-10.85-4.82-16.76-5.4-5.91-.59-12.13-.88-12.13-.88Z"/>
      <path class="cls-9" d="M244.85,593.39l-1.66,7.34s13.61,10.05,17.66,12.78c4.05,2.73,11.28,8.14,16.05,9.27,4.77,1.13,7.8,2.32,13.16,1.56,5.35-.76,15.38-3.15,17.71-4.43,2.33-1.28,3.69-2.58,3.69-2.58l1.61-6.06-2.04-2.29s.6-5.11-.63-7.66c-1.23-2.55-6.31-9.02-6.31-9.02,0,0-5.3-1.05-12.13-.02-6.83,1.02-13.46,2.31-16.78,4.37s-6.26,4.29-7.31,5.81c-1.06,1.53-3.02,5.31-3.02,5.31l-19.99-14.38Z"/>
    </g>
    <g id="ombre-2" data-name="ombre">
      <path class="cls-6" d="M346.2,111.69c-6.2-3.42-15.19-.43-21.18,2.99-5.99,3.42-8.34,6.42-16.04,7.7-7.7,1.28-24.17-7.06-30.38-7.06s-11.12,3.85-13.26,5.78c-2.14,1.93-2.41,10.91-3.45,14.97-1.04,4.06-1.2,15.01-1.2,15.01l18.07.58s-9.14,7.94-8.93,10.08c.21,2.14,1.28,4.06-1.5,5.13-2.78,1.07-6.45,3.64-6.45,3.64,0,0-.61,23.32-1.25,30.59-.64,7.27-1.56,18.18,1.25,22.89s18.43,28.02,21.85,31.44,5.56,5.78,5.56,5.78c0,0-1.07,1.5-2.78,4.49-1.71,2.99-1.71,6.2-1.71,6.2l1.93,7.27s-7.91-1.93-11.34-7.49c-3.42-5.56-15.4-13.26-22.03-15.19-6.63-1.93-13.48-2.35-13.48-2.35,0,0,12.41-1.71,14.97-1.28,2.57.43,18.82,0,18.82,0,0,0-20.96-20.54-23.74-26.1-2.78-5.56-4.06-11.55-4.06-17.97s.43-34.87.43-34.87c0,0-5.99.43-6.42-6.63-.43-7.06,0-13.05,0-13.05,0,0-1.22-34.43,1.47-43.15,2.98-9.66,9.01-20.38,22.06-28.93,13.05-8.56,27.38-11.83,39.36-12.62,17.56-1.16,34.65,7.7,41.28,12.62,0,0-21.65-5.95-27.69,2.1-6.04,8.06,29.83,27.42,29.83,27.42Z"/>
      <path class="cls-6" d="M118.18,165.38s-3.21,1.71-4.49,5.78c-1.28,4.06.86,22.25,2.25,29.52,1.39,7.27,3.53,15.4,5.03,18.18,1.5,2.78,7.27,8.13,7.27,8.13l8.56,10.48s28.45,30.38,34.23,34.44c5.78,4.06,40.21,3.85,40.21,3.85,0,0,3.64,1.5,10.27,3.42,6.63,1.93,19.89,1.5,27.81,0,7.91-1.5,9.84-2.14,9.84-2.14,0,0-8.77,9.84-14.33,22.67-5.56,12.83-26.52,62.68-27.81,75.94-1.28,13.26,8.98,31.44,8.98,31.44,0,0-11.98-3.21-15.62-1.93-3.64,1.28-33.58,26.31-43.64,38.72-10.05,12.41-15.19,21.6-16.26,31.23s.21,30.59.21,30.59l-8.56-18.4s-4.49,6.42-1.93,14.76c2.57,8.34,4.92,16.04,4.92,16.04,0,0-2.99.43-2.35,3.64.64,3.21,2.35,13.48,3.21,14.33.86.86,5.99,1.28,5.99,1.28,0,0-8.77,8.56-14.55,19.25-5.78,10.7-7.49,16.47-6.63,21.82.86,5.35,5.35,13.05,5.35,13.05l-9.63-2.57-2.78-7.27s-3.85-4.49-3.64-9.2c.21-4.71.43-8.13,5.13-15.83,4.71-7.7,15.62-22.67,15.62-22.67,0,0-2.35-4.71-2.78-11.98-.43-7.27-1.28-14.97-.86-16.26.43-1.28-.43-9.2-.21-11.76.21-2.57,3.21-18.18,3.42-22.67.21-4.49-.64-16.04,1.5-21.18,2.14-5.13,12.19-15.62,12.19-15.62,0,0,24.85-24.81,32.1-32.09,7.26-7.27,9.82-10.7,9.82-10.7l.64-3.64,2.99-6.42-2.78-7.06s16.68-20.96,20.75-29.52c4.06-8.56,7.27-16.68,9.63-23.74s6.63-26.95,6.63-26.95c0,0-.64-2.14-7.27-1.28-6.63.86-16.26,3.85-16.26,3.85,0,0-2.14-1.93-2.35-4.06l-.21-2.14s-26.1.21-31.23-1.07c-5.13-1.28-10.27-5.35-15.62-10.48-5.35-5.13-13.69-14.97-19.47-22.67-5.78-7.7-11.12-16.04-11.12-16.04l-1.93,2.14-3.64-2.57-2.78-1.93s-1.5-1.93-1.71-2.78c-.21-.86-.64-1.71-.64-1.71,0,0-3.85-2.57-7.49-2.99-3.64-.43-4.71.64-6.42,1.93-1.71,1.28-4.61,2.9-6.32,2.26-1.71-.64-1.82-3.97-1.82-3.97,0,0-.21-4.28,2.14-6.85,2.35-2.57,7.06-5.78,9.84-10.05,2.78-4.28,3.21-10.48,1.93-16.04-1.28-5.56-2.57-16.74-2.35-23.56s.64-8.95,3.21-10.02c2.57-1.07,5.78,1.07,5.78,1.07Z"/>
      <path class="cls-6" d="M298.64,224.6s-1.07,3.88-.86,6.45c.21,2.57.86,5.99.86,5.99h-9.41s-3.85-3.42-7.49-7.27c-3.64-3.85-5.78-8.13-5.78-8.13,0,0,3.49,1.14,7.34,1.35s15.33,1.61,15.33,1.61Z"/>
      <path class="cls-6" d="M322.03,300.78s2.57,13.69,6.42,18.4c3.85,4.71,10.48,7.27,11.12,7.06.64-.21,2.78,2.14,2.78,2.14,0,0,.86,12.41,5.78,15.83,4.92,3.42,6.2,3.85,6.2,3.85,0,0-1.71-1.5.86-4.06,2.57-2.57,8.34-8.13,8.34-8.13,0,0,3.42-6.85,2.35-11.44-1.07-4.6-4.06-10.59-2.35-15.08,1.71-4.49,4.92-9.84,7.7-11.34,2.78-1.5,4.92-2.35,5.35-1.28.43,1.07-2.78,5.35-4.49,9.84-1.71,4.49-3.42,8.77-1.28,14.12,2.14,5.35,5.81,8.98,5.81,8.98,0,0-3.89,2.78-4.96,6.85-1.07,4.06-1.71,9.41,0,13.48,1.71,4.06,2.57,5.13,2.57,5.13,0,0-1.28-2.38-1.93,2.45s.86,11.03,2.99,13.17c2.14,2.14,2.78,3.21,2.78,3.21,0,0-2.99-1.16-2.99,3.81s.86,7.32,2.99,9.45l2.14,2.14s-9.2-3.64-13.26-7.27c-4.06-3.64-8.13-9.2-10.27-12.62-2.14-3.42-2.14-4.71-2.14-4.71,0,0-5.99-1.93-11.98-10.27-5.99-8.34-11.55-20.32-11.55-20.32,0,0-1.5,2.14-3.64.86-2.14-1.28-4.49-5.13-4.49-5.13,0,0-2.35-3.42-3.85-3.64l-1.5-.21,4.49-25.24Z"/>
      <path class="cls-6" d="M220.42,429.56s23.74,14.12,26.95,16.26c3.21,2.14,6.2,6.85,8.13,11.34,1.93,4.49,11.55,39.79,14.12,44.49,2.57,4.71,8.56,16.04,8.56,16.04,0,0-2.14,3.21-4.28,8.77-2.14,5.56-4.06,26.31-4.28,35.51-.21,9.2.64,14.76,1.5,16.26l.86,1.5s-.86-1.5-2.14,2.78c-1.28,4.28-1.28,7.27,1.28,10.48,2.57,3.21,10.05,7.06,13.69,9.41,3.64,2.35,7.49,8.77,8.34,10.91s0,9.63,0,9.63c0,0-10.05,1.5-13.05,1.07-2.99-.43-23.13-14.76-23.13-14.76l-14.31-7.91,7.49-26.74s-2.99-4.06-3.21-10.27c-.21-6.2,2.35-24.81,2.35-24.81,0,0-1.5-.21-1.28-7.91.21-7.7,0-25.03,0-25.03,0,0-2.35-6.42-3.42-13.9-1.07-7.49-4.06-25.03-6.63-35.08-2.57-10.05-5.13-15.19-5.13-15.19l-12.41-12.83Z"/>
      <path class="cls-6" d="M343.9,151.03s-7.27,8.75-7.27,10.84,1.63,3.26,1.63,3.26l-7.81-.71-4.49-13.39h17.94Z"/>
      <path class="cls-4" d="M204.64,258.22s0-4.01,3.39-5.14c.23-.08,1.74,5.37,1.74,5.37l-5.14-.23Z"/>
      <path class="cls-5" d="M207.8,290.73l4.13-1.34s.08,2.9,0,4.9c-.08,2.01-3.42,2.7-3.67.64-.25-2.06-.46-4.2-.46-4.2Z"/>
    </g>
    <g id="BODY">
      <path class="cls-2" d="M245.95,173.95c-1.83,0-4.33-.83-5.63-2.83-1.29-2-.37-4.78-.44-7.61-.06-2.4-.09-6.59.29-8.91.07-.42.12-.8.15-1.15.11-1.16-1.92-37.28,1.67-44.65,3.6-7.37,19.26-40.54,64.41-39.25s59.52,39.07,59.89,42.57c.37,3.5.18,26.35,0,29.3-.18,2.95.21,18.8.21,18.8l-7.22,1.66s.87-31.24.18-32.99c-1.23-3.13-12.16-19.9-21.22-21.34-7.76-1.23-21.12,11.17-34.01,11.21-19.06.06-27.33-22.49-41.15-10.51-4.76,4.13-15.01,14.13-15.85,17.14-.84,3.03-.09,17.25.09,20.57.18,3.32.09,9.47.09,9.47l-7.27-.83"/>
      <path class="cls-2" d="M245.78,165.62c.73,8.33-.18,37.54,0,46.5.12,5.87,1.17,10.5,5.67,17.17,4.5,6.67,27.83,29,30.67,30.67,2.83,1.67,16.85,3.31,21.22,3.47,6.6.24,8.04,1.54,14.21-2.12s26.33-21.91,33.09-28.68c5.52-5.53,7.32-12.96,7.24-21.18-.07-7.03.24-34.15-.26-39.81"/>
      <path class="cls-2" d="M129.97,240.41c1,2,12.48,17.57,15.98,22.55,3.5,4.99,9.5,11.65,12.5,15.32,3,3.67,5.83,6,8.5,7.5,2.67,1.5,8.33,3.17,12.67,3.67,4.33.5,28.08.69,32.91.19"/>
      <path class="cls-2" d="M209.77,258.45c-5.76,0-18.35-.73-24.16-.83-2.51-.04-4.34.83-11.67-5.67-4.68-4.15-11.33-8.5-14.5-10.67-3.17-2.17-16.67-11-19.5-13.67-2.83-2.67-7.5-7.67-8.5-10.5s-6.17-13-7.33-16.17c-1.17-3.17-3.33-10.67-4-15s-2-11.5-1.83-14.5c.17-3,1.5-6.67-1.5-7s-6.95,1.68-7.56,4.24c-3.32,13.83,4.61,31.89,1.9,42.71-.53,2.1-11.67,11.05-12.83,13.71-1.17,2.67-1.17,5.33-.83,7.17.33,1.83,1,3.67,5.17,1.83,4.17-1.83,4.5-5.33,10.83-3.17,6.33,2.17,5.83,2,6.33,3.5"/>
      <path class="cls-2" d="M363.66,336c1.17-4.17,2.29-9.05,1.46-13.05s-5.54-17.14,5.17-24.5c3.89-2.67,9.67-3.5,10.83,1.5s1.17,6.83,0,10.33-1.33,5.67-1,8.17,4.19,11.87,8.85,14.37"/>
      <path class="cls-2" d="M398.45,371.28c-4.67,2.67-9.17,3.17-14.5,3s-9.59-.37-12.92-2.2-9.38-4.54-11.41-7.13c-1.54-1.97-5.36-5.48-6.33-7.64-.49-1.1-1.5-3.01,1.17-5.69"/>
      <path class="cls-2" d="M398.45,351.29c-4.17.82-13.83,3.66-17.17,3.82-3.33.17-8.67.67-13.67,0s-13.31-1.35-13.83-6.33c-.6-5.63,1.26-5.44,4.09-7.94s8.2-6.88,9.74-8.73c2.65-3.19,6.28-4.02,10.17-2.83,2.63.8,12.33,4,15.83,5.67s7.79,4.17,7.5,8.17c-.47,6.5-4.5,6-1.67,10.5s4.91,4.52,4.17,10.17c-.23,1.78-3.33,6-5.17,7.5s-3.83,2.83-2.5,5.67.29,5.81-2.71,7.65-5.92,6.43-12.75,5.43-10.87-5.57-15.04-9.74-8.67-9.83-10-12.17-.7-5.47.64-7.14"/>
      <path class="cls-2" d="M371.78,334.12c-1,2.83-2.83,8.5,0,13.33"/>
      <path class="cls-2" d="M372.62,357.31c-.83,1.81-1.47,5.14-.3,7.81s1.3,1.5,1.97,3.17"/>
      <path class="cls-2" d="M375.75,376.95c-.46,2-3.1,6.51,2.04,9.33"/>
      <path class="cls-2" d="M350.64,313.54c3.17,1,10.65,4.41,14.48,9.41"/>
      <path class="cls-2" d="M331.07,334.12c1.67,3.33,5.71,14,10.88,19.5s10.04,9.5,12.77,11.5"/>
      <path class="cls-2" d="M291.29,187.7s-.36,3.29.74,6.24c1.11,2.95,2.89,5.9,13.05,5.71,10.17-.18,12.75-1.47,14.22-3.87,1.47-2.4,1.11-7.37.55-8.29"/>
      <path class="cls-2" d="M325.94,151.74s9.05-.95,15.66-.94c6.08,0,9.03,4.63,9.03,4.63"/>
      <path class="cls-2" d="M279.91,151.75s-15.86-1.25-19.63-.33c-3.77.92-5.28,3.76-5.28,3.76"/>
      <circle class="cls-1" cx="338.26" cy="163.5" r="1.63"/>
      <path class="cls-1" d="M272.23,163.5c0,.9-.73,1.63-1.63,1.63s-1.63-.73-1.63-1.63.73-1.63,1.63-1.63,1.63.73,1.63,1.63Z"/>
      <path class="cls-2" d="M358.25,177.16s3.08-.18,5.1-1.84c2.03-1.66,2.64-2.76,3.16-6.63.52-3.87,0-8.48,0-8.48"/>
      <path class="cls-2" d="M282.12,259.95l-3.35,2.7s1.31,10.54,13.27,11.25c11.67.69,14.74-5.96,14.74-5.96v-4.11"/>
      <path class="cls-2" d="M278.76,257.2s-6.24,3.45-6.16,7.87c.08,4.42,4.87,13.08,16.85,14.74,11.98,1.66,18.86-4.06,21.19-7.19,3.32-4.43,1.08-8.26,1.08-8.26"/>
      <path class="cls-2" d="M274.38,221.28s14.12,3.52,31.56,3.52c15.56,0,24.18-2.73,24.18-2.73,0,0-12.18,15.51-14.85,15.73-3.12.26-20.82-.84-24.5-.83-3.48,0-16.39-15.69-16.39-15.69Z"/>
    </g>
    <g id="DRESS">
      <path class="cls-2" d="M273.11,252.44s-18.05.58-30.66,1.13c-15.68.69-34.19-.49-34.19-.49,0,0,4.16,9.27,4.67,19.43,1.04,20.46-2.49,23.88-2.49,23.88,3.22,1.69,17.76-2.71,24.07-2.65"/>
      <path class="cls-2" d="M236.01,280.95c-.5,5.25-1.47,39.23-31.56,82.75-2.45,3.54-9,9.75-6.75,13.5s8.96,23.51,38.75,34.75c21.49,8.11,54.47,2.71,54.66,1.48,1.23-7.74,4.02-21.26,5.9-27.14,4.71-14.79,9.37-27.34,12.16-34.67,4.61-12.09,12.29-40.28,12.28-51.42"/>
      <path class="cls-2" d="M199.23,380.46c-1.42,3.95-1.57,5.82-3.45,10.49-1.5,2.33-48.33,49.67-50.83,53.17s-4.17,5.67-4.5,10.33c-.33,4.67-.83,13.17,0,17.33.83,4.17,1.5,6.17,3.67,10"/>
      <path class="cls-2" d="M139.99,468.95c-.71,4.67-1.54,15-2.21,17.17s-1.67,10-1.17,13.33,1.42,7.17,3.38,9.5"/>
      <path class="cls-2" d="M137.38,503.26c-.76,4.69-.57,12.02,0,15.52.57,3.5,1.73,10.77,3.35,13.94,1.62,3.17,7.41,6.28,22.72,5.23,15.25-1.05,21.5-11.5,21.5-14.67s-.33-9,0-11.67c.33-2.67.17-3.83,1.17-5.5s1.56-8.81,1.06-11.97-.57-9.36-.48-10.86l.33-1.5s1.84-.44,2.57-2.17c.77-1.85.2-4.99.2-4.99-1.17-1.5,1.11-4.52,3.83-7.67,2.93-3.39,13.5-13.83,16.33-16.33,2.83-2.5,13.33-12,16.17-15"/>
      <path class="cls-2" d="M219.45,429.62c3,2.33,13.53,12.25,14.67,15.33,1.63,4.42,10.5,51.33,11.5,55.5s2.5,8.17,2.33,11.83c-.17,3.67.36,11.33.01,14-.35,2.67-1.75,11,.12,12.83,1.87,1.83.8,3.33,0,5.17s-.97,8.17-1.13,10.5c-.17,2.33-.17,13.5,1.5,17,1.67,3.5,6.66,5.67,10.67,7.17,12.67,4.72,31.99-1.32,31.53-7.03-.62-7.64-1.41-11.71-.53-17.3.5-3.17,3-8.17,3.5-11s.83-12.83,0-17.67c-.83-4.83-1-10-.33-12s2.98-8.33,2.02-26.13c-1.17-21.81-11.68-68.34-8.68-73.15"/>
      <path class="cls-2" d="M273.2,508.95c1.24,4.63,4.91,8.84,8.51,11.55"/>
      <path class="cls-2" d="M293.08,514.78c-.97,3.51-4.48,16.01-8.31,19.84"/>
      <path class="cls-2" d="M250.65,574.52c-1.3,4.96-7.46,22.61-7.46,26.21,0,.85,23.32,16.74,25.08,17.71,2.34,1.29,12.71,10.34,34.84,3.18,5.07-1.64,8.33-3,9-5.67s1.76-4.95,0-6.33c-1.18-.93-.9-3.8-1-5.17-.44-5.84-6.25-11.5-10.58-15.67-3.34-3.21-11.06-9.48-13.9-11.91"/>
      <path class="cls-2" d="M270.12,585.95c3.08-2.27,7.54-4.56,15.36-3.57"/>
      <path class="cls-2" d="M273.2,589.78c2.33-1.17,7.79-3.83,15.59-2.94"/>
      <path class="cls-2" d="M245.2,594.02c4.15,2.65,28.85,21.96,37.57,22.54,9.26.61,28.96-3.11,28.23-8.79"/>
      <path class="cls-2" d="M264.84,607.17c6.94-16.64,35.63-15.62,39.24-14.86"/>
      <path class="cls-2" d="M141.35,533.67c-1.53,2.23-7.9,10.41-10.01,13.9-2.26,3.74-7,11.75-8.39,14.25-3.84,6.9-4.38,14-1,17.25,4.56,4.39,11.35,5.25,14.93,6,3.57.75,10.3,1.07,16.57-1.62,8.84-3.79,12.02-11.34,14-15.22,2.96-5.79,13.56-26.6,13.56-26.6"/>
      <path class="cls-2" d="M179.99,531.6c.23,2.28,1.43,11.69,1.51,13.47.13,3.13.13,5.5-.83,8.38-.48,1.43-5.97,13-8.22,16.75s-8.5,13.4-10.75,15.58c-2.25,2.17-7.5,5.67-12.38,6.42s-11.12-.38-14.38-1.12-9.06-2.72-10.44-5.47-3.71-6.71-4.15-9"/>
      <path class="cls-2" d="M126.11,556.37c3.72.3,12.09.45,18.46,2.2s18.99,6.84,20.28,13.34"/>
      <path class="cls-2" d="M138.7,542.82c3.25-.5,7.36-.89,12.5,2.25"/>
      <path class="cls-2" d="M136.87,547.82c4.78-.51,8.42-.51,11.95,2.75"/>
      <path class="cls-2" d="M157.28,478.62c5-.91,7.57-2.04,12.55-4.19"/>
      <path class="cls-1" d="M132.35,218.88c3-.17,6.85,2.17,7.72,3.34,1.41,1.91,3.07,4.87,2.3,7.34"/>
      <path class="cls-2" d="M141.02,228.52c-2.44.93-9.41,5.43-11.35,13.08-.3,1.19-1.84,1.73-3.24.81-1.4-.92-5.79-3.5-6.65-5.18-.86-1.68,0-2.77,0-2.77,5.08-9.75,10.92-12.25,13.68-13.95l7.55,8.03Z"/>
      <path class="cls-2" d="M204.64,258.22s.23-2.4,1.33-4.02c.85-1.24,2.06-1.12,2.06-1.12"/>
      <path class="cls-2" d="M207.26,289.64s.18,3.26,1.11,5.11c.92,1.84,2.08,1.64,2.08,1.64"/>
      <path class="cls-2" d="M312.33,263.58s10.84,9.67,12.5,11.2c1.66,1.53,2.92,4.07,4.95,7.55,2.03,3.48,15.24,20.2,22.38,23.97,2.34,1.24.14,4.08-1.3,6.23-3.2,4.78-8.58,12.32-13.41,16.39-3.3,2.78-10.75,7.6-12,5.19s-5.25-9.17-8-9.92"/>
    </g>
  </g>
</svg>