<?xml version="1.0" encoding="UTF-8"?>
<svg id="Layer_1" xmlns="http://www.w3.org/2000/svg" version="1.1" viewBox="0 0 501 751.33">
  <!-- Generator: Adobe Illustrator 29.6.1, SVG Export Plug-In . SVG Version: 2.1.1 Build 9)  -->
  <defs>
    <style>
      .st0 {
        fill: #e5e4e5;
      }

      .st1, .st2 {
        fill: #cacacc;
      }

      .st3, .st2 {
        isolation: isolate;
      }

      .st4 {
        fill: #757574;
      }

      .st2 {
        mix-blend-mode: multiply;
        opacity: .37;
      }

      .st5 {
        fill: #4e4e4d;
      }

      .st6 {
        stroke-width: .25px;
      }

      .st6, .st7 {
        stroke: #4e4e4d;
      }

      .st6, .st7, .st8 {
        fill: none;
        stroke-miterlimit: 10;
      }

      .st7 {
        stroke-width: 1.2px;
      }

      .st9 {
        fill: #a8a8a8;
      }

      .st10 {
        fill: #f9fafb;
      }

      .st8 {
        stroke: #cacacc;
        stroke-width: .5px;
      }
    </style>
  </defs>
  <g class="st3">
    <g id="corpo_colore_sfondo">
      <path class="st10" d="M317.31,172.92s1.95,1.07,1.92,3.77.84,6.63-1.92,12.6-7.78,12.49-10.74,17.58-8.23,17.5-9.67,24.87-3.34,27.6-6.33,31.74-9.94,10.24-16.9,12.97c-6.96,2.72-21.27,8.11-27.01,7.91s-8.6-.7-8.6-.7c0,0,1.47,3.2,1.47,5.19s.48,6.02-3.11,6-9.83.48-15.85-3.19-11.69-8.12-14.22-11.38-4.27-5.93-4.27-5.93c0,0,3.82.21,4.38-4.22l.56-4.43s-14.37-16.3-18.76-23.84-11.33-22.88-11.33-22.88c0,0,.7-4.01,5.75-5.61s18.05-4.69,18.05-4.69c0,0-4.19,2.27-5.57-3.08s2.49-17.18,4.65-18.36,4.36-2.79,6.65-.62,3.46,5.71,3.46,5.71l.55,6.29s3.83-20.55,6.19-25.7,10.84-16.7,20.44-17.33,12.06,2.08,18.19,8.67,15.53,15.17,24.51,17.21,10.33,3.18,16.67-2.15c6.35-5.33,10.13-9.48,13.08-9.21s7.76,2.81,7.76,2.81h0Z"/>
      <path class="st10" d="M189.83,339.45s-1.91,17.11-2.17,20.17-.5,6.59-.5,6.59c0,0,12.83,5.51,18.97,9.09s17.42,9.24,17.42,9.24c0,0,10.64-9.37,15.99-9.83s8.92-.44,11.2.59,5.22,2.15,5.22,2.15c0,0,6.28-1.29,10.37,0s1.69.77,1.69.77l.22-27.7,6.33-4.95s1.16,5.95,1.79,8.45,3.7,11.32,4.96,13.38,3.68,4.56,3.68,4.56l-6.54,14.43s-9.73,21.24-10.22,20.98-.39-19.76-.39-19.76l-3.95,1.09s.95,1.84-2.2,3.96l-3.16,2.12s-.07,2.51-1.29,5.92-4.22,5.93-6.52,7.01-6.19,4.1-9.42,3.9-9.34-1.26-14.85-4.24c-5.51-2.98-8.23-4.33-8.23-4.33,0,0-30.3-3.06-37.85-3.57-7.55-.51-18.84-1.43-21.71-5.77s-5.23-10.91-4.45-19.48,5.09-32.02,5.09-32.02l.87-2.76h29.65Z"/>
      <path class="st10" d="M315.83,377.45s1.58,1.06,2.52,4.96,1.92,6.82,2.73,9.13,2.29,3.55,1.03,6.62-6.95,5.88-6.95,5.88c0,0-.21.94-.94,3.33s-2.52,3.82-4.67,4.97-2.03,4.5-4.12,6.13-5.16,4.07-7.29,3.42-5.79-2.7-8.88-3.88-5.19-3.75-4.25-4.44,3.43-2.16,6.69-1.95,4.17,2.06,6.06,1.65,2.28-5.9,2.28-5.9c0,0-3.82-4.72-1.25-3.33,0,0-5.11-.83-6.65-4.32s1.87-10.07,4.32-8.8,6.25,4.2,7.96,5.93,2.94,3.23,4.24,1.3,2.12-3.46,2.12-3.46c0,0-2.39-8.97-1.2-12.58,1.19-3.62,1.2-4.25,2.71-4.67s3.53,0,3.53,0h.01Z"/>
    </g>
    <g id="pantalone">
      <path class="st0" d="M256.27,445.81s-.14,17.79.27,23.24,3.99,56.71,3.86,61.84,2.13,39.16,1.9,45.07c-.24,5.91.46,14.35,1.35,19.23s2.38,16.05.62,20.45-5.14,9.11-9.66,11.25-11.51,2.63-18.43,2.88-11.61-.17-13.6-3.35-5.04-16.9-6.03-24.84-3.95-36.17-3.95-36.17c0,0-6.27,19.02-7.06,22.89s-1.03,17.15-2.87,23.29c-1.85,6.14-2.67,12.79-2.67,12.79l-2.56,13.01s-8.42,3.39-17.12,4.05-18.38-1.11-20.62-2.36-4.15-2.75-4.15-2.75c0,0,1.49-32.62,2.16-34.86s1.34-4.78,1.34-4.78l-.13-3.55,1.37-14.47,1.86-18.74,4.35-31.85s5.27-39.37,5.78-41.71-.73-8.25-.73-8.25c0,0-1.9-2.9-1.47-7.86s2.77-30.66,2.77-30.66c0,0,17.53,12.49,32.1,14.03s26.99,1.01,32.74-.66c5.76-1.66,18.55-7.16,18.55-7.16h.03Z"/>
    </g>
    <g id="cellulare">
      <path class="st4" d="M329.54,360.37s.36-1.03-1.37-.73-27.33,4.75-28.96,5.04-2.91-1.01-4.22,1.05-11.57,23.97-12.47,25.9-9.35,19.96-10.11,21.58-3.26,5.93-2.41,6.27,17.72-1.71,17.72-1.71c0,0-4.35-.69-3.53-2.44s5.31-4.01,7.5-3.7,5.55,1.42,5.55,1.42l4.94-2.71s-.19-2.18-1.78-3.91-7-5.13-8.26-6.7-1.07-7.22.72-7.98,4.9-.41,6.33.65,5.82,6.69,7.45,6.46,3.78-2.25,3.95-3.2-1.02-12.4-1.02-13.53.67-4.73,3.18-4.86,4.31,1.19,4.31,1.19l1.89,6.57,9.52-21.28,1.05-3.38h.02Z"/>
      <path class="st9" d="M325.7,353.31s-.64-.23-2.31.04-30.45,4.55-31.54,5.41-3.43,5.7-3.43,5.7l-13.83,30.53-8.59,19.53,2.95,3.94,1.07-.19s23.51-51.52,24.98-52.55,20.84-3.94,20.84-3.94l13.33-2.2-2.32-4.58-1.14-1.68h-.01Z"/>
    </g>
    <g id="T-shirt">
      <path class="st1" d="M238.07,283.65s.78.7,3.74.7,5.72.85,5.72.85c0,0-.42-2.62,5.97,3.31s9.83,10.08,12.49,13.74,11.69,22.76,13.2,26.02,2.15,7.33,2.15,7.33c0,0-.82,3.25-3.79,6.61s-9.29,8.32-9.29,8.32l-.22,27.7s-3.14-1.84-4.46-1.3-6.3,1.03-6.3,1.03c0,0-6.83-3.13-9.77-3.42s-7.96-1.07-11.08.77-12.87,9.24-12.87,9.24c0,0-7.15-3.22-11.44-5.75s-15.5-9.17-19.08-10.37-5.87-2.21-5.87-2.21l1.09-12.2,1.57-8.8s-5.73-2.86-12.91-3.52-17.2-.72-17.2-.72l-2.46,10.62s-7.56-2.53-8.03-5.1,1.58-12.36,5.01-20.67,14.8-29.56,20.73-34.94,17.54-12.92,18.61-12.92,7.08-4.78,7.08-4.78h3.04s-3.14-.39-.22,3.37,11.75,13.53,19.5,16.2,13.2,2.72,15.08.52,1.47-4.42,1.47-4.42l-1.47-5.19v-.02Z"/>
      <path class="st1" d="M268,387.61l-4.08,1.09s-.3,2.54-2.2,3.96-3.16,2.12-3.16,2.12c0,0,.59,4.38-.7,6.56s-5.2,5.33-7.1,6.37-4.1,2.17-6.08,2.99-3.63,1.79-8.24.38c-4.62-1.42-18.17-8.04-18.17-8.04l-17.53-1.73-27.52-2.45s.81,9.92,0,12.78-3.21,25.91-3.21,25.91c0,0-5.95-2.81,4.98,3.48,10.93,6.28,26.81,12.44,36.29,13.98,9.48,1.54,28.13-1.72,34.82-4.45,6.68-2.72,20.87-11.57,20.87-11.57l1.11-20.3s-2.17-2.37-2.08-4.16,1.75-4.43,1.75-4.43l.26-22.48h0Z"/>
    </g>
    <g id="capelli_colore">
      <path class="st1" d="M318.58,174.22s1.64-3.17-2.08-12.8-6.86-18.19-14.99-29.38-12.01-19.38-22.33-25.38c-10.31-6-19.74-11.09-35.52-13.32s-37.07,1.33-47.76,7.94-13.23,12.8-13.23,12.8c0,0-10.77,13.86-12.63,30.62s-1.49,36.42-.62,42.55,7.5,31.73,7.5,31.73c0,0-.61-3.7,5.75-5.61s15.19-3.67,15.92-3.97,2.18-1.29,2.18-1.29c0,0-5.48.72-6.11-2.97s-1.22-9.87,1.73-14.28,5.88-6.77,8.24-5.3,5.05,4.67,5.3,6.77.55,6.29.55,6.29c0,0,4.45-20.41,6.81-26.88s15.22-19.76,24.53-15.91,9.14,4.69,17.31,12.02,13.7,11.89,20.06,13.42,11.64,3.72,19.3-3.49c7.66-7.21,10.89-8.69,14.42-7.21s5.67,3.66,5.67,3.66h0Z"/>
      <path class="st0" d="M215.28,177.77s-2.12.44-8.89-5.45c-6.77-5.88-10.3-10.3-13.24-15.3s-6.77-15.59-8.24-20.89-2.24-15.89-2.24-15.89v-6.17s-11.02,16.52-12.63,30.62-.62,42.55-.62,42.55c0,0,3.43,6.18,6.52,10.05s6.23,7.44,9.22,9.92,6.5,3.41,6.5,3.41l9.11-2.51s-4.01.13-6.11-2.97-.63-10.16,1.73-14.28,5.59-7.06,8.24-5.3,2.46.69,3.88,3.73,1.57,10.79,1.57,10.79l5.2-22.32h0Z"/>
    </g>
    <g id="scarpe">
      <path class="st1" d="M262.44,620.23l13.51,6.37,8.61,4.09s-6.09,2.19-10.38,4.74-12.73,8.28-15.06,10.83-5.29,7.09-5.57,8.25l-.29,1.16-21.02-8s.8-3.94-1.53-8.41-6.19-9.83-6.19-9.83l.81-1.43s6.71,2.88,13.48,2.69c6.77-.19,9.88-.31,15.72-3.63,5.84-3.32,7.9-6.84,7.9-6.84h.01Z"/>
      <path class="st1" d="M192.41,640.15l.73,9.29v7.11l-15.36,14.95s-1.01-5.97-7.5-8.19-10.95-3.73-17.17-4.11-17.6-1.78-17.6-1.78c0,0,9.43-5.87,14.04-8.63,4.61-2.76,7.4-4.36,8.59-6.51s1.51-3.02,1.51-3.02c0,0,5.95,3.11,11.92,3.02,5.97-.09,20.85-2.13,20.85-2.13h0Z"/>
      <path class="st0" d="M283.62,630.25s6.79,3.02,10.41,6.38,7.51,6.23,7.45,8.94-.98,10.98-.98,10.98c0,0,.23,1.82-2.81,3.75s-10.3,7.43-15.74,7.9-7.99.96-16.86-1.61-25.42-7.93-30.53-10.03-10-2.92-10.8-5.39-.84-11.89-.84-11.89l1.6-9.83s1.47,1.38,3.21,4.34,3.61,4.03,3.84,7.52.66,6.37.66,6.37l21.02,8s2-5.86,5.86-9.41c3.86-3.55,9.37-7.98,15.06-10.83,5.69-2.85,9.44-5.18,9.44-5.18h0Z"/>
      <path class="st0" d="M193.14,656.54l-14.3,14.95s-2.12-6.07-8.56-8.19c-6.44-2.11-16.62-4.15-22.86-4.59-6.24-.43-11.91-.3-11.91-.3,0,0-5.11,3-6.52,6.22s-2.69,8.24-2.18,11.29l.51,3.05,2.35,7.8s7.9,3.53,15.42,4,19.31,1.04,25.18-3.19c5.87-4.22,23.37-23.68,23.37-23.68l-.5-7.38v.02Z"/>
    </g>
    <g id="ombre">
      <path class="st2" d="M129.79,685.89l5.28,2.49s-.09-6.33,0-11.96,7.6-15.11,13.72-18.36c6.11-3.25,33.95-18.57,33.95-18.57,0,0-6.73-5.29-10.84-13.55-4.12-8.26-.77-33.97,5.36-49.08,6.14-15.11,12.91-18.22,10.24-18.22s-3.49-9.78-3.42-21.18c.07-11.4,3.93-45.49,6.08-51.58,2.15-6.09,3.18-9.02,14.82-16.13,11.64-7.11,38-18.68,38-18.68,0,0-7.42-1.32-14.91-7.99-7.5-6.67-3.61-6.22-4.75-16.99-1.13-10.76,2.51-19.87,2.51-19.87,0,0,3.34,1.57,9.47,3.82s6.04.92,9.7,0,9.22-4.75,12.26-7.67c3.04-2.91,1.63-8.26,1.63-8.26,0,0-7.04,2.75-10.1,4.07-3.06,1.32-5.67,0-12.04,0s-16.75-4-23.88-7.23-31.98-5.66-40.98-8.72c-9.01-3.07-5.22-22.27-3.48-29.59,1.73-7.32,12.04-11.11,12.04-11.11,0,0-7.09-.96-8.56-3.35s.12-12,5.36-21.89c5.25-9.89,14.75-14.55,21.67-9.66,6.92,4.89,6.05,12.41,6.05,12.41,0,0-2.41,13.83-2.57,17.16s-1.35,12.98-1.35,12.98l-12.47,4.17-1.09,12.2s9.33,3.9,14.91,6.84,20.91,12.29,20.91,12.29l1.58-2.44s3.91-78.48,2.64-86.48c-.53-3.33-3.26-2.03-6.18-3.89-5.81-3.72-2.21-10.46-1.16-15.5.65-3.09,3.71.12,3.71.12,0,0,1.65,3.32-11.08-15.21-7.66-11.15-1.77-37.78,7.17-45.05s21.18-6.91,21.18-6.91c0,0,0-5.65.96-7.56,2.59-5.14,9.5-2.5,9.5-2.5,0,0-13.01-3.12-17.42-3.8-5.23-.81-7.1,2.48-7.1,2.48,0,0-6.67-14.4,6.66-30.4s29.6,3.22,29.6,3.22l-3.93-6.72s-2.11-2.72-5.86-9.18c-3.75-6.46-13.14-29.09-13.73-41.43-.58-12.34,9.84-18.73,9.84-18.73,0,0-11.04-2.88-34.71.23-23.68,3.11-32.85,19.73-37.74,27.14s-7.78,27.52-8.85,40.06c-1.06,12.53,2.79,33.98,5.03,44.1s10.37,26.71,15.48,35.5c5.11,8.8,15.41,21.44,15.41,21.44,0,0,2.71,2.54,2.86,4.82s-2.52,4.4-2.52,4.4l-3.48,1.79-3.09,2.75-1.79,2.05s-13.63,4.8-20.16,10.41c-6.52,5.61-13.45,18.19-17.88,26.92-4.43,8.74-9.43,28.24-9.43,28.24,0,0,.73,1.28.87,2.38.13,1.1,7.89,4,7.89,4,0,0-2.28,14.49-3.01,20.37s1.59,17.42,2.27,18.97,2.69,3.17,7.37,5.17,8.82,2.06,8.82,2.06c0,0,.24,1.55.49,5.88.25,4.33-.09,8.87-1.57,15.84-1.48,6.97-2.14,15.08-2.15,16.87,0,1.79,3.39,2.85,3.39,2.85,0,0-.4,3.78-.82,7.78-.42,4-2.03,23.07-1.94,26.6s1.96,6.04,2.2,7.22-1.8,20.84-2.38,26.05-5.54,32.69-6.25,36.68c-.71,3.98-1.64,13.78-1.58,16.19s-1.95,20.63-1.95,20.63l-1.27,12.57s-.25,5.17-1.62,10.85c-1.37,5.67-1.75,32.35-1.75,32.35l4.15,2.75-1.51,3.02c-1.51,3.02-6.29,5.2-6.29,5.2,0,0-12.45,7.2-16.34,9.93-3.89,2.74-5.32,5.35-8.82,11.26-3.5,5.91,2.78,17.87,2.78,17.87h-.01ZM198.59,188.38c1.02-1.49,3.12-3.43,4.75-2.79,1.35.53,4.12.75,5.56,3.83s1.57,8.73,1.57,9.53c0,0-3.64,6.67-3.64,6.64s1.14-9.14-2.27-13.95c-1.68-2.38-5.51-2.82-6.43-2.05"/>
      <path class="st2" d="M302.88,208.11s-.6-1.19-3.4.57-4.33,3.48-4.21,5.56.9,2.29.9,2.29l-2.59,2.39s-.31.24-1.42-2.82.99-10.5.99-10.5c0,0,5.5.46,7.47,1.05s2.25,1.46,2.25,1.46h.01Z"/>
      <path class="st2" d="M276.09,230.74s.64,1.7,0,5.52-5.25,10.03-17.06,6.62c-4.13-1.19-5.52-3.4-5.52-3.4,0,0,2.64,6.83,7.09,7.71s5.51,1.68,13.07.42c3.99-.67,6.25-4.39,5.51-7.14s-3.09-9.73-3.09-9.73h0Z"/>
      <path class="st2" d="M263.91,316.96s2.55,3.22,4.34,6.82,5.92,17.88,7.39,18.42,0,2.25,0,2.25c0,0-4.41,6.94-4.61,9.56s2.63,24.2,2.63,24.2l.91,1.3-6.55-1.3v-28.38s-2.49-25.44-2.94-27.65-1.17-5.23-1.17-5.23h0Z"/>
      <polygon class="st2" points="274.58 387.61 278.48 386.39 272.83 398.86 268.25 408.95 268 387.61 274.58 387.61"/>
      <path class="st2" d="M314.22,377.45s-2.12-.53-1.92,5.45,2.46,11.59,3.53,13.79,4.25,4.02,4.25,4.02l-5.38,2.33s-1.8-1.92-4.01-2.33-3.6-1.85-3.6-1.85c0,0,4-1.12,3.7-4.15s-1.44-5.84-1.24-10.17.1-5.44,1.54-6.31,3.13-.77,3.13-.77h0Z"/>
      <path class="st2" d="M313.31,410.1s-9.37-3.59-14.11-8.4c-4.73-4.81-5.86-9.38-4.9-10.07s-2.37-.7-3.04,2.08-.88,4.37,0,5.19,1.79,1.09,5.2,3.75,4.85,4.15,5.53,6.31,4.41,4.66,5.09,4.36,2.92-.14,4.57-1.68l1.65-1.54h0Z"/>
      <path class="st2" d="M303.7,419.87c-.28.19-5.18.65-8.71-1.75-3.52-2.4-4.55-6.87-6.56-6.18s-4.62,1.56-4.2,2.77.82.99,5.03,3.3,4.34,4,7.21,3.9,7.22-2.04,7.22-2.04h.01Z"/>
      <path class="st2" d="M235.93,482.59s-5.34,24.45-3.14,51.89c2.2,27.44,4.61,32.24,4.61,32.24,0,0-1.8,28.44,0,43.26s4.81,19.01,4.81,19.01c0,0,8.17-.31,8.65-.46s-.38,5.76,3.9,10.73,8.77,8.57,17.24,9.78c8.47,1.2,20.48,4.6,21.69,7.51,1.2,2.91.98,5.68.98,5.68,0,0-9.79,6.65-18.01,6.45-8.21-.21-25.3-5.92-34.53-9.35s-18.36-8.16-18.36-8.16c0,0-1.41-5.57-.97-11.01s1.95-11.15,1.95-11.15l-2.91-2.39s-5.85-28.86-5.93-29.48-2.69-23.82-2.69-23.82l-1.28-5.79,9.9-52.87,5.04-30,9.05-2.06h0Z"/>
      <path class="st2" d="M329.54,360.37s.56-1.07-1.37-.73-24.48,4.26-24.48,4.26l-13.46-3.46-18.96,41.86-5.29,12.39,4.02,4.79,11.33-.88,6.91-.74s-4.43-1-4-3.14,3.43-3.37,6.52-3.07c3.1.29,6.49,1.41,6.49,1.41,0,0,4.09-1.61,4.76-2.23s-.51-3.9-2.5-5.6-8.23-6.31-8.23-6.31c0,0-1.98-4.01.45-6.23,2.42-2.23,3.49-2.34,6.01-1.13s6.05,4.95,7.7,6.13,3.23.49,3.23.49l2.12-3.46-1.24-14.42s1.71-3.21,3.76-3.17,3.77,1.34,3.77,1.34l1.89,6.57,7.64-16.09,2.93-8.57h0Z"/>
    </g>
    <g id="TRACCIATO">
      <path class="st8" d="M182.67,114.07c0,17.8,6.84,50.61,31.84,63.7"/>
      <path class="st8" d="M191.66,210.48c-8.99-1.25-22.52-21.29-22.52-26.39"/>
      <path class="st7" d="M159.33,342.21c-1.17,4-8.17,34.83-3.5,47.17,2.21,5.84,5.89,6.25,14,8.17,12.33,2.92,35.75,4.83,46.67,5.17,2.3.07,4.33,1.67,5.83,2.5s16.17,9.17,22.33,5.5c6.17-3.67,15.17-4.67,13.89-15.92"/>
      <path class="st7" d="M246.66,400.71c1.08-4,16-4,17.25-12"/>
      <path class="st7" d="M249.91,388.71c4,0,20.73.27,28.56-2.32"/>
      <path class="st7" d="M280.65,381.59c-2.25-.83-14.32-4.3-18.4-4.13-4.08.17-8.92,1.25-12.83,1.25s-6.42.25-9.25.08"/>
      <path class="st7" d="M263.25,380.29c.5,1.08.92,2.91.42,4.24"/>
      <path class="st7" d="M250.75,391.62c-.33.83-.33,1.83-.83,2.08"/>
      <path class="st7" d="M246.08,403.04c-.25,1.17.5,3-2.25,4.33"/>
      <path class="st7" d="M310.5,400c1.42-1.08.41-3.87.08-6.7s-.58-7.77-.99-11.17c-.56-4.67,5.62-6.73,7.49-3.67,1.23,2.02,1.95,8.98,4,13.08,1.92,3.83.92,7.75-1,9.17s-4.5,2-4.92,3.33"/>
      <path class="st7" d="M313.83,402.46c.5,1.92,1.08,7.77-2.17,9.18s-4.5.32-4.58,3.74c-.08,3.42-6.6,6.85-8.94,6.52s-6.46-2.88-8.88-3.88-6.92-1.94-4.25-4.44,8.52-2.41,12.23-.53c0,0,5-1.42,4.94-2.71-.14-3.2-4.43-7.29-10.04-10.61-3.59-2.12-.6-11.22,5.58-8.18,6.45,3.17,9.35,11.77,13.18,3.51"/>
      <path class="st7" d="M274.58,345.57c1.25,4.79,2.77,19.49,10.44,26.39"/>
      <path class="st7" d="M194.66,277.96c-32.5,10.92-44.66,59.39-46.17,67.25-.6,3.11,5.52,5.27,8.76,6.38"/>
      <path class="st7" d="M204.65,319.71c-4.98,11.83.06,28.77-4.98,31-3.21,1.42-8.31,3.44-11.41,3.3"/>
      <path class="st7" d="M149.23,346.49c1.27-7.07,32.35-8.74,51.49,3.35"/>
      <path class="st7" d="M268,387.61c0,3.93-.22,15.82-.26,22.48"/>
      <path class="st7" d="M241.33,482.21c-3.04.28-7-.02-14.46,2.44-1.53.5-3.2,1.13-5.04,1.89"/>
      <path class="st7" d="M262.44,620.23c2.04,1.02,19.71,9.23,23.67,11.23,3.96,2,14.82,8.81,15.26,15.74s-.16,11.42-5.72,14.47c-5.57,3.05-11.43,8.35-22.48,6.7-11.05-1.65-38.19-11.3-43.72-13.92s-6.65-2.35-6.57-8.47c.06-5.26-.37-14.03,2.46-17.96"/>
      <path class="st7" d="M301.36,647.2c-1.89,2.88-11.76,12.26-25.11,13.06-8.08.49-22.09-4.05-29.61-6.96-7.52-2.91-19.83-7.74-23.84-9.41"/>
      <path class="st7" d="M284.55,630.69c-2.86.34-29.04,12.79-31.29,24.98"/>
      <path class="st7" d="M271.99,628.99c-3.92-.08-8.57,3.07-11.14,6.43"/>
      <path class="st7" d="M266.95,626.6c-2.42.03-6.75-.22-12.2,5.66"/>
      <path class="st7" d="M224.52,629.43c2.22,2.94,8.22,9.84,7.72,18.24"/>
      <path class="st7" d="M192.41,640.15c.4,12.97,1.19,19.58,1.23,23.78.02,1.47-3.58,5.43-5.83,7.57s-13.46,16.86-24.76,19.01-27.21-.73-30.94-2.28-2.89-2.33-4.06-6.48-4.61-15.22,7.46-24.33c12.07-9.11,21.61-10.25,24.13-18.15"/>
      <path class="st7" d="M193.14,656.54c-2.72,2.36-23.7,25.11-30.17,26.48-8.37,1.77-27.03,3.17-35.65-4.03"/>
      <path class="st7" d="M174.96,650.07c-1.29-2.03-5.54-6.02-14.83-3.9"/>
      <path class="st7" d="M170.27,654.51c-1.82-1.71-5.98-4.24-15.67-3.04"/>
      <path class="st7" d="M178.11,672.76c-1.26-3.75.09-13.8-43.37-14.74"/>
      <path class="st7" d="M318.97,385.03l10.57-23.63c.41-.92-.37-1.93-1.37-1.76l-31.98,5.56c-.89.15-1.65.73-2.03,1.55l-24.04,51.33c-.42.9.32,1.91,1.3,1.79l16.95-2.19"/>
      <path class="st7" d="M270.01,419.47l-3.15-2.97c-1.38-1.2-.82-2.65-.32-3.75l23.71-52.33c.48-1.07,1.47-1.82,2.63-2.01l30.51-5.07c1.31-.21,2.62.32,3.43,1.36l2.73,5.65"/>
      <path class="st7" d="M211.56,270.8c-.54-.4-9.81-9.55-18.69-22.05-8.87-12.5-18.55-29.84-22.59-55.39s-4.84-62.24,18.01-86.04c21.53-22.42,78.37-19.57,102.04,9.68,19.36,23.93,33.41,50.18,27.56,70.44-3.5,12.1-11.08,15.25-17.07,30.65-6.59,16.94-6.97,41.17-11.16,47.05-8.6,12.1-36.16,18.01-41.14,18.82s-10.89.54-18.69-3.36-10.12-6.27-10.12-6.27"/>
      <path class="st7" d="M279.18,224.29s-4.17,2.82-3.09,6.45,6.1,13.31-.18,16.13-22.81,1.61-22.41-7.39"/>
      <path class="st7" d="M293.16,205.6s9.6.7,10.62,2.42.53,2.6.53,2.6"/>
      <path class="st7" d="M250.01,198.61c.59.09-4.2-.6-15.91-3.74-3.25-.87-6.81,1.05-8.02,1.79"/>
      <path class="st5" d="M296.18,216.53l-3.53-.93c-.3-.08-.57.2-.47.5l.84,2.6c.08.24.36.35.58.21l2.7-1.67c.29-.18.23-.63-.11-.71h-.01Z"/>
      <path class="st5" d="M242.27,207.85l-5.29-.98c-.4-.07-.7.37-.47.72l1.79,2.69c.13.19.38.26.59.16l3.51-1.71c.4-.2.32-.8-.12-.88h0Z"/>
      <path class="st7" d="M273.67,263.27c-2.42,6.75-21.91,6.99-31.86-4.3"/>
      <path class="st7" d="M319.23,176.69s-.43-5.53-8.19-6.58-13.98,15.37-27.56,12.37c-23.12-5.11-30.23-28.56-46.38-26.89s-20.84,16.13-22.05,23.39-4.97,21.11-4.97,21.11c0,0,1.88-13.44-6.05-14.25s-12.91,17.21-8.87,19.76c2.5,1.59,4.38,2.17,5.45,2.38.24.05.26.39.03.46-1.79.61-5.87,1.9-10.45,2.8-6.18,1.21-11.46,2.81-13.26,7.73"/>
      <path class="st7" d="M238.07,283.65s-.65.33,0,2.08,1.21,3.09,1.47,5.11-4.22,6-14.04,2.82c-15.41-4.97-23.42-19.31-23.42-19.31,3.1-2.03,5.92-4.67,4.94-8.65"/>
      <path class="st7" d="M204.65,272.38s-2.29.3-3.98.8-6,4.78-6,4.78c0,0,8.29,12.35,20.66,19.87,9.09,5.52,21.91,6.86,28.64.94s-2.15-14.42-2.15-14.42"/>
      <path class="st7" d="M244.77,284.34s4.91.84,10.52,5.55c5.61,4.71,13.21,14.44,19.29,27.45,6.08,13.01,6.75,18.26,6.75,18.26,0,0-2.82,8.6-13.08,14.92"/>
      <path class="st7" d="M187.16,366.21s.83-14.67,2.67-21"/>
      <path class="st7" d="M257.27,377.95l-6.94-2.65s-4.44-1.95-10.78-.59-15.99,8.19-16.56,10.64"/>
      <path class="st7" d="M223.55,384.53c-.7-.27-4.33-1.47-12.4-6.31s-17.48-9.68-20.3-10.76-4.71-1.7-5.78-1.25"/>
      <path class="st7" d="M263.91,316.96c5.24,19.9,4.39,56.29,4.12,61.26"/>
      <path class="st7" d="M268.06,418.68l-1.11,20.3c-4.23,3.52-46.45,35.89-96.95-1.44-2.53-1.87,5.17-27,2.71-39.38"/>
      <path class="st7" d="M212.54,565.59c.17,4.83,4.62,44.99,6.46,52.49s2.59,11.82,16.76,12.15,23.39-3.21,27.56-12.04c4.17-8.83-.29-23.4-.67-31.73-.46-9.92-3.15-82.55-4.82-99.21l-1.37-18.01-.27-23.24"/>
      <path class="st7" d="M227.73,484.37s-7.03,36.48-8.38,45.49c-1.34,9.01-5.95,32.6-7.97,39.73s-5.6,16.26-6.54,21.77-1.74,21.08-3.22,25.25-3.17,19.39-4.25,20.96c0,0-7.32,4.08-17.81,4.62s-19.68-1.45-24.08-5.68c0,0,.95-30.56,2.16-34.86s1.75-4.44,1.21-8.34,3.58-28.43,3.23-33.21.66-12.32,3.89-28.45,7-46.03,6.33-50.47-2.55-3.76-2.29-10.75c.27-6.99,2.85-30.85,2.85-30.85"/>
      <path class="st7" d="M259.12,554.63s-1.85,6.25-5.86,6.25"/>
      <path class="st7" d="M189.83,559.3s-5.04,4-8.38,3-6.48-3-6.48-3"/>
      <line class="st6" x1="294.99" y1="365.73" x2="290.76" y2="359.62"/>
    </g>
  </g>
</svg>