<?xml version="1.0" encoding="UTF-8"?>
<svg id="Layer_1" xmlns="http://www.w3.org/2000/svg" version="1.1" viewBox="0 0 503 763.89">
  <!-- Generator: Adobe Illustrator 29.6.1, SVG Export Plug-In . SVG Version: 2.1.1 Build 9)  -->
  <defs>
    <style>
      .st0 {
        fill: #e5e4e5;
      }

      .st1, .st2 {
        fill: #cacacc;
      }

      .st3, .st2 {
        isolation: isolate;
      }

      .st2 {
        mix-blend-mode: multiply;
        opacity: .37;
      }

      .st4 {
        fill: #4e4e4d;
      }

      .st5 {
        stroke-width: .5px;
      }

      .st5, .st6 {
        stroke: #4e4e4d;
      }

      .st5, .st6, .st7 {
        fill: none;
        stroke-miterlimit: 10;
      }

      .st6, .st7 {
        stroke-width: 1.2px;
      }

      .st8 {
        fill: #f9fafb;
      }

      .st7 {
        stroke: #cacacc;
      }
    </style>
  </defs>
  <g class="st3">
    <g id="corpo_colore_sfondo">
      <path class="st8" d="M220.64,258.47s1.76-1.72,2.75-5.31,1.02-7.84,1.02-7.84l-7.68-16.93-.59-1.48s4.49,2.26,8.26.03,14.02-8.2,16.44-9.11,8.62-2.26,12.59-1.76,6.83,2.09,10.61.84,9.71-5.4,9.71-5.4c0,0-7.39-5.5-5.7-8.96s2.29-7.23,6.09-8.54,3.92-2.39,6.41-1.1,4.18.65,4.35,3.51.11,6.87.11,6.87c0,0,1.98,1,4.77-4.46s9.19-22.81,11.94-26.74,4.38-5.27,5.37-5.65,14.07-2.57,16.62-2.23,3.23-.03,4.47,1.98,5,10.95,8.35,14.22,8.09,5.9,9.82,5.96,3.36-.1,3.36-.1c0,0,.84,2.65-3.36,8.27s-16.15,18.97-19.39,23.74-5.87,6.74-6.34,10.14.21,11.83.58,14.54,2.01,6.72.02,7.96-4.96,2-7.93,1.37-3.56-2.67-5.42-.6-5.08,6.95-8.3,11.02-4.84,5.74-5.82,6.02l-.99.27s-.52,1.99-2.98,3.34-20.25,6.99-23.16,6.71-13.19-7.51-13.19-7.51l-6.33-4.28s-.88-1.41-.3,2.93,3.68,10.67,3.68,10.67c0,0-5.13,2.71-10.48,0s-12.14-6.68-15.91-11.86c-4.34-5.95-3.46-10.53-3.46-10.53h0Z"/>
      <path class="st8" d="M199.3,345.02s5.85-3.89,10.83-5.98,19.1-6.08,19.1-6.08l11.94,20.39,4.32,7.38s7.89-1.25,14.97-1.05,13.67,0,13.67,0l-1.66-13.54s10.02,4.71,16.35,5.34,17.38.36,17.38.36c0,0,3.8-3.27,5.78-4.18l1.98-.9s1.71-7.96,5.33-11.57,4.01-3.44,6.57-5.54,1.94-.49,4.29-4.38,2.01-6.09,4.6-5.67,5.6,3.22,5.26,5.5-1.65,4.71-3.49,6.46-2.38,2.71-2.38,2.71c0,0,2.31,2.77,3.74,3.67s8.46,4.65,8.46,4.65l-16.19,10.67,9.69,1.39,2.6-.28,8.48-6.7,2.55-1.52s5.3,3.37,2.19,7.2-6.15,3.85-6.15,3.85c0,0,1.79,3.78-1.01,5.86s-6.06,2.92-6.06,2.92c0,0-.59,4.06-3.02,5.7l-2.43,1.64s-4.84,5.44-6.84,6.05-11.88,1.73-16.87.9-12.72-1.89-12.72-1.89c0,0-38.68,12.85-48.09,15.26s-18.12,5.14-23.23,2.02-17.79-24.01-17.79-24.01l-12.14-26.64h0Z"/>
    </g>
    <g id="pantalone">
      <path class="st0" d="M200.46,439.17s11.45,4.69,16.8,4.69,16.97-.22,21.99-.25,23.38.52,26.19-.11,5.95-.57,5.95-.57c0,0,1.53,24.59,2.36,28.7s9.52,35.29,10.69,39.16,8.35,24.66,9.67,28.81,8.43,30.42,8.82,33.4.47,8.23,1.41,12.45,4.33,26.92,4.33,26.92c0,0-3.21,3.56-8.74,7.54s-10.15,7.17-14.77,8.75-15.21,3.74-15.21,3.74c0,0-9.15-14.29-10.43-18.1s-3.43-12.88-3.43-12.88l-4.34-18-6.35-6.91-3.24-12.41s-12.2,11.74-14.47,13.54-28.39,21.86-28.39,21.86c0,0-21.91,15.91-24.4,17.2s-9.04,3.03-9.04,3.03c0,0-10.85-7.85-13.37-11.06s-9.02-13.67-9.02-13.67l-5.36-6.9s7.78-7.27,9.86-9.35,12.9-11.81,15.23-13.38,7.68-5.73,7.68-5.73c0,0,5.39-6.59,8.49-9.39s10.64-7.19,11.61-7.88,12.54-8.3,12.54-8.3c0,0,2.91-7.86,5.29-9.05s6.07-.17,7.55-1.36,3.87-16.65,3.87-16.65l.49-18.96s-9.61-17.25-13.38-22.93-5.66-13.45-5.66-13.45l-1.23-12.5h.01Z"/>
    </g>
    <g id="T-shirt">
      <path class="st1" d="M219.69,259.68s-6.32,6.86-7.64,7.57-11.91,10.68-17.17,17.59-7.83,13.82-9.22,19.73-1.25,15.99,1.06,25.52,5.43,20.6,5.43,20.6l3.16,1.47s2.17,6.23,1.06,16.62c-1.1,10.38-4.56,33.07-5.95,37.78s-3,15.79-2.82,18.09,2.3,7.73,4.54,9.38,10.85,6.93,14.77,7.74,10.95,2.16,15.71,2.08,19.62-.37,26.16-.25,13.78.56,16.67-.1,8.6-1.59,10.92-4.89,2.75-5.19,2.75-5.19l-3.11-38.8-.18-8.73s-14.14,4.6-25.35,8.3-18,3.9-22.78.83-18.5-28.28-18.5-28.28l-9.89-21.71s4.97-3.55,10.83-5.98c5.86-2.44,19.1-6.08,19.1-6.08l16.26,26.73h28.64s-3.58-32.87-4.92-37.79-12.48-29.15-13.13-30.28-5.61-10.77-5.61-10.77c0,0-6.32,4.51-15.31-1.81s-15.48-19.36-15.48-19.36h0Z"/>
    </g>
    <g id="capelli_colore">
      <path class="st1" d="M216.73,228.39s-10.14-29.71-9.81-42.48c.33-12.78,1.62-24.52,3.01-31.58s6.3-20.12,9.8-25.32,6.75-10.12,11.35-13.78,14.08-10.24,22.35-11.99,19.2-3.78,27.46-2.32,20.13,4.67,26.88,8.49,19.01,12.53,22.39,15.97c3.38,3.44,14.17,17.36,16.19,22.41s5.09,14.65,5.03,19.11-1.66,19.4-1.66,19.4c0,0-2.92,1.63-6.58-.56s-9.28-8.59-10.48-10.89-6.77-10.34-6.77-10.34c0,0-7.54.26-12.58.73s-8.02-.42-9.5,2.85-7.76,14.85-8.93,19.02-2.2,10.62-6.02,13.41l-3.82,2.79s-1.44-9.36-4.41-10.25-4.64-1.45-8.12,2.4-4.54,5.03-4.43,7.11,1.26,5.08,2.95,6.63,2.74,2.33,2.74,2.33c0,0-3.68,3.79-7.51,4.79s-13.88-.66-17.75-.06-8.31.95-13.96,4.64-9.18,6.31-12.33,6.91-5.46.61-5.46.61l-.03-.03Z"/>
      <path class="st0" d="M227.87,120.5s2.78,9.81,4.86,13.08,8.59,8.74,12.77,12.1,20.83,12.28,20.83,12.28l33.09,18.47s-4.15,9.54-5.69,13.37-1.08,7.9-4.9,10.69l-3.82,2.79s.64-9.06-2.63-9.66-3.91-3.65-8.24.59-6.74,3.55-6.09,8.31,5.7,8.96,5.7,8.96l-4.53,2.88s-6.47-3.21-10.93-5.89-18.74-12.27-27.21-16.84-17.15-10.38-18.75-14.76-4.2-12.49-4.2-12.49c0,0,1.48-10.49,4.42-19.32s7.88-19.03,10.67-21.91,4.65-2.68,4.65-2.68v.03Z"/>
    </g>
    <g id="scarpe">
      <path class="st1" d="M143.47,594.98l-7.05,1.63s1.25,1.21-.5,4.8-3.51,6.52-4.84,7.9-5.37,4.98-5.37,4.98l8.92,17.26s6.22,3.74,10.85,3.57,11.66-1.87,14.37-3.72,7.02-5.73,7.02-5.73l-2.81-7.3-7.55-4.68-7.55-10.12-5.5-8.59h.01Z"/>
      <path class="st1" d="M274.14,631.67s11.21-2.25,15.67-4.98,12.63-8.66,13.56-9.44,4.02-4.89,4.02-4.89c0,0,1.35,1.73,5.16,1.93s16.8-.49,16.8-.49c0,0-6.42,4.21-9.34,8.21s-5.73,10.99-6.01,13.11-.09,8.49-.09,8.49c0,0-8.52,2.59-14.13,3.6s-12.59,1.62-12.59,1.62c0,0-.07-4.66-3.14-7.64s-5.28-4.62-5.28-4.62l-4.84-3.02.22-1.89h0Z"/>
      <path class="st0" d="M136.42,596.62s.49,3.12-1.6,6.96-4.26,6.72-5.7,7.93-3.41,2.79-3.41,2.79l8.92,17.26s6.76,3.73,12.53,3.63,6.67-.42,10.92-2.79,8.79-6.73,8.79-6.73c0,0,6.68,2.93,10.19,4.94s8.44,4.25,8.72,7.84.7,2.12,0,5.18-2.61,7.18-2.61,7.18c0,0-12.19,2.55-21.32,2.09s-13.91.44-18.22-2.09-12.04-8.32-16.54-17.24-10.97-22.44-10.46-25.41.84-4.25,3.56-5.68,8.47-3.64,8.47-3.64l7.75-2.21h.01Z"/>
      <path class="st0" d="M273.92,633.56s5.24,3.3,6.63,4.46,4.64,4.46,5.2,5.6,1.43,5.22,1.43,5.22c0,0,7.5-.27,14.45-1.99s12.27-3.23,12.27-3.23c0,0-1.87-8.33,1.48-14s4.78-8.83,9.01-11.55,7.07-4.38,7.07-4.38c0,0,11.47-.94,15.86,1.49s7.86,5.03,8.34,8.5-.59,10.01-4.15,12.09-14.08,7.69-20.05,10-26.82,8.2-33,10.19-11.39,3.53-15.32,2.04-7.54-6.59-8.04-8.65-1.61-6.56-1.36-9.93.16-5.86.16-5.86h.02Z"/>
    </g>
    <g id="ombre">
      <path class="st2" d="M304.83,107.95s-37.24,1.57-55.86,42.44c-18.61,40.87,10,58.94,16.12,61.12s7.7,0,7.7,0c0,0-5.85,4.64-7.31,5.02s-4.96.28-8.09,14.48-1.23,34.93,6.24,45.02-14.05-7.04-14.05-7.04l-10.33-9.01s-2.84-2.02-4.75,2.31-1.39,14.9,0,15.76,7.01,3.65,9.4,3.73c0,0-.24,2.17,0,9.63s.46,26.59,2.88,41.81,6.63,26.32,6.63,26.32h-7.93l-12.13-20.51s5.2-4.4,5.59-6.64-3.86-5.01-5.69-12.22-3.22-12.16-3.22-12.16c0,0-2.98-12.87-6.59-12.21s-7.46,4.03-10.11,9.56-3.85,11.79-3.37,17.81,3.46,14.44,3.46,14.44l14.11-4.39s-9.38,7.4-10.83,14.44,2.68,20.52,7.84,25.81,20.81,7.7,28.87,7.22,41.03-8.93,43.92-10.12,17.57.23,25.75,0,14.55-2.04,17.09-3.85,2.93-3.67,2.93-3.67c0,0-1.55,6.3-3.73,8.65s-4.35,4.79-4.35,4.79c0,0-3.34,2.72-6.44,3.37s-5.21,1.32-10.04.89-14.69-2.75-18.07-2.37-26.36,9.09-26.36,9.09l-27.34,7.68s-.39,5.76-.19,20.68,10.05,27.91,11.75,27.94-15.06,6.23-17.51,13.45,4.86,32.25,10.71,51.74,21.01,79.18,30.64,95.06,17.5,16.04,17.5,16.04c0,0-4.03,4.55-2.58,8.57s17.98,4.82,25.47,4.91,17.33,2.95,19.05,4.66l1.72,1.7s-32.92,13.55-43.58,15.71-17.22,5.16-19.56,2.38-6.35-9.25-6.29-12.23.16-13.71.16-13.71l-4.13.34-8.41-14.02s-4.55-9.15-5.45-15.05-4.54-20.3-4.54-20.3c0,0-4.63-2.53-5.65-5.44s-3.39-12.97-3.39-12.97l-4.52-24.19s4.97,5.14-2.25,7.06-8.84-2.65-15.01,6.5-35.05,20.15-48.76,33.18-16.37,25.2-16.37,25.2l-17.49-24.28,6.42-6.42c1.2-1.2,23.58-19.01,23.58-19.01l4.68-4.47s3.95-4.74,7.58-8.08,23.9-16.22,23.9-16.22c0,0,.9-7.57,4.03-8.77s6.74-.48,7.7-1.68,4.63-16.12,4.72-24.07-1.38-13.92-1.38-13.92c0,0-6.99-11.33-9.71-16.23s-7.17-13.4-8.2-18.72-2.13-11.87-2.13-11.87l-11.71-9.52s.14-9.89,1.19-14.93,7.16-29.78,7.36-39.67-.84-22.32-.84-22.32l-3.63-3.01s-6.3-23.33-6.56-29.7.93-19.67,3.76-24.87,7.27-11.07,10.95-15.54,13.3-12.19,16.91-16.27,5.17-5.28,6.5-10.58,1.34-8.18,1.34-8.18c0,0-9.72-16.95-12.94-30.55s-8.05-35.56-1.23-61.11,14.23-32.61,21.49-37.83,21.72-13.7,37.34-13.82c18.5-.14,35.61,7.24,35.61,7.24h.01Z"/>
      <path class="st0" d="M323.77,203.87s-4.61.49-6.61,2.14-1.94,7.45-1.94,7.45l-1.76.94s-4.19-.67-5.7-5.27,0-12.82,0-12.82c0,0,4.82-.35,7.66,1.23s8.34,6.32,8.34,6.32h.01Z"/>
      <path class="st0" d="M272.47,353.01s10.21,4.03,17.3,5.04,12.61-2.31,12.61-2.31l-5.95,6.19s-12.29-.31-17.29-1.27l-5.01-.96-1.66-6.69h0Z"/>
      <path class="st0" d="M318.56,344.23s9.11-7.32,9.83-9.49-1.62,4.07,4.24,6.12,11.37,3.36,11.37,3.36l-1.57,1.07s-8.26-.34-11.15-.51-7.75-.45-9.17-.55-3.55,0-3.55,0Z"/>
      <path class="st2" d="M151.35,609.57s-3.93-2.94-8.51-4.12-5.14,5.92-4.74,8.99,3.2,16.74,13.24,20.73,18.28,5.96,20.17,10.51,0,7.24,0,7.24c0,0-9.25.65-17.66-.42s-17.39-2.74-23.87-14.39-14.17-29.56-13.34-31.47-.71-2.4,4.37-4.66,22.07-7,22.07-7l8.27,14.59h0Z"/>
    </g>
    <g id="TRACCIATO">
      <path class="st6" d="M192.14,350.69c-11.34-36.92-10.57-53.5,10.17-74.22,4.99-4.99,16.4-15.01,18.33-18,3-4.64,5.93-11.41,2.11-17.53"/>
      <path class="st6" d="M192.14,350.69c1.5,1.12,4.66,2.34,10.17,2.31"/>
      <path class="st6" d="M195.3,352.16c1.17,7.49,2.34,22.82-2,41.99-4.33,19.17-8.99,33.82-2.5,38.83,3.3,2.55,13.17,11.33,34.5,10.83s28-.11,35.83.03c7.83.14,18.33-4.36,18-11.19s-3.79-37.7-3.31-46.77"/>
      <path class="st5" d="M212.59,442.92c.93,9.06,3.86,21.06-2.45,20.9"/>
      <path class="st6" d="M330.15,353.26c5.25-2.87,31.24-20.97,33.48-22.7,7.62-5.88,5.25,2.19,3.13,4.48-3.54,3.81-13.69,10.98-15.85,12.63"/>
      <path class="st6" d="M125.72,614.29c9.31-7.57,11.04-12.93,10.7-17.68"/>
      <path class="st6" d="M159.86,615.76c-2.62-.92-4.56-2.08-8.51,0"/>
      <path class="st6" d="M164.07,618.37c1.94,6.75,2.81,7.3,2.81,7.3"/>
      <path class="st6" d="M154.97,621.84c1.83-.58,4.9-2.85,9.78-1.12"/>
      <path class="st6" d="M274.14,631.67c-.58,3.57-1.25,18.23,4.25,24.15,5.5,5.92,26.5-1.83,34.08-3.92,7.58-2.08,33.5-12.83,37.25-14.92s8.13-7.13,5.75-13.92c-6.25-17.83-40.52-3.67-48.08-10.71"/>
      <path class="st6" d="M275.11,649.35c30.52,1.97,73.5-17.9,80.55-25.67"/>
      <path class="st6" d="M273.92,633.56c4.5,2.65,13.26,7.64,13.26,15.28"/>
      <path class="st6" d="M331.47,613.69c-4.33,2.83-19.79,8.73-17.56,29.93"/>
      <path class="st6" d="M320.83,614.45c-3.4,1.39-6.79,2.35-10.88,7.85"/>
      <path class="st6" d="M312.55,614.29c-1.94.89-7.84,4.4-9.18,7.55"/>
      <path class="st6" d="M199.3,344.23c1.83,5,18.67,45.59,27,50.09s14.33,2.5,26.17-.67c11.83-3.17,44.17-16,49.83-15.33s28.5,7.92,35.77-5.67"/>
      <path class="st6" d="M332.64,374.48c4.31-.88,8.6-1.25,10.48-11.42"/>
      <path class="st6" d="M336.3,366.73c6.55-.42,11.5-9.58,13.5-14.42s1.33-6-2.17-3-3.79,5.84-7.79,5.34-14.67-2.27-17.73-2.27"/>
      <path class="st6" d="M272.47,346.15c3.08,1.5,17.3,8.71,34.61,4.92"/>
      <path class="st6" d="M353.47,346.15c2.44,1.52,5.79,12.53-6.54,11.86"/>
      <path class="st6" d="M350.24,357.87c.06,2.28-.99,7.36-7.8,8.11"/>
      <path class="st4" d="M314.1,211.55c1.07.29,3.81,1.59,2.86,2.86s-3.34,1.43-3.49,0-.52-3.17.64-2.86h-.01Z"/>
      <path class="st6" d="M227.93,248.92c-.39-.58-14.17-17.28-20.28-53.2-1-5.89-9.22-96.42,68.24-95.14,32.73.54,78.03,33.12,75.33,72.81-.88,12.92-2.52,18.31-6.6,23.72s-16.89,19.58-20.39,24.82-3.88,6.21-4.08,9.9,1.94,17.09,1.94,17.86-2.48,2.93-4.93,2.93c-5.45,0-8.13-1.91-9.29-.94s-5.97,7.13-8.3,11.02-4.27,6.02-5.82,6.02-.78.58-1.55,1.75-6.99,5.05-15.14,6.8-8.54,2.91-13.98,0-21.75-12.82-23.8-17.28"/>
      <path class="st6" d="M349.7,186.28s-2.18.51-5.67-.26-8.15-5.82-10.29-9.32c-2.14-3.49-5.14-11.77-7.48-12.15-2.91-.47-11.13.42-16.29,1.08-3.15.4-5.93,2.25-7.48,5.02-3.98,7.15-8.28,19.38-10.88,24.89-3.3,6.99-6.6,7.77-6.6,7.77,0,0,1.4-9.22-4.46-10.38s-8.59,2.41-11.85,7.86,5.05,10.74,5.05,10.74c0,0-3.66,4.13-9.71,5.4-4.47.94-12.97-2.74-20.77,0s-13.01,6.57-17.47,9.29-9.06,2.19-9.06,2.19"/>
      <path class="st6" d="M231.08,311.17c.77,3.93,1.98,9.65,4.02,13.53s4.16,7.12,4.16,7.12c-2.37,4.75-3.66,5.95-5.89,7.22"/>
      <path class="st6" d="M192.14,350.69s6.69-6.68,18-11.65,17.83-6.64,27.85-6.64"/>
      <path class="st6" d="M313.96,346.77s1.63-7.73,6.93-13.53c1.75-1.91,4.89-3.03,7.54-5.68s3.21-6.72,6.32-7.95c1.9-.75,4.28,1.36,4.89,3.4s.76,4.55-1.76,7.19-3.54,3.06-3.74,4.08,2.39,2.65,3.74,3.67,8.46,4.65,8.46,4.65"/>
      <line class="st6" x1="229.24" y1="332.96" x2="245.5" y2="360.74"/>
      <path class="st6" d="M242.64,361.93s2.45-1.68,8.56-2.23,16.35.21,16.35.21c10.33.5,26.22,2.02,28.89,2.03,1.63,0,3.11-3.11,5.95-6.19s7.5-8.08,13.5-9.58,12.33-1.33,17.17-.75,8.11-.29,9.77-.62"/>
      <path class="st6" d="M220.64,258.47c0,9.33,17.35,28.03,29.84,22.38"/>
      <path class="st6" d="M215.61,263.87c.91,4.92,18.97,30.57,37.82,22.92"/>
      <path class="st6" d="M134.64,631.55s5.87,3.63,12.23,3.63c6.98,0,12.23-2.99,15.69-5.64s4.32-3.88,4.32-3.88c0,0,9.8,4.26,15.19,7.89s3.92,8.42,3.72,10.06-1.65,6.37-1.65,6.37c-2.5,3.83-26.83,3.33-37,1.83s-19-15.67-21.83-21.67-9.17-17.33-8.67-23.5c.17-2.1,2.75-4,6.28-5.62,6.81-3.14,17.15-5.28,20.56-6.05"/>
      <path class="st6" d="M122.11,601.41s-.79,1.14.77,4.81c1.86,4.4,11.76,29.95,18.28,33.97s8.21,4.37,18.87,5.24c16.4,1.34,25.76-1.82,25.76-1.82"/>
      <path class="st6" d="M199.3,438.6s1.97,13.05,3.6,17.53,10.19,19.36,12.02,21.8,9.78,16.71,12.23,24.66,11.21,36.88,12.84,46.87,3.67,24.05,5.91,28.12,7.34,5.71,10.19,9.58"/>
      <path class="st6" d="M251.55,583.02s1.69,8.83,3.32,13.41,2.45,13.5,5.3,19.33,9.37,15.41,9.78,16.63,14.65-3.06,19.86-5.71,17.43-12.15,18.86-14.33-4.69-27.04-5.09-31.32c-.12-1.22-.18-2.26-.22-3.12-.11-2.68-.52-5.33-1.18-7.93-1.91-7.56-5.57-21.94-6.75-26.23-1.63-5.91-6.52-17.93-7.13-20.17s-13.17-42.79-14.53-51.96-2.42-29.85-2.42-29.85"/>
      <path class="st6" d="M219.76,486.2s2.18,9.06,0,21.28c-2.18,12.23-2.38,15.69-3.81,16.3s-5.33-.67-8.6,2.25c-2.66,2.38-2.45,5.02-4.55,16.33"/>
      <path class="st6" d="M204.28,533.57s-15.64,10.3-18.19,12.08c-16.12,11.29-17.35,20.97-17.35,20.97"/>
      <path class="st6" d="M172.8,558.17s-23.92,19.59-28.08,23.38c-2.88,2.62-6.61,6.53-6.61,6.53,0,0,4.15,4.66,6.39,8.54s7.08,10.3,9.47,14.18,10.51,8.06,11.9,8.92,6.48-1.31,14.22-6.03,20.17-15.16,25.06-18.7,31.24-23.66,34.23-27.39,2.78-4.95,2.78-4.95"/>
      <path class="st6" d="M284.9,258.47s.96,7.16,7.86,10.53"/>
      <path class="st7" d="M227.87,118.87s0,16.87,22.09,29.65c6.77,3.92,49.46,28.39,49.46,28.39"/>
      <path class="st7" d="M208.2,164.21s0,6.13,4.13,12.7c5.1,8.12,17.71,14.07,25.13,18.26s31.76,19.78,31.76,19.78"/>
      <path class="st6" d="M307.77,196.32s5.71-.17,9.39,2.05,8.71,7.64,8.71,7.64"/>
      <path class="st6" d="M247.1,267.25s-.83,3.8.28,7.27c1.52,4.76,6.97,13.99,8.71,17.1s11.31,20.71,13.13,30.28,4.92,37.79,4.92,37.79"/>
    </g>
  </g>
</svg>