<svg width="331" height="514" viewBox="0 0 331 514" fill="none" xmlns="http://www.w3.org/2000/svg">
<path d="M331 135.946C331 207.743 272.797 265.946 201 265.946C129.203 265.946 71 207.743 71 135.946C71 64.1488 129.203 5.9458 201 5.9458C272.797 5.9458 331 64.1488 331 135.946ZM83.9844 135.946C83.9844 200.572 136.374 252.961 201 252.961C265.626 252.961 318.016 200.572 318.016 135.946C318.016 71.3199 265.626 18.9302 201 18.9302C136.374 18.9302 83.9844 71.3199 83.9844 135.946Z" fill="#065777" fill-opacity="0.2"/>
<path d="M312.719 135.438C312.719 197.419 262.473 247.665 200.492 247.665C138.511 247.665 88.2656 197.419 88.2656 135.438C88.2656 73.457 138.511 23.2114 200.492 23.2114C262.473 23.2114 312.719 73.457 312.719 135.438ZM100.938 135.438C100.938 190.42 145.51 234.993 200.492 234.993C255.475 234.993 300.047 190.42 300.047 135.438C300.047 80.4555 255.475 35.8835 200.492 35.8835C145.51 35.8835 100.938 80.4555 100.938 135.438Z" fill="#AF60A3" fill-opacity="0.2"/>
<path d="M201 12.438C201 8.85247 203.909 5.92889 207.49 6.10786C229.865 7.22607 251.612 14.1113 270.596 26.1441C289.58 38.1769 305.088 54.905 315.649 74.6626C317.339 77.8248 315.937 81.703 312.694 83.2333C309.451 84.7636 305.598 83.3654 303.891 80.2126C294.392 62.6771 280.549 47.826 263.645 37.1111C246.74 26.3963 227.401 20.216 207.489 19.1103C203.909 18.9115 201 16.0236 201 12.438Z" fill="#065777"/>
<path d="M200.492 29.5474C200.492 26.0482 203.331 23.1928 206.825 23.3902C220.144 24.143 233.24 27.2656 245.492 32.6282C259.681 38.8388 272.431 47.9193 282.939 59.2982C293.448 70.6771 301.487 84.1081 306.551 98.7458C310.924 111.385 312.996 124.687 312.689 138.024C312.608 141.522 309.536 144.126 306.048 143.848C302.56 143.57 299.979 140.516 300.034 137.017C300.218 125.426 298.376 113.875 294.575 102.889C290.083 89.904 282.952 77.9896 273.63 67.8955C264.308 57.8014 252.998 49.7463 240.411 44.2369C229.761 39.5757 218.393 36.8223 206.824 36.085C203.332 35.8625 200.492 33.0467 200.492 29.5474Z" fill="#AF60A3"/>
<path d="M294.438 135.946C294.438 187.55 252.604 229.383 201 229.383C149.396 229.383 107.562 187.55 107.562 135.946C107.562 84.3417 149.396 42.5083 201 42.5083C252.604 42.5083 294.438 84.3417 294.438 135.946ZM118.896 135.946C118.896 181.29 155.655 218.05 201 218.05C246.345 218.05 283.104 181.29 283.104 135.946C283.104 90.6012 246.345 53.8421 201 53.8421C155.655 53.8421 118.896 90.6012 118.896 135.946Z" fill="#C94378" fill-opacity="0.2"/>
<path d="M201 48.1752C201 45.0455 203.54 42.4904 206.664 42.6801C223.153 43.6813 239.119 49.04 252.911 58.2554C268.277 68.5224 280.253 83.1153 287.325 100.189C294.397 117.262 296.247 136.049 292.642 154.175C289.406 170.443 281.905 185.522 270.954 197.89C268.879 200.233 265.276 200.222 263.063 198.009C260.85 195.796 260.867 192.22 262.922 189.86C272.299 179.09 278.728 166.033 281.526 151.963C284.694 136.037 283.068 119.529 276.854 104.526C270.64 89.5236 260.116 76.7007 246.614 67.6791C234.687 59.7094 220.908 55.0223 206.663 54.0376C203.54 53.8217 201 51.3049 201 48.1752Z" fill="#C94378"/>
<path d="M276.156 135.946C276.156 177.453 242.508 211.102 201 211.102C159.492 211.102 125.844 177.453 125.844 135.946C125.844 94.4381 159.492 60.7896 201 60.7896C242.508 60.7896 276.156 94.4381 276.156 135.946ZM136.385 135.946C136.385 171.632 165.314 200.561 201 200.561C236.686 200.561 265.615 171.632 265.615 135.946C265.615 100.26 236.686 71.3309 201 71.3309C165.314 71.3309 136.385 100.26 136.385 135.946Z" fill="#B56238" fill-opacity="0.2"/>
<path d="M258.891 135.946C258.891 167.918 232.972 193.836 201 193.836C169.028 193.836 143.109 167.918 143.109 135.946C143.109 103.974 169.028 78.0552 201 78.0552C232.972 78.0552 258.891 103.974 258.891 135.946ZM153.787 135.946C153.787 162.021 174.925 183.159 201 183.159C227.075 183.159 248.213 162.021 248.213 135.946C248.213 109.871 227.075 88.7326 201 88.7326C174.925 88.7326 153.787 109.871 153.787 135.946Z" fill="#A5771E" fill-opacity="0.2"/>
<path d="M201 83.3939C201 80.4454 203.395 78.0296 206.331 78.3012C214.227 79.0314 221.909 81.3782 228.891 85.2167C237.436 89.9149 244.656 96.6956 249.881 104.93C255.105 113.163 258.165 122.584 258.777 132.316C259.276 140.268 258.128 148.218 255.426 155.673C254.421 158.445 251.215 159.583 248.548 158.327C245.88 157.072 244.767 153.897 245.713 151.105C247.683 145.296 248.507 139.142 248.12 132.986C247.622 125.048 245.126 117.365 240.865 110.65C236.604 103.935 230.716 98.4049 223.746 94.5733C218.341 91.6016 212.422 89.7262 206.327 89.0341C203.398 88.7014 201 86.3424 201 83.3939Z" fill="#A5771E"/>
<path d="M201 66.0602C201 63.1493 203.363 60.7703 206.267 60.9742C222.474 62.1123 237.93 68.4798 250.271 79.193C262.611 89.9062 271.086 104.315 274.489 120.202C275.099 123.048 273.075 125.722 270.193 126.131C267.311 126.54 264.665 124.527 264.022 121.688C260.997 108.315 253.782 96.2011 243.36 87.1531C232.938 78.1051 219.93 72.6626 206.265 71.5456C203.364 71.3085 201 68.9711 201 66.0602Z" fill="#B56238"/>
<path d="M11.5361 69.6821C11.5361 69.6821 9.87055 70.596 9.89617 72.9022C9.9218 75.2083 9.1787 78.5651 11.5361 83.6642C13.8935 88.7634 18.1813 94.3324 20.7095 98.6799C23.2377 103.027 27.739 113.627 28.969 119.922C30.1989 126.217 31.8218 143.496 34.3757 147.032C36.9295 150.569 42.8657 155.779 48.8105 158.111C54.7553 160.442 66.9779 165.038 71.8807 164.867C76.7834 164.696 79.2262 164.269 79.2262 164.269C79.2262 164.269 77.9706 167.002 77.9706 168.702C77.9706 170.402 77.5606 173.844 80.627 173.827C83.6933 173.81 89.0231 174.237 94.165 171.102C99.3069 167.967 104.15 164.166 106.311 161.382C108.472 158.597 109.958 156.317 109.958 156.317C109.958 156.317 106.695 156.496 106.217 152.712L105.739 148.929C105.739 148.929 118.012 135.006 121.762 128.566C125.512 122.126 131.439 109.023 131.439 109.023C131.439 109.023 130.842 105.598 126.528 104.232C122.215 102.865 111.111 100.226 111.111 100.226C111.111 100.226 114.69 102.165 115.869 97.5952C117.047 93.0256 113.742 82.9212 111.897 81.9133C110.052 80.9054 108.173 79.5302 106.217 81.3837C104.261 83.2372 103.262 86.2608 103.262 86.2608L102.792 91.6333C102.792 91.6333 99.5204 74.0809 97.5047 69.6821C95.4889 65.2833 88.2459 55.418 80.0462 54.8799C71.8465 54.3418 69.7453 56.6565 64.5095 62.2853C59.2736 67.914 51.2448 75.2425 43.5747 76.9849C35.9046 78.7274 34.7515 79.7011 29.3363 75.1485C23.9125 70.596 20.6839 67.0514 18.1642 67.282C15.6445 67.5126 11.5361 69.6821 11.5361 69.6821Z" fill="#F9FAFB"/>
<path d="M120.429 211.921C120.429 211.921 122.06 226.535 122.282 229.149C122.504 231.762 122.709 234.777 122.709 234.777C122.709 234.777 111.751 239.484 106.506 242.541C101.262 245.599 91.6272 250.434 91.6272 250.434C91.6272 250.434 82.5392 242.43 77.9696 242.037C73.3999 241.645 70.3507 241.662 68.4033 242.541C66.4558 243.421 63.9447 244.378 63.9447 244.378C63.9447 244.378 58.5807 243.276 55.0873 244.378C51.5939 245.48 53.6438 245.035 53.6438 245.035L53.4559 221.376L48.0492 217.148C48.0492 217.148 47.0584 222.23 46.5203 224.365C45.9822 226.501 43.3601 234.034 42.2838 235.794C41.2076 237.553 39.1406 239.689 39.1406 239.689L44.7267 252.014C44.7267 252.014 53.0374 270.156 53.4559 269.933C53.8744 269.711 53.789 253.056 53.789 253.056L57.1629 253.987C57.1629 253.987 56.3514 255.558 59.0419 257.369L61.741 259.18C61.741 259.18 61.8008 261.324 62.8428 264.236C63.8849 267.149 66.4473 269.301 68.4118 270.224C70.3763 271.146 73.6989 273.726 76.4577 273.555C79.2166 273.384 84.4353 272.479 89.1416 269.933C93.8479 267.388 96.1711 266.235 96.1711 266.235C96.1711 266.235 122.051 263.621 128.5 263.186C134.949 262.75 144.592 261.964 147.043 258.257C149.495 254.55 151.51 248.939 150.844 241.619C150.178 234.299 146.497 214.27 146.497 214.27L145.754 211.912H120.429V211.921Z" fill="#F9FAFB"/>
<path d="M12.8127 244.387C12.8127 244.387 11.4632 245.292 10.6603 248.623C9.85744 251.954 9.02038 254.448 8.32853 256.421C7.63668 258.395 6.37257 259.454 7.44878 262.076C8.52498 264.698 13.385 267.098 13.385 267.098C13.385 267.098 13.5644 267.901 14.1879 269.942C14.8114 271.984 16.3403 273.205 18.1767 274.187C20.0131 275.17 19.9106 278.031 21.6957 279.423C23.4809 280.816 26.1031 282.9 27.9224 282.344C29.7417 281.789 32.8678 280.038 35.5071 279.03C38.1464 278.023 39.94 275.827 39.1371 275.238C38.3343 274.649 36.2075 273.393 33.423 273.572C30.6385 273.752 29.8613 275.332 28.2469 274.982C26.6326 274.632 26.2995 269.942 26.2995 269.942C26.2995 269.942 29.5623 265.911 27.3672 267.098C27.3672 267.098 31.7318 266.389 33.0472 263.408C34.3625 260.427 31.4499 254.807 29.3573 255.892C27.2647 256.977 24.019 259.479 22.5584 260.957C21.0978 262.435 20.0473 263.716 18.9369 262.067C17.8265 260.419 17.1261 259.112 17.1261 259.112C17.1261 259.112 19.1675 251.45 18.1511 248.367C17.1347 245.284 17.1261 244.737 15.8364 244.378C14.5466 244.019 12.8213 244.378 12.8213 244.378L12.8127 244.387Z" fill="#F9FAFB"/>
<path d="M63.6814 302.767C63.6814 302.767 63.801 317.962 63.4508 322.617C63.1006 327.272 60.0428 371.055 60.1538 375.436C60.2649 379.818 58.3345 408.884 58.531 413.932C58.7274 418.98 58.1381 426.189 57.3779 430.357C56.6177 434.525 55.3451 444.066 56.8483 447.824C58.3516 451.582 61.2386 455.605 65.0993 457.433C68.9599 459.261 74.9304 459.68 80.841 459.893C86.7516 460.107 90.7574 459.748 92.4572 457.032C94.1569 454.316 96.762 442.597 97.6076 435.815C98.4532 429.033 100.981 404.921 100.981 404.921C100.981 404.921 106.337 421.167 107.012 424.472C107.686 427.778 107.891 439.121 109.463 444.365C111.035 449.609 111.744 455.289 111.744 455.289L113.93 466.402C113.93 466.402 121.122 469.297 128.553 469.861C135.984 470.425 144.252 468.913 146.165 467.845C148.078 466.777 149.71 465.496 149.71 465.496C149.71 465.496 148.437 437.634 147.865 435.721C147.293 433.808 146.72 431.638 146.72 431.638L146.831 428.606L145.661 416.247L144.072 400.24L140.357 373.036C140.357 373.036 135.856 339.409 135.42 337.41C134.984 335.412 136.044 330.364 136.044 330.364C136.044 330.364 137.666 327.887 137.299 323.65C136.932 319.414 134.933 297.462 134.933 297.462C134.933 297.462 119.96 308.131 107.516 309.446C95.0708 310.761 84.4625 310.309 79.5512 308.882C74.6399 307.456 63.707 302.767 63.707 302.767H63.6814Z" fill="#E5E4E5"/>
<path d="M1.08906 229.789C1.08906 229.789 0.781564 228.91 2.25922 229.166C3.73687 229.422 25.6027 233.223 26.9949 233.471C28.3872 233.718 29.4805 232.608 30.5994 234.368C31.7183 236.127 40.4817 254.841 41.2504 256.49L49.8857 274.922C50.5349 276.306 52.6702 279.987 51.9442 280.277C51.2182 280.568 36.8089 278.817 36.8089 278.817C36.8089 278.817 40.5244 278.227 39.824 276.733C39.1236 275.238 35.2886 273.308 33.418 273.572C31.5475 273.837 28.6776 274.785 28.6776 274.785L24.4582 272.471C24.4582 272.471 24.6204 270.609 25.9785 269.131C27.3366 267.653 31.9575 264.749 33.0337 263.408C34.1099 262.067 33.9476 257.241 32.4187 256.592C30.8898 255.943 28.2334 256.242 27.012 257.147C25.7906 258.053 22.041 262.862 20.6487 262.665C19.2565 262.469 17.4201 260.743 17.2749 259.932C17.1297 259.12 18.1461 249.341 18.1461 248.375C18.1461 247.41 17.5738 244.335 15.43 244.224C13.2861 244.113 11.7486 245.241 11.7486 245.241L10.1343 250.852L2.00297 232.676L1.10614 229.789H1.08906Z" fill="#757574"/>
<path d="M4.37791 223.768C4.37791 223.768 4.92455 223.571 6.35095 223.802C7.77736 224.033 32.3593 227.688 33.2903 228.423C34.2213 229.158 36.22 233.292 36.22 233.292L48.0327 259.368L55.3697 276.049L52.85 279.415L51.9361 279.252C51.9361 279.252 31.8554 235.248 30.5998 234.368C29.3442 233.488 12.7997 231.002 12.7997 231.002L1.41406 229.123L3.39566 225.211L4.36937 223.776H4.37791V223.768Z" fill="#A8A8A8"/>
<path d="M79.224 164.26C79.224 164.26 78.5578 164.858 76.0295 164.858C73.5013 164.858 71.1439 165.584 71.1439 165.584C71.1439 165.584 71.5026 163.347 66.0447 168.412C60.5868 173.477 57.6486 177.021 55.3766 180.147C53.1046 183.273 45.3917 199.587 44.102 202.372C42.8123 205.156 42.2656 208.633 42.2656 208.633C42.2656 208.633 42.966 211.409 45.5028 214.279C48.0396 217.148 53.4377 221.385 53.4377 221.385L53.6256 245.044C53.6256 245.044 56.3076 243.473 57.435 243.934C58.5625 244.395 62.8161 244.814 62.8161 244.814C62.8161 244.814 68.6498 242.14 71.161 241.893C73.6721 241.645 77.9599 240.979 80.6248 242.55C83.2897 244.122 91.6175 250.443 91.6175 250.443C91.6175 250.443 97.7245 247.692 101.389 245.531C105.053 243.37 114.628 237.699 117.686 236.674C120.743 235.649 122.699 234.786 122.699 234.786L121.768 224.366L120.427 216.85C120.427 216.85 125.322 214.407 131.454 213.843C137.587 213.279 146.145 213.228 146.145 213.228L148.247 222.299C148.247 222.299 154.704 220.138 155.105 217.943C155.507 215.748 153.756 207.386 150.826 200.288C147.896 193.19 138.185 175.04 133.12 170.444C128.055 165.849 118.138 159.409 117.224 159.409C116.31 159.409 111.177 155.326 111.177 155.326H108.581C108.581 155.326 111.263 154.993 108.768 158.205C106.274 161.416 98.7324 169.761 92.1129 172.042C85.4933 174.322 80.8383 174.365 79.2325 172.486C77.6268 170.607 77.977 168.711 77.977 168.711L79.2325 164.278V164.26H79.224Z" fill="#CACACC"/>
<path d="M53.6621 253.064L57.1469 253.995C57.1469 253.995 57.4032 256.165 59.026 257.378C60.6489 258.591 61.7251 259.189 61.7251 259.189C61.7251 259.189 61.2212 262.93 62.323 264.792C63.4248 266.654 66.7645 269.344 68.3874 270.233C70.0102 271.121 71.8893 272.086 73.5805 272.786C75.2717 273.487 76.681 274.315 80.6185 273.111C84.5561 271.907 96.1382 266.244 96.1382 266.244L111.111 264.766L134.617 262.673C134.617 262.673 133.925 271.146 134.617 273.589C135.309 276.032 137.359 295.72 137.359 295.72C137.359 295.72 142.441 293.32 133.105 298.692C123.769 304.065 110.206 309.318 102.109 310.633C94.0114 311.948 78.0818 309.164 72.3676 306.832C66.6535 304.5 54.5418 296.95 54.5418 296.95L53.5938 279.611C53.5938 279.611 55.4472 277.587 55.3703 276.058C55.2935 274.529 53.8756 272.274 53.8756 272.274L53.6535 253.073H53.6621V253.064Z" fill="#CACACC"/>
<path d="M10.456 70.8014C10.456 70.8014 9.05521 68.0938 12.2326 59.8685C15.41 51.6432 18.092 44.3318 25.0361 34.774C31.9802 25.2163 35.2942 18.2209 44.1089 13.0961C52.9235 7.97131 60.9695 3.62377 74.4477 1.71905C87.9259 -0.18567 106.11 2.85505 115.241 8.50087C124.372 14.1467 126.541 19.4338 126.541 19.4338C126.541 19.4338 135.74 31.2721 137.329 45.5874C138.918 59.9026 138.602 76.6949 137.859 81.9307C137.116 87.1666 131.453 109.032 131.453 109.032C131.453 109.032 131.974 105.872 126.541 104.241C121.109 102.609 113.567 101.106 112.944 100.85C112.32 100.594 111.082 99.748 111.082 99.748C111.082 99.748 115.762 100.363 116.3 97.2112C116.838 94.0594 117.342 88.7809 114.823 85.0142C112.303 81.2474 109.8 79.2317 107.785 80.4873C105.769 81.7428 103.471 84.4761 103.258 86.2697C103.044 88.0634 102.788 91.6423 102.788 91.6423C102.788 91.6423 98.987 74.2094 96.9712 68.6831C94.9555 63.1569 83.9713 51.8055 76.0193 55.0939C68.0673 58.3823 68.2125 59.0998 61.2343 65.3606C54.256 71.6214 49.5326 75.5162 44.1003 76.823C38.668 78.1299 34.1582 80.0004 27.6156 73.8421C21.0729 67.6838 18.314 66.4197 15.2989 67.6838C12.2838 68.9479 10.456 70.8099 10.456 70.8099V70.8014Z" fill="#CACACC"/>
<path d="M98.6797 73.8331C98.6797 73.8331 100.49 74.209 106.273 69.1781C112.055 64.1473 115.071 60.3805 117.582 56.1099C120.093 51.8392 123.364 42.7939 124.62 38.267C125.875 33.7401 126.533 24.6948 126.533 24.6948V19.4248C126.533 19.4248 135.946 33.5351 137.321 45.5784C138.696 57.6217 137.85 81.9218 137.85 81.9218C137.85 81.9218 134.921 87.2003 132.281 90.5058C129.642 93.8113 126.96 96.8606 124.406 98.9788C121.852 101.097 118.854 101.891 118.854 101.891L111.073 99.7476C111.073 99.7476 114.498 99.8586 116.292 97.2108C118.086 94.563 116.83 88.5328 114.814 85.0137C112.799 81.4947 110.04 78.9836 107.776 80.4868C105.513 81.9901 105.675 81.0762 104.462 83.6728C103.249 86.2693 103.121 92.8889 103.121 92.8889L98.6797 73.8246V73.8331Z" fill="#E5E4E5"/>
<path d="M58.4091 451.745L46.8697 457.186L39.5156 460.679C39.5156 460.679 44.7173 462.55 48.3815 464.728C52.0458 466.906 59.2547 471.8 61.2448 473.978C63.2349 476.156 65.7632 480.034 66.0023 481.025L66.25 482.015L84.2039 475.182C84.2039 475.182 83.5206 471.817 85.5107 467.999C87.5009 464.181 90.7978 459.603 90.7978 459.603L90.106 458.381C90.106 458.381 84.3747 460.841 78.5922 460.679C72.8098 460.517 70.1534 460.414 65.1653 457.579C60.1771 454.743 58.4176 451.736 58.4176 451.736H58.4091V451.745Z" fill="#CACACC"/>
<path d="M118.225 468.759L117.602 476.694V482.767L130.721 495.536C130.721 495.536 131.584 490.437 137.127 488.541C142.67 486.645 146.48 485.355 151.793 485.03C157.105 484.706 166.825 483.51 166.825 483.51C166.825 483.51 158.771 478.496 154.833 476.139C150.896 473.782 148.513 472.415 147.496 470.579C146.48 468.742 146.206 467.999 146.206 467.999C146.206 467.999 141.124 470.655 136.025 470.579C130.926 470.502 118.217 468.759 118.217 468.759H118.225Z" fill="#CACACC"/>
<path d="M40.3179 460.303C40.3179 460.303 34.5183 462.882 31.4264 465.752C28.3344 468.622 25.0118 471.074 25.0631 473.388C25.1143 475.703 25.9001 482.767 25.9001 482.767C25.9001 482.767 25.7037 484.321 28.3002 485.97C30.8968 487.618 37.0978 492.316 41.7443 492.717C46.3908 493.119 48.5688 493.537 56.145 491.342C63.7212 489.147 77.8571 484.569 82.2217 482.775C86.5863 480.982 90.7631 480.281 91.4464 478.171C92.1297 476.062 92.1638 468.016 92.1638 468.016L90.7972 459.62C90.7972 459.62 89.5416 460.798 88.0555 463.327C86.5693 465.855 84.972 466.769 84.7756 469.75C84.5791 472.731 84.2119 475.19 84.2119 475.19L66.258 482.024C66.258 482.024 64.5497 477.018 61.2527 473.986C57.9558 470.954 53.2495 467.17 48.3895 464.736C43.5295 462.302 40.3265 460.311 40.3265 460.311L40.3179 460.303Z" fill="#E5E4E5"/>
<path d="M117.607 482.767L129.821 495.536C129.821 495.536 131.632 490.352 137.132 488.541C142.633 486.73 151.328 484.996 156.658 484.621C161.988 484.245 166.83 484.364 166.83 484.364C166.83 484.364 171.195 486.927 172.399 489.677C173.604 492.427 174.697 496.715 174.261 499.32L173.826 501.925L171.819 508.588C171.819 508.588 165.071 511.603 158.648 512.004C152.225 512.406 142.155 512.892 137.141 509.279C132.127 505.666 117.18 489.054 117.18 489.054L117.607 482.75V482.767Z" fill="#E5E4E5"/>
<g style="mix-blend-mode:multiply" opacity="0.37">
<path d="M174.086 492.564C171.097 487.516 169.875 485.287 166.553 482.947C163.23 480.606 152.596 474.465 152.596 474.465C152.596 474.465 148.513 472.595 147.224 470.024L145.934 467.444L149.479 465.095C149.479 465.095 149.154 442.316 147.984 437.464C146.814 432.621 146.6 428.197 146.6 428.197L145.515 417.46C145.515 417.46 143.799 401.889 143.85 399.84C143.901 397.79 143.098 389.419 142.5 386.011C141.894 382.612 137.657 359.132 137.162 354.681C136.667 350.231 134.924 333.439 135.129 332.431C135.334 331.423 136.931 329.28 137.008 326.264C137.085 323.249 135.701 306.961 135.351 303.544C134.992 300.128 134.651 296.899 134.651 296.899C134.651 296.899 137.555 295.994 137.546 294.465C137.546 292.936 136.974 286.009 135.71 280.056C134.446 274.102 134.164 270.225 134.369 266.526C134.582 262.828 134.787 261.504 134.787 261.504C134.787 261.504 138.324 261.453 142.321 259.744C146.318 258.036 148.027 256.653 148.616 255.329C149.205 254.005 151.178 244.148 150.555 239.126C149.931 234.103 147.984 221.727 147.984 221.727C147.984 221.727 154.612 219.25 154.723 218.31C154.834 217.371 155.466 216.278 155.466 216.278C155.466 216.278 151.195 199.613 147.412 192.157C143.628 184.692 137.709 173.955 132.14 169.164C126.571 164.372 114.92 160.272 114.92 160.272L113.391 158.521L110.752 156.172L107.78 154.643C107.78 154.643 105.491 152.824 105.627 150.885C105.755 148.938 108.07 146.768 108.07 146.768C108.07 146.768 116.859 135.963 121.232 128.456C125.597 120.948 132.541 106.778 134.454 98.1338C136.368 89.49 139.656 71.1688 138.751 60.4665C137.845 49.7642 135.368 32.5791 131.192 26.2499C127.015 19.9208 119.182 5.7251 98.9565 3.06874C78.7306 0.412384 69.3096 2.87229 69.3096 2.87229C69.3096 2.87229 78.2182 8.3302 77.7142 18.8702C77.2188 29.4102 69.19 48.7393 65.987 54.257C62.784 59.7747 60.9818 62.0979 60.9818 62.0979L57.625 67.8377C57.625 67.8377 71.5132 51.4212 82.9074 65.0874C94.293 78.7535 88.5959 91.0531 88.5959 91.0531C88.5959 91.0531 87.0072 88.2515 82.5315 88.9348C78.7648 89.5156 67.6525 92.1805 67.6525 92.1805C67.6525 92.1805 73.5631 89.9256 75.7668 94.3158C76.5868 95.9472 76.5868 100.773 76.5868 100.773C76.5868 100.773 87.0414 100.457 94.6773 106.675C102.313 112.885 107.336 135.63 100.801 145.154C89.9283 160.981 91.3377 158.145 91.3377 158.145C91.3377 158.145 93.9513 155.404 94.5065 158.043C95.4033 162.348 98.4782 168.104 93.5157 171.282C91.0216 172.879 88.6899 171.769 88.2372 174.604C87.1524 181.437 90.4921 248.47 90.4921 248.47L91.8416 250.554C91.8416 250.554 104.927 242.559 109.702 240.057C114.476 237.546 122.437 234.214 122.437 234.214L121.506 223.794L110.855 220.232C110.855 220.232 109.83 211.99 109.702 209.146C109.573 206.301 107.506 194.489 107.506 194.489C107.506 194.489 106.763 188.066 112.674 183.889C118.585 179.712 126.699 183.692 131.183 192.14C135.667 200.587 137.025 208.795 135.761 210.837C134.506 212.878 128.45 213.698 128.45 213.698C128.45 213.698 137.256 216.935 138.734 223.188C140.211 229.44 143.448 245.839 135.761 248.461C128.065 251.084 106.849 253.151 100.759 255.909C94.6688 258.668 85.7943 262.085 80.3621 262.085C74.9298 262.085 72.6919 263.212 70.0783 262.085C67.4646 260.957 61.4515 258.608 61.4515 258.608C61.4515 258.608 60.2472 263.17 62.8438 265.664C65.4403 268.158 70.1893 271.429 73.3154 272.215C76.4416 273.001 76.3647 274.137 81.6005 272.215C86.8364 270.293 89.6892 268.952 89.6892 268.952C89.6892 268.952 92.7982 276.733 91.8331 285.924C90.8679 295.114 94.1819 294.738 87.7759 300.435C81.3699 306.132 75.0408 307.26 75.0408 307.26C75.0408 307.26 97.5558 317.142 107.498 323.215C117.44 329.288 118.311 331.791 120.156 336.992C121.993 342.194 125.289 371.311 125.349 381.049C125.409 390.786 124.709 399.139 122.428 399.139C120.148 399.139 125.93 401.795 131.174 414.701C136.419 427.607 139.272 449.567 135.753 456.622C132.234 463.677 126.494 468.196 126.494 468.196C126.494 468.196 150.264 481.281 155.492 484.057C160.71 486.833 167.133 494.93 167.21 499.739C167.287 504.548 167.21 509.954 167.21 509.954L171.72 507.828C171.72 507.828 177.076 497.604 174.095 492.564H174.086ZM113.332 83.9381C112.537 83.2719 109.274 83.6563 107.84 85.6891C104.935 89.7975 105.901 97.5872 105.901 97.6043C105.901 97.6214 102.792 91.9328 102.792 91.9328C102.792 91.2495 102.954 86.3126 104.133 83.7929C105.311 81.2732 107.728 80.9743 108.882 80.5216C110.274 79.9749 112.067 81.632 112.939 82.9046" fill="#CACACC"/>
</g>
<g style="mix-blend-mode:multiply" opacity="0.37">
<path d="M23.8672 99.7391C23.8672 99.7391 24.3797 98.7227 26.7713 100.226C29.1628 101.729 30.4696 103.198 30.3671 104.975C30.2647 106.752 29.5984 106.931 29.5984 106.931L31.8106 108.972C31.8106 108.972 32.0754 109.177 33.0235 106.564C33.9716 103.95 32.1779 97.5952 32.1779 97.5952C32.1779 97.5952 27.4802 97.9881 25.7975 98.492C24.1149 98.996 23.8757 99.7391 23.8757 99.7391H23.8672Z" fill="#CACACC"/>
</g>
<g style="mix-blend-mode:multiply" opacity="0.37">
<path d="M46.7505 119.069C46.7505 119.069 46.2039 120.521 46.7505 123.784C47.2972 127.046 51.2347 132.351 61.322 129.438C64.8496 128.422 66.0369 126.534 66.0369 126.534C66.0369 126.534 63.7819 132.368 59.981 133.119C56.1801 133.871 55.2748 134.554 48.8175 133.478C45.4095 132.906 43.4792 129.728 44.1112 127.38C44.7433 125.031 46.7505 119.069 46.7505 119.069Z" fill="#CACACC"/>
</g>
<g style="mix-blend-mode:multiply" opacity="0.37">
<path d="M57.1473 192.72C57.1473 192.72 54.9693 195.471 53.4404 198.546C51.9115 201.621 48.3839 213.818 47.1283 214.279C45.8728 214.74 47.1283 216.201 47.1283 216.201C47.1283 216.201 50.8951 222.128 51.0659 224.366C51.2367 226.604 48.8195 245.036 48.8195 245.036L48.0423 246.147L53.6369 245.036V220.796C53.6369 220.796 55.7636 199.067 56.148 197.179C56.5324 195.291 57.1473 192.712 57.1473 192.712V192.72Z" fill="#CACACC"/>
</g>
<g style="mix-blend-mode:multiply" opacity="0.37">
<path d="M48.0342 253.065L44.7031 252.023L49.529 262.665L53.4409 271.292L53.6544 253.065H48.0342Z" fill="#CACACC"/>
</g>
<g style="mix-blend-mode:multiply" opacity="0.37">
<path d="M14.1849 244.387C14.1849 244.387 15.9957 243.934 15.8249 249.042C15.654 254.149 13.7237 258.941 12.8098 260.82C11.8958 262.699 9.17969 264.254 9.17969 264.254L13.7749 266.244C13.7749 266.244 15.3124 264.604 17.2 264.254C19.0876 263.904 20.2749 262.674 20.2749 262.674C20.2749 262.674 16.8584 261.717 17.1146 259.129C17.3708 256.541 18.3446 254.141 18.1737 250.443C18.0029 246.744 18.0883 245.796 16.8584 245.053C15.6284 244.31 14.1849 244.395 14.1849 244.395V244.387Z" fill="#CACACC"/>
</g>
<g style="mix-blend-mode:multiply" opacity="0.37">
<path d="M14.9609 272.265C14.9609 272.265 22.9642 269.199 27.0128 265.091C31.0614 260.982 32.018 257.079 31.198 256.49C30.3781 255.9 33.2223 255.892 33.7946 258.266C34.3669 260.641 34.5462 261.999 33.7946 262.699C33.043 263.4 32.2657 263.63 29.3531 265.902C26.4405 268.174 25.2105 269.447 24.6297 271.292C24.0489 273.137 20.863 275.272 20.2822 275.016C19.7014 274.76 17.7881 274.896 16.3788 273.581L14.9695 272.265H14.9609Z" fill="#CACACC"/>
</g>
<g style="mix-blend-mode:multiply" opacity="0.37">
<path d="M23.1719 280.619C23.411 280.781 27.5963 281.174 30.6114 279.124C33.6265 277.074 34.4977 273.256 36.2145 273.846C37.9313 274.435 40.1606 275.178 39.8019 276.212C39.4431 277.245 39.1015 277.057 35.5056 279.03C31.9097 281.003 31.7986 282.447 29.3473 282.361C26.8959 282.276 23.1804 280.619 23.1804 280.619H23.1719Z" fill="#CACACC"/>
</g>
<g style="mix-blend-mode:multiply" opacity="0.37">
<path d="M81.0617 334.19C81.0617 334.19 85.6228 355.073 83.7437 378.511C81.8646 401.948 79.8062 406.048 79.8062 406.048C79.8062 406.048 81.3436 430.34 79.8062 442.998C78.2687 455.656 75.6978 459.235 75.6978 459.235C75.6978 459.235 68.7195 458.97 68.3095 458.842C67.8995 458.714 68.6341 463.762 64.9784 468.007C61.3227 472.252 57.4876 475.327 50.2531 476.361C43.0186 477.394 32.7605 480.29 31.727 482.775C30.6935 485.261 30.8899 487.627 30.8899 487.627C30.8899 487.627 39.2519 493.307 46.2729 493.136C53.2938 492.965 67.8825 488.079 75.7661 485.15C83.6498 482.22 91.448 478.18 91.448 478.18C91.448 478.18 92.6523 473.422 92.2765 468.776C91.9007 464.129 90.6109 459.252 90.6109 459.252L93.0965 457.211C93.0965 457.211 98.0931 432.561 98.1615 432.031C98.2298 431.501 100.459 411.686 100.459 411.686L101.552 406.74L93.0965 361.582L88.7916 335.958L81.0617 334.198V334.19Z" fill="#CACACC"/>
</g>
<g style="mix-blend-mode:multiply" opacity="0.37">
<path d="M1.09575 229.789C1.09575 229.789 0.617431 228.875 2.26591 229.166C3.91439 229.456 23.1751 232.804 23.1751 232.804L34.6717 229.849L50.8661 265.603L55.3845 276.186L51.9509 280.277L42.2735 279.526L36.3715 278.894C36.3715 278.894 40.1553 278.039 39.788 276.212C39.4207 274.384 36.8583 273.333 34.2191 273.589C31.5798 273.846 28.6757 274.794 28.6757 274.794C28.6757 274.794 25.1823 273.419 24.6101 272.889C24.0378 272.359 25.0457 269.558 26.7454 268.106C28.4451 266.654 33.7749 262.716 33.7749 262.716C33.7749 262.716 35.4661 259.291 33.3905 257.395C31.315 255.499 30.4096 255.396 28.2572 256.43C26.1048 257.463 23.0897 260.658 21.6804 261.666C20.271 262.674 18.9215 262.084 18.9215 262.084L17.1108 259.129L18.1699 246.812C18.1699 246.812 16.7093 244.071 14.9583 244.105C13.2074 244.139 11.7383 245.249 11.7383 245.249L10.1239 250.861L3.59836 237.118L1.09575 229.798V229.789Z" fill="#CACACC"/>
</g>
<path d="M126.547 19.4248C126.547 34.6284 120.705 62.6525 99.3516 73.8331" stroke="#CACACC" stroke-width="0.5" stroke-miterlimit="10"/>
<path d="M118.859 101.772C126.538 100.704 138.094 83.5875 138.094 79.2314" stroke="#CACACC" stroke-width="0.5" stroke-miterlimit="10"/>
<path d="M146.477 214.279C147.476 217.695 153.455 244.028 149.467 254.568C147.579 259.556 144.436 259.907 137.509 261.547C126.977 264.041 106.973 265.672 97.6463 265.962C95.6818 266.022 93.9479 267.389 92.6667 268.098C91.3855 268.807 78.8554 275.93 73.5939 272.795C68.3239 269.661 60.6367 268.807 61.73 259.198" stroke="#4E4E4D" stroke-width="1.2" stroke-miterlimit="10"/>
<path d="M71.8901 264.246C70.9676 260.829 58.2239 260.829 57.1562 253.996" stroke="#4E4E4D" stroke-width="1.2" stroke-miterlimit="10"/>
<path d="M69.1128 253.995C65.6963 253.995 51.4066 254.226 44.7188 252.014" stroke="#4E4E4D" stroke-width="1.2" stroke-miterlimit="10"/>
<path d="M42.8594 247.923C44.7812 247.214 55.0906 244.25 58.5754 244.395C62.0603 244.54 66.1943 245.463 69.534 245.463C72.8736 245.463 75.0175 245.677 77.4347 245.531" stroke="#4E4E4D" stroke-width="1.2" stroke-miterlimit="10"/>
<path d="M57.7149 246.812C57.2878 247.735 56.9291 249.298 57.3562 250.434" stroke="#4E4E4D" stroke-width="1.2" stroke-miterlimit="10"/>
<path d="M68.3906 256.49C68.6725 257.199 68.6725 258.053 69.0996 258.266" stroke="#4E4E4D" stroke-width="1.2" stroke-miterlimit="10"/>
<path d="M72.3828 266.244C72.5963 267.243 71.9557 268.807 74.3046 269.943" stroke="#4E4E4D" stroke-width="1.2" stroke-miterlimit="10"/>
<path d="M17.3493 263.639C16.1364 262.716 16.9991 260.333 17.281 257.916C17.5628 255.499 17.7764 251.279 18.1266 248.375C18.6049 244.386 13.3263 242.627 11.7291 245.241C10.6785 246.966 10.0635 252.911 8.31255 256.413C6.67262 259.684 7.52675 263.032 9.16669 264.245C10.8066 265.458 13.0103 265.953 13.369 267.089" stroke="#4E4E4D" stroke-width="1.2" stroke-miterlimit="10"/>
<path d="M14.5051 265.74C14.078 267.38 13.5826 272.376 16.3586 273.581C19.1345 274.785 20.2022 273.854 20.2705 276.775C20.3388 279.696 25.9078 282.626 27.9064 282.344C29.9051 282.062 33.4242 279.884 35.4912 279.03C37.5582 278.176 41.4018 277.373 39.1212 275.238C36.8407 273.102 31.844 273.179 28.6752 274.785C28.6752 274.785 24.4045 273.572 24.4557 272.47C24.5753 269.737 28.2396 266.244 33.0312 263.408C36.0976 261.597 33.5437 253.825 28.2652 256.421C22.9866 259.018 20.279 266.474 17.0077 259.419" stroke="#4E4E4D" stroke-width="1.2" stroke-miterlimit="10"/>
<path d="M48.0421 217.148C46.9745 221.24 45.6762 233.796 39.125 239.689" stroke="#4E4E4D" stroke-width="1.2" stroke-miterlimit="10"/>
<path d="M116.305 159.4C144.064 168.727 154.45 210.127 155.74 216.84C156.253 219.497 151.025 221.342 148.258 222.29" stroke="#4E4E4D" stroke-width="1.2" stroke-miterlimit="10"/>
<path d="M107.766 195.061C112.019 205.165 107.714 219.634 112.019 221.539C114.761 222.752 119.117 224.477 121.765 224.357" stroke="#4E4E4D" stroke-width="1.2" stroke-miterlimit="10"/>
<path d="M155.104 217.934C154.02 211.895 127.473 210.469 111.125 220.795" stroke="#4E4E4D" stroke-width="1.2" stroke-miterlimit="10"/>
<path d="M53.6562 253.064C53.6562 256.421 53.8442 266.577 53.8783 272.265" stroke="#4E4E4D" stroke-width="1.2" stroke-miterlimit="10"/>
<path d="M76.4297 333.857C79.0263 334.096 82.4086 333.84 88.7805 335.941C90.0873 336.368 91.5137 336.906 93.0853 337.555" stroke="#4E4E4D" stroke-width="1.2" stroke-miterlimit="10"/>
<path d="M58.4046 451.745C56.6622 452.616 41.5696 459.628 38.1872 461.337C34.8049 463.045 25.529 468.861 25.1532 474.781C24.7773 480.7 25.2898 484.535 30.0388 487.14C34.7963 489.745 39.8016 494.272 49.2397 492.863C58.6779 491.453 81.8591 483.211 86.5825 480.973C91.3058 478.735 92.2625 478.966 92.1941 473.739C92.1429 469.246 92.5102 461.755 90.093 458.398" stroke="#4E4E4D" stroke-width="1.2" stroke-miterlimit="10"/>
<path d="M25.1641 474.781C26.7784 477.241 35.2087 485.253 46.6114 485.936C53.5128 486.355 65.4792 482.477 71.9023 479.991C78.3254 477.506 88.8397 473.381 92.2648 471.954" stroke="#4E4E4D" stroke-width="1.2" stroke-miterlimit="10"/>
<path d="M39.5156 460.688C41.9584 460.978 64.3197 471.612 66.2415 482.024" stroke="#4E4E4D" stroke-width="1.2" stroke-miterlimit="10"/>
<path d="M50.25 459.235C53.5982 459.167 57.5699 461.857 59.765 464.727" stroke="#4E4E4D" stroke-width="1.2" stroke-miterlimit="10"/>
<path d="M54.5469 457.194C56.6139 457.219 60.3123 457.006 64.9673 462.028" stroke="#4E4E4D" stroke-width="1.2" stroke-miterlimit="10"/>
<path d="M90.7988 459.611C88.9026 462.122 83.7778 468.016 84.2048 475.19" stroke="#4E4E4D" stroke-width="1.2" stroke-miterlimit="10"/>
<path d="M118.223 468.759C117.881 479.837 117.206 485.483 117.172 489.07C117.155 490.326 120.23 493.708 122.152 495.536C124.073 497.364 133.648 509.937 143.3 511.773C152.952 513.61 166.541 511.15 169.727 509.826C172.913 508.502 172.195 507.836 173.195 504.291C174.194 500.746 177.132 491.291 166.823 483.51C156.513 475.729 148.365 474.755 146.212 468.007" stroke="#4E4E4D" stroke-width="1.2" stroke-miterlimit="10"/>
<path d="M117.594 482.768C119.917 484.783 137.837 504.215 143.363 505.385C150.512 506.897 166.45 508.093 173.813 501.943" stroke="#4E4E4D" stroke-width="1.2" stroke-miterlimit="10"/>
<path d="M133.133 477.241C134.235 475.507 137.865 472.099 145.8 473.91" stroke="#4E4E4D" stroke-width="1.2" stroke-miterlimit="10"/>
<path d="M137.133 481.025C138.687 479.564 142.241 477.403 150.517 478.428" stroke="#4E4E4D" stroke-width="1.2" stroke-miterlimit="10"/>
<path d="M130.43 496.613C131.506 493.41 130.353 484.826 167.473 484.023" stroke="#4E4E4D" stroke-width="1.2" stroke-miterlimit="10"/>
<path d="M10.1234 250.852L1.09525 230.669C0.745054 229.884 1.41127 229.021 2.26541 229.166L29.5806 233.915C30.3408 234.043 30.9899 234.539 31.3145 235.239L51.8479 279.082C52.2066 279.85 51.5746 280.713 50.7375 280.611L36.2599 278.74" stroke="#4E4E4D" stroke-width="1.2" stroke-miterlimit="10"/>
<path d="M51.9411 280.269L54.6316 277.732C55.8103 276.707 55.332 275.468 54.9049 274.529L34.6534 229.832C34.2434 228.918 33.3978 228.278 32.407 228.115L6.34739 223.785C5.22848 223.605 4.10957 224.058 3.41772 224.946L1.08594 229.772" stroke="#4E4E4D" stroke-width="1.2" stroke-miterlimit="10"/>
<path d="M101.863 153.293C102.325 152.952 110.242 145.136 117.827 134.46C125.412 123.783 133.671 108.972 137.122 87.1491C140.573 65.326 141.256 33.9878 121.739 13.6594C103.349 -5.49025 54.8005 -3.05597 34.5832 21.9274C18.0472 42.3669 6.04658 64.7879 11.0433 82.0926C14.0327 92.4276 20.5071 95.1182 25.6233 108.272C31.2521 122.741 31.5766 143.437 35.1555 148.459C42.501 158.794 66.0409 163.842 70.2945 164.534C74.5481 165.225 79.596 164.995 86.2583 161.664C92.9205 158.333 94.9021 156.308 94.9021 156.308" stroke="#4E4E4D" stroke-width="1.2" stroke-miterlimit="10"/>
<path d="M44.1016 113.559C44.1016 113.559 47.6633 115.968 46.7408 119.068C45.8184 122.169 41.5306 130.437 46.8946 132.845C52.2585 135.254 66.3774 134.221 66.0357 126.533" stroke="#4E4E4D" stroke-width="1.2" stroke-miterlimit="10"/>
<path d="M32.171 97.5952C32.171 97.5952 23.9713 98.1931 23.1001 99.6622C22.2288 101.131 22.6474 101.883 22.6474 101.883" stroke="#4E4E4D" stroke-width="1.2" stroke-miterlimit="10"/>
<path d="M69.0178 91.6251C68.5139 91.702 72.6052 91.1126 82.6071 88.4306C85.383 87.6875 88.4237 89.3275 89.4572 89.9595" stroke="#4E4E4D" stroke-width="1.2" stroke-miterlimit="10"/>
<path d="M29.5891 106.931L32.6042 106.137C32.8604 106.068 33.091 106.308 33.0056 106.564L32.2882 108.785C32.2198 108.99 31.9807 109.084 31.7928 108.964L29.4866 107.538C29.2389 107.384 29.2901 106.999 29.5805 106.931H29.5891Z" fill="#4E4E4D"/>
<path d="M75.6295 99.5255L80.1479 98.6885C80.4895 98.6287 80.7458 99.0045 80.5493 99.3034L79.0204 101.601C78.9094 101.763 78.6958 101.823 78.5165 101.738L75.5185 100.277C75.1768 100.106 75.2451 99.5938 75.621 99.5255H75.6295Z" fill="#4E4E4D"/>
<path d="M48.8203 146.862C50.8873 152.627 67.5344 152.832 76.033 143.189" stroke="#4E4E4D" stroke-width="1.2" stroke-miterlimit="10"/>
<path d="M9.89844 72.9107C9.89844 72.9107 10.2657 68.1873 16.8938 67.2905C23.5219 66.3936 28.8346 80.4185 40.4337 77.8561C60.1813 73.4915 66.2542 53.4621 80.0484 54.8885C93.8427 56.3149 97.8486 68.6656 98.8821 74.8667C99.9156 81.0677 103.127 92.8974 103.127 92.8974C103.127 92.8974 101.521 81.4179 108.295 80.726C115.068 80.0342 119.322 95.4257 115.871 97.6037C113.735 98.9618 112.13 99.4572 111.216 99.6365C111.011 99.6792 110.994 99.9696 111.19 100.029C112.719 100.55 116.204 101.652 120.116 102.421C125.394 103.455 129.904 104.821 131.442 109.023" stroke="#4E4E4D" stroke-width="1.2" stroke-miterlimit="10"/>
<path d="M79.2256 164.26C79.2256 164.26 79.7808 164.542 79.2256 166.037C78.6705 167.532 78.1921 168.676 77.9701 170.402C77.748 172.127 81.5745 175.526 89.9621 172.81C103.124 168.565 109.966 156.317 109.966 156.317C107.318 154.583 104.909 152.328 105.747 148.929" stroke="#4E4E4D" stroke-width="1.2" stroke-miterlimit="10"/>
<path d="M107.776 154.634C107.776 154.634 109.732 154.891 111.176 155.318C112.619 155.745 116.3 159.4 116.3 159.4C116.3 159.4 109.22 169.949 98.6539 176.372C90.8898 181.087 79.9398 182.231 74.1915 177.175C68.4432 172.118 76.0279 164.858 76.0279 164.858" stroke="#4E4E4D" stroke-width="1.2" stroke-miterlimit="10"/>
<path d="M73.5006 164.858C73.5006 164.858 69.3068 165.576 64.5151 169.599C59.7234 173.622 53.232 181.933 48.0388 193.045C42.8457 204.157 42.2734 208.641 42.2734 208.641C42.2734 208.641 44.6821 215.987 53.4455 221.385" stroke="#4E4E4D" stroke-width="1.2" stroke-miterlimit="10"/>
<path d="M122.71 234.778C122.71 234.778 122.001 222.247 120.43 216.841" stroke="#4E4E4D" stroke-width="1.2" stroke-miterlimit="10"/>
<path d="M62.8203 244.805L68.748 242.542C68.748 242.542 72.5404 240.876 77.9556 242.038C83.3708 243.199 91.6132 249.033 92.1 251.126" stroke="#4E4E4D" stroke-width="1.2" stroke-miterlimit="10"/>
<path d="M91.625 250.434C92.2229 250.203 95.3234 249.178 102.216 245.044C109.109 240.91 117.147 236.776 119.555 235.854C121.964 234.931 123.578 234.402 124.492 234.786" stroke="#4E4E4D" stroke-width="1.2" stroke-miterlimit="10"/>
<path d="M57.1442 192.721C52.6685 209.718 53.3945 240.8 53.6251 245.045" stroke="#4E4E4D" stroke-width="1.2" stroke-miterlimit="10"/>
<path d="M53.6094 279.603L54.5575 296.942C58.1705 299.948 94.232 327.597 137.366 295.712C139.527 294.115 132.95 272.65 135.051 262.076" stroke="#4E4E4D" stroke-width="1.2" stroke-miterlimit="10"/>
<path d="M101.032 405.075C100.887 409.2 97.0862 443.502 95.5146 449.908C93.943 456.314 93.3024 460.004 81.1993 460.286C69.0962 460.568 61.2211 457.544 57.6594 450.002C54.0976 442.46 57.9071 430.015 58.2317 422.9C58.6246 414.427 60.9222 352.392 62.3486 338.162L63.5187 322.779L63.7494 302.929" stroke="#4E4E4D" stroke-width="1.2" stroke-miterlimit="10"/>
<path d="M88.0547 335.711C88.0547 335.711 94.0592 366.87 95.2123 374.565C96.3654 382.261 100.294 402.41 102.02 408.5C103.745 414.59 106.803 422.388 107.606 427.094C108.409 431.801 109.092 445.1 110.356 448.661C111.62 452.223 113.064 465.223 113.986 466.564C113.986 466.564 120.238 470.049 129.198 470.51C138.158 470.971 146.008 469.272 149.766 465.659C149.766 465.659 148.954 439.556 147.921 435.884C146.887 432.211 146.426 432.091 146.887 428.76C147.349 425.429 143.83 404.477 144.129 400.394C144.428 396.312 143.565 389.871 140.806 376.094C138.047 362.317 134.827 336.778 135.399 332.986C135.972 329.194 137.577 329.775 137.355 323.804C137.133 317.834 134.921 297.454 134.921 297.454" stroke="#4E4E4D" stroke-width="1.2" stroke-miterlimit="10"/>
<path d="M61.2422 395.722C61.2422 395.722 62.8223 401.061 66.2474 401.061" stroke="#4E4E4D" stroke-width="1.2" stroke-miterlimit="10"/>
<path d="M120.43 399.711C120.43 399.711 124.735 403.127 127.587 402.273C130.44 401.419 133.122 399.711 133.122 399.711" stroke="#4E4E4D" stroke-width="1.2" stroke-miterlimit="10"/>
<path d="M30.6094 234.368L34.2224 229.149" stroke="#4E4E4D" stroke-width="0.25" stroke-miterlimit="10"/>
</svg>
