<?xml version="1.0" encoding="UTF-8"?>
<svg id="Layer_1" xmlns="http://www.w3.org/2000/svg" version="1.1" viewBox="0 0 422.84 672.59">
  <!-- Generator: Adobe Illustrator 29.5.1, SVG Export Plug-In . SVG Version: 2.1.0 Build 141)  -->
  <defs>
    <style>
      .st0, .st1, .st2, .st3, .st4 {
        stroke: #4e4e4d;
      }

      .st0, .st1, .st2, .st3, .st4, .st5 {
        stroke-linecap: round;
        stroke-linejoin: round;
      }

      .st0, .st4 {
        stroke-width: 1.2px;
      }

      .st0, .st6 {
        fill: #4e4e4d;
      }

      .st7 {
        fill: #e5e4e5;
      }

      .st8, .st4, .st9 {
        fill: #cacacc;
      }

      .st1, .st2, .st3, .st5 {
        fill: none;
        stroke-dasharray: 138 3 1 3;
      }

      .st1, .st5 {
        stroke-width: 1.5px;
      }

      .st2 {
        stroke-width: 1.51px;
      }

      .st3 {
        stroke-width: 1.31px;
      }

      .st10, .st9 {
        isolation: isolate;
      }

      .st9 {
        mix-blend-mode: multiply;
        opacity: .37;
      }

      .st5 {
        stroke: #cacacc;
      }

      .st11 {
        fill: #f9fafb;
      }
    </style>
  </defs>
  <g class="st10">
    <g id="corpo_colore_sfondo">
      <path class="st11" d="M156.32,198.9c-.21,6.17-.5,13.65,2,17.27s20.64,21.46,27.31,26.91,9.29,7.87,11.63,8.64,4.26,1.15,4.26,1.15l-1.73,8.36s-.45,3.04.34,4.29,5.52,7.24,9.98,7.24,14.46-.68,16.77-3.12,2.68-5.65,2.68-5.65l-3.42-11.1s1.49,1.13,11.11-7.33,22.49-19.21,26.06-23.76,6.38-10.35,6.28-18.48-.74-29.55-.74-29.55c0,0,2.39-.67,3.68-2.55s2.67-8.13,2.67-8.13l-.56-11.96-6.69,6.04s-.09-5.83.91-15.54,2.01-15.85-.96-19.7-21.73-18.21-24.34-19.21-8.65,3.9-14.13,7.49-14.86,5.81-22.26,4.08-9.58-3.61-15.56-7.36-8.85-4.35-8.85-4.35l-2.12.3-14.67,10.21s-10.26,8.02-10.04,10.81.45,11.78.81,15l1.3,15.65s-2-.06-3.46-.85-4.46-4.43-4.46-4.43l1.12,13.8c.14,1.75.79,6.64,2.71,7.53s3.28.93,3.28.93l-.9,27.32v.05Z"/>
      <path class="st11" d="M146.13,318.26s10.95,1.04,17.38,2.58,10.41,2.9,10.41,2.9l-.51,3.35s7.76-3.13,8.8-3.06,12.24,2.65,12.24,2.65l12.46,4.36,16.89,3.79s17.87-12.16,19.75-13.99,12.2-12.13,13.41-11.14,1.66,3.81,1.66,3.81c0,0,3.31-4.63,5.51-3.81s4.03,4.86,3.95,5.48-.84,3.08-.84,3.08l14.47-5.77s13.47,35.9,11.78,48.41-3.73,19.24-8.91,20.41-16.71,1.5-22.79-1.27-31.32-18.57-31.32-18.57c0,0-15.17,10.45-20.04,12.83s-25.56,11.86-35.74,12.51-22.71,3.51-27.27-4.22-8.11-18.7-7.37-28.69,6.09-35.64,6.09-35.64h-.01Z"/>
    </g>
    <g id="pantalone">
      <path class="st7" d="M177.11,401.5s-.66,32.81-.72,39.13-4.68,23.17-5.33,26.33-10.4,27.91-10.83,30.33.06,5.15.06,5.15l-2.67,9.85s-8.83,19.65-8.5,22.15,1.82,5.4,1.82,5.4l-.74,5s-3.4,10.85-3.18,13.31,1.62,5.66,4.42,7.29,16.76,9.11,23.78,9.59,14.25,2.51,16.91-.02,4.76-4.4,5.45-6.66,1.72-10.91,1.89-12.67,1.66-7.2,2.44-10.74.35-11.99.44-13.93.82-4.63,1.76-6.66,3.7-8.58,3.77-10.09.38-11.54,1.01-16.06,7.13-36.48,8.84-42.9,3.38-12.38,3.38-12.38l9.33-2.12s4.7,16.79,5.44,19.54,10.9,42.27,12.07,46.97c1.17,4.7,3.97,15.06,3.89,18.27s-2.37,12.83,0,16.77,4.28,5.91,4.07,8.36-1.21,6.86.41,10.34-.09,5.16,1.66,7.73,8.08,6.59,14.13,6.85,17.55.92,21.33,0,9.69-1.57,12.63-4.24,5.47-5.49,4.27-8.19-3.55-7.49-3.64-9.39-.42-5.36-.79-6.81-12.01-33.75-11.63-36.71.98-6.57,0-9.86-17.87-50.21-17.87-50.21c0,0-8.05-24.3-8.33-25.73s-5.08-25.48-5.08-25.48c0,0-1.84,3.74-15.91,7.21s-15.72,4.8-30.18,4.75-18.35,0-27.87-2.86-11.95-6.65-11.95-6.65l.02.04Z"/>
    </g>
    <g id="orologio">
      <path class="st4" d="M210.28,336.97s.28,1.77-1.69,5-4.48,6.75-4.48,6.75c0,0,4.44,3.43,6.93,3.9s5.1.4,5.1.4c0,0,1.93-2.12,3.83-5.48s2.26-6.47,2.26-6.47v-4.1s-2.82,2.49-5.31,1.97-6.65-1.97-6.65-1.97h0Z"/>
      <path class="st0" d="M218.02,328.39c-3.43-1.19-5.97-.97-7.55.8s.27,9.82,6.46,9.75,5.37-2.97,5.31-5.59-4.22-4.96-4.22-4.96Z"/>
    </g>
    <g id="T-shirt">
      <path class="st8" d="M144.39,324.02s-4.94-3.37-4.27-5.08,2.98-6.35,5.36-10.44,15.97-25.16,19.69-28.29,8.39-6.77,15.46-10.72,18.93-10.04,18.93-10.04c0,0-.89,4.03.58,6.09s6.03,7.37,9.98,7.24,10.6.27,13.68-1.43,5.62-4.52,5.62-4.52c0,0,.98-3.26.63-4.33s-.63-2-.63-2c0,0,25.73,11.71,28.97,14.64,3.24,2.93,16.24,17.13,19.43,21.73s9.44,13.24,9.17,14.62.94,2.73-.94,3.7-3.18,0-3.18,0l-1.25-2.61-14.39,5.69s1.31-4.16.33-6.16-3.28-3.8-4.6-2.41-3.55,2.8-3.55,2.8c0,0-1.22-3.83-3.19-2.99s-5.23,4.26-5.23,4.26c0,0-7.9,7.46-15.36,12.66s-11.2,7.79-11.2,7.79c0,0,.16-2.61-4.37-4.73s-6.19-3.42-8.43-1.08l-2.25,2.34s-7.46-1.41-12.61-3.26-8.85-3.68-13.04-3.75-9.81,2.68-9.81,2.68l.46-3.1s-.53.87-4.22-.87-9.61-2.73-14.79-3.47-8.88-.72-8.88-.72l-2.11,5.76h.01Z"/>
      <path class="st8" d="M175.23,386.38s19.84-5.23,25.06-7.5,26.04-14.88,27.64-15.67,2.53-1.72,2.53-1.72c0,0,9.93,7.41,13.31,9.52s17.64,8.89,17.64,8.89l2.71,16.77s1.28,5.01-11.86,8.15-35.19,6.58-43.36,6.2-16.37-.89-22.42-3.98-11.24-7.41-11.24-7.41c0,0-.44-6.4-.17-8.63s.17-4.6.17-4.6v-.02Z"/>
    </g>
    <g id="capelli_colore">
      <path class="st8" d="M276.74,118.05s-1.78-9.38-2.56-12.57-6.85-11.77-9.03-14.23-17.28-13.8-17.28-13.8c-5.69-4.04-26.35-8.31-36.27-8.51s-20.13,3.32-29.24,6.73-22.64,17.71-26.45,23.09-3.69,7.51-4.55,11.26,6.4,11.94,6.4,11.94c0,0,2.23-3.42,2.96-4.4s9.3-8.33,13.71-11.26,5.63-3.43,9.06-3.68,8.33,4.42,14.45,8.58,18.61,5.39,24.28,2.53,14.65-8.17,18.57-10.61,6.86-.49,12.24,4.41c5.38,4.9,15.18,14.45,15.94,16.42,0,0,2.09-.53,4.09-1.98s3.66-3.91,3.66-3.91h.02Z"/>
      <path class="st7" d="M150.11,149.31s2.99,3.94,4.46,4.43,3.48-.78,3.48-.78c0,0-.95-8.3-1.32-14.02s-2.07-10.64-.7-13.3,1.75-3.69,1.75-3.69c0,0-1.88-2.42-3.83-5.48s-2.57-6.46-2.57-6.46c0,0-1.11,7.57-1.26,11.11s-.36,15.78-.37,17.25.37,10.94.37,10.94h0Z"/>
      <path class="st7" d="M268.99,123.94s2.34-.04,4.09-1.98,3.66-3.91,3.66-3.91c0,0-1.01,6.59-.55,8.81s-.57,20.8-1.01,21.9-.56,2.38-.56,2.38l-5.68,5.27-.98-1.83s.27-8.14.88-14.99.15-15.66.15-15.66h0Z"/>
    </g>
    <g id="scarpe">
      <path class="st8" d="M151.95,565.76s-4.32,2.12-8.82,5.65-8.19,7.27-8.19,7.27c0,0,7.08,1.67,10.71,2.92s13.27,6.01,15.39,7.72,7.25,6.48,8.94,9.48,2.52,4.83,2.52,4.83l15.32-9.98s-4.02-4.93-1.84-8.87,6.16-9.75,6.16-9.75c0,0-4.71,1.09-13.1,0s-14.12-3.3-17.42-4.41-9.68-4.85-9.68-4.85h0Z"/>
      <path class="st8" d="M267.21,575.02s3.36,3.45,3.3,7.23-1.55,12.03-1.55,12.03l12.39,11.97s7.02-12.6,10.28-14.77,7.07-6.21,10.45-6.71,15.29-3.17,15.29-3.17l-7.89-6.59-3.39-3.61s-6.41,4.03-10.88,4.63-19.51-.51-19.51-.51l-8.49-.51h0Z"/>
      <path class="st7" d="M194.01,573.4s-3.86,4.49-5.46,7.08-3.77,6.48-3.07,8.35,2.33,4.81,2.33,4.81l-15.32,9.98s-2.34-9.3-11.46-14.3-15.41-7.86-19.09-8.84-7.01-1.8-7.01-1.8c0,0-3.28,3.72-5.11,5.65s-2.45,3.84-3.25,5.97-.95,4.47-.95,4.47l-2.56,1.84.49,7.16s6.68,6.6,13.35,10.17,16.03,7.19,19.64,6.6,11.33-3.91,11.33-3.91l26.14-19.57,2.45-2.99s.09-7.72-.48-11.94-1.97-8.73-1.97-8.73h0Z"/>
      <path class="st7" d="M267.21,575.02s3.2,7.12,3.07,9.31-1.32,9.94-1.32,9.94l-.21,1.15,12.6,10.82s3.37-9.1,8.96-13.57,13.29-8.29,16.61-8.9,10.83-1.04,10.83-1.04c0,0,6.37,6.59,7.12,7.9s2.42,6.37,2.42,6.37l1.96,3.64-1.91,8.85s-8.25,6.9-13.77,8.59-9.83,3.04-15.08,2.52-10.84-2.18-14.17-4.34-12.58-10.02-12.58-10.02c0,0-12.46-12.37-12.46-13.57v-7.9l2-5.44.17-6.73,5.75,2.41h0Z"/>
    </g>
    <g id="ombre">
      <path class="st9" d="M180.63,102.92s3.1,2.28,9.83,7.09,14.84,11.12,24.15,10.19,22.38-1.86,28.93,0,9.89,10.49,9.89,13-.14,13.74-.14,13.74l-18.52.99s6.77,1.45,8.77,7.82,1.26,6.37,1.26,6.37c0,0,8.63,1.15,10.58,4.49,1.95,3.34,5.03,24.22,4.74,31.46s-1.75,17.82-7.88,28.4c-2.61,4.5-16.62,20.42-16.62,20.42,0,0,29.26-26.01,31.09-29.38s2.95-9.42,2.86-15.54-.74-28.19-.74-28.19c0,0,2.3-.48,3.68-2.55s2.11-8.13,2.11-8.13v-11.96s2.65-30.08.61-41.14-6.98-16.63-13.32-22.06-19.77-14.18-26.3-15.93-13.39-3.19-13.39-3.19c0,0,22.37,7.84,23.31,13.97s-2.54,18.3-4.91,19.84-8.34,6.7-13.69,9-5.56,4.69-14.03,3.66-14.77-3.73-19.48-7.07-8.2-5.59-8.2-5.59l-4.6.28h.01Z"/>
      <path class="st9" d="M171.58,148.77l18.88.24s.61,12.8-1.9,13.11-8.56,0-8.56,0l-1.8-3.31s1.88-1.15,0-5.57-6.63-4.48-6.63-4.48h0Z"/>
      <path class="st9" d="M225.59,180.86s.53,7.19-3.36,9.42-17.03,3.26-17.03,3.26c0,0,12.56,3.15,17.03,3.98s8.65-.28,9.76-5.29-6.4-11.37-6.4-11.37Z"/>
      <path class="st9" d="M216.09,253.81s2.87,6.08,2.57,10.26-4.05,8.7-4.05,8.7c0,0,9.68-3.34,11.31-2.4s2.4,5.31,2.4,5.31c0,0,.36-.09,7.31,0s19.77,11.5,24.5,17.35,7.1,14.48,7.1,14.48l-.4,3.5s1.56,2.71,1.27,4.18-.87,3.08-.87,3.08l5.29-3.08s9.87,18.23,11.27,35.48-3.32,20.6-6.81,21.15-11.71-1.95-24.73-6.96-22.4-14.95-25.82-19.9-4.19-7.98-4.19-7.98c0,0,.92,2.46-3.58,1.9s-8.46-3.55-8.46-3.55c0,0-4.79,4.51-9.03,5.74s-13.71.3-18.17-1.18-9.59,0-9.59,0l1.66,10.64s7.62-.09,11.41.02,11.92-1.09,11.92-1.09c0,0,7.64,2.31,5.73,7.05s-3.79,6.96-9.67,10.3-29.6,11.14-39.88,8.91-13.1-5.68-13.1-5.68c0,0,2.2,11.46,7.61,14.06s18.95,3.79,26.15,2.28,23.92-4.83,31.99-6.49,18.6-4.45,24.89-2.5,17.15,8.91,17.01,15.87-5.89,14.03-11.15,14.89,11.15-2.41,11.15-2.41c0,0,11.74,44.6,14.99,54.34s14.38,35.64,14.94,42.04-.14,8.63,2.3,16.71,4.69,14.48,5.37,17.82,9.89,22.6,8.49,29.12-5.58,9.77-5.58,9.77c0,0,10.31,6.81,17.27,13.47s10.08,15.79,9.91,18.74-1.58,9.66-1.58,9.66c0,0,11.6-6.51,12.12-7.92s1.38-11.08,1.38-11.08l-1.64-2.16s0-3.16-3.33-7.25-17.67-17.59-17.67-17.59c0,0,5.56-.66,4.38-5.65s-3.76-11.98-3.76-11.98c0,0,.61-1.81-.73-6.55s-12.37-33.39-12.02-35.67,2.25-6.46-.66-14.52-10.73-29.33-13.85-38.22-7.47-19.56-9.61-27.99-6.81-31.82-6.81-31.82l1.09-2.38-2.71-16.77s16.18,4.06,20.76,2.18,11.11-4.64,11.07-16.35-3.95-31.13-6.51-40.35-3.45-9.22-3.45-9.22l3.45-3.29s-1.46-10.33-12-21.3-15.27-17.7-25.6-22.61-19.71-8.46-19.71-8.46l-3-8.02-10.32,1.34-.02.03Z"/>
      <path class="st9" d="M163.09,320.35s6.81-5.77,8.49-10.84,1.83-10.64,1.83-10.64c0,0,4.31-5.29,7.65-2.23s3.77,21.62,3.77,21.62v5.47s-.61-.73-4.19.29-6.71,2.39-6.71,2.39v23.04s8.78.71,12.55,1.09,10.74-.93,10.74-.93c0,0-1.37,2.41-12.39,3.53s-21.58,5.3-26.18,9.48c0,0,4.05-14.28,4.46-25.66s-5.32-17.52-5.32-17.52l5.32.89-.02.02Z"/>
      <path class="st9" d="M213.64,444.6c1.67-.59,16.81-3.97,23.09-9.66,3.92-3.55,4.88-4.93,4.88-4.93l-1.82,11.11-26.15,3.49h0Z"/>
      <path class="st9" d="M211.63,445.44s-16.66,56.67-16.66,59.46-2.04,22-2.83,24.22,4.61,2.78-.73,18.1-8.97,26.39-8.97,26.39c0,0,.28,4.96-2.51,10.17s-.74,6.05-12.07,13.29-17.07,8.49-18.79,14.27l-1.72,5.78s4.27,4.39,9.19,3.43,21.9-11.26,21.9-11.26l17.22-13.55s1.45-7.97.79-11.95-2.23-10.17-2.23-10.17c0,0,2.22,1.21,3.67-6.19s1.47-15.64,2.38-17.77,2.97-6.13,2.67-10.8-1.59-9.73.08-12.8,6.86-9.98,5.85-10.86-.84-11.69.27-18.65,9.39-44.36,9.39-44.36l3.31-9.98-10.24,3.24h.03Z"/>
    </g>
    <g id="tracciato">
      <path class="st1" d="M229.41,260.49c6.26,2.12,20.85,7.63,28.97,14.64,16.23,14.02,27.61,33.98,28.61,36.35s-.09,3.56-2.82,4.67"/>
      <path class="st1" d="M140.04,320.84c1.01-2.21,1.26-2.98,6.09-2.58,4.83.41,16.66,1.27,22.83,3.72,6.17,2.46,5.67,1.12,6.17-.88s.83-8.17,1.67-12l.37-2.4c.17-1.09.03-2.21-.4-3.23l-1.04-2.44"/>
      <path class="st1" d="M255.23,294.94c-1.61,2-3.27,2.83-2.94,7s.56,6.61,1.45,9.06"/>
      <path class="st1" d="M176.78,401.09c.71,4.56.09,22.9-.16,33.35-.21,8.97-.83,18.23-4.13,28.29-6.07,18.48-15.04,36.88-12.21,39.71,1,1-10.06,24.95-11.17,32-.33,2.07.9,4.71,4.28,8.5s4.22,6.71,4.22,6.71"/>
      <path class="st1" d="M150.94,539.84c.52,3.88-3.15,10.44-3.65,13.77s-.86,8.5,4.15,11.83c5.02,3.33,15.02,6.83,19.85,8.67,4.83,1.83,22.3,3.11,25.67-4.17,1.6-3.46,2.62-9.34,2.5-12.5-.24-6.14,2.67-10.95,3.39-17.17.66-5.63-1.65-9.09.27-13.66,2.3-5.46,4.95-9.64,4.83-13.83-.63-22.88,13.16-69.83,13.16-69.83"/>
      <path class="st1" d="M211.63,445.44c4.83-2.33,19.33-6.17,28.17-4.33"/>
      <path class="st1" d="M230.45,440.82c.84,2.12,4.51,16.12,6.18,22.29s14.5,56.17,15,59.33.05,7.31,0,9.67c-.28,14.33,5.04,15.27,4.24,20.02-1.39,8.25,2.59,12.98,2.09,14.64s.33,4,3.5,5.83,5.5,2.75,10.67,3.04,17.5.71,21.33,0,11.5-3.21,13.33-4.71,5.33-4.67,3-9.17-3.5-8.33-3.17-9.83-1.5-8.67-2.67-11.17-6.17-15.83-7.17-19.17-3.83-8.96-2.5-12.31c1.33-3.36-.67-12.85-3-18.02s-21.67-59.67-22.83-65-3.66-20.72-5.44-27.24"/>
      <path class="st1" d="M151.95,565.76c-3.65,1.85-10.99,7.01-13.32,9.18-2.33,2.17-9,9.33-10.33,11.33s-2.59,6.71-2.67,8.5c-.13,3.24.43,3.47,5.93,7.13,5.5,3.67,14.57,8.7,18.9,9.87s8.67.17,13.5-2.83,16.38-10.17,20.11-12.67c4.72-3.17,9.73-7.17,12.39-9.33-.33-3.83-1.23-12.91-2.45-13.54"/>
      <path class="st1" d="M134.32,579.34c6.8.61,14.14,2.77,19.64,5.61,5.5,2.83,14.25,8.37,18.54,18.69"/>
      <path class="st1" d="M151.46,573.61c2.67.33,7.5,1.62,10.17,5.73"/>
      <path class="st1" d="M147.63,577.28c5,0,8.17,1.33,10,4.33"/>
      <path class="st1" d="M192.14,575.02c-2.18,2.28-9.54,12.53-4.32,18.62"/>
      <path class="st1" d="M267.21,575.02c1.42,2.17,5.5,12.17,1.75,19.25"/>
      <path class="st1" d="M289.63,580.61c2.67-1.58,5.17-4.92,11.17-3.5"/>
      <path class="st1" d="M293.29,583.78c1.67-1.08,3.42-3.92,10.42-3.17"/>
      <path class="st1" d="M281.35,606.25c.45-3.06,2.36-7.72,8.28-13.14s22.09-12.83,28.13-10.37"/>
      <path class="st1" d="M125.49,593.64l-1.73,1.94c-.75.84-1.16,1.92-1.16,3.04l.62,3.99c.18,1.14.76,2.18,1.62,2.95,6.09,5.43,18.63,12.54,23.95,14.07,2.68.77,8.79,2.47,17.33-2.01,7.61-3.99,25.37-18.55,29.55-21.9.5-.4.79-1.01.79-1.66v-7.13"/>
      <path class="st1" d="M261.29,573.61s1.36,2.83,0,5.73-2,5.44-2,5.44c3.17,3.5,23.23,29.17,38.83,29.17,6.5,0,14.19-3.82,18.68-6.19,6.59-3.49,13.95-5.62,8.82-15.81-2.84-5.64-14.57-17.06-19.54-20.53"/>
      <path class="st1" d="M327.09,596.26l1.64,2.16c.48.64.67,1.44.53,2.23l-1.39,7.44c-.19,1.04-.74,1.97-1.56,2.63-3.61,2.93-14.51,10.68-27.81,9.89-7.2-.43-8.87-.97-16.44-5.75-5.27-3.33-21.89-21.35-21.89-21.35-.56-.53-.88-1.26-.88-2.03v-6.7"/>
      <path class="st1" d="M224.43,334.22s15.6-10.82,17.68-12.36c2.79-2.07,9.79-9.1,13.12-12.01,1.41-1.23,4.32,1.16,3.38,3.67"/>
      <path class="st1" d="M249.12,324.9s3.02-2.77,4.62-4.86c1.86-2.42,7.27-9.05,8.44-9.8,3.51-2.23,8.92,2.62,3.82,10.2"/>
      <path class="st1" d="M254.78,330.63s6.69-5.02,7.73-6.21,2.71-3.58,3.35-3.58,2.3.34,2.94,2.48-.07,7-1.43,8.51-10.12,9.24-10.12,9.24"/>
      <path class="st1" d="M167.87,353.9c8.47-6.66,16.41-2.15,25.81-3.51,5.7-.82,11.39-2.96,11.39-2.96"/>
      <path class="st1" d="M173.92,326.41s4.3-2.39,8.29-2.39c4.74,0,25.89,6.69,26.69,6.93"/>
      <path class="st1" d="M173.03,331.83s2.73-1.35,4.4-1.59"/>
      <path class="st1" d="M223.01,335.18s.79,4.71-1.13,9c-1.4,3.13-5.74,8.84-5.74,8.84,0,0-1.99.48-5.1-.4s-6.93-3.9-6.93-3.9c0,0,3.22-4.12,5.26-8.24,2.55-5.15-1.01-9.69-1.01-9.69"/>
      <ellipse class="st2" cx="216.09" cy="333.34" rx="5.32" ry="7.2" transform="translate(-172.93 413.79) rotate(-68.73)"/>
      <path class="st1" d="M267.23,318.26s10.08-4.17,12.63-5.16c5.42-2.1,6.86-.24,6.86-.24"/>
      <path class="st1" d="M200.28,259.09s-24.78,11.84-34.23,20.28-24.14,34.89-25.73,38.89,4.07,5.76,4.07,5.76"/>
      <path class="st5" d="M157.77,121.96c-3.48-3.35-6.57-8.41-6.4-11.94"/>
      <path class="st5" d="M268.84,123.94c3.68-1.23,5.97-2.21,7.35-7.47"/>
      <path class="st1" d="M274.63,151.16c.25,5.27-.05,10.28,0,14.54.04,3.75-2.28,6.59-5.78,8.09"/>
      <ellipse class="st6" cx="245.54" cy="159.66" rx="2" ry="2.47"/>
      <path class="st6" d="M180.63,160.15c0,1.63-1.08,2.96-2.42,2.96s-2.42-1.32-2.42-2.96,1.08-2.96,2.42-2.96,2.42,1.32,2.42,2.96Z"/>
      <path class="st1" d="M235.63,148.36c3.67-.58,15.58-1.5,17.67-1.42s6.25,1.17,6.83,3.67"/>
      <path class="st3" d="M190.46,149.01c-3.67-.44-15.58-1.14-17.67-1.07s-6.25.88-6.83,2.78"/>
      <path class="st1" d="M203.39,180.86c-1.5,2.25-2.31,4.94-2.22,8,.22,7.62,23.66,9.51,27.5,2.5,1.8-3.29.75-7.25-2.12-9.88"/>
      <path class="st1" d="M157.22,171.57c-4,0-4.8-2.34-5.85-6.71l-1.26-15.55s-2.07-36.37,3.52-46.67,20.98-31.88,57.98-33.72,56.84,25.28,60.4,31.17c3.81,6.3,5.24,22.51,4.57,30.01-.67,7.5-1.96,21.05-1.96,21.05,0,0-3.64,4.27-5.68,5.27"/>
      <path class="st1" d="M201.52,252.88c-.48,3.23-1.36,6.61-1.73,8.36s-.48,3.46,1.13,5.54c6.92,8.93,21.49,5.83,24.99,3.58s4.88-5.38,4.12-7.88-2.59-7.25-3.63-10.02"/>
      <path class="st1" d="M173.92,323.74c-.75,3.12-1.88,16.09,0,25.72"/>
      <path class="st1" d="M223.79,334.82c3.62.62,39,7,45,10.12"/>
      <path class="st1" d="M237.16,104.9c6.41-4.62,10.96-.41,10.96-.41,0,0,11.92,7.76,15.95,12.61s6.43,7.09,5.77,14.85c-.66,7.75-1.89,16.12-2.02,21.01s3.01,53.38,1.19,59.82c-1.81,6.43-9.73,13.2-15.34,18.14-5.61,4.95-20.78,19.71-26.39,21.32s-19.45,2.52-28.7,0c-5.63-1.53-20.78-16.37-26.39-21.32s-13.53-11.71-15.34-18.14,1.32-54.93,1.19-59.82-1.36-13.25-2.02-21.01,1.75-9.99,5.77-14.85,16.41-12.92,16.41-12.92c0,0,4.09-3.9,10.5.71s13.9,10.26,24.2,10.4,17.84-5.78,24.25-10.4h0Z"/>
      <path class="st1" d="M150.11,149.31s1.17,2.34,3,3.64,4.66,1.63,4.66,1.63"/>
      <path class="st1" d="M194.44,219.59c2.94,5.78,27.79,8,39.18.5.69-.45,1.15-1.33,1.15-1.33"/>
      <path class="st1" d="M196.19,261.11s-2.46,7.61,2.2,11.66c9.62,8.37,29.48,6.13,34.83-.62,5.05-6.37.12-10.26.12-10.26"/>
      <path class="st1" d="M146.13,318.26s-2.88,10.19-4.39,18.71-6.48,46.99,14.27,50.02,49.06-8.71,61.29-16.64l12.23-7.94"/>
      <path class="st1" d="M281.7,312.49s16.46,35.4,10.48,59.58c-5.45,22.05-42.58,3.24-48.42-1.08s-26.83-19.04-26.83-19.04"/>
      <path class="st1" d="M175.23,386.38s.37,6.33,0,9.29,0,3.95,0,3.95c0,0,5.79,7.64,22.56,10.6s51.34-3.11,57.45-6.66c7.79-4.52,8.88-6.9,8.88-6.9,0,0-1.7-11.36-2.21-14.06l-.51-2.7"/>
    </g>
  </g>
</svg>