<?xml version="1.0" encoding="UTF-8"?>
<svg xmlns="http://www.w3.org/2000/svg" viewBox="0 0 582.45 751.33">
  <defs>
    <style>
      .cls-1 {
        stroke-width: 2px;
      }

      .cls-1, .cls-2, .cls-3, .cls-4 {
        stroke-miterlimit: 10;
      }

      .cls-1, .cls-2, .cls-4 {
        fill: none;
      }

      .cls-1, .cls-3, .cls-4 {
        stroke: #4e4e4d;
      }

      .cls-2 {
        stroke: #cacacc;
      }

      .cls-2, .cls-3, .cls-4 {
        stroke-width: 1.5px;
      }

      .cls-5 {
        mix-blend-mode: multiply;
        opacity: .37;
      }

      .cls-5, .cls-6 {
        fill: #cacacc;
      }

      .cls-7 {
        isolation: isolate;
      }

      .cls-3 {
        fill: #4e4e4d;
      }

      .cls-8 {
        fill: #e5e4e5;
      }

      .cls-9 {
        fill: #f9fafb;
      }
    </style>
  </defs>
  <g class="cls-7">
    <g id="corpo_colore_sfondo">
      <path class="cls-9" d="M255.94,115.67s-.63-1.45-5.38,3.6c-4.75,5.05-13.54,24.62-16.07,27.93-2.53,3.31-7.86,16.11-11.61,21.16-3.75,5.05-19.88,23.83-22.77,26.78-2.89,2.94-4.82,5.24-5.31,8.76-.49,3.52-.5,12.19,1.23,17.08,1.72,4.9,1.03,5.63,1.03,5.63,0,0-2.35,2.22-3.26,7.11-.91,4.89-1.14,12.62-1.14,12.62,0,0-1.88,7.66-1.48,11.41l.4,3.75s-1.61,3.38-1.34,9.59c.27,6.22,1.77,15.82,3.56,20.47,1.79,4.66,6.01,17.17,6.01,17.17,0,0,1.66,28.58,2.72,34.86,1.07,6.28,6.19,29.38,9.38,34.71,3.19,5.33,6.71,6.72,11.17,5.68,4.46-1.04,18.75-6.04,24.72-10.51,5.97-4.47,24.38-20.46,24.38-20.46,0,0-2.81-8.42-6.34-14.03s-9.66-12.14-9.66-12.14l-18.68,12.14-20.24-39.83s-1.63-.89,1.47-7.63c3.1-6.75,8.39-16.73,8.39-16.73,0,0,16.46,3.36,25.89,3.63,9.43.27,34.04-2.49,42.87-5.19,8.83-2.69,22.14-25.33,22.14-25.33,0,0,4.07-32.45,14.65-44.78,10.57-12.34,24.42-39.78,13.59-53.87-10.83-14.1-33.23-7.55-45.06-17.87-11.83-10.32-15.86-15.18-26.94-15.9-11.08-.72-18.32.19-18.32.19Z"/>
      <path class="cls-9" d="M199.77,319.21s-9.09,13.61-10.57,18.37c-1.48,4.75-2.09,13.57-2.19,17.35-.1,3.78,1.86,15.54,3.61,20.67,1.75,5.13,5.89,15.59,5.89,15.59,0,0-6.35,9.59-7.53,12.62s-2.22,2.69-1.57,5.9c.64,3.21,1.24.9-.41,4.53-1.65,3.63-2.67,5.26-1.64,7.93,1.03,2.67-.07,3.67-.27,5.36-.2,1.68-2.16,1.84.74,5.63,2.9,3.8,5.77,8.34,7.98,8.32,2.2-.02,3.73,1.86,4.87-.67,1.14-2.53.28-6.03.28-6.03,0,0,4.61,2.81,5.6.26,1-2.55-2.19-10.45-2.19-10.45,0,0,2.28.33,3.19-2.43.91-2.76-.54-7.64-3.72-11.72-3.17-4.08-4.21-6.36-4.21-6.36l1.03-33.58,1.9-44.35-.81-6.93Z"/>
      <path class="cls-9" d="M238.4,273.68s.9,6.97.21,10.03c-.69,3.06-3.61,7.87-3.05,9.29.56,1.42-.14,1.89,2.84,2.68,2.98.79,8.37,1.25,12.96-.43,4.59-1.68,10.06-4.35,11.99-6.36,1.93-2.01,3.46-3.04,5.28-6.46,1.82-3.42,1.82-4.44,1.82-4.44l-32.06-4.32Z"/>
    </g>
    <g id="pantalone">
      <path class="cls-8" d="M201.59,435.91s29.67,20.64,37.02,23.05c7.35,2.41,12.94,4.38,18.65,3,5.71-1.38,24.13-8.04,24.13-8.04,0,0,3.56,13.8,1.49,24.88-2.07,11.07-2.87,21.4-2.78,27.43.09,6.03-1,32.99-1.25,39.78-.26,6.79-.16,18.86.53,26.17s2.77,16.37,2.73,20.9c-.04,4.53-1.06,9.3-.8,11.82.26,2.53.92,21.98.46,24.46-.46,2.48-3.31,7.42-3.31,7.42,0,0-7.71,4.6-13.51,4.51-5.79-.09-17.66-1.96-22.39-4.4-4.73-2.44-9.76-8.72-10.23-10.64l-.48-1.92s-13.06-1.22-16-2.83c-2.94-1.61-8.69-6.36-8.69-6.36l-.63-22.85s1.24-1.87.11-3c-1.13-1.13-3.28-5.31-3.04-7.55.24-2.24,1.4-22.39,1.79-25.3.39-2.9,2.4-4.06.18-5.92-2.22-1.86-3.28-4.79-3.98-10.83-.71-6.04,1.18-29.2.93-32.73-.25-3.52-1.96-39.96-2.68-45.03s-1.82-20.97-1.82-20.97c0,0,1.93.93,1.82-1.48-.11-2.4-.11-4.2-.11-4.2l1.87.59Z"/>
    </g>
    <g id="T-shirt">
      <path class="cls-6" d="M238.4,280.35s-8.52,1.09-12.29,3.36c-3.77,2.26-5.37,3.62-5.37,3.62l-3.84,9.64,4.94,11.39,15.66,30.64,18.68-12.14s7.34,7.96,8.5,10.05c1.16,2.09,7.5,16.12,7.5,16.12l-3.64,3.63s-16.09,15.63-25.25,19.92c-9.16,4.29-15.53,7.37-20.21,7.42s-8.95-1.58-12.08-8.62-7.33-25.09-7.33-25.09l-2.73-16.99-3.29,70.79s8.98,8.88,8.88,13.04c-.1,4.16.43,5.17-.96,6.38l-1.39,1.21s2.28,2.63,1.33,6.48c-.95,3.85-1.74,4.73-1.74,4.73l-3.6-.31,13,8.58s23.01,14.64,28.23,15.97c5.22,1.33,12.75,3.9,18.53,1.8s28.29-11.25,28.29-11.25l2.46-1.22s-5.68-27.86-5.17-36.66c.51-8.81,3.29-43.19,5.17-53.7s5.38-16.03,6.65-26.86c1.28-10.83.66-24.69-2.13-31.35-2.79-6.66-18.38-17.21-18.38-17.21l-6.35-4.69s-4,8.7-10.55,12.47c-6.55,3.78-13.39,6.2-18.53,4.99-5.14-1.21-5.83-3.48-5.83-3.48,0,0,1.48-.79,2.08-4.81.61-4.02.76-7.83.76-7.83Z"/>
    </g>
    <g id="capelli_colore" data-name="capelli colore">
      <path class="cls-6" d="M251.85,118.27s11.05-8.32,25.51-11.2c11.15-2.22,25.58-4.76,40.62-.84s59.06,22.56,63.96,63.94c4.9,41.37-18.41,59.24-18.41,59.24,0,0-.76-9.67-6.03-15.93-5.27-6.26-36.53-32.43-36.53-32.43,0,0,3.27-5.64,3.13-8.61-.13-2.96-2.1-18.95-7.34-23.35-5.24-4.4-9.09-2.4-20.49-4.12-11.4-1.71-28.68-5.8-30.54-11.77-1.86-5.97,1.62-8.29-.47-11.69-2.09-3.4-5.61-3.4-9-3.6-3.39-.2-4.43.36-4.43.36Z"/>
      <path class="cls-6" d="M300.93,226.1s-2.78,4.33-2.5,10.86c.28,6.52-.15,8.82,1.91,13.34,2.06,4.52,2.83,7.36,2.51,11.21s-3.79,10.87-3.79,10.87c0,0,3.67,1.15,16.78-6.48,13.1-7.63,21.8-13.88,21.8-13.88,0,0-.12-6.32-3.87-11.17-3.75-4.84-17.93-17.47-17.93-17.47,0,0-2.07,3.89-5.21,5.25-3.15,1.36-4.47,1.54-6.63.08-2.16-1.46-3.07-2.61-3.07-2.61Z"/>
      <path class="cls-8" d="M297.32,213.89s2.77-5.39,5.99-9.57c3.22-4.18,17.42-22.82,17.42-22.82,0,0,9.47,5.83,11.28,7.58,1.81,1.75,16.37,14.29,19.78,17.66,3.4,3.37,9.32,11.21,10.14,15.36.81,4.15,1.61,7.33.85,8.05s-24.61,21.46-24.61,21.46c0,0,.68-2.93-1.9-7.75-2.58-4.82-8.84-11.56-13.43-14.93-4.59-3.38-7-5.54-7-5.54,0,0,2.65-4.8,2.69-8.71.03-3.91-2.76-7.35-7.1-6.75-4.34.59-7.86,2.6-9.25,3.67-1.39,1.06-4.86,2.3-4.86,2.3Z"/>
    </g>
    <g id="scarpe">
      <path class="cls-6" d="M211.63,619.24s-8.99,5.37-12.95,7.73c-3.96,2.36-8.65,5.63-8.65,5.63,0,0,8.89,3.04,13.59,4.79,4.7,1.76,9.51,4.62,11.32,7.75,1.81,3.12,2.26,6.2,2.26,6.2l15.14-.76s1.82-2.87,3.22-7.47c1.4-4.6,2.28-8.66,2.28-8.66,0,0-3.19-.03-4.34-4.11-1.16-4.08-1.63-6-1.63-6,0,0-6.92,1.23-11.46-.8-4.54-2.03-8.76-4.31-8.76-4.31Z"/>
      <path class="cls-6" d="M237.83,634.46s-.26,4.87-3.26,11.29c-3,6.42-7.45,16.1-7.45,16.1,0,0,1.41-1.69,4.73-3.74,3.32-2.05,10.05-5.8,17.78-6.28,7.72-.48,14.21-.71,19.71.15,5.51.86,11.76,2.21,14.06,3.27,2.31,1.06,4.78,2.8,4.78,2.8l-12.66-19.14s-2.32,2.62-9.34,3.07c-7.02.45-15.58-2.2-15.58-2.2l-12.78-5.32Z"/>
      <path class="cls-8" d="M190.02,632.61s-8.75,6.82-10.46,8.7c-1.71,1.88-2.69,2.64-3.06,5.66-.37,3.02.69,8.88.69,8.88,0,0,.86,2.26,5.01,2.87,4.14.61,30.22,1.59,30.22,1.59l15.1-.18,4.81-9.54-15.14.75s-1.69-6.17-4.77-8.69c-3.08-2.52-9.16-5.59-12.58-6.84-3.42-1.25-9.81-3.21-9.81-3.21Z"/>
      <path class="cls-8" d="M227.12,661.85s-2.4,5.91-1.74,8.52c.66,2.62-.19,5.05,6.95,7.42,7.14,2.37,21.07,5.6,28.35,5.28,7.28-.33,21.9-2.51,25.69-4.37,3.78-1.86,6.95-3.12,6.89-6.23-.07-3.11-1.66-7.46-1.66-7.46l-4.36-8.42s-11-5.29-21.04-5.25c-10.04.03-18.61-.61-25.41,2.4-6.81,3-13.65,8.11-13.65,8.11Z"/>
    </g>
    <g id="ombre">
      <path class="cls-5" d="M252.39,117.83s11.54.28,12.41,3.07c.88,2.79-1.35,8.51,0,10.92,1.35,2.4,10.83,10.58,19.31,11.28,8.48.7,21.12,3.22,26.07,11.7,4.95,8.49,10.96,20.86,5.3,31.47-5.66,10.61-19.24,24.75-27.12,37.83-7.88,13.08-10.71,23.34-19.2,31.11-5.54,5.08-26.87,9.9-30.05,10.25-3.18.35-5.3,0-5.3,0,0,0,4.24-3.54,4.6-7.07.35-3.54-6.72-3.18-6.72-3.18,0,0-1.41,6.36-7.07,14.14-5.66,7.78-9.55,13.79-11.67,19.8-2.12,6.01,3.89,26.52,6.36,35.71,2.47,9.19,6.72,20.15,6.72,20.15l10.61-6.01-19.8-39.25s5.3-15.2,7.07-19.45c1.77-4.24,3.89-6.36,3.89-6.36,0,0,10.25,3.18,14.85,3.54,4.6.35,7.07-2.12,7.78,1.06.71,3.18,2.47,5.66-.35,10.61-2.83,4.95-6.01,6.36-6.01,6.36,0,0,9.19-.71,14.5-3.89,5.3-3.18,8.49-4.95,9.19-2.83s-1.06,5.3-1.06,5.3c0,0,10.25,2.12,13.44,7.42,3.18,5.3,7.07,5.3-2.12,16.26s-11.31,13.08-14.67,12.73-6.54-3.54-6.54-3.54c0,0,.73,19.09-4.41,24.4-5.14,5.3-17.87,12.37-23.17,14.85-5.3,2.47-12.37,2.12-14.5,4.95-2.12,2.83-2.21,5.66-2.21,5.66,0,0,1.51,6.68,8.58,9.88,7.07,3.2,20.51,0,20.51,0,0,0,3.54,11.68,1.41,25.83-2.12,14.14-5.66,23.33-9.9,28.28-4.24,4.95-15.91,6.72-15.91,6.72,0,0,16.97,11.31,23.33,13.08,6.36,1.77,8.13,7.07,8.84,14.5.71,7.42.35,62.93-1.06,70.36-1.41,7.42-.71,11.67,2.47,13.44,3.18,1.77,8.84-2.12,9.55,4.95.71,7.07,3.63,49.17,1.16,60.49-2.47,11.31-14.87,13.05-14.87,13.05,0,0,5.58,1.5,8.41,4.11,2.83,2.61,5.66,11.8,8.31,18.52,2.65,6.72.53,15.56,0,19.45-.53,3.89-2.67,3.6-2.67,3.6,0,0,14.25.88,22.73-3.36,8.49-4.24,9.84-4.41,9.84-7.24s-.56-5.27-.56-5.27c0,0-.18,1.31-.53-2.58-.35-3.89-8.49-13.44-11.31-17.32-2.83-3.89-6.36-10.25-6.36-10.25,0,0,4.24-.8,5.3-2.88,1.06-2.07,2.12-2.78,2.12-7.73s-1.06-26.52-1.06-26.52c0,0,1.41-8.13.35-15.2-1.06-7.07-3.54-21.21-3.18-26.16.35-4.95,2.12-66.47,2.47-68.59.35-2.12,1.77-9.55,1.77-9.55l-1.06-25.81s8.13-3.89,9.19-5.66-5.3-35.55-5.3-46.77,4.6-38.44,6.72-50.46c2.12-12.02,7.07-21.57,7.07-34.3s-6.72-22.98-13.08-27.93c-6.36-4.95-15.56-11.67-15.56-11.67,0,0,12.73,0,25.46-4.6s27.58-8.49,44.55-21.57c16.97-13.08,25.81-22.98,33.23-34.3,7.42-11.31,15.2-27.58,6.72-54.09-8.49-26.52-24.75-39.99-35.36-45.45-10.61-5.46-31.47-14.3-50.56-13.24-19.09,1.06-23.69,3.54-28.99,6.01-5.3,2.47-12.89,7.23-12.89,7.23Z"/>
      <path class="cls-5" d="M288.37,169.64s3.99,0,0,7.78c-3.99,7.78-8.94,11.67-8.94,11.67,0,0-.24,2.12,5.36,4.24,5.6,2.12,10.27,0,13.42-2.83,3.15-2.83,4.91-8.58,4.91-8.58,0,0-.28-6.62-4.91-9.45-4.63-2.83-9.83-2.83-9.83-2.83Z"/>
      <path class="cls-5" d="M241.6,144.18s-.35,4.24-2.47,8.49c-2.12,4.24-4.6,7.07-4.6,7.07h3.54l8.56-13.79-5.03-1.77Z"/>
      <path class="cls-5" d="M231.34,188.73s-3.54,3.54,0,7.78c3.54,4.24,10.96,9.55,13.08,10.25,2.12.71-1.41,2.83-1.41,2.83,0,0-10.57-4.24-13.24-8.13-2.67-3.89-4.96-3.88-2.32-7.27,2.64-3.39,3.89-5.46,3.89-5.46Z"/>
      <path class="cls-5" d="M199.88,330.86s-4.6,7.78-5.66,14.85c-1.06,7.07,4.24,41,4.24,41l1.41-55.85Z"/>
      <path class="cls-5" d="M196.98,405.11s6.43,6.72,5.73,11.67-2.83,5.3-2.83,5.3c0,0,4.7,2.83,2.88,6.72-1.82,3.89-2.88,6.01-2.88,6.01l9.55,7.42s-.35-5.3,0-9.19c.35-3.89,1.41-7.07,0-12.02-1.41-4.95-12.44-15.91-12.44-15.91Z"/>
      <path class="cls-5" d="M216.14,474.76s6.25,55.87,5.19,65.06c-1.06,9.19-3.17,10.25-3.17,10.25,0,0-1.01,4.95,2.02,13.44,2.38,6.66,2.89,30.52,3,40.48.03,2.89-.45,5.76-1.43,8.49l-3.49,9.72s5.3,5.21,3.54,11.97c-1.77,6.76-11.66,10.3-11.66,10.3,0,0-15.92,4.24-17.69,7.07s-1.41,7.78-1.41,7.78c0,0,5.66,1.77,14.5,1.77s21.92-1.77,21.92-1.77l6.39-10.47,3.83-12.87s-7.04-9.54-7.04-17.67,1.41-17.32,1.41-17.32l3.79-30.41s-3.79-3.18-4.14-8.13c-.35-4.95-4.95-39.6-5.3-45.61-.35-6.01-.71-34.65-.71-34.65l-9.55-7.42Z"/>
    </g>
    <g id="BODY">
      <path class="cls-4" d="M299.06,272.37c7.38-10.73,1.99-19.52.62-23.9s-1.5-11.5-1-14.75,1.25-5.25,2.25-7.62c.38-.88,1.41,3.26,6.09,3.87,5.66.74,19.72-18.96,5.02-21.95-5.24-1.07-8.87,3.06-12.35,5.43-6.01,4.08.99-5.35,2.49-7.6s11.18-14.93,13.35-17.44c14.67-17.01,8.54-29.92,1.99-38.47-4.18-5.46-15.61-5.21-19.11-5.46s-20.87-1.02-30.9-8.84c-4.62-3.6-.93-8.04-1.66-12.35-1.17-6.96-11.46-5.26-14-5.02"/>
      <path class="cls-2" d="M321.98,181.05c2.21,1.17,19.21,14.55,25.96,21.67s15.8,15.24,14.84,27.43"/>
      <path class="cls-1" d="M279.93,169.97c4.62-.38,20.69-4.48,23.38,13.12"/>
      <path class="cls-1" d="M237.47,141.74c3.46,1.48,6.84,3.98,7.84,5.48"/>
      <path class="cls-3" d="M237.59,158.97c-.4,1.23-1.37,2.01-2.18,1.75-.81-.26-1.14-1.47-.75-2.7.4-1.23,1.37-2.01,2.18-1.75.81.26,1.14,1.47.75,2.7Z"/>
      <ellipse class="cls-3" cx="281.25" cy="188.41" rx="2.31" ry="2.19"/>
      <path class="cls-4" d="M209.35,211.02c10.25,3.27,15.94,13.66,20.47,18.33s7.59,5.64,17.98-.17"/>
      <path class="cls-4" d="M238.19,276.34c.5,4.01.16,11.01-1.17,13.68-1.33,2.67-3.01,3.95,1.39,5.67,6.9,2.69,25.09-1.11,32.06-16.67"/>
      <path class="cls-4" d="M192.67,246.35c-1.32,5.5-3.83,12.5,3.75,32.67"/>
      <path class="cls-4" d="M191.59,261.5c-1.24,3.84-3.24,16.18,2.76,31.51,6,15.33,6.17,17.67,5.83,21.17-.33,3.5.67,16.33,1.17,21.17.5,4.83,3.33,21.83,5,27.83,0,0,5.23,23.53,18.11,20.65,25.76-5.76,45.22-27.65,47.72-30.81"/>
      <path class="cls-4" d="M197.76,225.88c-2.58,2.3-4.91,8.8-5.08,15.8-.17,7,1.83,17.33,7.5,23.17"/>
      <path class="cls-4" d="M237.5,338.99c-2-4.67-8.15-15.64-10.82-21.14s-7.76-14.85-9.42-18.69c0,0,.09-4.81,2.09-9.15,2-4.33,6.67-14,8.67-16.67l7.46-9.4c7.29-6.84.17-9.25-4.26-9-4.43.24-10.48,4.64-15.25,3.31"/>
      <path class="cls-4" d="M256.18,326.85c-3.33,1.83-22.83,15.33-28.5,18"/>
      <path class="cls-4" d="M200.17,318.67c-2.32,3.18-9.92,13.1-12.44,23.66-1.6,6.7-.21,20.36,1.12,26.86,1.33,6.5,6.5,19.67,7.67,22"/>
      <path class="cls-4" d="M202.38,424.58c2.52,1.53,5.8-3.21,3.19-8.1-2.45-4.58-4.89-7.8-6.89-10.13s-.51-2.15-.68-5.15.68-12.51.68-12.51c-2.34,3.18-3.87,5.82-5.16,7.71-2.05,3-6.3,8.97-6.1,13.31.06,1.39.64,3.21.64,3.21,0,0-6.99,6.93.51,14.6"/>
      <path class="cls-2" d="M316.84,223.38s12.67,9.49,18.26,19.65c2.99,5.43,2.51,9.25,2.51,9.25"/>
      <path class="cls-4" d="M232.97,188.41s-7.15,3.25-5.64,8.91c1.24,4.62,10.89,10.7,14.05,12.16"/>
      <path class="cls-4" d="M186.39,424.83s-1.78,5.37-1.32,6.8c.66,2.04,4.47,6.72,7.06,8.44,4.15,2.77,9.9,1.67,6.83-5.29"/>
      <path class="cls-4" d="M191.77,429.59l7.95,5.74c1.08.78,6.46,1.76,5.79-4.14-.57-4.98-5-9.33-10.5-12.33"/>
      <path class="cls-4" d="M214.44,257.11c-.45-.67-12.93-17.11-16.54-29.28s-5.23-21.86-1.47-27.95c3.75-6.08,22.96-24.34,29.61-36.5,6.65-12.17,20.15-40.12,24.53-44.11,4.37-3.99,37.31-23.37,73.78-11.22,11.98,3.99,35.94,17.78,46.38,32.89,17.79,25.76,16.38,65.97-7.95,89.21-39.58,37.79-55.65,40.35-79.21,46.18-24.63,6.1-56.43-1.54-56.43-1.54"/>
    </g>
    <g id="DRESS">
      <path class="cls-4" d="M270.46,279.02c2.01,1.97,15.01,10.31,18.74,14.06,3.73,3.75,16.72,15.27,4.23,51.77-1.2,3.52-2.75,16.25-4.25,23.75s-4.15,32.42-3.02,54.57c1.17,22.83,6.83,25.17,4.5,26.33-23.06,11.53-36.33,14.83-48.73,10.85-8.16-2.62-39.3-22.67-41.77-24.74"/>
      <path class="cls-4" d="M220.74,287.06c4.86-3.38,8.83-5.81,17.67-6.71"/>
      <path class="cls-4" d="M264.68,308.35c-1.38,2.88-12.5,13.26-14,14.19-1.5.93-.75,4.23.44,7.52"/>
      <path class="cls-4" d="M200.94,330.85c-.92,7.83-2.2,53.83-2.26,57.83"/>
      <path class="cls-4" d="M198.01,441c-.16,3.35,1.86,23.52,2.27,30.52.4,7,.9,17.5,1.07,24,.17,6.5,1,14.67.83,17.5-.17,2.83-.5,9.33-1,13.33s-.33,12.5.17,15.83.83,5.17,2,6.5,2.17,2.33,2.17,4.83-.5,8.5-1,11.17-.83,11.5-.67,14.83c.17,3.33,0,6,1.67,8.67,1.67,2.67,1,3.83.83,5.17s-.12,10.33.27,14.67c0,0,.03,5.82.53,7.15.51,1.33,6.21,5.67,11.03,7.33,4.82,1.67,13.67,2.79,13.67,2.79"/>
      <path class="cls-4" d="M215.85,473.85c2.83.83,10.17,7,10.33,10s-.33,8.5,0,13.83c.33,5.33.67,17.67,1,22.67.33,5,3.67,33.17,4,37.17.33,4,1.91,11.77,3.33,13.5,2.32,2.82.5,10.17-.33,12.67s-2,7.17-2.33,10.33c-.33,3.17.83,6,.83,8.5s-.5,4.33-.83,7.5c-.33,3.17-.67,14,1,18,1.67,4,5.67,7,8.17,8.17s20.96,10.53,37.44.61c3.88-2.33,3.89-14.11,3.89-14.11,0-2-1.83-23-.83-25.67s.67-7-.5-12.33-2-15.67-2-18.83-.83-11.83-.17-19.83c.67-8,1.17-25.17,1.33-30.33s-.77-21.42.98-27.35c3-10.17,2.89-30.58.22-34.41"/>
      <path class="cls-4" d="M249.75,557.52c4.6,1,9.6,1.67,16.43-2.83"/>
      <path class="cls-4" d="M206.64,546.65c.89,1.86,5.77,6.86,11.54,4.37"/>
      <path class="cls-4" d="M211.63,619.24c-5.94,2.94-16.78,10.27-20.44,12.6-3.67,2.33-11.11,8.46-13.33,11.33-1.59,2.04-2.67,10-.67,12.67s4.31,2.84,9.15,3.48c6.05.8,34.33,1.26,41.18.8"/>
      <path class="cls-4" d="M237.83,634.46c-.51,3.38-2.31,9.72-4.64,14.39s-2.33,5.17-4,7.83c-1.67,2.67-3.01,5.47-1.67,8.33,6.3,13.43,49.98,10.34,56.42,6.33,5.62-3.5,8.98-5.08,7.31-8.25s-6.73-10.58-9.06-14.25-5.4-7.96-7.2-11.06"/>
      <path class="cls-4" d="M201.31,625.29c4.37,1.06,8.18,0,13.61,5.89"/>
      <path class="cls-4" d="M190.02,632.61c3.83,1.07,27.83,7.57,27.16,18.74"/>
      <path class="cls-4" d="M176.5,646.97c3.37,1.83,4.67,4.38,16.17,4.57,8.51.15,31.8.12,39.66-.95"/>
      <path class="cls-4" d="M246.63,646.97c7.35-2.38,11.43-3.4,22.71-1.29"/>
      <path class="cls-4" d="M227.12,661.85c4.73-3.84,11.04-10.28,30.23-10.5,15-.17,27.36,3.2,30.83,6.7"/>
      <path class="cls-4" d="M227.52,660.13c-1.33,3.5-5.14,13.48,2.46,16.72,29.3,12.48,56.34,2.83,60.17,0,3.83-2.83,3.87-8.26,1.45-11.83"/>
      <path class="cls-4" d="M268.54,356.64s3.1,3.6,5.77,2.14c2.67-1.46,9.48-7.54,11.19-8.51"/>
      <path class="cls-4" d="M250.68,322.54s9.46,6.37,14,14.36c6.49,11.43,9.63,21.89,9.63,21.89"/>
      <path class="cls-4" d="M237.76,283.71s-2.71,1.88-6.55,6.5c-3.84,4.62-2.52,7.03-1.65,8.54,1.65,2.85,12.7,6.31,21.11,4.12,8.42-2.19,12.82-5.12,17.86-10.47s6.74-9.96,6.74-9.96"/>
    </g>
  </g>
</svg>