<svg width="1145" height="507" viewBox="0 0 1145 507" fill="none" xmlns="http://www.w3.org/2000/svg">
<g style="mix-blend-mode:multiply" opacity="0.46">
<path d="M364.579 332.006C355.409 330.408 372.572 361.67 372.572 361.67L388.394 361.308C388.394 361.308 393.108 330.913 385.76 333.575C378.591 336.172 385.76 360.89 385.76 360.89L384.761 360.109C384.761 360.109 392.015 324.338 382.249 324.202C372.423 324.064 382.117 360.512 382.117 360.512L380.483 360.528C380.483 360.528 392.304 309.613 380.483 309.67C368.625 309.727 377.98 360.816 377.98 360.816H375.104C375.104 360.816 373.573 333.574 364.579 332.006Z" fill="#C3C6CA"/>
</g>
<path d="M380.839 326.77C367.292 326.766 378.219 361.36 378.219 361.36H383.449C383.449 361.36 394.385 326.773 380.839 326.77Z" fill="#656C73" stroke="#656C73" stroke-width="0.15" stroke-linecap="round" stroke-linejoin="round"/>
<path d="M358.677 337.803C353.33 347.399 375.116 349.391 375.116 349.391L377.179 345.685C377.179 345.685 364.024 328.207 358.677 337.803Z" fill="#656C73" stroke="#656C73" stroke-width="0.15" stroke-linecap="round" stroke-linejoin="round"/>
<path d="M365.719 352.79C368.042 356.544 373.919 348.717 373.919 348.717L373.021 347.268C373.021 347.268 363.395 349.037 365.719 352.79Z" fill="#656C73" stroke="#656C73" stroke-width="0.15" stroke-linecap="round" stroke-linejoin="round"/>
<path d="M396.261 337.803C395.102 333.543 387.241 339.375 387.241 339.375L387.689 341.019C387.689 341.019 397.42 342.063 396.261 337.803Z" fill="#656C73" stroke="#656C73" stroke-width="0.15" stroke-linecap="round" stroke-linejoin="round"/>
<path d="M369.397 325.636C366.155 328.633 374.959 332.909 374.959 332.909L376.21 331.751C376.21 331.751 372.638 322.64 369.397 325.636Z" fill="#656C73" stroke="#656C73" stroke-width="0.15" stroke-linecap="round" stroke-linejoin="round"/>
<path d="M366.812 361.36H391.232V373.57C391.232 380.31 385.762 385.78 379.022 385.78C372.282 385.78 366.812 380.31 366.812 373.57V361.36Z" fill="#788088" stroke="#788088" stroke-width="0.88" stroke-linecap="round" stroke-linejoin="round"/>
<g style="mix-blend-mode:multiply">
<path d="M366.815 361.36L380.745 363.66C380.745 363.66 387.715 365.44 386.835 372.86C386.305 377.37 379.435 381.83 378.125 382.23C376.815 382.63 387.625 382.23 387.625 382.23C387.625 382.23 391.225 378.21 391.225 374.9V361.36H366.805H366.815Z" fill="#C3C6CA"/>
</g>
<path d="M111.654 226.684H108.398L115.165 219.037H164.33V216.066H163.473C162.816 216.066 162.374 215.388 162.374 215.013V213.111C162.374 212.736 162.816 212.67 163.473 212.67H172.236C172.893 212.67 173.429 212.736 173.429 213.111V215.013C173.429 215.388 172.893 216.066 172.236 216.066H170.829V219.037H180.678L187.445 226.684H183.841V260.246H111.641V226.684H111.654ZM169.543 242.829H174.742V232.634H169.543V242.829ZM169.543 256.842H174.742V247.073H169.543V256.842ZM162.387 242.829H167.586V232.634H162.387V242.829ZM161.744 256.842H167.6V247.073H161.744V256.842ZM148.732 242.829H153.932V232.634H148.732V242.829ZM148.732 256.842H153.932V247.073H148.732V256.842ZM141.577 242.829H146.776V232.634H141.577V242.829ZM141.577 256.842H146.776V247.073H141.577V256.842ZM127.922 242.829H133.778V232.634H127.922V242.829ZM127.922 256.842H133.778V247.073H127.922V256.842ZM120.766 242.829H125.966V232.634H120.766V242.829ZM120.766 256.842H125.966V247.073H120.766V256.842Z" fill="#A2A0A0"/>
<path d="M140.938 179.957V260.67H80.4494V179.957H90.8613V176.137H94.1175V164.67H95.4174V176.137H110.372V179.957H140.938ZM129.226 250.051H90.8479V255.153H129.226V250.051ZM129.226 243.252H90.8479V247.497H129.226V243.252ZM129.226 235.18H90.8479V240.282H129.226V235.18ZM129.226 228.382H90.8479V233.058H129.226V228.382ZM129.226 221.583H90.8479V225.827H129.226V221.583ZM129.226 214.359H90.8479V219.036H129.226V214.359ZM129.226 206.72H90.8479V211.821H129.226V206.72ZM129.226 199.921H90.8479V204.598H129.226V199.921ZM129.226 192.698H90.8479V197.375H129.226V192.698ZM129.226 185.05H90.8479V190.151H129.226V185.05Z" fill="#A2A0A0"/>
<path d="M65.2474 253.409C65.2474 253.409 65.1866 253.409 65.1562 253.409V253.3L65.2474 253.409Z" fill="#797977"/>
<path opacity="0.79" d="M176.203 255.928L176.203 64.8564L11.2255 64.8564L11.2255 255.928H176.203Z" fill="#788088"/>
<path d="M0 55.6699V264.788H188.211V55.6699H0ZM176.397 255.743H11.0695V64.7044H176.397V255.743Z" fill="#E1E1E1"/>
<path d="M10.3203 64.1396V256.872H177.868V64.1396H10.3203ZM11.0654 255.743V64.7043H176.393V255.743H11.0654Z" fill="#788088"/>
<path d="M289.767 219.008H293.462L285.783 208.833H229.995V204.881H230.968C231.713 204.881 232.215 203.979 232.215 203.48V200.95C232.215 200.45 231.713 200.363 230.968 200.363H221.024C220.279 200.363 219.67 200.45 219.67 200.95V203.48C219.67 203.979 220.279 204.881 221.024 204.881H222.62V208.833H211.444L203.766 219.008H207.856V263.659H289.782V219.008H289.767ZM224.08 240.487H218.18V226.924H224.08V240.487ZM224.08 259.131H218.18V246.133H224.08V259.131ZM232.2 240.487H226.3V226.924H232.2V240.487ZM232.929 259.131H226.285V246.133H232.929V259.131ZM247.694 240.487H241.794V226.924H247.694V240.487ZM247.694 259.131H241.794V246.133H247.694V259.131ZM255.813 240.487H249.914V226.924H255.813V240.487ZM255.813 259.131H249.914V246.133H255.813V259.131ZM271.308 240.487H264.663V226.924H271.308V240.487ZM271.308 259.131H264.663V246.133H271.308V259.131ZM279.427 240.487H273.528V226.924H279.427V240.487ZM279.427 259.131H273.528V246.133H279.427V259.131Z" fill="#A2A0A0"/>
<path d="M256.539 156.841V264.224H325.176V156.841H313.361V151.759H309.666V136.502H308.191V151.759H291.222V156.841H256.539ZM269.829 250.096H313.377V256.883H269.829V250.096ZM269.829 241.051H313.377V246.697H269.829V241.051ZM269.829 230.312H313.377V237.098H269.829V230.312ZM269.829 221.266H313.377V227.488H269.829V221.266ZM269.829 212.221H313.377V217.867H269.829V212.221ZM269.829 202.611H313.377V208.833H269.829V202.611ZM269.829 192.447H313.377V199.234H269.829V192.447ZM269.829 183.402H313.377V189.624H269.829V183.402ZM269.829 173.792H313.377V180.014H269.829V173.792ZM269.829 163.617H313.377V170.404H269.829V163.617Z" fill="#A2A0A0"/>
<path d="M303.453 175.116V256.67H355.453V175.116H346.502V171.257H343.703V159.67H342.586V171.257H329.73V175.116H303.453ZM313.521 245.941H346.514V251.095H313.521V245.941ZM313.521 239.071H346.514V243.359H313.521V239.071ZM313.521 230.915H346.514V236.069H313.521V230.915ZM313.521 224.045H346.514V228.771H313.521V224.045ZM313.521 217.176H346.514V221.464H313.521V217.176ZM313.521 209.877H346.514V214.603H313.521V209.877ZM313.521 202.158H346.514V207.312H313.521V202.158ZM313.521 195.288H346.514V200.014H313.521V195.288ZM313.521 187.99H346.514V192.715H313.521V187.99ZM313.521 180.262H346.514V185.417H313.521V180.262Z" fill="#A2A0A0"/>
<path d="M589.452 219.008H585.757L593.436 208.833H649.224V204.881H648.251C647.506 204.881 647.004 203.979 647.004 203.48V200.95C647.004 200.45 647.506 200.363 648.251 200.363H658.195C658.94 200.363 659.548 200.45 659.548 200.95V203.48C659.548 203.979 658.94 204.881 658.195 204.881H656.599V208.833H667.774L675.453 219.008H671.363V263.659H589.437V219.008H589.452ZM655.139 240.487H661.038V226.924H655.139V240.487ZM655.139 259.131H661.038V246.133H655.139V259.131ZM647.019 240.487H652.919V226.924H647.019V240.487ZM646.289 259.131H652.934V246.133H646.289V259.131ZM631.525 240.487H637.425V226.924H631.525V240.487ZM631.525 259.131H637.425V246.133H631.525V259.131ZM623.405 240.487H629.305V226.924H623.405V240.487ZM623.405 259.131H629.305V246.133H623.405V259.131ZM607.911 240.487H614.556V226.924H607.911V240.487ZM607.911 259.131H614.556V246.133H607.911V259.131ZM599.792 240.487H605.691V226.924H599.792V240.487ZM599.792 259.131H605.691V246.133H599.792V259.131Z" fill="#A2A0A0"/>
<path d="M622.68 156.841V264.224H554.043V156.841H565.857V151.759H569.552V136.502H571.027V151.759H587.996V156.841H622.68ZM609.39 250.096H565.842V256.883H609.39V250.096ZM609.39 241.051H565.842V246.697H609.39V241.051ZM609.39 230.312H565.842V237.098H609.39V230.312ZM609.39 221.266H565.842V227.488H609.39V221.266ZM609.39 212.221H565.842V217.867H609.39V212.221ZM609.39 202.611H565.842V208.833H609.39V202.611ZM609.39 192.447H565.842V199.234H609.39V192.447ZM609.39 183.402H565.842V189.624H609.39V183.402ZM609.39 173.792H565.842V180.014H609.39V173.792ZM609.39 163.617H565.842V170.404H609.39V163.617Z" fill="#A2A0A0"/>
<path d="M575.766 175.116V256.67H523.766V175.116H532.716V171.257H535.516V159.67H536.633V171.257H549.489V175.116H575.766ZM565.697 245.941H532.705V251.095H565.697V245.941ZM565.697 239.071H532.705V243.359H565.697V239.071ZM565.697 230.915H532.705V236.069H565.697V230.915ZM565.697 224.045H532.705V228.771H565.697V224.045ZM565.697 217.176H532.705V221.464H565.697V217.176ZM565.697 209.877H532.705V214.603H565.697V209.877ZM565.697 202.158H532.705V207.312H565.697V202.158ZM565.697 195.288H532.705V200.014H565.697V195.288ZM565.697 187.99H532.705V192.715H565.697V187.99ZM565.697 180.262H532.705V185.417H565.697V180.262Z" fill="#A2A0A0"/>
<path opacity="0.79" d="M720 255.67V64.6699L209 64.6699L209 255.67H720Z" fill="#788088"/>
<path d="M172.203 55.6699V264.788H757V55.6699H172.203ZM720.48 255.743H208.771V64.7044H720.48V255.743Z" fill="#E1E1E1"/>
<path d="M206.492 64.1396V256.872H722.766V64.1396H206.492ZM208.751 255.743V64.7043H720.46V255.743H208.751Z" fill="#788088"/>
<path d="M451.763 321.9C453.853 321.06 454.863 318.69 454.023 316.6L446.453 319.64C447.293 321.73 449.663 322.74 451.753 321.9H451.763Z" fill="#B8B8B7"/>
<path d="M446.401 304.79L444.651 300.44L441.401 301.74L443.151 306.09C436.201 309.78 432.941 317.97 435.821 325.16L464.881 313.49C461.991 306.3 453.971 302.65 446.401 304.79Z" fill="#788088" stroke="#E4E5E7" stroke-width="0.75" stroke-miterlimit="10"/>
<path d="M445.929 298.29C445.599 297.72 444.909 297.5 444.369 297.8L403.499 321.65C403.149 320.65 402.129 320.06 401.139 320.32C400.109 320.6 399.509 321.68 399.779 322.76L400.009 323.69L392.609 328.01L394.519 331.33L400.929 327.38L414.039 380.23L419.999 378.63L404.539 325.16L445.579 299.88C446.109 299.57 446.269 298.86 445.939 298.29H445.929Z" fill="#B0B5BA" stroke="#788088" stroke-linecap="round" stroke-linejoin="round"/>
<path d="M412.251 376.99H436.301C439.051 376.99 441.291 379.23 441.291 381.98H409.961V379.28C409.961 378.01 410.991 376.99 412.251 376.99Z" fill="#788088" stroke="#E4E5E7" stroke-width="0.75" stroke-miterlimit="10"/>
<path d="M835.523 0V96.08" stroke="#A2A8AE" stroke-width="0.83" stroke-miterlimit="10"/>
<path d="M835.52 90.3599C819.22 90.3599 806 103.58 806 119.88H865.03C865.03 103.58 851.81 90.3599 835.51 90.3599H835.52Z" fill="#788088" stroke="#D5D8DB" stroke-width="0.75" stroke-miterlimit="10"/>
<path d="M499.523 1.66992V97.7499" stroke="#A2A8AE" stroke-width="0.83" stroke-miterlimit="10"/>
<path d="M499.52 92.0298C483.22 92.0298 470 105.25 470 121.55H529.03C529.03 105.25 515.81 92.0298 499.51 92.0298H499.52Z" fill="#788088" stroke="#D5D8DB" stroke-width="0.75" stroke-miterlimit="10"/>
<g style="mix-blend-mode:multiply" opacity="0.57">
<path d="M445.302 297.74L404.422 322.19C404.422 322.19 402.002 321.06 401.442 322.19C400.882 323.32 395.422 327.08 395.832 327.92C396.242 328.76 402.172 326.59 402.172 326.59L416.002 376.98L432.502 377.49C432.502 377.49 420.332 380.51 420.552 381.24C420.772 381.97 409.962 381.96 409.962 381.96C409.962 381.96 408.652 379.39 409.962 378.3C411.272 377.21 412.602 376.98 412.602 376.98L401.042 327.85L394.512 331.33L392.602 328.01L399.372 323.87C399.372 323.87 400.142 320.3 401.142 320.32C402.142 320.34 403.382 321.38 403.382 321.38L445.302 297.75V297.74Z" fill="#E4E5E7"/>
</g>
<g style="mix-blend-mode:multiply" opacity="0.42">
<path d="M446.104 321.04C446.104 321.04 438.244 321.19 439.934 316.6C441.624 312.01 445.294 306.98 445.294 306.98L443.104 301.39L441.594 302.32L443.104 305.98C443.104 305.98 439.964 307.13 437.934 310.52C435.904 313.91 434.474 317.48 434.784 319.99C435.094 322.5 435.834 325.16 435.834 325.16L446.104 321.03V321.04Z" fill="#B8B8B7"/>
</g>
<g style="mix-blend-mode:multiply" opacity="0.37">
<path d="M495 91.6699C495 91.6699 503.852 92.1463 512 101.198C521.769 112.035 517.66 120.342 517.66 120.342L529 120.67C529 120.67 527.288 107.014 522.424 102.289C517.559 97.5652 511.718 93.635 508.395 92.7815C505.071 91.928 495.01 91.6699 495.01 91.6699H495Z" fill="#B8B8B7"/>
<path d="M495 91.6699C495 91.6699 503.852 92.1463 512 101.198C521.769 112.035 517.66 120.342 517.66 120.342L529 120.67C529 120.67 527.288 107.014 522.424 102.289C517.559 97.5652 511.718 93.635 508.395 92.7815C505.071 91.928 495.01 91.6699 495.01 91.6699H495Z" stroke="#C3C6CA" stroke-miterlimit="10"/>
</g>
<path d="M528.978 378.19H462.626C462.236 378.19 461.883 377.92 461.743 377.52L447.581 333.6C447.358 332.94 447.813 332.24 448.464 332.24H514.815C515.206 332.24 515.559 332.51 515.698 332.91L529.861 376.83C530.084 377.49 529.628 378.19 528.978 378.19Z" fill="#EDEFF0"/>
<path d="M532.005 378.38L516.384 331.85C516.272 331.52 515.993 331.31 515.677 331.31H446.751C446.231 331.31 445.869 331.88 446.045 332.42L461.667 378.95C461.778 379.28 462.057 379.49 462.373 379.49H531.299C531.819 379.49 532.182 378.92 532.005 378.38ZM528.697 377.5H463.237C462.94 377.5 462.67 377.29 462.568 376.98L448.443 334.3C448.276 333.79 448.619 333.25 449.112 333.25H514.572C514.869 333.25 515.138 333.46 515.241 333.77L529.366 376.45C529.533 376.96 529.189 377.5 528.697 377.5Z" fill="#788088"/>
<path d="M484.148 379.97H546.128V380.15C546.128 381.47 545.126 382.53 543.899 382.53H484.148V379.97Z" fill="#788088"/>
<path d="M484.04 382.49L463.311 381.61C462.581 381.58 462 380.93 462 380.15V378.93L486.457 379.97V380.01C486.457 381.42 485.361 382.54 484.04 382.49Z" fill="#979DA3"/>
<path d="M462 378.93H533.497L546.133 380.15L486.457 380.01L462 378.93Z" fill="#D5D8DB"/>
<g style="mix-blend-mode:multiply" opacity="0.37">
<path d="M450.009 332.903C450.009 332.903 514.026 332.378 514.68 332.903C515.334 333.428 516.171 335.985 516.171 335.985L530 378.67C530 378.67 522.632 361.46 504.199 352.573C474.99 338.475 450 332.903 450 332.903H450.009Z" fill="#E4E5E7"/>
</g>
<path d="M299.578 494.735L296.578 480.616V315.947L299.578 306.735" fill="#B0B5BA"/>
<path d="M299.578 494.735L296.578 480.616V315.947L299.578 306.735" stroke="#788088" stroke-linecap="round" stroke-linejoin="round"/>
<path d="M157 494.735L160 480.616V315.947L157 306.735" fill="#B0B5BA"/>
<path d="M157 494.735L160 480.616V315.947L157 306.735" stroke="#788088" stroke-linecap="round" stroke-linejoin="round"/>
<path d="M308.579 301.284H148V315.689H308.579V301.284Z" fill="#D5D8DB" stroke="#788088" stroke-linecap="round" stroke-linejoin="round"/>
<path d="M148 301.284L153.825 297.67H303.848L308.579 301.284" fill="#F7F8F8"/>
<path d="M148 301.284L153.825 297.67H303.848L308.579 301.284" stroke="#788088" stroke-linecap="round" stroke-linejoin="round"/>
<path d="M157 315.735H148V494.735H157V315.735Z" fill="#D5D8DB" stroke="#788088" stroke-linecap="round" stroke-linejoin="round"/>
<path d="M308.578 315.735H299.578V494.735H308.578V315.735Z" fill="#D5D8DB" stroke="#788088" stroke-linecap="round" stroke-linejoin="round"/>
<path d="M187.155 293.55H253.507C253.897 293.55 254.25 293.28 254.39 292.88L268.552 248.96C268.775 248.3 268.32 247.6 267.669 247.6H201.317C200.927 247.6 200.574 247.87 200.435 248.27L186.272 292.19C186.049 292.85 186.504 293.55 187.155 293.55Z" fill="#EDEFF0"/>
<path d="M184.128 293.74L199.749 247.21C199.861 246.88 200.139 246.67 200.455 246.67H269.381C269.902 246.67 270.264 247.24 270.088 247.78L254.466 294.31C254.355 294.64 254.076 294.85 253.76 294.85H184.834C184.313 294.85 183.951 294.28 184.128 293.74ZM187.436 292.86H252.896C253.193 292.86 253.462 292.65 253.565 292.34L267.69 249.66C267.857 249.15 267.513 248.61 267.021 248.61H201.561C201.264 248.61 200.994 248.82 200.892 249.13L186.767 291.81C186.6 292.32 186.943 292.86 187.436 292.86Z" fill="#788088"/>
<path d="M231.984 295.33H170.004V295.51C170.004 296.83 171.007 297.89 172.234 297.89H231.984V295.33Z" fill="#788088"/>
<path d="M232.093 297.85L252.821 296.97C253.552 296.94 254.133 296.29 254.133 295.51V294.29L229.676 295.33V295.37C229.676 296.78 230.772 297.9 232.093 297.85Z" fill="#979DA3"/>
<path d="M254.133 294.29H182.636L170 295.51L229.676 295.37L254.133 294.29Z" fill="#D5D8DB"/>
<path d="M629.274 494.759L626.344 486.59V391.31L629.274 385.979" fill="#B0B5BA"/>
<path d="M629.274 494.759L626.344 486.59V391.31L629.274 385.979" stroke="#788088" stroke-linecap="round" stroke-linejoin="round"/>
<path d="M350.977 494.759L353.907 486.59V391.31L350.977 385.979" fill="#B0B5BA"/>
<path d="M350.977 494.759L353.907 486.59V391.31L350.977 385.979" stroke="#788088" stroke-linecap="round" stroke-linejoin="round"/>
<path d="M637.825 382.979H342.555V391.31H637.825V382.979Z" fill="#D5D8DB" stroke="#788088" stroke-linecap="round" stroke-linejoin="round"/>
<path d="M352 382.98L362.71 380.89H638.57L647.27 382.98" fill="#F7F8F8"/>
<path d="M352 382.98L362.71 380.89H638.57L647.27 382.98" stroke="#788088" stroke-linecap="round" stroke-linejoin="round"/>
<path d="M350.625 391.31H342.555V495H350.625V391.31Z" fill="#D5D8DB" stroke="#788088" stroke-linecap="round" stroke-linejoin="round"/>
<path d="M637.828 391.31H629.758V495H637.828V391.31Z" fill="#D5D8DB" stroke="#788088" stroke-linecap="round" stroke-linejoin="round"/>
<path d="M517.797 425.35C518.437 424.9 520.517 417.17 532.047 415.84C541.357 414.76 562.527 415.84 562.527 415.84L561.377 419.1" fill="#F9FAFA"/>
<path d="M517.797 425.35C518.437 424.9 520.517 417.17 532.047 415.84C541.357 414.76 562.527 415.84 562.527 415.84L561.377 419.1" stroke="#788088" stroke-miterlimit="10"/>
<path d="M573.703 497.5C575.46 497.5 576.883 496.076 576.883 494.32C576.883 492.563 575.46 491.14 573.703 491.14C571.947 491.14 570.523 492.563 570.523 494.32C570.523 496.076 571.947 497.5 573.703 497.5Z" fill="#788088" stroke="#788088" stroke-width="0.71" stroke-miterlimit="10"/>
<path d="M558.072 476.85C558.072 476.85 565.252 480.58 568.212 484.92C571.172 489.26 571.332 493.09 571.332 493.09H576.102C576.102 493.09 576.102 488.34 572.522 482.45C568.942 476.56 568.082 474.64 568.082 474.64L558.062 476.86H558.072V476.85Z" fill="#A2A8AE" stroke="#788088" stroke-width="1.11" stroke-miterlimit="10"/>
<path d="M524.117 497.5C525.874 497.5 527.297 496.076 527.297 494.32C527.297 492.563 525.874 491.14 524.117 491.14C522.361 491.14 520.938 492.563 520.938 494.32C520.938 496.076 522.361 497.5 524.117 497.5Z" fill="#788088" stroke="#788088" stroke-width="0.71" stroke-miterlimit="10"/>
<path d="M605.789 497.5C607.546 497.5 608.969 496.076 608.969 494.32C608.969 492.563 607.546 491.14 605.789 491.14C604.033 491.14 602.609 492.563 602.609 494.32C602.609 496.076 604.033 497.5 605.789 497.5Z" fill="#788088" stroke="#788088" stroke-width="0.71" stroke-miterlimit="10"/>
<path d="M557.338 437.3V449.98C557.338 451.38 558.388 452.51 559.738 452.67V467.5H568.118V452.67C569.468 452.51 570.518 451.37 570.518 449.98V437.3H557.328H557.338Z" fill="#F7F8F8" stroke="#788088" stroke-miterlimit="10"/>
<path d="M575.546 473.13C568.146 469.9 559.726 469.95 552.376 473.28L524.906 485.89C522.236 487.12 520.516 489.79 520.516 492.73V493.08H527.426C527.426 489.98 529.396 487.23 532.326 486.24L554.356 478.78C560.426 476.69 567.016 476.68 573.096 478.73L597.536 486.36C600.476 487.28 602.476 490 602.476 493.08H609.386V492.83C609.386 489.84 607.616 487.13 604.866 485.93L575.546 473.13Z" fill="#A2A8AE" stroke="#788088" stroke-miterlimit="10"/>
<path d="M560.478 467.01H567.318C570.058 467.01 572.278 469.23 572.278 471.97V478.74H555.508V471.97C555.508 469.23 557.728 467.01 560.468 467.01H560.478Z" fill="#B5B9BE" stroke="#788088" stroke-miterlimit="10"/>
<path d="M563.768 439.68L599.458 437.01C602.148 436.93 604.448 435.08 605.098 432.47L609.278 403.52C610.298 396.43 611.928 389.43 614.148 382.62L627.368 341.99C627.858 340.47 626.848 338.88 625.268 338.69L615.678 337.48C604.838 336.11 593.838 336.68 583.188 339.14L581.238 339.59L563.758 439.69H563.768V439.68Z" fill="#B0B5BA" stroke="#788088" stroke-miterlimit="10"/>
<path d="M563.767 439.68L561.367 419.09C561.367 419.09 563.717 413.6 566.857 398.95C569.597 386.16 570.147 356.2 569.887 349.14C569.847 348.15 570.327 347.22 571.137 346.65L581.237 339.58" fill="#F5F6F6"/>
<path d="M563.767 439.68L561.367 419.09C561.367 419.09 563.717 413.6 566.857 398.95C569.597 386.16 570.147 356.2 569.887 349.14C569.847 348.15 570.327 347.22 571.137 346.65L581.237 339.58" stroke="#788088" stroke-miterlimit="10"/>
<path d="M563.728 439.68L517.878 435.14C517.178 435.07 516.648 434.48 516.648 433.78V430.65C516.648 423.35 522.728 417.51 530.028 417.81L561.368 419.09L563.718 439.68H563.728Z" fill="#F5F6F6" stroke="#788088" stroke-miterlimit="10"/>
<path d="M543.738 431.77C542.338 432.11 540.938 431.17 540.618 429.68L535.758 406.86L540.838 405.63L545.698 428.45C546.018 429.94 545.138 431.43 543.738 431.77Z" fill="#656C73" stroke="#656C73" stroke-miterlimit="10"/>
<path d="M564.276 410.97C553.496 409.5 542.346 409.47 531.426 410.91C529.956 411.11 528.816 410.14 528.886 408.7C528.926 407.96 528.956 407.22 528.996 406.48C529.066 405.05 530.316 403.82 531.766 403.79C542.636 403.51 553.726 404.71 564.446 407.35C565.886 407.71 567.026 408.56 566.996 409.19C566.976 409.52 566.966 409.85 566.946 410.19C566.916 410.82 565.716 411.15 564.266 410.97H564.276Z" fill="#788088" stroke="#788088" stroke-miterlimit="10"/>
<g style="mix-blend-mode:multiply" opacity="0.52">
<path d="M576.108 343.18C576.108 343.18 573.148 387.72 570.528 397.49C567.908 407.26 561.368 419.09 561.368 419.09C561.368 419.09 553.018 422.38 547.018 422.82C541.018 423.26 528.348 423.63 525.018 425.34C521.688 427.05 516.648 435.01 516.648 435.01L563.768 439.67L581.248 339.57L576.108 343.16V343.18Z" fill="#E4E5E7"/>
</g>
<g style="mix-blend-mode:multiply" opacity="0.37">
<path d="M581.249 339.59C581.249 339.59 598.849 358.39 595.639 379.13C588.349 426.23 565.049 432.41 565.049 432.41L563.779 439.68L559.469 439.27C559.469 439.27 564.229 443.71 564.959 448.83C565.689 453.95 564.959 467.01 564.959 467.01L559.749 467.5C559.749 467.5 565.569 467.74 567.099 471.71C568.629 475.68 567.099 478.74 567.099 478.74C567.099 478.74 569.159 479.09 571.319 483.85C573.479 488.61 575.029 492.92 574.809 494.32C574.589 495.72 573.729 497.5 573.729 497.5C573.729 497.5 577.769 496.48 576.909 494.32C576.049 492.16 575.719 490.16 575.719 490.16C575.719 490.16 575.349 487.47 573.729 484.58C572.109 481.69 570.359 478.75 570.359 478.75H572.299L571.319 470.75C571.319 470.75 572.939 468.88 570.539 468.2C568.139 467.52 567.329 467.02 567.329 467.02L568.129 452.69C568.129 452.69 570.529 451.6 570.529 450V439.7L598.359 437.11C598.359 437.11 601.649 437.33 603.889 434.87C606.129 432.41 605.489 429.83 605.489 429.83C605.489 429.83 609.949 397.03 612.059 389.83C614.169 382.63 627.389 342 627.389 342C627.389 342 627.149 338.93 625.289 338.7C623.429 338.47 603.879 336.02 595.649 337.15C587.419 338.28 581.259 339.6 581.259 339.6L581.249 339.59Z" fill="#E4E5E7"/>
</g>
<g style="mix-blend-mode:multiply" opacity="0.37">
<path d="M554.566 474.63C554.566 474.63 529.036 485.05 526.916 487.28C524.796 489.51 524.116 493.09 524.116 493.09C524.116 493.09 525.436 495.72 524.116 496.62C522.796 497.52 521.906 496.62 521.906 496.62C521.906 496.62 524.666 498.32 525.826 497.02C526.986 495.72 526.926 492.85 526.926 492.85C526.926 492.85 527.056 488.52 530.716 487.04C534.376 485.56 554.366 478.79 554.366 478.79L554.576 474.64L554.566 474.63Z" fill="#B8B8B7"/>
</g>
<g style="mix-blend-mode:multiply" opacity="0.37">
<path d="M572.289 474.63C572.289 474.63 595.469 483.94 598.129 485.05C600.789 486.16 603.359 487.53 604.569 489.33C605.779 491.13 605.779 493.08 605.779 493.08C605.779 493.08 604.549 495.26 605.779 496.38C607.009 497.5 605.779 497.5 605.779 497.5C605.779 497.5 602.709 498.35 602.599 495.71C602.489 493.07 602.599 491.13 602.599 491.13C602.599 491.13 602.049 488.36 595.639 486.06C589.229 483.76 572.289 478.74 572.289 478.74V474.62V474.63Z" fill="#B8B8B7"/>
</g>
<path d="M961 378.69C961.33 379.19 973 416.86 975.67 429.69C978.34 442.52 980 469.36 980 469.36H987.33C987.33 469.36 984.5 450.03 978 427.53C971.5 405.03 961 378.7 961 378.7V378.69Z" fill="#D8DBDD"/>
<path d="M970.172 354.85C970.172 354.85 977.342 408.86 978.342 417.86C979.342 426.86 982.012 473.03 982.012 473.03H988.802C988.802 473.03 984.342 428.7 981.012 408.7C977.682 388.7 970.182 354.86 970.182 354.86L970.172 354.85Z" fill="#C2C6C9"/>
<path d="M983.5 349.67V476.36L990.67 475.36L983.5 349.67Z" fill="#D8DBDD"/>
<path d="M1002 375.76L994.329 482.89L988.789 483.69L1002 375.76Z" fill="#E4E5E7"/>
<path d="M1009.33 397.86L989.688 476.36L998.828 479.15L1009.33 397.86Z" fill="#8C939A"/>
<path d="M990.668 357.87L984.828 478.02H996.498L990.668 357.87Z" fill="#8D9297"/>
<path d="M999.86 492.34H982.71C981.17 492.34 979.88 491.18 979.71 489.65L977 465.01C976.91 464.16 977.57 463.42 978.43 463.42H1004.14C1004.99 463.42 1005.66 464.16 1005.57 465.01L1002.86 489.65C1002.69 491.18 1001.4 492.34 999.86 492.34Z" fill="#788088"/>
<g style="mix-blend-mode:multiply" opacity="0.25">
<path d="M983.721 463.29C983.721 463.29 992.541 465.7 995.621 473.71C997.541 478.7 995.621 492.17 995.621 492.17C995.621 492.17 1001.36 493.09 1002.22 491.31C1003.08 489.53 1003.25 486.15 1003.25 486.15L1005.37 466.84C1005.37 466.84 1006.92 463.27 1002.38 463.42C997.291 463.59 983.711 463.29 983.711 463.29H983.721Z" fill="#787877"/>
</g>
<g style="mix-blend-mode:multiply" opacity="0.31">
<path d="M970.172 354.85C970.172 354.85 981.632 421.37 982.142 426.7C982.652 432.03 983.502 450.94 983.502 450.94V424.9L970.172 354.84V354.85Z" fill="#B8B8B7"/>
</g>
<g style="mix-blend-mode:multiply" opacity="0.31">
<path d="M983.641 352.12C983.641 352.12 985.411 412.43 985.751 419.65C986.091 426.87 984.691 463.43 984.691 463.43L985.581 462.61L987.081 419.49L983.641 352.13V352.12Z" fill="#B8B8B7"/>
</g>
<g style="mix-blend-mode:multiply" opacity="0.31">
<path d="M990.674 357.87L991.294 454.56V463.26H1000.88C1000.88 463.26 1009.49 398.11 1009.33 398.63C1009.17 399.15 997.444 461.01 997.444 461.01L995.614 459.81L995.394 453.56L996.844 447.76L1001.99 375.77L994.924 445.63L990.664 357.89V357.87H990.674Z" fill="#B8B8B7"/>
</g>
<path d="M1020.97 495.68L1017 487.28V392L1020.97 386.67" fill="#B0B5BA"/>
<path d="M1020.97 495.68L1017 487.28V392L1020.97 386.67" stroke="#788088" stroke-linecap="round" stroke-linejoin="round"/>
<path d="M1086.34 388.83H1020.97V495.68H1086.34V388.83Z" fill="#E4E5E7" stroke="#788088" stroke-linecap="round" stroke-linejoin="round"/>
<path d="M1079.38 399.73H1028.94V488.95H1079.38V399.73Z" fill="#E4E5E7" stroke="#788088" stroke-linecap="round" stroke-linejoin="round"/>
<path d="M1028.94 418.22H1079.38" stroke="#788088" stroke-linecap="round" stroke-linejoin="round"/>
<path d="M1028.94 438.84H1079.38" stroke="#788088" stroke-linecap="round" stroke-linejoin="round"/>
<path d="M1064.16 407.07H1044.16V408.85H1064.16V407.07Z" fill="#788088"/>
<path d="M1064.16 427.65H1044.16V429.43H1064.16V427.65Z" fill="#788088"/>
<path d="M1064.16 448.26H1044.16V450.04H1064.16V448.26Z" fill="#788088"/>
<g style="mix-blend-mode:multiply" opacity="0.29">
<path d="M1020.97 437.39L1086.35 495.68L1086.08 393L1020.97 393.18V437.39Z" fill="#CCCFD2"/>
</g>
<path d="M152.523 1.66992V97.7499" stroke="#A2A8AE" stroke-width="0.83" stroke-miterlimit="10"/>
<path d="M152.52 92.0298C136.22 92.0298 123 105.25 123 121.55H182.03C182.03 105.25 168.81 92.0298 152.51 92.0298H152.52Z" fill="#788088" stroke="#D5D8DB" stroke-width="0.75" stroke-miterlimit="10"/>
<path d="M1056.06 178.77L1053.45 213.36H1058.68L1056.06 178.77Z" fill="#E4E5E7" stroke="#E4E5E7" stroke-width="0.15" stroke-linecap="round" stroke-linejoin="round"/>
<path d="M1061.29 178.77L1058.68 213.36H1063.91L1061.29 178.77Z" fill="#656C73" stroke="#656C73" stroke-width="0.15" stroke-linecap="round" stroke-linejoin="round"/>
<path d="M1066.53 178.77L1063.91 213.36H1069.14L1066.53 178.77Z" fill="#656C73" stroke="#656C73" stroke-width="0.15" stroke-linecap="round" stroke-linejoin="round"/>
<path d="M1072.62 178.85L1070 213.44H1075.23L1072.62 178.85Z" fill="#D4D4D6" stroke="#9D9D9C" stroke-width="0.15" stroke-linecap="round" stroke-linejoin="round"/>
<path d="M1069.14 167.44L1066.53 213.36H1071.76L1069.14 167.44Z" fill="#C5C9CD" stroke="#788088" stroke-width="0.17" stroke-linecap="round" stroke-linejoin="round"/>
<path d="M1064.92 158.67L1062.3 214.02H1067.54L1064.92 158.67Z" fill="#F4F5F6" stroke="#788088" stroke-width="0.19" stroke-linecap="round" stroke-linejoin="round"/>
<path d="M1059.55 165.11L1056.93 214.03H1062.17L1059.55 165.11Z" fill="#C5C9CD" stroke="#788088" stroke-width="0.17" stroke-linecap="round" stroke-linejoin="round"/>
<path d="M1052.6 213.36H1077.02V225.57C1077.02 232.31 1071.55 237.78 1064.81 237.78C1058.07 237.78 1052.6 232.31 1052.6 225.57V213.36Z" fill="#788088" stroke="#788088" stroke-width="0.88" stroke-linecap="round" stroke-linejoin="round"/>
<path d="M1045.27 236.22H998.598C998.598 236.22 998.008 234.51 998.008 232.22C998.008 229.62 998.598 228.22 998.598 228.22H1045.27C1045.27 228.22 1046.01 230.13 1046.01 232.22C1046.01 234.06 1045.27 236.22 1045.27 236.22Z" fill="#C3C6CA" stroke="#788088" stroke-width="0.64" stroke-miterlimit="10"/>
<path d="M1095.3 293.519L1095 261.187C1095 261.187 1096.71 260.771 1099 260.761C1101.6 260.749 1103 261.152 1103 261.152L1103.3 293.484C1103.3 293.484 1101.4 294.005 1099.31 294.014C1097.47 294.022 1095.3 293.519 1095.3 293.519Z" fill="#C3C6CA" stroke="#788088" stroke-width="0.64" stroke-miterlimit="10"/>
<path d="M1045.27 227.94H998.598C998.598 227.94 998.008 226.23 998.008 223.94C998.008 221.34 998.598 219.94 998.598 219.94H1045.27C1045.27 219.94 1046.01 221.85 1046.01 223.94C1046.01 225.78 1045.27 227.94 1045.27 227.94Z" fill="#C3C6CA" stroke="#788088" stroke-width="0.64" stroke-miterlimit="10"/>
<path d="M1103.58 293.482L1103.29 261.151C1103.29 261.151 1104.99 260.734 1107.28 260.724C1109.88 260.713 1111.29 261.115 1111.29 261.115L1111.58 293.447C1111.58 293.447 1109.68 293.968 1107.59 293.977C1105.75 293.986 1103.58 293.482 1103.58 293.482Z" fill="#C3C6CA" stroke="#788088" stroke-width="0.64" stroke-miterlimit="10"/>
<path d="M1045.27 219.66H998.598C998.598 219.66 998.008 217.95 998.008 215.66C998.008 213.06 998.598 211.66 998.598 211.66H1045.27C1045.27 211.66 1046.01 213.57 1046.01 215.66C1046.01 217.5 1045.27 219.66 1045.27 219.66Z" fill="#C3C6CA" stroke="#788088" stroke-width="0.64" stroke-miterlimit="10"/>
<path d="M1111.86 293.446L1111.57 261.114C1111.57 261.114 1113.27 260.698 1115.56 260.688C1118.16 260.676 1119.57 261.079 1119.57 261.079L1119.86 293.41C1119.86 293.41 1117.96 293.932 1115.87 293.941C1114.03 293.949 1111.86 293.446 1111.86 293.446Z" fill="#C3C6CA" stroke="#788088" stroke-width="0.64" stroke-miterlimit="10"/>
<path d="M1144 233.645H992V242.515H1144V233.645Z" fill="#E4E5E7" stroke="#788088" stroke-linecap="round" stroke-linejoin="round"/>
<path d="M1127.56 246.945H1009L992 242.515H1144L1127.56 246.945Z" fill="#8C939A" stroke="#788088" stroke-width="0.83" stroke-linecap="round" stroke-linejoin="round"/>
<path d="M1144 293.645H992V302.515H1144V293.645Z" fill="#E4E5E7" stroke="#788088" stroke-linecap="round" stroke-linejoin="round"/>
<path d="M1127.56 306.945H1009L992 302.515H1144L1127.56 306.945Z" fill="#8C939A" stroke="#788088" stroke-width="0.83" stroke-linecap="round" stroke-linejoin="round"/>
<g style="mix-blend-mode:multiply">
<path d="M998.664 217.44H1045.67L1045.26 219.66H998.594L998.664 217.44Z" fill="#D4D4D6"/>
</g>
<g style="mix-blend-mode:multiply">
<path d="M1113.78 261.15L1114.08 293.717L1111.86 293.443L1111.56 261.111L1113.78 261.15Z" fill="#D4D4D6"/>
</g>
<g style="mix-blend-mode:multiply">
<path d="M998.594 225.56H1046L1045.26 228.22H998.594V225.56Z" fill="#D4D4D6"/>
</g>
<g style="mix-blend-mode:multiply">
<path d="M1105.66 261.137L1105.97 293.982L1103.3 293.481L1103 261.149L1105.66 261.137Z" fill="#D4D4D6"/>
</g>
<g style="mix-blend-mode:multiply">
<path d="M998 232.22H1046L1045.67 234.22L998 233.68V232.22Z" fill="#D4D4D6"/>
</g>
<g style="mix-blend-mode:multiply">
<path d="M1099 260.755L1099.31 294.009L1097.3 293.789L1097.54 260.762L1099 260.755Z" fill="#D4D4D6"/>
</g>
<g style="mix-blend-mode:multiply">
<path d="M1052.6 213.36L1066.53 215.66C1066.53 215.66 1073.5 217.44 1072.62 224.86C1072.09 229.37 1065.22 233.83 1063.91 234.23C1062.6 234.63 1073.41 234.23 1073.41 234.23C1073.41 234.23 1077.01 230.21 1077.01 226.9V213.36H1052.59H1052.6Z" fill="#C3C6CA"/>
</g>
<g style="mix-blend-mode:multiply" opacity="0.46">
<path d="M1059.55 165.11V213.05L1075.23 212.61L1072.62 178.85V212.1L1071.63 211.15L1069.14 167.44L1069.01 211.64L1067.39 211.66L1064.91 158.67V212.01H1062.06L1059.55 165.11Z" fill="#C3C6CA"/>
</g>
<path d="M870.038 298.617C868.668 296.837 868.998 294.277 870.778 292.897L875.758 299.357C873.978 300.727 871.418 300.397 870.038 298.617Z" fill="#E4E5E7"/>
<path d="M883.337 286.588L887.048 283.728L889.188 286.498L885.477 289.358C889.587 296.068 888.257 304.778 882.117 309.508L862.997 284.708C869.137 279.978 877.897 280.898 883.337 286.588Z" fill="#788088" stroke="#E4E5E7" stroke-width="0.75" stroke-miterlimit="10"/>
<path d="M884.497 282.438C885.007 282.028 885.737 282.078 886.127 282.548L916.377 320.588C916.797 319.748 917.737 319.288 918.637 319.528C919.667 319.808 920.267 320.888 919.997 321.968L919.397 324.388L923.438 329.458L920.457 331.868L918.267 328.978L905.747 379.438L899.787 377.838L915.117 324.818L884.257 284.058C883.877 283.578 883.987 282.858 884.497 282.438Z" fill="#B0B5BA" stroke="#788088" stroke-linecap="round" stroke-linejoin="round"/>
<g style="mix-blend-mode:multiply" opacity="0.57">
<path d="M884.494 282.438C884.494 282.438 892.094 293.317 901.434 305.317C910.774 317.317 916.284 323.917 917.024 323.917C917.764 323.917 916.454 327.837 914.614 332.747C912.774 337.657 903.024 371.587 903.564 373.457C904.104 375.327 904.774 375.777 904.774 375.777C904.774 375.777 896.104 376.607 893.604 378.977C891.104 381.347 892.934 381.317 892.934 381.317L880.234 381.467C880.234 381.467 882.084 377.507 884.004 376.997C885.924 376.487 900.144 376.487 900.144 376.487L915.084 324.817L883.994 284.097L884.464 282.438H884.494Z" fill="#BABDC0"/>
</g>
<g style="mix-blend-mode:multiply" opacity="0.38">
<path d="M881.365 284.837C881.365 284.837 884.065 294.107 880.265 296.547C876.465 298.987 869.195 290.687 869.195 290.687C869.195 290.687 875.055 297.367 873.255 298.007C871.455 298.647 870.035 298.607 870.035 298.607C870.035 298.607 869.965 299.647 871.785 299.917C873.605 300.187 874.935 300.197 874.935 300.197L882.105 309.497C882.105 309.497 887.635 305.327 887.625 300.197C887.615 295.067 885.465 289.347 885.465 289.347L887.085 288.097L884.965 285.317L883.455 286.147L881.365 284.827V284.837Z" fill="#C3C6CA"/>
</g>
<path d="M922.719 494.759L919.789 486.59V391.31L922.719 385.979" fill="#B0B5BA"/>
<path d="M922.719 494.759L919.789 486.59V391.31L922.719 385.979" stroke="#788088" stroke-linecap="round" stroke-linejoin="round"/>
<path d="M644.422 494.759L647.352 486.59V391.31L644.422 385.979" fill="#B0B5BA"/>
<path d="M644.422 494.759L647.352 486.59V391.31L644.422 385.979" stroke="#788088" stroke-linecap="round" stroke-linejoin="round"/>
<path d="M931.27 382.979H636V391.31H931.27V382.979Z" fill="#D5D8DB" stroke="#788088" stroke-linecap="round" stroke-linejoin="round"/>
<path d="M636 382.98L646.71 380.89H922.57L931.27 382.98" fill="#F7F8F8"/>
<path d="M636 382.98L646.71 380.89H922.57L931.27 382.98" stroke="#788088" stroke-linecap="round" stroke-linejoin="round"/>
<path d="M644.07 391.31H636V495H644.07V391.31Z" fill="#D5D8DB" stroke="#788088" stroke-linecap="round" stroke-linejoin="round"/>
<path d="M931.273 391.31H923.203V495H931.273V391.31Z" fill="#D5D8DB" stroke="#788088" stroke-linecap="round" stroke-linejoin="round"/>
<path d="M794.817 378.18H769.047L771.187 369.27H792.667L794.817 378.18Z" fill="#C3C6CA" stroke="#788088" stroke-miterlimit="10"/>
<path d="M844.14 286.67H724.53C723.133 286.67 722 287.803 722 289.2V366.74C722 368.137 723.133 369.27 724.53 369.27H844.14C845.537 369.27 846.67 368.137 846.67 366.74V289.2C846.67 287.803 845.537 286.67 844.14 286.67Z" fill="#CCCFD2" stroke="#788088" stroke-miterlimit="10"/>
<path d="M841.248 290.91H727.049C726.276 290.91 725.648 291.606 725.648 292.466V362.354C725.648 363.213 726.276 363.91 727.049 363.91H841.248C842.021 363.91 842.648 363.213 842.648 362.354V292.466C842.648 291.606 842.021 290.91 841.248 290.91Z" fill="#A2A8AE" stroke="#788088" stroke-miterlimit="10"/>
<g style="mix-blend-mode:multiply" opacity="0.38">
<path d="M730.938 286.67H842.088C842.088 286.67 845.907 286.67 846.417 287.41C846.927 288.15 847.167 292.9 847.167 292.9L847.048 367.47C847.048 367.47 845.827 369.27 844.637 369.27C843.447 369.27 814.778 369.21 814.778 369.21C814.778 369.21 814.778 335.9 796.778 318.07C778.778 300.24 730.948 286.68 730.948 286.68H730.938V286.67Z" fill="#C3C6CA"/>
</g>
<path opacity="0.73" d="M730.94 286.67C730.94 286.67 835.56 288.45 840.29 288.86C845.75 289.32 845 298.16 845 298.16L843.68 369.13L844.89 368.87C845.76 368.69 846.38 367.92 846.38 367.04L846.66 289.21C846.66 289.21 847.16 286.65 842.08 286.68C839.55 286.69 730.93 286.68 730.93 286.68H730.94V286.67Z" fill="#788088"/>
<g style="mix-blend-mode:multiply" opacity="0.38">
<path d="M771.188 369.27C771.188 369.27 786.537 368.74 785.667 372.93C784.917 376.56 783.538 377.9 783.538 377.9L794.818 378.18L792.667 369.27H771.188Z" fill="#C3C6CA"/>
</g>
<path d="M909.038 376.67H884.988C882.238 376.67 879.998 378.91 879.998 381.66H911.328V378.96C911.328 377.69 910.298 376.67 909.038 376.67Z" fill="#788088" stroke="#E4E5E7" stroke-width="0.75" stroke-miterlimit="10"/>
<path d="M758.528 434.534H755.198L750.268 410.784C749.828 408.664 751.448 406.684 753.608 406.684H758.528V434.534Z" fill="#788088" stroke="#788088" stroke-miterlimit="10"/>
<path d="M810.227 437.264H813.557L818.487 413.514C818.927 411.394 817.307 409.414 815.147 409.414H810.227V437.264Z" fill="#788088" stroke="#788088" stroke-miterlimit="10"/>
<path d="M774.524 505.803C776.28 505.803 777.704 504.38 777.704 502.623C777.704 500.867 776.28 499.443 774.524 499.443C772.767 499.443 771.344 500.867 771.344 502.623C771.344 504.38 772.767 505.803 774.524 505.803Z" fill="#788088" stroke="#61615F" stroke-width="0.71" stroke-miterlimit="10"/>
<path d="M790.147 485.144C790.147 485.144 782.967 488.874 780.007 493.214C777.047 497.554 776.887 501.384 776.887 501.384H772.117C772.117 501.384 772.117 496.634 775.697 490.744C779.277 484.854 780.137 482.934 780.137 482.934L790.157 485.154L790.147 485.144Z" fill="#A2A8AE" stroke="#788088" stroke-miterlimit="10"/>
<path d="M743.602 505.803C745.358 505.803 746.782 504.38 746.782 502.623C746.782 500.867 745.358 499.443 743.602 499.443C741.846 499.443 740.422 500.867 740.422 502.623C740.422 504.38 741.846 505.803 743.602 505.803Z" fill="#788088" stroke="#61615F" stroke-width="0.71" stroke-miterlimit="10"/>
<path d="M825.274 505.803C827.03 505.803 828.454 504.38 828.454 502.623C828.454 500.867 827.03 499.443 825.274 499.443C823.517 499.443 822.094 500.867 822.094 502.623C822.094 504.38 823.517 505.803 825.274 505.803Z" fill="#788088" stroke="#61615F" stroke-width="0.71" stroke-miterlimit="10"/>
<path d="M776.823 445.604V458.284C776.823 459.684 777.873 460.814 779.223 460.974V475.804H787.603V460.974C788.953 460.814 790.003 459.674 790.003 458.284V445.604H776.812H776.823Z" fill="#F7F8F8" stroke="#788088" stroke-miterlimit="10"/>
<path d="M795.03 481.424C787.63 478.194 779.21 478.244 771.86 481.574L744.39 494.184C741.72 495.414 740 498.084 740 501.024V501.374H746.91C746.91 498.274 748.88 495.524 751.81 494.534L773.84 487.074C779.91 484.984 786.5 484.974 792.58 487.024L817.02 494.654C819.96 495.574 821.96 498.294 821.96 501.374H828.87V501.124C828.87 498.134 827.1 495.424 824.35 494.224L795.03 481.424Z" fill="#A2A8AE" stroke="#788088" stroke-miterlimit="10"/>
<path d="M779.962 475.313H786.802C789.542 475.313 791.762 477.533 791.762 480.273V487.043H774.992V480.273C774.992 477.533 777.212 475.313 779.952 475.313H779.962Z" fill="#B5B9BE" stroke="#788088" stroke-miterlimit="10"/>
<path d="M822.27 344.943L803.76 342.143C790.95 340.203 777.92 340.203 765.11 342.143L746.6 344.943C745.56 345.103 744.83 346.053 744.95 347.103L755.45 436.163H755.51C756.32 441.543 768.96 445.813 784.43 445.813C799.9 445.813 812.54 441.543 813.35 436.163H813.41L823.91 347.103C824.03 346.053 823.3 345.103 822.26 344.943H822.27Z" fill="#B0B5BA" stroke="#788088" stroke-miterlimit="10"/>
<g style="mix-blend-mode:multiply" opacity="0.37">
<path d="M774.521 482.923C774.521 482.923 747.811 494.013 746.791 495.343C745.771 496.673 743.231 497.483 743.611 499.433C743.991 501.383 742.211 501.373 742.211 501.373C742.211 501.373 743.611 502.223 743.611 504.013V505.803C743.611 505.803 743.021 507.443 744.951 505.503C746.881 503.563 746.921 501.373 746.921 501.373C746.921 501.373 745.901 497.013 750.211 495.313C754.521 493.613 774.851 487.073 774.851 487.073L774.521 482.923Z" fill="#B8B8B7"/>
</g>
<g style="mix-blend-mode:multiply" opacity="0.37">
<path d="M779.761 487.043C779.761 487.043 778.991 487.623 777.711 492.153C776.431 496.683 774.531 499.433 774.531 499.433C774.531 499.433 774.401 500.553 774.531 502.613C774.661 504.673 773.141 505.473 773.141 505.473C773.141 505.473 775.341 506.713 776.451 505.143C777.561 503.573 776.821 499.423 776.821 499.423C776.821 499.423 778.301 494.413 781.141 491.793C783.981 489.173 786.961 487.033 786.961 487.033H779.761V487.043Z" fill="#B8B8B7"/>
</g>
<g style="mix-blend-mode:multiply" opacity="0.37">
<path d="M791.768 482.923C791.768 482.923 808.818 490.733 813.398 492.153C817.978 493.573 822.938 495.533 823.788 498.453C824.638 501.373 823.928 505.503 823.928 505.503C823.928 505.503 821.968 500.243 821.678 499.433C821.388 498.623 821.928 496.193 816.288 494.423C810.648 492.653 792.578 487.023 792.578 487.023L791.758 482.923H791.768Z" fill="#B8B8B7"/>
</g>
</svg>
