<?xml version="1.0" encoding="UTF-8"?>
<svg id="Layer_1" xmlns="http://www.w3.org/2000/svg" xmlns:xlink="http://www.w3.org/1999/xlink" version="1.1" viewBox="0 0 954 554">
  <!-- Generator: Adobe Illustrator 29.6.1, SVG Export Plug-In . SVG Version: 2.1.1 Build 9)  -->
  <defs>
    <style>
      .st0, .st1, .st2, .st3, .st4, .st5, .st6, .st7, .st8, .st9, .st10, .st11, .st12, .st13, .st14, .st15, .st16, .st17, .st18, .st19, .st20, .st21, .st22, .st23, .st24, .st25, .st26, .st27, .st28, .st29, .st30, .st31, .st32, .st33 {
        fill: none;
      }

      .st1 {
        stroke-dasharray: 30.49;
      }

      .st1, .st4, .st5, .st34, .st35, .st7, .st36, .st8, .st9, .st37, .st38, .st39, .st40, .st41, .st42, .st10, .st11, .st12, .st13, .st14, .st15, .st43, .st17, .st18, .st44, .st45, .st46, .st19, .st20, .st47, .st21, .st22, .st23, .st48, .st24, .st25, .st49, .st50, .st26, .st51, .st52, .st27, .st53, .st54, .st29, .st30, .st31, .st55, .st56 {
        stroke-linecap: round;
        stroke-linejoin: round;
      }

      .st1, .st4, .st5, .st7, .st8, .st9, .st10, .st11, .st12, .st15, .st17, .st18, .st19, .st20, .st21, .st22, .st25, .st26, .st27, .st29, .st30, .st31 {
        stroke: #eeeff0;
      }

      .st1, .st4, .st5, .st7, .st8, .st9, .st10, .st11, .st15, .st17, .st18, .st19, .st20, .st22, .st25, .st26, .st27, .st29, .st30, .st31 {
        stroke-width: 1.98px;
      }

      .st2, .st3, .st6, .st57, .st58, .st59, .st60, .st61, .st16, .st62, .st63, .st64, .st65, .st66, .st67, .st68, .st69, .st70, .st71, .st72, .st28, .st73, .st74, .st75, .st76, .st32, .st33 {
        stroke-miterlimit: 10;
      }

      .st2, .st65, .st71 {
        stroke: #d8dbdd;
      }

      .st3, .st6, .st57, .st58, .st39, .st12, .st60, .st62, .st46, .st21, .st23, .st48, .st69, .st49, .st50, .st70, .st28, .st73, .st76, .st56, .st32 {
        stroke-width: 2px;
      }

      .st3, .st58, .st39, .st41, .st42, .st60, .st61, .st16, .st44, .st45, .st63, .st46, .st66, .st23, .st69, .st49, .st50, .st70, .st51, .st73, .st75, .st76, .st56 {
        stroke: #666c73;
      }

      .st4 {
        stroke-dasharray: 13.7 .77 1.55 27.4 78.28 13.7;
      }

      .st5 {
        stroke-dasharray: 84.17 .33 .65 16.3 .33 84.17;
      }

      .st77 {
        fill: #c4c6cb;
      }

      .st34 {
        fill: #e4e5e7;
      }

      .st34, .st36, .st57, .st59, .st13, .st43, .st47, .st67, .st24, .st28, .st53, .st54, .st55, .st33 {
        stroke: #a2a8ae;
      }

      .st35 {
        stroke-width: .39px;
      }

      .st35, .st43, .st62, .st67, .st75 {
        fill: #dadadc;
      }

      .st35, .st64, .st52 {
        stroke: #788088;
      }

      .st6, .st62 {
        stroke: #545a5f;
      }

      .st7 {
        stroke-dasharray: 1.56 .09 .18 12.18 .09 1.56;
      }

      .st36, .st73 {
        fill: #d5d6d9;
      }

      .st8 {
        stroke-dasharray: 8.65 .49 .99 24.7 .49 8.65;
      }

      .st9 {
        stroke-dasharray: 85.89 .24 .48 12.27 .25 85.89;
      }

      .st57, .st59 {
        fill: #d4d4d6;
      }

      .st37, .st41, .st44 {
        stroke-width: 2.68px;
      }

      .st37, .st44, .st63, .st68, .st50, .st71, .st78 {
        fill: #eeeff0;
      }

      .st37, .st68, .st32 {
        stroke: #c4c6cb;
      }

      .st38 {
        fill: #545a5f;
        stroke: #babbc0;
        stroke-width: .42px;
      }

      .st58 {
        fill: #c0c1c5;
      }

      .st39, .st45, .st65, .st72, .st74 {
        fill: #fafbfb;
      }

      .st40 {
        fill: #cccfd2;
        stroke: #7b7e84;
      }

      .st41, .st46, .st48 {
        fill: #bec1c5;
      }

      .st42 {
        fill: #fff;
      }

      .st10 {
        stroke-dasharray: 1.33 .08 .15 9.9 7.62 1.33;
      }

      .st11 {
        stroke-dasharray: 86.97;
      }

      .st59, .st33 {
        stroke-width: .71px;
      }

      .st79 {
        fill: #788088;
      }

      .st12 {
        stroke-dasharray: 9.37 .07 .15 8.25 1.76 9.37;
      }

      .st13, .st43, .st47, .st53 {
        stroke-width: .54px;
      }

      .st60, .st49 {
        fill: #b0b4ba;
      }

      .st61, .st56 {
        fill: #d8dbdd;
      }

      .st14 {
        stroke: #61615f;
      }

      .st15 {
        stroke-dasharray: 17 .96 1.92 17 97.13 17;
      }

      .st16 {
        stroke-width: .88px;
      }

      .st80 {
        clip-path: url(#clippath-1);
      }

      .st17 {
        stroke-dasharray: 25.8 2.15 37.63 2.12 4.25 25.8;
      }

      .st45 {
        stroke-width: 2.94px;
      }

      .st64 {
        fill: #eaeaeb;
      }

      .st66, .st69, .st81 {
        fill: #a2a8ae;
      }

      .st66, .st75 {
        stroke-width: 1.93px;
      }

      .st19, .st20 {
        stroke-dasharray: 100 35 100;
      }

      .st20 {
        isolation: isolate;
      }

      .st20, .st82 {
        opacity: .97;
      }

      .st47 {
        fill: #aaa7a7;
      }

      .st83 {
        fill: #85868a;
      }

      .st22 {
        stroke-dasharray: 17.27 .99 1.97 49.33 .99 17.27;
      }

      .st48 {
        stroke: #8f9197;
      }

      .st84 {
        fill: #d1d2d6;
      }

      .st25 {
        stroke-dasharray: .61 .03 .07 4.74 4.92 .61;
      }

      .st70 {
        fill: #f8f8f9;
      }

      .st26 {
        stroke-dasharray: .67 .04 .08 5.37 .04 .67;
      }

      .st51 {
        fill: #ebebec;
      }

      .st52 {
        fill: #61615f;
        stroke-width: .43px;
      }

      .st72, .st74 {
        stroke: #fafbfb;
      }

      .st27 {
        stroke-dasharray: 37.63 2.12 4.25 25.8 2.15 37.63;
      }

      .st53 {
        fill: #757372;
      }

      .st54 {
        fill: #9ca0a7;
      }

      .st29 {
        stroke-dasharray: 98.76 1.98 34.57 1.98 3.95;
      }

      .st74 {
        stroke-width: .79px;
      }

      .st76 {
        fill: #fefefe;
      }

      .st30 {
        stroke-dasharray: 30 35 100;
      }

      .st31 {
        stroke-dasharray: 41.7;
      }

      .st55 {
        fill: #d8d9dc;
      }

      .st85 {
        clip-path: url(#clippath);
      }
    </style>
    <clipPath id="clippath">
      <circle class="st0" cx="306.97" cy="217.27" r="26.28"/>
    </clipPath>
    <clipPath id="clippath-1">
      <path class="st0" d="M589.95,183.42v223.31h285.6v-223.31h-285.6ZM801.71,366.02h0c0,6.29,0,11.83-.26,16.84-.01.24-.03.46-.04.7s-.03.47-.04.71c-.04.56-.07,1.13-.11,1.68v.09c-.19,2.41-.45,4.71-.83,6.89l-.03.02c-1.94-.07-3.86-.28-5.71-.62l-.58-.11c-3.07-.61-6.05-1.58-8.86-2.89-2.19,2.42-4.67,4.56-7.38,6.37-1.94,1.3-4,2.39-6.14,3.32,4.18-14.51,3.97-30.54,3.96-30.81,0-.52.37-.96.89-1.01l22.73-2.59,1.31-.15c.29-.04.57.06.78.25s.33.46.33.75v.58l-.02-.02h0Z"/>
    </clipPath>
  </defs>
  <g id="albero2">
    <path class="st44" d="M272.35,322.81c5.03-5.45,8.08-12.52,8.08-20.25,0-15.08-11.55-27.65-26.9-30.54-1.67-15.76-16.01-28.07-33.45-28.07-1.37,0-2.71.08-4.04.23-5.69-9.73-16.8-16.34-29.58-16.34-6.09,0-11.8,1.51-16.73,4.14-5.17-3.92-11.78-6.28-18.98-6.28-9.83,0-18.55,4.38-24.02,11.15-.95-.1-1.9-.15-2.88-.15-11.54,0-21.3,7.06-24.52,16.78-.38-.02-.75-.03-1.13-.03-13.75,0-24.98,10.03-25.62,22.64-9.22,5.7-15.29,15.43-15.29,26.47,0,2.47.31,4.88.89,7.19-3.99,3.52-6.48,8.49-6.48,14,0,7.19,4.23,13.45,10.51,16.78-2.25,4.13-3.52,8.79-3.52,13.73,0,12.19,7.71,22.7,18.85,27.59-.12.84-.19,1.7-.19,2.57,0,10.67,9.33,19.33,20.85,19.33,1.62,0,3.2-.18,4.71-.5,2.72,10.43,12.85,18.18,24.93,18.18,5.31,0,10.25-1.5,14.34-4.06,3.43,2.78,7.91,4.48,12.82,4.48,3.75,0,7.24-1,10.22-2.7,5.82,4.83,13.51,7.77,21.94,7.77,11.48,0,21.58-5.45,27.47-13.71.69.06,1.39.1,2.1.1,8.49,0,15.79-4.7,19.04-11.45,15.57-2.72,27.34-15.39,27.34-30.61,0-1.63-.14-3.23-.4-4.79,7.9-5.7,12.99-14.6,12.99-24.6,0-1.1-.06-2.19-.18-3.26,1.28-1.82,2.03-4,2.03-6.33,0-3.88-2.06-7.32-5.21-9.43v-.03h.01Z"/>
    <path class="st41" d="M201.64,396.9l-24.9-7.82s-5.21,28.96-14.76,22.54c-1.68-1.13-16.62-24.49-17.5-25.82-2,1.4-9.29,5.26-9.29,5.26,3.79,8.07,15.05,44.28,15.77,54.54,1.47,20.92-13.22,37.86-13.22,37.86h55.12s-11.49-8.31-10.9-40.41c.58-32.11,19.67-46.16,19.67-46.16h0Z"/>
    <path class="st37" d="M167.17,380.32c-3.01,7.13.33,15.35,7.46,18.36,4.87,2.06,10.26,1.14,14.14-1.92.76,3.75,3.29,7.06,7.08,8.66,6.09,2.57,13.12-.28,15.69-6.38.49-1.17.78-2.37.89-3.57,5.42-.05,10.55-3.25,12.79-8.56"/>
    <path class="st44" d="M117,393.54c1.12,4.63,5.79,7.48,10.42,6.35,1.93-.47,3.54-1.55,4.69-2.99,1.78,1.44,4.18,2.08,6.58,1.5,2.88-.7,4.97-2.96,5.61-5.66.82.04,1.66-.02,2.5-.23,4.63-1.12,7.48-5.79,6.35-10.42"/>
  </g>
  <g id="building">
    <g>
      <path class="st71" d="M494.84,137.81l-.09,346.54h152V55.58h0c0-.87-.71-1.58-1.58-1.58h-150.43v427.35"/>
      <path class="st65" d="M646.75,55.93v427.27h43.39V120.95c0-.58-.17-1.15-.5-1.63l-42.7-63.45c-.06-.09-.19-.04-.19.06h0Z"/>
    </g>
    <g>
      <rect class="st72" x="508.73" y="70.76" width="13.83" height="24.91"/>
      <rect class="st72" x="534.81" y="70.76" width="13.83" height="24.91"/>
      <rect class="st72" x="560.89" y="70.76" width="13.83" height="24.91"/>
      <rect class="st72" x="586.98" y="70.76" width="13.83" height="24.91"/>
      <rect class="st72" x="613.06" y="70.76" width="13.83" height="24.91"/>
    </g>
    <g>
      <rect class="st72" x="493.99" y="367.36" width="13.83" height="24.91"/>
      <rect class="st72" x="520.07" y="367.36" width="13.83" height="24.91"/>
      <rect class="st72" x="546.15" y="367.36" width="13.83" height="24.91"/>
      <rect class="st72" x="572.23" y="367.36" width="13.83" height="24.91"/>
      <rect class="st72" x="598.32" y="367.36" width="13.83" height="24.91"/>
    </g>
    <g>
      <rect class="st72" x="493.99" y="401.82" width="13.83" height="24.91"/>
      <rect class="st72" x="520.07" y="401.82" width="13.83" height="24.91"/>
      <rect class="st72" x="546.15" y="401.82" width="13.83" height="24.91"/>
      <rect class="st72" x="572.23" y="401.82" width="13.83" height="24.91"/>
      <rect class="st72" x="598.32" y="401.82" width="13.83" height="24.91"/>
    </g>
    <g>
      <rect class="st72" x="508.73" y="113.26" width="13.83" height="24.91"/>
      <rect class="st72" x="534.81" y="113.26" width="13.83" height="24.91"/>
      <rect class="st72" x="560.89" y="113.26" width="13.83" height="24.91"/>
      <rect class="st72" x="586.98" y="113.26" width="13.83" height="24.91"/>
      <rect class="st72" x="613.06" y="113.26" width="13.83" height="24.91"/>
    </g>
    <g>
      <rect class="st72" x="508.73" y="197.63" width="13.83" height="24.91"/>
      <rect class="st72" x="534.81" y="197.63" width="13.83" height="24.91"/>
      <rect class="st72" x="560.89" y="197.63" width="13.83" height="24.91"/>
      <rect class="st72" x="586.98" y="197.63" width="13.83" height="24.91"/>
      <rect class="st72" x="613.06" y="197.63" width="13.83" height="24.91"/>
    </g>
    <g>
      <rect class="st72" x="508.73" y="241.12" width="13.83" height="24.91"/>
      <rect class="st72" x="534.81" y="241.12" width="13.83" height="24.91"/>
      <rect class="st72" x="560.89" y="241.12" width="13.83" height="24.91"/>
      <rect class="st72" x="586.98" y="241.12" width="13.83" height="24.91"/>
      <rect class="st72" x="613.06" y="241.12" width="13.83" height="24.91"/>
    </g>
    <g>
      <rect class="st72" x="508.73" y="153.92" width="13.83" height="24.91"/>
      <rect class="st72" x="534.81" y="153.92" width="13.83" height="24.91"/>
      <rect class="st72" x="560.89" y="153.92" width="13.83" height="24.91"/>
      <rect class="st72" x="586.98" y="153.92" width="13.83" height="24.91"/>
      <rect class="st72" x="613.06" y="153.92" width="13.83" height="24.91"/>
    </g>
    <rect class="st78" x="365.41" y="163.17" width="42.5" height="42.5"/>
    <rect class="st78" x="440.28" y="163.17" width="42.5" height="42.5"/>
    <polygon class="st68" points="494.75 127.98 335.47 127.98 335.47 142.66 355.16 142.66 494.75 142.66 494.75 127.98"/>
    <polygon class="st78" points="653.79 81.19 654.39 106.65 683.61 139.12 683.81 121.78 653.79 81.19"/>
    <polygon class="st78" points="653.9 117.31 683.81 148.92 683.81 169 653.9 141.84 653.9 117.31"/>
    <polygon class="st78" points="653.9 153.92 653.9 178.82 683.74 199.96 683.81 178.71 653.9 153.92"/>
    <polygon class="st2" points="355.16 142.66 355.16 483.76 495.84 483.76 495.84 143.16 355.16 142.66"/>
    <polygon class="st78" points="653.9 406.37 653.9 439.76 683.42 449.04 683.42 419.7 653.9 406.37"/>
    <polygon class="st78" points="653.79 369.63 653.9 397.03 683.42 411.83 683.42 387.4 653.79 369.63"/>
    <path class="st74" d="M208.41,74.96c-3.6,0-7.01.25-10.08.69-1.56-3.88-6.88-7.07-13.98-8.62.75-1.16,1.15-2.39,1.15-3.67,0-6.63-10.79-12-24.11-12s-24.11,5.37-24.11,12c-13.31,0-24.11,5.37-24.11,12s10.79,12,24.11,12c6.43,0,12.26-1.25,16.58-3.29,4.18,3.56,11.94,5.96,20.83,5.96,5.78,0,11.08-1.01,15.23-2.7,4.42,1.65,11.06,2.7,18.49,2.7,13.31,0,24.11-3.37,24.11-7.53s-10.79-7.53-24.11-7.53h0Z"/>
  </g>
  <g id="casa">
    <path class="st64" d="M494.51,335.26v69.27s58.06,9.87,58.22,9.72-2-60.32-2-60.32l-56.22-18.67Z"/>
    <polyline class="st76" points="453.14 483.84 453.14 268.82 311.48 151.04 159.93 268.82 159.93 483.84 141.75 483.84"/>
    <polyline class="st70" points="453.14 483.84 453.14 268.82 573.07 332.74 573.07 462.92 573.07 484.49"/>
  </g>
  <g id="texture">
    <g class="st82">
      <line class="st1" x1="297.5" y1="150.94" x2="327.99" y2="150.94"/>
    </g>
    <g class="st82">
      <line class="st31" x1="292.47" y1="171.77" x2="334.17" y2="171.77"/>
    </g>
    <g class="st82">
      <line class="st11" x1="268.5" y1="192.6" x2="355.47" y2="192.6"/>
    </g>
    <g class="st82">
      <g>
        <line class="st18" x1="236.04" y1="213.42" x2="285.42" y2="213.42"/>
        <line class="st8" x1="285.92" y1="213.42" x2="330.87" y2="213.42"/>
        <line class="st18" x1="331.37" y1="213.42" x2="380.75" y2="213.42"/>
      </g>
    </g>
    <g class="st82">
      <g>
        <line class="st18" x1="213.58" y1="234.25" x2="262.96" y2="234.25"/>
        <line class="st22" x1="263.95" y1="234.25" x2="353.73" y2="234.25"/>
        <line class="st18" x1="354.72" y1="234.25" x2="404.1" y2="234.25"/>
      </g>
    </g>
    <g class="st82">
      <g>
        <line class="st21" x1="181.21" y1="255.08" x2="291.21" y2="255.08"/>
        <line class="st12" x1="292.98" y1="255.08" x2="322.11" y2="255.08"/>
        <line class="st21" x1="322.18" y1="255.08" x2="432.18" y2="255.08"/>
      </g>
    </g>
    <g class="st82">
      <g>
        <line class="st18" x1="164.61" y1="275.91" x2="299.61" y2="275.91"/>
        <line class="st25" x1="304.53" y1="275.91" x2="315.58" y2="275.91"/>
        <line class="st18" x1="315.61" y1="275.91" x2="450.61" y2="275.91"/>
      </g>
    </g>
    <g class="st82">
      <g>
        <line class="st18" x1="164.61" y1="317.56" x2="182.11" y2="317.56"/>
        <line class="st15" x1="279.24" y1="317.56" x2="432.15" y2="317.56"/>
        <line class="st18" x1="433.11" y1="317.56" x2="450.61" y2="317.56"/>
      </g>
    </g>
    <g class="st82">
      <g>
        <line class="st18" x1="162.41" y1="296.73" x2="292.41" y2="296.73"/>
        <line class="st10" x1="300.02" y1="296.73" x2="320.59" y2="296.73"/>
        <line class="st18" x1="320.66" y1="296.73" x2="450.66" y2="296.73"/>
      </g>
    </g>
    <g class="st82">
      <g>
        <line class="st18" x1="164.61" y1="338.39" x2="199.61" y2="338.39"/>
        <line class="st4" x1="277.89" y1="338.39" x2="414.84" y2="338.39"/>
        <line class="st18" x1="415.61" y1="338.39" x2="450.61" y2="338.39"/>
      </g>
    </g>
    <g class="st82">
      <g>
        <line class="st18" x1="164.61" y1="359.22" x2="176.61" y2="359.22"/>
        <line class="st27" x1="178.76" y1="359.22" x2="292.59" y2="359.22"/>
        <line class="st17" x1="294.71" y1="359.22" x2="436.49" y2="359.22"/>
        <line class="st18" x1="438.61" y1="359.22" x2="450.61" y2="359.22"/>
      </g>
    </g>
    <g class="st82">
      <g>
        <line class="st18" x1="164.61" y1="380.04" x2="176.61" y2="380.04"/>
        <line class="st27" x1="178.76" y1="380.04" x2="292.59" y2="380.04"/>
        <line class="st17" x1="294.71" y1="380.04" x2="436.49" y2="380.04"/>
        <line class="st18" x1="438.61" y1="380.04" x2="450.61" y2="380.04"/>
      </g>
    </g>
    <g class="st82">
      <g>
        <line class="st18" x1="164.61" y1="400.87" x2="214.61" y2="400.87"/>
        <line class="st9" x1="214.85" y1="400.87" x2="400.37" y2="400.87"/>
        <line class="st18" x1="400.61" y1="400.87" x2="450.61" y2="400.87"/>
      </g>
    </g>
    <g class="st82">
      <g>
        <line class="st18" x1="164.61" y1="421.7" x2="299.61" y2="421.7"/>
        <line class="st7" x1="299.7" y1="421.7" x2="315.52" y2="421.7"/>
        <line class="st18" x1="315.61" y1="421.7" x2="450.61" y2="421.7"/>
      </g>
    </g>
    <g class="st82">
      <g>
        <line class="st18" x1="164.61" y1="442.53" x2="213.99" y2="442.53"/>
        <line class="st5" x1="214.32" y1="442.53" x2="400.91" y2="442.53"/>
        <line class="st18" x1="401.23" y1="442.53" x2="450.61" y2="442.53"/>
      </g>
    </g>
    <g class="st82">
      <g>
        <line class="st18" x1="164.61" y1="463.36" x2="304.11" y2="463.36"/>
        <line class="st26" x1="304.15" y1="463.36" x2="311.08" y2="463.36"/>
        <line class="st18" x1="311.11" y1="463.36" x2="450.61" y2="463.36"/>
      </g>
    </g>
    <line class="st29" x1="236.04" y1="234.19" x2="236.04" y2="255.08"/>
    <line class="st29" x1="259.05" y1="276.5" x2="259.05" y2="297.39"/>
    <line class="st29" x1="325.17" y1="253.36" x2="325.17" y2="274.25"/>
    <line class="st29" x1="181.21" y1="338.06" x2="181.21" y2="358.95"/>
    <line class="st29" x1="192.59" y1="380.26" x2="192.59" y2="401.15"/>
    <line class="st29" x1="185.13" y1="420.77" x2="185.13" y2="441.66"/>
    <line class="st29" x1="428.25" y1="297.79" x2="428.25" y2="318.68"/>
    <line class="st29" x1="434.06" y1="380.1" x2="434.06" y2="400.99"/>
    <line class="st29" x1="424.34" y1="442.33" x2="424.34" y2="463.21"/>
    <line class="st29" x1="307.61" y1="359.19" x2="307.61" y2="380.07"/>
    <line class="st29" x1="380.75" y1="234.35" x2="380.75" y2="255.24"/>
    <line class="st29" x1="351.87" y1="192.58" x2="351.87" y2="213.47"/>
    <line class="st19" x1="456.06" y1="296.73" x2="580.56" y2="353.93"/>
    <line class="st30" x1="456.06" y1="318.22" x2="497.25" y2="336.08"/>
    <line class="st30" x1="456.06" y1="339.38" x2="499.79" y2="355.84"/>
    <line class="st19" x1="456.06" y1="359.22" x2="498.89" y2="371.9"/>
    <line class="st19" x1="456.06" y1="380.43" x2="497.25" y2="390.7"/>
    <line class="st19" x1="456.06" y1="401.48" x2="489.99" y2="408.55"/>
    <line class="st20" x1="457.86" y1="443.25" x2="575.91" y2="452.77"/>
    <line class="st19" x1="457.86" y1="421.28" x2="490.04" y2="426.41"/>
    <line class="st19" x1="457.86" y1="463.21" x2="558.01" y2="466.87"/>
  </g>
  <g id="finestre-porta">
    <polygon class="st57" points="544.99 359.73 490.77 339.12 490.77 404.79 545.43 413.51 544.99 359.73"/>
    <g>
      <rect class="st61" x="215.83" y="311.66" width="62.94" height="78.18"/>
      <g>
        <polygon class="st73" points="212.07 308.23 212.07 308.46 219.59 315.08 278.77 315.08 278.77 308.23 212.07 308.23"/>
        <polygon class="st49" points="212.07 308.46 212.07 389.84 219.59 389.84 219.59 315.08 212.07 308.46"/>
        <rect class="st6" x="219.59" y="315.08" width="59.18" height="74.76"/>
      </g>
      <line class="st32" x1="249.18" y1="317.44" x2="249.18" y2="382.33"/>
      <line class="st32" x1="224.35" y1="339.38" x2="274.02" y2="339.38"/>
      <line class="st32" x1="224.35" y1="364.69" x2="274.02" y2="364.69"/>
    </g>
    <g>
      <rect class="st67" x="216.16" y="418.84" width="62.94" height="27.76"/>
      <g>
        <path class="st60" d="M212.4,421.08v23.01c0,1.38,1.12,2.5,2.5,2.5h5.02v-27.76h-5.28c-1.24,0-2.25,1.01-2.25,2.25h.01Z"/>
        <path class="st3" d="M219.92,446.6h56.52c1.47,0,2.66-1.19,2.66-2.66v-22.4c0-1.49-1.21-2.7-2.7-2.7h-56.48v27.76h0Z"/>
      </g>
      <line class="st28" x1="249.51" y1="421.2" x2="249.51" y2="444.11"/>
      <line class="st28" x1="224.22" y1="432.72" x2="273.89" y2="432.72"/>
    </g>
    <g>
      <g>
        <polygon class="st79" points="201.69 392.92 203.24 384.47 203.24 392.92 201.69 392.92"/>
        <polygon class="st79" points="205.19 380.48 203.24 392.92 204.74 392.92 206.24 392.92 205.19 380.48"/>
        <polygon class="st79" points="207.05 382.19 208.34 392.92 204.74 392.92 207.05 382.19"/>
      </g>
      <g>
        <polygon class="st79" points="207.37 392.92 208.93 384.47 208.93 392.92 207.37 392.92"/>
        <polygon class="st79" points="210.88 380.48 208.93 392.92 210.43 392.92 211.93 392.92 210.88 380.48"/>
        <polygon class="st79" points="212.74 382.19 214.02 392.92 210.43 392.92 212.74 382.19"/>
      </g>
      <g>
        <polygon class="st79" points="213.58 392.77 215.14 384.32 215.14 392.77 213.58 392.77"/>
        <polygon class="st79" points="217.09 380.33 215.14 392.77 216.64 392.77 218.13 392.77 217.09 380.33"/>
        <polygon class="st79" points="218.95 382.04 220.23 392.77 216.64 392.77 218.95 382.04"/>
      </g>
      <g>
        <polygon class="st79" points="218.43 392.77 219.99 384.32 219.99 392.77 218.43 392.77"/>
        <polygon class="st79" points="221.94 380.33 219.99 392.77 221.49 392.77 222.99 392.77 221.94 380.33"/>
        <polygon class="st79" points="223.8 382.04 225.08 392.77 221.49 392.77 223.8 382.04"/>
      </g>
      <g>
        <polygon class="st79" points="223.29 392.77 224.84 384.32 224.84 392.77 223.29 392.77"/>
        <polygon class="st79" points="226.79 380.33 224.84 392.77 226.34 392.77 227.84 392.77 226.79 380.33"/>
        <polygon class="st79" points="228.65 382.04 229.94 392.77 226.34 392.77 228.65 382.04"/>
      </g>
      <g>
        <polygon class="st79" points="228.14 392.77 229.69 384.32 229.69 392.77 228.14 392.77"/>
        <polygon class="st79" points="231.64 380.33 229.69 392.77 231.19 392.77 232.69 392.77 231.64 380.33"/>
        <polygon class="st79" points="233.5 382.04 234.79 392.77 231.19 392.77 233.5 382.04"/>
      </g>
      <g>
        <polygon class="st79" points="232.99 392.77 234.54 384.32 234.54 392.77 232.99 392.77"/>
        <polygon class="st79" points="236.49 380.33 234.54 392.77 236.04 392.77 237.54 392.77 236.49 380.33"/>
        <polygon class="st79" points="238.35 382.04 239.64 392.77 236.04 392.77 238.35 382.04"/>
      </g>
      <g>
        <polygon class="st79" points="237.84 392.77 239.4 384.32 239.4 392.77 237.84 392.77"/>
        <polygon class="st79" points="241.34 380.33 239.4 392.77 240.89 392.77 242.39 392.77 241.34 380.33"/>
        <polygon class="st79" points="243.2 382.04 244.49 392.77 240.89 392.77 243.2 382.04"/>
      </g>
      <g>
        <polygon class="st79" points="242.69 392.77 244.25 384.32 244.25 392.77 242.69 392.77"/>
        <polygon class="st79" points="246.19 380.33 244.25 392.77 245.75 392.77 247.24 392.77 246.19 380.33"/>
        <polygon class="st79" points="248.06 382.04 249.34 392.77 245.75 392.77 248.06 382.04"/>
      </g>
      <g>
        <polygon class="st79" points="247.54 392.77 249.1 384.32 249.1 392.77 247.54 392.77"/>
        <polygon class="st79" points="251.05 380.33 249.1 392.77 250.6 392.77 252.1 392.77 251.05 380.33"/>
        <polygon class="st79" points="252.91 382.04 254.19 392.77 250.6 392.77 252.91 382.04"/>
      </g>
      <g>
        <polygon class="st79" points="252.4 392.77 253.95 384.32 253.95 392.77 252.4 392.77"/>
        <polygon class="st79" points="255.9 380.33 253.95 392.77 255.45 392.77 256.95 392.77 255.9 380.33"/>
        <polygon class="st79" points="257.76 382.04 259.05 392.77 255.45 392.77 257.76 382.04"/>
      </g>
      <g>
        <polygon class="st79" points="257.25 392.77 258.8 384.32 258.8 392.77 257.25 392.77"/>
        <polygon class="st79" points="260.75 380.33 258.8 392.77 260.3 392.77 261.8 392.77 260.75 380.33"/>
        <polygon class="st79" points="262.61 382.04 263.9 392.77 260.3 392.77 262.61 382.04"/>
      </g>
      <g>
        <polygon class="st79" points="262.1 392.77 263.65 384.32 263.65 392.77 262.1 392.77"/>
        <polygon class="st79" points="265.6 380.33 263.65 392.77 265.15 392.77 266.65 392.77 265.6 380.33"/>
        <polygon class="st79" points="267.46 382.04 268.75 392.77 265.15 392.77 267.46 382.04"/>
      </g>
      <g>
        <polygon class="st79" points="266.95 392.77 268.5 384.32 268.5 392.77 266.95 392.77"/>
        <polygon class="st79" points="270.45 380.33 268.5 392.77 270 392.77 271.5 392.77 270.45 380.33"/>
        <polygon class="st79" points="272.31 382.04 273.6 392.77 270 392.77 272.31 382.04"/>
      </g>
      <g>
        <polygon class="st79" points="271.8 392.77 273.36 384.32 273.36 392.77 271.8 392.77"/>
        <polygon class="st79" points="275.3 380.33 273.36 392.77 274.85 392.77 276.35 392.77 275.3 380.33"/>
        <polygon class="st79" points="277.17 382.04 278.45 392.77 274.85 392.77 277.17 382.04"/>
      </g>
      <g>
        <polygon class="st79" points="276.65 392.77 278.21 384.32 278.21 392.77 276.65 392.77"/>
        <polygon class="st79" points="280.16 380.33 278.21 392.77 279.71 392.77 281.21 392.77 280.16 380.33"/>
        <polygon class="st79" points="282.02 382.04 283.3 392.77 279.71 392.77 282.02 382.04"/>
      </g>
      <g>
        <polygon class="st79" points="281.5 392.77 283.06 384.32 283.06 392.77 281.5 392.77"/>
        <polygon class="st79" points="285.01 380.33 283.06 392.77 284.56 392.77 286.06 392.77 285.01 380.33"/>
        <polygon class="st79" points="286.87 382.04 288.15 392.77 284.56 392.77 286.87 382.04"/>
      </g>
      <g>
        <path class="st69" d="M210.7,389.92h79.12v7.24c0,6.38-5.18,11.57-11.57,11.57h-55.99c-6.38,0-11.57-5.18-11.57-11.57v-7.24h0Z"/>
        <path class="st62" d="M201.69,389.92h79.12v7.24c0,6.38-5.18,11.57-11.57,11.57h-55.99c-6.38,0-11.57-5.18-11.57-11.57v-7.24h0Z"/>
      </g>
    </g>
    <rect class="st58" x="327.43" y="317.12" width="87.55" height="166.72"/>
    <g>
      <path class="st58" d="M371.2,274.44c-24.18,0-43.77,19.6-43.77,43.77h87.55c0-24.18-19.6-43.77-43.78-43.77Z"/>
      <path class="st59" d="M371.2,281.49c-15.87,0-31.32,11.29-31.32,28.36h62.64c0-17.07-15.45-28.36-31.32-28.36h0Z"/>
      <line class="st33" x1="371.2" y1="283.34" x2="371.2" y2="308.51"/>
    </g>
    <g>
      <g>
        <rect class="st43" x="345.51" y="333.1" width="19.05" height="34.44"/>
        <g>
          <polygon class="st47" points="346.73 334.32 344.29 331.88 344.17 331.88 344.17 367.54 346.39 367.54 346.39 334.32 346.73 334.32"/>
          <polygon class="st53" points="344.29 331.88 346.73 334.32 364.56 334.32 364.56 331.88 344.29 331.88"/>
          <polyline class="st13" points="346.73 334.32 346.39 334.32 346.39 367.54 364.56 367.54 364.56 334.32 346.73 334.32"/>
        </g>
      </g>
      <g>
        <rect class="st43" x="376.5" y="333.1" width="19.05" height="34.44"/>
        <g>
          <polygon class="st47" points="377.72 334.32 375.28 331.88 375.16 331.88 375.16 367.54 377.37 367.54 377.37 334.32 377.72 334.32"/>
          <polygon class="st53" points="375.28 331.88 377.72 334.32 395.55 334.32 395.55 331.88 375.28 331.88"/>
          <polyline class="st13" points="377.72 334.32 377.37 334.32 377.37 367.54 395.55 367.54 395.55 334.32 377.72 334.32"/>
        </g>
      </g>
    </g>
    <g>
      <g>
        <rect class="st43" x="345.51" y="379.81" width="19.05" height="34.44"/>
        <g>
          <polygon class="st47" points="346.73 381.03 344.29 378.59 344.17 378.59 344.17 414.24 346.39 414.24 346.39 381.03 346.73 381.03"/>
          <polygon class="st53" points="344.29 378.59 346.73 381.03 364.56 381.03 364.56 378.59 344.29 378.59"/>
          <polyline class="st13" points="346.73 381.03 346.39 381.03 346.39 414.24 364.56 414.24 364.56 381.03 346.73 381.03"/>
        </g>
      </g>
      <g>
        <rect class="st43" x="376.5" y="379.81" width="19.05" height="34.44"/>
        <g>
          <polygon class="st47" points="377.72 381.03 375.28 378.59 375.16 378.59 375.16 414.24 377.37 414.24 377.37 381.03 377.72 381.03"/>
          <polygon class="st53" points="375.28 378.59 377.72 381.03 395.55 381.03 395.55 378.59 375.28 378.59"/>
          <polyline class="st13" points="377.72 381.03 377.37 381.03 377.37 414.24 395.55 414.24 395.55 381.03 377.72 381.03"/>
        </g>
      </g>
    </g>
    <g>
      <g>
        <rect class="st43" x="345.51" y="432.43" width="19.05" height="34.44"/>
        <g>
          <polygon class="st47" points="346.73 433.65 344.29 431.22 344.17 431.22 344.17 466.87 346.39 466.87 346.39 433.65 346.73 433.65"/>
          <polygon class="st53" points="344.29 431.22 346.73 433.65 364.56 433.65 364.56 431.22 344.29 431.22"/>
          <polyline class="st13" points="346.73 433.65 346.39 433.65 346.39 466.87 364.56 466.87 364.56 433.65 346.73 433.65"/>
        </g>
      </g>
      <g>
        <rect class="st43" x="376.5" y="432.43" width="19.05" height="34.44"/>
        <g>
          <polygon class="st47" points="377.72 433.65 375.28 431.22 375.16 431.22 375.16 466.87 377.37 466.87 377.37 433.65 377.72 433.65"/>
          <polygon class="st53" points="375.28 431.22 377.72 433.65 395.55 433.65 395.55 431.22 375.28 431.22"/>
          <polyline class="st13" points="377.72 433.65 377.37 433.65 377.37 466.87 395.55 466.87 395.55 433.65 377.72 433.65"/>
        </g>
      </g>
    </g>
    <g>
      <circle class="st52" cx="403.77" cy="422.75" r="3.66"/>
      <circle class="st35" cx="404.1" cy="422.41" r="3.33"/>
    </g>
    <path class="st81" d="M303.78,244.38c-16.64,0-30.13-12.03-30.13-26.87s13.49-26.87,30.13-26.87l4.78.34.79,52.59-5.57.8h0Z"/>
    <g>
      <circle class="st84" cx="306.97" cy="217.27" r="26.28"/>
      <g class="st85">
        <g>
          <path class="st38" d="M304.22,243.23s-1.2-1.65-1.92-4.52c-.63-2.52-1.95-9.96-2.38-12.38-.05-.29.27-.5.52-.33l3.99,2.67c.43.29.98.31,1.43.07l5.69-3.05c.45-.24.73-.71.73-1.23v-4.04c0-.3.36-.45.57-.24,1.81,1.83,7.39,7.54,9.39,10.11,1.86,2.41,3.54,5.87,3.54,5.87,0,0-5.71,4.77-7.94,5.66-6.95,2.78-13.63,1.39-13.63,1.39v.02h.01Z"/>
          <path class="st38" d="M328.27,232.74s.3-6.92-2.48-10.89c-2.26-3.23-7.19-4.44-5.95-7,.92-1.9,6.29-.21,8.94,3.56,1.39,1.98,3.73,6.38,3.73,6.38l-4.23,7.95h-.01Z"/>
        </g>
      </g>
    </g>
    <g>
      <line class="st32" x1="529.75" y1="363.59" x2="529.75" y2="401.06"/>
      <line class="st32" x1="511.42" y1="357.84" x2="511.42" y2="397.84"/>
      <line class="st32" x1="496.59" y1="374.4" x2="540.59" y2="385.61"/>
    </g>
    <g>
      <path class="st49" d="M551.47,357.62l-6.48,2.1.44,56.78-54.67-8.72v.37l62.22,10-.99-59.77c0-.12-.48-.66-.53-.77h.01Z"/>
      <path class="st48" d="M551.47,357.62c-.09-.19.2.08,0,0l-59.96-24.48c-.35-.15-.74.12-.74.5v5.48l54.22,20.61,6.48-2.1h0Z"/>
      <polygon class="st16" points="490.76 342.11 490.76 407.79 490.77 407.79 490.77 342.12 490.76 342.11"/>
    </g>
    <path class="st74" d="M282.6,95.22c-2.72,0-5.32.26-7.74.73-2.24-5.34-10.18-9.29-19.67-9.29-.31,0-.62.02-.93.03.38-.98.59-1.99.59-3.03,0-7.92-11.62-14.33-25.95-14.33-12.59,0-23.08,4.95-25.45,11.52-1.09-.11-2.2-.18-3.34-.18-11.09,0-20.08,5.52-20.08,12.33,0,5.64,6.16,10.38,14.57,11.85-.52,1.12-.8,2.3-.8,3.52,0,7.53,10.53,13.63,23.52,13.63s23.52-6.1,23.52-13.63c0-.22-.01-.44-.03-.66,3.68,2.23,8.76,3.62,14.38,3.62,1.9,0,3.72-.17,5.46-.46,2.66,5.22,11.47,9.06,21.94,9.06,12.57,0,22.77-5.53,22.77-12.35s-10.19-12.35-22.77-12.35h.01ZM235.01,97.59c-.09.46-.14.93-.14,1.4,0,.11.02.21.03.32-.8-.52-1.66-1-2.58-1.45.92-.07,1.82-.16,2.7-.28h-.01Z"/>
  </g>
  <g id="vaso2">
    <g>
      <g>
        <g>
          <polygon class="st83" points="486.78 405.56 488.59 397.18 488.23 405.62 486.78 405.56"/>
          <polygon class="st83" points="490.57 393.27 488.23 405.62 489.63 405.68 491.02 405.74 490.57 393.27"/>
          <polygon class="st83" points="492.23 395.05 492.98 405.82 489.63 405.68 492.23 395.05"/>
        </g>
        <g>
          <polygon class="st83" points="491.27 406.54 493.07 398.16 492.72 406.61 491.27 406.54"/>
          <polygon class="st83" points="495.06 394.26 492.72 406.61 494.11 406.67 495.51 406.72 495.06 394.26"/>
          <polygon class="st83" points="496.72 396.04 497.47 406.81 494.11 406.67 496.72 396.04"/>
        </g>
        <g>
          <polygon class="st83" points="495.51 406.78 497.31 398.4 496.96 406.84 495.51 406.78"/>
          <polygon class="st83" points="499.3 394.49 496.96 406.84 498.35 406.9 499.75 406.96 499.3 394.49"/>
          <polygon class="st83" points="500.96 396.27 501.71 407.04 498.35 406.9 500.96 396.27"/>
        </g>
        <g>
          <polygon class="st83" points="499.72 407.82 501.52 399.43 501.16 407.88 499.72 407.82"/>
          <polygon class="st83" points="503.51 395.53 501.16 407.88 502.56 407.94 503.96 407.99 503.51 395.53"/>
          <polygon class="st83" points="505.17 397.31 505.91 408.08 502.56 407.94 505.17 397.31"/>
        </g>
        <g>
          <polygon class="st83" points="503.92 408.85 505.73 400.47 505.37 408.91 503.92 408.85"/>
          <polygon class="st83" points="507.71 396.56 505.37 408.91 506.77 408.97 508.16 409.03 507.71 396.56"/>
          <polygon class="st83" points="509.38 398.34 510.12 409.11 506.77 408.97 509.38 398.34"/>
        </g>
        <g>
          <polygon class="st83" points="508.13 409.88 509.93 401.5 509.58 409.94 508.13 409.88"/>
          <polygon class="st83" points="511.92 397.59 509.58 409.94 510.97 410 512.37 410.06 511.92 397.59"/>
          <polygon class="st83" points="513.58 399.37 514.33 410.14 510.97 410 513.58 399.37"/>
        </g>
        <g>
          <polygon class="st83" points="512.34 410.91 514.14 402.53 513.79 410.98 512.34 410.91"/>
          <polygon class="st83" points="516.13 398.63 513.79 410.98 515.18 411.03 516.58 411.09 516.13 398.63"/>
          <polygon class="st83" points="517.79 400.41 518.53 411.18 515.18 411.03 517.79 400.41"/>
        </g>
        <g>
          <polygon class="st83" points="516.54 411.95 518.35 403.57 517.99 412.01 516.54 411.95"/>
          <polygon class="st83" points="520.33 399.66 517.99 412.01 519.39 412.07 520.79 412.13 520.33 399.66"/>
          <polygon class="st83" points="522 401.44 522.74 412.21 519.39 412.07 522 401.44"/>
        </g>
        <g>
          <polygon class="st83" points="520.75 412.98 522.56 404.6 522.2 413.04 520.75 412.98"/>
          <polygon class="st83" points="524.54 400.69 522.2 413.04 523.6 413.1 524.99 413.16 524.54 400.69"/>
          <polygon class="st83" points="526.2 402.47 526.95 413.24 523.6 413.1 526.2 402.47"/>
        </g>
        <g>
          <polygon class="st83" points="524.96 414.01 526.76 405.63 526.41 414.08 524.96 414.01"/>
          <polygon class="st83" points="528.75 401.73 526.41 414.08 527.8 414.13 529.2 414.19 528.75 401.73"/>
          <polygon class="st83" points="530.41 403.51 531.15 414.28 527.8 414.13 530.41 403.51"/>
        </g>
        <g>
          <polygon class="st83" points="529.16 415.05 530.97 406.67 530.61 415.11 529.16 415.05"/>
          <polygon class="st83" points="532.95 402.76 530.61 415.11 532.01 415.17 533.41 415.23 532.95 402.76"/>
          <polygon class="st83" points="534.62 404.54 535.36 415.31 532.01 415.17 534.62 404.54"/>
        </g>
        <g>
          <polygon class="st83" points="533.37 416.08 535.18 407.7 534.82 416.14 533.37 416.08"/>
          <polygon class="st83" points="537.16 403.79 534.82 416.14 536.22 416.2 537.61 416.26 537.16 403.79"/>
          <polygon class="st83" points="538.82 405.57 539.57 416.34 536.22 416.2 538.82 405.57"/>
        </g>
        <g>
          <polygon class="st83" points="537.58 417.11 539.38 408.73 539.03 417.17 537.58 417.11"/>
          <polygon class="st83" points="541.37 404.83 539.03 417.17 540.42 417.23 541.82 417.29 541.37 404.83"/>
          <polygon class="st83" points="543.03 406.61 543.78 417.38 540.42 417.23 543.03 406.61"/>
        </g>
        <g>
          <polygon class="st83" points="541.78 418.15 543.59 409.77 543.23 418.21 541.78 418.15"/>
          <polygon class="st83" points="545.57 405.86 543.23 418.21 544.63 418.27 546.03 418.33 545.57 405.86"/>
          <polygon class="st83" points="547.24 407.64 547.98 418.41 544.63 418.27 547.24 407.64"/>
        </g>
        <g>
          <polygon class="st83" points="545.99 419.18 547.8 410.8 547.44 419.24 545.99 419.18"/>
          <polygon class="st83" points="549.78 406.89 547.44 419.24 548.84 419.3 550.23 419.36 549.78 406.89"/>
          <polygon class="st83" points="551.44 408.67 552.19 419.44 548.84 419.3 551.44 408.67"/>
        </g>
        <g>
          <polygon class="st83" points="550.2 420.21 552 411.83 551.65 420.27 550.2 420.21"/>
          <polygon class="st83" points="553.99 407.92 551.65 420.27 553.04 420.33 554.44 420.39 553.99 407.92"/>
          <polygon class="st83" points="555.65 409.71 556.4 420.48 553.04 420.33 555.65 409.71"/>
        </g>
        <g>
          <polygon class="st83" points="554.4 421.25 556.21 412.87 555.85 421.31 554.4 421.25"/>
          <polygon class="st83" points="558.19 408.96 555.85 421.31 557.25 421.37 558.65 421.43 558.19 408.96"/>
          <polygon class="st83" points="559.86 410.74 560.6 421.51 557.25 421.37 559.86 410.74"/>
        </g>
      </g>
      <g>
        <path class="st66" d="M545.56,435.3l-53.14-5.42c-5.69-.62-9.93-5.86-9.66-11.96l.52-12.07c.04-.84.62-1.54,1.39-1.68l5.41-.97c.89-.16,1.79-.14,2.66.06l62.8,14.39-.28,6.71c-.28,6.65-3.49,11.6-9.7,10.92v.02h0Z"/>
        <path class="st75" d="M548.29,435.59l-46.45-5.06c-6.5-.71-11.33-6.72-11.02-13.71l.47-10.77c.07-1.61,1.48-2.78,2.95-2.45l64.08,14.52c1.16.26,1.97,1.39,1.92,2.66l-.17,3.92c0,12.51-2.81,11.64-11.78,10.9h0Z"/>
      </g>
    </g>
  </g>
  <g id="tetto">
    <polygon class="st77" points="466.07 269.21 311.26 137.81 260.64 177.67 150.22 265.36 149.74 268.82 160.82 268.82 310.89 151.04 356.68 189.49 451.89 269.21 466.07 269.21"/>
    <path class="st63" d="M468.2,260.96l-156.35-130.66-164.7,129.05c-1.78,1.39-2.09,3.97-.7,5.74l2.22,2.83,162.87-127.61,154.54,128.89,2.59-3.13c1.28-1.54,1.07-3.83-.47-5.11h0Z"/>
    <polygon class="st40" points="593.98 343.83 603.88 343.83 466.07 269.21 452.66 268.82 593.98 343.83"/>
    <polygon class="st34" points="466.07 269.21 603.88 343.83 603.88 337.06 470.98 263.28 466.07 269.21"/>
    <polygon class="st39" points="311.85 130.3 470.98 233.68 603.88 337.06 470.98 263.28 311.85 130.3"/>
  </g>
  <g id="lucernaio">
    <polygon class="st42" points="470.98 250.63 501.93 269.21 501.39 230.38 491.2 193.7 469.96 211.81 470.98 250.63"/>
    <polyline class="st14" points="469.99 212.76 493.08 229.93 492.93 263.8"/>
    <polyline class="st14" points="470.24 222.54 486.9 234.19 486.67 260.05"/>
    <line class="st14" x1="486.9" y1="234.19" x2="493.08" y2="229.93"/>
    <path class="st50" d="M506.48,193.7l-12.38,10.42-6.77,5.7c-1.53,1.29-3.47,2-5.47,2h-53.61l-18.82-18.11h97.05l9.25,32.68c.5,1.78-.83,3.55-2.69,3.55h-11.66l-7.29-25.81"/>
    <polygon class="st51" points="428.25 211.81 469.96 211.81 470.98 250.63 428.25 211.81"/>
    <polygon class="st54" points="470.24 212.95 470.24 222.54 487.07 234.19 493.18 229.93 470.24 212.95"/>
    <polygon class="st55" points="492.93 263.28 493.18 229.93 487.07 234.19 486.9 260.05 492.93 263.28"/>
    <polygon class="st36" points="470.24 222.54 487.07 234.19 486.9 260.05 470.98 250.63 470.24 222.54"/>
    <line class="st24" x1="478.57" y1="232.06" x2="478.57" y2="252.39"/>
    <line class="st24" x1="483.58" y1="244.8" x2="473.31" y2="239.31"/>
  </g>
  <g id="alberi-cespugli">
    <g>
      <path class="st39" d="M872.55,294.32c0-12.18-4.75-23.25-12.48-31.47.14-1.33.22-2.68.22-4.04,0-15.63-9.54-29.03-23.12-34.7-6.01-18.4-23.29-31.69-43.7-31.69-8.63,0-16.7,2.38-23.6,6.52-6.65-3.74-14.31-5.88-22.48-5.88-7.12,0-13.85,1.62-19.86,4.5-8.05-6.94-18.52-11.14-29.98-11.14-15.39,0-29,7.57-37.34,19.18-16.68,1.57-30.19,14.04-33.33,30.22-15.05,7.55-25.39,23.12-25.39,41.1,0,4.7.71,9.24,2.02,13.52-6.59,7.96-10.56,18.17-10.56,29.31,0,19.84,12.57,36.74,30.18,43.18,6.53,17.43,23.34,29.84,43.05,29.84,2.17,0,4.3-.16,6.4-.45,8.09,7.1,18.69,11.41,30.29,11.41s22.01-4.23,30.07-11.22c6.35,4.9,14.3,7.82,22.94,7.82,11.59,0,21.95-5.25,28.84-13.49,5.14,2.63,10.95,4.13,17.13,4.13,14.32,0,26.77-8.01,33.12-19.79,18.82-2.05,33.48-17.99,33.48-37.37,0-5.28-1.09-10.31-3.06-14.87,4.53-7.12,7.17-15.57,7.17-24.63h-.01Z"/>
      <path class="st46" d="M705.67,483.21s6.29-10.41,7.19-22.39c.39-5.21-.24-11.72-1.07-17.42-1.18-8.04-5.06-15.43-11.02-20.95-2.88-2.67-6.26-5.92-9.76-9.53-9.58-9.88-13.47-23.95-13.47-23.95l24.25-1.5s1.23,15.57,8.08,25.15,12.27,6.59,16.17,1.5-.6-29.03-.6-29.03l26.35,4.48s-6.59,7.19-9.28,18.31,6.86,15.98,12.13,14.54c22.96-6.31,22.04-54.23,22.04-54.23l24.05-2.73c0,29.47.14,42.31-24.64,59.38-28,19.28,6.01,59.38,6.01,59.38h49.64"/>
      <g class="st80">
        <path class="st39" d="M872.55,294.32c0-12.18-4.75-23.25-12.48-31.47.14-1.33.22-2.68.22-4.04,0-15.63-9.54-29.03-23.12-34.7-6.01-18.4-23.29-31.69-43.7-31.69-8.63,0-16.7,2.38-23.6,6.52-6.65-3.74-14.31-5.88-22.48-5.88-7.12,0-13.85,1.62-19.86,4.5-8.05-6.94-18.52-11.14-29.98-11.14-15.39,0-29,7.57-37.34,19.18-16.68,1.57-30.19,14.04-33.33,30.22-15.05,7.55-25.39,23.12-25.39,41.1,0,4.7.71,9.24,2.02,13.52-6.59,7.96-10.56,18.17-10.56,29.31,0,19.84,12.57,36.74,30.18,43.18,6.53,17.43,23.34,29.84,43.05,29.84,2.17,0,4.3-.16,6.4-.45,8.09,7.1,18.69,11.41,30.29,11.41s22.01-4.23,30.07-11.22c6.35,4.9,14.3,7.82,22.94,7.82,11.59,0,21.95-5.25,28.84-13.49,5.14,2.63,10.95,4.13,17.13,4.13,14.32,0,26.77-8.01,33.12-19.79,18.82-2.05,33.48-17.99,33.48-37.37,0-5.28-1.09-10.31-3.06-14.87,4.53-7.12,7.17-15.57,7.17-24.63h-.01Z"/>
      </g>
    </g>
    <path class="st50" d="M718.6,483.07v-.07c0-8.73-6.6-16.06-15.59-18.28.42-1.48.66-3.03.66-4.62,0-10.49-9.53-18.99-21.29-18.99-2.04,0-4,.27-5.86.75-5.37-6.39-13.93-10.53-23.58-10.53-13.53,0-24.93,8.15-28.37,19.25-.36-.02-.71-.05-1.07-.05-9.7,0-17.86,5.79-20.43,13.7-10.35,1.29-18.32,9.2-18.32,18.79,0,.38.04.76.06,1.13"/>
    <path class="st56" d="M725.69,483.45v-.04c0-5.65-4.27-10.39-10.09-11.83.27-.96.43-1.96.43-2.99,0-6.79-6.17-12.29-13.78-12.29-1.32,0-2.59.18-3.8.48-3.48-4.14-9.02-6.82-15.26-6.82-8.76,0-16.14,5.28-18.36,12.46-.23-.01-.46-.03-.69-.03-6.28,0-11.56,3.75-13.23,8.87-6.7.84-11.86,5.95-11.86,12.16,0,.25.03.49.04.73"/>
    <path class="st50" d="M137.85,483.78v-.04c0-5.82-4.41-10.71-10.4-12.2.28-.99.44-2.02.44-3.08,0-7-6.36-12.67-14.2-12.67-1.36,0-2.67.18-3.91.5-3.58-4.27-9.29-7.03-15.73-7.03-9.03,0-16.63,5.44-18.93,12.84-.24-.01-.47-.03-.71-.03-6.47,0-11.92,3.86-13.63,9.14-6.9.86-12.22,6.14-12.22,12.53,0,.26.03.5.04.76"/>
    <path class="st45" d="M762.48,361.84c0,8.5,6.89,15.38,15.38,15.38,5.81,0,10.86-3.22,13.48-7.97,2.37,3.46,6.35,5.74,10.86,5.74,7.26,0,13.15-5.89,13.15-13.15,0-1.39-.22-2.74-.62-4"/>
    <line class="st23" x1="584.82" y1="483.84" x2="139.4" y2="483.84"/>
  </g>
</svg>