<svg width="500" height="471" viewBox="0 0 500 471" fill="none" xmlns="http://www.w3.org/2000/svg">
<mask id="mask0_1305_18892" style="mask-type:luminance" maskUnits="userSpaceOnUse" x="3" y="0" width="497" height="465">
<path d="M499.95 0.203064H3.41797V464.673H499.95V0.203064Z" fill="white"/>
</mask>
<g mask="url(#mask0_1305_18892)">
<path d="M498.633 506.516V619.027C498.633 643.498 478.763 663.405 454.339 663.405H243.23C218.806 663.405 198.936 643.498 198.936 619.027V129.332C198.936 104.861 218.806 84.9523 243.23 84.9523H454.339C478.763 84.9523 498.633 104.861 498.633 129.332V493.063" fill="#F7F7F7"/>
<path d="M498.633 506.516V619.027C498.633 643.498 478.763 663.405 454.339 663.405H243.23C218.806 663.405 198.936 643.498 198.936 619.027V129.332C198.936 104.861 218.806 84.9523 243.23 84.9523H454.339C478.763 84.9523 498.633 104.861 498.633 129.332V493.063" stroke="#4A4A4A" stroke-width="2" stroke-linecap="round" stroke-linejoin="round"/>
<path d="M213.232 194.385V129.331C213.232 112.719 226.674 99.2512 243.255 99.2512H280.114C285.604 99.2512 290.131 103.568 290.399 109.063C290.857 117.664 297.953 124.404 306.551 124.404H391.07C399.668 124.404 406.764 117.664 407.221 109.063C407.491 103.568 412.017 99.2512 417.506 99.2512H454.367C470.947 99.2512 484.388 112.719 484.388 129.331V619.028C484.388 635.64 470.947 649.106 454.367 649.106H243.255C226.674 649.106 213.232 635.64 213.232 619.028V200.431" fill="white"/>
<path d="M213.229 194.39V129.335C213.229 112.724 226.669 99.2559 243.25 99.2559H280.109C285.599 99.2559 290.126 103.573 290.394 109.068C290.852 117.669 297.948 124.409 306.546 124.409H391.066C399.663 124.409 406.76 117.669 407.216 109.068C407.486 103.573 412.013 99.2559 417.502 99.2559H454.362C470.943 99.2559 484.383 112.724 484.383 129.335V619.033C484.383 635.644 470.943 649.112 454.362 649.112H243.25C226.669 649.112 213.229 635.644 213.229 619.033V200.436" stroke="#4A4A4A" stroke-width="2" stroke-linecap="round" stroke-linejoin="round"/>
<path d="M213.234 248.925V245.781" stroke="#4A4A4A" stroke-width="2" stroke-linecap="round" stroke-linejoin="round"/>
<path d="M360.85 109.947H318.088C316.235 109.947 314.734 108.443 314.734 106.587C314.734 104.732 316.235 103.227 318.088 103.227H360.85C362.702 103.227 364.204 104.732 364.204 106.587C364.204 108.443 362.702 109.947 360.85 109.947Z" fill="#ECECEC"/>
<path d="M377.699 111.787C374.833 111.787 372.51 109.46 372.51 106.587C372.51 103.716 374.833 101.388 377.699 101.388C380.565 101.388 382.889 103.716 382.889 106.587C382.889 109.46 380.565 111.787 377.699 111.787Z" fill="#ECECEC"/>
<path d="M413.169 259.514C413.169 295.135 384.29 324.011 348.667 324.011C313.043 324.011 284.164 295.135 284.164 259.514C284.164 223.892 313.043 195.016 348.667 195.016C384.29 195.016 413.169 223.892 413.169 259.514Z" fill="#ECECEC"/>
<path d="M357.685 239.282C357.685 239.282 351.777 236.875 345.857 236.909C340.634 236.945 335.413 238.887 334.227 246.062C334.227 246.062 332.679 252.842 341.205 256.912C349.729 260.982 359.034 263.704 355.545 274.937C355.545 274.937 350.126 288.125 330.936 278.426" stroke="#4A4A4A" stroke-width="3" stroke-linecap="round" stroke-linejoin="round"/>
<path d="M344.828 226.873V236.909" stroke="#4A4A4A" stroke-width="3" stroke-linecap="round" stroke-linejoin="round"/>
<path d="M344.828 281.834V292.731" stroke="#4A4A4A" stroke-width="3" stroke-linecap="round" stroke-linejoin="round"/>
<path d="M423.915 388.509H273.41C267.498 388.509 262.66 383.672 262.66 377.759C262.66 371.847 267.498 367.01 273.41 367.01H423.915C429.829 367.01 434.666 371.847 434.666 377.759C434.666 383.672 429.829 388.509 423.915 388.509Z" fill="#ECECEC"/>
<path d="M380.916 431.507H316.414C310.502 431.507 305.664 426.67 305.664 420.758C305.664 414.845 310.502 410.008 316.414 410.008H380.916C386.829 410.008 391.666 414.845 391.666 420.758C391.666 426.67 386.829 431.507 380.916 431.507Z" fill="#ECECEC"/>
<path d="M304.192 422.868V535.379C304.192 559.849 284.322 579.757 259.897 579.757H48.7884C24.3637 579.757 4.49414 559.849 4.49414 535.379V45.6835C4.49414 21.213 24.3637 1.30383 48.7884 1.30383H259.897C284.322 1.30383 304.192 21.213 304.192 45.6835V409.415" fill="#F7F7F7"/>
<path d="M304.192 422.868V535.379C304.192 559.849 284.322 579.757 259.897 579.757H48.7884C24.3637 579.757 4.49414 559.849 4.49414 535.379V45.6835C4.49414 21.213 24.3637 1.30383 48.7884 1.30383H259.897C284.322 1.30383 304.192 21.213 304.192 45.6835V409.415" stroke="#4A4A4A" stroke-width="2" stroke-linecap="round" stroke-linejoin="round"/>
<path d="M304.191 415.46V417.334" stroke="#4A4A4A" stroke-width="2" stroke-linecap="round" stroke-linejoin="round"/>
<path d="M18.793 110.737V45.6823C18.793 29.071 32.2339 15.6028 48.8146 15.6028H85.6736C91.1641 15.6028 95.6907 19.9197 95.9592 25.4143C96.4172 34.0157 103.513 40.7557 112.11 40.7557H196.63C205.228 40.7557 212.324 34.0157 212.781 25.4143C213.051 19.9197 217.577 15.6028 223.066 15.6028H259.927C276.507 15.6028 289.948 29.071 289.948 45.6823V535.379C289.948 551.991 276.507 565.457 259.927 565.457H48.8146C32.2339 565.457 18.793 551.991 18.793 535.379V116.783" fill="white"/>
<path d="M65.3731 114.66C62.0026 114.66 58.7922 115.346 55.8727 116.586C47.1256 120.267 40.8752 128.876 40.7057 138.893C40.6624 141.461 41.0112 143.939 41.6967 146.275C41.6967 146.275 42.9226 150.031 40.5721 155.145C39.4324 157.625 37.9393 159.619 36.711 161.011C35.9124 161.916 36.6084 163.339 37.8127 163.264C39.5517 163.155 41.724 162.853 43.7404 162.1C46.2984 161.146 48.0426 159.917 48.9732 159.149C49.4556 158.751 50.1431 158.73 50.6448 159.104C53.4524 161.193 56.7219 162.694 60.2697 163.435C60.7182 163.529 60.8808 163.555 61.0426 163.584C62.4491 163.837 63.8943 163.975 65.3731 163.975H165.424C178.88 163.975 189.787 153.046 189.787 139.563V139.072C189.787 125.59 178.88 114.66 165.424 114.66H65.3731Z" fill="#ECECEC"/>
<path d="M243.173 184.001C246.545 184.001 249.755 184.686 252.674 185.927C261.421 189.607 267.671 198.216 267.841 208.233C267.885 210.801 267.535 213.28 266.85 215.615C266.85 215.615 265.624 219.372 267.975 224.485C269.114 226.965 270.608 228.96 271.836 230.352C272.635 231.257 271.938 232.68 270.734 232.605C268.995 232.496 266.822 232.193 264.806 231.44C262.248 230.486 260.504 229.258 259.573 228.49C259.091 228.091 258.403 228.07 257.902 228.444C255.094 230.533 251.825 232.035 248.277 232.776C247.829 232.869 247.666 232.895 247.504 232.924C246.098 233.177 244.652 233.316 243.173 233.316H176.078C162.623 233.316 151.715 222.387 151.715 208.904V208.413C151.715 194.93 162.623 184.001 176.078 184.001H243.173Z" fill="#ECECEC"/>
<path d="M65.3731 246.198C62.0026 246.198 58.7922 246.885 55.8727 248.125C47.1256 251.805 40.8752 260.415 40.7057 270.431C40.6624 272.999 41.0112 275.479 41.6967 277.814C41.6967 277.814 42.9226 281.571 40.5721 286.684C39.4324 289.164 37.9393 291.158 36.711 292.55C35.9124 293.455 36.6084 294.878 37.8127 294.804C39.5517 294.694 41.724 294.392 43.7404 293.639C46.2984 292.685 48.0426 291.455 48.9732 290.688C49.4556 290.29 50.1431 290.269 50.6448 290.643C53.4524 292.732 56.7219 294.232 60.2697 294.974C60.7182 295.068 60.8808 295.094 61.0426 295.123C62.4491 295.376 63.8943 295.515 65.3731 295.515H110.498C123.954 295.515 134.861 284.585 134.861 271.102V270.612C134.861 257.129 123.954 246.198 110.498 246.198H65.3731Z" fill="black"/>
<path d="M18.7852 110.741V45.6868C18.7852 29.0755 32.2261 15.6073 48.8069 15.6073H85.6657C91.1564 15.6073 95.6829 19.9242 95.9515 25.419C96.4095 34.0203 103.505 40.7602 112.103 40.7602H196.623C205.22 40.7602 212.317 34.0203 212.772 25.419C213.043 19.9242 217.57 15.6073 223.059 15.6073H259.919C276.5 15.6073 289.94 29.0755 289.94 45.6868V535.385C289.94 551.996 276.5 565.463 259.919 565.463H48.8069C32.2261 565.463 18.7852 551.996 18.7852 535.385V116.787" stroke="#4A4A4A" stroke-width="2" stroke-linecap="round" stroke-linejoin="round"/>
<path d="M18.793 165.276V162.133" stroke="#4A4A4A" stroke-width="2" stroke-linecap="round" stroke-linejoin="round"/>
<path d="M166.409 26.299H123.647C121.794 26.299 120.293 24.795 120.293 22.9387C120.293 21.0838 121.794 19.5785 123.647 19.5785H166.409C168.261 19.5785 169.763 21.0838 169.763 22.9387C169.763 24.795 168.261 26.299 166.409 26.299Z" fill="#ECECEC"/>
<path d="M183.258 28.1382C180.392 28.1382 178.068 25.8115 178.068 22.9387C178.068 20.0672 180.392 17.7391 183.258 17.7391C186.124 17.7391 188.447 20.0672 188.447 22.9387C188.447 25.8115 186.124 28.1382 183.258 28.1382Z" fill="#ECECEC"/>
<path opacity="0.031342" d="M305.498 471.277H327.468V84.9526H305.498V471.277Z" fill="black"/>
<mask id="mask1_1305_18892" style="mask-type:alpha" maskUnits="userSpaceOnUse" x="64" y="263" width="14" height="15">
<path d="M64.9414 263.257H77.6359V277.579H64.9414V263.257Z" fill="white"/>
</mask>
<g mask="url(#mask1_1305_18892)">
<path d="M74.9171 270.417C74.9171 269.632 74.8105 268.927 74.6007 268.302C74.3898 267.679 74.0899 267.15 73.701 266.718C73.3121 266.284 72.8387 265.953 72.2828 265.721C71.7248 265.49 71.0964 265.375 70.3989 265.375H67.6196V275.459H70.3989C71.0964 275.459 71.7248 275.344 72.2828 275.113C72.8387 274.882 73.3121 274.549 73.701 274.117C74.0899 273.685 74.3898 273.156 74.6007 272.532C74.8105 271.908 74.9171 271.203 74.9171 270.417ZM77.6359 270.417C77.6359 271.467 77.4602 272.432 77.1119 273.31C76.7626 274.188 76.2705 274.944 75.6377 275.577C75.0061 276.212 74.2448 276.704 73.355 277.054C72.4652 277.404 71.4798 277.579 70.3989 277.579H64.9414V263.255H70.3989C71.4798 263.255 72.4652 263.432 73.355 263.786C74.2448 264.138 75.0061 264.63 75.6377 265.261C76.2705 265.893 76.7626 266.647 77.1119 267.525C77.4602 268.403 77.6359 269.367 77.6359 270.417Z" fill="white"/>
</g>
<path d="M83.8917 275.846C84.7365 275.846 85.3604 275.563 85.7658 274.996C86.1711 274.427 86.3744 273.595 86.3744 272.498C86.3744 271.402 86.1711 270.567 85.7658 269.993C85.3604 269.418 84.7365 269.13 83.8917 269.13C83.036 269.13 82.4032 269.42 81.9935 269.998C81.5848 270.576 81.3816 271.409 81.3816 272.498C81.3816 273.588 81.5848 274.419 81.9935 274.99C82.4032 275.561 83.036 275.846 83.8917 275.846ZM83.8917 267.258C84.6497 267.258 85.3363 267.381 85.9536 267.625C86.5699 267.869 87.095 268.216 87.5311 268.666C87.965 269.114 88.3023 269.662 88.5385 270.309C88.7757 270.957 88.8955 271.679 88.8955 272.479C88.8955 273.284 88.7757 274.011 88.5385 274.658C88.3023 275.305 87.965 275.856 87.5311 276.312C87.095 276.768 86.5699 277.118 85.9536 277.362C85.3363 277.606 84.6497 277.729 83.8917 277.729C83.1348 277.729 82.4461 277.606 81.8254 277.362C81.2069 277.118 80.6774 276.768 80.2391 276.312C79.7997 275.856 79.4614 275.305 79.2208 274.658C78.9791 274.011 78.8594 273.284 78.8594 272.479C78.8594 271.679 78.9791 270.957 79.2208 270.309C79.4614 269.662 79.7997 269.114 80.2391 268.666C80.6774 268.216 81.2069 267.869 81.8254 267.625C82.4461 267.381 83.1348 267.258 83.8917 267.258Z" fill="white"/>
<path d="M90.8086 277.58V267.417H92.3015C92.6179 267.417 92.8255 267.565 92.9243 267.862L93.0924 268.665C93.2978 268.453 93.5132 268.262 93.7405 268.09C93.9679 267.919 94.2085 267.77 94.4623 267.645C94.716 267.519 94.9874 267.423 95.2774 267.357C95.5674 267.291 95.8838 267.258 96.2276 267.258C96.7813 267.258 97.2712 267.352 97.6996 267.541C98.128 267.729 98.4851 267.992 98.7729 268.334C99.0596 268.673 99.2771 269.079 99.4254 269.551C99.5737 270.024 99.6473 270.544 99.6473 271.112V277.58H97.2053V271.112C97.2053 270.492 97.0614 270.011 96.7758 269.67C96.489 269.331 96.0584 269.16 95.485 269.16C95.0632 269.16 94.6688 269.257 94.2997 269.447C93.9295 269.639 93.5802 269.9 93.2517 270.23V277.58H90.8086Z" fill="white"/>
<mask id="mask2_1305_18892" style="mask-type:alpha" maskUnits="userSpaceOnUse" x="101" y="267" width="10" height="11">
<path d="M101.359 267.258H110.622V277.729H101.359V267.258Z" fill="white"/>
</mask>
<g mask="url(#mask2_1305_18892)">
<path d="M106.282 269.012C105.571 269.012 105.014 269.214 104.611 269.616C104.209 270.019 103.952 270.591 103.84 271.329H108.427C108.427 271.012 108.384 270.714 108.299 270.434C108.214 270.153 108.082 269.906 107.904 269.695C107.725 269.485 107.501 269.316 107.231 269.195C106.961 269.073 106.644 269.012 106.282 269.012ZM106.232 267.258C106.872 267.258 107.461 267.361 107.998 267.566C108.535 267.77 108.998 268.069 109.386 268.462C109.776 268.854 110.078 269.337 110.296 269.907C110.514 270.48 110.622 271.131 110.622 271.864C110.622 272.049 110.613 272.202 110.598 272.326C110.581 272.448 110.552 272.543 110.509 272.612C110.466 272.682 110.409 272.732 110.335 272.76C110.263 272.791 110.171 272.805 110.059 272.805H103.79C103.864 273.85 104.144 274.615 104.631 275.104C105.119 275.592 105.764 275.837 106.57 275.837C106.964 275.837 107.306 275.79 107.592 275.698C107.879 275.605 108.13 275.503 108.344 275.391C108.558 275.279 108.746 275.177 108.907 275.085C109.069 274.992 109.226 274.946 109.376 274.946C109.475 274.946 109.561 274.965 109.635 275.004C109.706 275.044 109.77 275.1 109.822 275.174L110.533 276.064C110.263 276.381 109.961 276.647 109.624 276.862C109.287 277.077 108.937 277.248 108.571 277.377C108.205 277.506 107.833 277.596 107.454 277.65C107.075 277.702 106.708 277.729 106.351 277.729C105.646 277.729 104.99 277.611 104.384 277.377C103.778 277.143 103.25 276.795 102.802 276.336C102.355 275.877 102.002 275.31 101.744 274.632C101.488 273.957 101.359 273.172 101.359 272.28C101.359 271.587 101.47 270.935 101.694 270.323C101.919 269.714 102.24 269.181 102.659 268.73C103.077 268.277 103.588 267.919 104.191 267.656C104.794 267.39 105.476 267.258 106.232 267.258Z" fill="white"/>
</g>
<mask id="mask3_1305_18892" style="mask-type:alpha" maskUnits="userSpaceOnUse" x="112" y="274" width="4" height="4">
<path d="M112.025 274.737H115.02V277.719H112.025V274.737Z" fill="white"/>
</mask>
<g mask="url(#mask3_1305_18892)">
<path d="M112.025 276.233C112.025 276.027 112.063 275.834 112.14 275.649C112.214 275.464 112.32 275.304 112.455 275.173C112.59 275.041 112.749 274.934 112.934 274.856C113.118 274.777 113.318 274.737 113.528 274.737C113.733 274.737 113.926 274.777 114.111 274.856C114.295 274.934 114.454 275.041 114.585 275.173C114.717 275.304 114.824 275.464 114.902 275.649C114.981 275.834 115.022 276.027 115.022 276.233C115.022 276.443 114.981 276.64 114.902 276.822C114.824 277.004 114.717 277.161 114.585 277.293C114.454 277.425 114.295 277.529 114.111 277.605C113.926 277.681 113.733 277.719 113.528 277.719C113.318 277.719 113.118 277.681 112.934 277.605C112.749 277.529 112.59 277.425 112.455 277.293C112.32 277.161 112.214 277.004 112.14 276.822C112.063 276.64 112.025 276.443 112.025 276.233Z" fill="white"/>
</g>
</g>
<rect y="357.403" width="500" height="112.8" fill="url(#paint0_linear_1305_18892)"/>
<defs>
<linearGradient id="paint0_linear_1305_18892" x1="500" y1="357.403" x2="500" y2="470.203" gradientUnits="userSpaceOnUse">
<stop stop-color="white" stop-opacity="0"/>
<stop offset="1" stop-color="white"/>
</linearGradient>
</defs>
</svg>
