<svg fill="none" height="746" viewBox="0 0 956 746" width="956" xmlns="http://www.w3.org/2000/svg" xmlns:xlink="http://www.w3.org/1999/xlink"><linearGradient id="a"><stop offset="0" stop-color="#17a1e9"/><stop offset="1" stop-color="#17a1e9" stop-opacity="0"/></linearGradient><linearGradient id="b" gradientUnits="userSpaceOnUse" x1="583.111" x2="583.111" xlink:href="#a" y1="389.135" y2="475.328"/><linearGradient id="c" gradientUnits="userSpaceOnUse" x1="479.54" x2="479.54" xlink:href="#a" y1="593.496" y2="679.689"/><path d="m492.052 285.564 95.924-34.755 91.059 73.681 161.96-111.217v59.084 202.276h-348.943-167.521-104.961v-93.839l115.388-15.292 110.522-33.366z" fill="url(#b)" fill-opacity=".08"/><path d="m562.703 182.874v-.975l3.661-4.007c.43-.47.784-.878 1.062-1.224.278-.35.484-.679.617-.986.137-.31.206-.635.206-.975 0-.389-.094-.727-.282-1.012-.184-.285-.437-.506-.758-.661s-.682-.233-1.083-.233c-.426 0-.798.089-1.116.266-.314.173-.557.417-.731.731-.169.314-.254.682-.254 1.104h-1.278c0-.649.15-1.22.449-1.711.3-.491.708-.874 1.224-1.148.52-.274 1.103-.412 1.749-.412.65 0 1.226.138 1.728.412s.895.644 1.18 1.11c.286.466.428.984.428 1.554 0 .408-.074.807-.222 1.197-.144.387-.397.818-.758 1.295-.357.473-.854 1.05-1.489 1.733l-2.491 2.664v.087h5.155v1.191zm12.851.152c-.816 0-1.511-.222-2.085-.666-.574-.448-1.012-1.096-1.316-1.945-.303-.852-.454-1.881-.454-3.086 0-1.199.151-2.223.454-3.071.307-.852.748-1.502 1.322-1.95.577-.451 1.271-.677 2.079-.677.809 0 1.5.226 2.075.677.577.448 1.018 1.098 1.321 1.95.307.848.46 1.872.46 3.071 0 1.205-.151 2.234-.455 3.086-.303.849-.742 1.497-1.316 1.945-.574.444-1.269.666-2.085.666zm0-1.192c.809 0 1.437-.39 1.885-1.169.448-.78.671-1.892.671-3.336 0-.961-.102-1.779-.308-2.454-.202-.675-.495-1.189-.878-1.543-.379-.354-.835-.531-1.37-.531-.801 0-1.428.396-1.879 1.186-.451.787-.677 1.901-.677 3.342 0 .96.101 1.776.304 2.447.202.672.492 1.183.871 1.533.383.35.843.525 1.381.525zm5.914 1.04v-.975l3.661-4.007c.43-.47.783-.878 1.061-1.224.278-.35.484-.679.618-.986.137-.31.206-.635.206-.975 0-.389-.094-.727-.282-1.012-.184-.285-.437-.506-.758-.661-.322-.155-.683-.233-1.083-.233-.426 0-.798.089-1.116.266-.314.173-.558.417-.731.731-.17.314-.255.682-.255 1.104h-1.278c0-.649.15-1.22.45-1.711s.708-.874 1.224-1.148c.52-.274 1.103-.412 1.749-.412.65 0 1.226.138 1.728.412.501.274.895.644 1.18 1.11s.428.984.428 1.554c0 .408-.074.807-.222 1.197-.145.387-.397.818-.758 1.295-.358.473-.854 1.05-1.49 1.733l-2.491 2.664v.087h5.156v1.191zm8.735-2.274v-1.105l4.874-7.712h.802v1.711h-.542l-3.682 5.827v.087h6.563v1.192zm5.221 2.274v-2.61-.515-7.966h1.278v11.091z" fill="#17a1e9" fill-opacity=".3"/><path d="m556.106 206.098v-7.495h1.701v7.495zm-2.897-2.898v-1.7h7.495v1.7zm9.479 4.674v-1.451l3.85-3.775c.368-.372.675-.702.921-.991.245-.289.429-.569.552-.839.123-.271.184-.56.184-.867 0-.35-.079-.65-.238-.899-.159-.253-.377-.447-.655-.585-.278-.137-.594-.205-.948-.205-.365 0-.684.075-.959.227-.274.148-.487.359-.639.634-.148.274-.222.601-.222.98h-1.911c0-.704.16-1.316.482-1.836.321-.52.763-.922 1.326-1.208.567-.285 1.217-.428 1.95-.428.744 0 1.397.139 1.96.417s1 .659 1.311 1.143c.314.484.471 1.036.471 1.657 0 .415-.079.823-.238 1.224s-.439.845-.84 1.332c-.397.488-.955 1.078-1.673 1.771l-1.912 1.944v.076h4.831v1.679zm13.533.152c-.531-.004-1.049-.096-1.554-.277-.506-.184-.961-.482-1.365-.893-.404-.415-.726-.966-.964-1.652-.238-.689-.356-1.543-.352-2.561 0-.95.101-1.796.303-2.54s.493-1.372.872-1.885c.379-.516.836-.91 1.37-1.18.538-.271 1.139-.407 1.804-.407.696 0 1.314.138 1.852.412.541.274.978.65 1.31 1.126.332.473.538 1.008.618 1.603h-1.977c-.101-.426-.309-.765-.623-1.018-.31-.256-.704-.384-1.18-.384-.769 0-1.362.334-1.777 1.002-.411.668-.619 1.585-.623 2.751h.076c.177-.318.406-.591.688-.818s.599-.403.953-.525c.358-.127.735-.19 1.132-.19.65 0 1.233.155 1.749.466.52.31.932.738 1.235 1.283.303.542.453 1.163.449 1.863.004.73-.162 1.385-.498 1.966-.336.578-.803 1.033-1.402 1.365-.6.332-1.298.496-2.096.493zm-.011-1.625c.394 0 .746-.096 1.056-.287s.556-.449.737-.774c.18-.325.268-.69.265-1.094.003-.397-.083-.757-.26-1.078-.173-.321-.413-.576-.72-.764-.307-.187-.657-.281-1.051-.281-.292 0-.565.056-.818.168-.252.112-.473.267-.66.465-.188.195-.336.423-.444.683-.105.256-.159.53-.163.823.004.386.094.742.271 1.067s.42.585.731.78c.31.195.662.292 1.056.292zm11.768-.607v-.584c0-.43.09-.825.271-1.186.184-.361.451-.652.801-.872.35-.221.775-.331 1.273-.331.512 0 .942.11 1.289.331.346.216.608.505.785.866.18.361.271.758.271 1.192v.584c0 .43-.091.825-.271 1.186-.181.362-.446.652-.796.872-.347.221-.773.331-1.278.331-.506 0-.934-.11-1.284-.331-.35-.22-.615-.51-.796-.872-.177-.361-.265-.756-.265-1.186zm1.413-.584v.584c0 .286.069.547.206.786.137.238.379.357.726.357.35 0 .59-.117.72-.352.134-.238.2-.502.2-.791v-.584c0-.289-.063-.553-.189-.791-.127-.242-.37-.363-.731-.363-.34 0-.58.121-.721.363-.14.238-.211.502-.211.791zm-7.051-5.762v-.585c0-.434.092-.831.276-1.192.185-.361.452-.65.802-.866.35-.22.774-.331 1.273-.331.509 0 .937.111 1.283.331.35.216.614.505.791.866s.265.758.265 1.192v.585c0 .433-.09.83-.271 1.191-.177.357-.44.644-.79.861-.351.217-.777.325-1.278.325-.509 0-.939-.108-1.289-.325-.347-.217-.61-.505-.791-.866-.18-.362-.271-.757-.271-1.186zm1.425-.585v.585c0 .288.066.552.2.79.137.235.379.352.726.352.346 0 .585-.117.714-.352.134-.238.201-.502.201-.79v-.585c0-.289-.063-.553-.19-.791-.126-.242-.368-.363-.725-.363-.343 0-.583.121-.721.363-.137.242-.205.505-.205.791zm-.807 9.011 7.625-11.091h1.354l-7.625 11.091z" fill="#65c566" fill-opacity=".3"/><path d="m664.306 231.531v-.975l3.661-4.007c.43-.469.783-.877 1.061-1.224.278-.35.484-.679.618-.986.137-.31.205-.635.205-.974 0-.39-.093-.728-.281-1.013-.184-.285-.437-.505-.758-.661-.322-.155-.683-.233-1.083-.233-.426 0-.798.089-1.116.266-.314.173-.558.417-.731.731-.17.314-.255.682-.255 1.105h-1.278c0-.65.15-1.221.45-1.712.299-.491.707-.873 1.224-1.148.52-.274 1.103-.411 1.749-.411.65 0 1.226.137 1.727.411.502.275.896.645 1.181 1.11.285.466.428.984.428 1.555 0 .408-.074.807-.222 1.197-.145.386-.397.817-.758 1.294-.358.473-.854 1.05-1.49 1.733l-2.491 2.664v.087h5.156v1.191zm12.851.152c-.816 0-1.511-.222-2.085-.666-.574-.448-1.013-1.096-1.316-1.944-.303-.852-.455-1.881-.455-3.087 0-1.199.152-2.222.455-3.071.307-.852.747-1.502 1.321-1.949.578-.452 1.271-.677 2.08-.677s1.5.225 2.074.677c.578.447 1.018 1.097 1.321 1.949.307.849.461 1.872.461 3.071 0 1.206-.152 2.235-.455 3.087-.303.848-.742 1.496-1.316 1.944-.574.444-1.269.666-2.085.666zm0-1.192c.809 0 1.437-.389 1.885-1.169.447-.78.671-1.892.671-3.336 0-.961-.103-1.778-.309-2.453-.202-.676-.494-1.19-.877-1.544-.379-.354-.836-.531-1.37-.531-.802 0-1.428.396-1.879 1.186-.452.787-.677 1.901-.677 3.342 0 .96.101 1.776.303 2.448.202.671.493 1.182.872 1.532.383.35.843.525 1.381.525zm5.914 1.04v-.975l3.661-4.007c.429-.469.783-.877 1.061-1.224.278-.35.484-.679.617-.986.138-.31.206-.635.206-.974 0-.39-.094-.728-.281-1.013-.185-.285-.437-.505-.759-.661-.321-.155-.682-.233-1.083-.233-.426 0-.798.089-1.115.266-.314.173-.558.417-.731.731-.17.314-.255.682-.255 1.105h-1.278c0-.65.15-1.221.449-1.712.3-.491.708-.873 1.224-1.148.52-.274 1.103-.411 1.75-.411.649 0 1.225.137 1.727.411.502.275.895.645 1.181 1.11.285.466.428.984.428 1.555 0 .408-.074.807-.223 1.197-.144.386-.397.817-.758 1.294-.357.473-.854 1.05-1.489 1.733l-2.491 2.664v.087h5.155v1.191zm12.699.152c-.635 0-1.208-.126-1.717-.379s-.917-.6-1.224-1.04-.474-.942-.503-1.505h1.299c.051.501.278.917.683 1.245.408.325.895.487 1.462.487.455 0 .859-.106 1.213-.319.357-.213.637-.505.839-.877.206-.376.309-.8.309-1.273 0-.484-.106-.915-.319-1.294-.21-.383-.499-.684-.867-.905-.368-.22-.789-.332-1.262-.335-.339-.004-.687.048-1.045.157-.357.104-.652.24-.883.406l-1.256-.152.672-5.459h5.762v1.192h-4.636l-.39 3.271h.065c.227-.181.513-.331.856-.45s.7-.178 1.072-.178c.679 0 1.283.162 1.814.487.534.321.953.762 1.257 1.321.306.56.46 1.199.46 1.917 0 .708-.159 1.34-.477 1.896-.314.552-.747.989-1.299 1.31-.553.318-1.181.477-1.885.477z" fill="#17a1e9" fill-opacity=".3"/><path d="m658.651 250.179v1.614h-4.993v-1.614zm1.84 4.294v-1.597l4.706-7.436h1.332v2.275h-.812l-3.169 5.02v.087h6.569v1.651zm5.29 2.058v-2.545l.022-.715v-7.831h1.896v11.091zm9.166.211c-.892 0-1.657-.225-2.296-.676-.635-.455-1.125-1.111-1.468-1.966-.339-.86-.509-1.894-.509-3.103.004-1.21.175-2.239.515-3.087.343-.852.832-1.502 1.467-1.95.639-.447 1.403-.671 2.291-.671s1.652.224 2.291.671c.639.448 1.128 1.098 1.468 1.95.343.852.514 1.881.514 3.087 0 1.213-.171 2.249-.514 3.108-.34.856-.829 1.509-1.468 1.961-.635.451-1.399.676-2.291.676zm0-1.695c.693 0 1.24-.341 1.641-1.023.404-.686.607-1.695.607-3.027 0-.881-.092-1.621-.277-2.221-.184-.599-.444-1.05-.779-1.354-.336-.306-.733-.46-1.192-.46-.689 0-1.235.343-1.635 1.029-.401.682-.603 1.684-.607 3.006-.003.884.085 1.628.266 2.231.184.603.444 1.058.779 1.365.336.303.735.454 1.197.454zm12.002-.595v-.585c0-.43.091-.825.271-1.186.184-.361.451-.652.802-.872.35-.22.774-.33 1.272-.33.513 0 .942.11 1.289.33.347.217.608.505.785.866.181.361.271.759.271 1.192v.585c0 .429-.09.825-.271 1.186-.18.361-.446.651-.796.872-.346.22-.772.33-1.278.33-.505 0-.933-.11-1.283-.33-.351-.221-.616-.511-.796-.872-.177-.361-.266-.757-.266-1.186zm1.414-.585v.585c0 .285.068.547.205.785.138.238.38.357.726.357.35 0 .59-.117.72-.352.134-.238.201-.501.201-.79v-.585c0-.289-.063-.553-.19-.791-.126-.242-.37-.363-.731-.363-.339 0-.579.121-.72.363-.141.238-.211.502-.211.791zm-7.051-5.762v-.585c0-.433.092-.83.276-1.192.184-.361.451-.649.801-.866.351-.22.775-.33 1.273-.33.509 0 .937.11 1.284.33.35.217.613.505.79.866.177.362.266.759.266 1.192v.585c0 .433-.091.83-.271 1.191-.177.358-.441.645-.791.861-.35.217-.776.325-1.278.325-.509 0-.939-.108-1.289-.325-.346-.216-.61-.505-.79-.866-.181-.361-.271-.757-.271-1.186zm1.424-.585v.585c0 .289.067.552.2.79.138.235.379.352.726.352s.585-.117.715-.352c.133-.238.2-.501.2-.79v-.585c0-.289-.063-.552-.189-.791-.127-.242-.369-.363-.726-.363-.343 0-.583.121-.72.363s-.206.506-.206.791zm-.807 9.011 7.625-11.091h1.354l-7.625 11.091z" fill="#f09a37" fill-opacity=".3"/><path d="m793.499 152.29v-.975l3.661-4.007c.43-.47.783-.878 1.061-1.224.278-.35.484-.679.618-.986.137-.31.206-.635.206-.975 0-.389-.094-.727-.282-1.012-.184-.285-.437-.506-.758-.661s-.682-.233-1.083-.233c-.426 0-.798.089-1.116.266-.314.173-.558.417-.731.731-.17.314-.254.682-.254 1.104h-1.279c0-.649.15-1.22.45-1.711s.708-.874 1.224-1.148c.52-.274 1.103-.412 1.749-.412.65 0 1.226.138 1.728.412.501.274.895.645 1.18 1.11.285.466.428.984.428 1.554 0 .408-.074.807-.222 1.197-.144.387-.397.818-.758 1.295-.358.473-.854 1.05-1.489 1.733l-2.492 2.664v.087h5.156v1.191zm12.851.152c-.816 0-1.511-.222-2.085-.666-.574-.448-1.013-1.096-1.316-1.945-.303-.852-.455-1.881-.455-3.086 0-1.199.152-2.223.455-3.071.307-.852.748-1.502 1.322-1.95.577-.451 1.27-.677 2.079-.677s1.5.226 2.074.677c.578.448 1.018 1.098 1.322 1.95.306.848.46 1.872.46 3.071 0 1.205-.152 2.234-.455 3.086-.303.849-.742 1.497-1.316 1.945-.574.444-1.269.666-2.085.666zm0-1.192c.809 0 1.437-.39 1.885-1.169.447-.78.671-1.892.671-3.336 0-.961-.103-1.778-.308-2.454-.203-.675-.495-1.189-.878-1.543-.379-.354-.836-.531-1.37-.531-.801 0-1.428.396-1.879 1.186-.451.787-.677 1.901-.677 3.342 0 .96.101 1.776.303 2.447.202.672.493 1.183.872 1.533.383.35.843.525 1.381.525zm5.914 1.04v-.975l3.661-4.007c.429-.47.783-.878 1.061-1.224.278-.35.484-.679.617-.986.138-.31.206-.635.206-.975 0-.389-.094-.727-.281-1.012-.184-.285-.437-.506-.758-.661-.322-.155-.683-.233-1.084-.233-.426 0-.797.089-1.115.266-.314.173-.558.417-.731.731-.17.314-.255.682-.255 1.104h-1.278c0-.649.15-1.22.45-1.711.299-.491.707-.874 1.224-1.148.519-.274 1.102-.412 1.749-.412.65 0 1.225.138 1.727.412s.896.645 1.181 1.11c.285.466.428.984.428 1.554 0 .408-.074.807-.222 1.197-.145.387-.398.818-.759 1.295-.357.473-.853 1.05-1.489 1.733l-2.491 2.664v.087h5.156v1.191zm12.916.152c-.455-.008-.91-.094-1.365-.26s-.87-.446-1.246-.84c-.375-.397-.676-.933-.904-1.608-.227-.679-.341-1.531-.341-2.556 0-.982.092-1.852.276-2.61.184-.762.451-1.403.802-1.923.35-.523.772-.921 1.267-1.191.498-.271 1.059-.407 1.684-.407.621 0 1.173.125 1.657.374.488.246.885.589 1.192 1.029.306.441.505.948.595 1.522h-1.321c-.123-.498-.361-.912-.715-1.24-.354-.329-.823-.493-1.408-.493-.859 0-1.536.374-2.031 1.121-.491.747-.738 1.796-.742 3.146h.087c.202-.307.442-.568.72-.785.282-.22.592-.39.932-.509.339-.119.698-.179 1.077-.179.636 0 1.217.159 1.744.477.527.314.95.749 1.267 1.305.318.552.477 1.186.477 1.901 0 .686-.154 1.314-.46 1.884-.307.567-.739 1.019-1.295 1.354-.552.332-1.202.495-1.949.488zm0-1.192c.455 0 .863-.113 1.224-.341.364-.227.651-.532.861-.915.213-.383.319-.809.319-1.278 0-.459-.103-.876-.308-1.251-.203-.379-.482-.681-.84-.905-.354-.223-.758-.335-1.213-.335-.343 0-.662.068-.958.205-.297.134-.556.318-.78.553-.221.235-.394.504-.52.807-.127.299-.19.615-.19.947 0 .441.103.853.309 1.235.209.383.495.692.856.926.364.235.778.352 1.24.352z" fill="#17a1e9" fill-opacity=".3"/><path d="m785.497 175.514v-7.495h1.7v7.495zm-2.897-2.898v-1.7h7.495v1.7zm13.721 4.826c-.722 0-1.368-.136-1.939-.406-.57-.275-1.023-.65-1.359-1.127-.332-.476-.509-1.022-.531-1.635h1.95c.036.455.233.826.59 1.115.358.285.787.428 1.289.428.394 0 .744-.09 1.051-.271.307-.18.549-.431.725-.752.177-.322.264-.688.26-1.1.004-.419-.084-.791-.265-1.115-.18-.325-.428-.58-.742-.764-.314-.188-.675-.282-1.083-.282-.332-.003-.659.058-.98.185-.321.126-.576.292-.764.498l-1.814-.298.58-5.719h6.433v1.679h-4.771l-.319 2.941h.065c.205-.242.496-.443.871-.602.376-.162.787-.243 1.235-.243.672 0 1.271.159 1.798.476.527.314.942.748 1.246 1.3.303.552.455 1.184.455 1.895 0 .733-.17 1.387-.509 1.961-.336.57-.804 1.02-1.403 1.348-.596.325-1.285.488-2.069.488zm5.795-.152v-1.451l3.85-3.775c.368-.372.675-.702.921-.991.245-.289.429-.569.552-.839.123-.271.184-.56.184-.867 0-.35-.079-.65-.238-.899-.159-.253-.377-.447-.655-.585-.278-.137-.594-.205-.948-.205-.365 0-.684.075-.959.227-.274.148-.487.359-.639.634-.148.274-.222.601-.222.98h-1.911c0-.704.16-1.316.482-1.836.321-.52.763-.922 1.327-1.208.566-.285 1.216-.428 1.949-.428.744 0 1.397.139 1.961.417.563.278 1 .659 1.31 1.143.314.484.471 1.036.471 1.657 0 .415-.079.823-.238 1.224s-.439.845-.839 1.332c-.398.488-.955 1.078-1.674 1.771l-1.912 1.944v.076h4.831v1.679zm15.401-2.08v-.584c0-.43.091-.825.271-1.186.184-.361.451-.652.802-.872.35-.22.774-.331 1.272-.331.513 0 .943.111 1.289.331.347.216.609.505.785.866.181.361.271.758.271 1.192v.584c0 .43-.09.825-.271 1.186-.18.362-.445.652-.796.872-.346.221-.772.331-1.278.331-.505 0-.933-.11-1.283-.331-.35-.22-.616-.51-.796-.872-.177-.361-.266-.756-.266-1.186zm1.414-.584v.584c0 .286.068.547.206.786.137.238.379.357.725.357.35 0 .591-.117.721-.352.133-.238.2-.502.2-.791v-.584c0-.289-.063-.553-.19-.791-.126-.242-.37-.363-.731-.363-.339 0-.579.121-.72.363-.141.238-.211.502-.211.791zm-7.051-5.762v-.585c0-.434.092-.831.276-1.192s.451-.65.802-.866c.35-.22.774-.331 1.272-.331.509 0 .937.111 1.284.331.35.216.613.505.79.866s.266.758.266 1.192v.585c0 .433-.091.83-.271 1.191-.177.357-.441.644-.791.861s-.776.325-1.278.325c-.509 0-.939-.108-1.289-.325-.346-.217-.61-.505-.79-.866-.181-.361-.271-.757-.271-1.186zm1.424-.585v.585c0 .288.067.552.201.79.137.235.379.352.725.352.347 0 .585-.117.715-.352.134-.238.2-.502.2-.79v-.585c0-.289-.063-.553-.189-.791-.127-.242-.368-.363-.726-.363-.343 0-.583.121-.72.363s-.206.505-.206.791zm-.807 9.011 7.625-11.091h1.354l-7.625 11.091z" fill="#65c566" fill-opacity=".3"/><path d="m404.449 182.014s8.324 18.634 4.382 27.706c-3.943 9.072-28.08 42.167-28.08 42.167s-13.145 9.87-20.884 13.096c-7.738 3.227-19.712 6.528-26.702 5.946l-6.99-.574s-2.195 2.478-1.541 5.072c.654 2.595 1.042 3.302 2.961 6.511 1.92 3.21 2.376 1.539 2.6 4.765s-.628 8.814-.628 8.814l-.577 2.345s-1.549-6.91-5.285-9.496c-3.745-2.594-8.789-5.314-11.398-8.191-2.608-2.877-7.179-7.583-7.032-9.254.146-1.672.611-3.135.611-3.135s1.256-1.522 1.764-4.807c.508-3.284 0-6.419 0-6.419s-3.839-3.758-7.704-9.421-11.862-19.791-11.862-19.791-3.977-3.442 2.307-3.916 8.909 1.954 8.909 1.954 20.118 14.81 22.872 15.924c2.755 1.114 2.591-5.738 4.089-15.924s7.481-40.146 24.843-50.316c17.363-10.169 27.202-9.346 27.977-9.346s25.385 16.281 25.385 16.281h-.017z" fill="#fbfcfc"/><path d="m360.117 345.859s5.526-.308 8.083-1.53c2.556-1.222 3.03-1.646 3.03-1.646l-.146-7.16s-.982-1.43-1.8-3.833c-.817-2.403-.163-7.359.517-7.683.68-.325 1.429.016 1.429.016s3.116 3.31 4.39 4.565c1.274 1.256 1.377 2.096 2.772 2.096 1.394 0 2.944.075 5.32-2.453s5.276-6.295 8.066-6.403c2.789-.108 3.753-.981 4.941.773 1.188 1.755 1.308 5.039 3.744 5.912 2.436.874 3.624-.898 5.363.923s.31 6.985 1.842 7.692 3.047.765 3.314 2.22-2.556 9.588-3.52 11.184c-.965 1.597-1.421 2.586-3.865 3.401-2.445.815-7.937 2.919-8.807 2.087-.869-.831-.835-3.675-.835-3.675l-3.047 1.347s-1.868 5.172-3.366 5.122-2.763 0-2.763 0c-.663-3.026-.887-6.544-.887-6.544h-1.954l-6.275 5.056-12.645 9.163-9.134 5.322-3.572 1.455s1.679-4.008 4.76-7.916c3.082-3.908 6.982-7.484 6.181-11.658s-1.153-7.825-1.153-7.825h.017z" fill="#fbfcfc"/><path d="m373.212 364.259c.878 1.422 1.618 2.37 1.3 3.6-.319 1.231-2.023 4.673-3.177 6.046-1.153 1.372-2.048 3.534-2.048 3.534s16.725-1.323 20.074-1.738c3.348-.416 3.968-1.755 5.845 0 1.876 1.754 2.634 1.904 1.653 2.719-.982.815-3.53 1.829-4.967 2.552l-1.438.724s2.075 1.031 1.326 2.927-10.657 4.748-10.657 4.748 2.703.782 1.876 1.929c-.826 1.148-2.393 3.085-4.915 3.767s-17.07 4.981-18.809 4.848c-1.738-.133-13.893-2.703-15.899-3.235s-8.565-2.752-10.089-2.827c-1.523-.075-29.526-1.422-29.526-1.422s2.049-4.756 4.735-8.731 7.127-9.363 7.127-9.363 15.202 4.806 17.664 5.654 7.446-.457 10.089-1.721 7.661-4.299 10.175-4.706c2.514-.408 4.304-1.14 4.304-1.14s2.273-.465 6.749-3.583c4.476-3.119 5.311-4.582 6.955-4.582z" fill="#fbfcfc"/><path d="m345.792 654.415s-.757 5.322 0 7.026c.758 1.705 3.271 6.935 9.96 9.663 6.697 2.727 16.631 5.712 20.797 6.768s5.845 1.023 6.68 1.955c.835.931.818 2.328.56 2.544-.259.216-1.886 1.281-4.373 1.597-2.488.324-10.795.665-16.623.108-5.827-.558-18.094-2.778-22.631-3.576-4.545-.798-9.494-2.303-9.916-2.661-.422-.357-.87-1.472-.87-1.472s1.748-6.195 1.748-8.639c0-2.445-1.171-11.825-1.171-11.825l15.848-1.488z" fill="#fbfcfc"/><path d="m278.551 663.868s-1.274 5.796-.757 8.74c.516 2.943 1.894 8.739 1.894 8.739l-.758 2.154s-2.892 8.93-4.803 10.452-3.073 3.858-6.861 4.332-13.403 1.314-17.251.125-10.114-1.231-10.381-1.954c-.267-.724.353-2.162 2.539-3.933 2.187-1.771 8.23-6.079 8.23-6.079s7.196-3.584 9.228-9.953c2.031-6.37 3.322-8.141 3.09-10.261-.233-2.121.706-4.091.706-4.091l15.124 1.721z" fill="#fbfcfc"/><path d="m349.031 398.112-3.254 18.335s-4.992 2.503-9.899 4.241-13.377 4.482-18.68 4.531c-7.239.067-19.075-2.037-22.915-3.667-3.839-1.629-8.461-5.621-8.461-5.621l-.465-16.364 12.516 5.596 2.006.308 3.873-4.017s6.129 2.445 13.438 2.254c7.308-.191 19.239-3.21 19.239-3.21l8.642-3.409 3.943 1.023z" fill="#fbfcfc"/><path d="m329.391 676.354s-3.004 8.199-2.978 11.583c.026 3.385.43 4.948.43 4.948l.456 2.079.603 4.872s20.53 2.786 29.113 2.778c8.582-.009 33.175-.383 33.175-.383l6.921-1.729 2.368-5.888s2.315-3.949 0-6.228c-2.316-2.278-3.22-3.484-7.343-5.28s-8.892-3.293-8.892-3.293 1.876 2.121-.637 3.293c-2.514 1.172-3.831 1.813-11.742 1.389s-22.639-2.936-29.018-3.784-8.272-.416-10.364-2.395l-2.092-1.97z" fill="#d4d4d6"/><path d="m279.668 681.344s2.548 2.86 3.693 5.147c1.144 2.287 3.116 7.359 3.185 7.924.068.566-.095 2.47-.095 2.47l-.611 5.738-9.013 7.201s-7.653 4.789-11.32 6.843-4.338 1.996-10.261 1.921c-5.922-.075-14.866-.482-18.628-1.746-3.761-1.264-5.802-1.763-6.809-4.416-1.007-2.652-2.694-9.23 2.712-14.801 2.049-2.112 14.651-8.964 14.651-8.964s-8.359 4.84-7.618 6.627c.74 1.788 1.403 3.06 6.241 2.844 4.837-.216 6.731-.366 11.827-.183s6.379 1.605 10.571.474 3.977-1.347 6.611-5.596 4.855-11.475 4.855-11.475z" fill="#d4d4d6"/><path d="m345.809 416.451 8.78 114.917 5.553 77.656.18 14.809s3.59-.798 5.406 1.215c1.817 2.012.732 19.116.732 19.116s-2.143 4.79-13.282 7.235c-11.131 2.444-17.303 3.633-24.069 3.875 0 0-4.743.449-10.287 0-5.543-.45-7.575-.832-7.936-2.836-.362-2.004-2.29-12.756-2.29-12.756s-1.825-4.224-.973-5.77c.852-1.547 5.079-2.869 5.079-2.869l-4.106-54.357-8.668 59.978s3.253.981 3.873 2.253c.62 1.273.336 3.784.215 4.699-.12.914-1.394 9.454-2.41 11.915-1.016 2.462-.955 3.917-2.78 5.031s-10.485 2.811-15.839 3.268c-5.355.457-21.357-1.78-25.42-3.052s-10.614-3.65-12.25-5.297c-1.635-1.646-2.117-3.334-2.117-3.334l3.564-18.235s.241-2.47 2.522-2.088l2.281.383s.293-4.881 2.574-16.863c2.281-11.983 6.955-42.392 8.393-54.033 1.437-11.641 6.585-61.616 6.421-70.805-.172-9.196-2.22-22.484-2.109-26.683.112-4.2 2.376-17.163 6.956-25.844 4.579-8.681 12.068-22.019 12.068-22.019s6.026 5.837 14.066 7.509c8.032 1.671 12.551 3.11 18.336 1.954 5.784-1.156 19.282-5.355 19.282-5.355l8.264-3.592v-.025z" fill="#eaeaea"/><path d="m330.977 270.773-5.484-.973s-1.541 2.836-1.635 5.389c-.095 2.552 2.479 5.862 3.46 7.35.982 1.489 2.376 3.859 2.867 6.578.49 2.719-1.946 9.911-1.946 9.911l-1.919-4.856s-1.343-2.985-2.953-5.064c-1.61-2.078-2.014-1.688-5.105-3.633-3.09-1.946-5.509-3.767-8.332-5.713-2.824-1.946-4.967-6.877-6.017-9.479-1.051-2.603-.164-3.202-.164-3.202s1.877-1.339 2.686-2.761c.809-1.421.249-2.344.249-2.344h-1.997s-4.485.523-5.061.765c-.577.241-1.386 1.571-1.98 5.587-.594 4.017-4.218 3.343-5.389 4.981-1.463 2.046-.396 4.682-.396 4.682s-.077.848-.697 1.147c-.62.3-5.733 6.237-8.47 10.162-2.738 3.924-10.124 18.235-17.225 33.818-7.094 15.583-10.959 30.575-13.025 39.389-2.065 8.814 3.538 13.687 7.748 17.87 4.209 4.182 22.777 14.26 22.777 14.26s.034 2.187.749 3.501c.714 1.314 1.67 1.422 3.107 2.054l12.017 5.272 4.95-4.016s5.966 1.746 10.218 2.27c4.244.524 8.513-.466 11.457-.599s10.941-2.619 13.67-3.401 6.121-2.461 6.121-2.461l-11.931-3.409-29.526-1.422s1.42-3.318 3.632-7.002c2.213-3.684 8.23-11.092 8.23-11.092l4.743 1.363s15.615 4.665 16.88 4.582c1.266-.083 11.518-4.582 11.518-4.582s.25-.806.999-2.453c.749-1.646 2.393-3.584 4.364-6.003 1.971-2.42 5.01-6.095 6.422-8.449 1.411-2.353.688-8.564 0-11.566-.689-3.002-3.151-11.783-3.151-11.783s-2.479-16.622-3.021-20.09c-.543-3.467-2.884-18.468-3.848-21.254-.964-2.785-2.367-4.157-5.441-7.342-3.073-3.185-5.672-3.692-5.672-3.692s-.31-.964-1.085-2.835-2.798-4.99-4.072-6.636l-3.288-2.827h-.034z" fill="#d4d4d6"/><path d="m403.175 185.731s2.135 3.717 2.187 9.329c.06 5.622-.121 11.9-1.283 15.841s-3.503 9.837-5.621 13.146c-2.117 3.31-8.264 13.197-9.615 14.943-1.352 1.746-5.346 6.569-6.973 8.099s-4.657 3.95-4.657 3.95.792.366 3.538.848 19.713-4.781 24.697-7.683 10.554-6.993 11.793-8.806c1.24-1.813 2.015-3.609 2.015-3.609s2.573-17.312 1.454-29.769c-1.119-12.448-.525-16.755-4.157-29.552-3.633-12.797-5.028-18.651-9.03-26.044-4.003-7.384-9.865-16.547-13.713-20.372-3.857-3.825-8.849-8.182-11.638-9.928-2.789-1.747-5.699-3.376-5.699-3.376s-1.171-2.445-7.222-6.952c-6.052-4.507-10.141-8.0076-16.674-9.5626-6.534-1.5549-10.795-2.6276-15.719-2.0954s-9.692.9147-15.202 2.9768c-5.509 2.0622-9.873 3.5842-15.572 7.0682-5.707 3.484-18.852 13.421-22.484 16.223-3.633 2.802-12.706 9.654-16.433 12.14-3.728 2.486-13.222 7.592-13.791 8.532-.568.939-.8 2.885.267 6.918 1.068 4.033 5.337 17.071 7.946 22.842 2.608 5.771 6.241 14.668 12.542 24.031 6.292 9.363 6.18 9.197 6.18 9.197s-.628 2.869 1.378 8.041c2.005 5.172 7.239 16.913 7.239 16.913s-.551-1.231 2.608-2.212c3.16-.981 5.69-1.156 5.69-1.156l2.712.3s15.314 11.974 21.426 14.934c6.111 2.96 11.216 5.056 11.216 5.056s-.697-15.583 1.326-24.256 6.068-19.549 10.114-25.046c4.046-5.496 8.91-11.275 15.839-15.591 6.93-4.315 15.151-8.032 15.151-8.032s-10.055 6.818-12.697 10.045c-2.643 3.226-6.104 7.192-7.644 12.298-1.541 5.105-2.316 10.535-2.316 10.535s9.443-10.685 17.035-14.227c7.593-3.542 16.881-8.091 24.344-7.476 7.464.616 9.435 1.53 9.435 1.53h.008z" fill="#d4d4d6"/><path d="m410.548 357.599s1.033 1.488 1.472 2.578c.439 1.089.542 3.018.542 3.018l-.137.915-15.125 13.163s-2.479-2.029-4.261-1.979-12.129 1.197-12.129 1.197-9.925.981-10.768.965c-.844-.017 4.923-9.222 4.424-10.519s-1.343-2.129-1.343-2.129l3.788-5.139 12.275-1.014s15.073-.823 17.345-1.064c2.273-.242 3.926 0 3.926 0h-.009z" fill="#d4d4d6"/><path d="m398.797 332.221c-.258-.025-1.997 6.178-5.019 13.155-2.789 6.444-3.934 13.221-6.232 13.429-1.747.158-3.848.873-3.762-2.029.078-2.694 1.076-11.758 1.076-11.758s.611-7.758.689-9.97" stroke="#61615f" stroke-linecap="round" stroke-linejoin="round" stroke-width="1.25"/><path d="m301.354 637.841c2.264 1.197 3.452.499 2.918 3.733-.586 3.543-1.748 18.51-7.3 20.082-23.242 6.577-54.765-3.459-53.809-9.538.404-2.594 1.928-11.051 2.324-12.506 1.506-5.505.413-9.022 6.043-7.442" stroke="#61615f" stroke-dasharray="165.57 3.6 1.2 3.6" stroke-linecap="round" stroke-linejoin="round" stroke-width="1.25"/><path d="m302.469 641.169c-1.799 1.338-27.34 7.192-53.216-6.195" stroke="#61615f" stroke-dasharray="165.57 3.6 1.2 3.6" stroke-linecap="round" stroke-linejoin="round" stroke-width="1.25"/><path d="m326.151 270.354c7.067.324 12.964 11.749 12.964 11.749s3.305 10.951 7.179 12.972c4.356 2.278-.835 1.987-2.961.615-2.841-1.846-4.606-9.571-8.428-7.484-2.591 1.414-5.328 6.312-6.43 10.137" stroke="#61615f" stroke-linecap="round" stroke-linejoin="round" stroke-width="1.25"/><path d="m339.132 282.104c1.575 1.963 8.1 4.607 11.07 11.185 3.409 7.558 2.479 15.042 7.79 45.509" stroke="#61615f" stroke-linecap="round" stroke-linejoin="round" stroke-width="1.25"/><path d="m282.961 395.067c-6.37-3.326-14.677-8.756-19.153-11.916-16.287-11.5-11.88-18.959-8.135-33.918 2.281-9.105 24.438-66.747 38.616-71.977" stroke="#61615f" stroke-linecap="round" stroke-linejoin="round" stroke-width="1.25"/><path d="m345.258 397.265c-2.617 1.555-9.65 4.008-21.357 5.804-8.126 1.247-14.548.723-20.109-1.613" stroke="#61615f" stroke-linecap="round" stroke-linejoin="round" stroke-width="1.25"/><path d="m349.047 398.143c-1.868 8.423-3.254 18.302-3.254 18.302-3.615.848-34.054 20.023-59.947-.516 0-2.811.026-9.172-.465-16.365" stroke="#61615f" stroke-linecap="round" stroke-linejoin="round" stroke-width="1.25"/><path d="m328.477 455.569c-5.613 1.564-8.411 13.987-11.269 42.076-5.56 54.706-18.464 149.367-17.224 143.638" stroke="#61615f" stroke-linecap="round" stroke-linejoin="round" stroke-width="1.25"/><path d="m250.55 634.972c6.62-16.39 14.118-101.58 17.363-130.376 2.737-24.297-.68-31.423-1.093-40.803-.818-18.626 16.872-42.042 19.024-47.862" stroke="#61615f" stroke-linecap="round" stroke-linejoin="round" stroke-width="1.25"/><path d="m324.156 403.133c-.688 3.775-2.858 15.915-3.004 21.32" stroke="#61615f" stroke-linecap="round" stroke-linejoin="round" stroke-width="1.25"/><path d="m382.399 679.348c10.028 3.177 22.88 8.922 16.407 15.674-2.127 2.221-23.578 2.437-41.233 1.813-15.478-.54-29.922-2.727-30.749-3.95-1.3-1.92.586-11.782 2.471-16.905 0 0-1.025 2.379 6.327 3.709 7.351 1.331 26.065 5.139 36.619 4.865 16.751-.441 11.509-4.773 10.166-5.206" stroke="#61615f" stroke-linecap="round" stroke-linejoin="round" stroke-width="1.25"/><path d="m389.547 232.902-1.042-.424c-.267-.108-.559.083-.559.358v.956c0 .291.327.482.594.349l1.041-.532c.302-.158.284-.574-.034-.707z" fill="#61615f"/><path d="m348.069 219.54-2.212-.882c-.405-.157-.801.242-.611.624l.792 1.647c.12.241.422.34.663.207l1.42-.765c.353-.191.318-.681-.052-.831z" fill="#61615f"/><g stroke="#61615f"><path d="m297.832 318.202c-.663.142-5.699 12.772-8.144 20.83-2.444 8.057-2.203 16.83-2.203 16.83s.284 1.505 4.975 4.557c4.692 3.051 7.868 3.85 7.868 3.85" stroke-linecap="round" stroke-linejoin="round" stroke-width="1.25"/><path d="m287.484 356.287s-5.991-1.289-10.157.515c-4.167 1.805-7.3 4.965-7.3 4.965" stroke-linecap="round" stroke-linejoin="round" stroke-width="1.25"/><path d="m400.461 692.173-3.357 8.34c-.19.466-.611.798-1.119.873-3.633.541-19.265 1.879-35.802 1.073-18.542-.898-27.046-2.046-30.808-2.52-2.083-.266-1.309-1.413-1.438-2.012l-1.222-5.555" stroke-linecap="round" stroke-linejoin="round" stroke-width="1.25"/><path d="m394.663 352.052c-.577.366-1.937 4.382 1.024 3.925 1.489-.233 9.538-1.788 10.846-3.85 2.247-3.543 5.776-10.502 4.476-12.781-.869-1.513-2.582-1.713-3.314-2.22-1.446-1.014-.482-4.923-1.033-6.386-.921-2.436-2.668-1.904-4.502-1.904-1.833 0-2.436-.882-2.436-.882-1.36-1.472-1.661-5.23-4.011-5.97-6.413-2.004-10.02 4.856-12.697 6.852-2.677 1.995-4.141 2.644-6.103 1.006-2.273-1.896-6.009-7.592-7.094-5.837-3.512 5.671.534 8.298 1.283 11.516.611 2.628.276 6.985.146 7.16-1.076 1.388-8.16 3.542-11.113 3.176" stroke-linecap="round" stroke-linejoin="round" stroke-width="1.25"/><path d="m404.93 338.887s-4.21 7.691-5.2 9.238-3.081 3.102-5.707 4.216c-2.625 1.114-3.082 1.339-3.082 1.339" stroke-linecap="round" stroke-linejoin="round" stroke-width="1.25"/><path d="m381.961 352.26s-20.806 17.553-31.626 20.996" stroke-linecap="round" stroke-linejoin="round" stroke-width="1.25"/><path d="m383.719 352.826s-4.881-1.763-6.723-4.291" stroke-linecap="round" stroke-linejoin="round" stroke-width="1.25"/><path d="m362.88 377.098s3.865.724 13.368.058c4.304-.299 16.889-2.852 18.973-1.455 1.807 1.214 2.281 2.42.68 3.526-.465.316-2.161 1.106-3.986 1.738-4.511 1.563-10.45 3.351-13.661 4.066-4.519.998-9.538 1.497-9.538 1.497" stroke-linecap="round" stroke-linejoin="round" stroke-width="1.25"/><path d="m364.136 393.137s7.119-1.073 13.584-2.753c6.465-1.679 13.377-4.964 14.074-5.762.698-.799-.043-2.861-1.325-2.927-1.283-.067-3.435.881-3.435.881" stroke-linecap="round" stroke-linejoin="round" stroke-width="1.25"/><path d="m303.771 392.431 29.526 1.422s20.273 6.053 25.98 6.061c1.85 0 4.312-.815 10.932-2.503s12.775-4.639 12.783-6.12c0-1.172-.542-1.671-1.876-1.929" stroke-linecap="round" stroke-linejoin="round" stroke-width="1.25"/><path d="m315.639 374.345c.327.307 17.828 6.876 21.624 5.945s8.161-2.686 11.518-4.582c8.143-4.598 6.654.192 21.21-10.66 2.264-1.688 4.941.216 4.519 2.819-.705 4.324-6.395 9.571-6.395 9.571" stroke-linecap="round" stroke-linejoin="round" stroke-width="1.25"/><path d="m320.381 375.709s3.047-7.75 2.384-8.54c-.585-.69-11.931-6.178-14.763-7.4-.413-.175-.844-.067-1.257.1-10.923 4.39-22.613 31.332-23.724 35.888-.258 1.056.284 2.902 1.309 3.351l14.496 6.362s4.949-2.878 12.835-12.656" stroke-linecap="round" stroke-linejoin="round" stroke-width="1.25"/><path d="m321.148 368.583c-9.477 7.126-22.338 30.509-22.338 34.849" stroke-linecap="round" stroke-linejoin="round" stroke-width="1.25"/><path d="m404.93 351.678s-1.765.233-2.591-1.148" stroke-linecap="round" stroke-linejoin="round" stroke-width="1.25"/><path d="m398.797 346.391s-.103.832-2.083-1.239" stroke-linecap="round" stroke-linejoin="round" stroke-width="1.25"/><path d="m349.068 310.45s10.313 33.128 11.484 36.779c2.315 7.192-.646 13.337-2.583 15.624-2.608 3.085-8.203 8.739-9.193 12.847" stroke-linecap="round" stroke-linejoin="round" stroke-width="1.25"/><path d="m303.926 265.166c-2.376 2.736 2.083 11.4 8.91 16.938 5.578 4.532 9.899 5.139 12.74 10.211 3.675 6.569 2.143 6.029 2.901 6.711" stroke-linecap="round" stroke-linejoin="round" stroke-width="1.25"/><path d="m305.805 261.981s-3.797.059-5.725.558c-1.928.498-1.575 4.274-2.436 5.795-1.704 3.019-3.83 3.701-5.862 5.33-2.273 1.813.077 4.324.077 4.324" stroke-linecap="round" stroke-linejoin="round" stroke-width="1.25"/><path d="m293.531 276.568s2.694.682 6.662 11.093c3.022 7.924 4.451 14.103 5.897 15.683 1.438 1.579 1.765 1.089 2.471-1.58.688-2.62 4.114-20.539 17.009-9.447" stroke-linecap="round" stroke-linejoin="round" stroke-width="1.25"/><path d="m333.305 393.862c-2.17 7.883-1.799 7.8-1.799 7.8" stroke-linecap="round" stroke-linejoin="round" stroke-width=".52"/><path d="m329.13 300.673c-.421 3.833 4.821 17.254 9.117 29.719 4.295 12.464 8.435 20.58 7.618 28.114-.749 6.835-5.165 14.335-8.583 21.786" stroke-linecap="round" stroke-linejoin="round" stroke-width=".52"/><path d="m325.505 269.798c-.526-.774 3.977 2.577 7.635 10.859 1.489 3.376 1.782 5.63 1.782 5.63" stroke-linecap="round" stroke-linejoin="round" stroke-width=".52"/><path d="m345.793 416.457 14.746 210.376" stroke-linecap="round" stroke-linejoin="round" stroke-width="1.25"/><path d="m362.883 625.725s-10.278 5.696-29.474 7.525c-18.534 1.763-23.845.316-23.845.316" stroke-linecap="round" stroke-linejoin="round" stroke-width="1.25"/><path d="m308.423 574.628 4.382 59.263" stroke-linecap="round" stroke-linejoin="round" stroke-width="1.25"/><path d="m360.323 623.829 4.175.59c1.033.15 1.808.998 1.817 2.013l.146 17.736c0 .956-.499 1.855-1.343 2.353-3.047 1.83-11.457 5.979-27.357 7.925-14.048 1.713-21.296 1.006-24.481.382-1.24-.241-2.195-1.189-2.393-2.386l-3.263-17.87c-.215-1.28.654-2.494 1.971-2.752l3.108-.782" stroke-linecap="round" stroke-linejoin="round" stroke-width="1.25"/><path d="m403.176 185.732c2.875 3.734 3.65 21.021-1.214 31.482-4.863 10.461-15.245 27.216-24.748 33.826 2.539 3.842 35.577-5.762 41.646-18.143 3.805-7.75 8.29-93.664-42.386-120.131-7.954-7.966-32.995-37.5603-83.37 0-10.898 9.105-28.278 22.193-35.354 25.611-7.067 3.417-4.717 3.983-4.416 7.966.293 3.983 19.739 77.132 79.247 99.609-.775-4.316-4.416-55.754 42.205-72.402-4.08 1.597-21.081 12.324-22.424 32.339 3.753-4.266 24.637-26.892 50.823-20.173 2.212-4.058 1.584-6.253-1.214-15.666-2.393-8.033-16.459-49.534-25.48-57.292" stroke-linecap="round" stroke-linejoin="round" stroke-width="1.17"/><path d="m354.023 213.053c-1.231-1.572-8.461-5.68-12.998-3.842" stroke-linecap="round" stroke-linejoin="round" stroke-width="1.17"/><path d="m396.344 227.365c-1.403-1.954-3.753-3.484-7.498-3.917" stroke-linecap="round" stroke-linejoin="round" stroke-width="1.17"/><path d="m365.575 241.325c3.09 2.819-3.288 9.712-8.918 2.753" stroke-linecap="round" stroke-linejoin="round" stroke-width="1.17"/><path d="m359.867 258.405c-2.1 2.778-13.807 5.871-23.009-5.122" stroke-linecap="round" stroke-linejoin="round" stroke-width="1.17"/><path d="m279.864 203.483c-.766 6.811 14.935 45.601 37.385 61.675 8.54 6.12 20.798 9.645 40.657.715 10.751-4.84 13.996-7.326 22.828-13.986" stroke-linecap="round" stroke-linejoin="round" stroke-width="1.17"/><path d="m299.914 225.976c-3.891-.948-8.556.39-11.01 3.068" stroke-linecap="round" stroke-linejoin="round" stroke-width="1.17"/><path d="m325.513 269.797c-4.554 7.65 1.558 10.244 4.27 17.37.413 1.098.49 2.287.232 3.426-.508 2.221-1.334 6.004-1.515 7.742" stroke-linecap="round" stroke-linejoin="round" stroke-width="1.25"/><path d="m303.938 267.085c4.097-1.746 2.582-7.184 1.876-11.924" stroke-linecap="round" stroke-linejoin="round" stroke-width="1.25"/><path d="m345.975 653.132c-.999 7.633-2.41 17.212 26.169 23.607l10.278 2.611" stroke-linecap="round" stroke-linejoin="round" stroke-width="1.25"/><path d="m329.101 655.27c2.091 5.77 2.324 16.314.275 21.095" stroke-linecap="round" stroke-linejoin="round" stroke-width="1.25"/><path d="m278.551 663.868c-2.565 7.126 1.137 17.479 1.137 17.479" stroke-linecap="round" stroke-linejoin="round" stroke-width="1.25"/><path d="m263.427 662.146s-.801 6.103-2.712 11.865c-2.625 7.933-12.387 13.862-12.387 13.862s-10.907 7.367-8.686 8.59c6.078 3.359 14.376.532 24.714 1.862 11.828 1.522 15.332-16.98 15.332-16.98" stroke-linecap="round" stroke-linejoin="round" stroke-width="1.25"/><path d="m279.67 681.345s1.868 1.679 2.892 3.642c.516.998 3.813 6.852 4.063 9.986 0 0-.594 7.11-.775 7.65-.181.541-13.36 11.384-21.236 14.419-6.31 2.437-21.891 1.888-30.447-.89-5.561-1.804-7.016-9.479-4.511-14.942 2.841-6.195 19.945-14.161 19.945-14.161" stroke-linecap="round" stroke-linejoin="round" stroke-width="1.25"/><path d="m286.625 694.976c0 3.234-17.509 13.479-20.53 14.734-11.983 4.964-26.557 1.738-29.019 1.198-6.163-1.347-8.048-4.025-8.47-5.081" stroke-linecap="round" stroke-linejoin="round" stroke-width="1.25"/><path d="m369.303 377.439 9.882-11.342c.396-.482.99-.782 1.636-.823l31.299-1.879c.396-.025.603.449.318.706l-15.339 13.355" stroke-linecap="round" stroke-linejoin="round" stroke-width="1.25"/><path d="m281.062 576.665-11.035 64.917" stroke-miterlimit="10" stroke-width=".52"/><path d="m373.208 364.258 3.15-4.074c.345-.441.87-.723 1.438-.757l31.574-2.112c.861-.058 1.653.433 1.972 1.206l1.282 3.176s.612 1.331-.206 2.403" stroke-linecap="round" stroke-linejoin="round" stroke-width="1.25"/><path d="m379.82 365.34-2.806-5.662" stroke-linecap="round" stroke-linejoin="round" stroke-width=".52"/></g><path d="m412.57 363.194-34.949-3.517-4.39 4.581s1.834 1.348 1.3 3.601-5.225 9.579-5.225 9.579 18.938-2.295 22.114-2.153c3.176.141 3.633.382 4.76 1.18l1.128.799 15.125-13.164.137-.914z" fill="#61615f" opacity=".16"/><path d="m403.151 185.731s2.608-1.472 4.967 7.609c2.359 9.08 2.359 24.862 2.359 32.338 0 7.475-.095 15.649-.095 15.649s-20.049 9.346-24.852 9.953-8.341-.241-8.341-.241 14.41-15.541 17.147-20.064c2.738-4.524 7.515-19.134 6.586-30.301-.93-11.168-5.381-16.157-6.586-16.165s8.815 1.222 8.815 1.222z" fill="#d4d4d6" opacity=".37"/><path d="m392.339 184.51s5.122-1.289-6.447 4.989c-11.57 6.286-32.487 27.39-37.566 33.943-5.079 6.552-17.673 26.168-18.783 37.593-1.111 11.425 0 9.213 0 9.213s-6.086-1.363-8.023-2.453c-1.937-1.089-2.539-2.261-3.159 6.545-.422 5.937 0 10.477 0 10.477l-11.217-8.099c-4.381.765-5.406 7.217-5.526 9.562-.121 2.345-3.254-4.382-5.208-6.619s.379-2.303.379-2.303l-4.933.615.233-2.719c.103-1.214.697-2.345 1.652-3.143 1.197-.99 2.858-2.461 3.9-3.8 1.799-2.295 1.98-5.588 1.98-5.588l6.086.324 1.902-.074v-6.42s-9.374-11.043-13.205-17.703c-3.83-6.661-12.972-24.854-13.764-30.118s-1.662-6.494-1.662-6.494-12.654-20.048-16.458-29.22c-3.805-9.172-11.01-28.921-9.831-30.667s2.841-2.287 8.092-5.654c5.251-3.368 22.553-18.967 37.29-27.491 14.738-8.531 28.381-14.9337 36.947-14.8755 8.565.0582 14.521 1.0726 14.521 1.0726-2.109-.4573-12.154 19.0589-10.553 31.5319s-.129 23.316 10.553 31.448c10.692 8.132 25.214 15.175 25.214 15.175s-6.482 1.846.921 7.06c7.394 5.214 12.077 4.274 12.077 4.274" fill="#d4d4d6" opacity=".37"/><path d="m323.887 290.969s-11.854 11.633-13.885 22.385c-2.032 10.751-.724 29.186 1.695 35.173 2.419 5.996 5.768 15.733 5.768 15.733l-9.426-4.499-7.679 4.499s-4.7-1.497-7.867-3.85c-3.168-2.353-4.976-4.557-4.976-4.557s.189-9.82 1.61-14.626c1.42-4.807 8.737-23.034 8.737-23.034s1.214-17.503-6.043-13.953c-7.257 3.551-17.629 23.308-23.578 38.833-5.948 15.524-12.094 16.713-3.262 25.76s27.701 6.445 27.701 6.445-5.449 6.96 1.661 10.718c7.111 3.759 17.363-5.713 17.363-5.713s17.543 5.896 20.728 7.127c3.185 1.23 19.429 5.721 25.584 5.721s23.147-3.776 23.147-3.776 2.497.965 1.877 1.93c-.62.964-1.24 2.245-6.009 3.899-4.769 1.655-17.707 4.715-17.707 4.715s-8.952-1.164-15.899-3.235c-5.191-1.546-10.089-2.827-10.089-2.827l-21.641-1.039s-6.18 7.101-7.885 8.648c-1.704 1.546-4.949 4.016-4.949 4.016l-14.497-6.361s-2.177-2.453-1.368-4.041c.809-1.589-8.798-4.732-14.978-9.064-6.181-4.332-15.925-11.5-15.822-16.805s5.836-28.438 10.82-40.13c4.984-11.699 16.881-36.969 21.77-42.773 4.89-5.804 7.102-8.299 7.102-8.299s2.255-3.975 5.767 4.116c3.513 8.091 4.537 12.606 6.508 16.922 1.972 4.315 3.926 4.781 4.433 2.735.508-2.045 1.18-9.704 5.071-11.358 3.891-1.655 6.619-5.031 7.506-2.794s2.72 3.359 2.72 3.359z" fill="#d4d4d6" opacity=".37"/><path d="m343.554 398.111s-9.951.724-15.762 9.446c-5.81 8.723-2.203 16.34-2.203 16.34s-13.644 10.244-22.666 23.965c-9.021 13.72-9.744 42.89-12.852 62.314-1.119 6.977-5.38 49.917-9.314 68.094-3.925 18.177-6.49 46.416-9.477 56.694-1.248 4.307-1.248 6.61-1.248 6.61s-11.225-2.702-13.911 2.012c-2.686 4.715-2.737 15.974 0 16.747 2.737.774-4.631-1.397-6.852-2.561s-6.086-5.646-6.086-5.646l2.324-12.506s-.043-7.825 1.834-7.816c1.876.008 4.209.382 4.209.382s3.151-17.537 5.415-32.063c2.263-14.527 7.342-63.72 8.711-75.694 1.369-11.966 4.14-28.63 3.271-39.348-.869-10.719-3.435-22.044-1.412-29.52 2.023-7.475 7.997-21.436 11.234-26.991 3.237-5.563 7.093-12.639 7.093-12.639l.336-16.015 12.654 5.554s5.397-1.347 7.842-5.554c2.445-4.208 4.993-7.102 4.993-7.102l21.64 1.04 10.235 4.257z" fill="#d4d4d6" opacity=".37"/><path d="m328.475 455.571s-4.571 48.428-5.836 66.971-.981 64.194.224 79.411 3.917 32.296 5.621 31.939c1.704-.358-5.346-.89-5.836 7.692-.5 8.573 3.598 13.57 5.836 13.72 2.238.149-7.842.49-11.526 0-3.685-.491-6.086-2.877-6.086-2.877s-5.217-16.872-3.263-17.87 1.085-4.573 3.082-4.058l1.988.524-4.106-54.141s8.376-84.907 10.872-97.796c2.488-12.88 1.929-15.466 4.7-19.108 2.772-3.642 4.339-4.416 4.339-4.416h-.009z" fill="#d4d4d6" opacity=".37"/><path d="m273.773 663.867c-.189-.757-5.38 6.669-8.453 12.489-3.073 5.821-13.704 11.525-16.071 14.793s-2.359 4.831 1.3 5.854c3.658 1.023 5.173 0 5.173 0s-11.302 2.337-16.398 5.621c-5.105 3.285-3.022 14.145-3.022 14.145s-3.495.241-5.251-2.611c-1.756-2.853-4.407-8.648-2.445-11.534 1.963-2.885 5.441-7.375 13.214-11.475 7.782-4.099 14.384-8.091 16.691-12.814s3.22-8.847 3.22-8.847l1.67-7.342z" fill="#d4d4d6" opacity=".37"/><path d="m343.533 653.581s-6.947 12.199-6.534 19.316c.414 7.118.371 9.014 6.388 13.596s35.457 2.336 44.736 5.804c9.28 3.467 5.604 9.438 5.604 9.438s-27.029 1.072-33.554.732c-6.517-.35-30.809-2.52-30.809-2.52l-2.548-7.043s-2.298 2.062-1.248-1.738 2.574-10.594 3.796-14.793 2.109-10.585 2.109-10.585l-1.541-9.879 13.592-2.311v-.017z" fill="#d4d4d6" opacity=".37"/><path d="m406.539 352.121s-1.558.748-4.201-1.597c-2.642-2.345-1.678-3.966-1.678-3.966s-2.04.923-3.917-1.406c-1.877-2.328-.689-3.908-.689-3.908l-5.122 12.44 3.728-1.63s-1.36 3.65-.172 3.783 2.901-.906 6.662-1.097c3.762-.191 5.372-2.619 5.372-2.619z" fill="#d4d4d6" opacity=".37"/><path d="m387.578 358.807v-13.529c.164-8.714 5.225-17.371 2.238-17.154-2.987.216-6.688 5.77-9.434 7.109s-6.198-.025-8.032-3.01c-1.833-2.985-3.03-6.095-3.03-6.095s-1.687.54-.817 3.16c.869 2.619 2.617 6.236 2.617 6.236l.146 7.16s-3.375 2.07-6.121 2.586c-2.746.515-4.992.582-4.992.582s1.592 1.713 1.282 5.837-.551 7.625-2.789 10.311 4.657-4.973 10.674-8.324c6.018-3.351 8.316-4.448 8.316-4.448l6.112 3.592s-.904 5.979 0 5.979" fill="#d4d4d6" opacity=".37"/><path d="m388.481 489.925 93.145 36.146 89.668-15.293 93.839-34.06h72.291v202.276h-348.943-167.52-104.961v-237.031l104.961 21.548 71.596 40.316z" fill="url(#c)" fill-opacity=".08"/><path d="m385.016 490.624 95.229 37.535 99.4-15.987 87.583-35.45h70.901" stroke="#0b6bd4" stroke-width="3"/><path d="m479.035 444.936h1.473l1.234 1.625.325.433 1.842 2.448h-1.474l-1.213-1.625-.303-.411zm5.328-2.079c0 1.17-.211 2.181-.633 3.033-.423.852-1.002 1.509-1.739 1.971-.736.462-1.577.693-2.523.693s-1.787-.231-2.524-.693c-.736-.462-1.316-1.119-1.738-1.971-.423-.852-.634-1.863-.634-3.033s.211-2.181.634-3.033c.422-.852 1.002-1.509 1.738-1.971.737-.462 1.578-.693 2.524-.693s1.787.231 2.523.693c.737.462 1.316 1.119 1.739 1.971.422.852.633 1.863.633 3.033zm-1.299 0c0-.96-.161-1.771-.482-2.432-.318-.66-.749-1.16-1.295-1.5-.541-.339-1.148-.509-1.819-.509-.672 0-1.28.17-1.825.509-.542.34-.973.84-1.295 1.5-.317.661-.476 1.472-.476 2.432s.159 1.771.476 2.431c.322.661.753 1.161 1.295 1.501.545.339 1.153.509 1.825.509.671 0 1.278-.17 1.819-.509.546-.34.977-.84 1.295-1.501.321-.66.482-1.471.482-2.431zm7.262-5.546v11.091h-1.343v-9.683h-.065l-2.708 1.798v-1.364l2.773-1.842z" fill="#17a1e9" fill-opacity=".5"/><path d="m460.565 467.05v1.614h-4.993v-1.614zm6.551-4.739v11.091h-2.009v-9.136h-.065l-2.594 1.658v-1.842l2.756-1.771zm6.797 11.243c-.78 0-1.473-.134-2.08-.401-.603-.267-1.08-.639-1.43-1.115-.35-.477-.536-1.027-.557-1.652h2.036c.018.3.117.561.298.785.18.22.42.392.72.515.299.122.635.184 1.007.184.397 0 .749-.069 1.056-.206.307-.141.547-.336.72-.585.174-.249.259-.536.255-.861.004-.336-.083-.632-.26-.888s-.433-.457-.769-.601c-.332-.145-.733-.217-1.202-.217h-.98v-1.549h.98c.386 0 .724-.066 1.012-.2.293-.134.522-.321.688-.563.166-.246.248-.529.244-.85.004-.315-.067-.587-.211-.818-.141-.235-.341-.417-.601-.547-.257-.13-.558-.195-.905-.195-.339 0-.653.061-.942.184s-.522.298-.699.525c-.177.224-.27.491-.281.802h-1.934c.015-.621.194-1.166.537-1.636.346-.473.808-.841 1.386-1.104.578-.268 1.226-.401 1.944-.401.74 0 1.383.139 1.928.417.549.274.973.644 1.273 1.11.299.466.449.98.449 1.543.004.625-.18 1.148-.552 1.571-.369.422-.852.698-1.452.828v.087c.78.108 1.378.397 1.793.867.419.465.626 1.045.623 1.738 0 .621-.177 1.177-.531 1.668-.35.487-.834.87-1.451 1.148-.614.278-1.318.417-2.112.417zm11.882-2.231v-.585c0-.43.091-.825.271-1.186.184-.361.452-.652.802-.872s.774-.33 1.272-.33c.513 0 .943.11 1.289.33.347.217.609.505.785.867.181.361.271.758.271 1.191v.585c0 .429-.09.825-.271 1.186-.18.361-.445.651-.796.872-.346.22-.772.33-1.278.33-.505 0-.933-.11-1.283-.33-.35-.221-.616-.511-.796-.872-.177-.361-.266-.757-.266-1.186zm1.414-.585v.585c0 .285.068.547.206.785.137.238.379.357.725.357.351 0 .591-.117.721-.352.133-.238.2-.501.2-.79v-.585c0-.289-.063-.552-.19-.791-.126-.242-.37-.363-.731-.363-.339 0-.579.121-.72.363-.141.239-.211.502-.211.791zm-7.051-5.762v-.585c0-.433.092-.83.276-1.191s.451-.65.802-.867c.35-.22.774-.33 1.272-.33.509 0 .937.11 1.284.33.35.217.613.506.79.867s.266.758.266 1.191v.585c0 .433-.091.83-.271 1.191-.177.358-.44.645-.791.861-.35.217-.776.325-1.278.325-.509 0-.938-.108-1.289-.325-.346-.216-.61-.505-.79-.866-.181-.361-.271-.757-.271-1.186zm1.424-.585v.585c0 .289.067.552.201.791.137.234.379.352.725.352.347 0 .585-.118.715-.352.134-.239.2-.502.2-.791v-.585c0-.289-.063-.552-.189-.791-.126-.242-.368-.363-.726-.363-.343 0-.583.121-.72.363s-.206.506-.206.791zm-.807 9.011 7.625-11.091h1.354l-7.625 11.091z" fill="#f09a37"/><path d="m573.189 432.426h1.473l1.234 1.624.325.434 1.842 2.447h-1.473l-1.213-1.624-.304-.412zm5.328-2.08c0 1.17-.211 2.181-.633 3.033-.423.852-1.002 1.509-1.738 1.971-.737.462-1.578.693-2.524.693s-1.787-.231-2.524-.693c-.736-.462-1.316-1.119-1.738-1.971s-.634-1.863-.634-3.033.212-2.18.634-3.033c.422-.852 1.002-1.509 1.738-1.971.737-.462 1.578-.693 2.524-.693s1.787.231 2.524.693c.736.462 1.315 1.119 1.738 1.971.422.853.633 1.863.633 3.033zm-1.299 0c0-.96-.161-1.771-.482-2.431-.318-.661-.749-1.161-1.294-1.5-.542-.34-1.149-.51-1.82-.51-.672 0-1.28.17-1.825.51-.542.339-.973.839-1.294 1.5-.318.66-.477 1.471-.477 2.431s.159 1.771.477 2.432c.321.66.752 1.16 1.294 1.5.545.339 1.153.509 1.825.509.671 0 1.278-.17 1.82-.509.545-.34.976-.84 1.294-1.5.321-.661.482-1.472.482-2.432zm3.363 5.546v-.975l3.661-4.008c.429-.469.783-.877 1.061-1.224.278-.35.484-.678.617-.985.138-.311.206-.636.206-.975 0-.39-.094-.727-.281-1.013-.184-.285-.437-.505-.759-.66-.321-.156-.682-.233-1.083-.233-.426 0-.797.088-1.115.265-.314.173-.558.417-.731.731-.17.314-.255.683-.255 1.105h-1.278c0-.65.15-1.22.45-1.711.299-.491.707-.874 1.224-1.148.519-.275 1.102-.412 1.749-.412.65 0 1.225.137 1.727.412.502.274.896.644 1.181 1.11s.428.984.428 1.554c0 .408-.074.807-.222 1.197-.145.386-.398.818-.759 1.294-.357.473-.853 1.051-1.489 1.733l-2.491 2.665v.086h5.156v1.192z" fill="#17a1e9" fill-opacity=".5"/><path d="m553.325 459.115v-7.495h1.701v7.495zm-2.897-2.897v-1.7h7.495v1.7zm14.377-6.417v11.091h-2.01v-9.136h-.065l-2.594 1.657v-1.841l2.757-1.771zm6.915 11.302c-.892 0-1.657-.226-2.296-.677-.635-.455-1.125-1.11-1.468-1.966-.339-.859-.509-1.894-.509-3.103.004-1.209.175-2.238.515-3.087.343-.852.832-1.502 1.467-1.949.639-.448 1.403-.672 2.291-.672s1.652.224 2.291.672c.639.447 1.128 1.097 1.467 1.949.343.852.515 1.881.515 3.087 0 1.213-.172 2.249-.515 3.108-.339.856-.828 1.51-1.467 1.961-.636.451-1.399.677-2.291.677zm0-1.695c.693 0 1.24-.341 1.641-1.024.404-.686.607-1.695.607-3.027 0-.881-.092-1.621-.277-2.22-.184-.6-.444-1.051-.779-1.354-.336-.307-.733-.461-1.192-.461-.689 0-1.235.343-1.635 1.029-.401.683-.603 1.685-.607 3.006-.003.885.085 1.628.265 2.231.185.603.445 1.058.78 1.365.336.303.735.455 1.197.455zm12.002-.596v-.585c0-.429.09-.825.271-1.186.184-.361.451-.651.801-.872.351-.22.775-.33 1.273-.33.513 0 .942.11 1.289.33.347.217.608.506.785.867.181.361.271.758.271 1.191v.585c0 .43-.09.825-.271 1.186-.18.361-.446.652-.796.872-.346.22-.772.33-1.278.33-.505 0-.933-.11-1.283-.33-.351-.22-.616-.511-.796-.872-.177-.361-.266-.756-.266-1.186zm1.414-.585v.585c0 .285.068.547.205.785.138.239.38.358.726.358.35 0 .59-.118.72-.352.134-.239.201-.502.201-.791v-.585c0-.289-.063-.552-.19-.79-.126-.242-.37-.363-.731-.363-.339 0-.579.121-.72.363-.141.238-.211.501-.211.79zm-7.051-5.762v-.585c0-.433.092-.83.276-1.191s.451-.65.801-.867c.351-.22.775-.33 1.273-.33.509 0 .937.11 1.283.33.351.217.614.506.791.867s.266.758.266 1.191v.585c0 .433-.091.83-.271 1.192-.177.357-.441.644-.791.861-.35.216-.776.325-1.278.325-.509 0-.939-.109-1.289-.325-.346-.217-.61-.506-.791-.867-.18-.361-.27-.756-.27-1.186zm1.424-.585v.585c0 .289.067.552.2.791.138.234.379.352.726.352s.585-.118.715-.352c.133-.239.2-.502.2-.791v-.585c0-.289-.063-.552-.189-.79-.127-.242-.369-.363-.726-.363-.343 0-.583.121-.72.363-.137.241-.206.505-.206.79zm-.807 9.012 7.625-11.091h1.354l-7.625 11.091z" fill="#65c566"/><path d="m668.177 401.842h1.473l1.234 1.624.325.434 1.842 2.447h-1.473l-1.213-1.624-.304-.412zm5.329-2.08c0 1.17-.212 2.181-.634 3.033s-1.002 1.509-1.738 1.971c-.737.462-1.578.693-2.524.693s-1.787-.231-2.524-.693c-.736-.462-1.316-1.119-1.738-1.971s-.634-1.863-.634-3.033.212-2.18.634-3.033c.422-.852 1.002-1.509 1.738-1.971.737-.462 1.578-.693 2.524-.693s1.787.231 2.524.693c.736.462 1.316 1.119 1.738 1.971.422.853.634 1.863.634 3.033zm-1.3 0c0-.96-.161-1.771-.482-2.431-.318-.661-.749-1.161-1.294-1.5-.542-.34-1.149-.51-1.82-.51-.672 0-1.28.17-1.825.51-.542.339-.973.839-1.294 1.5-.318.66-.477 1.471-.477 2.431 0 .961.159 1.771.477 2.432.321.66.752 1.16 1.294 1.5.545.339 1.153.509 1.825.509.671 0 1.278-.17 1.82-.509.545-.34.976-.84 1.294-1.5.321-.661.482-1.471.482-2.432zm7.11 5.697c-.714 0-1.352-.123-1.911-.368-.556-.246-.999-.587-1.327-1.024-.325-.44-.502-.951-.531-1.532h1.365c.029.357.152.666.368.926.217.256.5.455.85.596.351.14.739.211 1.165.211.476 0 .899-.083 1.267-.249s.657-.397.866-.693c.21-.296.315-.639.315-1.029 0-.408-.102-.768-.304-1.078-.202-.314-.498-.56-.888-.737-.39-.176-.866-.265-1.43-.265h-.888v-1.191h.888c.441 0 .827-.08 1.159-.239.336-.158.598-.382.786-.671.191-.289.287-.628.287-1.018 0-.376-.083-.702-.25-.98-.166-.278-.4-.495-.704-.65-.299-.156-.653-.233-1.061-.233-.383 0-.744.07-1.083.211-.336.137-.61.338-.823.601-.213.26-.329.574-.347.942h-1.3c.022-.581.197-1.09.526-1.527.328-.44.758-.783 1.289-1.029.534-.245 1.121-.368 1.76-.368.686 0 1.274.139 1.765.417.491.274.868.637 1.132 1.089.264.451.395.938.395 1.462 0 .624-.164 1.157-.492 1.597-.325.441-.768.746-1.327.916v.086c.7.116 1.247.414 1.641.894.393.476.59 1.067.59 1.771 0 .603-.164 1.144-.493 1.624-.325.477-.769.852-1.332 1.127-.563.274-1.204.411-1.923.411z" fill="#17a1e9" fill-opacity=".5"/><path d="m647.856 428.531v-7.495h1.701v7.495zm-2.897-2.897v-1.7h7.495v1.7zm14.377-6.417v11.091h-2.009v-9.136h-.065l-2.594 1.657v-1.841l2.756-1.771zm6.672 11.242c-.722 0-1.369-.135-1.939-.406-.57-.274-1.024-.65-1.359-1.126-.332-.477-.509-1.022-.531-1.636h1.95c.036.455.232.827.59 1.116.357.285.787.428 1.289.428.393 0 .743-.091 1.05-.271.307-.181.549-.432.726-.753s.264-.688.26-1.099c.004-.419-.085-.791-.265-1.116-.181-.325-.428-.579-.742-.763-.314-.188-.675-.282-1.083-.282-.333-.004-.659.058-.981.184-.321.126-.576.293-.763.498l-1.814-.298.579-5.718h6.434v1.679h-4.771l-.32 2.94h.065c.206-.242.496-.442.872-.601.375-.162.787-.244 1.235-.244.671 0 1.271.159 1.798.477.527.314.942.747 1.245 1.3.303.552.455 1.184.455 1.895 0 .733-.17 1.386-.509 1.96-.336.571-.803 1.02-1.403 1.349-.595.325-1.285.487-2.068.487zm11.724-2.231v-.585c0-.429.09-.825.271-1.186.184-.361.451-.651.801-.872.351-.22.775-.33 1.273-.33.513 0 .942.11 1.289.33.347.217.608.506.785.867.181.361.271.758.271 1.191v.585c0 .43-.09.825-.271 1.186-.18.361-.446.652-.796.872-.346.22-.772.33-1.278.33-.505 0-.933-.11-1.283-.33-.351-.22-.616-.511-.796-.872-.177-.361-.266-.756-.266-1.186zm1.414-.585v.585c0 .285.068.547.205.785.138.239.38.358.726.358.35 0 .59-.118.72-.352.134-.239.201-.502.201-.791v-.585c0-.289-.063-.552-.19-.79-.126-.242-.37-.363-.731-.363-.339 0-.579.121-.72.363-.141.238-.211.501-.211.79zm-7.051-5.762v-.585c0-.433.092-.83.276-1.191s.451-.65.801-.867c.351-.22.775-.33 1.273-.33.509 0 .937.11 1.283.33.351.217.614.506.791.867s.266.758.266 1.191v.585c0 .433-.091.83-.271 1.192-.177.357-.441.644-.791.861-.35.216-.776.325-1.278.325-.509 0-.939-.109-1.289-.325-.346-.217-.61-.506-.791-.867-.18-.361-.27-.756-.27-1.186zm1.424-.585v.585c0 .289.067.553.2.791.138.234.379.352.726.352s.585-.118.715-.352c.133-.238.2-.502.2-.791v-.585c0-.289-.063-.552-.189-.79-.127-.242-.369-.363-.726-.363-.343 0-.583.121-.72.363-.137.241-.206.505-.206.79zm-.807 9.012 7.625-11.091h1.354l-7.625 11.091z" fill="#65c566"/><path d="m386.379 490.62-94.534 15.292-75.072-41.706" stroke="#0b6bd4" stroke-width="3"/><path d="m218.868 464.902-102.18-20.158" stroke="#0b6bd4" stroke-width="3"/></svg>