<svg fill="none" height="746" viewBox="0 0 956 746" width="956" xmlns="http://www.w3.org/2000/svg"><path d="m96.0096 713.761c.6373.209 25.1584 2.984 41.7844-1.911 27.355-8.05 38.597-27.336 47.757-30.416 7.381-2.48 13.316-.684 13.316-.684v-11.073s-8.484-1.055-16.331 3.602c-7.847 4.658-18.823 17.594-28.849 24.979-14.419 10.627-20.573 11.9-32.662 13.602-12.089 1.701-25.0249 1.91-25.0249 1.91h.0095z" fill="#918f8e" stroke="#61615f" stroke-miterlimit="10"/><path d="m357.147 518.538c-8.561 10.693-29.524 31.565-31.873 39.141-2.112 6.815 1.769 23.905 5.459 33.286 5.945 15.104 13.973 29.57 17.092 45.491 3.12 15.93.162 34.408-12.479 44.597l1.303 9.267c2.35-.627 4.994 1.569 4.794 3.992-2.539 2.947-5.992 3.108-9.093 3.935 1.617 2.804 5.583 2.738 4.67 6.968-2.625 1.482-8.218 1.558-13.126 1.321-3.918-.19-7.675 1.226-6.486-7.547.542-3.992 1.036-6.445 1.246-10.646-1.998 5.998-28.954-1.92-50.231-.77 3.215-.275 7.343 5.988 6.392 9.068s-6.915 1.749-10.13 2.053-6.011-.171-9.093-1.112l2.34 3.479c.723 1.074.171 2.405-.999 2.965-8.322 3.983-9.559 4.591-22.285 3.622-8.161-.628-24.645 2.414-30.437-3.365-13.583-13.554-13.212-26.091-7.847-36.223 5.374-10.133 17.035-17.451 28.154-20.293 12.099-3.089 24.892-5.066 36.296-6.359s20.022-3.774 30.446-8.564c7.629-3.507 14.144-8.231 16.674-16.244 3.006-9.514-1.931-19.086-7.048-27.65-7.314-12.223-14.657-24.038-18.909-37.63s-3.728-21.51 0-28.344c2.188-4.02 5.403-7.879 10.025-10.427 5.821-3.203 13.592 0 19.955-4.704 5.736-4.24 13.145-10.618 18.643-15.151 6.668-5.494 10.453-8.327 15.998-10.133 6.525-2.129 14.715-.541 17.007 6.293 2.701 8.079 2.102 10.122-2.112 16.975-2.729 4.43 1.627 5.257-4.337 12.709z" fill="#fcfcfd"/><path d="m292.954 527.133c-2.749-1.084-3.595-.105-5.384 2.252-3.795 4.99-8.807 12.566-10.662 18.563-3.871 12.509-2.654 20.759-1.807 33.828.171 2.643 3.158 16.625 5.65 17.528 4.109 1.501 11.052-1.911 14.162-4.971 5.717-5.627 9.455-12.899 13.079-20.056 4.765-9.419 10.034-22.175 7.324-32.374-1.475-5.532-5.489-7.414-10.672-11.377-1.684-1.293-.885-4.306-2.702-3.726-1.141.371-4.013 2.3-8.998.333z" fill="#918f8e"/><path d="m279.268 542.634c-.38 2.719-2.625 5.171-3.062 7.89-1.903 11.881-2.045 21.443-.723 32.174-2.007 1.483-4.014 2.956-6.031 4.439-1.74 1.283-3.757 2.623-5.878 2.205-1.655-.323-2.948-1.721-3.576-3.289s-.704-3.298-.713-4.981c-.077-16.567 6.753-34.968 17.187-47.838 1.645-2.024 2.026-1.977 2.197 1.616.133 2.832.866 5.836.59 7.784z" fill="#918f8e"/><path d="m303.953 616.609c1.551 1.188 4.794 1.34 6.754 1.264 9.321-.351 17.12-3.003 25.072-7.879 1.569-.96 6.059-2.918 6.002-3.707-.181-2.548-1.246-6.635-2.606-10.589.865 1.397-17.711 9.743-19.413 10.199-3.491.932-7.068 1.54-10.663 1.825-1.798.143-3.605.2-5.412.171-1.807-.028-2.14-1.207-1.712.665.818 3.593 1.008 7.291 1.978 8.042z" fill="#918f8e"/><path d="m307.072 603.724-5.27 3.079s-1.655.533 1.474.494c3.13-.038 5.232.476 5.232.476z" fill="#61615f"/><path d="m339.07 595.216-5.887.494 1.75 3.146z" fill="#61615f"/><path d="m330.598 697.356s-4.737 4.601-7.591 4.781c-2.853.181-5.706-1.254-5.706-1.254s-.723 4.087.979 4.733c1.703.646 7.105 1.179 10.434 1.007 3.329-.171 7.847.78 8.313-1.416.466-2.195 2.454-1.54-.561-3.935s-5.859-3.925-5.859-3.925z" fill="#e6e6e6"/><path d="m252.606 695.682s2.112-.247 3.909 2.576c1.798 2.823 3.329 4.03 1.874 4.904-1.455.875-5.222 2.244-5.222 2.244s-1.208 2.404-3.177 2.366c-1.968-.038-7.342.286-13.221.048-5.878-.238-9.968-.675-9.968-.675s1.028-5.513 2.968-7.357 4.508-3.64 7.818-4.391 9.788-.732 9.788-.732l5.231 1.027z" fill="#e6e6e6"/><path d="m269.502 687.575s4.005 3.051 4.737 5.18.59 4.42-.476 4.867c-1.065.447-6.829.19-7.951.627-1.123.437-8.637-.228-8.637-.228s-2.691-1.692-4.575-2.348c-1.883-.655-2.235-1.026-2.235-1.026l6.81-6.264 12.318-.808z" fill="#e6e6e6"/><path d="m335.927 690.018s-1.484 3.583-3.425 3.745c-1.94.161-1.759-.675-1.759-.675l-.162 4.267 2.853.58 7.629-3.45c.247-.114.399-.361.39-.637-.029-.608-.267-1.663-1.446-2.367-1.741-1.026-4.071-1.463-4.071-1.463z" fill="#e6e6e6"/><path d="m291.997 512.551s-4.261 5.988-1.655 10.284c2.607 4.296 11.605 3.954 11.605 3.954s-8.028 11.71-12.461 22.337c-4.432 10.626-6.125 28.515-5.811 35.482s11.157 5.389 13.221 3.269c2.064-2.119 7.143-6.111 7.143-6.111s-1.645 7.442-5.507 10.122c-3.862 2.681-12.004 8.393-14.895 7.89-2.892-.504-4.347 1.349-5.802-4.924s-2.359-12.176-2.359-12.176-8.522 6.093-10.206 6.368c-1.683.276-4.09.656-4.68-1.178-.589-1.835-1.474-12.471-.409-17.803 1.066-5.332 3.291-17.907 9.122-26.585s9.369-12.68 9.369-12.68.209-2.984 2.425-6.558 6.344-7.766 6.344-7.766l4.547-3.963v.038z" fill="#efefef" opacity=".37"/><path d="m313.768 560.656s-2.064 7.803-2.758 13.82-.666 15.208 1.379 21.224c2.045 6.017 10.919 8.013 10.919 8.013s-3.376 5.665-1.426 8.773 5.735 1.816 5.735 1.816-7.152 3.887-12.859 8.953-19.023 11.72-24.416 22.498c-5.393 10.779 1.788 36.48 11.042 40.653l9.255 4.173s-19.793-2.51-28.763-2.785c-8.969-.276-24.701.58-24.701.58s7.619-8.422 3.976-14.467c-8.551-14.21-23.57-20.226-23.57-20.226s-19.527-.637-29.352 17.422c-2.607 4.791-4.119 20.901 2.853 23.915 6.972 3.013 10.491 3.288 19.052 3.592 8.56.305 16.359-2.775 19.85.067s3.738 6.511 3.177 6.701-3.11 2.3-5.792 2.31c-2.683.009-20.564-.58-20.564-.58s-15.048 1.131-18.32-.437c-3.272-1.569-8.075-5.029-11.404-12.043-3.329-7.015-4.194-14.514-4.194-14.514s1.854-11.891 7.314-17.442c5.459-5.551 16.902-15.654 34.974-17.555s43.439-5.703 51.362-9.505 15.913-9.752 18.414-12.956c2.502-3.203 2.977-5.066 2.977-5.066l-3.88-.599-2.064-9.638s5.05-3.878 5.107-3.649c.057.228.257-5.836-2.13-8.85-2.388-3.013-3.938-5.674-3.938-5.674s5.564-11.377 7.904-16.539c2.34-5.161 4.851-12.004 4.851-12.004v.019z" fill="#efefef" opacity=".37"/><path d="m271.148 698.25s-2.634-7.566-5.364-7.528-8.637-2.338-8.637-2.338l-6.81 6.264s3.643 2.49 5.222 2.927l1.588.447z" fill="#efefef" opacity=".37"/><path d="m325.254 687.574s-2.482 11.539 0 13.696c2.483 2.158 9.293 4.81 9.293 4.81l-16.293-.456s-1.17-.333-1.018-3.489c.152-3.155 1.398-13.791 1.398-13.791s1.008-7.091 3.158-5.827 3.472 5.057 3.472 5.057z" fill="#efefef" opacity=".37"/><path d="m333.453 683.355v14.581l-2.853-.58v-10.94z" fill="#efefef" opacity=".37"/><path d="m363.625 501.62s-10.824 12.946-18.433 16.919c-7.61 3.973-11.747 5.741-11.747 5.741s-3.015 4.866-2.854 6.558c.162 1.692-1.512 4.392 5.441 1.683s23.503-16.282 24.169-19.466c.666-3.185.428-5.798.428-5.798s.371.693 1.683-2.472l1.313-3.155z" fill="#efefef" opacity=".37"/><path d="m309.278 513.045c3.043 1.198 4.441 2.395 4.384 3.945-.085 2.461-7.371 3.811-11.252 3.811-3.88 0-6.135-1.578-5.393-4.287 1.522-5.57 9.217-4.667 12.261-3.469z" fill="#efefef"/><g stroke="#61615f" stroke-width="1.2"><path d="m252.602 705.588s-1.427-5.94-5.232-6.891" stroke-linecap="round" stroke-linejoin="round"/><path d="m241.674 655.209c4.518 2.376 16.16 8.726 19.489 18.706s-3.557 13.411-11.166 21.11" stroke-linecap="round" stroke-linejoin="round"/><path d="m226.814 707.127c1.664-15.208 20.564-12.47 20.564-12.47 8.798.95 9.036 3.564 10.938 6.416 1.902 2.851-3.091 3.564-5.707 4.515-2.14 2.613-6.182 2.138-6.182 2.138s-21.906-.066-32.977-.038c-3.995 0-7.818-1.654-10.491-4.619-9.217-10.228-22.238-35.834 16.293-53.523 17.064-7.832 77.662-5.683 88.686-31.917" stroke-linecap="round" stroke-linejoin="round"/><path d="m257.18 688.383s16.37-1.968 31.008.028c8.874 1.207 19.746 3.213 25.871 2.31.067-.01 4.233-.922 4.233-.856-.2 2.272-1.094 9.287-1.037 13.63.019 1.512 1.227 2.728 2.73 2.776 4.594.133 15.456.275 16.683-.694 1.665-1.312 1.902-4.448-6.068-8.222.114-6.748-1.066-11.035 2.853-14.001 3.919-2.965 8.446-9.733 10.824-14.124s4.043-12.594 4.28-16.044c.238-3.451-.114-12.119-1.664-20.797s-8.532-23.563-8.532-23.563" stroke-linecap="round" stroke-linejoin="round"/><path d="m269.492 687.575s8.931 7.452 4.271 10.047c-3.12 1.739-8.038.627-17.254.627" stroke-linecap="round" stroke-linejoin="round"/><path d="m271.148 698.249s-.618-3.365-3.357-5.741" stroke-linecap="round" stroke-linejoin="round"/><path d="m335.935 680.751v9.267s3.214-.114 4.993 2.491c1.779 2.604-.837 3.326-2.501 3.802-1.665.475-5.926 1.939-5.926 1.939" stroke-linecap="round" stroke-linejoin="round"/><path d="m333.453 524.281s-3.643 2.538-2.692 8.241" stroke-linecap="round" stroke-linejoin="round"/><path d="m311.001 518.539c-1.155 0-2.092-.694-2.092-1.549 0-.856.937-1.55 2.092-1.55 1.156 0 2.093.694 2.093 1.55 0 .855-.937 1.549-2.093 1.549z" fill="#61615f" stroke-linecap="round" stroke-linejoin="round"/><path d="m300.164 512.55c-2.073 1.264-6.163 6.016 0 7.917" stroke-linecap="round" stroke-linejoin="round"/><path d="m289.861 527.131s-12.574 14.419-14.315 25.977c-1.741 11.567-.476 44.378 5.222 46.184 16.997 5.399 32.558-34.465 34.774-45.072 2.216-10.617-1.427-16.634-4.917-19.485-3.491-2.852-7.448-3.327-7.924-7.604" stroke-linecap="round" stroke-linejoin="round"/><path d="m278.828 530.828s-16.674 14.4-19.575 46.831c-.513 5.684.476 14.257 6.021 11.406 5.545-2.852 10.206-6.368 10.206-6.368" stroke-linecap="round" stroke-linejoin="round"/><path d="m300.176 587.888s6.791 9.894 7.762 19.485" stroke-linecap="round" stroke-linejoin="round"/><path d="m364.188 491.164s-.666-11.425-3.282-16.178c-2.616-4.752-8.884-3.051-11.319-.988-2.787 2.357-6.353 7.461-9.73 10.199-2.749 2.224 10.539 13.858 24.331 6.967z" fill="#918f8e" stroke-linecap="round" stroke-linejoin="round"/><path d="m225.18 686.414s2.758 4.306 9.759 6.093c4.775 1.216 15.038 2.519 15.038 2.519" stroke-linecap="round" stroke-linejoin="round"/><path d="m339.852 484.198s-25.158 25.901-35.811 26.31c-3.596.133-9.303.285-12.061 2.043-2.758 1.759-10.425 9.41-12.336 14.572-2.198 5.921 0 14.77 0 14.77" stroke-linecap="round" stroke-linejoin="round"/><path d="m339.183 595.711 2.606 10.588s-8.38 6.768-19.042 9.657c-11.737 3.175-18.7 1.065-18.7 1.065l-2.064-9.638s5.945 2.091 18.624-1.692c8.113-2.414 18.566-9.98 18.566-9.98z" stroke-linecap="round" stroke-linejoin="round"/><path d="m364.197 491.167s1.18 1.749.333 6.834c-.057.314-.114.627-.171.932-.78 3.916-2.72 7.499-5.469 10.388-5.793 6.103-17.796 17.024-28.145 19.704" stroke-linecap="round" stroke-linejoin="round"/><path d="m334.433 598.854c.295-.18-15.19-33.885-6.554-45.12 8.637-11.234 29.001-33.58 31.331-38.304 2.331-4.724 1.57-8.194 1.57-8.194" stroke-linecap="round" stroke-linejoin="round"/></g><path d="m328.288 197.807c6.02-2.42 8.929-9.247 6.509-15.267l-21.805 8.757c2.42 6.02 9.247 8.929 15.267 6.51z" fill="#b8b8b7"/><path d="m312.828 148.522-5.041-12.53-9.361 3.745 5.04 12.53c-20.019 10.629-29.409 34.22-21.114 54.931l83.708-33.615c-8.325-20.711-31.427-31.225-53.232-25.061z" fill="#788088" stroke="#e4e5e7" stroke-miterlimit="10" stroke-width=".75"/><path d="m311.471 129.798c-.951-1.642-2.938-2.276-4.494-1.411l-117.726 68.699c-1.008-2.88-3.946-4.58-6.798-3.831-2.966.807-4.695 3.918-3.917 7.029l.662 2.679-21.315 12.443 5.502 9.564 18.463-11.378 37.764 152.234 17.168-4.609-44.533-154.02 118.216-72.819c1.526-.893 1.987-2.938 1.037-4.58z" fill="#b0b5ba" stroke="#788088" stroke-linecap="round" stroke-linejoin="round"/><path d="m214.464 356.494h69.275c7.922 0 14.374 6.452 14.374 14.374h-90.246v-7.778c0-3.658 2.967-6.596 6.597-6.596z" fill="#788088" stroke="#e4e5e7" stroke-miterlimit="10" stroke-width=".75"/><path d="m309.661 128.216-117.754 70.428s-6.971-3.255-8.584 0-17.341 14.085-16.16 16.505 18.263-3.831 18.263-3.831l39.837 145.148 47.528 1.469s-35.056 8.699-34.422 10.802-30.504 2.074-30.504 2.074-3.774-7.403 0-10.543c3.773-3.139 7.604-3.802 7.604-3.802l-33.298-141.519-18.81 10.025-5.502-9.564 19.501-11.925s2.218-10.283 5.099-10.226c2.88.058 6.452 3.054 6.452 3.054l120.75-68.066z" fill="#e4e5e7" opacity=".57"/><path d="m311.995 195.332s-22.641.432-17.773-12.789c4.868-13.222 15.439-27.711 15.439-27.711l-6.308-16.102-4.349 2.679 4.349 10.543s-9.045 3.313-14.892 13.077c-5.847 9.765-9.967 20.049-9.074 27.279s3.025 14.892 3.025 14.892l29.583-11.897z" fill="#b8b8b7" opacity=".42"/><path d="m615.837 361.787h-200.561c-1.18 0-2.247-.816-2.669-2.025l-42.809-132.757c-.674-1.995.703-4.11 2.669-4.11h200.561c1.18 0 2.248.816 2.669 2.025l42.809 132.757c.674 1.995-.702 4.11-2.669 4.11z" fill="#dff0fe"/><path d="m625.007 362.362-47.219-140.646c-.337-.997-1.18-1.632-2.135-1.632h-208.342c-1.573 0-2.669 1.723-2.135 3.355l47.219 140.646c.337.998 1.18 1.633 2.135 1.633h208.342c1.573 0 2.669-1.723 2.135-3.356zm-10-2.66h-197.865c-.899 0-1.714-.634-2.023-1.571l-42.696-129.009c-.506-1.542.534-3.174 2.022-3.174h197.865c.899 0 1.714.635 2.023 1.572l42.696 129.009c.506 1.541-.533 3.173-2.022 3.173z" fill="#788088"/><path d="m480.352 367.167h187.347v.544c0 3.99-3.03 7.194-6.739 7.194h-180.608z" fill="#788088"/><path d="m480.011 374.785-62.657-2.66c-2.208-.09-3.963-2.055-3.963-4.413v-3.688l73.925 3.144v.121c0 4.262-3.313 7.647-7.305 7.496z" fill="#979da3"/><path d="m413.391 364.024h216.113l38.194 3.688-180.382-.423z" fill="#d5d8db"/><path d="m377.167 224.899s193.505-1.587 195.482 0 4.507 9.316 4.507 9.316l41.8 129.022s-22.27-52.02-77.987-78.882c-88.292-42.616-163.828-59.456-163.828-59.456z" fill="#b9dbff" opacity=".37"/><path d="m833.807 661.963-7.495-20.897v-243.705l7.495-13.633" fill="#b0b5ba"/><path d="m833.807 661.963-7.495-20.897v-243.705l7.495-13.633" stroke="#788088" stroke-linecap="round" stroke-linejoin="round"/><path d="m121.984 661.963 7.495-20.897v-243.705l-7.495-13.633" fill="#b0b5ba"/><path d="m121.984 661.963 7.495-20.897v-243.705l-7.495-13.633" stroke="#788088" stroke-linecap="round" stroke-linejoin="round"/><path d="m855.681 376.053h-755.236v21.306h755.236z" fill="#d5d8db" stroke="#788088" stroke-linecap="round" stroke-linejoin="round"/><path d="m104.133 376.053 27.394-5.346h705.589l22.253 5.346" fill="#f7f8f8"/><path d="m104.133 376.053 27.394-5.346h705.589l22.253 5.346" stroke="#788088" stroke-linecap="round" stroke-linejoin="round"/><path d="m121.087 397.359h-20.642v265.217h20.642z" fill="#d5d8db" stroke="#788088" stroke-linecap="round" stroke-linejoin="round"/><path d="m855.688 397.359h-20.641v265.217h20.641z" fill="#d5d8db" stroke="#788088" stroke-linecap="round" stroke-linejoin="round"/><path d="m548.656 484.431c1.637-1.151 6.957-20.923 36.449-24.324 23.813-2.763 77.961 0 77.961 0l-2.942 8.338" fill="#f9fafa"/><path d="m548.656 484.431c1.637-1.151 6.957-20.923 36.449-24.324 23.813-2.763 77.961 0 77.961 0l-2.942 8.338" stroke="#788088" stroke-miterlimit="10"/><path d="m691.673 668.973c4.492 0 8.134-3.642 8.134-8.134s-3.642-8.134-8.134-8.134-8.134 3.642-8.134 8.134 3.642 8.134 8.134 8.134z" fill="#788088" stroke="#788088" stroke-miterlimit="10" stroke-width=".71"/><path d="m651.69 616.155s18.364 9.54 25.936 20.641c7.571 11.101 7.98 20.897 7.98 20.897h12.2s0-12.149-9.156-27.215c-9.157-15.065-11.357-19.976-11.357-19.976l-25.629 5.678h.026z" fill="#a2a8ae" stroke="#788088" stroke-miterlimit="10" stroke-width="1.11"/><path d="m564.837 668.973c4.492 0 8.134-3.642 8.134-8.134s-3.642-8.134-8.134-8.134-8.134 3.642-8.134 8.134 3.642 8.134 8.134 8.134z" fill="#788088" stroke="#788088" stroke-miterlimit="10" stroke-width=".71"/><path d="m773.743 668.973c4.492 0 8.134-3.642 8.134-8.134s-3.642-8.134-8.134-8.134-8.134 3.642-8.134 8.134 3.642 8.134 8.134 8.134z" fill="#788088" stroke="#788088" stroke-miterlimit="10" stroke-width=".71"/><path d="m649.799 514.994v32.433c0 3.581 2.686 6.471 6.139 6.88v37.932h21.434v-37.932c3.453-.409 6.139-3.325 6.139-6.88v-32.433h-33.738z" fill="#f7f8f8" stroke="#788088" stroke-miterlimit="10"/><path d="m696.38 606.639c-18.928-8.262-40.464-8.134-59.264.384l-70.262 32.253c-6.83 3.146-11.229 9.976-11.229 17.495v.896h17.674c0-7.929 5.039-14.963 12.533-17.496l56.348-19.081c15.526-5.345 32.382-5.371 47.933-.128l62.512 19.516c7.52 2.354 12.636 9.311 12.636 17.189h17.674v-.64c0-7.648-4.527-14.579-11.561-17.648z" fill="#a2a8ae" stroke="#788088" stroke-miterlimit="10"/><path d="m657.837 590.984h17.495c7.009 0 12.687 5.679 12.687 12.687v17.316h-42.894v-17.316c0-7.008 5.678-12.687 12.687-12.687z" fill="#b5b9be" stroke="#788088" stroke-miterlimit="10"/><path d="m666.26 521.084 91.287-6.829c6.881-.205 12.763-4.937 14.426-11.612l10.692-74.048c2.608-18.135 6.778-36.039 12.456-53.458l33.814-103.922c1.253-3.888-1.33-7.955-5.371-8.441l-24.53-3.095c-27.726-3.504-55.862-2.046-83.102 4.246l-4.988 1.151-44.71 256.034h.026z" fill="#b0b5ba" stroke="#788088" stroke-miterlimit="10"/><path d="m666.248 521.085-6.139-52.665s6.011-14.042 14.043-51.514c7.008-32.714 8.415-109.345 7.75-127.403-.103-2.532 1.125-4.911 3.197-6.369l25.833-18.083" fill="#f5f6f6"/><path d="m666.248 521.085-6.139-52.665s6.011-14.042 14.043-51.514c7.008-32.714 8.415-109.345 7.75-127.403-.103-2.532 1.125-4.911 3.197-6.369l25.833-18.083" stroke="#788088" stroke-miterlimit="10"/><path d="m666.155 521.085-117.275-11.612c-1.79-.179-3.146-1.688-3.146-3.479v-8.006c0-18.671 15.552-33.609 34.224-32.842l80.16 3.274 6.011 52.665z" fill="#f5f6f6" stroke="#788088" stroke-miterlimit="10"/><path d="m615.013 500.855c-3.581.869-7.162-1.535-7.981-5.346l-12.43-58.369 12.993-3.146 12.431 58.369c.818 3.811-1.432 7.622-5.013 8.492z" fill="#656c73" stroke="#656c73" stroke-miterlimit="10"/><path d="m667.559 447.651c-27.573-3.76-56.092-3.837-84.023-.153-3.76.511-6.676-1.97-6.497-5.653.102-1.893.179-3.786.281-5.678.179-3.658 3.377-6.804 7.085-6.881 27.804-.716 56.169 2.353 83.589 9.106 3.683.921 6.599 3.095 6.522 4.706-.051.844-.077 1.688-.128 2.558-.077 1.611-3.146 2.456-6.855 1.995z" fill="#788088" stroke="#788088" stroke-miterlimit="10"/><path d="m697.82 274.258s-7.571 113.924-14.272 138.913c-6.702 24.99-23.43 55.248-23.43 55.248s-21.357 8.415-36.704 9.541c-15.347 1.125-47.754 2.072-56.271 6.445-8.517 4.374-21.409 24.734-21.409 24.734l120.523 11.919 44.71-256.034-13.147 9.183z" fill="#e4e5e7" opacity=".52"/><path d="m710.974 265.075s45.017 48.086 36.807 101.135c-18.647 120.471-78.243 136.278-78.243 136.278l-3.248 18.595-11.024-1.048s12.175 11.356 14.042 24.452 0 46.5 0 46.5l-13.326 1.254s14.886.614 18.8 10.768c3.913 10.154 0 17.981 0 17.981s5.269.895 10.793 13.07c5.525 12.176 9.49 23.2 8.927 26.78-.563 3.581-2.762 8.134-2.762 8.134s10.333-2.609 8.133-8.134c-2.199-5.524-3.043-10.64-3.043-10.64s-.947-6.88-5.09-14.272c-4.144-7.392-8.62-14.912-8.62-14.912h4.962l-2.507-20.462s4.144-4.783-1.995-6.523c-6.138-1.739-8.21-3.018-8.21-3.018l2.046-36.653s6.139-2.788 6.139-6.88v-26.346l71.183-6.624s8.415.563 14.144-5.73c5.73-6.292 4.093-12.891 4.093-12.891s11.407-83.895 16.804-102.311 39.211-122.339 39.211-122.339-.614-7.852-5.371-8.44c-4.758-.589-54.762-6.855-75.813-3.965-21.05 2.89-36.806 6.267-36.806 6.267z" fill="#e4e5e7" opacity=".37"/><path d="m642.725 610.478s-65.3 26.652-70.723 32.355c-5.422 5.704-7.162 14.861-7.162 14.861s3.376 6.727 0 9.029-5.652 0-5.652 0 7.059 4.348 10.026 1.023 2.814-10.666 2.814-10.666.332-11.075 9.694-14.86c9.361-3.786 60.491-21.102 60.491-21.102l.537-10.615z" fill="#b8b8b7" opacity=".37"/><path d="m688.039 610.477s59.289 23.813 66.093 26.652 13.377 6.343 16.472 10.947 3.095 9.592 3.095 9.592-3.146 5.576 0 8.44c3.146 2.865 0 2.865 0 2.865s-7.852 2.174-8.134-4.578c-.281-6.753 0-11.715 0-11.715s-1.406-7.085-17.802-12.968c-16.395-5.883-59.724-18.723-59.724-18.723v-10.538z" fill="#b8b8b7" opacity=".37"/><path d="m485.127 298.111 23.377 20.55 13.074-50.833" stroke="#0b6bd4" stroke-linecap="round" stroke-width="7"/></svg>