<svg fill="none" height="746" viewBox="0 0 956 746" width="956" xmlns="http://www.w3.org/2000/svg" xmlns:xlink="http://www.w3.org/1999/xlink"><linearGradient id="a" gradientUnits="userSpaceOnUse" x1="502.906" x2="501.98" y1="220.273" y2="312.01"><stop offset="0" stop-color="#9fd096"/><stop offset="1" stop-color="#9fd096" stop-opacity=".1"/></linearGradient><linearGradient id="b"><stop offset="0" stop-color="#4f973f"/><stop offset=".903846" stop-color="#4f973f" stop-opacity=".6"/></linearGradient><linearGradient id="c" gradientUnits="userSpaceOnUse" x1="416.18" x2="416.18" xlink:href="#b" y1="250.807" y2="270.807"/><linearGradient id="d" gradientUnits="userSpaceOnUse" x1="416.408" x2="416.408" xlink:href="#b" y1="256.277" y2="264.973"/><linearGradient id="e" gradientUnits="userSpaceOnUse" x1="490.977" x2="490.477" y1="227.307" y2="268.807"><stop offset="0" stop-color="#20411b"/><stop offset="1" stop-color="#20411b" stop-opacity=".5"/></linearGradient><linearGradient id="f" gradientUnits="userSpaceOnUse" x1="509.046" x2="508.946" y1="262.051" y2="349.63"><stop offset="0" stop-color="#9fd095" stop-opacity=".5"/><stop offset="1" stop-color="#e7e5e5" stop-opacity="0"/></linearGradient><linearGradient id="g"><stop offset="0" stop-color="#0b6bd4"/><stop offset=".850962" stop-color="#0b6bd4" stop-opacity=".6"/></linearGradient><linearGradient id="h" gradientUnits="userSpaceOnUse" x1="594.148" x2="594.148" xlink:href="#g" y1="526.753" y2="546.753"/><linearGradient id="i" gradientUnits="userSpaceOnUse" x1="594.376" x2="594.376" xlink:href="#g" y1="532.224" y2="540.919"/><linearGradient id="j" gradientUnits="userSpaceOnUse" x1="688.414" x2="688.414" y1="515.03" y2="549.03"><stop offset="0" stop-color="#002e5c"/><stop offset="1" stop-color="#002e5c" stop-opacity=".5"/></linearGradient><linearGradient id="k" gradientUnits="userSpaceOnUse" x1="686.932" x2="686.836" y1="568.753" y2="616.753"><stop offset="0" stop-color="#9cccf5" stop-opacity=".5"/><stop offset="1" stop-color="#e7e5e5" stop-opacity="0"/></linearGradient><rect fill="#a8d8a1" height="65" rx="11" width="340.673" x="338.344" y="44.8066"/><path d="m418.952 79.9059c0 2.0892-1.678 3.5532-4.423 3.5532-2.76 0-4.483-1.4792-4.651-3.7972h2.349c.061 1.2047.838 1.9825 2.257 1.9825 1.174 0 2.013-.5185 2.013-1.403 0-.6863-.534-1.098-1.464-1.281l-1.8-.3508c-1.662-.3202-2.943-1.22-2.943-3.0347 0-1.952 1.723-3.355 4.087-3.355 2.455 0 4.255 1.4335 4.407 3.721h-2.348c-.077-1.1438-.87-1.9215-2.029-1.9215-1.128 0-1.769.6405-1.769 1.403 0 .7472.687 1.0675 1.48 1.22l1.875.3812c1.922.3813 2.959 1.2658 2.959 2.8823zm5.217 3.538c-2.44 0-4.072-1.6928-4.072-4.2395 0-2.4248 1.693-4.1938 4.041-4.1938 2.577 0 4.285 2.0893 3.904 4.7428h-5.78c.138 1.3267.778 2.0587 1.861 2.0587.93 0 1.555-.4575 1.799-1.2657h2.105c-.458 1.8452-1.876 2.8975-3.858 2.8975zm-.077-6.8778c-.991 0-1.616.6405-1.799 1.8453h3.507c-.061-1.1285-.701-1.8453-1.708-1.8453zm10.526 4.6818v1.8452c-.519.2593-1.007.366-1.632.366-1.677 0-2.73-.9607-2.73-2.7907v-3.6905h-1.647v-1.8148h1.647v-2.4095h2.105v2.4095h2.333v1.8148h-2.333v3.2025c0 .9455.427 1.3267 1.189 1.3267.397 0 .763-.0915 1.068-.2592zm10.002 2.2875c-3.157 0-5.597-2.44-5.597-5.7188 0-3.2787 2.44-5.6882 5.597-5.6882 3.172 0 5.627 2.4095 5.627 5.6882 0 3.2788-2.455 5.7188-5.627 5.7188zm0-2.074c2.013 0 3.233-1.6318 3.233-3.6448s-1.22-3.6142-3.233-3.6142c-1.998 0-3.218 1.6012-3.218 3.6142s1.22 3.6448 3.218 3.6448zm9.315-2.1045v3.9497h-2.12v-8.1435h1.952v1.5708c.595-1.037 1.861-1.6623 3.172-1.6623v2.196c-1.799-.1372-3.004.2898-3.004 2.0893zm7.72 7.0455c-2.196 0-3.66-1.1895-3.752-3.0653h2.044c.091.9303.686 1.4183 1.692 1.4183 1.175 0 1.785-.6253 1.785-1.7995v-1.1895c-.443.7777-1.281 1.2352-2.273 1.2352-1.997 0-3.492-1.6927-3.492-3.9955 0-2.3637 1.403-3.9955 3.416-3.9955 1.098 0 1.922.427 2.516 1.2658v-1.1133h1.937v7.7623c0 2.1655-1.464 3.477-3.873 3.477zm-1.876-7.3963c0 1.3268.686 2.1655 1.784 2.1655 1.113 0 1.845-.8692 1.845-2.1502 0-1.3268-.732-2.1808-1.845-2.1808-1.083 0-1.784.8388-1.784 2.1655zm12.664 4.3005v-1.0065c-.534.7625-1.342 1.159-2.455 1.159-1.693 0-2.821-.9912-2.821-2.5162 0-1.586 1.281-2.44 3.66-2.44.457 0 .854.0305 1.357.0915v-.488c0-.915-.519-1.4488-1.403-1.4488-.915 0-1.464.5338-1.54 1.4488h-1.907c.122-1.8758 1.48-3.0958 3.447-3.0958 2.135 0 3.385 1.1743 3.385 3.172v5.124zm-3.279-2.4247c0 .6862.488 1.1132 1.281 1.1132 1.083 0 1.739-.5947 1.739-1.5402v-.5795c-.503-.0763-.854-.1068-1.22-.1068-1.205 0-1.8.3813-1.8 1.1133zm9.101-2.013v4.4377h-2.12v-8.1435h1.952v1.159c.595-.8082 1.434-1.3115 2.501-1.3115 1.632 0 2.761 1.0675 2.761 3.0348v5.2612h-2.105v-4.5445c0-1.2047-.473-1.8757-1.433-1.8757-.839 0-1.556.671-1.556 1.9825zm9.528-5.5968c0 .7168-.579 1.2505-1.418 1.2505-.824 0-1.403-.5337-1.403-1.2505 0-.7472.579-1.281 1.403-1.281.839 0 1.418.5338 1.418 1.281zm-.335 10.0345h-2.12v-8.1435h2.12zm8.916-2.6077c0 1.708-1.296 2.7602-3.614 2.7602s-3.614-1.1132-3.782-2.928h2.028c.015.8388.732 1.3725 1.784 1.3725.824 0 1.449-.2592 1.449-.8387 0-.5185-.335-.732-1.113-.8845l-1.464-.2745c-1.464-.2593-2.349-1.0675-2.349-2.3333 0-1.5097 1.297-2.562 3.325-2.562 2.043 0 3.446 1.0828 3.599 2.8365h-2.028c-.077-.793-.671-1.281-1.571-1.281-.778 0-1.296.2898-1.296.8083 0 .488.335.6862 1.067.8235l1.571.2897c1.586.305 2.394 1.037 2.394 2.2113zm6.449 2.6077v-1.0065c-.533.7625-1.342 1.159-2.455 1.159-1.693 0-2.821-.9912-2.821-2.5162 0-1.586 1.281-2.44 3.66-2.44.457 0 .854.0305 1.357.0915v-.488c0-.915-.518-1.4488-1.403-1.4488-.915 0-1.464.5338-1.54 1.4488h-1.906c.122-1.8758 1.479-3.0958 3.446-3.0958 2.135 0 3.386 1.1743 3.386 3.172v5.124zm-3.278-2.4247c0 .6862.488 1.1132 1.281 1.1132 1.082 0 1.738-.5947 1.738-1.5402v-.5795c-.503-.0763-.854-.1068-1.22-.1068-1.205 0-1.799.3813-1.799 1.1133zm11.925.366v1.8452c-.519.2593-1.007.366-1.632.366-1.678 0-2.73-.9607-2.73-2.7907v-3.6905h-1.647v-1.8148h1.647v-2.4095h2.105v2.4095h2.333v1.8148h-2.333v3.2025c0 .9455.427 1.3267 1.189 1.3267.397 0 .763-.0915 1.068-.2592zm3.978-7.9758c0 .7168-.58 1.2505-1.418 1.2505-.824 0-1.403-.5337-1.403-1.2505 0-.7472.579-1.281 1.403-1.281.838 0 1.418.5338 1.418 1.281zm-.336 10.0345h-2.119v-8.1435h2.119zm5.638.1525c-2.363 0-4.132-1.8605-4.132-4.2242 0-2.379 1.769-4.2243 4.132-4.2243 2.364 0 4.133 1.8453 4.133 4.2243 0 2.3637-1.769 4.2242-4.133 4.2242zm0-1.8757c1.053 0 1.952-.8388 1.952-2.3485 0-1.5098-.899-2.3333-1.952-2.3333-1.052 0-1.952.8235-1.952 2.3333 0 1.5097.9 2.3485 1.952 2.3485zm7.758-2.7145v4.4377h-2.12v-8.1435h1.952v1.159c.595-.8082 1.434-1.3115 2.501-1.3115 1.632 0 2.761 1.0675 2.761 3.0348v5.2612h-2.105v-4.5445c0-1.2047-.473-1.8757-1.433-1.8757-.839 0-1.556.671-1.556 1.9825zm11.922 4.4377v-1.0065c-.534.7625-1.342 1.159-2.455 1.159-1.693 0-2.821-.9912-2.821-2.5162 0-1.586 1.281-2.44 3.66-2.44.457 0 .854.0305 1.357.0915v-.488c0-.915-.519-1.4488-1.403-1.4488-.915 0-1.464.5338-1.54 1.4488h-1.907c.122-1.8758 1.48-3.0958 3.447-3.0958 2.135 0 3.385 1.1743 3.385 3.172v5.124zm-3.279-2.4247c0 .6862.488 1.1132 1.281 1.1132 1.083 0 1.739-.5947 1.739-1.5402v-.5795c-.503-.0763-.854-.1068-1.22-.1068-1.205 0-1.8.3813-1.8 1.1133zm9.116 2.4247h-2.135v-10.9495h2.135zm12.896 0-.823-2.3485h-4.255l-.839 2.3485h-2.333l4.118-10.9495h2.531l4.087 10.9495zm-2.928-8.418-1.494 4.2243h2.958zm9.687 8.5705c-2.348 0-3.965-1.7385-3.965-4.2242 0-2.44 1.678-4.2243 3.965-4.2243 2.12 0 3.691 1.4335 3.95 3.6295h-2.227c-.106-1.0827-.762-1.7537-1.723-1.7537-1.098 0-1.799.8997-1.799 2.3485 0 1.464.686 2.3485 1.799 2.3485.976 0 1.601-.6405 1.723-1.7538h2.227c-.244 2.2418-1.769 3.6295-3.95 3.6295zm10.526-2.2112v1.8452c-.518.2593-1.006.366-1.631.366-1.678 0-2.73-.9607-2.73-2.7907v-3.6905h-1.647v-1.8148h1.647v-2.4095h2.104v2.4095h2.334v1.8148h-2.334v3.2025c0 .9455.427 1.3267 1.19 1.3267.396 0 .762-.0915 1.067-.2592zm3.979-7.9758c0 .7168-.58 1.2505-1.419 1.2505-.823 0-1.403-.5337-1.403-1.2505 0-.7472.58-1.281 1.403-1.281.839 0 1.419.5338 1.419 1.281zm-.336 10.0345h-2.12v-8.1435h2.12zm5.638.1525c-2.364 0-4.133-1.8605-4.133-4.2242 0-2.379 1.769-4.2243 4.133-4.2243s4.133 1.8453 4.133 4.2243c0 2.3637-1.769 4.2242-4.133 4.2242zm0-1.8757c1.052 0 1.952-.8388 1.952-2.3485 0-1.5098-.9-2.3333-1.952-2.3333s-1.952.8235-1.952 2.3333c0 1.5097.9 2.3485 1.952 2.3485zm7.758-2.7145v4.4377h-2.12v-8.1435h1.952v1.159c.595-.8082 1.433-1.3115 2.501-1.3115 1.632 0 2.76 1.0675 2.76 3.0348v5.2612h-2.104v-4.5445c0-1.2047-.473-1.8757-1.434-1.8757-.839 0-1.555.671-1.555 1.9825zm13.95 1.83c0 1.708-1.296 2.7602-3.614 2.7602s-3.614-1.1132-3.782-2.928h2.028c.015.8388.732 1.3725 1.784 1.3725.824 0 1.449-.2592 1.449-.8387 0-.5185-.335-.732-1.113-.8845l-1.464-.2745c-1.464-.2593-2.349-1.0675-2.349-2.3333 0-1.5097 1.297-2.562 3.325-2.562 2.043 0 3.446 1.0828 3.599 2.8365h-2.028c-.077-.793-.671-1.281-1.571-1.281-.778 0-1.296.2898-1.296.8083 0 .488.335.6862 1.067.8235l1.571.2897c1.586.305 2.394 1.037 2.394 2.2113z" fill="#20411b"/><rect fill="#9fd096" fill-opacity=".3" height="48" rx="11" width="340.673" x="338.344" y="124.807"/><rect height="19" rx="4.5" stroke="#4f973f" width="19" x="406.68" y="139.307"/><path d="m411.625 149.215 3.835 3.758 5.73-8.696" stroke="#4f973f" stroke-linecap="round" stroke-width="2"/><path d="m448.811 153.807-.975-2.587h-4.355l-.988 2.587h-.962l3.627-9.334h1.066l3.614 9.334zm-3.146-8.294-1.885 4.914h3.744zm7.684 8.437c-1.807 0-3.068-1.469-3.068-3.575 0-2.08 1.274-3.549 3.068-3.549 1.599 0 2.743 1.066 3.016 2.782h-.923c-.208-1.248-.988-1.989-2.093-1.989-1.274 0-2.145 1.118-2.145 2.756 0 1.664.871 2.782 2.145 2.782 1.118 0 1.885-.728 2.093-2.002h.923c-.247 1.742-1.404 2.795-3.016 2.795zm8.008-1.014v.806c-.351.143-.65.195-.988.195-1.131 0-2.002-.585-2.002-2.067v-4.147h-1.612v-.767h1.612v-2.028h.91v2.028h2.145v.767h-2.145v3.952c0 1.066.52 1.43 1.274 1.43.286 0 .52-.052.806-.169zm2.624-7.566c0 .403-.299.689-.741.689-.429 0-.728-.286-.728-.689 0-.39.299-.676.728-.676.442 0 .741.286.741.676zm-.273 8.437h-.91v-6.851h.91zm7.249-6.851-2.639 6.851h-.949l-2.613-6.851h.975l2.145 5.785 2.145-5.785zm3.545 6.981c-1.924 0-3.198-1.443-3.198-3.614 0-2.002 1.326-3.497 3.146-3.497 1.95 0 3.224 1.573 3.068 3.77h-5.304c.078 1.625.936 2.626 2.275 2.626 1.144 0 1.937-.637 2.158-1.729h.897c-.312 1.521-1.469 2.444-3.042 2.444zm-.065-6.409c-1.235 0-2.106.949-2.223 2.444h4.355c-.078-1.534-.871-2.444-2.132-2.444zm13.581 2.847c0 2.119-1.183 3.562-3.003 3.562-1.027 0-1.898-.559-2.366-1.534v3.913h-.91v-9.36h.845v1.482c.468-1.014 1.378-1.612 2.431-1.612 1.82 0 3.003 1.456 3.003 3.549zm-.923 0c0-1.729-.897-2.756-2.236-2.756-1.274 0-2.223 1.014-2.223 2.756 0 1.703.923 2.769 2.223 2.769 1.339 0 2.236-1.014 2.236-2.769zm6.6 3.432v-1.248c-.403.858-1.235 1.378-2.301 1.378-1.417 0-2.34-.793-2.34-2.028 0-1.339 1.066-2.041 3.146-2.041.416 0 .728.026 1.404.078v-.572c0-1.144-.611-1.82-1.651-1.82-1.118 0-1.82.689-1.833 1.807h-.832c.039-1.521 1.092-2.535 2.652-2.535 1.599 0 2.535.936 2.535 2.522v4.459zm-3.77-1.924c0 .832.637 1.391 1.599 1.391 1.274 0 2.08-.832 2.08-2.119v-.611c-.585-.052-.988-.065-1.365-.065-1.56 0-2.314.455-2.314 1.404zm7.374-1.742v3.666h-.91v-6.851h.845v1.56c.468-1.014 1.482-1.664 2.613-1.664v.949c-1.443-.052-2.548.845-2.548 2.34zm7.59 2.795v.806c-.351.143-.65.195-.988.195-1.131 0-2.002-.585-2.002-2.067v-4.147h-1.612v-.767h1.612v-2.028h.91v2.028h2.145v.767h-2.145v3.952c0 1.066.52 1.43 1.274 1.43.286 0 .52-.052.806-.169zm2.624-7.566c0 .403-.299.689-.741.689-.429 0-.728-.286-.728-.689 0-.39.299-.676.728-.676.442 0 .741.286.741.676zm-.273 8.437h-.91v-6.851h.91zm4.533.143c-1.807 0-3.068-1.469-3.068-3.575 0-2.08 1.274-3.549 3.068-3.549 1.599 0 2.743 1.066 3.016 2.782h-.923c-.208-1.248-.988-1.989-2.093-1.989-1.274 0-2.145 1.118-2.145 2.756 0 1.664.871 2.782 2.145 2.782 1.118 0 1.885-.728 2.093-2.002h.923c-.247 1.742-1.404 2.795-3.016 2.795zm5.668-8.58c0 .403-.299.689-.741.689-.429 0-.728-.286-.728-.689 0-.39.299-.676.728-.676.442 0 .741.286.741.676zm-.273 8.437h-.91v-6.851h.91zm8.25-3.432c0 2.119-1.183 3.562-3.003 3.562-1.027 0-1.898-.559-2.366-1.534v3.913h-.91v-9.36h.845v1.482c.468-1.014 1.378-1.612 2.431-1.612 1.82 0 3.003 1.456 3.003 3.549zm-.923 0c0-1.729-.897-2.756-2.236-2.756-1.274 0-2.223 1.014-2.223 2.756 0 1.703.923 2.769 2.223 2.769 1.339 0 2.236-1.014 2.236-2.769zm6.601 3.432v-1.248c-.403.858-1.235 1.378-2.301 1.378-1.417 0-2.34-.793-2.34-2.028 0-1.339 1.066-2.041 3.146-2.041.416 0 .728.026 1.404.078v-.572c0-1.144-.611-1.82-1.651-1.82-1.118 0-1.82.689-1.833 1.807h-.832c.039-1.521 1.092-2.535 2.652-2.535 1.599 0 2.535.936 2.535 2.522v4.459zm-3.77-1.924c0 .832.637 1.391 1.599 1.391 1.274 0 2.08-.832 2.08-2.119v-.611c-.585-.052-.988-.065-1.365-.065-1.56 0-2.314.455-2.314 1.404zm9.949 1.053v.806c-.351.143-.65.195-.988.195-1.131 0-2.002-.585-2.002-2.067v-4.147h-1.612v-.767h1.612v-2.028h.91v2.028h2.145v.767h-2.145v3.952c0 1.066.52 1.43 1.274 1.43.286 0 .52-.052.806-.169zm2.624-7.566c0 .403-.299.689-.741.689-.429 0-.728-.286-.728-.689 0-.39.299-.676.728-.676.442 0 .741.286.741.676zm-.273 8.437h-.91v-6.851h.91zm4.714.13c-1.885 0-3.25-1.495-3.25-3.562 0-2.054 1.365-3.536 3.25-3.536 1.898 0 3.263 1.482 3.263 3.536 0 2.067-1.365 3.562-3.263 3.562zm0-.793c1.339 0 2.34-1.066 2.34-2.769 0-1.677-1.001-2.743-2.34-2.743-1.326 0-2.327 1.066-2.327 2.743 0 1.703 1.001 2.769 2.327 2.769zm5.645-3.328v3.991h-.91v-6.851h.845v1.287c.442-.845 1.274-1.417 2.262-1.417 1.43 0 2.353.91 2.353 2.535v4.446h-.91v-4.134c0-1.313-.598-2.054-1.716-2.054-1.066 0-1.924.923-1.924 2.197z" fill="#20411b"/><rect fill="#9fd096" fill-opacity=".3" height="48" rx="11" width="340.673" x="338.344" y="180.807"/><rect height="19" rx="4.5" stroke="#4f973f" width="19" x="406.68" y="195.307"/><path d="m411.625 205.215 3.835 3.758 5.73-8.696" stroke="#4f973f" stroke-linecap="round" stroke-width="2"/><path d="m446.406 210.002c-2.704 0-4.706-2.158-4.706-4.875s2.002-4.849 4.706-4.849 4.719 2.132 4.719 4.849-2.015 4.875-4.719 4.875zm0-.871c2.21 0 3.705-1.768 3.705-4.004s-1.495-3.978-3.705-3.978c-2.197 0-3.705 1.742-3.705 3.978s1.508 4.004 3.705 4.004zm12.489-2.756c0 2.119-1.183 3.562-3.003 3.562-1.027 0-1.898-.559-2.366-1.534v3.913h-.91v-9.36h.845v1.482c.468-1.014 1.378-1.612 2.431-1.612 1.82 0 3.003 1.456 3.003 3.549zm-.923 0c0-1.729-.897-2.756-2.236-2.756-1.274 0-2.223 1.014-2.223 2.756 0 1.703.923 2.769 2.223 2.769 1.339 0 2.236-1.014 2.236-2.769zm5.079 3.562c-1.924 0-3.198-1.443-3.198-3.614 0-2.002 1.326-3.497 3.146-3.497 1.95 0 3.224 1.573 3.068 3.77h-5.304c.078 1.625.936 2.626 2.275 2.626 1.144 0 1.937-.637 2.158-1.729h.897c-.312 1.521-1.469 2.444-3.042 2.444zm-.065-6.409c-1.235 0-2.106.949-2.223 2.444h4.355c-.078-1.534-.871-2.444-2.132-2.444zm5.495 2.288v3.991h-.91v-6.851h.845v1.287c.442-.845 1.274-1.417 2.262-1.417 1.43 0 2.353.91 2.353 2.535v4.446h-.91v-4.134c0-1.313-.598-2.054-1.716-2.054-1.066 0-1.924.923-1.924 2.197zm13.278 4.186c-2.6 0-4.563-2.119-4.563-4.875 0-2.743 1.963-4.849 4.563-4.849 2.223 0 4.056 1.495 4.42 3.718h-1.027c-.299-1.664-1.677-2.847-3.393-2.847-2.067 0-3.562 1.69-3.562 3.978 0 2.314 1.495 4.004 3.562 4.004 1.729 0 3.107-1.196 3.393-2.86h1.027c-.364 2.223-2.197 3.731-4.42 3.731zm8.677-.065c-1.885 0-3.25-1.495-3.25-3.562 0-2.054 1.365-3.536 3.25-3.536 1.898 0 3.263 1.482 3.263 3.536 0 2.067-1.365 3.562-3.263 3.562zm0-.793c1.339 0 2.34-1.066 2.34-2.769 0-1.677-1.001-2.743-2.34-2.743-1.326 0-2.327 1.066-2.327 2.743 0 1.703 1.001 2.769 2.327 2.769zm5.645.663h-.91v-6.851h.845v1.287c.455-.884 1.261-1.417 2.236-1.417 1.066 0 1.859.585 2.145 1.586.429-.962 1.287-1.586 2.366-1.586 1.417 0 2.301.936 2.301 2.535v4.446h-.897v-4.147c0-1.3-.598-2.041-1.703-2.041-1.04 0-1.885.91-1.885 2.171v4.017h-.91v-4.147c0-1.3-.598-2.041-1.703-2.041-1.053 0-1.885.91-1.885 2.171zm11.806 0h-.91v-6.851h.845v1.287c.455-.884 1.261-1.417 2.236-1.417 1.066 0 1.859.585 2.145 1.586.429-.962 1.287-1.586 2.366-1.586 1.417 0 2.301.936 2.301 2.535v4.446h-.897v-4.147c0-1.3-.598-2.041-1.703-2.041-1.04 0-1.885.91-1.885 2.171v4.017h-.91v-4.147c0-1.3-.598-2.041-1.703-2.041-1.053 0-1.885.91-1.885 2.171zm15.278-2.769v-4.082h.897v6.851h-.845v-1.235c-.351.793-1.183 1.365-2.184 1.365-1.391 0-2.314-.793-2.314-2.522v-4.459h.91v4.264c0 1.391.689 1.924 1.651 1.924 1.092 0 1.885-.884 1.885-2.106zm3.778-1.222v3.991h-.91v-6.851h.845v1.287c.442-.845 1.274-1.417 2.262-1.417 1.43 0 2.353.91 2.353 2.535v4.446h-.91v-4.134c0-1.313-.598-2.054-1.716-2.054-1.066 0-1.924.923-1.924 2.197zm7.649-4.446c0 .403-.299.689-.741.689-.429 0-.728-.286-.728-.689 0-.39.299-.676.728-.676.442 0 .741.286.741.676zm-.273 8.437h-.91v-6.851h.91zm4.533.143c-1.807 0-3.068-1.469-3.068-3.575 0-2.08 1.274-3.549 3.068-3.549 1.599 0 2.743 1.066 3.016 2.782h-.923c-.208-1.248-.988-1.989-2.093-1.989-1.274 0-2.145 1.118-2.145 2.756 0 1.664.871 2.782 2.145 2.782 1.118 0 1.885-.728 2.093-2.002h.923c-.247 1.742-1.404 2.795-3.016 2.795zm8.697-.143v-1.248c-.403.858-1.235 1.378-2.301 1.378-1.417 0-2.34-.793-2.34-2.028 0-1.339 1.066-2.041 3.146-2.041.416 0 .728.026 1.404.078v-.572c0-1.144-.611-1.82-1.651-1.82-1.118 0-1.82.689-1.833 1.807h-.832c.039-1.521 1.092-2.535 2.652-2.535 1.599 0 2.535.936 2.535 2.522v4.459zm-3.77-1.924c0 .832.637 1.391 1.599 1.391 1.274 0 2.08-.832 2.08-2.119v-.611c-.585-.052-.988-.065-1.365-.065-1.56 0-2.314.455-2.314 1.404zm9.949 1.053v.806c-.351.143-.65.195-.988.195-1.131 0-2.002-.585-2.002-2.067v-4.147h-1.612v-.767h1.612v-2.028h.91v2.028h2.145v.767h-2.145v3.952c0 1.066.52 1.43 1.274 1.43.286 0 .52-.052.806-.169zm2.624-7.566c0 .403-.299.689-.741.689-.429 0-.728-.286-.728-.689 0-.39.299-.676.728-.676.442 0 .741.286.741.676zm-.273 8.437h-.91v-6.851h.91zm4.715.13c-1.885 0-3.25-1.495-3.25-3.562 0-2.054 1.365-3.536 3.25-3.536 1.898 0 3.263 1.482 3.263 3.536 0 2.067-1.365 3.562-3.263 3.562zm0-.793c1.339 0 2.34-1.066 2.34-2.769 0-1.677-1.001-2.743-2.34-2.743-1.326 0-2.327 1.066-2.327 2.743 0 1.703 1.001 2.769 2.327 2.769zm5.644-3.328v3.991h-.91v-6.851h.845v1.287c.442-.845 1.274-1.417 2.262-1.417 1.43 0 2.353.91 2.353 2.535v4.446h-.91v-4.134c0-1.313-.598-2.054-1.716-2.054-1.066 0-1.924.923-1.924 2.197z" fill="#20411b"/><rect fill="url(#a)" fill-opacity=".3" height="48" rx="11" width="340.673" x="338.344" y="236.807"/><rect height="19" rx="4.5" stroke="url(#c)" width="19" x="406.68" y="251.307"/><path d="m411.625 261.215 3.835 3.758 5.73-8.696" stroke="url(#d)" stroke-linecap="round" stroke-width="2"/><path d="m446.523 265.807-3.38-7.917v7.917h-.91v-9.334h1.261l3.458 8.138 3.484-8.138h1.248v9.334h-.897v-7.917l-3.406 7.917zm9.94.13c-1.885 0-3.25-1.495-3.25-3.562 0-2.054 1.365-3.536 3.25-3.536 1.898 0 3.263 1.482 3.263 3.536 0 2.067-1.365 3.562-3.263 3.562zm0-.793c1.339 0 2.34-1.066 2.34-2.769 0-1.677-1.001-2.743-2.34-2.743-1.326 0-2.327 1.066-2.327 2.743 0 1.703 1.001 2.769 2.327 2.769zm4.228-2.769c0-2.106 1.17-3.549 3.016-3.549 1.027 0 1.898.585 2.353 1.56v-3.913h.91v9.334h-.845v-1.443c-.481 1.001-1.365 1.573-2.418 1.573-1.846 0-3.016-1.456-3.016-3.562zm.923 0c0 1.742.884 2.769 2.223 2.769 1.326 0 2.236-1.079 2.236-2.795 0-1.729-.936-2.73-2.236-2.73-1.339 0-2.223 1.014-2.223 2.756zm10.019 3.562c-1.924 0-3.198-1.443-3.198-3.614 0-2.002 1.326-3.497 3.146-3.497 1.95 0 3.224 1.573 3.068 3.77h-5.304c.078 1.625.936 2.626 2.275 2.626 1.144 0 1.937-.637 2.158-1.729h.897c-.312 1.521-1.469 2.444-3.042 2.444zm-.065-6.409c-1.235 0-2.106.949-2.223 2.444h4.355c-.078-1.534-.871-2.444-2.132-2.444zm5.495 6.279h-.91v-9.334h.91zm4.663.13c-1.924 0-3.198-1.443-3.198-3.614 0-2.002 1.326-3.497 3.146-3.497 1.95 0 3.224 1.573 3.068 3.77h-5.304c.078 1.625.936 2.626 2.275 2.626 1.144 0 1.937-.637 2.158-1.729h.897c-.312 1.521-1.469 2.444-3.042 2.444zm-.065-6.409c-1.235 0-2.106.949-2.223 2.444h4.355c-.078-1.534-.871-2.444-2.132-2.444zm3.951 2.847c0-2.106 1.17-3.549 3.016-3.549 1.027 0 1.898.585 2.353 1.56v-3.913h.91v9.334h-.845v-1.443c-.481 1.001-1.365 1.573-2.418 1.573-1.846 0-3.016-1.456-3.016-3.562zm.923 0c0 1.742.884 2.769 2.223 2.769 1.326 0 2.236-1.079 2.236-2.795 0-1.729-.936-2.73-2.236-2.73-1.339 0-2.223 1.014-2.223 2.756zm10.955-.234v3.666h-.91v-6.851h.845v1.56c.468-1.014 1.482-1.664 2.613-1.664v.949c-1.443-.052-2.548.845-2.548 2.34zm6.338 3.796c-1.924 0-3.198-1.443-3.198-3.614 0-2.002 1.326-3.497 3.146-3.497 1.95 0 3.224 1.573 3.068 3.77h-5.304c.078 1.625.936 2.626 2.275 2.626 1.144 0 1.937-.637 2.158-1.729h.897c-.312 1.521-1.469 2.444-3.042 2.444zm-.065-6.409c-1.235 0-2.106.949-2.223 2.444h4.355c-.078-1.534-.871-2.444-2.132-2.444zm9.707 4.368c0 1.261-1.014 2.041-2.704 2.041-1.703 0-2.743-.858-2.873-2.275h.871c.065.975.832 1.586 2.002 1.586 1.118 0 1.794-.429 1.794-1.209 0-.676-.39-.988-1.43-1.196l-.988-.195c-1.3-.247-1.989-.884-1.989-1.872 0-1.144 1.014-1.95 2.509-1.95 1.573 0 2.613.845 2.717 2.21h-.858c-.091-.949-.78-1.508-1.859-1.508-.962 0-1.625.455-1.625 1.17 0 .676.416 1.001 1.43 1.196l1.027.195c1.365.26 1.976.832 1.976 1.807zm7.86-1.521c0 2.119-1.183 3.562-3.003 3.562-1.027 0-1.898-.559-2.366-1.534v3.913h-.91v-9.36h.845v1.482c.468-1.014 1.378-1.612 2.431-1.612 1.82 0 3.003 1.456 3.003 3.549zm-.923 0c0-1.729-.897-2.756-2.236-2.756-1.274 0-2.223 1.014-2.223 2.756 0 1.703.923 2.769 2.223 2.769 1.339 0 2.236-1.014 2.236-2.769zm5.08 3.562c-1.924 0-3.198-1.443-3.198-3.614 0-2.002 1.326-3.497 3.146-3.497 1.95 0 3.224 1.573 3.068 3.77h-5.304c.078 1.625.936 2.626 2.275 2.626 1.144 0 1.937-.637 2.158-1.729h.897c-.312 1.521-1.469 2.444-3.042 2.444zm-.065-6.409c-1.235 0-2.106.949-2.223 2.444h4.355c-.078-1.534-.871-2.444-2.132-2.444zm7.019 6.422c-1.807 0-3.068-1.469-3.068-3.575 0-2.08 1.274-3.549 3.068-3.549 1.599 0 2.743 1.066 3.016 2.782h-.923c-.208-1.248-.988-1.989-2.093-1.989-1.274 0-2.145 1.118-2.145 2.756 0 1.664.871 2.782 2.145 2.782 1.118 0 1.885-.728 2.093-2.002h.923c-.247 1.742-1.404 2.795-3.016 2.795zm8.008-1.014v.806c-.351.143-.65.195-.988.195-1.131 0-2.002-.585-2.002-2.067v-4.147h-1.613v-.767h1.613v-2.028h.91v2.028h2.145v.767h-2.145v3.952c0 1.066.52 1.43 1.274 1.43.286 0 .52-.052.806-.169z" fill="url(#e)"/><rect fill="url(#f)" fill-opacity=".5" height="48" rx="11" width="340.673" x="338.344" y="292.807"/><rect height="19" opacity=".6" rx="4.5" stroke="#4f973f" stroke-opacity=".34" width="19" x="406.68" y="307.307"/><path d="m448.772 319.22c0 1.482-1.209 2.717-3.38 2.717s-3.445-1.209-3.536-2.977h.988c.091 1.326.923 2.184 2.535 2.184 1.326 0 2.366-.676 2.366-1.794 0-.962-.546-1.404-1.872-1.677l-1.183-.234c-1.235-.247-2.535-.819-2.535-2.444 0-1.495 1.313-2.652 3.172-2.652 1.82 0 3.224 1.144 3.328 2.925h-1.001c-.065-1.235-.975-2.132-2.314-2.132-1.43 0-2.197.871-2.197 1.807 0 1.105.936 1.443 1.976 1.651l1.183.247c1.573.325 2.47.975 2.47 2.379zm4.492 2.717c-1.885 0-3.25-1.495-3.25-3.562 0-2.054 1.365-3.536 3.25-3.536 1.898 0 3.263 1.482 3.263 3.536 0 2.067-1.365 3.562-3.263 3.562zm0-.793c1.339 0 2.34-1.066 2.34-2.769 0-1.677-1.001-2.743-2.34-2.743-1.326 0-2.327 1.066-2.327 2.743 0 1.703 1.001 2.769 2.327 2.769zm5.645.663h-.91v-9.334h.91zm6.353-2.769v-4.082h.897v6.851h-.845v-1.235c-.351.793-1.183 1.365-2.184 1.365-1.391 0-2.314-.793-2.314-2.522v-4.459h.91v4.264c0 1.391.689 1.924 1.651 1.924 1.092 0 1.885-.884 1.885-2.106zm6.391 1.898v.806c-.351.143-.65.195-.988.195-1.131 0-2.002-.585-2.002-2.067v-4.147h-1.612v-.767h1.612v-2.028h.91v2.028h2.145v.767h-2.145v3.952c0 1.066.52 1.43 1.274 1.43.286 0 .52-.052.806-.169zm2.623-7.566c0 .403-.299.689-.741.689-.429 0-.728-.286-.728-.689 0-.39.299-.676.728-.676.442 0 .741.286.741.676zm-.273 8.437h-.91v-6.851h.91zm4.715.13c-1.885 0-3.25-1.495-3.25-3.562 0-2.054 1.365-3.536 3.25-3.536 1.898 0 3.263 1.482 3.263 3.536 0 2.067-1.365 3.562-3.263 3.562zm0-.793c1.339 0 2.34-1.066 2.34-2.769 0-1.677-1.001-2.743-2.34-2.743-1.326 0-2.327 1.066-2.327 2.743 0 1.703 1.001 2.769 2.327 2.769zm5.645-3.328v3.991h-.91v-6.851h.845v1.287c.442-.845 1.274-1.417 2.262-1.417 1.43 0 2.353.91 2.353 2.535v4.446h-.91v-4.134c0-1.313-.598-2.054-1.716-2.054-1.066 0-1.924.923-1.924 2.197zm11.744 4.134c-1.807 0-3.068-1.469-3.068-3.575 0-2.08 1.274-3.549 3.068-3.549 1.599 0 2.743 1.066 3.016 2.782h-.923c-.208-1.248-.988-1.989-2.093-1.989-1.274 0-2.145 1.118-2.145 2.756 0 1.664.871 2.782 2.145 2.782 1.118 0 1.885-.728 2.093-2.002h.923c-.247 1.742-1.404 2.795-3.016 2.795zm7.139-.013c-1.885 0-3.25-1.495-3.25-3.562 0-2.054 1.365-3.536 3.25-3.536 1.898 0 3.263 1.482 3.263 3.536 0 2.067-1.365 3.562-3.263 3.562zm0-.793c1.339 0 2.34-1.066 2.34-2.769 0-1.677-1.001-2.743-2.34-2.743-1.326 0-2.327 1.066-2.327 2.743 0 1.703 1.001 2.769 2.327 2.769zm5.644-3.328v3.991h-.91v-6.851h.845v1.287c.442-.845 1.274-1.417 2.262-1.417 1.43 0 2.353.91 2.353 2.535v4.446h-.91v-4.134c0-1.313-.598-2.054-1.716-2.054-1.066 0-1.924.923-1.924 2.197zm9.976 3.12v.806c-.351.143-.65.195-.988.195-1.131 0-2.002-.585-2.002-2.067v-4.147h-1.612v-.767h1.612v-2.028h.91v2.028h2.145v.767h-2.145v3.952c0 1.066.52 1.43 1.274 1.43.286 0 .52-.052.806-.169zm2.351-2.795v3.666h-.91v-6.851h.845v1.56c.468-1.014 1.482-1.664 2.613-1.664v.949c-1.443-.052-2.548.845-2.548 2.34zm4.844-4.771c0 .403-.299.689-.741.689-.429 0-.728-.286-.728-.689 0-.39.299-.676.728-.676.442 0 .741.286.741.676zm-.273 8.437h-.91v-6.851h.91zm8.25-3.432c0 2.106-1.183 3.562-3.016 3.562-1.053 0-1.937-.572-2.418-1.573v1.443h-.845v-9.334h.91v3.926c.442-1.001 1.313-1.573 2.353-1.573 1.833 0 3.016 1.443 3.016 3.549zm-.923 0c0-1.742-.897-2.756-2.236-2.756-1.287 0-2.223 1.001-2.223 2.73 0 1.716.91 2.795 2.223 2.795 1.339 0 2.236-1.027 2.236-2.769zm6.77.663v-4.082h.897v6.851h-.845v-1.235c-.351.793-1.183 1.365-2.184 1.365-1.391 0-2.314-.793-2.314-2.522v-4.459h.91v4.264c0 1.391.689 1.924 1.651 1.924 1.092 0 1.885-.884 1.885-2.106zm6.391 1.898v.806c-.351.143-.65.195-.988.195-1.131 0-2.002-.585-2.002-2.067v-4.147h-1.612v-.767h1.612v-2.028h.91v2.028h2.145v.767h-2.145v3.952c0 1.066.52 1.43 1.274 1.43.286 0 .52-.052.806-.169zm2.624-7.566c0 .403-.299.689-.741.689-.429 0-.728-.286-.728-.689 0-.39.299-.676.728-.676.442 0 .741.286.741.676zm-.273 8.437h-.91v-6.851h.91zm4.714.13c-1.885 0-3.25-1.495-3.25-3.562 0-2.054 1.365-3.536 3.25-3.536 1.898 0 3.263 1.482 3.263 3.536 0 2.067-1.365 3.562-3.263 3.562zm0-.793c1.339 0 2.34-1.066 2.34-2.769 0-1.677-1.001-2.743-2.34-2.743-1.326 0-2.327 1.066-2.327 2.743 0 1.703 1.001 2.769 2.327 2.769zm5.645-3.328v3.991h-.91v-6.851h.845v1.287c.442-.845 1.274-1.417 2.262-1.417 1.43 0 2.353.91 2.353 2.535v4.446h-.91v-4.134c0-1.313-.598-2.054-1.716-2.054-1.066 0-1.924.923-1.924 2.197z" fill="#20411b" fill-opacity=".35"/><path d="m177.892 183.805s-2.196 1.105-2.162 3.895c.034 2.789-.946 6.849 2.162 13.016 3.109 6.167 8.762 12.903 12.096 18.161 3.333 5.258 9.269 18.079 10.89 25.692 1.622 7.614 3.762 28.512 7.129 32.789 3.368 4.277 11.195 10.579 19.033 13.399 7.839 2.82 23.955 8.378 30.419 8.171 6.465-.206 9.686-.723 9.686-.723s-1.656 3.306-1.656 5.362c0 2.055-.54 6.219 3.503 6.198s11.071.496 17.85-3.295c6.78-3.792 13.166-8.389 16.015-11.757 2.849-3.367 4.809-6.126 4.809-6.126s-4.302.217-4.933-4.359l-.63-4.576s16.183-16.839 21.127-24.628c4.944-7.79 12.76-23.637 12.76-23.637s-.788-4.142-6.475-5.795c-5.688-1.653-20.328-4.845-20.328-4.845s4.718 2.345 6.273-3.182c1.554-5.527-2.805-17.748-5.237-18.967-2.433-1.219-4.911-2.882-7.49-.64-2.579 2.241-3.896 5.899-3.896 5.899l-.62 6.497s-4.313-21.229-6.971-26.549-12.208-17.252-23.02-17.903-13.582 2.149-20.486 8.957c-6.903 6.808-17.49 15.671-27.603 17.779-10.114 2.107-11.634 3.285-18.774-2.222-7.152-5.506-11.409-9.793-14.731-9.514-3.323.279-8.74 2.903-8.74 2.903z" fill="#f9fafb"/><path d="m321.487 355.84s2.151 17.676 2.443 20.837c.293 3.161.564 6.808.564 6.808s-14.45 5.692-21.365 9.39c-6.915 3.699-19.618 9.546-19.618 9.546s-11.983-9.68-18.009-10.155c-6.025-.475-10.045-.455-12.613.609s-5.879 2.221-5.879 2.221-7.073-1.332-11.679 0c-4.606 1.333-1.903.796-1.903.796l-.248-28.616-7.129-5.113s-1.306 6.146-2.016 8.729c-.709 2.583-4.167 11.694-5.586 13.822s-4.144 4.711-4.144 4.711l7.365 14.907s10.958 21.942 11.51 21.673c.552-.268.439-20.413.439-20.413l4.449 1.126s-1.07 1.901 2.478 4.091l3.558 2.19s.079 2.593 1.453 6.116 4.753 6.126 7.343 7.242c2.59 1.115 6.971 4.235 10.609 4.028 3.638-.206 10.519-1.301 16.724-4.38 6.206-3.078 9.269-4.473 9.269-4.473s34.124-3.161 42.627-3.688 21.218-1.477 24.45-5.96c3.233-4.484 5.891-11.271 5.012-20.124-.878-8.854-5.732-33.079-5.732-33.079l-.98-2.851h-33.392z" fill="#f9fafb"/><path d="m179.592 395.106s-1.78 1.096-2.838 5.124c-1.059 4.029-2.162 7.046-3.075 9.432-.912 2.387-2.579 3.668-1.16 6.839s7.827 6.074 7.827 6.074.237.971 1.059 3.44 2.838 3.947 5.26 5.135c2.421 1.188 2.286 4.648 4.64 6.332 2.353 1.684 5.811 4.205 8.21 3.533 2.398-.671 6.52-2.789 10-4.008s5.846-3.874 4.787-4.587c-1.059-.712-3.863-2.231-7.535-2.014-3.671.217-4.696 2.128-6.824 1.704-2.129-.423-2.568-6.095-2.568-6.095s4.302-4.876 1.408-3.44c0 0 5.755-.857 7.489-4.462 1.734-3.606-2.106-10.403-4.865-9.091-2.76 1.312-7.039 4.339-8.965 6.126s-3.311 3.336-4.775 1.343c-1.464-1.994-2.388-3.575-2.388-3.575s2.692-9.266 1.352-12.995c-1.34-3.73-1.352-4.391-3.052-4.825-1.701-.434-3.976 0-3.976 0z" fill="#f9fafb"/><path d="m246.675 465.714s.157 18.378-.304 24.008c-.462 5.63-4.494 58.585-4.348 63.884.147 5.3-2.398 40.455-2.139 46.56s-.518 14.824-1.521 19.865c-1.002 5.042-2.68 16.581-.698 21.126 1.982 4.546 5.789 9.411 10.879 11.622 5.091 2.211 12.963 2.717 20.756 2.975 7.794.259 13.076-.175 15.317-3.46s5.676-17.459 6.791-25.661c1.115-8.203 4.449-37.366 4.449-37.366s7.061 19.649 7.951 23.647c.889 3.998 1.16 17.717 3.232 24.06 2.072 6.342 3.007 13.212 3.007 13.212l2.883 13.44s9.483 3.502 19.281 4.184 20.7-1.147 23.222-2.438c2.523-1.291 4.674-2.841 4.674-2.841s-1.678-33.698-2.432-36.012c-.755-2.314-1.51-4.938-1.51-4.938l.147-3.667-1.543-14.949-2.095-19.359-4.899-32.903s-5.935-40.671-6.509-43.088c-.575-2.418.822-8.523.822-8.523s2.14-2.996 1.655-8.12c-.484-5.124-3.119-31.673-3.119-31.673s-19.743 12.903-36.152 14.494c-16.409 1.59-30.396 1.043-36.872-.682s-20.891-7.397-20.891-7.397z" fill="#e5e4e5"/><path d="m164.144 377.45s-.405-1.064 1.543-.754c1.949.31 30.78 4.907 32.616 5.207 1.835.299 3.277-1.044 4.752 1.085 1.475 2.128 13.03 24.762 14.044 26.756l11.386 22.293c.856 1.673 3.672 6.126 2.714 6.477-.957.351-19.956-1.766-19.956-1.766s4.899-.713 3.975-2.521c-.923-1.808-5.98-4.143-8.446-3.822-2.467.32-6.251 1.467-6.251 1.467l-5.563-2.8s.214-2.252 2.004-4.039c1.791-1.787 7.884-5.3 9.303-6.922s1.205-7.458-.811-8.243c-2.016-.786-5.518-.424-7.129.671-1.61 1.095-6.555 6.911-8.39 6.674-1.836-.238-4.257-2.325-4.449-3.306-.191-.982 1.149-12.81 1.149-13.977 0-1.168-.755-4.887-3.581-5.021-2.827-.134-4.854 1.229-4.854 1.229l-2.129 6.787-10.722-21.983-1.182-3.492z" fill="#757574"/><path d="m168.47 370.169s.721-.238 2.602.041 34.293 4.7 35.521 5.589c1.227.888 3.863 5.888 3.863 5.888l15.575 31.539 9.675 20.176-3.323 4.07-1.205-.196s-26.477-53.223-28.133-54.287c-1.655-1.064-23.47-4.07-23.47-4.07l-15.013-2.273 2.613-4.732 1.284-1.735h.011z" fill="#a8a8a8"/><path d="m267.145 298.195s-.878.723-4.212.723c-3.333 0-6.442.878-6.442.878s.473-2.707-6.723 3.419c-7.197 6.126-11.071 10.413-14.067 14.194-2.995 3.781-13.165 23.513-14.866 26.88-1.7 3.368-2.421 7.573-2.421 7.573s.924 3.357 4.268 6.828c3.345 3.471 10.463 8.595 10.463 8.595l.248 28.616s3.536-1.901 5.023-1.343c1.486.558 7.095 1.064 7.095 1.064s7.692-3.234 11.003-3.533c3.311-.3 8.965-1.106 12.478.795 3.514 1.901 14.495 9.546 14.495 9.546s8.052-3.327 12.884-5.94c4.831-2.614 17.456-9.474 21.488-10.713 4.032-1.24 6.611-2.283 6.611-2.283l-1.228-12.604-1.768-9.09s6.453-2.955 14.539-3.637c8.087-.682 19.371-.744 19.371-.744l2.771 10.971s8.514-2.613 9.043-5.268c.53-2.655-1.779-12.769-5.642-21.353-3.863-8.585-16.668-30.537-23.346-36.095-6.679-5.558-19.754-13.347-20.959-13.347s-7.974-4.938-7.974-4.938h-3.424s3.537-.403.248 3.481c-3.288 3.885-13.233 13.977-21.961 16.736-8.728 2.758-14.866 2.81-16.983.537-2.118-2.273-1.656-4.566-1.656-4.566l1.656-5.362v-.02z" fill="#cacacc"/><path d="m233.442 405.601 4.595 1.126s.337 2.624 2.477 4.09c2.14 1.467 3.559 2.191 3.559 2.191s-.664 4.524.788 6.776c1.453 2.252 5.857 5.507 7.997 6.581 2.139 1.074 4.617 2.242 6.847 3.089s4.088 1.849 9.28.392c5.192-1.456 20.463-8.305 20.463-8.305l19.743-1.788 30.993-2.531s-.912 10.248 0 13.203c.913 2.954 3.615 26.766 3.615 26.766s6.701-2.903-5.608 3.595c-12.31 6.498-30.194 12.851-40.87 14.442-10.677 1.591-31.681-1.777-39.215-4.597-7.535-2.82-23.504-11.952-23.504-11.952l-1.25-20.971s2.443-2.448 2.342-4.298c-.101-1.849-1.971-4.576-1.971-4.576l-.293-23.223h.012z" fill="#cacacc"/><path d="m176.468 185.158s-1.847-3.274 2.343-13.223c4.189-9.948 7.725-18.791 16.882-30.351 9.156-11.56 13.525-20.02 25.148-26.219 11.622-6.198 22.231-11.456 40.003-13.76 17.772-2.3036 41.749 1.374 53.788 8.203 12.039 6.828 14.9 13.223 14.9 13.223s12.129 14.318 14.224 31.632 1.678 37.623.698 43.956-8.446 32.779-8.446 32.779.687-3.822-6.476-5.796c-7.163-1.973-17.107-3.791-17.929-4.101-.823-.31-2.456-1.332-2.456-1.332s6.172.743 6.882-3.069c.709-3.812 1.374-10.196-1.949-14.752-3.322-4.555-6.622-6.993-9.28-5.475-2.658 1.519-5.687 4.825-5.969 6.994-.281 2.169-.619 6.498-.619 6.498s-5.012-21.085-7.67-27.769c-2.658-6.683-17.141-20.413-27.626-16.435-10.485 3.977-10.293 4.845-19.494 12.417-9.202 7.572-15.43 12.283-22.592 13.863-7.163 1.581-13.109 3.843-21.736-3.605s-12.265-8.977-16.24-7.448c-3.976 1.529-6.386 3.781-6.386 3.781z" fill="#cacacc"/><path d="m292.812 188.826s2.388.454 10.013-5.63c7.624-6.085 11.6-10.641 14.911-15.806s7.624-16.105 9.28-21.58c1.655-5.476 2.522-16.416 2.522-16.416v-6.373s12.411 17.066 14.224 31.632c1.814 14.566.699 43.956.699 43.956s-3.863 6.384-7.343 10.382-7.017 7.686-10.384 10.248-7.32 3.523-7.32 3.523l-10.26-2.593s4.516.134 6.881-3.068c2.365-3.203.71-10.496-1.948-14.752-2.658-4.257-6.296-7.294-9.28-5.476-2.985 1.819-2.771.713-4.37 3.854-1.599 3.14-1.768 11.146-1.768 11.146l-5.857-23.057z" fill="#e5e4e5"/><path d="m239.709 645.9-15.215 6.581-9.697 4.225s6.859 2.262 11.69 4.896c4.831 2.635 14.337 8.554 16.961 11.188 2.624 2.635 5.957 7.325 6.273 8.523l.326 1.198 23.673-8.264s-.901-4.07 1.724-8.688c2.624-4.618 6.971-10.155 6.971-10.155l-.912-1.477s-7.557 2.975-15.182 2.779c-7.624-.197-11.127-.321-17.704-3.75-6.577-3.43-8.897-7.066-8.897-7.066h-.011z" fill="#cacacc"/><path d="m318.572 666.479-.822 9.597v7.345l17.299 15.444s1.137-6.167 8.446-8.461c7.309-2.293 12.332-3.853 19.337-4.245 7.005-.393 19.822-1.839 19.822-1.839s-10.62-6.064-15.812-8.915c-5.192-2.852-8.334-4.505-9.674-6.726-1.341-2.221-1.701-3.119-1.701-3.119s-6.701 3.212-13.425 3.119c-6.723-.093-23.481-2.2-23.481-2.2z" fill="#cacacc"/><path d="m215.849 656.25s-7.647 3.12-11.724 6.591c-4.076 3.471-8.457 6.436-8.39 9.236.068 2.799 1.104 11.343 1.104 11.343s-.259 1.88 3.164 3.873c3.424 1.994 11.601 7.676 17.727 8.162 6.127.485 8.999.991 18.988-1.664 9.99-2.655 28.629-8.192 34.383-10.361 5.755-2.17 11.263-3.017 12.164-5.568.901-2.552.946-12.283.946-12.283l-1.802-10.155s-1.656 1.425-3.615 4.483c-1.96 3.058-4.066 4.163-4.325 7.769-.259 3.605-.743 6.58-.743 6.58l-23.673 8.265s-2.253-6.054-6.6-9.721c-4.347-3.668-10.553-8.244-16.961-11.188s-10.631-5.351-10.631-5.351z" fill="#e5e4e5"/><path d="m317.758 683.421 16.105 15.444s2.388-6.27 9.641-8.461c7.253-2.19 18.717-4.287 25.745-4.741 7.028-.455 13.413-.31 13.413-.31s5.755 3.099 7.343 6.425c1.588 3.327 3.03 8.513 2.455 11.664l-.574 3.15-2.647 8.058s-8.897 3.647-17.366 4.132c-8.469.486-21.747 1.075-28.358-3.295s-26.32-24.463-26.32-24.463l.563-7.624z" fill="#e5e4e5"/><path d="m392.223 695.269c-3.941-6.105-5.552-8.801-9.933-11.632-4.381-2.83-18.402-10.258-18.402-10.258s-5.383-2.262-7.084-5.372l-1.701-3.12 4.674-2.841s-.428-27.551-1.971-33.419c-1.543-5.857-1.824-11.209-1.824-11.209l-1.43-12.985s-2.264-18.833-2.197-21.312c.068-2.479-.991-12.603-1.779-16.725-.8-4.112-6.386-32.51-7.039-37.892-.653-5.383-2.95-25.692-2.68-26.911s2.376-3.812 2.478-7.459c.101-3.647-1.724-23.347-2.185-27.479-.473-4.132-.924-8.037-.924-8.037s3.829-1.095 3.818-2.945c0-1.849-.755-10.227-2.421-17.427-1.667-7.201-2.039-11.891-1.769-16.364.282-4.473.552-6.074.552-6.074s4.663-.062 9.934-2.128c5.27-2.066 7.523-3.74 8.3-5.341s3.378-13.523 2.556-19.597-3.39-21.043-3.39-21.043 8.74-2.996 8.886-4.132c.147-1.137.98-2.459.98-2.459s-5.631-20.155-10.62-29.174c-4.989-9.028-12.794-22.014-20.137-27.809-7.343-5.796-22.704-10.754-22.704-10.754l-2.016-2.118-3.48-2.841-3.92-1.849s-3.018-2.201-2.838-4.546c.169-2.355 3.221-4.979 3.221-4.979s11.589-13.068 17.355-22.149c5.755-9.08 14.911-26.218 17.434-36.673 2.523-10.454 6.859-32.613 5.665-45.558-1.194-12.944-4.46-33.729-9.967-41.384s-15.835-24.824-42.503-28.037c-26.669-3.212-39.091-.237-39.091-.237s11.746 6.601 11.082 19.349c-.654 12.748-11.24 36.126-15.463 42.799-4.224 6.674-6.6 9.484-6.6 9.484l-4.426 6.942s18.312-19.856 33.336-3.327c15.012 16.529 7.501 31.405 7.501 31.405s-2.095-3.388-7.997-2.562c-4.966.703-19.618 3.926-19.618 3.926s7.793-2.728 10.699 2.582c1.081 1.973 1.081 7.81 1.081 7.81s13.785-.382 23.853 7.139c10.069 7.51 16.691 35.02 8.075 46.539-14.336 19.142-12.478 15.712-12.478 15.712s3.446-3.316 4.178-.124c1.183 5.207 5.237 12.17-1.306 16.013-3.289 1.931-6.363.589-6.96 4.018-1.431 8.265 2.973 89.339 2.973 89.339l1.779 2.52s17.254-9.669 23.549-12.696c6.296-3.037 16.792-7.066 16.792-7.066l-1.227-12.603-14.044-4.308s-1.352-9.969-1.521-13.409-2.894-17.727-2.894-17.727-.98-7.769 6.814-12.82c7.793-5.052 18.492-.238 24.405 9.979 5.912 10.217 7.703 20.144 6.036 22.613-1.655 2.469-9.64 3.461-9.64 3.461s11.611 3.915 13.559 11.477c1.949 7.562 6.217 27.397-3.919 30.568-10.147 3.172-38.122 5.672-46.152 9.008-8.03 3.337-19.731 7.469-26.894 7.469s-10.114 1.364-13.56 0c-3.446-1.363-11.374-4.204-11.374-4.204s-1.588 5.516 1.835 8.533c3.424 3.016 9.686 6.973 13.808 7.923 4.122.951 4.02 2.325 10.924 0 6.904-2.324 10.665-3.946 10.665-3.946s4.1 9.411 2.827 20.527 3.097 10.661-5.35 17.552c-8.446 6.89-16.791 8.254-16.791 8.254s29.687 11.952 42.796 19.297 14.258 10.372 16.69 16.663c2.422 6.291 6.769 41.508 6.848 53.285.078 11.777-.845 21.88-3.852 21.88s4.617 3.213 11.532 18.822c6.915 15.61 10.677 42.169 6.037 50.702s-12.208 13.998-12.208 13.998 31.342 15.827 38.235 19.184c6.881 3.357 15.35 13.151 15.451 18.967.102 5.816 0 12.355 0 12.355l5.947-2.572s7.061-12.366 3.131-18.461zm-80.107-494.222c-1.048-.806-5.35-.341-7.242 2.117-3.829 4.969-2.556 14.391-2.556 14.412 0 .02-4.1-6.86-4.1-6.86 0-.826.214-6.797 1.768-9.845 1.555-3.047 4.742-3.409 6.262-3.956 1.836-.662 4.201 1.342 5.35 2.882" fill="#cacacc" opacity=".37"/><path d="m194.141 220.157s.675-1.229 3.829.589c3.153 1.818 4.876 3.595 4.741 5.744s-1.013 2.366-1.013 2.366l2.916 2.469s.35.248 1.6-2.913c1.25-3.162-1.115-10.848-1.115-10.848s-6.194.476-8.413 1.085c-2.219.61-2.534 1.508-2.534 1.508z" fill="#cacacc" opacity=".37"/><path d="m224.317 243.537s-.721 1.756 0 5.703c.72 3.946 5.912 10.361 19.213 6.838 4.651-1.229 6.217-3.512 6.217-3.512s-2.974 7.056-7.985 7.965c-5.012.909-6.206 1.735-14.72.434-4.493-.692-7.039-4.535-6.205-7.376.833-2.841 3.48-10.052 3.48-10.052z" fill="#cacacc" opacity=".37"/><path d="m238.032 332.616s-2.872 3.326-4.888 7.045c-2.015 3.719-6.667 18.471-8.322 19.029-1.656.558 0 2.324 0 2.324s4.966 7.17 5.192 9.876c.225 2.707-2.962 25-2.962 25l-1.025 1.343 7.377-1.343v-29.318s2.804-26.281 3.311-28.564c.506-2.283 1.317-5.403 1.317-5.403z" fill="#cacacc" opacity=".37"/><path d="m226.025 405.6-4.392-1.26 6.363 12.872 5.158 10.433.282-22.045z" fill="#cacacc" opacity=".37"/><path d="m181.389 395.106s2.387-.547 2.162 5.63c-.225 6.178-2.77 11.973-3.976 14.246-1.205 2.273-4.786 4.153-4.786 4.153l6.059 2.407s2.027-1.984 4.516-2.407c2.489-.424 4.055-1.911 4.055-1.911s-4.505-1.157-4.167-4.287c.337-3.131 1.621-6.033 1.396-10.506-.225-4.474-.113-5.62-1.734-6.519-1.622-.899-3.525-.796-3.525-.796z" fill="#cacacc" opacity=".37"/><path d="m182.414 428.823s10.553-3.709 15.891-8.678c5.338-4.968 6.6-9.69 5.518-10.402-1.081-.713 2.67-.723 3.424 2.148.755 2.872.991 4.515 0 5.362s-2.016 1.126-5.856 3.874c-3.841 2.748-5.462 4.287-6.228 6.518-.766 2.232-4.967 4.814-5.733 4.505-.765-.31-3.288-.145-5.146-1.736l-1.859-1.591z" fill="#cacacc" opacity=".37"/><path d="m193.242 438.925c.316.196 5.834.672 9.81-1.808 3.975-2.479 5.124-7.097 7.387-6.384 2.264.713 5.204 1.612 4.731 2.862s-.924 1.022-5.665 3.409c-4.742 2.386-4.888 4.132-8.12 4.029-3.233-.104-8.132-2.108-8.132-2.108z" fill="#cacacc" opacity=".37"/><path d="m269.564 503.719s6.014 25.258 3.536 53.605c-2.477 28.347-5.191 33.305-5.191 33.305s2.027 29.38 0 44.69c-2.028 15.31-5.417 19.639-5.417 19.639s-9.202-.321-9.742-.476c-.541-.155.428 5.951-4.392 11.085-4.821 5.134-9.877 8.853-19.416 10.103s-23.065 4.752-24.428 7.759c-1.363 3.006-1.104 5.867-1.104 5.867s11.026 6.87 20.283 6.663c9.258-.206 28.494-6.115 38.889-9.659 10.395-3.543 20.677-8.429 20.677-8.429s1.588-5.754 1.092-11.374c-.495-5.62-2.196-11.519-2.196-11.519l3.278-2.469s6.588-29.814 6.678-30.454c.09-.641 3.03-24.607 3.03-24.607l1.441-5.982-11.149-54.617-5.677-30.992-10.192-2.128z" fill="#cacacc" opacity=".37"/><path d="m164.124 377.451s-.631-1.105 1.543-.754 27.57 4.401 27.57 4.401l15.159-3.575 21.353 43.244 5.957 12.799-4.527 4.949-12.76-.909-7.782-.765s4.989-1.033 4.505-3.244c-.485-2.21-3.863-3.481-7.343-3.171s-7.309 1.457-7.309 1.457-4.607-1.664-5.361-2.304c-.755-.641.574-4.029 2.815-5.785 2.242-1.756 9.269-6.519 9.269-6.519s2.23-4.142-.507-6.436c-2.736-2.293-3.93-2.417-6.768-1.167s-6.814 5.113-8.672 6.332-3.638.507-3.638.507l-2.387-3.575 1.396-14.896s-1.926-3.316-4.234-3.275c-2.309.041-4.246 1.384-4.246 1.384l-2.129 6.787-8.604-16.621-3.3-8.854z" fill="#cacacc" opacity=".37"/><g stroke-miterlimit="10"><path d="m329.538 123.021c0 18.389-7.703 52.283-35.858 65.806" stroke="#cacacc" stroke-width=".5"/><path d="m319.414 222.615c10.125-1.292 25.362-21.994 25.362-27.262" stroke="#cacacc" stroke-width=".5"/><path d="m355.827 358.688c1.317 4.133 9.201 35.982 3.942 48.73-2.489 6.033-6.634 6.456-15.767 8.44-13.887 3.016-40.263 4.989-52.561 5.34-2.59.073-4.876 1.726-6.566 2.583-1.689.858-18.211 9.473-25.148 5.682-6.949-3.791-17.085-4.824-15.643-16.446" stroke="#4e4e4d" stroke-width="1.2"/><path d="m257.482 419.124c-1.216-4.132-18.02-4.132-19.427-12.396" stroke="#4e4e4d" stroke-width="1.2"/><path d="m253.813 406.728c-4.505 0-23.346.279-32.165-2.397" stroke="#4e4e4d" stroke-width="1.2"/><path d="m219.203 399.383c2.534-.857 16.128-4.442 20.722-4.266 4.595.175 10.046 1.291 14.45 1.291 4.403 0 7.23.258 10.417.083" stroke="#4e4e4d" stroke-width="1.2"/><path d="m238.789 398.039c-.563 1.116-1.036 3.006-.473 4.38" stroke="#4e4e4d" stroke-width="1.2"/><path d="m252.867 409.743c.372.858.372 1.891.935 2.149" stroke="#4e4e4d" stroke-width="1.2"/><path d="m258.141 421.54c.281 1.209-.563 3.099 2.534 4.473" stroke="#4e4e4d" stroke-width="1.2"/><path d="m185.572 418.39c-1.6-1.116-.462-3.998-.09-6.922.371-2.923.653-8.027 1.115-11.539.63-4.824-6.33-6.952-8.436-3.791-1.385 2.086-2.196 9.276-4.505 13.512-2.162 3.957-1.036 8.006 1.127 9.473 2.162 1.467 5.067 2.066 5.54 3.44" stroke="#4e4e4d" stroke-width="1.2"/><path d="m181.799 420.93c-.563 1.983-1.217 8.027 2.444 9.483 3.66 1.457 5.068.331 5.158 3.864s7.433 7.076 10.068 6.735 7.275-2.975 10.001-4.008c2.725-1.033 7.793-2.004 4.786-4.587-3.007-2.582-9.595-2.489-13.773-.547 0 0-5.631-1.467-5.564-2.8.158-3.305 4.989-7.531 11.307-10.96 4.043-2.19.676-11.591-6.284-8.451-6.96 3.141-10.53 12.159-14.843 3.626" stroke="#4e4e4d" stroke-width="1.2"/><path d="m226.031 362.161c-1.408 4.948-3.119 20.134-11.758 27.262" stroke="#4e4e4d" stroke-width="1.2"/><path d="m316.031 292.314c36.602 11.281 50.297 61.353 51.998 69.473.675 3.213-6.217 5.444-9.866 6.591" stroke="#4e4e4d" stroke-width="1.2"/><path d="m304.773 335.448c5.609 12.221-.067 29.721 5.609 32.025 3.615 1.467 9.359 3.554 12.85 3.409" stroke="#4e4e4d" stroke-width="1.2"/><path d="m367.192 363.112c-1.43-7.304-36.433-9.029-57.989 3.46" stroke="#4e4e4d" stroke-width="1.2"/><path d="m233.438 405.6c0 4.06.247 16.342.292 23.223" stroke="#4e4e4d" stroke-width="1.2"/><path d="m263.461 503.316c3.424.29 7.883-.02 16.285 2.521 1.723.517 3.604 1.167 5.676 1.953" stroke="#4e4e4d" stroke-width="1.2"/><path d="m239.684 645.899c-2.297 1.054-22.197 9.535-26.657 11.602-4.46 2.066-16.691 9.101-17.186 16.26-.496 7.159.18 11.797 6.442 14.948 6.273 3.151 12.872 8.626 25.317 6.921 12.445-1.704 43.01-11.673 49.238-14.38 6.228-2.706 7.49-2.427 7.399-8.749-.067-5.434.417-14.494-2.77-18.554" stroke="#4e4e4d" stroke-width="1.2"/><path d="m195.875 673.761c2.129 2.975 13.244 12.665 28.279 13.492 9.1.506 24.878-4.184 33.347-7.19 8.47-3.006 22.333-7.996 26.849-9.721" stroke="#4e4e4d" stroke-width="1.2"/><path d="m214.797 656.715c3.221.351 32.705 13.213 35.239 25.805" stroke="#4e4e4d" stroke-width="1.2"/><path d="m228.93 654.959c4.414-.083 9.651 3.171 12.546 6.642" stroke="#4e4e4d" stroke-width="1.2"/><path d="m234.617 652.49c2.726.031 7.602-.227 13.74 5.847" stroke="#4e4e4d" stroke-width="1.2"/><path d="m282.407 655.413c-2.5 3.037-9.257 10.165-8.694 18.843" stroke="#4e4e4d" stroke-width="1.2"/><path d="m318.565 666.477c-.45 13.399-1.34 20.228-1.385 24.566-.023 1.519 4.032 5.61 6.566 7.821 2.534 2.21 15.158 17.417 27.885 19.638 12.726 2.221 30.644-.754 34.845-2.355 4.201-1.602 3.255-2.407 4.572-6.695 1.318-4.287 5.192-15.723-8.401-25.134-13.594-9.411-24.338-10.589-27.176-18.75" stroke="#4e4e4d" stroke-width="1.2"/><path d="m317.734 683.42c3.064 2.438 26.692 25.94 33.978 27.355 9.427 1.829 30.442 3.275 40.15-4.163" stroke="#4e4e4d" stroke-width="1.2"/><path d="m338.242 676.735c1.453-2.097 6.239-6.219 16.702-4.029" stroke="#4e4e4d" stroke-width="1.2"/><path d="m343.5 681.311c2.05-1.766 6.735-4.38 17.648-3.14" stroke="#4e4e4d" stroke-width="1.2"/><path d="m334.656 700.165c1.419-3.874-.101-14.256 48.844-15.227" stroke="#4e4e4d" stroke-width="1.2"/><path d="m176.03 402.924-11.904-24.411c-.462-.95.416-1.993 1.542-1.818l36.017 5.744c1.002.155 1.858.754 2.286 1.601l27.074 53.027c.473.93-.36 1.973-1.464 1.849l-19.089-2.262" stroke="#4e4e4d" stroke-width="1.2"/><path d="m231.18 438.502 3.547-3.068c1.555-1.24.924-2.737.361-3.874l-26.703-54.059c-.54-1.106-1.655-1.881-2.962-2.077l-34.361-5.237c-1.475-.217-2.95.33-3.862 1.404l-3.075 5.837" stroke="#4e4e4d" stroke-width="1.2"/><path d="m296.994 284.929c.609-.413 11.049-9.866 21.049-22.779 10.001-12.913 20.892-30.826 25.442-57.221 4.549-26.394 5.45-64.297-20.284-88.883-24.247-23.1614-88.261-20.2172-114.919 10-21.803 24.721-37.626 51.838-31.038 72.768 3.942 12.5 12.478 15.754 19.224 31.663 7.422 17.5 7.85 42.531 12.569 48.605 9.685 12.5 40.724 18.605 46.332 19.442 5.609.837 12.265.558 21.049-3.471 8.785-4.029 11.398-6.477 11.398-6.477" stroke="#4e4e4d" stroke-width="1.2"/><path d="m220.844 236.873s4.696 2.913 3.48 6.663c-1.217 3.75-6.87 13.75.202 16.663 7.073 2.914 25.689 1.664 25.239-7.634" stroke="#4e4e4d" stroke-width="1.2"/><path d="m205.104 217.564s-10.812.724-11.961 2.5c-1.148 1.777-.596 2.686-.596 2.686" stroke="#4e4e4d" stroke-width="1.2"/><path d="m253.703 210.343c-.665.093 4.73-.62 17.918-3.864 3.66-.899 7.669 1.085 9.032 1.849" stroke="#4e4e4d" stroke-width="1.2"/></g><path d="m201.703 228.857 3.976-.961c.338-.083.642.207.529.517l-.946 2.686c-.09.248-.405.361-.653.217l-3.041-1.726c-.326-.186-.259-.65.124-.733z" fill="#4e4e4d"/><path d="m262.407 219.899 5.958-1.012c.451-.073.788.382.529.743l-2.016 2.779c-.146.197-.428.269-.664.166l-3.953-1.767c-.451-.207-.36-.826.135-.909z" fill="#4e4e4d"/><path d="m227.062 277.152c2.726 6.973 24.676 7.221 35.882-4.442" stroke="#4e4e4d" stroke-miterlimit="10" stroke-width="1.2"/><path d="m175.734 187.709s.485-5.712 9.224-6.797c8.74-1.085 15.745 15.878 31.039 12.779 26.038-5.279 34.045-29.504 52.233-27.779 18.189 1.725 23.471 16.663 24.833 24.163 1.363 7.5 5.598 21.808 5.598 21.808s-2.118-13.884 6.813-14.721 14.54 17.779 9.99 20.413c-2.816 1.642-4.933 2.242-6.138 2.459-.27.051-.293.402-.034.475 2.016.63 6.611 1.963 11.769 2.892 6.96 1.25 12.907 2.903 14.934 7.986" stroke="#4e4e4d" stroke-miterlimit="10" stroke-width="1.2"/><path d="m267.152 298.194s.732.341 0 2.148c-.732 1.808-1.363 3.193-1.656 5.279-.292 2.087 4.753 6.199 15.812 2.914 17.355-5.135 26.376-19.949 26.376-19.949-3.491-2.097-6.667-4.824-5.563-8.936" stroke="#4e4e4d" stroke-miterlimit="10" stroke-width="1.2"/><path d="m304.793 286.552s2.579.31 4.482.826c1.903.517 6.757 4.938 6.757 4.938s-9.336 12.758-23.267 20.527c-10.237 5.702-24.676 7.087-32.255.971s2.421-14.897 2.421-14.897" stroke="#4e4e4d" stroke-miterlimit="10" stroke-width="1.2"/><path d="m259.596 298.918s-5.529.868-11.847 5.733c-6.319 4.866-14.878 14.918-21.725 28.358-6.848 13.44-7.602 18.863-7.602 18.863s3.176 8.885 14.731 15.413" stroke="#4e4e4d" stroke-miterlimit="10" stroke-width="1.2"/><path d="m324.499 383.483s-.935-15.155-3.007-21.694" stroke="#4e4e4d" stroke-miterlimit="10" stroke-width="1.2"/><path d="m245.523 395.612 7.816-2.738s5.001-2.014 12.141-.609c7.14 1.404 18.008 8.46 18.65 10.991" stroke="#4e4e4d" stroke-miterlimit="10" stroke-width="1.2"/><path d="m283.5 402.419c.788-.278 4.877-1.518 13.965-6.518 9.089-5 19.686-10 22.862-11.116 3.176-1.115 5.305-1.756 6.51-1.291" stroke="#4e4e4d" stroke-miterlimit="10" stroke-width="1.2"/><path d="m238.028 332.615c-5.901 20.558-4.944 58.151-4.64 63.285" stroke="#4e4e4d" stroke-miterlimit="10" stroke-width="1.2"/><path d="m233.375 437.699 1.25 20.971c4.764 3.637 52.313 37.076 109.187-1.487 2.849-1.932-5.823-27.893-3.052-40.682" stroke="#4e4e4d" stroke-miterlimit="10" stroke-width="1.2"/><path d="m295.924 589.451c-.192 4.99-5.203 46.477-7.276 54.225-2.072 7.748-2.917 12.211-18.875 12.551-15.959.341-26.342-3.316-31.039-12.437-4.696-9.122.327-24.174.755-32.779.518-10.248 3.548-85.279 5.428-102.489l1.543-18.606.304-24.008" stroke="#4e4e4d" stroke-miterlimit="10" stroke-width="1.2"/><path d="m278.797 505.558s7.917 37.686 9.438 46.994c1.52 9.308 6.701 33.678 8.976 41.043 2.274 7.366 6.306 16.798 7.365 22.49s1.96 21.776 3.626 26.084c1.667 4.308 3.57 20.031 4.787 21.653 0 0 8.244 4.215 20.058 4.773s22.164-1.498 27.119-5.868c0 0-1.07-31.57-2.433-36.012-1.362-4.442-1.971-4.587-1.362-8.616.608-4.029-4.032-29.37-3.638-34.308.394-4.937-.743-12.727-4.381-29.39s-7.884-47.551-7.129-52.138 2.872-3.884 2.579-11.105-3.21-31.87-3.21-31.87" stroke="#4e4e4d" stroke-miterlimit="10" stroke-width="1.2"/><path d="m243.438 578.142s2.083 6.456 6.599 6.456" stroke="#4e4e4d" stroke-miterlimit="10" stroke-width="1.2"/><path d="m321.492 582.967s5.676 4.132 9.438 3.099c3.761-1.033 7.298-3.099 7.298-3.099" stroke="#4e4e4d" stroke-miterlimit="10" stroke-width="1.2"/><path d="m203.047 382.988 4.764-6.312" stroke="#4e4e4d" stroke-miterlimit="10" stroke-width=".25"/><rect fill="#b9dbff" height="65" rx="11" width="340.711" x="516.289" y="320.753"/><path d="m601.442 355.852c0 2.089-1.677 3.553-4.422 3.553-2.76 0-4.484-1.479-4.651-3.797h2.348c.061 1.205.839 1.983 2.257 1.983 1.174 0 2.013-.519 2.013-1.403 0-.687-.534-1.098-1.464-1.281l-1.799-.351c-1.663-.32-2.944-1.22-2.944-3.035 0-1.952 1.724-3.355 4.087-3.355 2.456 0 4.255 1.434 4.408 3.721h-2.349c-.076-1.144-.869-1.921-2.028-1.921-1.129 0-1.769.64-1.769 1.403 0 .747.686 1.067 1.479 1.22l1.876.381c1.921.381 2.958 1.266 2.958 2.882zm5.217 3.538c-2.44 0-4.072-1.693-4.072-4.239 0-2.425 1.693-4.194 4.042-4.194 2.577 0 4.285 2.089 3.904 4.743h-5.78c.137 1.326.778 2.058 1.86 2.058.931 0 1.556-.457 1.8-1.265h2.104c-.457 1.845-1.875 2.897-3.858 2.897zm-.076-6.878c-.991 0-1.617.641-1.8 1.846h3.508c-.061-1.129-.702-1.846-1.708-1.846zm7.657 6.741h-2.135v-10.95h2.135zm5.591.137c-2.44 0-4.071-1.693-4.071-4.239 0-2.425 1.692-4.194 4.041-4.194 2.577 0 4.285 2.089 3.904 4.743h-5.78c.137 1.326.778 2.058 1.861 2.058.93 0 1.555-.457 1.799-1.265h2.105c-.458 1.845-1.876 2.897-3.859 2.897zm-.076-6.878c-.991 0-1.616.641-1.799 1.846h3.507c-.061-1.129-.701-1.846-1.708-1.846zm8.804 6.893c-2.348 0-3.965-1.738-3.965-4.224 0-2.44 1.678-4.224 3.965-4.224 2.12 0 3.691 1.433 3.95 3.629h-2.226c-.107-1.082-.763-1.753-1.724-1.753-1.098 0-1.799.899-1.799 2.348 0 1.464.686 2.349 1.799 2.349.976 0 1.602-.641 1.724-1.754h2.226c-.244 2.242-1.769 3.629-3.95 3.629zm10.527-2.211v1.845c-.519.26-1.007.366-1.632.366-1.678 0-2.73-.96-2.73-2.79v-3.691h-1.647v-1.815h1.647v-2.409h2.105v2.409h2.333v1.815h-2.333v3.203c0 .945.427 1.326 1.189 1.326.397 0 .763-.091 1.068-.259zm7.363 2.059h-2.318v-10.95h7.076v2.013h-4.758v2.761h4.011v1.997h-4.011zm11.156-3.431v-4.713h2.105v8.144h-1.937v-1.068c-.442.717-1.342 1.22-2.379 1.22-1.632 0-2.821-.991-2.821-3.111v-5.185h2.12v4.774c0 1.143.564 1.647 1.418 1.647.762 0 1.494-.61 1.494-1.708zm6.282-1.007v4.438h-2.12v-8.144h1.952v1.159c.595-.808 1.433-1.311 2.501-1.311 1.632 0 2.76 1.067 2.76 3.035v5.261h-2.104v-4.545c0-1.204-.473-1.875-1.434-1.875-.839 0-1.555.671-1.555 1.982zm10.503 4.59c-2.348 0-3.965-1.738-3.965-4.224 0-2.44 1.678-4.224 3.965-4.224 2.12 0 3.691 1.433 3.95 3.629h-2.226c-.107-1.082-.763-1.753-1.724-1.753-1.098 0-1.799.899-1.799 2.348 0 1.464.686 2.349 1.799 2.349.976 0 1.602-.641 1.724-1.754h2.226c-.244 2.242-1.769 3.629-3.95 3.629zm10.527-2.211v1.845c-.519.26-1.007.366-1.632.366-1.678 0-2.73-.96-2.73-2.79v-3.691h-1.647v-1.815h1.647v-2.409h2.105v2.409h2.333v1.815h-2.333v3.203c0 .945.427 1.326 1.189 1.326.397 0 .763-.091 1.068-.259zm3.978-7.976c0 .717-.579 1.251-1.418 1.251-.824 0-1.403-.534-1.403-1.251 0-.747.579-1.281 1.403-1.281.839 0 1.418.534 1.418 1.281zm-.335 10.035h-2.12v-8.144h2.12zm5.637.152c-2.363 0-4.132-1.86-4.132-4.224 0-2.379 1.769-4.224 4.132-4.224 2.364 0 4.133 1.845 4.133 4.224 0 2.364-1.769 4.224-4.133 4.224zm0-1.875c1.053 0 1.952-.839 1.952-2.349s-.899-2.333-1.952-2.333c-1.052 0-1.952.823-1.952 2.333s.9 2.349 1.952 2.349zm7.758-2.715v4.438h-2.12v-8.144h1.952v1.159c.595-.808 1.434-1.311 2.501-1.311 1.632 0 2.761 1.067 2.761 3.035v5.261h-2.105v-4.545c0-1.204-.473-1.875-1.433-1.875-.839 0-1.556.671-1.556 1.982zm11.922 4.438v-1.007c-.534.763-1.342 1.159-2.455 1.159-1.693 0-2.821-.991-2.821-2.516 0-1.586 1.281-2.44 3.66-2.44.457 0 .854.031 1.357.092v-.488c0-.915-.519-1.449-1.403-1.449-.915 0-1.464.534-1.54 1.449h-1.907c.122-1.876 1.48-3.096 3.447-3.096 2.135 0 3.385 1.174 3.385 3.172v5.124zm-3.279-2.425c0 .686.488 1.113 1.281 1.113 1.083 0 1.739-.594 1.739-1.54v-.579c-.503-.077-.854-.107-1.22-.107-1.205 0-1.8.381-1.8 1.113zm9.117 2.425h-2.135v-10.95h2.135zm12.895 0-.823-2.349h-4.255l-.839 2.349h-2.333l4.118-10.95h2.531l4.087 10.95zm-2.928-8.418-1.494 4.224h2.958zm9.687 8.57c-2.348 0-3.965-1.738-3.965-4.224 0-2.44 1.678-4.224 3.965-4.224 2.12 0 3.691 1.433 3.95 3.629h-2.227c-.106-1.082-.762-1.753-1.723-1.753-1.098 0-1.799.899-1.799 2.348 0 1.464.686 2.349 1.799 2.349.976 0 1.601-.641 1.723-1.754h2.227c-.244 2.242-1.769 3.629-3.95 3.629zm10.526-2.211v1.845c-.518.26-1.006.366-1.631.366-1.678 0-2.73-.96-2.73-2.79v-3.691h-1.647v-1.815h1.647v-2.409h2.104v2.409h2.334v1.815h-2.334v3.203c0 .945.427 1.326 1.19 1.326.396 0 .762-.091 1.067-.259zm3.979-7.976c0 .717-.58 1.251-1.419 1.251-.823 0-1.403-.534-1.403-1.251 0-.747.58-1.281 1.403-1.281.839 0 1.419.534 1.419 1.281zm-.336 10.035h-2.12v-8.144h2.12zm5.638.152c-2.364 0-4.133-1.86-4.133-4.224 0-2.379 1.769-4.224 4.133-4.224s4.133 1.845 4.133 4.224c0 2.364-1.769 4.224-4.133 4.224zm0-1.875c1.052 0 1.952-.839 1.952-2.349s-.9-2.333-1.952-2.333-1.952.823-1.952 2.333.9 2.349 1.952 2.349zm7.758-2.715v4.438h-2.12v-8.144h1.952v1.159c.595-.808 1.434-1.311 2.501-1.311 1.632 0 2.76 1.067 2.76 3.035v5.261h-2.104v-4.545c0-1.204-.473-1.875-1.434-1.875-.838 0-1.555.671-1.555 1.982zm13.95 1.83c0 1.708-1.296 2.76-3.614 2.76s-3.614-1.113-3.782-2.928h2.028c.015.839.732 1.373 1.784 1.373.824 0 1.449-.259 1.449-.839 0-.518-.335-.732-1.113-.884l-1.464-.275c-1.464-.259-2.349-1.067-2.349-2.333 0-1.51 1.297-2.562 3.325-2.562 2.043 0 3.446 1.083 3.599 2.836h-2.028c-.077-.793-.671-1.281-1.571-1.281-.778 0-1.296.29-1.296.809 0 .488.335.686 1.067.823l1.571.29c1.586.305 2.394 1.037 2.394 2.211z" fill="#002e5c"/><rect fill="#9cccf4" fill-opacity=".3" height="48" rx="11" width="340.711" x="516.289" y="400.753"/><rect height="19" rx="4.5" stroke="#0b6bd4" width="19" x="584.648" y="415.253"/><path d="m589.594 425.161 3.835 3.758 5.73-8.695" stroke="#0b6bd4" stroke-linecap="round" stroke-width="2"/><path d="m623.269 426.321h-2.093v3.432h-.975v-9.334h3.068c1.924 0 3.237 1.053 3.237 2.938s-1.313 2.964-3.237 2.964zm-.013-5.07h-2.08v4.238h2.08c1.391 0 2.275-.767 2.275-2.132 0-1.352-.884-2.106-2.275-2.106zm5.598 4.836v3.666h-.91v-6.851h.845v1.56c.468-1.014 1.482-1.664 2.613-1.664v.949c-1.443-.052-2.548.845-2.548 2.34zm6.391 3.796c-1.885 0-3.25-1.495-3.25-3.562 0-2.054 1.365-3.536 3.25-3.536 1.898 0 3.263 1.482 3.263 3.536 0 2.067-1.365 3.562-3.263 3.562zm0-.793c1.339 0 2.34-1.066 2.34-2.769 0-1.677-1.001-2.743-2.34-2.743-1.326 0-2.327 1.066-2.327 2.743 0 1.703 1.001 2.769 2.327 2.769zm5.93-7.774c0 .403-.312.689-.741.689s-.741-.286-.741-.689c0-.39.312-.676.741-.676s.741.286.741.676zm-.299 1.586v7.501c0 1.313-.741 1.989-1.898 1.989-.247 0-.559-.013-.845-.13v-.832c.247.091.468.13.754.13.663 0 1.092-.351 1.092-1.17v-7.488zm4.663 6.981c-1.924 0-3.198-1.443-3.198-3.614 0-2.002 1.326-3.497 3.146-3.497 1.95 0 3.224 1.573 3.068 3.77h-5.304c.078 1.625.936 2.626 2.275 2.626 1.144 0 1.937-.637 2.158-1.729h.897c-.312 1.521-1.469 2.444-3.042 2.444zm-.065-6.409c-1.235 0-2.106.949-2.223 2.444h4.355c-.078-1.534-.871-2.444-2.132-2.444zm7.019 6.422c-1.807 0-3.068-1.469-3.068-3.575 0-2.08 1.274-3.549 3.068-3.549 1.599 0 2.743 1.066 3.016 2.782h-.923c-.208-1.248-.988-1.989-2.093-1.989-1.274 0-2.145 1.118-2.145 2.756 0 1.664.871 2.782 2.145 2.782 1.118 0 1.885-.728 2.093-2.002h.923c-.247 1.742-1.404 2.795-3.016 2.795zm8.008-1.014v.806c-.351.143-.65.195-.988.195-1.131 0-2.002-.585-2.002-2.067v-4.147h-1.612v-.767h1.612v-2.028h.91v2.028h2.145v.767h-2.145v3.952c0 1.066.52 1.43 1.274 1.43.286 0 .52-.052.806-.169zm7.291-2.561h-2.093v3.432h-.975v-9.334h3.068c1.924 0 3.237 1.053 3.237 2.938s-1.313 2.964-3.237 2.964zm-.013-5.07h-2.08v4.238h2.08c1.391 0 2.275-.767 2.275-2.132 0-1.352-.884-2.106-2.275-2.106zm5.598 4.836v3.666h-.91v-6.851h.845v1.56c.468-1.014 1.482-1.664 2.613-1.664v.949c-1.443-.052-2.548.845-2.548 2.34zm6.338 3.796c-1.924 0-3.198-1.443-3.198-3.614 0-2.002 1.326-3.497 3.146-3.497 1.95 0 3.224 1.573 3.068 3.77h-5.304c.078 1.625.936 2.626 2.275 2.626 1.144 0 1.937-.637 2.158-1.729h.897c-.312 1.521-1.469 2.444-3.042 2.444zm-.065-6.409c-1.235 0-2.106.949-2.223 2.444h4.355c-.078-1.534-.871-2.444-2.132-2.444zm9.707 4.368c0 1.261-1.014 2.041-2.704 2.041-1.703 0-2.743-.858-2.873-2.275h.871c.065.975.832 1.586 2.002 1.586 1.118 0 1.794-.429 1.794-1.209 0-.676-.39-.988-1.43-1.196l-.988-.195c-1.3-.247-1.989-.884-1.989-1.872 0-1.144 1.014-1.95 2.509-1.95 1.573 0 2.613.845 2.717 2.21h-.858c-.091-.949-.78-1.508-1.859-1.508-.962 0-1.625.455-1.625 1.17 0 .676.416 1.001 1.43 1.196l1.027.195c1.365.26 1.976.832 1.976 1.807zm4.272 2.041c-1.924 0-3.198-1.443-3.198-3.614 0-2.002 1.326-3.497 3.146-3.497 1.95 0 3.224 1.573 3.068 3.77h-5.304c.078 1.625.936 2.626 2.275 2.626 1.144 0 1.937-.637 2.158-1.729h.897c-.312 1.521-1.469 2.444-3.042 2.444zm-.065-6.409c-1.235 0-2.106.949-2.223 2.444h4.355c-.078-1.534-.871-2.444-2.132-2.444zm5.495 2.288v3.991h-.91v-6.851h.845v1.287c.442-.845 1.274-1.417 2.262-1.417 1.43 0 2.353.91 2.353 2.535v4.446h-.91v-4.134c0-1.313-.598-2.054-1.716-2.054-1.066 0-1.924.923-1.924 2.197zm9.976 3.12v.806c-.351.143-.65.195-.988.195-1.131 0-2.002-.585-2.002-2.067v-4.147h-1.612v-.767h1.612v-2.028h.91v2.028h2.145v.767h-2.145v3.952c0 1.066.52 1.43 1.274 1.43.286 0 .52-.052.806-.169zm5.653.871v-1.248c-.403.858-1.235 1.378-2.301 1.378-1.417 0-2.34-.793-2.34-2.028 0-1.339 1.066-2.041 3.146-2.041.416 0 .728.026 1.404.078v-.572c0-1.144-.611-1.82-1.651-1.82-1.118 0-1.82.689-1.833 1.807h-.832c.039-1.521 1.092-2.535 2.652-2.535 1.599 0 2.535.936 2.535 2.522v4.459zm-3.77-1.924c0 .832.637 1.391 1.599 1.391 1.274 0 2.08-.832 2.08-2.119v-.611c-.585-.052-.988-.065-1.365-.065-1.56 0-2.314.455-2.314 1.404zm9.949 1.053v.806c-.351.143-.65.195-.988.195-1.131 0-2.002-.585-2.002-2.067v-4.147h-1.612v-.767h1.612v-2.028h.91v2.028h2.145v.767h-2.145v3.952c0 1.066.52 1.43 1.274 1.43.286 0 .52-.052.806-.169zm2.624-7.566c0 .403-.299.689-.741.689-.429 0-.728-.286-.728-.689 0-.39.299-.676.728-.676.442 0 .741.286.741.676zm-.273 8.437h-.91v-6.851h.91zm4.715.13c-1.885 0-3.25-1.495-3.25-3.562 0-2.054 1.365-3.536 3.25-3.536 1.898 0 3.263 1.482 3.263 3.536 0 2.067-1.365 3.562-3.263 3.562zm0-.793c1.339 0 2.34-1.066 2.34-2.769 0-1.677-1.001-2.743-2.34-2.743-1.326 0-2.327 1.066-2.327 2.743 0 1.703 1.001 2.769 2.327 2.769zm5.645-3.328v3.991h-.91v-6.851h.845v1.287c.442-.845 1.274-1.417 2.262-1.417 1.43 0 2.353.91 2.353 2.535v4.446h-.91v-4.134c0-1.313-.598-2.054-1.716-2.054-1.066 0-1.924.923-1.924 2.197z" fill="#002e5c"/><rect fill="#9cccf4" fill-opacity=".3" height="48" rx="11" width="340.711" x="516.289" y="456.753"/><rect height="19" rx="4.5" stroke="#0b6bd4" width="19" x="584.648" y="471.253"/><path d="m589.594 481.161 3.835 3.758 5.73-8.695" stroke="#0b6bd4" stroke-linecap="round" stroke-width="2"/><path d="m625.804 484.908v.845h-5.603v-9.334h5.512v.845h-4.537v3.25h4.147v.845h-4.147v3.549zm5.27-.026v.806c-.351.143-.65.195-.988.195-1.131 0-2.002-.585-2.002-2.067v-4.147h-1.613v-.767h1.613v-2.028h.91v2.028h2.145v.767h-2.145v3.952c0 1.066.52 1.43 1.274 1.43.286 0 .52-.052.806-.169zm2.35-3.12v3.991h-.91v-9.334h.91v3.744c.429-.819 1.209-1.391 2.197-1.391 1.43 0 2.353.91 2.353 2.535v4.446h-.91v-4.134c0-1.313-.598-2.054-1.716-2.054-1.066 0-1.924.923-1.924 2.197zm7.649-4.446c0 .403-.299.689-.741.689-.429 0-.728-.286-.728-.689 0-.39.299-.676.728-.676.442 0 .741.286.741.676zm-.273 8.437h-.91v-6.851h.91zm4.533.143c-1.807 0-3.068-1.469-3.068-3.575 0-2.08 1.274-3.549 3.068-3.549 1.599 0 2.743 1.066 3.016 2.782h-.923c-.208-1.248-.988-1.989-2.093-1.989-1.274 0-2.145 1.118-2.145 2.756 0 1.664.871 2.782 2.145 2.782 1.118 0 1.885-.728 2.093-2.002h.923c-.247 1.742-1.404 2.795-3.016 2.795zm8.697-.143v-1.248c-.403.858-1.235 1.378-2.301 1.378-1.417 0-2.34-.793-2.34-2.028 0-1.339 1.066-2.041 3.146-2.041.416 0 .728.026 1.404.078v-.572c0-1.144-.611-1.82-1.651-1.82-1.118 0-1.82.689-1.833 1.807h-.832c.039-1.521 1.092-2.535 2.652-2.535 1.599 0 2.535.936 2.535 2.522v4.459zm-3.77-1.924c0 .832.637 1.391 1.599 1.391 1.274 0 2.08-.832 2.08-2.119v-.611c-.585-.052-.988-.065-1.365-.065-1.56 0-2.314.455-2.314 1.404zm7.374 1.924h-.91v-9.334h.91zm4.182-3.432c0-2.106 1.17-3.549 3.016-3.549 1.027 0 1.898.585 2.353 1.56v-3.913h.91v9.334h-.845v-1.443c-.481 1.001-1.365 1.573-2.418 1.573-1.846 0-3.016-1.456-3.016-3.562zm.923 0c0 1.742.884 2.769 2.223 2.769 1.326 0 2.236-1.079 2.236-2.795 0-1.729-.936-2.73-2.236-2.73-1.339 0-2.223 1.014-2.223 2.756zm10.019 3.562c-1.924 0-3.198-1.443-3.198-3.614 0-2.002 1.326-3.497 3.146-3.497 1.95 0 3.224 1.573 3.068 3.77h-5.304c.078 1.625.936 2.626 2.275 2.626 1.144 0 1.937-.637 2.158-1.729h.897c-.312 1.521-1.469 2.444-3.042 2.444zm-.065-6.409c-1.235 0-2.106.949-2.223 2.444h4.355c-.078-1.534-.871-2.444-2.132-2.444zm7.019 6.422c-1.807 0-3.068-1.469-3.068-3.575 0-2.08 1.274-3.549 3.068-3.549 1.599 0 2.743 1.066 3.016 2.782h-.923c-.208-1.248-.988-1.989-2.093-1.989-1.274 0-2.145 1.118-2.145 2.756 0 1.664.871 2.782 2.145 2.782 1.118 0 1.885-.728 2.093-2.002h.923c-.247 1.742-1.404 2.795-3.016 2.795zm5.668-8.58c0 .403-.299.689-.741.689-.429 0-.728-.286-.728-.689 0-.39.299-.676.728-.676.442 0 .741.286.741.676zm-.273 8.437h-.91v-6.851h.91zm7.094-1.911c0 1.261-1.014 2.041-2.704 2.041-1.703 0-2.743-.858-2.873-2.275h.871c.065.975.832 1.586 2.002 1.586 1.118 0 1.794-.429 1.794-1.209 0-.676-.39-.988-1.43-1.196l-.988-.195c-1.3-.247-1.989-.884-1.989-1.872 0-1.144 1.014-1.95 2.509-1.95 1.573 0 2.613.845 2.717 2.21h-.858c-.091-.949-.78-1.508-1.859-1.508-.962 0-1.625.455-1.625 1.17 0 .676.416 1.001 1.43 1.196l1.027.195c1.365.26 1.976.832 1.976 1.807zm2.764-6.526c0 .403-.299.689-.741.689-.429 0-.728-.286-.728-.689 0-.39.299-.676.728-.676.442 0 .741.286.741.676zm-.273 8.437h-.91v-6.851h.91zm4.715.13c-1.885 0-3.25-1.495-3.25-3.562 0-2.054 1.365-3.536 3.25-3.536 1.898 0 3.263 1.482 3.263 3.536 0 2.067-1.365 3.562-3.263 3.562zm0-.793c1.339 0 2.34-1.066 2.34-2.769 0-1.677-1.001-2.743-2.34-2.743-1.326 0-2.327 1.066-2.327 2.743 0 1.703 1.001 2.769 2.327 2.769zm5.644-3.328v3.991h-.91v-6.851h.845v1.287c.442-.845 1.274-1.417 2.262-1.417 1.43 0 2.353.91 2.353 2.535v4.446h-.91v-4.134c0-1.313-.598-2.054-1.716-2.054-1.066 0-1.924.923-1.924 2.197zm10.093 3.991h-.91v-6.851h.845v1.287c.455-.884 1.261-1.417 2.236-1.417 1.066 0 1.859.585 2.145 1.586.429-.962 1.287-1.586 2.366-1.586 1.417 0 2.301.936 2.301 2.535v4.446h-.897v-4.147c0-1.3-.598-2.041-1.703-2.041-1.04 0-1.885.91-1.885 2.171v4.017h-.91v-4.147c0-1.3-.598-2.041-1.703-2.041-1.053 0-1.885.91-1.885 2.171zm15.109 0v-1.248c-.403.858-1.235 1.378-2.301 1.378-1.417 0-2.34-.793-2.34-2.028 0-1.339 1.066-2.041 3.146-2.041.416 0 .728.026 1.404.078v-.572c0-1.144-.611-1.82-1.651-1.82-1.118 0-1.82.689-1.833 1.807h-.832c.039-1.521 1.092-2.535 2.652-2.535 1.599 0 2.535.936 2.535 2.522v4.459zm-3.77-1.924c0 .832.637 1.391 1.599 1.391 1.274 0 2.08-.832 2.08-2.119v-.611c-.585-.052-.988-.065-1.365-.065-1.56 0-2.314.455-2.314 1.404zm7.374 1.924h-.91v-9.334h.91v5.668l3.302-3.185h1.079l-3.458 3.354 3.744 3.497h-1.183l-3.484-3.289zm6.849-8.437c0 .403-.299.689-.741.689-.429 0-.728-.286-.728-.689 0-.39.299-.676.728-.676.442 0 .741.286.741.676zm-.273 8.437h-.91v-6.851h.91zm2.882-3.991v3.991h-.91v-6.851h.845v1.287c.442-.845 1.274-1.417 2.262-1.417 1.43 0 2.353.91 2.353 2.535v4.446h-.91v-4.134c0-1.313-.598-2.054-1.716-2.054-1.066 0-1.924.923-1.924 2.197zm9.053 6.643c-1.742 0-2.834-.91-2.912-2.444h.871c.078 1.118.806 1.716 2.028 1.716 1.352 0 2.067-.715 2.067-2.067v-1.43c-.416.962-1.248 1.521-2.262 1.521-1.729 0-2.886-1.391-2.886-3.471s1.144-3.458 2.873-3.458c1.027 0 1.885.585 2.327 1.586v-1.456h.845v6.695c0 1.768-1.079 2.808-2.951 2.808zm-2.184-6.175c0 1.677.793 2.691 2.106 2.691 1.287 0 2.145-1.04 2.145-2.626 0-1.677-.845-2.743-2.145-2.743s-2.106 1.014-2.106 2.678z" fill="#002e5c"/><rect fill="#9cccf4" fill-opacity=".3" height="48" rx="11" width="340.711" x="516.289" y="512.753"/><rect height="19" rx="4.5" stroke="url(#h)" width="19" x="584.648" y="527.253"/><path d="m589.594 537.161 3.835 3.758 5.73-8.695" stroke="url(#i)" stroke-linecap="round" stroke-width="2"/><path d="m624.231 541.948c-2.6 0-4.563-2.119-4.563-4.875 0-2.743 1.963-4.849 4.563-4.849 2.223 0 4.056 1.495 4.42 3.718h-1.027c-.299-1.664-1.677-2.847-3.393-2.847-2.067 0-3.562 1.69-3.562 3.978 0 2.314 1.495 4.004 3.562 4.004 1.729 0 3.107-1.196 3.393-2.86h1.027c-.364 2.223-2.197 3.731-4.42 3.731zm6.845-3.861v3.666h-.91v-6.851h.845v1.56c.468-1.014 1.482-1.664 2.613-1.664v.949c-1.443-.052-2.548.845-2.548 2.34zm6.39 3.796c-1.885 0-3.25-1.495-3.25-3.562 0-2.054 1.365-3.536 3.25-3.536 1.898 0 3.263 1.482 3.263 3.536 0 2.067-1.365 3.562-3.263 3.562zm0-.793c1.339 0 2.34-1.066 2.34-2.769 0-1.677-1.001-2.743-2.34-2.743-1.326 0-2.327 1.066-2.327 2.743 0 1.703 1.001 2.769 2.327 2.769zm9.857-1.248c0 1.261-1.014 2.041-2.704 2.041-1.703 0-2.743-.858-2.873-2.275h.871c.065.975.832 1.586 2.002 1.586 1.118 0 1.794-.429 1.794-1.209 0-.676-.39-.988-1.43-1.196l-.988-.195c-1.3-.247-1.989-.884-1.989-1.872 0-1.144 1.014-1.95 2.509-1.95 1.573 0 2.613.845 2.717 2.21h-.858c-.091-.949-.78-1.508-1.859-1.508-.962 0-1.625.455-1.625 1.17 0 .676.416 1.001 1.43 1.196l1.027.195c1.365.26 1.976.832 1.976 1.807zm6.703 0c0 1.261-1.014 2.041-2.704 2.041-1.703 0-2.743-.858-2.873-2.275h.871c.065.975.832 1.586 2.002 1.586 1.118 0 1.794-.429 1.794-1.209 0-.676-.39-.988-1.43-1.196l-.988-.195c-1.3-.247-1.989-.884-1.989-1.872 0-1.144 1.014-1.95 2.509-1.95 1.573 0 2.613.845 2.717 2.21h-.858c-.091-.949-.78-1.508-1.859-1.508-.962 0-1.625.455-1.625 1.17 0 .676.416 1.001 1.43 1.196l1.027.195c1.365.26 1.976.832 1.976 1.807zm5-1.274h-4.108v-.806h4.108zm2.659 3.185h-.91v-6.084h-1.612v-.767h1.612v-.624c0-1.261.689-1.963 1.885-1.963.312 0 .585.052.819.143v.754c-.221-.091-.429-.104-.663-.104-.728 0-1.131.364-1.131 1.17v.624h2.015v.767h-2.015zm7.444-2.769v-4.082h.897v6.851h-.845v-1.235c-.351.793-1.183 1.365-2.184 1.365-1.391 0-2.314-.793-2.314-2.522v-4.459h.91v4.264c0 1.391.689 1.924 1.651 1.924 1.092 0 1.885-.884 1.885-2.106zm3.778-1.222v3.991h-.91v-6.851h.845v1.287c.442-.845 1.274-1.417 2.262-1.417 1.43 0 2.353.91 2.353 2.535v4.446h-.91v-4.134c0-1.313-.598-2.054-1.716-2.054-1.066 0-1.924.923-1.924 2.197zm9.027 4.134c-1.807 0-3.068-1.469-3.068-3.575 0-2.08 1.274-3.549 3.068-3.549 1.599 0 2.743 1.066 3.016 2.782h-.923c-.208-1.248-.988-1.989-2.093-1.989-1.274 0-2.145 1.118-2.145 2.756 0 1.664.871 2.782 2.145 2.782 1.118 0 1.885-.728 2.093-2.002h.923c-.247 1.742-1.404 2.795-3.016 2.795zm8.008-1.014v.806c-.351.143-.65.195-.988.195-1.131 0-2.002-.585-2.002-2.067v-4.147h-1.612v-.767h1.612v-2.028h.91v2.028h2.145v.767h-2.145v3.952c0 1.066.52 1.43 1.274 1.43.286 0 .52-.052.806-.169zm2.624-7.566c0 .403-.299.689-.741.689-.429 0-.728-.286-.728-.689 0-.39.299-.676.728-.676.442 0 .741.286.741.676zm-.273 8.437h-.91v-6.851h.91zm4.714.13c-1.885 0-3.25-1.495-3.25-3.562 0-2.054 1.365-3.536 3.25-3.536 1.898 0 3.263 1.482 3.263 3.536 0 2.067-1.365 3.562-3.263 3.562zm0-.793c1.339 0 2.34-1.066 2.34-2.769 0-1.677-1.001-2.743-2.34-2.743-1.326 0-2.327 1.066-2.327 2.743 0 1.703 1.001 2.769 2.327 2.769zm5.645-3.328v3.991h-.91v-6.851h.845v1.287c.442-.845 1.274-1.417 2.262-1.417 1.43 0 2.353.91 2.353 2.535v4.446h-.91v-4.134c0-1.313-.598-2.054-1.716-2.054-1.066 0-1.924.923-1.924 2.197zm10.678 3.991v-1.248c-.403.858-1.235 1.378-2.301 1.378-1.417 0-2.34-.793-2.34-2.028 0-1.339 1.066-2.041 3.146-2.041.416 0 .728.026 1.404.078v-.572c0-1.144-.611-1.82-1.651-1.82-1.118 0-1.82.689-1.833 1.807h-.832c.039-1.521 1.092-2.535 2.652-2.535 1.599 0 2.535.936 2.535 2.522v4.459zm-3.77-1.924c0 .832.637 1.391 1.599 1.391 1.274 0 2.08-.832 2.08-2.119v-.611c-.585-.052-.988-.065-1.365-.065-1.56 0-2.314.455-2.314 1.404zm7.374 1.924h-.91v-9.334h.91zm8.901 0v-1.248c-.403.858-1.235 1.378-2.301 1.378-1.417 0-2.34-.793-2.34-2.028 0-1.339 1.066-2.041 3.146-2.041.416 0 .728.026 1.404.078v-.572c0-1.144-.611-1.82-1.651-1.82-1.118 0-1.82.689-1.833 1.807h-.832c.039-1.521 1.092-2.535 2.652-2.535 1.599 0 2.535.936 2.535 2.522v4.459zm-3.77-1.924c0 .832.637 1.391 1.599 1.391 1.274 0 2.08-.832 2.08-2.119v-.611c-.585-.052-.988-.065-1.365-.065-1.56 0-2.314.455-2.314 1.404zm7.374 1.924h-.91v-9.334h.91zm3.155-8.437c0 .403-.299.689-.741.689-.429 0-.728-.286-.728-.689 0-.39.299-.676.728-.676.442 0 .741.286.741.676zm-.273 8.437h-.91v-6.851h.91zm4.559 2.652c-1.742 0-2.834-.91-2.912-2.444h.871c.078 1.118.806 1.716 2.028 1.716 1.352 0 2.067-.715 2.067-2.067v-1.43c-.416.962-1.248 1.521-2.262 1.521-1.729 0-2.886-1.391-2.886-3.471s1.144-3.458 2.873-3.458c1.027 0 1.885.585 2.327 1.586v-1.456h.845v6.695c0 1.768-1.079 2.808-2.951 2.808zm-2.184-6.175c0 1.677.793 2.691 2.106 2.691 1.287 0 2.145-1.04 2.145-2.626 0-1.677-.845-2.743-2.145-2.743s-2.106 1.014-2.106 2.678zm8.022-.468v3.991h-.91v-6.851h.845v1.287c.442-.845 1.274-1.417 2.262-1.417 1.43 0 2.353.91 2.353 2.535v4.446h-.91v-4.134c0-1.313-.598-2.054-1.716-2.054-1.066 0-1.924.923-1.924 2.197zm7.376 3.991h-.91v-6.851h.845v1.287c.455-.884 1.261-1.417 2.236-1.417 1.066 0 1.859.585 2.145 1.586.429-.962 1.287-1.586 2.366-1.586 1.417 0 2.301.936 2.301 2.535v4.446h-.897v-4.147c0-1.3-.598-2.041-1.703-2.041-1.04 0-1.885.91-1.885 2.171v4.017h-.91v-4.147c0-1.3-.598-2.041-1.703-2.041-1.053 0-1.885.91-1.885 2.171zm13.588.13c-1.924 0-3.198-1.443-3.198-3.614 0-2.002 1.326-3.497 3.146-3.497 1.95 0 3.224 1.573 3.068 3.77h-5.304c.078 1.625.936 2.626 2.275 2.626 1.144 0 1.937-.637 2.158-1.729h.897c-.312 1.521-1.469 2.444-3.042 2.444zm-.065-6.409c-1.235 0-2.106.949-2.223 2.444h4.355c-.078-1.534-.871-2.444-2.132-2.444zm5.495 2.288v3.991h-.91v-6.851h.845v1.287c.442-.845 1.274-1.417 2.262-1.417 1.43 0 2.353.91 2.353 2.535v4.446h-.91v-4.134c0-1.313-.598-2.054-1.716-2.054-1.066 0-1.924.923-1.924 2.197zm9.976 3.12v.806c-.351.143-.65.195-.988.195-1.131 0-2.002-.585-2.002-2.067v-4.147h-1.612v-.767h1.612v-2.028h.91v2.028h2.145v.767h-2.145v3.952c0 1.066.52 1.43 1.274 1.43.286 0 .52-.052.806-.169z" fill="url(#j)"/><rect fill="url(#k)" fill-opacity=".5" height="48" rx="11" width="340.711" x="516.289" y="568.753"/><rect height="19" opacity=".6" rx="4.5" stroke="#0b6bd4" stroke-opacity=".35" width="19" x="584.648" y="583.253"/><path d="m623.269 594.321h-2.093v3.432h-.975v-9.334h3.068c1.924 0 3.237 1.053 3.237 2.938s-1.313 2.964-3.237 2.964zm-.013-5.07h-2.08v4.238h2.08c1.391 0 2.275-.767 2.275-2.132 0-1.352-.884-2.106-2.275-2.106zm5.598 4.836v3.666h-.91v-6.851h.845v1.56c.468-1.014 1.482-1.664 2.613-1.664v.949c-1.443-.052-2.548.845-2.548 2.34zm6.391 3.796c-1.885 0-3.25-1.495-3.25-3.562 0-2.054 1.365-3.536 3.25-3.536 1.898 0 3.263 1.482 3.263 3.536 0 2.067-1.365 3.562-3.263 3.562zm0-.793c1.339 0 2.34-1.066 2.34-2.769 0-1.677-1.001-2.743-2.34-2.743-1.326 0-2.327 1.066-2.327 2.743 0 1.703 1.001 2.769 2.327 2.769zm4.227-2.769c0-2.106 1.17-3.549 3.016-3.549 1.027 0 1.898.585 2.353 1.56v-3.913h.91v9.334h-.845v-1.443c-.481 1.001-1.365 1.573-2.418 1.573-1.846 0-3.016-1.456-3.016-3.562zm.923 0c0 1.742.884 2.769 2.223 2.769 1.326 0 2.236-1.079 2.236-2.795 0-1.729-.936-2.73-2.236-2.73-1.339 0-2.223 1.014-2.223 2.756zm11.709.663v-4.082h.897v6.851h-.845v-1.235c-.351.793-1.183 1.365-2.184 1.365-1.391 0-2.314-.793-2.314-2.522v-4.459h.91v4.264c0 1.391.689 1.924 1.651 1.924 1.092 0 1.885-.884 1.885-2.106zm5.429 2.912c-1.807 0-3.068-1.469-3.068-3.575 0-2.08 1.274-3.549 3.068-3.549 1.599 0 2.743 1.066 3.016 2.782h-.923c-.208-1.248-.988-1.989-2.093-1.989-1.274 0-2.145 1.118-2.145 2.756 0 1.664.871 2.782 2.145 2.782 1.118 0 1.885-.728 2.093-2.002h.923c-.247 1.742-1.404 2.795-3.016 2.795zm8.008-1.014v.806c-.351.143-.65.195-.988.195-1.131 0-2.002-.585-2.002-2.067v-4.147h-1.612v-.767h1.612v-2.028h.91v2.028h2.145v.767h-2.145v3.952c0 1.066.52 1.43 1.274 1.43.286 0 .52-.052.806-.169zm5.198.871h-.975v-9.334h.975zm2.955 0h-.91v-6.851h.845v1.287c.455-.884 1.261-1.417 2.236-1.417 1.066 0 1.859.585 2.145 1.586.429-.962 1.287-1.586 2.366-1.586 1.417 0 2.301.936 2.301 2.535v4.446h-.897v-4.147c0-1.3-.598-2.041-1.703-2.041-1.04 0-1.885.91-1.885 2.171v4.017h-.91v-4.147c0-1.3-.598-2.041-1.703-2.041-1.053 0-1.885.91-1.885 2.171zm17.176-3.432c0 2.119-1.183 3.562-3.003 3.562-1.027 0-1.898-.559-2.366-1.534v3.913h-.91v-9.36h.845v1.482c.468-1.014 1.378-1.612 2.431-1.612 1.82 0 3.003 1.456 3.003 3.549zm-.923 0c0-1.729-.897-2.756-2.236-2.756-1.274 0-2.223 1.014-2.223 2.756 0 1.703.923 2.769 2.223 2.769 1.339 0 2.236-1.014 2.236-2.769zm3.298-.234v3.666h-.91v-6.851h.845v1.56c.468-1.014 1.482-1.664 2.613-1.664v.949c-1.443-.052-2.548.845-2.548 2.34zm6.39 3.796c-1.885 0-3.25-1.495-3.25-3.562 0-2.054 1.365-3.536 3.25-3.536 1.898 0 3.263 1.482 3.263 3.536 0 2.067-1.365 3.562-3.263 3.562zm0-.793c1.339 0 2.34-1.066 2.34-2.769 0-1.677-1.001-2.743-2.34-2.743-1.326 0-2.327 1.066-2.327 2.743 0 1.703 1.001 2.769 2.327 2.769zm9.81-6.188-2.639 6.851h-.949l-2.613-6.851h.975l2.145 5.785 2.145-5.785zm3.545 6.981c-1.924 0-3.198-1.443-3.198-3.614 0-2.002 1.326-3.497 3.146-3.497 1.95 0 3.224 1.573 3.068 3.77h-5.304c.078 1.625.936 2.626 2.275 2.626 1.144 0 1.937-.637 2.158-1.729h.897c-.312 1.521-1.469 2.444-3.042 2.444zm-.065-6.409c-1.235 0-2.106.949-2.223 2.444h4.355c-.078-1.534-.871-2.444-2.132-2.444zm5.494 6.279h-.91v-6.851h.845v1.287c.455-.884 1.261-1.417 2.236-1.417 1.066 0 1.859.585 2.145 1.586.429-.962 1.287-1.586 2.366-1.586 1.417 0 2.301.936 2.301 2.535v4.446h-.897v-4.147c0-1.3-.598-2.041-1.703-2.041-1.04 0-1.885.91-1.885 2.171v4.017h-.91v-4.147c0-1.3-.598-2.041-1.703-2.041-1.053 0-1.885.91-1.885 2.171zm13.588.13c-1.924 0-3.198-1.443-3.198-3.614 0-2.002 1.326-3.497 3.146-3.497 1.95 0 3.224 1.573 3.068 3.77h-5.304c.078 1.625.936 2.626 2.275 2.626 1.144 0 1.937-.637 2.158-1.729h.897c-.312 1.521-1.469 2.444-3.042 2.444zm-.065-6.409c-1.235 0-2.106.949-2.223 2.444h4.355c-.078-1.534-.871-2.444-2.132-2.444zm5.495 2.288v3.991h-.91v-6.851h.845v1.287c.442-.845 1.274-1.417 2.262-1.417 1.43 0 2.353.91 2.353 2.535v4.446h-.91v-4.134c0-1.313-.598-2.054-1.716-2.054-1.066 0-1.924.923-1.924 2.197zm9.976 3.12v.806c-.351.143-.65.195-.988.195-1.131 0-2.002-.585-2.002-2.067v-4.147h-1.612v-.767h1.612v-2.028h.91v2.028h2.145v.767h-2.145v3.952c0 1.066.52 1.43 1.274 1.43.286 0 .52-.052.806-.169zm6.551-1.04c0 1.261-1.014 2.041-2.704 2.041-1.703 0-2.743-.858-2.873-2.275h.871c.065.975.832 1.586 2.002 1.586 1.118 0 1.794-.429 1.794-1.209 0-.676-.39-.988-1.43-1.196l-.988-.195c-1.3-.247-1.989-.884-1.989-1.872 0-1.144 1.014-1.95 2.509-1.95 1.573 0 2.613.845 2.717 2.21h-.858c-.091-.949-.78-1.508-1.859-1.508-.962 0-1.625.455-1.625 1.17 0 .676.416 1.001 1.43 1.196l1.027.195c1.365.26 1.976.832 1.976 1.807z" fill="#002e5c" fill-opacity=".35"/></svg>