<svg fill="none" height="746" viewBox="0 0 956 746" width="956" xmlns="http://www.w3.org/2000/svg"><path d="m569.01 268.197c-.703-4.649-2.138-6.706-2.138-6.706s-8.731-17.865-9.226-19.319c-.495-1.464 13.017-6.429 18.065-5.737 5.058.702 11.334 4.085 11.334 4.085s17.768.396 23.43-11.345c5.662-11.732 15.264-25.57 25.113-30.516 9.859-4.955 41.594-7.982 41.594-7.982l25.479 11.365s.139 7.933-1.306 11.385c-1.445 3.453-4.534 8.151-4.534 8.151l-27.518 30.456s-2.782-.168-3.494 2.028c-.713 2.196-1.812 9.08-1.386 11.355.435 2.276 2.564 2.928.366 4.956-2.197 2.028-4.504 2.087-6.968 2.255l-2.465.169s-5.207 4.659-10.186 9.782c-4.979 5.134-12.165 10.95-17.748 13.107-5.583 2.156-15.422 3.036-19.451 1.335s-19.887-13.007-19.887-13.007-.039-2.701-1.049 2.235c-1.009 4.936-.93 13.512-.93 13.512s-15.205 2.78-20.253-6.815c-5.058-9.595-4.316-13.384-4.316-13.384l3.554-1.375s2.277 1.88 3.286-1.661c1.01-3.532.624-8.329.624-8.329z" fill="#fafbfc"/><path d="m638.491 372.919c2.821 5.747 4.306 9.813 4.306 9.813l20.757-14.857 22.668-2.681s2.108-1.098 4.959-4.095 5.316-10.93 5.316-10.93 1.861-3.957 2.94-6.153 2.069-5.717 2.069-5.717l2.009-3.274c2.009-3.274 4.256-8.101 4.256-8.101l-22.776 15.47-8.8.119 13.571-9.664 9.601-7.033 2.356-2.75s2.445-2.592 2.584-4.016c.138-1.424-2.109-1.464-4.138-1.959-2.029-.504-10.443-2.205-12.878-2.472-2.435-.268-3.712 1.553-3.712 1.553h-3.692s-1.376.722-3.643 2.512-7.879 9.061-7.879 9.061l-5.741.346s-2.049 1.879-3.138 5.628 3.138 9.269 3.138 9.269-1.634 4.016-2.772 6.221c-1.148 2.206-3.197 5.609-5.603 7.409l-5.523 2.997s-10.423-1.582-12.829-2.344c-2.405-.762-7.642-2.453-7.642-2.453s-.722 2.008-.782 4.144l-.059 2.137 6.098 4.906 4.989 6.914z" fill="#fafbfc"/><path d="m484.134 633.166s-1.118 3.571-5.216 8.358c-3.227 3.769-6.405 4.946-8.711 5.807-2.306.86-4.652 1.523-4.652 1.523s3.474 9.822 4.969 12.889c1.495 3.066 6.869 12.948 9.938 15.727 3.079 2.78 8.483 5.955 10.889 5.451 2.405-.505 2.029-1.247 2.029-1.247s-4.257-10.594-3.633-16.153.96-10.04 2.95-12.75c1.989-2.71 5.474-6.499 5.474-6.499l-14.027-13.106z" fill="#fafbfc"/><path d="m617.057 662.682s3.583 5.302 5.018 9.546c1.436 4.243 3.316 11.85 2.881 14.234-.426 2.384-1.386 4.342-1.386 4.342s2.574 1.701 6.147 1.86c3.574.168 14.027-.317 20.372-2.137 6.335-1.82 15.392-5.163 18.461-6.855 3.068-1.691 6.741-4.461 6.741-4.461s-9.711-1.306-15.413-3.046c-5.701-1.741-12.254-4.303-14.739-6.252-2.484-1.939-5.157-4.323-6.483-6.321-1.317-1.988-4.306-7.715-4.306-7.715l-17.303 6.795z" fill="#fafbfc"/><path d="m549.057 414.445s-2.613.208-3.355 1.989c-.743 1.78-.852 2.571-.852 2.571l-.92 18.033.029 3.521s4.752 3.155 7.405 3.937c2.662.781 15.293 6.063 22.786 5.875 7.494-.187 12.156-1.038 15.422-2.166 3.267-1.127 9.365-3.986 9.365-3.986s4.117-2.206 4.622-3.66 1.139-5.45 1.455-8.705c.307-3.254 1.069-10.445 1.178-12.849.119-2.403-.584-4.56-.584-4.56l-1.316-.92-.782 1.771s-3.663 3.511-11.582 6.153c-7.919 2.641-10.69 3.847-19.272 3.62-8.583-.228-11.216-.722-16.007-2.701-4.79-1.978-7.73-4.302-7.73-4.302l.138-3.611z" fill="#fafbfc"/><path d="m465.563 648.855s-5.187-.326-9.107 1.939c-3.929 2.265-6.879 6.133-6.879 6.133h-1.297l-3.553 4.115s3.999 7.052 5.642 9.842c1.643 2.789 14.907 22.849 19.104 26.351s11.225 8.704 20.233 9.882c9.008 1.177 16.511 2.067 18.085.633 1.574-1.435 3.435-2.77 3.583-5.559.149-2.79.327-5.035-1.336-6.806-1.673-1.77-13.72-11.603-13.72-11.603l-3.147-1.365s-3.841.366-7.375-.742c-3.534-1.107-10.176-9.476-12.819-15.094-2.643-5.628-7.394-17.726-7.394-17.726z" fill="#d4d4d6"/><path d="m623.578 690.804s-2.465-2.522-2.356 0c.109 2.523.317 11.801.822 13.661.515 1.859.821 2.651.821 2.651l.683 6.399s12.681-1.117 16.67-1.76 31.25-6.024 40.169-9.556c8.908-3.531 20.133-8.813 21.024-10.722s1.337-6.093 0-7.735l-1.336-1.632s-10.394-4.303-14.115-4.382c-3.722-.079-9.038.811-9.038.811s-8.483 5.48-11.67 6.805c-3.188 1.326-10.077 4.511-17.769 6.093-7.691 1.593-15.046 1.197-17.471 1.266-2.425.06-6.434-1.899-6.434-1.899z" fill="#d4d4d6"/><path d="m543.933 440.556s-2.583 7.567-3.167 12.414c-.584 4.846-1.822 20.752 8.671 35.955 10.503 15.214 3.118 4.135 3.118 4.135v50.635s-4.751-1.048-5.573 0c-.821 1.039-1.554 2.453-1.188 4.451.367 2.008.634 2.968.634 2.968s-23.272 25.747-29.904 32.128c-6.632 6.37-23.381 21.82-23.381 21.82s-3.89-3.857-5.602-2.947c-1.703.9-2.287 2.156-3.138 2.947-.851.792-6.365 7.469-8.473 9.16-2.109 1.691-4.841 3.343-4.673 4.164.169.821 6.108 10.881 8.216 13.344 2.119 2.473 13.7 14.323 20.619 18.576 6.919 4.254 17.719 9.506 17.719 9.506l2.415-1.731 11.799-13.165 3.049-3.403-4.207-5.737s5.019-6.252 7.642-9.091c2.623-2.838 26.805-26.489 29.151-28.764s9.513-9.694 9.959-10.901c.445-1.207 1.098 1.217 1.098 1.217l13.591 52.702s-5.147 2.315-5.375 3.403c-.227 1.088-.059 2.542.495 4.006.564 1.474 4.583 18.092 6.632 18.922 2.049.831 14.225 1.682 21.965-.108 7.751-1.791 23.163-8.458 28.083-11.415 4.919-2.958 10.789-6.548 10.789-8.141s-3.801-12.246-5.216-15.965c-1.416-3.719-2.97-6.35-4.534-6.172-1.564.168-4.038.999-4.038.999s-7.147-24.245-12.403-41.98c-5.247-17.726-12.027-45.897-15.304-66.254-3.276-20.367-10.888-59.102-11.175-64.701-.287-5.598-.515-10.969-.515-10.969s-10.522 7.26-20.094 7.636c-9.572.366-15.908.534-24.163-2.928-8.246-3.462-13.532-6.706-13.532-6.706h.01z" fill="#eae9ea"/><path d="m566.995 272.628-4.85 1.019s.228.346-1.554 2.443-5.979 6.934-5.979 6.934l-1.524 1.978 1.524 4.105s-4.553 4.63-8.147 9.338c-3.583 4.708-9.938 11.712-12.917 19.526-2.98 7.814-4.702 10.663-4.712 17.399 0 6.736 1.208 14.491 1.861 17.211.653 2.721 7.018 25.115 9.394 30.15 2.375 5.035 8.621 29.052 8.879 30.792.257 1.741.594 4.541.594 4.541s6.602 3.709 11.908 5.757c5.306 2.047 17.382 1.048 21.45 0 4.069-1.049 11.493-2.681 14.908-4.808 3.415-2.136 6.285-3.709 6.285-3.709l.584-8.012 16.333-7.488s3.415 3.956 6.424 3.284c3.01-.673 14.987-6.825 14.987-6.825s2.366-3.294 1.782-6.816c-.574-3.521-3.089-13.175-6.91-18.299-3.83-5.124-9.859-10.109-9.859-10.109s2.049-4.728.782-6.202-2.375-2.463-2.375-2.463l-13.888-3.601s-11.106-20.159-12.71-23.957c-1.604-3.799-6.474-17.004-6.474-17.004s1.327-.445 2.732-1.019c1.406-.583-1.811-6.142-2.197-8.328-.386-2.196.138-5.015-1.812-6.924s-5.414-5.273-5.414-5.273-.565 1.642-.931 3.828-.366 5.124-.366 5.124-4.247-2.552-10.433-6.093c-6.692-3.828-8.82-12.404-8.82-12.404s1.831 1.256 2.168-1.375c.336-2.631-.723-2.69-.723-2.69z" fill="#d4d4d6"/><path d="m521.367 135.648s18.788-10.208 30.379-14.175c11.592-3.966 25.578-10.683 49.325-13.096 23.757-2.414 39.813-3.156 47.642.099 7.83 3.244 17.165 8.358 29.231 24.353 12.067 15.994 25.133 34.947 31.24 50.902 6.108 15.955.258 15.045.099 15.856-.158.821-.079 6.835-3.464 11.336-3.395 4.5-6.86 7.824-6.86 7.824s2.287-5.965 2.425-9.15l.139-3.185s-7.563.465-14.225 1.227c-6.661.771-9.68-.445-18.53 4.56-8.849 5.005-14.729 10.505-20.045 16.35-5.315 5.846-18.57 29.141-18.57 29.141l-1.87 3.788s-1.436-21.998-.04-27.29 6.424-21.841 6.424-21.841-2.92-1.691-6.424-.148c-3.504 1.553-6.137 5.025-6.137 5.025s-1.406 2.631-.683 4.382c.722 1.75 3.375 5.905 3.375 5.905s-2.702 2.077-4.504 7.409c-1.801 5.331-7.097 23.324-7.097 23.324l-27.093-17.736s-8.918-2.562-15.976-.801-12.344 5.144-12.344 5.144-6.473-22.464-7.166-29.329.495-14.471-.159-15.668c-.653-1.207-13.165-21.376-17.758-32.345-4.593-10.97-11.314-31.861-11.314-31.861z" fill="#d4d4d6"/><path d="m639.989 221.617c-7.405 15.431-11.701 39.873-11.701 39.873s.99-38.745 7.612-52.316c6.623-13.571 12.76-26.104 22.332-33.641 9.572-7.538 17.075-12.068 18.025-12.533.951-.465-18.471-16.272-60.669-4.58-27.973 7.755-44.049 34.472-46.048 50.724-.851 6.934 2.94 18.586 2.94 18.586s-24.371-27.765-30.736-41.109c-6.364-13.344-20.361-50.971-20.361-50.971s5.949-4.184 20.361-10.238c14.413-6.054 49.256-17.033 67.796-18.24 18.54-1.197 37.942-1.632 45.267 3.62 7.325 5.243 16.877 13.848 24.133 23.226 7.256 9.377 22.796 34.106 22.796 34.106s-42.425 13.215-61.747 53.493z" fill="#d4d4d6" opacity=".27"/><path d="m701.156 210.867s-16.452-1.543-22.213 5.104-2.682 13.215-2.682 13.215-3.227-5.737-7.879 0c-4.653 5.737-5.722 8.002-5.722 8.002s-4.89-8.002-11.354-2.987c-9.958 7.735-17.58 19.15-22.004 25.273-4.435 6.123 19.163-31.683 24.618-36.49 5.454-4.807 14.976-10.792 18.975-12.265 4.009-1.474 9.008-2.75 14.423-3.057 5.414-.307 14.224-1.226 14.224-1.226l-.366 4.441h-.02z" fill="#d4d4d6" opacity=".27"/><path d="m628.27 261.49s-2.296-7.251-7.345-6.459c-7.117 1.107-14.372 21.989-14.739 31.217-.366 9.229 7.622 13.057 7.622 13.057s-5.117 1.988-16.887-7.784c-11.769-9.773-18.679-18.893-20.916-16.866-3.761 3.403-.98 14.452-.98 14.452s-3.484-3.798-4.919 2.414c-1.436 6.211 4.919 17.636 4.919 17.636s-4.157-9.09-8.889-4.649c-4.731 4.442-12.086 19.16-11.542 27.954.545 8.793 13.918 41.742 20.431 51.812 6.504 10.069 14.334 16.153 20.481 16.074s29.488-9.961 29.488-9.961l-3.801-8.873s2.831 2.414 11.809-3.007c5.612-3.393 5.197-3.996 5.197-3.996s1.405 2.611 1.752 3.304c2.425 4.757 20.312-16.905 23.509-17.825 3.197-.93 21.549.495 23.806-1.019 2.257-1.513 9.701-9.159 9.701-9.159s-4.91 14.372-7.879 15.925c-2.97 1.563-25.579 2.127-25.579 2.127l-20.757 14.857s6.731 7.755 1.643 11.286-16.184 9.061-16.184 9.061-5.692-1.563-6.454-2.424c-.762-.86-17.382 7.34-17.382 7.34s-2.693 3.858-12.898 10.07c-2.653 1.612-5.415 4.955-5.415 4.955s-4.127 5.282-7.473 14.521c-3.346 9.229 3.563 12.256 3.563 12.256s-16.56-4.936 4.96 78.746c9.482 36.866 19.648 80.914 24.677 94.198 5.028 13.284 9.305 19.457 11.037 18.784s3.811-1.523 3.811-1.523 2.9 10.88 6.345 15.47c3.435 4.59 9.423 1.642 9.423 1.642s-11.205 6.904-12.294 12.523c-1.089 5.618 2.623 16.855 10.127 19.14 7.513 2.285 14.63.416 14.63.416s22.985-2.058 28.261-1.069 13.402 2.889 13.739 4.62c.336 1.731-3.514 3.936-3.514 3.936s-19.57 9.289-45.336 13.74c-15.125 2.611-22.905 3.086-22.905 3.086l-2.139-5.055-1.93-14.056s1.188-3.936 1.772-3.956c0 0 4.266-2.038 1.039-13.749-2.355-8.547-4.781-10.11-4.781-10.11s-3.266.772-11.502 1.108c-8.236.337-14.442-1.108-14.442-1.108l-5.88-21.82 4.484-3.235-20.648-81.368s.861 4.065-5.078 9.14c-5.94 5.074-39.595 36.064-46.851 45.63-7.255 9.565-7.83 15.994-7.83 15.994s-6.8-5.163-7.602-5.816c-3.553-2.869-12.69 7.745-13.769 13.551-1.079 5.807-1.079 2.918-1.079 2.918s-2.474-1.404-5.899 3.937c-3.425 5.342-4.514 11.603-4.999 20.011-.485 8.398 1.297 10.722 4.236 13.69 2.95 2.967 9.018 11.059 10.889 16.351s-1.326 11.939-1.326 11.939-17.175-4.362-22.352-10.268c-5.177-5.905-21.975-30.654-21.975-30.654l-2.771-5.539s2.583-4.639 3.553-4.115 1.624-1.118 1.624-1.118.326-.989 3.296-2.967 9.493-3.986 9.493-3.986h2.385s4.564-1.069 9.206-3.65c4.652-2.582 8.731-9.427 8.731-9.427s-12.116-14.669-11.592-16.568l.525-1.89s5.751-4.174 8.513-7.567c2.762-3.392 6.058-7.349 6.058-7.349l4.583 1.563 2.039.93s47.494-47.332 49.147-48.984c1.653-1.651 4.147-4.777 4.147-4.777s-1.009-6.776.565-7.429c1.564-.653 4.87-.316 4.87-.316l.703-50.309s-12.72-16.618-12.502-26.519c.217-9.892 3.88-25.995 3.88-25.995l2.494-24.907 3.227-.841s-13.977-42.969-16.521-52.841c-2.544-9.862-5.879-29.397-1.831-38.478 4.049-9.08 20.144-30.753 20.144-30.753l3.158-3.63-1.525-4.105 5.722-6.815 4.256-5.559h3.92l1.98-6.43s-11.631-20.772-13.641-28.27c-2.009-7.498-5.127-23.759-5.385-28.794-.257-5.035-.197-9.734-.197-9.734s22.994 29.289 28.884 34.463c5.89 5.173 19.025 14.966 25.489 19.466 6.464 4.501 7.711 4.244 7.711 4.244s7.444-19.625 9.344-23.374c1.901-3.759 3.623-6.677 3.623-6.677s-5.038-7.043-2.692-10.287c2.346-3.245 5.325-5.025 5.325-5.025s-4.187 3.363-.95 7.349c3.237 3.987 3.87 2.661 3.87 2.661s-1.247 8.003-1.762 15.708c-.514 7.706-1.376 10.98-.841 17.261l.534 6.291h.03z" fill="#d4d4d6" opacity=".27"/><path d="m582.195 342.027s6.86 13.601 13.334 19.932c6.483 6.33 11.017 4.975 11.017 4.975l-.772 5.302-12.967 3.077z" fill="#d4d4d6" opacity=".27"/><path d="m613.828 353.58s14.472.95 14.234 2.582c-.247 1.632-.633 4.224-.633 4.224s-3.663-2.068-6.038-.811c-2.376 1.256-5.9 2.383-5.9 2.383s1.861 0 .099-4.194l-1.762-4.194z" fill="#d4d4d6" opacity=".27"/><path d="m642.452 361.959s-.089-.425-6.553 0-8.454-3.294-8.454-3.294l.614 3.324 5.444 4.006 8.959-4.046h-.01z" fill="#d4d4d6" opacity=".27"/><path d="m661.643 345.341s-7.048-8.932-2.158-11.623c4.89-2.69 7.79-2.354 11.621-2.69 3.831-.327 9.156 0 9.156 0s-3.019.208-4.009 1.424c-.99 1.217-3.375 1.435-3.375 1.435s-.842-.732-3.019.84c-2.178 1.573-4.673 3.838-4.91 5.342-.238 1.513-3.306 5.262-3.306 5.262z" fill="#d4d4d6" opacity=".27"/><path d="m676.252 327.745s1.267-2.483 5.088-3.116 7.968 1.612 11.017 0 4.643-2.7 4.643-2.7h4.523c2.515 0 2.485-1.445 2.485-1.445l-13.69 11.979-6.731 1.157h-4.652s2.682.06 1.316-2.571c-1.366-2.641-4.009-3.284-4.009-3.284v-.02z" fill="#d4d4d6" opacity=".27"/><path d="m707.265 328.387s-3.87 4.115-9.522 9.98c-5.653 5.856-8.622 10.406-12.75 9.783s-12.126-5.747-12.126-5.747 6.919 2.166 9.77.841c2.851-1.326 6.553-3.818 10.968-6.697 4.415-2.878 13.65-8.15 13.65-8.15h.01z" fill="#d4d4d6" opacity=".27"/><g stroke="#61615f" stroke-linecap="round" stroke-linejoin="round"><path d="m624.798 227.524s-2.791 4.036-6.681 13.66c-3.881 9.625-4.93 17.073-4.93 17.073-52.601-25.767-83.099-87.54-91.82-122.606 32.874-20.465 116.013-42.217 139.304-20.95 24.272 22.147 41.624 50.902 50.335 73.544 2.841 7.399-1.614 17.231-15.363 18.853-13.739 1.612-39.07-4.313-67.37 54.394 0 0-5.969-41.881 22.301-77.758 11.414-14.491 27.024-21.385 27.024-21.385" stroke-width="1.31"/><path d="m710.275 198.662c-1.159 5.895-2.475 12.038-10.117 19.012-6.394 5.846 2-2.612 1.366-11.257" stroke-width="1.31"/><path d="m587.151 284.014c-2.059 3.946-2.257 5.747-1.98 11.672-9.166-4.036-17.323-10.515-20.273-21.03" stroke-width="1.31"/><path d="m549.796 198.662c-.931 12.414 3.316 43.058 14.897 60.21 0 0 5.128 9.318 6.84 10.861" stroke-width="1.31"/><path d="m665.953 221.678c5.147-.208 9.75-.307 10.295 7.508" stroke-width="1.31"/><path d="m635.892 290.265c-2.089-1.989-5.999-5.619-5.722-12.345" stroke-width="1.31"/><path d="m633.5 366.005c3.474-1.612 21.104-8.408 23.153-11.177 3.306-4.481 8.552-19.071 14.65-20.733 2.475-.673 16.036.218 19.015-1.632" stroke-width="1.31"/><path d="m696.931 348.765c-1.723 6.261-6.039 15.144-10.701 16.43-6.325 1.75-22.668 2.68-22.668 2.68-5.028 3.235-20.757 14.857-20.757 14.857" stroke-width="1.31"/><path d="m686.219 349.812c18.322-10.228 21.559-22.889 21.559-22.889" stroke-width="1.31"/><path d="m701.714 337.32c-1.228 6.291-7.157 17.607-14.433 21.643" stroke-width="1.31"/><path d="m619.109 666.58c3.613 4.689 8.187 19.556 4.455 24.225" stroke-width="1.3"/><path d="m636.477 660.072c6.543 12.325 18.817 15.985 38.832 19.15" stroke-width="1.3"/><path d="m483.016 635.768c-1.435 3.798-7.553 10.771-17.461 13.086" stroke-width="1.31"/><path d="m496.286 648.629c-9.642 7.102-6.306 26.974-2.534 33.799" stroke-width="1.31"/><path d="m628.047 356.161c4.078 1.088 10.186 2.819 20.015 3.413" stroke-width="1.31"/><path d="m557.773 244.861c5.653-5.519 17.224-7.003 29.38-3.472" stroke-width="1.31"/><path d="m582.406 279.207s9.265 8.694 14.531 12.315c10.077 6.934 19.342 13.116 35.952.88 15.729-11.583 21.53-19.595 21.53-19.595 4.583 1.137 9.315-.574 9.433-2.424.357-5.668-.871-12.542 1.02-16.311 9.166-8.081 27.815-28.389 32.685-34.502" stroke-width="1.31"/><path d="m566.141 276.704s6.305-6.964 1.663-12.315" stroke-width="1.31"/><path d="m629.212 230.401s-10.671-5.411-7.097-13.166c3.573-7.754 11.383-4.213 11.383-4.213" stroke-width="1.31"/><path d="m662.357 234.942s-.911.802.277 2.246 2.297.366 2.297.366z" fill="#1d1d1b" stroke-width="1.31"/><path d="m661.62 345.343c-.188-.504-3.079-7.28-2.158-11.622.821-3.878 1.574-5.352 3.138-5.629s7.018-.346 10.809-.346c12.344 0 5.771 5.767 1.96 5.866" stroke-width="1.31"/><path d="m668.359 327.745c3.029-2.146 5.979-9.199 11.245-11.464 2.128-.92 16.531 2.305 17.174 3.046.644.742-1.108 6.737-7.869 5.154-1.505-.356-5.751-.999-7.592.148" stroke-width="1.31"/><path d="m683.578 316.171s2.544-2.513 4.841-2.513c3.068 0 13.67 3.818 15.036 4.283 1.871.633 1.544 2.661.574 3.996-.97 1.326-4.851 2.097-8.632 1.089" stroke-width="1.31"/><path d="m672.867 342.394s6.424 2.769 12.126 0" stroke-width="1.31"/><path d="m604.125 414.8c0-4.649.584-7.528.584-7.528" stroke-width="1.31"/><path d="m554.626 289.097c-4.207 5.42-25.767 25.352-25.767 48.152 0 25.134 18.293 55.561 20.718 80.804" stroke-width="1.31"/><path d="m586.109 286.249c2.752 3.254 6.058 4.431 6.702 9.08.643 4.64 1.851 9.318 4.128 10.861-1.258.901-2.742 1.623-4.128 1.603" stroke-width="1.31"/><path d="m597.83 419.005c-.515 8.546-1.406 15.886-2.307 26.925" stroke-width="1.31"/><path d="m528.117 639.565c14.462-21.139 47.662-46.827 49.8-53.247" stroke-width="1.3"/><path d="m543.932 440.556c-1.891 7.804-11.315 28.003 8.621 52.504 0 0 .535 42.811 0 49.28 0 0-.128 1.622-.752 1.315-.624-.306-3.524-.939-4.811.04-2.791 2.137-.158 9.12.465 9.892" stroke-width="1.31"/><path d="m642.452 630.137c-3.752-8.833-30.854-95.453-40.733-187.583" stroke-width="1.3"/><path d="m552.57 493.063c1.871 5.886 40.357 145.229 40.624 152.449" stroke-width="1.3"/><path d="m493.136 605.065c-5.227-2.74-5.88-4.006-7.306-2.047 0 0-.871 1.79-6.582 8.071-1.505 1.652-5.504 5.144-7.305 6.232-.654.396-.881 1.217-.525 1.889l3.138 5.915c2.831 4.254 15.838 23.265 43.247 34.69.376.158.812.06 1.089-.247l16.184-18.062c-.891-2.859-3.286-5.114-3.9-6.133" stroke-width="1.3"/><path d="m465.555 648.855c1.168 4.629 13.293 38.775 28.201 33.572 5.484 2.542 8.107 6.083 14.59 11.197 2.99 2.354 4.039 6.459 2.495 9.941-1.693 3.818-2.881 4.897-6.85 4.897s-23.539 0-34.536-11.217c-9.741-9.932-16.907-23.997-24.668-34.453-.386-.514-.416-1.197-.069-1.741 1.069-1.731 3.484-5.203 4.85-4.115 1.881-6.37 15.719-9.149 15.987-8.081z" stroke-width="1.31"/><path d="m449.578 656.926c2.158 3.412 20.302 34.462 30.181 39.497 9.879 5.025 26.41 5.767 31.616 5.767" stroke-width="1.31"/><path d="m623.58 690.803c6.068 4.798 34.259 1.167 52.374-11.583 2.732-2.235 5.078-1.424 8.047-1.563 3.217-.148 11.987 1.533 16.066 4.452 2.623 1.869 3.019 7.952 1.336 9.367-17.253 14.451-64.658 21.455-76.249 22.038-.961.05-1.792-.662-1.94-1.612-.406-2.611.118-4.234-.664-5.579-.94-1.602-2.91-18.636 1.03-15.52z" stroke-width="1.3"/><path d="m622.875 707.116c4.504-.119 75.497-8.467 76.546-25.431" stroke-width="1.3"/><path d="m676.203 342.522c13.858-9.555 33.982-24.857 37.684-27.3 2.762-1.82 3.049-.95 2.871 1.83-.178 2.789-5.207 6.904-8.978 9.871l-22.777 15.471" stroke-width="1.31"/><path d="m487.577 603.945s-.89 5.421 6.949 13.008c9.404 9.1 22.381 18.507 29.478 21.741 7.098 3.235 8.494 2.8 8.494 2.8" stroke-width="1.3"/><path d="m590.164 645.787s14.323 2.691 32.715-4.263c19.233-7.27 22.282-13.769 22.282-13.769" stroke-width="1.3"/><path d="m489.203 608.438s19.827-17.845 25.38-23.245c5.553-5.401 31.844-34.067 31.844-34.067" stroke-width="1.3"/><path d="m549.049 414.444s-3.564.544-4.108 3.769c-.535 3.235-1.198 16.885-1.01 22.345 14.551 8.349 36.199 15.728 57.779 1.998 0 0 2.029-.485 2.633-4.946.871-6.429 1.821-18.556 1.841-22.315 0-1.019-.931-1.474-1.911-1.771v.703" stroke-width="1.31"/><path d="m547.688 417.124c5.869 4.778 25.063 16.123 56.432-1.83" stroke-width="1.31"/><path d="m626.485 397.162c-7.008 3.59-18.243 8.299-33.329 15.5-17.788 8.774-24.608-6.123-35.031-20.486-6.107-8.971-18.986-29.674-21.945-36.015" stroke-width="1.31"/><path d="m582.195 344.669s2.851 8.477 4.405 12.552c1.554 4.076 6.207 18.082 6.207 18.082" stroke-width="1.31"/><path d="m590.328 384.276s3.098-3.957 2.485-8.962c0 0 3.237-.06 6.929-1.078 3.692-1.019 12.096-4.244 12.096-4.244" stroke-width="1.31"/><path d="m566.991 272.628s-3.83.089-4.85 1.019c-1.019.92-.742 1.968-3.326 4.54-2.583 2.562-5.721 6.815-5.721 6.815s.901 6.054 7.503 13.443c7.473 8.368 18.728 13.294 19.005 11.662 2.495-14.689 7.553-13.077 7.553-13.077" stroke-width="1.31"/><path d="m615.482 361.961c1.019-8.368-5.95-13.017-14.403-32.919-3.385-7.963-7.721-18.24-9.473-23.562-3.227-9.793-6.434-9.792-6.434-9.792" stroke-width="1.31"/><path d="m611.594 348.653 14.61 3.759c1.317.336 2.168 1.612 1.97 2.958l-.742 5.015" stroke-width="1.31"/><path d="m605.769 372.238c-.02-.673-.703-3.818.772-5.302 1.475-1.474 14.462-7.933 18.471-7.31 6.919 1.078 20.737 25.639 19.312 32.998-2.059 4.768-12.848 9.022-16.075 10.456s-5.643-1.494-7.207-3.294" stroke-width="1.31"/><path d="m609.523 367.519c6.969 2.463 18.174 23.324 17.076 32.83" stroke-width="1.31"/><path d="m591.778 641.524s-4.028 2.018-4.484 3.235c-.455 1.226 4.662 18.893 5.88 21.821 1.049 2.532 19.896 1.978 34.913-3.185 14.165-4.877 22.905-11.396 25.885-14.017.881-.771 1.168-2.018.742-3.106l-7.414-20.149c-.248-.673-.921-1.088-1.633-1.009-1.139.129-2.94.346-4.742.584" stroke-width="1.3"/></g><path d="m463.232 192.898c-1.583-2.438-5.36-1.426-5.512 1.476l-.557 10.621c-.068 1.298-.964 2.405-2.219 2.741l-10.273 2.753c-2.807.752-3.012 4.657-.299 5.698l9.929 3.812c1.214.465 1.989 1.659 1.921 2.957l-.557 10.621c-.152 2.902 3.499 4.304 5.328 2.045l6.693-8.265c.818-1.01 2.193-1.379 3.406-.913l9.929 3.811c2.713 1.042 5.174-1.997 3.591-4.434l-5.792-8.92c-.708-1.09-.633-2.512.185-3.522l6.693-8.265c1.829-2.258-.301-5.538-3.108-4.786l-10.273 2.753c-1.256.336-2.585-.174-3.293-1.264z" fill="#0b6bd4"/><path d="m744.329 245.682c-1.055-1.625-3.573-.951-3.675.984l-.755 14.42c-.046.865-.643 1.603-1.48 1.827l-13.948 3.737c-1.871.502-2.007 3.105-.199 3.8l13.481 5.174c.809.311 1.326 1.107 1.28 1.972l-.755 14.42c-.102 1.935 2.332 2.869 3.551 1.363l9.087-11.222c.546-.673 1.463-.919 2.271-.608l13.481 5.175c1.809.694 3.449-1.332 2.394-2.957l-7.864-12.11c-.472-.727-.423-1.674.123-2.348l9.087-11.221c1.219-1.506-.201-3.692-2.072-3.191l-13.948 3.737c-.837.225-1.723-.116-2.195-.842z" fill="#0b6bd4"/><path d="m382.854 174.876c-.203-3.87-5.239-5.219-7.349-1.969l-12.257 18.873c-.944 1.454-2.716 2.134-4.39 1.685l-21.737-5.824c-3.743-1.003-6.583 3.37-4.144 6.381l14.162 17.489c1.091 1.347 1.19 3.243.246 4.696l-12.257 18.874c-2.11 3.249 1.171 7.301 4.789 5.912l21.009-8.064c1.618-.621 3.452-.13 4.542 1.217l14.163 17.489c2.438 3.011 7.306 1.143 7.103-2.727l-1.178-22.473c-.091-1.731.943-3.323 2.561-3.944l21.01-8.065c3.617-1.388 3.344-6.595-.399-7.598l-21.737-5.824c-1.674-.449-2.869-1.924-2.959-3.655z" fill="#0b6bd4"/><path d="m311.08 57.561c-1.497-4.6065-8.014-4.6065-9.511 0l-8.344 25.6819c-.67 2.0601-2.59 3.4549-4.756 3.4549h-27.003c-4.844 0-6.858 6.1981-2.939 9.0451l21.846 15.8721c1.753 1.273 2.486 3.53 1.817 5.59l-8.345 25.682c-1.497 4.607 3.776 8.437 7.694 5.59l21.847-15.872c1.752-1.273 4.125-1.273 5.877 0l21.847 15.872c3.918 2.847 9.191-.983 7.694-5.59l-8.345-25.682c-.669-2.06.064-4.317 1.817-5.59l21.846-15.8721c3.919-2.847 1.905-9.0451-2.939-9.0451h-27.003c-2.167 0-4.086-1.3948-4.756-3.4549z" fill="#0b6bd4"/><path d="m210.969 108.927c-.599-1.842-3.206-1.842-3.805 0l-4.4 13.545c-.268.824-1.036 1.382-1.903 1.382h-14.241c-1.938 0-2.743 2.479-1.176 3.618l11.522 8.371c.701.509.994 1.412.727 2.236l-4.401 13.545c-.599 1.842 1.51 3.374 3.077 2.236l11.522-8.371c.701-.51 1.65-.51 2.351 0l11.522 8.371c1.567 1.138 3.676-.394 3.078-2.236l-4.401-13.545c-.268-.824.025-1.727.726-2.236l11.522-8.371c1.567-1.139.762-3.618-1.176-3.618h-14.241c-.867 0-1.635-.558-1.902-1.382z" fill="#0b6bd4"/></svg>