<svg fill="none" height="581" viewBox="0 0 209 581" width="209" xmlns="http://www.w3.org/2000/svg"><path d="m80.9415 12.6698s-.63-1.45-5.38 3.6-13.54 24.62-16.07 27.93-7.86 16.1101-11.61 21.1601-19.88 23.8299-22.77 26.7799c-2.89 2.94-4.82 5.24-5.31 8.7602-.49 3.52-.5 12.19 1.23 17.08 1.72 4.9 1.03 5.63 1.03 5.63s-2.35 2.22-3.26 7.11-1.14 12.62-1.14 12.62-1.8801 7.66-1.4801 11.41l.4001 3.75s-1.61 3.38-1.34 9.59c.27 6.22 1.77 15.82 3.56 20.47 1.79 4.66 6.01 17.17 6.01 17.17s1.66 28.58 2.72 34.86c1.07 6.28 6.19 29.38 9.38 34.71s6.71 6.72 11.17 5.68 18.75-6.04 24.72-10.51 24.3799-20.46 24.3799-20.46-2.8099-8.42-6.3399-14.03-9.6601-12.14-9.6601-12.14l-18.6799 12.14-20.24-39.83s-1.63-.89 1.47-7.63c3.1-6.75 8.39-16.73 8.39-16.73s16.46 3.36 25.89 3.63 34.0395-2.49 42.8695-5.19c8.83-2.69 22.14-25.33 22.14-25.33s4.07-32.45 14.65-44.78c10.57-12.3402 24.42-39.7801 13.59-53.8701-10.83-14.1-33.23-7.55-45.06-17.87s-15.86-15.18-26.9395-15.9c-11.08-.72-18.32.1899-18.32.1899z" fill="#f9fafb"/><path d="m24.7704 216.21s-9.09 13.61-10.57 18.37c-1.48 4.75-2.09 13.57-2.19 17.35s1.86 15.54 3.61 20.67 5.89 15.59 5.89 15.59-6.35 9.59-7.53 12.62-2.22 2.69-1.57 5.9c.64 3.21 1.24.9-.41 4.53s-2.66996 5.26-1.64 7.93c1.03 2.67-.07 3.67-.27 5.36-.19996 1.68-2.15996 1.84.74 5.63 2.9 3.8 5.77 8.34 7.98 8.32 2.2-.02 3.73 1.86 4.87-.67s.28-6.03.28-6.03 4.61 2.81 5.6.26c1-2.55-2.19-10.45-2.19-10.45s2.28.33 3.19-2.43-.54-7.64-3.72-11.72c-3.17-4.08-4.21-6.36-4.21-6.36l1.03-33.58 1.9-44.35-.81-6.93z" fill="#f9fafb"/><path d="m63.4031 170.68s.9 6.97.21 10.03-3.61 7.87-3.05 9.29-.14 1.89 2.84 2.68 8.37 1.25 12.96-.43 10.06-4.35 11.99-6.36 3.46-3.04 5.28-6.46 1.82-4.44 1.82-4.44l-32.06-4.32z" fill="#f9fafb"/><path d="m26.5856 332.91s29.67 20.64 37.02 23.05 12.94 4.38 18.65 3 24.1304-8.04 24.1304-8.04 3.56 13.8 1.49 24.88c-2.07 11.07-2.87 21.4-2.78 27.43s-1 32.99-1.25 39.78c-.26 6.79-.16 18.86.53 26.17s2.77 16.37 2.73 20.9-1.06 9.3-.8 11.82c.26 2.53.92 21.98.46 24.46s-3.31 7.42-3.31 7.42-7.7104 4.6-13.5104 4.51c-5.79-.09-17.66-1.96-22.39-4.4s-9.76-8.72-10.23-10.64l-.48-1.92s-13.06-1.22-16-2.83-8.69-6.36-8.69-6.36l-.63-22.85s1.24-1.87.11-3-3.28-5.31-3.04-7.55 1.4-22.39 1.79-25.3c.39-2.9 2.4-4.06.18-5.92s-3.28-4.79-3.98-10.83c-.71-6.04 1.18-29.2.93-32.73-.25-3.52-1.96-39.96-2.68-45.03s-1.82-20.97-1.82-20.97 1.93.93 1.82-1.48c-.11-2.4-.11-4.2-.11-4.2l1.87.59z" fill="#e5e4e5"/><path d="m63.3984 177.35s-8.52 1.09-12.29 3.36c-3.77 2.26-5.37 3.62-5.37 3.62l-3.84 9.64 4.94 11.39 15.66 30.64 18.68-12.14s7.34 7.96 8.5 10.05 7.5 16.12 7.5 16.12l-3.6399 3.63s-16.0901 15.63-25.2501 19.92-15.53 7.37-20.21 7.42-8.95-1.58-12.08-8.62-7.33-25.09-7.33-25.09l-2.73-16.99-3.29 70.79s8.98 8.88 8.88 13.04.4301 5.17-.9599 6.38l-1.3901 1.21s2.28 2.63 1.33 6.48-1.74 4.73-1.74 4.73l-3.6-.31 13 8.58s23.01 14.64 28.23 15.97 12.75 3.9 18.53 1.8 28.2896-11.25 28.2896-11.25l2.46-1.22s-5.68-27.86-5.17-36.66c.51-8.81 3.29-43.19 5.17-53.7s5.38-16.03 6.65-26.86c1.28-10.83.66-24.69-2.13-31.35s-18.38-17.21-18.38-17.21l-6.3496-4.69s-3.9999 8.7-10.5499 12.47c-6.55 3.78-13.3901 6.2-18.5301 4.99s-5.83-3.48-5.83-3.48 1.48-.79 2.08-4.81c.61-4.02.76-7.83.76-7.83z" fill="#cacacc"/><path d="m76.8481 15.2699s11.05-8.32002 25.5099-11.20002c11.15-2.22 25.58-4.759997 40.62-.84 15.04 3.92 59.06 22.56002 63.96 63.94002 4.9 41.3701-18.41 59.2401-18.41 59.2401s-.76-9.67-6.03-15.93-36.53-32.4301-36.53-32.4301 3.27-5.64 3.13-8.61c-.13-2.96-2.1-18.95-7.34-23.35s-9.09-2.4-20.49-4.12c-11.4-1.71-28.6799-5.8-30.5399-11.77s1.62-8.29-.47-11.69-5.61-3.4-9-3.6-4.43.36-4.43.36z" fill="#cacacc"/><path d="m125.926 123.1s-2.78 4.33-2.5 10.86c.28 6.52-.15 8.82 1.91 13.34s2.83 7.36 2.51 11.21-3.79 10.87-3.79 10.87 3.67 1.15 16.78-6.48c13.1-7.63 21.8-13.88 21.8-13.88s-.12-6.32-3.87-11.17c-3.75-4.84-17.93-17.47-17.93-17.47s-2.07 3.89-5.21 5.25c-3.15 1.36-4.47 1.54-6.63.08s-3.07-2.61-3.07-2.61z" fill="#cacacc"/><path d="m122.32 110.89s2.77-5.39 5.99-9.57 17.42-22.82 17.42-22.82 9.47 5.83 11.28 7.58 16.37 14.29 19.78 17.66c3.4 3.37 9.32 11.21 10.14 15.36.81 4.15 1.61 7.33.85 8.05s-24.61 21.46-24.61 21.46.68-2.93-1.9-7.75-8.84-11.56-13.43-14.93c-4.59-3.38-7-5.54-7-5.54s2.65-4.8 2.69-8.71c.03-3.91-2.76-7.35-7.1-6.75-4.34.59-7.86 2.6-9.25 3.67-1.39 1.06-4.86 2.3-4.86 2.3z" fill="#e5e4e5"/><path d="m36.6313 516.24s-8.9901 5.37-12.9501 7.73-8.65 5.63-8.65 5.63 8.89 3.04 13.59 4.79c4.7 1.76 9.5101 4.62 11.3201 7.75 1.81 3.12 2.2599 6.2 2.2599 6.2l15.14-.76s1.82-2.87 3.22-7.47c1.4001-4.6 2.28-8.66 2.28-8.66s-3.1899-.03-4.3399-4.11c-1.16-4.08-1.6301-6-1.6301-6s-6.9199 1.23-11.4599-.8-8.7601-4.31-8.7601-4.31z" fill="#cacacc"/><path d="m62.8272 531.46s-.26 4.87-3.26 11.29-7.45 16.1-7.45 16.1 1.41-1.69 4.73-3.74 10.05-5.8 17.78-6.28c7.72-.48 14.21-.71 19.71.15 5.51.86 11.7598 2.21 14.0598 3.27 2.31 1.06 4.78 2.8 4.78 2.8l-12.66-19.14s-2.3198 2.62-9.3398 3.07-15.58-2.2-15.58-2.2l-12.78-5.32z" fill="#cacacc"/><path d="m15.0203 529.61s-8.75004 6.82-10.46004 8.7-2.69 2.64-3.06 5.66.69 8.88.69 8.88.86 2.26 5.01 2.87c4.14004.61 30.22004 1.59 30.22004 1.59l15.1-.18 4.81-9.54-15.14.75s-1.69-6.17-4.77-8.69-9.16-5.59-12.58-6.84-9.81-3.21-9.81-3.21z" fill="#e5e4e5"/><path d="m52.1205 558.85s-2.4 5.91-1.74 8.52c.66 2.62-.19 5.05 6.95 7.42s21.07 5.6 28.35 5.28c7.28-.33 21.8995-2.51 25.6895-4.37 3.78-1.86 6.95-3.12 6.89-6.23-.07-3.11-1.66-7.46-1.66-7.46l-4.36-8.42s-11-5.29-21.0395-5.25c-10.04.03-18.61-.61-25.41 2.4-6.81 3-13.65 8.11-13.65 8.11z" fill="#e5e4e5"/><path d="m77.385 14.83s11.54.28 12.41 3.07c.88 2.79-1.35 8.51 0 10.92 1.35 2.4 10.83 10.58 19.31 11.28s21.12 3.22 26.07 11.7c4.95 8.49 10.96 20.86 5.3 31.47s-19.24 24.75-27.12 37.83-10.71 23.34-19.2 31.11c-5.54 5.08-26.87 9.9-30.05 10.25s-5.3 0-5.3 0 4.24-3.54 4.6-7.07c.35-3.54-6.72-3.18-6.72-3.18s-1.41 6.36-7.07 14.14-9.55 13.79-11.67 19.8 3.89 26.52 6.36 35.71 6.72 20.15 6.72 20.15l10.61-6.01-19.8-39.25s5.3-15.2 7.07-19.45c1.77-4.24 3.89-6.36 3.89-6.36s10.25 3.18 14.85 3.54c4.6.35 7.07-2.12 7.78 1.06s2.47 5.66-.35 10.61c-2.83 4.95-6.01 6.36-6.01 6.36s9.19-.71 14.5-3.89c5.3-3.18 8.49-4.95 9.19-2.83s-1.06 5.3-1.06 5.3 10.25 2.12 13.44 7.42c3.18 5.3 7.07 5.3-2.12 16.26s-11.31 13.08-14.67 12.73-6.54-3.54-6.54-3.54.73 19.09-4.41 24.4c-5.14 5.3-17.87 12.37-23.17 14.85-5.3 2.47-12.37 2.12-14.5 4.95-2.12 2.83-2.21 5.66-2.21 5.66s1.51 6.68 8.58 9.88 20.51 0 20.51 0 3.54 11.68 1.41 25.83c-2.12 14.14-5.66 23.33-9.9 28.28s-15.91 6.72-15.91 6.72 16.97 11.31 23.33 13.08 8.13 7.07 8.84 14.5c.71 7.42.35 62.93-1.06 70.36-1.41 7.42-.71 11.67 2.47 13.44s8.84-2.12 9.55 4.95 3.63 49.17 1.16 60.49c-2.47 11.31-14.87 13.05-14.87 13.05s5.58 1.5 8.41 4.11 5.66 11.8 8.31 18.52.53 15.56 0 19.45-2.67 3.6-2.67 3.6 14.25.88 22.73-3.36c8.49-4.24 9.84-4.41 9.84-7.24s-.56-5.27-.56-5.27-.18 1.31-.53-2.58-8.49-13.44-11.31-17.32c-2.83-3.89-6.36-10.25-6.36-10.25s4.24-.8 5.3-2.88c1.06-2.07 2.12-2.78 2.12-7.73s-1.06-26.52-1.06-26.52 1.41-8.13.35-15.2-3.54-21.21-3.18-26.16c.35-4.95 2.12-66.47 2.47-68.59s1.77-9.55 1.77-9.55l-1.06-25.81s8.13-3.89 9.19-5.66-5.3-35.55-5.3-46.77 4.6-38.44 6.72-50.46 7.07-21.57 7.07-34.3-6.72-22.98-13.08-27.93-15.56-11.67-15.56-11.67 12.73 0 25.46-4.6 27.58-8.49 44.55-21.57 25.81-22.98 33.23-34.3c7.42-11.31 15.2-27.58 6.72-54.09-8.49-26.52-24.75-39.99-35.36-45.45-10.61-5.46005-31.47-14.300047-50.56-13.24005-19.09 1.06-23.69 3.54-28.99 6.01-5.3 2.46995-12.89 7.23005-12.89 7.23005z" fill="#cacacc" opacity=".37"/><path d="m112.303 67s3.705 0 0 7.6053c-3.705 7.6054-8.302 11.4081-8.302 11.4081s-.222 2.0724 4.978 4.1448 9.536 0 12.462-2.7665c2.925-2.7665 4.559-8.3874 4.559-8.3874s-.26-6.4714-4.559-9.2378c-4.3-2.7665-9.129-2.7665-9.129-2.7665z" fill="#cacacc" opacity=".37"/><path d="m65.2587 44s-.2604 3.5424-1.8372 7.0932c-1.5769 3.5424-3.4215 5.9068-3.4215 5.9068h2.6331l6.3669-11.5212z" fill="#cacacc" opacity=".37"/><path d="m56.3408 85.73s-3.54 3.54 0 7.78 10.96 9.55 13.08 10.25c2.12.71-1.41 2.83-1.41 2.83s-10.57-4.24-13.24-8.13-4.96-3.88-2.32-7.27 3.89-5.46 3.89-5.46z" fill="#cacacc" opacity=".37"/><path d="m24.8783 227.86s-4.6 7.78-5.66 14.85 4.24 41 4.24 41l1.41-55.85z" fill="#cacacc" opacity=".37"/><path d="m21.9766 302.11s6.43 6.72 5.73 11.67-2.83 5.3-2.83 5.3 4.7 2.83 2.88 6.72-2.88 6.01-2.88 6.01l9.55 7.42s-.35-5.3 0-9.19 1.41-7.07 0-12.02-12.44-15.91-12.44-15.91z" fill="#cacacc" opacity=".37"/><path d="m41.1379 371.76s6.25 55.87 5.19 65.06-3.17 10.25-3.17 10.25-1.01 4.95 2.02 13.44c2.38 6.66 2.89 30.52 3 40.48.03 2.89-.45 5.76-1.43 8.49l-3.49 9.72s5.3 5.21 3.54 11.97c-1.77 6.76-11.66 10.3-11.66 10.3s-15.92 4.24-17.69 7.07-1.41 7.78-1.41 7.78 5.66 1.77 14.5 1.77 21.92-1.77 21.92-1.77l6.39-10.47 3.83-12.87s-7.04-9.54-7.04-17.67 1.41-17.32 1.41-17.32l3.79-30.41s-3.79-3.18-4.14-8.13-4.95-39.6-5.3-45.61-.71-34.65-.71-34.65l-9.55-7.42z" fill="#cacacc" opacity=".37"/><g stroke-miterlimit="10"><path d="m124.062 169.37c7.38-10.73 1.99-19.52.62-23.9s-1.5-11.5-1-14.75 1.25-5.25 2.25-7.62c.38-.88 1.41 3.26 6.09 3.87 5.66.74 19.72-18.96 5.02-21.95-5.24-1.07-8.87 3.06-12.35 5.43-6.01 4.08.99-5.35 2.49-7.6s11.18-14.9301 13.35-17.4401c14.67-17.01 8.54-29.92 1.99-38.47-4.18-5.46-15.61-5.21-19.11-5.46s-20.87-1.02-30.9004-8.84c-4.62-3.6-.93-8.04-1.66-12.35-1.17-6.96-11.46-5.26-14-5.02" stroke="#4e4e4d" stroke-width="1.5"/><path d="m146.977 78.0498c2.21 1.17 19.21 14.55 25.96 21.67 6.75 7.1202 15.8 15.2402 14.84 27.4302" stroke="#cacacc" stroke-width="1.5"/><path d="m110.559 64.5878c4.191 1.9809 20.158 6.4652 13.688 23.0522" stroke="#4e4e4d" stroke-width="2"/><path d="m61 41c3.46 1.48 6.84 3.98 7.84 5.48" stroke="#4e4e4d" stroke-width="2"/><path d="m62.5857 55.9697c-.4 1.23-1.37 2.01-2.18 1.75s-1.14-1.47-.75-2.7c.4-1.23 1.37-2.01 2.18-1.75s1.14 1.47.75 2.7z" fill="#4e4e4d" stroke="#4e4e4d" stroke-width="1.5"/><path d="m106.247 87.5997c1.276 0 2.31-.9805 2.31-2.19s-1.034-2.19-2.31-2.19c-1.275 0-2.309.9805-2.309 2.19s1.034 2.19 2.309 2.19z" fill="#4e4e4d" stroke="#4e4e4d" stroke-width="1.5"/><path d="m33.4688 112.336c7.9569 7.242 19.7999 6.974 26.1092 8.562 6.3093 1.589 8.6794 3.754 8.8428 15.657" stroke="#4e4e4d" stroke-width="1.5"/><path d="m63.1876 173.34c.5 4.01.16 11.01-1.17 13.68s-3.01 3.95 1.39 5.67c6.9 2.69 25.09-1.11 32.06-16.67" stroke="#4e4e4d" stroke-width="1.5"/><path d="m17.6667 143.35c-1.32 5.5-3.83 12.5 3.75 32.67" stroke="#4e4e4d" stroke-width="1.5"/><path d="m16.5848 158.5c-1.24 3.84-3.24 16.18 2.76 31.51s6.17 17.67 5.83 21.17c-.33 3.5.67 16.33 1.17 21.17.5 4.83 3.33 21.83 5 27.83 0 0 5.23 23.53 18.11 20.65 25.76-5.76 45.22-27.65 47.72-30.81" stroke="#4e4e4d" stroke-width="1.5"/><path d="m22.7618 122.88c-2.58 2.3-4.91 8.8-5.08 15.8s1.83 17.33 7.5 23.17" stroke="#4e4e4d" stroke-width="1.5"/><path d="m62.4987 235.99c-2-4.67-8.15-15.64-10.82-21.14s-7.76-14.85-9.42-18.69c0 0 .0901-4.81 2.0901-9.15 2-4.33 6.67-14 8.67-16.67l7.4599-9.4c7.29-6.84.17-9.25-4.2599-9-4.43.24-10.4801 4.64-15.25 3.31" stroke="#4e4e4d" stroke-width="1.5"/><path d="m81.1797 223.85c-3.33 1.83-22.83 15.33-28.5 18" stroke="#4e4e4d" stroke-width="1.5"/><path d="m25.1652 215.67c-2.32 3.18-9.92 13.1-12.44 23.66-1.6 6.7-.21 20.36 1.12 26.86s6.5 19.67 7.67 22" stroke="#4e4e4d" stroke-width="1.5"/><path d="m27.3746 321.58c2.52 1.53 5.8-3.21 3.19-8.1-2.45-4.58-4.89-7.8-6.89-10.13s-.51-2.15-.68-5.15.68-12.51.68-12.51c-2.34 3.18-3.87 5.82-5.16 7.71-2.05 3-6.3 8.97-6.1 13.31.06 1.39.64 3.21.64 3.21s-6.98995 6.93.51 14.6" stroke="#4e4e4d" stroke-width="1.5"/><path d="m141.836 120.38s12.67 9.49 18.26 19.65c2.99 5.43 2.51 9.25 2.51 9.25" stroke="#cacacc" stroke-width="1.5"/><path d="m57.9666 85.4097s-7.15 3.25-5.64 8.91c1.24 4.62 10.89 10.7003 14.05 12.1603" stroke="#4e4e4d" stroke-width="1.5"/><path d="m11.3881 321.83s-1.77997 5.37-1.32 6.8c.66 2.04 4.47 6.72 7.06 8.44 4.15 2.77 9.9 1.67 6.83-5.29" stroke="#4e4e4d" stroke-width="1.5"/><path d="m16.7656 326.59 7.95 5.74c1.08.78 6.46 1.76 5.79-4.14-.57-4.98-5-9.33-10.5-12.33" stroke="#4e4e4d" stroke-width="1.5"/><path d="m39.4378 154.11c-.45-.67-12.93-17.11-16.54-29.28s-5.23-21.86-1.47-27.9502c3.75-6.08 22.96-24.34 29.61-36.5 6.65-12.17 20.15-40.12 24.53-44.11 4.37-3.99 37.3102-23.37 73.7802-11.22001 11.98 3.99 35.94 17.78001 46.38 32.89001 17.79 25.76 16.38 65.9702-7.95 89.2102-39.58 37.79-55.65 40.35-79.21 46.18-24.6302 6.1-56.4302-1.54-56.4302-1.54" stroke="#4e4e4d" stroke-width="1.5"/><path d="m95.4562 176.02c2.01 1.97 15.0098 10.31 18.7398 14.06s16.72 15.27 4.23 51.77c-1.2 3.52-2.75 16.25-4.25 23.75s-4.15 32.42-3.02 54.57c1.17 22.83 6.83 25.17 4.5 26.33-23.0597 11.53-36.3298 14.83-48.7298 10.85-8.16-2.62-39.2999-22.67-41.77-24.74" stroke="#4e4e4d" stroke-width="1.5"/><path d="m45.7422 184.06c4.86-3.38 8.83-5.81 17.67-6.71" stroke="#4e4e4d" stroke-width="1.5"/><path d="m89.6796 205.35c-1.38 2.88-12.5 13.26-14 14.19s-.75 4.23.44 7.52" stroke="#4e4e4d" stroke-width="1.5"/><path d="m25.9397 227.85c-.92 7.83-2.2 53.83-2.26 57.83" stroke="#4e4e4d" stroke-width="1.5"/><path d="m23.009 338c-.16 3.35 1.86 23.52 2.27 30.52.4 7 .9 17.5 1.07 24s1 14.67.83 17.5-.5 9.329-1 13.329-.33 12.501.17 15.831.83 5.17 2 6.5 2.17 2.33 2.17 4.83-.5 8.5-1 11.17-.83 11.5-.67 14.83c.17 3.33 0 6 1.67 8.67s1 3.829.83 5.169-.12 10.331.27 14.671c0 0 .03 5.819.53 7.149.51 1.33 6.21 5.671 11.03 7.331 4.82 1.67 13.67 2.789 13.67 2.789" stroke="#4e4e4d" stroke-width="1.5"/><path d="m40.8516 370.849c2.83.83 10.1699 7 10.3299 10s-.33 8.5 0 13.83.67 17.67 1 22.67 3.67 33.17 4 37.17 1.9101 11.77 3.3301 13.5c2.32 2.82.4999 10.17-.3301 12.67s-1.9999 7.17-2.3299 10.33c-.33 3.17.8299 6 .8299 8.5s-.4999 4.33-.8299 7.5-.67 14 1 18 5.67 7 8.17 8.17 20.9599 10.53 37.4404.61c3.88-2.33 3.89-14.11 3.89-14.11 0-2-1.83-23-.83-25.67s.67-7-.5-12.33-2-15.67-2-18.83-.83-11.83-.17-19.83c.67-8 1.17-25.17 1.33-30.33s-.77-21.42.98-27.35c3-10.17 2.89-30.58.22-34.41" stroke="#4e4e4d" stroke-width="1.5"/><path d="m74.75 454.519c4.6 1 9.6 1.67 16.43-2.83" stroke="#4e4e4d" stroke-width="1.5"/><path d="m31.6406 443.649c.89 1.86 5.77 6.86 11.54 4.37" stroke="#4e4e4d" stroke-width="1.5"/><path d="m36.6287 516.24c-5.94 2.94-16.78 10.27-20.44 12.6-3.67 2.33-11.11005 8.46-13.33005 11.33-1.59 2.04-2.669993 10-.66999 12.67 2 2.67 4.30999 2.84 9.15004 3.48 6.05.8 34.33 1.26 41.18.8" stroke="#4e4e4d" stroke-width="1.5"/><path d="m62.8258 531.459c-.51 3.38-2.31 9.72-4.64 14.39s-2.33 5.17-4 7.83c-1.67 2.67-3.01 5.47-1.67 8.33 6.3 13.43 49.9802 10.34 56.4202 6.33 5.62-3.5 8.98-5.08 7.31-8.25s-6.73-10.58-9.06-14.25-5.4-7.96-7.2002-11.06" stroke="#4e4e4d" stroke-width="1.5"/><path d="m26.3125 522.29c4.37 1.06 8.18 0 13.61 5.89" stroke="#4e4e4d" stroke-width="1.5"/><path d="m15.0156 529.609c3.83 1.07 27.83 7.57 27.16 18.74" stroke="#4e4e4d" stroke-width="1.5"/><path d="m1.5 543.97c3.37 1.83 4.67 4.38 16.17 4.57 8.51.15 31.8.12 39.66-.95" stroke="#4e4e4d" stroke-width="1.5"/><path d="m71.625 543.969c7.35-2.38 11.43-3.4 22.71-1.29" stroke="#4e4e4d" stroke-width="1.5"/><path d="m52.1172 558.849c4.73-3.84 11.04-10.28 30.23-10.5 15-.17 27.3598 3.2 30.8298 6.7" stroke="#4e4e4d" stroke-width="1.5"/><path d="m52.52 557.129c-1.33 3.5-5.14 13.48 2.46 16.72 29.3 12.48 56.34 2.83 60.17 0s3.87-8.26 1.45-11.83" stroke="#4e4e4d" stroke-width="1.5"/><path d="m93.5391 253.64s3.1 3.6 5.77 2.14c2.6699-1.46 9.4799-7.54 11.1899-8.51" stroke="#4e4e4d" stroke-width="1.5"/><path d="m75.6797 219.54s9.46 6.37 14 14.36c6.49 11.43 9.63 21.89 9.63 21.89" stroke="#4e4e4d" stroke-width="1.5"/><path d="m62.7606 180.709s-2.71 1.88-6.55 6.5-2.52 7.03-1.65 8.54c1.65 2.85 12.7 6.31 21.11 4.12 8.42-2.19 12.82-5.12 17.86-10.47s6.7404-9.96 6.7404-9.96" stroke="#4e4e4d" stroke-width="1.5"/></g></svg>