<svg fill="none" height="443" viewBox="0 0 214 443" width="214" xmlns="http://www.w3.org/2000/svg"><path d="m104.146 25.0605s.487 7.6115-2.639 12.7081c-3.1272 5.0966-10.4564 16.1325-12.5075 18.8815-2.0512 2.7489-3.4074 30.9742-3.8751 36.5724s1.2694 14.6615 1.2694 14.6615 8.1376 18.52 15.7872 24.051c4.443 3.211 6.581 5.023 6.581 5.023s1.363 3.211-.507 6.134c-1.871 2.922-4.109 4.648-4.109 4.648s-38.2767 32.051-40.8222 33.523c-2.5388 1.478-16.5158-1.465-20.5779-4.321-4.0621-2.849-8.6254-6.435-8.6254-6.435l-10.8635-9.644s-5.8994-7.766-7.8437-11.137c-1.9442-3.364-7.68327-14.072-8.75225-18.052-1.06898-3.979-2.25155-11.584-3.54101-10.888-1.28946.695-1.57675 1.264-1.67028 4.521-.09354 3.257 1.31618 19.223 1.67028 22.928s.26057 9.778.26057 9.778l-.26057 2.147s-1.3095 1.352-1.47653 3.318c-.16703 1.96-.50777 6.581 2.11792 5.578s3.66795-3.665 5.9529-3.438c2.28497.221 2.79277 1.465 2.79277 1.465l17.4244 19.196 7.1488 9.491s10.0952 9.925 15.4601 10.915c5.3717.997 7.9573 1.378 10.9237-1.197 2.9664-2.582 18.4667-17.865 18.4667-17.865s-1.4765 7.759-.628 9.886c.8418 2.127 5.8927 6.695 6.9617 10.173 1.0757 3.478 3.5343 16.239 4.3027 18.895.7616 2.655 1.2828 3.645 1.2828 3.645s-1.6102-.194-.8285 3.779c.7817 3.98 2.0578 9.671 2.0578 9.671l.7683 1.071s-.9353 5.437.5746 7.845.5746 3.665.5746 3.665-1.9977 3.933-4.4363 11.264c-2.4319 7.33-7.3626 24.366-8.6254 32.218-1.2627 7.846-2.4787 23.195-2.0043 29.242.4744 6.046 1.1425 11.257 4.3427 13.631 3.2003 2.374 12.1731 8.327 14.9255 10.829 2.753 2.501 26.397 18.573 26.397 18.573l12.167 8.722v3.578s4.115 3.525 8.184 5.652c4.069 2.12 3.862 4.495 6.922 2.154 3.053-2.341 10.022-10.006 10.022-10.006s8.291 4.294 11.07 10.006c2.78 5.712 6.053 16.413 7.089 19.028 1.035 2.616 1.837 3.606 3 1.766 1.162-1.839 2.372-4.581 2.572-8.648s-.528-21.356-1.276-23.864c-.748-2.502-1.41-3.271-1.41-3.271s-4.57-.923-7.85-3.077c-3.274-2.153-5.465-3.672-5.465-3.672s-22.716-20.038-25.369-21.817c-2.652-1.779-20.357-16.38-22.128-17.618-1.763-1.237-4.984-3.478-4.984-3.478s-5.458-5.551-4.984-9.477 5.906-21.35 7.289-26.66c1.39-5.311 4.416-18.099 4.416-18.099s4.778-.295 11.639-4.441c6.862-4.154 14.351-11.839 15.547-15.919 1.196-4.087-1.376-11.283-2.566-13.069-1.189-1.786-4.229-6.796-4.229-6.796l7.917 6.468s10.984 6.267 15.968 8.829c4.985 2.561 10.991 5.591 10.991 5.591v-2.896l-.495-7.096 2.138-.937-12.634-12.46s-16.622-14.701-20.945-27.416-14.578-40.947-18.213-46.03c-3.634-5.083-8.652-4.669-9.607-9.317-.956-4.648-.956-9.865-.956-9.865s3.394.575 10.637-5.411c7.242-5.987 13.482-12.782 15.961-16.454 2.472-3.672 8.011-12.701 8.011-12.701s2.318 1.163 3.734.02c1.417-1.144 3.241-1.124 3.829-4.9898.588-3.866.387-6.2671-1.25-6.2337-1.637.0335-2.325 0-2.325 0s.348-26.0983-13.502-45.9362c-13.85-19.838-42.385-21.1088-42.385-21.1088z" fill="#fbfcfc"/><path d="m138.592 407.205s1.075 3.793 1.189 5.746-1.163 5.906-1.917 7.859c-.755 1.953-.876 2.695-.876 2.695s.241 3.926 2.793 4.562c2.552.635 4.897 1.986 8.311 1.016 3.414-.969 5.499-.876 6.428-2.407.922-1.532 0-4.355 0-4.355s-3.187-7.939-3.207-7.992c-.02-.054-.969-3.338-.922-5.231.04-1.893.233-2.983.233-2.983l-12.026 1.09z" fill="#f5f4f5"/><path d="m182.768 255.002s-1.242.314-2.679 2.421c-1.436 2.107-3.16 5.605-1.349 7.19 1.81 1.585 7.182 5.063 8.124 4.562.949-.502 1.122-1.92 1.122-1.92l-3.14-5.17-1.784-1.806z" fill="#f5f4f5"/><path d="m210.163 255.404s-3.301 5.204-4.015 6.716c-.715 1.511-.495 3.591-.495 3.591s1.116 1.378 2.646.101c1.53-1.271-2.305 3.103-2.679 4.32-.374 1.218.675 3.98.675 3.98s.293.776 1.656-.074l1.357-.856s-2.225 2.395-2.165 3.465c.053 1.077.655 1.752 1.884 1.344s1.951-.903 2.332-2.18c.387-1.278 0-2.221 0-3.338s-.274-1.531-.274-1.531 1.797-2.442 1.323-4.636c-.475-2.193-.835-2.949-.835-2.949s1.576-3.853 1.035-5.565-2.438-2.388-2.438-2.388z" fill="#f5f4f5"/><path d="m181.316 243.994 2.038 16.287s2.385 3.277 3.508 5.13c1.122 1.852 1.737 2.983.868 3.377-.868.395-2.739 0-2.739 0l2.011 9.732 1.022 4.936s3.728 3.404 7.423 3.572c3.695.167 8.124-.442 9.187-1.238 1.062-.796 2.371-2.742 2.371-2.742l.127-4.528s-.494-.555 0-1.859c.495-1.305.809-2.616.809-2.616s-2.252.234-2.405-.749c-.161-.983.187-2.688 1.048-4.32.862-1.632 1.711-3.157 1.711-3.157s-2.619 1.351-2.833-.288c-.22-1.639.241-2.695 1.022-4.06.782-1.364 2.887-5.204 2.887-5.204l.207-12.293-4.938-1.652-1.997-4.12s-3.174-1.986-6.167-1.879c-3 .107-5.472-.041-6.695 1.277-1.222 1.318-2.839 4.013-2.839 4.013l-5.612 2.374z" fill="#d4d4d6"/><path d="m185.946 377.134s1.724-.361 2.312 10.715 1.403 17.136 0 20.554c-1.403 3.417-1.096 3.939-2.312 4.675s-1.864.689-1.864.689.414 5.07.842 7.043c.434 1.973 1.076 5.491 2.859 6.474 1.778.983 5.025 1.298 5.025 1.298s3.293.14 4.149-.649c.855-.789 1.483-2.067 2.017-5.17.535-3.104 2.659-23.845 2.472-28.292-.187-4.448-.895-13.197-1.817-14.581-.915-1.385-1.951-1.806-1.951-1.806l-6.975-.629-4.764-.314" fill="#d4d4d6"/><path d="m137.421 421.933s-1.196 2.576 0 4.06c1.196 1.485 4.236 3.318 7.997 3.09 3.769-.227 4.063.02 5.887-.722 1.83-.749 4.022-1.518 4.042-2.843.02-1.324-.749-4.166-.749-4.166s4.283 4.461 4.891 7.25c.615 2.789.755 7.384.655 8.187-.101.809-.575 3.21-4.704 3.752-4.129.541-15.507 1.625-16.876 1.016-1.37-.602-4.25-1.531-4.971-3.899-.722-2.368-1.704-5.244-1.363-6.989.341-1.746-.127-1.572 1.236-3.519 1.363-1.946 3.948-5.223 3.948-5.223z" fill="#d4d4d6"/><path d="m95.8509 244.75s.0468 6.448.3475 7.425c.3006.969.8017 4.086.8017 4.086s-6.1266 16.447-7.4027 20.888c-1.2694 4.435-5.8594 19.945-6.915 30.352-1.0556 10.414-2.5121 22.306-.1804 27.971 2.3317 5.666 3.0733 6.676 7.356 9.759 4.2826 3.077 11.572 8.233 13.162 9.524s20.932 14.708 20.932 14.708l16.389 12.1s-1.049 2.2-.555 3.076c.495.876.762 1.378 2.285 2.147s6.634 4.053 7.977 4.522c1.343.475 3.381 1.725 4.41 1.117 1.029-.609 5.966-4.823 7.89-7.15 1.925-2.328 7.303-9.237 8.465-11.404 1.163-2.167 3.762-7.27 4.43-9.357.675-2.087 1.443-3.498-.949-5.211-2.392-1.719-10.964-7.725-10.964-7.725s-.901-.903-1.897-.093c-.995.816-2.692 1.953-2.692 1.953s-9.975-5.752-12.594-7.471c-2.626-1.719-25.99-18.501-25.99-18.501s.969-4.207 0-4.494c-.969-.288-4.042-.636-4.677-1.539-.635-.902-.027-10.019 1.564-14.126 1.59-4.106 6.44-19.771 6.981-22.031.541-2.261 2.606-11.05 2.606-11.05l.24-.99.575 32.533.154 20.46v8.963l30.927 20.279.902-1.003.908-41.549s.481-25.45.308-29.061c-.174-3.612-1.55-21.457-2.245-24.447-.695-2.989-3.882-12.781-5.285-15.731-1.41-2.949-5.392-10.293-5.392-10.293s-.681 2.301-5.565 5.738c-4.884 3.438-12.12 7.518-19.175 8.876s-8.866 1.538-14.558.542c-5.699-.997-12.5807-3.793-12.5807-3.793z" fill="#eae9ea"/><path d="m129.516 370.38.488 16.366s-2.445.549-3.474 1.465c-1.029.923-1.35 1.351-1.33 1.746.02.394.875 4.708 1.143 6.173.267 1.465.334 4.749.588 6.053.26 1.305.273 2.375 2.578 3.064 2.312.689 8.425 2.535 13.102 2.468 4.677-.074 11.158-.91 13.977-2.194 2.82-1.284 4.677-1.278 4.958-2.662.28-1.385.28-9.993.28-9.993s.147-2.989-.641-3.471c-.789-.482-1.724-.776-3.321.033-1.597.803-.802 2.823-3.414 2.99s-24.941-22.045-24.941-22.045z" fill="#eae9ea"/><path d="m34.1175 170.508s2.8996-3.411 3.9485-3.358c1.049.054 4.6167 2.268 6.2669 3.358 1.6503 1.097.8552-.636 1.6503 1.097.8017 1.732.7349 4.561.7349 4.561l3.3005 1.759 4.0488 1.759s1.2093-2.889 2.6724-2.682c1.4565.208 3.6145 1.726 3.6145 1.726s18.2596-15.852 20.4109-17.858c2.1513-2.007 12.9748-12.447 12.9748-12.447s-1.9442-3.88.7483-5.525 7.8437-3.465 9.6477-3.304c1.804.16 3.494 1.043 3.494 1.043l.615 2.462s-.361.709-1.804 2.394c-1.443 1.686-2.312 2.254-2.312 2.254s-.02 2.388 1.463 4.307c1.484 1.927 3.154 3.198 5.011 5.726 1.858 2.528 2.927 5.27 2.927 5.27s1.189-3.237 3.52-3.752c2.326-.515 4.711 0 4.711 0l3.38-8.454s-2.138-1.11-2.759-3.09-.955-4.649-.955-4.649 5.198.495 6.941 1.913c1.737 1.418 3.454 2.722 4.163 4.495.708 1.772 1.062 6.019 1.062 6.019s3.447 2.696 5.732 6.943c2.279 4.247 7.637 16.701 9.374 23.49 1.73 6.795 2.552 13.47 5.372 17.865 2.812 4.394 8.091 10.969 8.091 10.969s3.668-1.472 4.262-.575c.595.896 1.363 2.327 3.214 4.033 1.844 1.705 2.986 1.605 3.28 3.658.294 2.054.862 5.01-1.089 7.525s-2.425 4.107-7.042 6.381c-4.616 2.267-13.289 3.999-13.289 3.999l-3.621-5.799s-1.737-7.517-2.245-10.567c-.507-3.05.568-3.625-.855-4.1-1.43-.475-1.59.227-1.59.227s.027 4.314-8.184 7.859-15.153 6.147-20.545 6.361c-5.391.214-11.358-.214-14.6048-1.211-3.247-.997-5.993-2.341-5.993-2.341l-5.5854-22.54s-7.102-8.153-7.3893-11.464c-.2873-3.304.5679-8.247.5679-8.247s.9353-.742-5.2715 5.304c-6.2067 6.046-11.5182 12.18-14.3176 13.23-2.7994 1.057-7.8637 1.378-11.839-.896s-12.9347-9.846-12.9347-9.846l-3.4408 1.646s-1.9977-.375-4.6167-2.208c-1.8841-1.317-4.3026-3.05-4.3026-3.05l.0668-2.461 2.619-6.193 2.3785 3.063s2.0377-3.839 3.9418-6.876c1.9042-3.043 2.5589-7.498 2.5589-7.498l-2.1647-1.672z" fill="#d4d4d6"/><path d="m11.4975 166.536s4.4497-4.494 4.8505-5.665c.4009-1.177.4076-1.13.8085-.655.4008.475 2.6323 3.612 2.9731 3.785.3407.174.4543 1.224.4543 1.224s-3.8884 5.05-4.7637 5.505c-.8752.455-1.1825.602-1.4765-.214s.1269-1.525-1.0222-1.986c-1.1559-.462-1.9309-1.131-1.9309-1.372 0-.24.1069-.615.1069-.615z" fill="#d4d4d6"/><path d="m18.0784 155.681s-.922 3.21-1.1291 3.605c-.2071.394.2005.923.2005.923s1.276 1.331 2.0243 2.24c.7483.91 1.3162 2.254 1.3162 2.254s1.216-1.083 1.8908-2.254c.6748-1.17 1.1224-2.762 1.1224-2.762l-2.2515-3.264s0-1.458-1.0556-1.304c-1.0624.147-2.118.562-2.118.562z" fill="#eae9ea"/><path d="m71.4187 86.3473s6.4339 13.5575 9.4672 16.9757c3.0265 3.417 5.5119 5.036 5.5119 5.036s-2.4119-33.0945.5211-43.301c2.933-10.2066 2.5789-9.9591 6.9952-15.8249 4.4162-5.8658 9.7479-13.2632 10.1889-19.4567 0 0 .895 6.9761 4.663 9.5511 3.768 2.5751 9.928 4.8826 14.271 9.4508 4.343 4.5615 5.813 8.1866 7.931 11.3369s2.138 4.2806 2.138 4.2806 1.663-5.6852 1.122-9.2501-1.724-8.1399-1.724-8.1399 8.171 6.227 10.69 10.5812 7.029 16.0924 7.029 26.2722-1.296 30.2188-1.296 30.2188l-.876 1.939s7.423-9.25 10.817-19.122c1.657-4.8224 1.176-4.7756 1.864-4.7421 2.118.1003 3.468 2.3276 3.468 2.3276.908-.7893 16.683-14.9287 18.353-16.4871s3.006-3.0098 4.897-4.7956c1.557-1.4514-.668-5.3508-1.891-7.9124-1.222-2.5617-17.411-48.9193-38.283-59.33993-16.736-8.34718-29.864-3.86592-36.325-1.97309-8.766-1.68549-17.2039 4.78224-25.8226 14.78812-2.7861 3.2306-32.6374 39.3883-34.6417 41.7293-2.0044 2.3409 3.12 10.2533 4.4563 12.0392 1.3362 1.7858 3.8951 5.3507 6.3471 7.9993 2.4519 2.6487 7.5697 6.6082 9.1665 7.5112" fill="#d4d4d6"/><path d="m148.686 57.5744c4.676 7.3171 7.823 22.8611 7.569 32.5527-.207 8.1331 0 12.7619-4.529 20.6069-4.53 7.846-15.514 19.076-15.514 19.076s7.289-9.759 8.906-15.163c3.922-13.096 3.808-26.5198 2.913-37.2213-.889-10.7015-10.757-23.1955-10.757-23.1955s.889 4.8156 0 8.8287c-.888 4.0131-4.85 6.9226-4.85 6.9226s-3.341-6.4544-6.808-12.0994c-6.615-10.7684-13.182-12.2131-15.006-13.5375-8.926-6.4811-6.915-11.7449-6.915-11.7449s.848 8.2669-2.472 14.1996c-3.3207 5.9327-5.6791 7.8857-8.9996 16.4268-3.3206 8.5412-1.7304 32.3922 3.0065 49.2399 4.7436 16.849 20.6111 26.627 20.6111 26.627s-4.443 2.569-5.231 11.738c-.394 4.549 2.773 11.551 2.773 11.551s-2.032-4.113-4.878-7.196c-2.846-3.084-4.503-7.833-4.81-10.441-.307-2.609 2.753-4.608 2.753-4.608s2.725 2.708 2.565 1.217c-.307-2.829-.782-4.822-.782-4.822s-4.823-4.054-8.6183-8.087c-3.7949-4.033-13.6295-19.055-13.6295-19.055s-3.7949-3.799-4.9775-5.692c-1.1825-1.9-2.8929-10.9625-3.5142-17.3432-1.3162-13.611-1.0156-19.6239 1.0756-26.3191 5.4786-17.5103 12.2532-18.955 20.2171-28.4794 4.9108-5.8724 6.8078-14.0524 6.8078-14.0524s.548 11.1296 3.161 14.213c2.605 3.0833 8.11 5.2972 14.27 10.046s11.552 15.4236 11.552 15.4236l-.474-3.7991c-.475-3.799-1.457-6.267-1.457-6.267s11.358 3.1368 16.035 10.454z" fill="#d4d4d6" opacity=".37"/><path d="m159.945 34.1582s6.875 10.4407 9.247 17.798 5.686 17.7979 8.298 21.3562c2.606 3.5582 4.269 4.7488 4.269 4.7488l-17.304 16.1392s-1.182-1.6587-2.131-2.1336l-.949-.4749s5.091-21.8378 5.452-29.6633c.655-14.2932-6.875-27.7637-6.875-27.7637z" fill="#d4d4d6" opacity=".37"/><path d="m54.4961 71.9085s3.06.1271 6.2469-3.9529c3.1869-4.0799 10.0684-15.6509 10.0684-15.6509s-2.933 12.8418-1.9108 20.6272c1.0223 7.7853 2.6792 13.2698 2.6792 13.2698l-1.1492 1.5317s-3.6946-1.2775-9.6876-7.4041c-5.071-5.1836-6.2469-8.4208-6.2469-8.4208z" fill="#d4d4d6" opacity=".37"/><path d="m84.9624 166.589s1.1491 0 1.276 3.317c.127 3.318 0 15.825.6348 19.778.6347 3.953 2.1646 7.658 4.9707 10.976 2.8061 3.317 6.5008 6.762 6.5008 6.762s-.6347 7.658.7616 13.015c1.4027 5.358 5.0977 12.12 5.0977 12.12s.254 1.023 5.225 1.277c4.97.254 10.836-.635 10.836-.635s-1.529 2.167-1.783 5.612c-.254 3.444 1.149 8.293 1.149 8.293s8.665-.127 11.979-1.531c3.314-1.405 7.396-3.572 7.396-3.572s-6.374 6.635-13.636 8.294c-7.263 1.658-13.763 2.04-15.293 3.444-1.53 1.405-3.822 1.405-7.904 10.08-4.0822 8.675-7.3961 22.078-9.9416 36.238-2.5522 14.166-3.8216 22.587-3.1869 26.285.6347 3.699.7617 5.358 5.8661 9.571 5.0974 4.214 18.0994 16.207 25.4954 20.801 7.396 4.595 23.07 12.12 26.898 12.254 3.822.127 7.65-.636 7.65-.636s-.127 3.826 3.06 6.127c3.187 2.294 13.128-2.04 13.128-2.04l1.277-1.913s.126 4.849 1.276 7.912c1.149 3.064 7.135 8.548 8.538 11.23s3.949 13.016 4.336 16.079c.381 3.064.762 5.612.762 5.612s1.149 7.143 2.165 9.19c1.022 2.04 3.313 3.953 4.716 4.468 1.403.508 3.949 0 3.949 0v2.555s-1.784 1.531-4.082 1.277c-2.292-.254-6.882-.254-7.65-2.04-.762-1.786-2.933-11.992-3.06-13.397-.127-1.404-3.314-12.253-5.098-16.841-1.784-4.595-3.821-7.658-6.247-9.825-2.418-2.168-6.881-4.595-6.881-4.595l-6.755 7.143s-3.06 3.699-4.59 3.317c-1.53-.381-3.314-1.023-3.314-1.023s-4.336 2.682-5.351 4.849c-1.023 2.167-1.657 4.087-1.276 6.381.38 2.294 1.403 4.976 1.403 4.976s1.276 6.381.634 9.825c-.634 3.445-2.037 7.659-2.552 8.936-.508 1.278-1.276 2.328-1.276 2.328s-1.022 2.648-.762 3.926c.254 1.277 2.165 5.23 2.68 5.999.507.763 1.783 2.422 1.783 2.422l-11.09-1.786-1.403-3.953s-2.038-3.953-1.276-6c.761-2.046 3.44-5.357 4.209-6.762.761-1.404 3.06-5.745 3.06-5.745s.507-2.936.38-5.357c-.126-2.422-.253-3.826-.253-3.826s-11.472-2.555-11.853-3.572c-.381-1.023-.634-5.357-1.022-7.531-.381-2.167-2.038-7.531-1.022-7.785 1.022-.255 4.209-2.422 4.209-2.422l-1.149-13.778-21.54-15.698s-5.098-4.213-9.9417-6.889c-4.8439-2.675-12.7477-8.936-13.7632-11.484-1.0222-2.555-2.2916-14.674-1.9108-21.818.3808-7.143 3.9485-26.412 6.8816-36.625 2.933-10.207 8.7924-24.119 8.7924-24.119l-1.2761-11.103-1.0223-1.277-2.933-13.397 1.657-.763s-3.7281-15.637-4.3628-18.694c-.6347-3.063-.2272-2.996-.2272-2.996s-6.6277-6-7.6432-9.953c-.7951-3.103.6681-10.3.6681-10.3s-9.9015 9.277-13.6028 13.357c-3.6947 4.086-8.2846 6.728-11.1041 6.494-8.8658-.742-16.7563-8.782-16.7563-8.782l-3.8216-3.444-2.6791 2.294-4.149-1.431-5.0242-4.696 1.9108-7.658-11.2177-12.501-.8351-.167-1.0155-2.194-2.2583-1.678.5345-1.579s-1.53-1.15-3.94854 1.023c-2.41857 2.174-2.80608 3.318-4.20912 2.422-1.40304-.897-3.186898-1.759-2.67913-3.753.50777-1.993 2.41857-6.842 2.41857-6.842l-1.2761-16.714s-.63471-19.27.25388-19.778c.89528-.508 1.91081-.762 1.91081-.762s-.63471 8.802-.76165 14.547 1.40304 20.42 2.16469 22.841 2.03775 3.826 3.82162 3.826h4.84387l2.6791-2.167 3.3138 3.953-1.0222 2.809s1.2761 2.294 3.6947 5.23 7.523 7.531 8.7924 7.785c1.2761.255 1.7838-.762 1.7838-.762s.5078 4.214 1.9108 4.976c1.4031.763 8.2847-.762 9.053-1.786.7617-1.023.1269 2.422 1.1492 4.341 1.0222 1.92 5.866 3.953 8.4115 2.809 2.5522-1.15 3.6947-3.317 4.9708-3.317s3.5677 3.698 5.0977 3.19 8.7924-7.912 11.5985-10.594c2.806-2.682 7.0085-8.421 7.0085-8.421l2.0377-3.826z" fill="#d4d4d6" opacity=".37"/><path d="m142.896 195.578s-4.489 4.628-5.157 8.862c-.669 4.234-.635 8.969.26 11.645.889 2.675 1.931 6.909 1.931 6.909l3.414-2.228 3.12 7.358s.889 4.234 2.004 6.24c1.116 2.007 2.893 5.13 2.893 5.13h3.842s15.093 8.474 17.538 9.812c2.452 1.338 9.02 4.903 9.02 4.903h1.222l-1.222-6.241s-7.67-3.344-10.904-7.136c-3.24-3.793-3.681-5.572-3.681-5.572s-2.005-3.792-4.898-6.24c-2.893-2.455-3.788-3.565-3.788-3.565s.555.448-3.287-4.903c-3.842-5.35-7.623-10.48-8.518-15.604-.889-5.13-3.561-17.39-4.457-19.396-.888-2.007.668 10.032.668 10.032z" fill="#d4d4d6" opacity=".37"/><path d="m195.457 241.286v3.565l2.004 2.896-3.34.889s-2.452 1.117-2.673 3.344c-.22 2.228 2.225 2.228 2.225 2.228s6.013.669 8.465 0 4.677-2.007 4.677-2.007-8.238 5.13-11.137 6.689c-2.893 1.558-4.931 6.909-4.243 10.48.681 3.565 1.129 10.923 2.238 13.825 1.109 2.903 3.12 3.565 3.12 3.565s-6.013-.889-7.349-2.896c-1.336-2.006-3.788-7.357-3.788-7.357l-1.116-7.357 2.672-.221s-.668-.89-2.672-3.792c-2.004-2.896-3.568-4.462-2.786-5.13.782-.669 1.223-1.559 1.223-1.559l-1.43-13.825s3.214-2.006 3.882-2.006 1.783-1.338 1.783-1.338l1.337-2.896s.22 1.117 2.893 2.006c2.672.89 4.008.89 4.008.89z" fill="#d4d4d6" opacity=".37"/><path d="m209.706 254.215s0 2.227-2.893 5.351c-2.893 3.123-3.789 5.13-3.12 6.467l.668 1.338s-1.537 4.461-.882 5.799 3.033 2.227 3.033 2.227-.815 2.676.301 3.344c1.115.669 1.784 0 1.784 0l1.115-1.785s-1.336-4.013 0-5.13c1.337-1.117-4.676 1.116-2.893-1.559 1.784-2.675 3.094-4.682 3.094-4.682s-4.871.448-3.094-2.006c1.784-2.455 2.399-3.793 3.094-5.13.695-1.338-.194-4.234-.194-4.234z" fill="#d4d4d6" opacity=".37"/><path d="m127.747 273.164 6.682-2.676s-.221 1.097-1.116 10.695c-.889 9.598-.668 25.871-.448 32.78.221 6.909 1.557 22.962 1.557 22.962l-7.797-5.13v-45.034l1.116-13.597z" fill="#d4d4d6" opacity=".37"/><g stroke="#60605f" stroke-dasharray="138 3 1 3" stroke-linecap="round" stroke-linejoin="round"><path d="m84.4609 164.709c1.9108 1.973-3.0333 23.282-3.541 29.108-.6481 7.351 7.416 12.594 7.9305 14.976.8217 3.785 3.1401 15.577 3.728 17.784.461 1.739.5613 3.331 2.2583 4.234 2.1647 1.157 7.4293 2.435 9.7683 2.789 13.996 2.1 27.559-4.682 30.399-6.187 2.839-1.505 8.184-5.685 8.184-7.859 0-2.173-.975-6.615-1.623-9.711-.488-2.341-1.049-4.167-.381-6.508s1.663-7.424 1.864-10.434c.675-10.14-9.447-21.029-8.879-28.192" stroke-width="1.2"/><path d="m121.433 143.092c.855.034.695.067 2.245.382.835.167 3.427.561 4.696 1.531 1.53 1.171 2.105 1.646 3.368 3.217 1.082 1.358 1.977 4.007 1.837 5.284-.08.749-.254 3.01-.588 4.18-.334 1.171-1.169 3.599-1.59 4.428-.421.83-1.169 2.087-1.837 2.595-.668.509-2.593.836-3.421 0-.829-.836-2.004-3.264-2.926-4.347-.922-1.084-2.84-1.752-3.842-1.592-1.002.161-3.367.515-4.597 2.174-1.042 1.411-.922 1.337-1.256 2.087-.668-2.596-1.75-3.933-2.926-5.271s-2.806-2.876-4.39-4.809c-1.189-1.438-2.873-5.458-2.458-7.959.32-1.92 1.082-3.284 1.75-3.953s1.938-.515 2.612.294" stroke-width="1.2"/><path d="m108.133 141.346s-.855-2.575-5.953-1.485c-5.0978 1.09-6.9352 2.113-7.6834 3.036-.7483.923-.922 3.599-.588 5.351.3341 1.753 1.5033 5.097 2.0044 6.274s1.5299 3.331 2.2782 4.495c1.0623 1.652 2.6128 4.942 3.6548 3.785 1.857-2.066 2.258-3.09 3.006-3.759.749-.669 2.673-2.675 5.759-1.257" stroke-width="1.2"/><path d="m121.434 143.092c2.077 1.05 2.959 2.14 3.708 3.565.748 1.424.501 3.344 0 5.27-.501 1.927-2.252 5.96-3.381 7.371" stroke-width="1.2"/><path d="m93.9082 148.242c-1.0824 1.171-6.7614 6.856-8.5185 8.361s-12.2799 11.537-14.2843 13.122c-2.0043 1.586-9.4137 7.993-10.7499 8.996" stroke-width="1.2"/><path d="m60.8968 180.306c-1.0824-1.171-2.0779-3.766-4.149-3.304-1.1893.267-2.5923 1.591-3.1736 4.267" stroke-width="1.2"/><path d="m54.0758 179.677-7.3492-3.511" stroke-width="1.2"/><path d="m81.9364 187.631c-2.8127 1.913-6.7345 6.18-9.407 9.023-2.6725 2.842-6.2669 6.521-7.5163 7.611s-4.1156 3.425-7.0954 3.425c-3.4742 0-7.269-1.505-9.5206-3.01-2.2515-1.505-5.1779-3.88-6.935-5.451-1.7505-1.572-3.0399-2.281-4.3762-3.452" stroke-width="1.2"/><path d="m113.536 163.037c-.748 3.177-2.265 19.136-2.097 21.972.167 2.836-.047 10.273 1.777 15.289 2.986 8.2 4.83 14.835 6.708 32.266" stroke-width="1.2"/><path d="m133.594 155.512c1.236 1.17 6.146 4.133 12.56 22.259 1.911 5.404 5.846 22.072 7.65 25.563.895 1.732 3.575 5.692 4.744 7.197s3.34 4.515 5.679 5.852" stroke-width="1.2"/><path d="m93.8543 230.224s-1.7772 0-1.1625 2.34c.648 2.468 1.7304 9.351 2.3918 11.117.5479 1.464 2.2048 1.839 3.374 2.341 1.1692.501 9.6544 4.682 26.1164 1.565 10.53-1.993 21.113-10.969 22.115-12.641 1.002-1.673.501-2.662 0-4.763-.501-2.093-.501-3.598-.835-4.768-.334-1.171-.308-7.318-2.673-5.853" stroke-width="1.2"/><path d="m110.695 234.027c.415 1.331 2.72 11.117 3.755 14.641" stroke-width="1.2"/><path d="m129.766 230.223c.581 1.351 2.224 7.691 4.449 13.457" stroke-width="1.2"/><path d="m146.52 229.421c2.338 0 15.921-.221 18.259-14.267" stroke-width="1.2"/><path d="m162.16 214.779c1.904-1.07 3.521-2.281 4.858.321 1.449 2.829 5.398 4.963 5.899 6.802s.608 5.01-1.563 8.327c-1.858 2.843-10.229 9.551-19.85 9.578" stroke-width="1.2"/><path d="m25.2605 190.292c1.5968-1.224 4.6501-2.161 7.4562-8.568 2.8127-6.401 4.3628-11.337 4.7369-13.671.4877-3.05 5.8661 1.973 7.2023 2.642 1.3362.668 2.5522 1.545 2.0645 4.548-1.0824 6.742-3.3473 11.383-6.4273 16.052-2.3451 3.545-3.7214 4.976-5.405 6.013-.3742.227-.8352.267-1.2427.107-3.06-1.231-11.0573-5.077-8.3849-7.117z" stroke-width="1.2"/><path d="m95.8516 244.75c0 1.418.2271 6.742 1.1491 11.511" stroke-width="1.2"/><path d="m162.081 351.297s-2.94 13.43-9.461 21.095c0 0-4.637 6.241-12.093 12.247" stroke-width="1.2"/><path d="m97.9351 255.004c-1.2494 2.341-.6013.923-3.1936 6.856-2.5923 5.932-12.1997 33.067-13.242 58.57-.167 4.013 0 13.23 1.7839 17.685 1.7838 4.454 4.7837 5.905 7.2089 7.517 0 0 22.6027 16.561 29.6707 21.243 7.069 4.682 21.914 15.53 21.914 15.53" stroke-width="1.2"/><path d="m147.27 233.006c2.091 2.869 8.718 14.413 11.144 26.406.788 3.899 1.67 13.317 1.857 16.888.214 4.013.708 12.153.555 17.725-.114 4.126-1.45 57.741-1.557 59.413" stroke-width="1.2"/><path d="m120.965 274.111c1.67-.047 8.906-1.05 13.249-3.277" stroke-width="1.2"/><path d="m120.413 331.145c-.554-2.341 0-6.354-.22-7.578-.221-1.224-3.12-1.224-4.169-1.452-1.056-.22-.842-2.675-.842-4.126 0-1.452.554-4.568.842-5.685.28-1.117 1.276-4.682 1.83-6.575.555-1.893 2.452-7.578 3.12-9.391.668-1.812 1.891-6.434 2.452-8.554.562-2.121 3.007-12.708 3.461-14.548" stroke-width="1.2"/><path d="m126.879 273.229c.281 1.331.835 48.424.715 59.44" stroke-width="1.2"/><path d="m120.164 327.467c1.143.776 14.117 9.832 15.901 11.39 1.784 1.559 18.714 13.043 24.834 15.604" stroke-width="1.2"/><path d="m159.274 353.436c1.003-1.224 3.007-2.896 4.009-1.893 1.002 1.004 2.786 2.007 4.229 3.124s5.9 3.792 6.568 4.461 2.672 1.224 1.556 4.348c-1.115 3.123-4.062 9.377-5.358 11.256-.768 1.117-5.886 8.14-6.888 9.364s-4.122 4.461-5.459 5.685c-1.336 1.224-3.34 3.505-5.899 2.308s-5.565-2.983-7.129-3.873c-1.563-.889-5.345-2.227-5.124-3.899.22-1.672.561-2.756.561-2.756" stroke-width="1.2"/><path d="m129.52 372.84.821 17.396" stroke-width="1.2"/><path d="m130.013 386.752c-1.524.689-5.118 1.438-4.784 3.612.334 2.173 1.75 8.193 1.67 9.778s.027 4.227 1.336 4.682c15.3 5.304 25.643 2.174 30.734-.334 2.171-1.258 2.979-1.258 2.866-3.01-.114-1.752.113-7.612 0-8.615-.114-1.003.641-4.601-2.967-3.986" stroke-width="1.2"/><path d="m125.977 388.625c1.089.99 10.522 4.194 22.882 1.839" stroke-width="1.2"/><path d="m184.103 413.76c-.107 1.545.448 5.331 1.009 7.899.561 2.569 1.223 5.13 3.227 5.906s4.009 1.131 6.013 1.01c2.004-.12 3.227-.675 3.788-2.013s2.339-12.26 2.559-15.718c.221-3.458.708-10.835.748-14.072.04-3.204-.193-8.782-.641-11.565-.448-2.782-.889-7.022-3.12-7.136-2.232-.114-8.946-1.037-11.739-.943" stroke-width="1.2"/><path d="m194.226 377.924c4.269 2.936 2.352 34.927 2.018 37.602-.334 2.676-1.069 11.498-3.428 13.049" stroke-width="1.2"/><path d="m137.774 420.811c-1.717 2.842-4.002 5.752-4.784 7.089-.781 1.338-1.002 4.127-.447 6.134.554 2.006 1.002 4.461 2.278 5.571 1.283 1.117 2.96 2.582 14.03 1.672 3.742-.307 10.743-.555 11.191-3.678.448-3.124.221-6.849-.554-8.996-.782-2.147-3.241-5.318-5.352-7.792" stroke-width="1.2"/><path d="m132.41 433.41c1.59 1.512 1.51 2.789 6.107 3.17 8.979.743 20.852-.561 21.754-3.17" stroke-width="1.3"/><path d="m18.0848 156.127c.8886-1.117 2.2248-1.558 2.9998 0 .7817 1.559 3.1869 2.876 2.1714 4.736-1.0156 1.859-4.7771 7.257-5.6723 8.26-.8953 1.003-2.3986 2.836-3.0667 1.719s-.334-1.672-1.2226-2.341-2.9197-.937-1.2895-2.662" stroke-width="1.2"/><path d="m16.7422 159.693c.6681 1.231 2.9998 2.475 3.8416 5.532" stroke-width="1.2"/><path d="m38.066 167.15c-.7817.495-1.53.997-3.6012 3.358" stroke-width="1.2"/><path d="m27.4081 183.604c-1.5768 2.882-2.1714 6.427-2.619 7.29" stroke-width="1.2"/><path d="m181.316 243.994c.762.495 4.791 5.15 14.131 5.13 11.158-.02 13.496-4.535 14.131-5.157" stroke-width="1.2"/><path d="m182.145 251.317c1.917 1.131 2.752 2.047 5.465 2.943 7.69 2.528 14.524.87 17.277-.361 3.007-1.344 3.508-2.435 4.717-3.739" stroke-width="1.2"/></g><path d="m93.9086 78.9297c.9224 0 1.6703-.6737 1.6703-1.5049 0-.8311-.7479-1.5049-1.6703-1.5049-.9225 0-1.6703.6738-1.6703 1.5049 0 .8312.7478 1.5049 1.6703 1.5049z" fill="#60605f"/><path d="m143.1 81.9395c.922 0 1.67-.6738 1.67-1.5049s-.748-1.5049-1.67-1.5049c-.923 0-1.67.6738-1.67 1.5049s.747 1.5049 1.67 1.5049z" fill="#60605f"/><path d="m117.052 97.0293c1.276-.6689-4.002 1.1236-1.857 4.4817.915 1.438 5.104 3.009 7.109.501 1.563-1.96.334-4.5279-1.17-4.9426" stroke="#60605f" stroke-dasharray="138 3 1 3" stroke-linecap="round" stroke-linejoin="round" stroke-width="1.2"/><path d="m105.598 116.552c2.672 2.676 4.964 5.184 10.416 5.685 5.451.502 12.467-5.852 13.97-7.524" stroke="#60605f" stroke-dasharray="138 3 1 3" stroke-linecap="round" stroke-linejoin="round" stroke-width="1.2"/><path d="m86.918 65.0589c1.6502.1672 5.3248-1.2374 8.6654 2.0065" stroke="#60605f" stroke-dasharray="138 3 1 3" stroke-linecap="round" stroke-linejoin="round" stroke-width="1.2"/><path d="m147.746 69.5384c1.697 1.0969-4.396-2.9831-9.574 1.5316" stroke="#60605f" stroke-dasharray="138 3 1 3" stroke-linecap="round" stroke-linejoin="round" stroke-width="1.2"/><path d="m108.052 136.523c1.015 2.489 1.764 7.873-3.915 11.217" stroke="#60605f" stroke-dasharray="138 3 1 3" stroke-linecap="round" stroke-linejoin="round" stroke-width="1.2"/><path d="m121.568 138.523c0 2.295-1.183 9.712 3.581 12.307" stroke="#60605f" stroke-dasharray="138 3 1 3" stroke-linecap="round" stroke-linejoin="round" stroke-width="1.2"/><path d="m18.0765 155.68c.2004-2.234-7.8504-13.932-9.56074-18.487-4.12227-10.955-3.62787-16.447-5.39837-16.4-2.198094.06-1.55002 3.023-1.67028 4.522-.761654 9.45 3.14013 27.61 1.93085 32.706-.43428 1.819-.50109 2.341-1.1692 3.679-.66812 1.337-1.26274 4.494 0 6.354.90863 1.338 1.83731 1.338 4.17571 0s3.34057-3.679 5.67893-2.174c2.3384-2.508 5.679-6.521 6.0131-10.2z" stroke="#60605f" stroke-dasharray="138 3 1 3" stroke-linecap="round" stroke-linejoin="round" stroke-width="1.2"/><path d="m3.11719 160.168c1.85736-2.334 4.8171-2.488 2.9397-8.856" stroke="#60605f" stroke-dasharray="138 3 1 3" stroke-linecap="round" stroke-linejoin="round" stroke-width="1.2"/><path d="m15.4102 171.109c2.1713-1.986 6.8414-7.899 7.8436-10.24 4.0087 3.344 11.1909 10.033 13.0282 11.538-.334 3.177-4.1757 11.203-6.347 13.878-1.8374-2.006-14.5248-15.176-14.5248-15.176z" stroke="#60605f" stroke-dasharray="138 3 1 3" stroke-linecap="round" stroke-linejoin="round" stroke-width="1.2"/><path d="m171.156 230.504s11.298 11.624 12.634 12.46" stroke="#60605f" stroke-dasharray="138 3 1 3" stroke-linecap="round" stroke-linejoin="round" stroke-width="1.2"/><path d="m182.146 253.893s-20.905-10.407-26.958-14.42" stroke="#60605f" stroke-dasharray="138 3 1 3" stroke-linecap="round" stroke-linejoin="round" stroke-width="1.2"/><path d="m182.767 255.004c-4.838 3.224-5.372 8.113-4.029 9.611 1.79 2.007 8.846 6.635 9.267 3.505.387-2.896-4.029-7.05-5.365-8.126" stroke="#60605f" stroke-dasharray="138 3 1 3" stroke-linecap="round" stroke-linejoin="round" stroke-width="1.2"/><path d="m206.985 260.689c-.668 1.17-2.673 4.013-1.336 5.016 1.336 1.004 2.004.836 4.175-1.17 2.172-2.007 2.994-4.14 3.007-5.518.027-2.428-2.673-3.619-2.673-3.619z" stroke="#60605f" stroke-dasharray="138 3 1 3" stroke-linecap="round" stroke-linejoin="round" stroke-width="1.3"/><path d="m138.79 407.367c.414 1.418 1.356 5.063 1.202 6.849-.194 2.267-2.325 6.829-2.826 8.42-.501 1.592-.1 4.589 2.606 5.431 8.451 2.636 15.406-.401 15.66-2.922.154-1.499-1.389-4.555-1.984-5.973-.541-1.298-1.249-2.809-2.171-4.889-1.337-3.03-.835-4.04-.862-7.07-4.998 1.117-11.632.16-11.632.16z" stroke="#60605f" stroke-dasharray="138 3 1 3" stroke-linecap="round" stroke-linejoin="round" stroke-width="1.2"/><path d="m172.973 370.379c1.336 1.338 7.777 6.066 12.982 6.749 0 0 .962.387 1.409 3.27.441 2.863 3.194 22.654-.14 30.667-.949 2.287-3.227 4.013-3.788 1.672s-2.225-9.919-3.788-13.043c-1.564-3.123-3.455-7.691-5.679-10.367-2.225-2.675-7.958-6.554-9.067-7.223" stroke="#60605f" stroke-dasharray="138 3 1 3" stroke-linecap="round" stroke-linejoin="round" stroke-width="1.2"/><path d="m160.72 92.1389c2.005-.3344 4.223 1.846 2.886 6.2002-1.336 4.3479-6.119 6.9029-7.122 4.4279" stroke="#60605f" stroke-dasharray="138 3 1 3" stroke-linecap="round" stroke-linejoin="round" stroke-width="1.2"/><path d="m71.4204 86.3477c-.6681.8895-4.2425 8.1264 4.7636 9.8119" stroke="#60605f" stroke-dasharray="138 3 1 3" stroke-linecap="round" stroke-linejoin="round" stroke-width="1.2"/><path d="m86.3893 108.834c-2.5054-1.531-6.8482-6.882-8.632-9.8919-1.7839-3.0098-17.4044-23.6504-3.3406-57.1862" stroke="#60605f" stroke-dasharray="138 3 1 3" stroke-linecap="round" stroke-linejoin="round" stroke-width="1.2"/><path d="m70.4488 88.0329c-1.5968-.9097-6.7213-4.8626-9.1666-7.5112-2.4519-2.6486-5.0108-6.2135-6.347-7.9994-1.3363-1.7858-6.4607-9.6982-4.4564-12.0392 2.0044-2.3409 31.8624-38.4987 34.6418-41.7292 8.6186-10.00589 17.0504-16.46693 25.8224-14.78813 6.461-1.89283 20.318-6.15338 33.827.58858 24.326 12.13955 39.552 58.15605 40.781 60.72445 1.23 2.5683 3.455 6.4677 1.891 7.9124-1.891 1.7858-3.227 3.2305-4.897 4.7956s-17.451 15.6978-18.353 16.487" stroke="#60605f" stroke-dasharray="138 3 1 3" stroke-linecap="round" stroke-linejoin="round" stroke-width="1.2"/><path d="m148.691 114.712c2.172-2.675 6.849-9.364 8.185-12.875 1.336-3.5116 5.512-13.3302 6.514-17.3701 1.002-4.0331 2.412-9.2166 2.626-13.3969.213-4.1803.788-9.0294 0-15.5507-.789-6.5212-2.84-15.2162-5.319-20.7341" stroke="#60605f" stroke-dasharray="138 3 1 3" stroke-linecap="round" stroke-linejoin="round" stroke-width="1.2"/><path d="m110.945 3.96484c-4.176 4.73542-6.935 18.94836-6.848 25.80406m0 0c.127 10.2467 7.67 10.6547 13.563 14.8818 3.774 2.7021 6.975 4.8558 10.456 10.0259 3.006 4.4612 4.977 9.705 4.977 9.705 1.67-3.177.735-14.0458-.601-17.39 1.837 2.341 6.347 4.8491 8.351 7.3573s5.512 7.5245 7.015 13.2097c1.504 5.6852 2.339 17.0555 2.339 22.4063 0 5.3507.214 20.4731-1.29 24.0981-.888 3.779-18.139 24.848-32.47 24.46-17.4579-.475-30.5463-29.162-31.0474-34.011-.501-4.8489-.167-9.0291 0-13.2094.1671-4.1803.5011-16.7211 1.0022-21.9047.5011-5.1835 1.1692-8.3605 2.0044-11.0359.8351-2.6754 1.6702-4.1803 3.5076-6.5213 1.8373-2.3409 6.18-8.1933 7.8503-10.367 1.6699-2.1738 2.8399-7.6918 4.3429-11.7048z" stroke="#60605f" stroke-dasharray="138 3 1 3" stroke-linecap="round" stroke-linejoin="round" stroke-width="1.2"/><path d="m128.121 113.543c2.338.334 2.673 1.338 2.84 2.341" stroke="#60605f" stroke-dasharray="138 3 1 3" stroke-linecap="round" stroke-linejoin="round" stroke-width="1.2"/><path d="m208.296 265.812s-.815 1.411-1.71 3.157c-.896 1.746-1.858 4.682-.294 5.143 1.556.462 3.233-.602 4.897-3.277 2.525-4.06.374-7.478.374-7.478" stroke="#60605f" stroke-dasharray="138 3 1 3" stroke-linecap="round" stroke-linejoin="round" stroke-width="1.3"/><path d="m207.721 275.148s-1.283 2.602-.047 3.218c1.243.615 3.835-.596 4.269-5.184.114-1.177-.835-2.241-.835-2.241l-3.394 4.207z" stroke="#60605f" stroke-dasharray="138 3 1 3" stroke-linecap="round" stroke-linejoin="round" stroke-width="1.3"/><path d="m204.633 242.322s4.703.937 4.937 1.652c.087.261-.033 6.936-.22 12.742" stroke="#60605f" stroke-dasharray="138 3 1 3" stroke-linecap="round" stroke-linejoin="round" stroke-width="1.3"/><path d="m204.635 242.322-1.997-4.12s-1.724-1.88-7.189-1.88-6.648 2.194-6.648 2.194l-1.937 3.104-5.218 2.28c-.321.141-.515.482-.461.836l.915 5.966 1.249 9.585" stroke="#60605f" stroke-dasharray="138 3 1 3" stroke-linecap="round" stroke-linejoin="round" stroke-width="1.2"/><path d="m186.863 241.619s1.938 3.525 9.815 3.063c6.895-.401 7.964-2.361 7.964-2.361" stroke="#60605f" stroke-dasharray="138 3 1 3" stroke-linecap="round" stroke-linejoin="round" stroke-width="1.2"/><path d="m188.801 238.516s0 2.508 6.881 2.508c6.127 0 6.949-2.823 6.949-2.823" stroke="#60605f" stroke-dasharray="138 3 1 3" stroke-linecap="round" stroke-linejoin="round" stroke-width="1.2"/><path d="m184.992 268.789 3.033 14.661s1.891 3.752 10.456 3.752c7.497 0 8.532-4.153 8.532-4.153l.936-9.01" stroke="#60605f" stroke-dasharray="138 3 1 3" stroke-linecap="round" stroke-linejoin="round" stroke-width="1.2"/></svg>