<svg fill="none" height="428" viewBox="0 0 179 428" width="179" xmlns="http://www.w3.org/2000/svg"><path d="m74.336 9.7898s-9.511.7382-16.294 4.4411c-6.783 3.7026-13.692 9.5726-18.721 14.7396-5.021 5.173-12.197 20.523-14.146 27.258-1.948 6.734-5.826 23.252-4.435 34.361 1.537 12.2595 3.721 18.3215 12.967 20.3545 10.86 2.39 11.949 1.651 11.949 1.651s1.967 1.387 3.31 5.362 1.942 10.837 1.942 10.837 4.417-2.192 5.779-3.19c1.361-.998 1.966-.471 3.709-3.974 1.742-3.504 2.371-8.955 2.371-8.955s2.753.072 12.138-2.088c9.384-2.16 12.422-2.983 15.368-4.259 2.947-1.277 10.903-5.694 10.903-5.694s23.991-12.6095 26.006-35.0875c2.014-22.478-4.236-44.866-18.152-51.3216-13.916-6.45599-34.694-4.4351-34.694-4.4351z" fill="#fbfcfc"/><path d="m27.892 209.963s.37 8.98.212 14.098c-.157 5.119-1.131 10.976-1.131 10.976l-.938 2.039s-3.697 4.048-6.843 6.468c-3.147 2.421-7.007 4.932-10.75197 6.263-3.745 1.331-6.904 1.845-6.904 1.845s-1.221996.775-.054 1.785c1.168 1.01 2.777 1.827 4.084 1.513 1.307-.315 5.88697-1.991 5.88697-1.991s-2.54097 3.57-1.57897 4.49c.96197.919 2.37797 1.258 3.55797 0 1.18-1.259 5.723-6.953 5.723-6.953l1.725-.465s-2.184 4.701-.914 4.725c1.271.024 2.433.508 4.278-1.767s2.723-3.672 2.723-3.672 1.161-.236 3.001.03c1.839.266 2.741.375 4.55 1.525 1.809 1.149 3.812 2.74 5.881 2.868 2.069.127 4.411-.829 4.254-1.676-.158-.848-3.843-3.141-5.64-6.535-1.797-3.395-2.365-6.541-2.365-6.541l2.801-7.484 3.007-9.016.932-10.867-15.508-1.658z" fill="#fbfcfc"/><path d="m117.949 217.634 9.222-10.171s6.122 10.274 8.548 14.619c2.426 4.344 6.498 8.519 10.304 10.939s15.811 9.264 18.431 10.637c2.62 1.374 3.588 1.476 3.479 2.36-.109.883-.031 2.184-2.3 2.045s-7.399-1.912-7.399-1.912l1.476 4.471s-.297.866-1.949.085c-1.652-.78-4.38-4.066-4.38-4.066s-1.234 1.737-2.492 1.265c-1.259-.472-6.481-5.077-6.481-5.077s-2.106-.296-2.862.478c-.757.775-4.319 4.738-5.293 5.089-.975.351-1.992.98-2.591.151s-.266-4.362-.266-4.362l.127-5.991s-.817-3.17-3.473-6.643c-2.663-3.473-11-12.477-11-12.477l-1.112-1.427z" fill="#fbfcfc"/><path d="m67.8901 368.313c.405.212 1.403 4.356.707 6.934-.695 2.577-3.116 7.127-6.589 9.856s-8.525 6.359-9.184 6.656c-.66.296-4.496 3.031-4.496 3.031s5.446.309 12.591-.696c7.146-1.004 16.186-2.299 19.471-3.811 3.285-1.513 6.111-4.181 6.111-4.181l-1.168-2.124s-1.791-1.991-2.154-6.166-.653-10.498-.653-10.498l-14.63.999z" fill="#fbfcfc"/><path d="m130.004 370.141s11.024-3.225 12.906-5.512l1.882-2.287 3.031 8.453s1.277.841 1.755 1.228 1.258 2.202 1.936 3.818c.678 1.615 4.381 9.336 5.754 11.635 1.374 2.299 7.291 12.428 8.011 14.57s2.045 4.574.774 6.976c-1.27 2.402-1.887 4.296-4.477 5.192-2.59.895-3.461 1.537-5.512.81-2.051-.726-3.866-2.262-3.866-2.262l-2.451-7.285s-6.159-16.519-6.438-17.795c-.278-1.277-8.616-12.162-8.616-12.162l-4.701-5.385h.012z" fill="#fbfcfc"/><path d="m42.0234 200.227.727-1.724 8.815 1.204 9.863 1.349.822.944 7.981-1.38s9.735-3.557 11.502-4.544c1.767-.986 3.467-2.42 3.467-2.42v-1.809l.151-2.015s2.16.357 2.759 1.107c.599.751 1.531 4.369 1.919 5.984.387 1.616 1.427 5.004 2.214 5.791.787.786 1.803 1.506 1.749 1.906-.055.399-.388 2.39-.388 2.39l-1.125 1.524-1.501-1.204s-5.784 3.849-7.472 4.587-8.707 2.916-11.23 3.273-3.612.496-3.612.496v.896l-20.239-2.554-6.396-13.807h-.006z" fill="#fbfcfc"/><path d="m49.9108 393.309s-1.646 1.264-1.585 1.476c.06.212 5.439.043 5.439.043s13.051-1.38 16.905-2.209c3.855-.829 10.347-2.257 11.853-3.176 1.507-.92 3.976-3.976 3.976-3.976s2.486 3.879 3.164 6.287 1.168 2.953 1.077 5.076c-.091 2.124 0 6.922 0 6.922s-14.049 2.656-18.708 3.189c-4.659.532-18.17 1.942-22.581 1.991-4.411.048-13.16-.757-13.16-.757s-.786-2.577-.133-4.804 1.083-4.078 3.552-5.554c2.468-1.477 10.201-4.514 10.201-4.514z" fill="#d4d4d6"/><path d="m152.639 413.093s.06 2.65 4.042 2.112c3.981-.539 10.503-1.077 9.535-9.729-.423-3.782-5.215-11.672-5.215-11.672l-4.925-8.537-2.233-4.357 10.473 6.347s7.158 10.395 9.355 16.125c2.196 5.73 4.87 12.827 3.122 16.228-1.749 3.4-3.37 5.24-5.234 5.942-1.864.701-6.565.81-6.565.81s-3.013 1.114-5.863-1.349-4.423-4.459-5.27-6.771c-.847-2.311-1.228-5.143-1.228-5.143h.006z" fill="#d4d4d6"/><path d="m49.0781 214.12 12.077 1.525c.29.036 7.103.944 7.103.944l.394-.896s7.587-.883 10.588-2.039c3.001-1.155 11.932-6.425 11.932-6.425s6.553 6.492 8.8399 10.134c2.287 3.643 4.029 6.347 5.778 11.684s6.801 28.214 9.675 38.149 9.033 25.885 9.033 25.885 15.447 37.634 15.586 37.937c.14.302 4.726 10.461 4.726 10.461s2.602-.841 3.903.593c1.3 1.434 6.679 10.879 6.976 11.781.296.901 1.065 2.801-.829 5.639s-5.155 6.571-8.084 8.828c-2.928 2.257-9.239 5.905-14.146 6.946s-11.054 1.851-12.373.714c-1.319-1.138-4.169-5.524-5.149-7.66s-3.582-6.468-2.699-7.848c.884-1.379 2.898-2.934 2.898-2.934l-11.151-24.747-18.2599-44.097 3.406 61.722s3.243-.944 3.854 1.337c.612 2.281 1.598 9.04 1.664 10.516.067 1.477.248 3.903-.792 4.623-1.041.72-8.084 5.264-15.012 5.827-6.928.562-24.486-1.065-26.144-2.306-1.658-1.24-2.233-1.785-2.717-5.627s-1.615-9.626-.659-10.461 3.963-2.499 3.963-2.499 1.936-43.589 1.591-64.052-1.198-40.781-1.634-45.984c-.435-5.204-1.216-12.9-2.281-18.043s-2.057-9.639-2.057-9.639z" fill="#eae9ea"/><path d="m50.9114 128.799s.024-4.453-.448-6.22c-.471-1.766-.732-2.226-.732-2.226s-7.194 4.199-8.289 5.288-2.081 2.009-3.122 3.751c-1.041 1.743-5.857 10.77-8.18 15.272-2.324 4.502-5.688 11.653-5.676 14.727s.091 6.553 1.15 8.949 2.293 4.387 2.293 4.387.115 6.014.012 11.181-2.305 23.307-2.305 23.307-3.534.133-4.133 1.483c-.599 1.349-.708 10.903-.708 10.903l2.058 1.464s5.046 1.924 7.986 2.493c2.941.569 11.4.853 13.608.472 2.209-.381 3.279-1.307 3.279-1.307l1.404-7.896-1.882-2.487s-4.852-10.812-5.022-11.538c-.169-.727.545-2.312.545-2.312l2.91.406s13.245 1.742 13.941 1.851 1.833-.508 2.245.369l.411.878s10.02-1.525 13.584-3.092c3.563-1.567 9.378-4.992 9.686-5.561.309-.569-.653-4.368-.175-6.873s1.252-4.653 1.252-4.653 8.701 10.57 9.306 11.526 10.2196 16.149 10.2196 16.149-1.628 3.473-1.888 4.738c-.26 1.264-.744 1.391.393 2.644 1.138 1.252 4.847 5.367 6.214 6.637 1.367 1.271 2.795 3.346 4.005 3.141 1.211-.206 6.741-4.308 8.235-6.063 1.495-1.755 7.309-9.306 8.041-11.224.733-1.918 1.646-4.647.987-5.966-.66-1.319-3.891-8.779-5.21-10.915-1.071-1.737-1.67-2.729-2.704-2.003-1.035.726-3.31 2.856-3.31 2.856s-17.202-33.018-20.366-39.014c-3.1646-5.996-13.6556-26.708-16.5176-29.406-2.862-2.699-7.164-4.913-9.675-4.514s-2.662-.054-2.662-.054-5.888-6.959-6.323-7.654c-.436-.696-2.644-.497-2.644-.497s.49 1.622-.097 3.788-2.366 5.688-3.292 7.116c-.925 1.428-1.7 1.906-1.7 1.906s-2.42 1.288-4.011 2.111c-1.592.823-2.693 1.676-2.693 1.676z" fill="#d4d4d6"/><path d="m70.6146 6.31069s-11.127 1.5974-17.825 5.31251c-6.698 3.715-11.683 5.9473-12.948 7.4783s-3.648 6.081-3.963 6.989c-.315.907-1.113 9.203-1.113 9.203s5.736-8.665 10.897-13.027c5.161-4.363 4.277-3.933 8.803-6.2748 4.526-2.3416 11.466-4.3564 11.466-4.3564l4.683-5.33061z" fill="#d4d4d6"/><path d="m28.0796 48.3262s-4.441 3.709-8.876 5.24-9.60204 2.668-9.60204 2.668 1.21004 3.056 3.26104 5.089 4.562 4.036 6.341 4.859c1.779.822 3.025 1.325 3.025 1.325s1.646-7.334 2.953-11.273 2.898-7.908 2.898-7.908z" fill="#d4d4d6"/><path d="m71.6749 5.62732-5.742 6.01428s-.291 1.192 0 2.3597c.29 1.1678 1.942 5.0157 3.461 7.9147 1.518 2.898 3.83 7.23 4.253 10.981.424 3.752.956 8.592.085 13.729s-1.113 7.261-2.62 9.609c-1.507 2.347-2.638 3.721-2.638 3.721l7.103-6.795s-1.857 5.621-4.967 10.292-7.594 10.752-10.8 15.03c-3.207 4.277-5.349 6.347-5.349 6.347s6.226-1.761 11.466-4.381 14.739-8.223 17.298-10.746c2.56-2.523 7.043-7.424 7.043-7.424l-7.043 11.46s2.747 1.749 1.658 3.745c-1.089 1.997-1.96 3.691-5.252 4.151-3.291.46-4.586.72-4.586.72s-5.264 4.756-8.193 6.922c-2.928 2.166-7.545 4.338-7.545 4.338s10.335 3.153 13.203 3.879 8.398 2.081 8.398 2.081 2.402 3.388 3.316 4.877c.913 1.488 2.444 3.243 2.444 3.243l14.5031-6.916s14.509-1.101 20.445-2.378c5.936-1.276 19.537-4.925 26.042-7.799 6.504-2.874 10.588-5.367 10.588-5.367s-3.068-24.668-7.158-35.789-10.606-26.405-19.277-35.0937c-8.67-8.68867-19.967-12.01648-25.461-12.57318-5.493-.5567-18.1151-.968099-22.8101 0-4.695.9681-11.883 3.8482-11.883 3.8482z" fill="#d4d4d6"/><path d="m14.625 62.0125s4.955-1.192 7.733-4.163c2.777-2.971 3.569-4.955 3.569-4.955s-1.984 8.125-2.777 10.703c-.792 2.578-1.192 3.764-1.192 3.764s-1.585-.2-3.57-1.586c-1.984-1.385-3.763-3.763-3.763-3.763z" fill="#d4d4d6" opacity=".37"/><path d="m34.4453 34.8576s4.956-7.134 8.919-11.103 9.517-7.733 12.288-8.5254c2.772-.7926 9.911-3.1705 9.911-3.1705l1.192-1.785s-3.963-.1996-9.911 2.1783c-5.947 2.3779-8.525 3.1705-13.051 6.9156-2.704 2.233-8.616 11.381-8.616 11.381l-.732 4.103z" fill="#d4d4d6" opacity=".37"/><g fill="#d4d4d6" opacity=".37"><path d="m175.972 408.901c-.993-4.955-9.506-18.829-9.506-18.829s-6.353-5.948-8.731-6.941c-2.378-.992-3.37-1.385-3.37-1.385s-.593-1.585-1.385-3.37c-.793-1.785-1.985-3.764-3.964-5.549-1.984-1.785-2.777-4.163-2.777-4.163s2.578-2.377 6.541-6.54 3.57-6.94 3.57-6.94l-7.733-13.082h-3.37s-10.31-22-13.674-31.118c-3.37-9.118-15.066-38.651-16.651-44.998-1.586-6.347-8.719-37.665-9.911-40.636s-11.8958-17.045-11.8958-17.045l.4-.792c.399-.793-1.586-5.948-2.178-7.533-.593-1.586-1.785-7.334-2.378-8.526s-3.57-1.385-3.57-1.385l.792-8.919-9.517-12.289s-2.578-11.296-2.323-14.666c.254-3.37 1.73-5.948 5.3-5.748 3.57.199 12.688 14.273 20.021 26.362 7.3328 12.089 16.9778 31.094 16.9778 31.094l-5.712 5.712s4.29 1.301 7.067 4.272 3.37 6.341 3.37 6.341l3.534-3.534s5.185 4.925 7.763 7.697c2.577 2.777 10.11 10.31 13.48 12.089 3.371 1.785 17.91 9.39 19.495 9.584 1.586.199 2.306-2.439 2.306-2.439s-5.748-3.382-8.32-4.767c-2.577-1.386-12.688-7.334-14.866-8.526s-2.971-3.17-4.163-4.163c-1.192-.992-10.516-15.816-10.516-15.816s1.204-3.34 1.797-5.125-.054-4.81-.847-6.196c-.792-1.385-3.467-9.184-6.226-10.146-.678-.236-3.691 3.091-3.691 3.091s-13.716-25.321-18.079-35.232c-4.3618-9.911-18.4358-31.911-20.8138-34.888-2.378-2.971-9.711-3.171-9.711-3.171l-1.192-1.192-7.926-7.133h2.378s18.236-4.163 25.37-6.94c7.133-2.777 9.3178-3.963 9.3178-3.963s12.688-1.192 21.806-2.3785c9.118-1.192 35.68-13.281 35.68-13.281s-2.971-23.985-7.134-39.051c-4.162-15.066-17.443-30.132-17.443-30.132s-5.155-4.7557-7.733-5.5484c-2.577-.7926-18.436-.9923-27.7478.9923-9.318 1.9846-20.021 9.3181-20.021 9.3181s.593 4.163.2 11.895c-.4 7.733-3.159 19.622-3.159 19.622l-5.96 7.237s1.785-3.273 4.557-11.2c2.771-7.926-1.192-20.414-2.971-24.977-1.785-4.556-4.956-11.8951-4.956-11.8951l-2.438.8048-.139 2.7651c-.139 2.7652 3.17 7.7322 6.74 14.6662 3.57 6.941.26 8.465-1.718 13.021-1.985 4.556-3.461 11.127-3.461 11.127s1.385 5.688-1.664 12.525c-1.434 3.207-8.023 17.644-8.023 17.644s-7.134 12.089-13.674 18.8295c-6.541 6.741-10.704 5.948-10.704 5.948s3.963 1.192 10.903 2.971c6.94 1.785 12.489.792 12.489.792s2.777 1.586 3.963 5.549-3.963 8.126-3.963 8.126l2.97-1.785 4.163-3.764s1.192.4 3.171 3.964c1.978 3.563 1.192 5.748 1.192 5.748l-2.778 3.763s1.192 3.37 1.985 10.704c.793 7.333-.992 17.244-.992 17.244s-.793 3.37-3.57 8.325c-2.777 4.956-8.719 6.541-8.719 6.541l10.704 23.592-12.089-1.785s6.74 6.94 9.317 10.11c2.578 3.171 3.371 5.748 3.371 5.748s7.532 6.741 14.273 17.644c6.74 10.903 31.5168 64.62 31.5168 64.62l24.977 59.072s-3.171 1.985-10.111 4.163c-3.461 1.089-5.397.896-6.462.424.902.605 2.366 1.27 4.677 1.561 4.756.593 8.326-1.386 13.874.992 5.549 2.378 7.334 7.533 7.334 7.533s6.94 12.688 10.703 18.83c3.763 6.147 10.903 19.029 10.903 19.029s.992 3.963 2.971 8.918c1.985 4.956 5.355 6.94 5.355 6.94s1.192-.792 3.37-3.763.992-7.334 0-12.289h-.018z"/><path d="m115.516 359.939s.199.745 1.27 1.217c-.95-.642-1.27-1.217-1.27-1.217z"/></g><path d="m32.2638 178.767s2.577 8.125 2.577 16.251-1.288 16.452-1.288 16.452l3.666 1.585s-.593 1.815-1.192 4.677-1.288 6.027-1.288 6.027h2.48s-.593 4.556-1.585 7.533-4.653 11.018-1.979 13.396c2.675 2.378 6.142 5.433 6.735 7.019.593 1.585-1.362 1.736-1.362 1.736s3.74.617 4.726-.375.647-2.045.647-2.045l-5.088-5.004-2.427-7.261 1.434-3.709 3.05-10.903s4.986-.46 5.978-1.252c.992-.793.563-3.304.563-3.304l1.192-4.756-7.134-15.858 1.785-1.785-9.118-16.452-2.378-1.985v.013z" fill="#d4d4d6" opacity=".37"/><path d="m22.6036 249.23s1.192.993 0 2.578-2.377 2.971-2.377 2.971 1.452.684 2.904-1.343 3.037-4.206 3.037-4.206h-3.57z" fill="#d4d4d6" opacity=".37"/><path d="m9.46875 258.253s1.98405 1.586 4.16305 0c2.178-1.585 5.433-7.702 5.433-7.702l-4.556 1.44s-.0791 1.615-1.4701 3.642c-1.392 2.027-3.56995 2.62-3.56995 2.62z" fill="#d4d4d6" opacity=".37"/><path d="m67.9436 248.343s5.257 35.281 6.395 49.554 1.137 37.859-1.44 47.177c-2.578 9.317-7.926 12.881-7.926 12.881s8.18-.199 9.935.793c1.754.992 1.76 2.971 2.353 5.548.593 2.578.4 6.94 0 7.927-.399.986 1.586.992 1.586.992s.593 10.31-1.192 13.281-5.7 4.756-5.7 4.756-17.093 5.548-21.455 7.333c-4.363 1.785-10.504 4.756-12.289 6.341s-1.984 3.57-1.984 3.57 23.167-.448 29.532-.992c20.736-1.773 24.9769-4.708 24.9769-4.708v-5.966s-.2-.193 0-1.585-.1999-3.8-2.1779-6.178c-1.979-2.377-3.171-4.162-3.171-4.162s-3.37-11.297-2.971-12.089c.4-.793 6.148-2.578 9.318-4.756 3.171-2.178 3.171-3.37 3.171-3.37s-.2-11.497-1.386-12.689c-1.186-1.191-3.57-1.385-3.57-1.385l-3.569-60.458-18.436-41.822z" fill="#d4d4d6" opacity=".37"/><path d="m31.1443 67.8271s.563.763-1.313-.865c-1.452-1.259-.442-4.175-.442-4.175s-2.287 3.491-1.089 4.714c1.198 1.222 3.413 1.089 3.413 1.089l-.563-.763z" fill="#d4d4d6"/><path d="m24.4766 78.839s.683 2.668 3.975 3.049c3.291.381 6.323-.321 6.323-.321s-1.876 2.638-2.342 4.218c-.466 1.579-.72 2.541-.72 2.541s-2.541-.46-3.836 1.301c-1.295 1.76-1.876 2.39-1.876 2.39l-1.524-13.185z" fill="#d4d4d6"/><path d="m1.44515 252.799s5.385.72 11.75705-2.25c6.371-2.971 9.523-3.842 12.083-3.679 2.559.163 7.4539 2.832 7.4539 2.832s-1.852-.605-5.657-.388c-3.806.218-5.7299.563-8.0049 1.235-2.275.671-7.449 2.311-9.59605 3.176-2.148.865-4.054 1.446-5.307 1.319-1.252-.127-2.287-.629-2.723-1.41-.435-.78 0-.835 0-.835z" fill="#d4d4d6"/><path d="m75.5863 53.155c-1.924 3.122-7.103 6.795-7.103 6.795s1.222-1.108 3.194-4.708c1.973-3.6 3.231-15.465 1.973-22.351-1.259-6.885-3.933-9.505-7.103-16.784-1.235-2.8257.338-4.6832-.612-4.4715-32.219 7.2915-41.397 46.9405-42.305 49.8935-.956 3.128-2.874 12.301-3.074 19.713-.109 4.09.121 12.222 1.011 16.687 2.359 11.89 11.502 15.072 31.808 14.74 20.305-.333 33.308-4.992 33.308-4.992" stroke="#61615f" stroke-linecap="round" stroke-linejoin="round" stroke-width="1.2"/><path d="m75.0505 82.3496c-.805 1.011-2.571 2.348-6.063 5.313-3.491 2.964-9.675 5.947-9.675 5.947l8.604 2.705c2.62.708 9.361 2.329 12.083 3.134 1.816 1.5134 7.158 8.1684 5.343 8.6714" stroke="#61615f" stroke-linecap="round" stroke-linejoin="round" stroke-width="1.2"/><path d="m83.2268 73.738c1.513-1.815 6.438-9.844 7.043-11.46-5.548 6.384-9.917 10.395-13.699 12.567-14.957 8.586-22.102 9.984-22.102 9.984l7.986-9.475c2.118-2.923 5.343-7.158 6.759-9.379 1.41-2.22 4.635-9.076 5.694-11.393" stroke="#61615f" stroke-linecap="round" stroke-linejoin="round" stroke-width="1.2"/><path d="m41.0859 26.8047c1.367.835 3.878 1.754 3.273 6.292" stroke="#61615f" stroke-linecap="round" stroke-linejoin="round" stroke-width="1.2"/><path d="m60.3984 46.1784c1.011-1.41 3.873-3.903 5.888-3.903 2.014 0 5.621 0 5.04 6.05" stroke="#61615f" stroke-linecap="round" stroke-linejoin="round" stroke-width="1.2"/><path d="m36.4803 40.7142c-.26.938-.944 1.567-1.525 1.41-.581-.164-.841-1.053-.581-1.991.261-.938.944-1.567 1.525-1.41.581.164.841 1.053.581 1.991z" fill="#61615f"/><path d="m62.599 56.9667c-.496.841-1.452 1.192-2.136.786-.684-.405-.841-1.41-.345-2.251s1.452-1.192 2.136-.786c.684.405.841 1.416.345 2.251z" fill="#61615f"/><path d="m33.7163 65.1881c0-1.754-1.446-3.902-3.933-2.638-3.437 1.743-1.803 7.86 1.924 6.045" stroke="#61615f" stroke-linecap="round" stroke-linejoin="round" stroke-width="1.2"/><path d="m28.8116 46.627c-4.217 4.212-9.154 7.9509-19.21004 9.6089 2.96404 6.317 7.44204 9.318 12.62704 11.272" stroke="#61615f" stroke-linecap="round" stroke-linejoin="round" stroke-width="1.2"/><path d="m34.0078 36.121c.756-5.705.284-13.081 9.057-18.859 12.574-8.28356 20.01-9.83247 27.555-10.95187 11.659-8.21669 40.2722-5.51209 48.7732-1.22829 33.254 16.76616 38.264 74.50116 38.869 80.14616-4.235 2.826-12.888 7.672-24.045 10.274-8.15 1.894-26.78 7.678-54.2072 3.945" stroke="#61615f" stroke-linecap="round" stroke-linejoin="round" stroke-width="1.2"/><path d="m151.836 244.033c.823 1.628 2.692 4.574 3.836 5.567 1.144.992 4.338 2.063 4.024.804-.315-1.258-.823-2.329-1.459-4.259" stroke="#61615f" stroke-linecap="round" stroke-linejoin="round" stroke-width="1.2"/><path d="m153.389 246.635c-1.149 1.549-2.371 1.852-4.925.073 0 0-3.037-2.493-4.308-4.229" stroke="#61615f" stroke-linecap="round" stroke-linejoin="round" stroke-width="1.2"/><path d="m28.1308 223.195s-.145 4.466-.533 8.066c-.387 3.6-.641 4.181-1.555 5.814-.913 1.634-8.519 7.745-8.519 7.745-3.025 2.118-6.05 3.933-9.076 4.992-4.084 1.664-5.239 1.694-6.903 1.845-1.663998.152.702 2.844-.055 1.785-.224-.308 1.362 2.106 4.084 1.513 2.759-.599 3.407-1.107 5.597-1.888.575-.206 1.253-.429 2.1-.677 4.102-1.211 7.732-2.875 12.27-3.026s6.632-.151 8.991 1.513c2.354 1.664 6.892 4.084 9.01 2.571 2.117-1.512.907-2.722-.908-4.084-1.815-1.361-6.202-5.748-5.748-10.588l4.871-14.371" stroke="#61615f" stroke-linecap="round" stroke-linejoin="round" stroke-width="1.2"/><path d="m11.4672 252.958c-.744 1.537-2.14204 3.352-1.57904 4.49.79904 1.609 2.57204 1.21 4.23504-.678 1.664-1.888 3.891-4.453 5.047-6.274" stroke="#61615f" stroke-linecap="round" stroke-linejoin="round" stroke-width="1.2"/><path d="m26.9801 249.311c-1.138 1.845-1.513 2.462-2.723 3.672s-2.42 2.064-4.278 1.767c-1.071-.169-.569-2.317.914-4.725" stroke="#61615f" stroke-linecap="round" stroke-linejoin="round" stroke-width="1.2"/><path d="m68.5579 373.311c.06 2.166.889 5.36-7.654 12.791 0 0-9.07 6.782-10.982 7.212" stroke="#61615f" stroke-linecap="round" stroke-linejoin="round" stroke-width="1.2"/><path d="m85.3438 108.124s7.7629-2.299 15.8342-7.351" stroke="#61615f" stroke-linecap="round" stroke-linejoin="round" stroke-width="1.2"/><path d="m74.9062 54.5775c1.0111-1.64 6.232-15.326 6.002-22.515" stroke="#61615f" stroke-linecap="round" stroke-linejoin="round" stroke-width="1.2"/><path d="m62.7009 112.209c.92 4.604-2.668 10.691-5.088 12.809 0 0-.835.684-3.147 1.688-2.311 1.005-4.005 2.693-4.005 2.693" stroke="#61615f" stroke-linecap="round" stroke-linejoin="round" stroke-width="1.2"/><path d="m153.84 380.91c.617.726 1.694 3.697 2.602 5.192 4.151 6.831 9.13 15.435 9.566 18.079s1.264 6.117-3.927 9.723c-3.606 2.505-8.428.926-9.445-.81-1.016-1.737-6.976-19.768-8.694-24.106-1.719-4.338-9.833-14.207-9.833-14.207s2.614-.799 6.916-2.916c2.935-1.446 5.754-3.553 5.754-3.553s.279 1.229 1.047 2.476c0 0 2.263 2.341 3.358 3.799 1.821 2.433 2.656 6.317 2.656 6.317z" stroke="#61615f" stroke-linecap="round" stroke-linejoin="round" stroke-width="1.2"/><path d="m45.6641 112.602s.98-.085 3.001 4.617c2.021 4.701 2.251 7.388 2.251 9.481v1.41" stroke="#61615f" stroke-linecap="round" stroke-linejoin="round" stroke-width="1.2"/><path d="m24.4688 78.8398s1.083 13.172 1.754 15.054c.672 1.881 3.395 2.499 4.187-.291.708-2.505 1.265-5.5839 2.015-7.8109.66-1.954 2.3419-4.2171 2.3419-4.2171s-3.062 1.3971-6.323.3201c-1.918-.629-3.9749-3.0491-3.9749-3.0491z" stroke="#61615f" stroke-linecap="round" stroke-linejoin="round" stroke-width="1.2"/><path d="m25.9922 92.9088s.581-2.269 2.439-3.607c1.857-1.337 3.273-.968 3.273-.968" stroke="#61615f" stroke-linecap="round" stroke-linejoin="round" stroke-width="1.2"/><path d="m71.6797 81.9195s5.173.575 7.962-.29c9.941-3.08 2.79-8.774 2.79-8.774" stroke="#61615f" stroke-linecap="round" stroke-linejoin="round" stroke-width="1.2"/><path d="m65.9375 11.6412s4.144-4.79215 4.683-5.33065" stroke="#61615f" stroke-linecap="round" stroke-linejoin="round" stroke-width="1.2"/><path d="m121.703 222.736s11.581 9.827 12.119 17.021l-.744 7.956s.327 1.44 2.215 1.029c1.887-.412 3.213-2.239 4.64-3.848 1.428-1.61 2.318-3.044 7.775-1.943 5.343 1.077 11.72 3.915 14.933 4.805 3.213.889 5.028-.146 5.192-.866.163-.72.102-1.421.102-1.421s-21.999-11.243-26.356-15.932c-7.309-7.866-11.502-17.183-11.502-17.183" stroke="#61615f" stroke-linecap="round" stroke-linejoin="round" stroke-width="1.2"/><path d="m128.289 230.582s4.931-2.13 5.754-2.753c.823-.624 1.198-.956 1.198-.956l3.001 3.926s-.278.648-2.347 1.453c-2.07.804-5.047 1.657-5.047 1.657l-2.559-3.333z" fill="#d4d4d6"/><path d="m137.942 223.522s-1.397 1.966-1.748 2.359c-.351.394-.944.993-.944.993l3.001 3.927s.672-.515 1.125-1.198c.454-.684 1.44-2.735 1.44-2.735l-2.867-3.352z" fill="#d4d4d6"/><g stroke="#61615f"><path d="m49.7848 120.135c-2.959 1.779-4.363 5.197-5.706 7.599-1.942 3.473-4.235 5.724-4.235 5.724s4.774-3.739 7.073-7.073c2.196-3.189 3.987-.605 3.981.92" stroke-linecap="round" stroke-linejoin="round" stroke-width="1.2"/><path d="m64.9162 112.004c1.422 2.311 3.213 4.925 6.317 7.642 1.585 1.385.599 1.168-2.184 1.391-.835 2.233.55 3.328-3.534 10.353-2.002 3.443-5.366 6.759-5.324 6.426.629-4.925.92-13.039-3.074-12.458" stroke-linecap="round" stroke-linejoin="round" stroke-width="1.2"/><path d="m108.554 213.449c-1.664-2.608-17.6617-30.054-39.8978-52.429" stroke-linecap="round" stroke-linejoin="round" stroke-width="1.2"/><path d="m71.8281 120.813c2.578.115 9.009-3.976 19.749 16.53 1.688 3.225 18.0789 34.258 20.2689 38.421 2.191 4.163 10.728 20.711 10.462 22.067" stroke-linecap="round" stroke-linejoin="round" stroke-width="1.2"/><path d="m62.6133 165.104c-.835 2.874-2.493 9.306-11.043 12.331" stroke-linecap="round" stroke-linejoin="round" stroke-width="1.2"/><path d="m27.91 172.738c-.019 3.176.09 7.866 0 11.877-.091 4.006-.17 5.597-.472 9.608-.303 4.012-.757 8.096-1.211 11.497-.453 3.4-1.458 3.703.86 4.61 2.317.908 3.146 1.283 6.25 1.664s7.563.908 10.588.835c3.026-.073 3.407-.163 3.407-.92" stroke-linecap="round" stroke-linejoin="round" stroke-width="1.2"/><path d="m50.4679 129.398c-1.543 2.039-17.516 24.578-14.11 39.868 1.555 6.982 12.065 22.581 14.055 30.174" stroke-linecap="round" stroke-linejoin="round" stroke-width="1.2"/><path d="m85.3438 189.832c1.434.363 3.182.532 3.787 2.953.605 2.42.69 4.048 1.682 6.807.835 2.323 1.44 3.4 2.269 4.084 1.761 1.44.509 3.624-.151 4.308" stroke-linecap="round" stroke-linejoin="round" stroke-width="1.2"/><path d="m49.0781 214.119c1.029 4.756 3.007 12.712 3.866 22.079 2.106 22.786 2.977 58.243 1.059 111.894-.127 3.479.121 3.83-.629 6.891" stroke-linecap="round" stroke-linejoin="round" stroke-width="1.2"/><path d="m53.4683 351.83c-.811.629-4.3381 1.797-4.2961 3.364.055 2.16.436 5.488.89 8.513.453 3.026-.7259 6.069 5.0161 7.467 25.4 6.165 36.884-3.08 38.396-3.836 1.513-.757 1.513-3.334 1.362-5.071-.151-1.736-1.0591-5.972-1.0591-7.333 0-1.362.3751-4.502-3.9749-4.52" stroke-linecap="round" stroke-linejoin="round" stroke-width="1.2"/><path d="m115.318 357.536c-1.761 1.216-4.259 2.595-2.444 6.431s2.922 5.549 4.435 7.866c1.512 2.318 1.313 4.435 5.246 4.641 3.933.2 6.855-.303 10.086-1.21 3.231-.908 10.891-4.338 12.809-5.851s6.25-5.264 8.065-7.775c1.816-2.511 3.128-5.434 2.318-7.454-.811-2.021-3.328-6.856-4.339-8.169-1.01-1.313-1.663-4.042-4.132-4.538-1.513-.302-1.991-.133-1.991-.133" stroke-linecap="round" stroke-linejoin="round" stroke-width="1.2"/><path d="m133.743 356.29c-1.404-2.716-8.562-18.345-9.978-21.673-1.41-3.328-11.901-25.31-12.906-27.633" stroke-linecap="round" stroke-linejoin="round" stroke-width="1.2"/><path d="m86.4921 385.473s3.879 6.632 4.242 9.784 0 7.545 0 7.545c0 1.591-11.581 4.254-41.289 6.135-4.078.261-9.378-.151-13.16-.756-.303-2.269-.756-5.597 1.361-8.471 2.118-2.874 9.064-5.572 12.767-6.583 0 0-2.535 1.41-2.033 1.876s14.703-.932 20.965-2.148 11.43-2.378 13.578-3.624c3.569-2.076 3.569-3.758 3.569-3.758z" stroke-linecap="round" stroke-linejoin="round" stroke-width="1.2"/><path d="m36.0547 404.29c6.661 2.39 40.212.339 54.685-7.454" stroke-linecap="round" stroke-linejoin="round" stroke-width="1.2"/><path d="m25.6222 207.229s-1.7249.405-2.8139.756-2.111.998-1.894 2.735c.218 1.736-.224 5.947-.115 6.988s-.0181 1.906-.0181 1.906.956 1.688 7.037 3.122c4.58 1.077 11.218 1.779 17.692 1.229 1.264-.109 2.354-.914 2.565-2.161l1.0051-5.808" stroke-linecap="round" stroke-linejoin="round" stroke-width="1.2"/><path d="m155.049 381.859 9.269 5.397s8.888 12.234 11.847 22.865c2.075 7.461 2.021 9.705-1.573 13.318-.744.75-1.61 1.252-2.305 1.7-1.271.823-2.735 1.283-4.242 1.361-2.263.115-5.748.109-7.696-.835-2.354-1.143-4.344-2.589-6.196-6.752-1.851-4.163-1.942-6.795-1.942-6.795" stroke-linecap="round" stroke-linejoin="round" stroke-width="1.2"/><path d="m160.641 385.115s13.638 20.361 13.638 30.223c0 8.483-10.093 11.248-11.382 11.006" stroke-linecap="round" stroke-linejoin="round" stroke-width="1.2"/><path d="m85.9062 289.6s1.688 25.812 1.882 32.135c.157 5.107 1.718 31.336 1.718 31.336" stroke-linecap="round" stroke-linejoin="round" stroke-width="1.2"/><path d="m146.495 344.352c-1.362-2.269-8.556-17.777-10.141-21.788-1.585-4.012-15.077-37.006-17.812-45.204-3.455-10.359-6.324-22.902-7.352-27.567-2.112-9.596-3.498-17.649-8.344-27.748-3.0915-6.438-9.8745-12.936-11.6585-14.824" stroke-linecap="round" stroke-linejoin="round" stroke-width="1.2"/><path d="m57.8125 235.352s3.897 1.434 6.051 4.846c2.154 3.413 24.39 53.778 24.39 53.778.835 2.118 3.781 9.003 4.84 11.569 1.059 2.565 6.656 16.185 7.9395 19.362 1.282 3.176 6.654 16.79 8.016 19.967 1.361 3.176 6.807 13.48 7.866 15.973" stroke-linecap="round" stroke-linejoin="round" stroke-width="1.2"/><path d="m49.7389 120.359s-6.97 3.322-10.08 7.085c-2.142 2.59-9.342 16.536-11.732 21.915s-7.691 15.732 2.898 27.162c0 0 3.328 4.035 4.87 6.05 1.543 2.015 8.592 15.931 8.592 15.931" stroke-linecap="round" stroke-linejoin="round" stroke-width="1.2"/><path d="m85.5221 193.346s-.599-3.648-.175-6.873c.423-3.225 1.252-4.653 1.252-4.653" stroke-linecap="round" stroke-linejoin="round" stroke-width="1.2"/><path d="m42.7479 198.496s8.997 1.283 11.69 1.549c2.692.266 7.4 1.077 7.4 1.077l6.819 14.564v.895l-20.239-2.553-6.214-13.221c-.375-.804-.152-1.76.544-2.311z" stroke-linecap="round" stroke-linejoin="round" stroke-width="1.2"/><path d="m86.6048 191.848s-2.577 3.83-9.699 6.649c-7.121 2.82-12.9 3.231-14.648 3.504" stroke-linecap="round" stroke-linejoin="round" stroke-width="1.2"/><path d="m68.6562 215.691c.581-.315 6.898-.387 12.815-2.856 5.918-2.468 10.444-6.171 10.444-6.171" stroke-linecap="round" stroke-linejoin="round" stroke-width="1.2"/><path d="m51.75 355.081s8.755 4.762 21.34 3.485c12.585-1.276 18.6-6.099 18.6-6.099" stroke-linecap="round" stroke-linejoin="round" stroke-width="1.2"/><path d="m114.484 360.853s7.818 2.511 19.259-4.562c11.442-7.073 13.814-12.652 13.814-12.652" stroke-linecap="round" stroke-linejoin="round" stroke-width="1.2"/><path d="m82.5674 372.021s-.26 1.586.485 5.216c.744 3.63 1.621 5.809 2.275 6.74.653.932 1.167 1.495 1.167 1.495" stroke-linecap="round" stroke-linejoin="round" stroke-width="1.2"/><path d="m106.348 210.138s-1.428 1.924-1.863 3.303c-.436 1.38-.775 2.124.097 3.141.871 1.016 6.97 7.635 9.051 9.445 1.525 1.325 3.854.072 6.311-2.161 4.677-4.241 9.651-11.369 11.321-14.582 1.524-2.94.986-5.965.986-5.965s-3.594-7.092-5.01-10.468-3.195-2.378-4.06-1.615c-.865.762-2.378 2.861-2.378 2.861" stroke-linecap="round" stroke-linejoin="round" stroke-width="1.2"/><path d="m105.758 214.119s1.906 1.398 8.398-5.476c6.492-6.873 8.779-10.685 9.923-12.972 1.143-2.287.762-2.886.762-2.886" stroke-linecap="round" stroke-linejoin="round" stroke-width="1.2"/><path d="m128.542 231.265c-.254-.333-.115-.817.279-.956 1.373-.49 4.199-1.603 5.838-2.922.206-.164.4-.339.587-.509 1.077-1.004 1.785-2.063 2.179-2.753.199-.344.683-.375.919-.054l2.015 2.686c.151.2.2.46.127.696-.236.775-.968 2.542-2.922 3.879-1.955 1.337-5.198 2.19-6.45 2.468-.327.073-.66-.048-.859-.314l-1.707-2.227z" stroke-miterlimit="10"/><path d="m135.242 226.881 3.001 3.927" stroke-miterlimit="10"/></g></svg>