<svg fill="none" height="445" viewBox="0 0 247 445" width="247" xmlns="http://www.w3.org/2000/svg"><path d="m121.219 46.8075.136 20.3212c0 1.1813-1.045 2.0912-2.209 1.8996l-1.324-.2155c-1.133-.1836-2.17.6625-2.21 1.8118-.095 2.4424-.247 6.2576-.335 7.5586-.135 1.9795-1.34 2.8175.423 4.3899.989.886 2.297 1.4926 3.238 1.8517.75.2874 1.245.9897 1.245 1.7959-.024 4.6373-.096 19.4833-.112 22.1493-.024 3.16.494 13.624 2.146 16.585 1.659 2.962 13.479 16.61 16.909 19.555 2.345 2.02 6.133 5.484 8.287 7.463.861.79.814 2.155-.104 2.889-.606.487-.853 1.285-.638 2.028.463 1.572 1.5 4.182 3.486 5.3 2.935 1.652 6.325 2.809 9.619 2.402 5.799-.718 7.115-2.937 8.925-4.166.678-.455-.135-1.078-.351-1.868l-.247-.91c-.327-1.205.75-1.74 1.994-1.764 1.795-.024 4.1-.128 5.224-.495 1.994-.654 9.875-7.215 14.11-10.583 4.929-3.927 8.08-7.272 12.858-11.773 3.294-3.105 5.854-7.311 6.5-11.047.646-3.735 1.316-7.638.678-13.744-.51-4.853.479-16.8572-.04-20.848-.119-.9099.981-.1357 1.851-.4151 1.34-.431 3.174-1.1653 3.693-2.147.853-1.6043 1.268-3.7593 1.38-6.6487.031-.7343.039-1.3728.047-1.9156.008-1.2291-1.14-2.147-2.337-1.8677l-1.116.2554c-1.205.2794-2.345-.6385-2.337-1.8756l.127-23.3223c0-.3911-.111-.7662-.335-1.0855-1.81-2.6499-10.456-15.0692-14.261-15.7636-4.259-.7742-5.83-1.1254-13.208 2.3146-7.386 3.4401-10.162 6.7684-15.362 5.8505-5.201-.9178-17.675-9.8971-23.123-10.5037s-6.453-1.9635-10.592 2.1231c-3.55 3.4959-10.29 11.0385-12.156 13.1297-.311.3512-.486.8061-.479 1.285z" fill="#f9fafb"/><path d="m12.6327 114.731s1.3799-2.235-.6859-14.599c-.8535-5.1078-2.01-16.1145-1.0449-18.485.9731-2.3705 1.1964-3.3203 3.1027-3.8471s3.8684-1.6362 4.2832 0c.4068 1.6362.3828 13.4011.9491 15.0134.5743 1.6043 3.7488 13.7127 4.6182 15.5957.8694 1.884 5.7109 12.3 5.7109 12.3l6.9153 7.694s20.371 13.745 24.1117 16.897c3.7408 3.153 5.017 5.659 8.2394 5.994 3.2223.336 11.2144.815 11.2144.815l11.2702.183s2.5284 7.926 2.6002 12.882c.0718 4.957-.4068 12.013-.4068 12.013s-17.9063.846-23.9602 0-10.8634.918-19.1666-9.067c-8.3031-9.985-22.7159-30.227-22.7159-30.227s-5.9741-6.377-9.5713-6.968c-3.6052-.59-6.0699-1.708-7.5295-.973-1.45962.726-7.34598 5.691-8.14359 3.097-.79762-2.594-.02393-7.367-.02393-7.367s2.95115-2.068 5.62315-4.981c2.67197-2.921 4.61017-5.962 4.61017-5.962z" fill="#f9fafb"/><path d="m187.571 211.644s6.412-3.193 9.675-7.327c3.262-4.135 5.463-8.397 5.463-8.397s6.134 2.331 8.407 4.095c2.273 1.756 4.1 3.759 4.1 3.759s-3.478-8.844-.886-13.122c2.601-4.278 6.501-8.229 9.468-7.774s4.642 3.839 4.754 5.515c.12 1.677-1.619 8.182-1.5 9.985.12 1.804.766 7.064 3.972 10.169 3.207 3.105 6.254 4.174 8.591 5.643 2.329 1.469 4.219 1.955 4.267 3.823.04 1.86-2.879 6.537-2.082 8.389.798 1.852 4.307 8.388 4.212 9.179-.096.79-4.603 6.592-5.504 7.862-.901 1.269-1.172 2.099-.702 3.432.471 1.325 1.795 3.2-.742 5.092-2.528 1.891-3.629 3.911-6.612 4.661s-9.292.367-13.136-3.368c-3.845-3.736-9.987-9.762-11.175-12.435-1.188-2.666-2.05-4.015-2.05-4.015s-8.223-6.034-11.007-10.6c-2.784-4.565-7.529-14.558-7.529-14.558z" fill="#f9fafb"/><path d="m83.9705 248.199s-1.5075 2.778-2.0898 4.717c-.5822 1.94-1.7228 5.125-1.7228 5.125s-12.9452 13.6-21.7748 22.723c-8.8295 9.123-19.007 19.06-20.4427 22.133s-2.2892 6.465-2.2812 9.682c.0159 3.216 0 8.772 0 8.772s-1.2283 4.429-1.4038 8.125c-.1755 3.695-1.4118 9.203-1.4038 11.549.008 2.347.7178 6.665.7178 6.665s-.8454 5.946-.2472 10.232 1.3559 11.518 2.9192 13.282c1.5634 1.764 6.0539 4.342 10.1058 4.342 4.0518 0 13.8465-.423 17.5235-2.826 3.677-2.402 7.2024-6.792 7.4178-7.918.2153-1.125.1036-12.427.6301-13.632.5184-1.197.9491-2.435.9491-2.435s.7578-4.23.4148-8.316c-.343-4.087-.9252-7.407-.3829-8.668.5424-1.269 2.4168-2.483 2.5285-3.728.1116-1.245-.335-4.294-.335-4.294s-.2872-.718 1.1326-2.458c1.4197-1.74 19.015-18.996 19.015-18.996l9.1003-8.565s5.049 4.733 5.831 6.457c.782 1.732 6.022 26.715 7.163 32.517 1.14 5.803 3.517 16.051 3.876 17.791.359 1.748.55.958.55 4.422s.144 9.45-.223 12.867c-.359 3.416-.383 6.329.247 7.79.63 1.46 1.372.87.901 2.482-.462 1.612-1.34 4.063-1.531 7.423s-.502 11.046.247 13.984c.75 2.937 1.173 4.453 3.255 5.714 2.081 1.262 9.252 4.095 11.844 4.199 2.6.104 8.255.167 12.18-1.373 3.924-1.541 6.979-4.55 6.979-4.55s-1.085-11.876-.271-14.75c.805-2.881 1.986-4.342 2.504-7.614.518-3.28 1.021-9.211.558-12.866-.462-3.656-.997-10.225-.997-10.225s2.266-5.818 2.258-10.536c0-4.709.701-11.357 0-14.758-.702-3.4-5.791-36.978-6.317-40.841-.527-3.863-2.274-10.313-1.699-11.981.574-1.668.909-2.881.909-2.881s-28.068 3.001-38.301-1.573c-10.234-4.573-20.7542-10.663-24.9896-16.234-4.2432-5.571-5.3439-10.967-5.3439-10.967z" fill="#e5e4e5"/><path d="m30.4584 121.994s-4.3231 2.411-5.5514 3.855c-1.2283 1.445-4.2912 3.863-4.6182 5.923-.327 2.059-.7497 3.575-.7497 3.575s.989 1.333 2.8474 2.546c1.8585 1.214 3.0788 2.547 4.0599 1.748.9731-.798.662-1.923 2.4965-4.437 1.8345-2.515 5.9023-6.05 6.7159-6.425.8135-.376-5.2084-6.785-5.2084-6.785z" fill="#cacacc" stroke="#4e4e4d" stroke-linecap="round" stroke-linejoin="round" stroke-width="1.2"/><path d="m87.2248 152.101s.7099-4.206 2.7039-4.103c1.994.104 7.6012.384 11.0073.455 3.413.072 21.065-.263 26.321-.455 5.256-.191 15.282-.526 15.282-.526l3.813 3.823 2.672 2.195-2.672 2.155s.079 3.033 1.938 4.797c1.858 1.764 4.235 4.398 8.646 4.182 4.411-.215 7.147-.63 8.63-1.692 1.492-1.069 3.127-3.057 3.127-3.057v-3.616l4.434.128s7.873 6.026 9.971 8.94c2.097 2.921 4.594 7.039 6.596 9.617s7.585 8.796 10.449 11.398c2.855 2.602 5.136 3.544 5.455 4.845.311 1.301.112 1.237-1.739 4.278-3.007 4.933-6.843 10.017-10.026 12.491-3.19 2.475-7.928 5.651-9.834 5.124l-4.483-6.105-2.313-2.203s-3.836 16.976-7.489 24.232c-3.653 7.255-10.656 32.07-11.542 36.46-.885 4.39-1.978 10.519-1.978 10.519s-20.889 3.744-30.923 1.724c-10.034-2.019-22.748-4.565-35.2227-17.862-7.8166-8.333-8.7178-14.439-8.7178-14.439s-.3669-1.421 8.1117-12.643c4.9531-6.553 15.5698-28.901 17.7388-36.516 2.162-7.614 3.876-15.811 3.876-15.811s-1.762-.056-7.186.934c-5.4238.981-9.7788 1.732-10.8954 1.46-1.1167-.271-2.7757-1.58-2.7757-1.58l-.8854-4.079h4.2034s1.2363-8.891 0-15.907-2.1934-8.987-2.1934-8.987l-4.0997-.184z" fill="#cacacc"/><path d="m121.349 70.05-5.798-.6625s-.096-31.2959.678-33.9218c.773-2.6259 5.615-12.4992 10.193-17.0168s16.814-18.597107 39.123-16.96088c22.309 1.63623 25.874 5.58712 25.874 5.58712s12.132 6.55286 17.029 14.04766c4.898 7.4947 7.602 12.2757 7.705 14.3669.104 2.0911.168 38.3915.168 38.3915l-5.759 1.3249s.646-24.5833.343-26.5548c-.303-1.9714-7.434-11.8367-11.374-14.2631s-5.759-3.7913-11.525-1.5165c-5.767 2.2747-15.011 7.2872-19.414 7.7421-4.395.455-12.89-2.8813-16.981-6.074-4.092-3.1846-8.654-5.9702-12.515-4.8847-3.86 1.0855-8.494 5.8425-11.485 8.6281-2.992 2.7856-5.719 4.9087-6.477 7.79-.758 2.8814.303 14.1115.151 17.1445-.151 3.033.064 6.8403.064 6.8403z" fill="#cacacc"/><path d="m210.913 48.6431 5.336-3.3443.08 28.5742-5.751 1.3249z" fill="#e5e4e5"/><path d="m121.146 46.0651-5.424-.7663-.16 24.0885 5.791.6625z" fill="#e5e4e5"/><path d="m36.7415 371.954s-8.7099 12.308-9.4198 13.489c-.7098 1.189-2.7358 4.629-2.7358 4.629s10.018.16 14.7239 1.756c4.7139 1.596 14.1098 6.13 15.1467 8.389l1.0289 2.259 7.8405-15.261 5.0409-8.908-.8136-8.005s-6.2373 4.11-9.7149 4.589-11.1107 1.317-13.2483.647c-2.1376-.671-7.8485-3.584-7.8485-3.584z" fill="#cacacc"/><path d="m123.925 404.559-4.347 15.564 15.665 10.496s4.275-7.359 10.058-9.163 12.467-2.594 12.467-2.594l8.773-.112-13.926-12.323s-5.32 2.346-10.712 3.009c-5.392.67-7.8.064-11.414-1.142-3.613-1.205-6.572-3.751-6.572-3.751z" fill="#cacacc"/><path d="m24.5894 390.072s-4.0757 5.938-4.5862 9.386c0 0-.9571 2.499-.4786 4.63.4786 2.131 2.2732 6.409 2.2732 6.409l2.7916 4.334s6.5564 4.11 12.9213 3.903c6.3729-.208 10.0978-.295 13.4876-3.584 3.3899-3.288 9.8824-12.539 11.358-15.508 1.4676-2.961 6.5085-14.199 6.5085-14.199l-.4865-7.136s-8.1038 15.844-9.5075 18.557c-1.4038 2.722-2.8236 5.611-2.8236 5.611s-3.8205-5.331-8.4148-7.391c-4.5862-2.059-8.6541-3.847-13.3679-4.31-4.7139-.471-9.6751-.702-9.6751-.702z" fill="#e5e4e5"/><path d="m119.301 419.62-1.324 5.859s10.855 8.021 14.085 10.2c3.231 2.179 8.997 6.497 12.802 7.399s6.221 1.852 10.497 1.245c4.267-.606 12.267-2.514 14.125-3.536 1.859-1.021 2.943-2.059 2.943-2.059l1.285-4.837-1.628-1.827s.479-4.079-.502-6.114c-.981-2.036-5.033-7.2-5.033-7.2s-4.227-.838-9.675-.016c-5.448.814-10.736 1.844-13.384 3.488-2.648 1.645-4.993 3.424-5.83 4.638-.846 1.221-2.409 4.238-2.409 4.238l-15.944-11.478z" fill="#e5e4e5"/><path d="m200.131 35.1465c-4.945-2.7297-12.115-.3432-16.893 2.3865s-6.652 5.1242-12.794 6.1459c-6.141 1.0216-19.278-5.6351-24.231-5.6351s-8.869 3.073-10.576 4.6134c-1.707 1.5405-1.923 8.708-2.752 11.9485-.83 3.2405-.957 11.9804-.957 11.9804l14.413.4629s-7.291 6.3374-7.123 8.0455c.167 1.708 1.021 3.2405-1.196 4.0945-2.218.854-5.145 2.9053-5.145 2.9053s-.487 18.6127-.997 24.4157c-.511 5.803-1.244 14.511.997 18.27s14.7 22.364 17.428 25.094 4.434 4.613 4.434 4.613-.853 1.198-2.217 3.584c-1.364 2.387-1.364 4.949-1.364 4.949l1.54 5.802s-6.31-1.54-9.045-5.978c-2.728-4.438-12.284-10.583-17.572-12.124-5.288-1.54-10.751-1.876-10.751-1.876s9.898-1.364 11.94-1.021c2.05.343 15.011 0 15.011 0s-16.718-16.394-18.936-20.832c-2.217-4.438-3.238-9.219-3.238-14.343s.343-27.832.343-27.832-4.778.3432-5.12-5.2918c-.343-5.635 0-10.4159 0-10.4159s-.974-27.4807 1.172-34.4407c2.377-7.7102 7.186-16.2665 17.595-23.0907 10.409-6.83229 21.839-9.44227 31.394-10.07282 14.006-.925866 27.637 6.14584 32.926 10.07282 0 0-17.269-4.74909-22.086 1.6761-4.818 6.4332 23.793 21.8855 23.793 21.8855z" fill="#cacacc" opacity=".37"/><path d="m18.2624 77.9999s-2.5603 1.3649-3.5812 4.6134c-1.021 3.2405.6859 17.7587 1.7946 23.5617s2.8155 12.292 4.012 14.511c1.1964 2.218 5.7986 6.489 5.7986 6.489l6.8275 8.364s22.6921 24.248 27.3023 27.489c4.6101 3.24 32.0719 3.073 32.0719 3.073s2.9033 1.197 8.1919 2.73c5.288 1.54 15.864 1.197 22.181 0 6.309-1.198 7.849-1.709 7.849-1.709s-6.995 7.854-11.43 18.095c-4.435 10.24-21.1528 50.028-22.1817 60.612-1.021 10.584 7.1627 25.094 7.1627 25.094s-9.5556-2.562-12.4589-1.54c-2.9033 1.021-26.7837 20.999-34.8077 30.905-8.016 9.905-12.1157 17.24-12.9692 24.926-.8534 7.686.1676 24.416.1676 24.416l-6.8276-14.686s-3.5813 5.124-1.5394 11.78c2.0499 6.657 3.9243 12.803 3.9243 12.803s-2.3849.343-1.8744 2.905 1.8744 10.759 2.5603 11.438c.6859.686 4.7777 1.022 4.7777 1.022s-6.9951 6.832-11.6052 15.364c-4.6102 8.54-5.9742 13.146-5.2882 17.416.6859 4.27 4.2672 10.416 4.2672 10.416l-7.681-2.051-2.2173-5.803s-3.0708-3.584-2.9033-7.343.3429-6.489 4.0917-12.635c3.7568-6.146 12.4587-18.094 12.4587-18.094s-1.8744-3.76-2.2174-9.562c-.3429-5.803-1.0209-11.949-.6859-12.978.343-1.022-.343-7.343-.1675-9.387.1675-2.051 2.5603-14.51 2.7278-18.094s-.5105-12.802 1.1964-16.905c1.7069-4.094 9.7229-12.467 9.7229-12.467s19.8206-19.803 25.6033-25.613c5.7907-5.803 7.8325-8.54 7.8325-8.54l.5105-2.906 2.3849-5.124-2.2174-5.635s13.3042-16.729 16.5504-23.562c3.2382-6.832 5.7982-13.313 7.6812-18.948 1.882-5.635 5.288-21.51 5.288-21.51s-.51-1.708-5.799-1.022c-5.2878.686-12.9688 3.073-12.9688 3.073s-1.7069-1.541-1.8744-3.241l-.1675-1.708s-20.8176.168-24.9094-.854c-4.0917-1.021-8.1914-4.27-12.4586-8.364-4.2673-4.095-10.9193-11.949-15.5295-18.095s-8.8694-12.802-8.8694-12.802l-1.5394 1.708-2.9033-2.051-2.2174-1.541s-1.1964-1.54-1.3639-2.219c-.1675-.686-.5105-1.365-.5105-1.365s-3.0708-2.051-5.9741-2.386c-2.9033-.343-3.75674.511-5.12065 1.54-1.36391 1.022-3.67698 2.315-5.0409 1.804-1.36391-.511-1.45165-3.169-1.45165-3.169s-.1675-3.416 1.70689-5.467c1.87438-2.051 5.63113-4.613 7.84851-8.021 2.2173-3.417 2.5603-8.365 1.5394-12.803-1.021-4.4377-2.0499-13.3611-1.8744-18.8046.1755-5.4434.5105-7.1435 2.5603-7.9975 2.0499-.8541 4.6102.854 4.6102.854z" fill="#cacacc" opacity=".37"/><path d="m162.199 125.267s-.853 3.097-.686 5.148c.168 2.051.686 4.781.686 4.781h-7.505s-3.071-2.73-5.974-5.803c-2.904-3.073-4.611-6.489-4.611-6.489s2.784.91 5.855 1.078c3.071.167 12.227 1.285 12.227 1.285z" fill="#cacacc" opacity=".37"/><path d="m180.855 186.071s2.05 10.927 5.121 14.686c3.07 3.759 8.359 5.803 8.869 5.635s2.217 1.708 2.217 1.708.686 9.905 4.611 12.635c3.924 2.73 4.945 3.073 4.945 3.073s-1.364-1.197.686-3.241c2.05-2.051 6.652-6.489 6.652-6.489s2.728-5.467 1.874-9.131c-.853-3.671-3.238-8.452-1.874-12.036s3.924-7.854 6.141-9.051c2.218-1.197 3.925-1.876 4.268-1.022s-2.218 4.27-3.582 7.854-2.728 7-1.021 11.27 4.634 7.168 4.634 7.168-3.102 2.218-3.956 5.467c-.853 3.241-1.364 7.511 0 10.759 1.364 3.241 2.05 4.095 2.05 4.095s-1.021-1.9-1.539 1.955c-.519 3.855.686 8.804 2.385 10.512 1.707 1.708 2.217 2.562 2.217 2.562s-2.385-.926-2.385 3.041.686 5.843 2.385 7.543l1.707 1.708s-7.338-2.906-10.576-5.803c-3.239-2.905-6.485-7.343-8.192-10.073-1.707-2.729-1.707-3.759-1.707-3.759s-4.777-1.54-9.555-8.197-9.213-16.219-9.213-16.219-1.196 1.708-2.903.687c-1.707-1.022-3.581-4.095-3.581-4.095s-1.875-2.73-3.071-2.905l-1.196-.168 3.581-20.145z" fill="#cacacc" opacity=".37"/><path d="m99.8125 288.858s18.9355 11.27 21.4955 12.978 4.945 5.467 6.485 9.051c1.539 3.584 9.212 31.759 11.262 35.51 2.05 3.76 6.827 12.803 6.827 12.803s-1.706 2.562-3.413 7c-1.707 4.437-3.239 20.999-3.414 28.342-.168 7.343.51 11.781 1.196 12.978l.686 1.198s-.686-1.198-1.707 2.219c-1.021 3.416-1.021 5.802 1.021 8.364 2.05 2.562 8.016 5.635 10.92 7.511 2.903 1.876 5.974 7 6.652 8.708s0 7.686 0 7.686-8.016 1.197-10.409.854c-2.385-.343-18.449-11.781-18.449-11.781l-11.414-6.313 5.974-21.343s-2.384-3.24-2.56-8.197c-.167-4.949 1.875-19.802 1.875-19.802s-1.197-.168-1.021-6.314c.167-6.146 0-19.978 0-19.978s-1.875-5.124-2.728-11.094c-.854-5.978-3.239-19.978-5.288-28-2.05-8.021-4.092-12.124-4.092-12.124l-9.8985-10.24z" fill="#cacacc" opacity=".37"/><path d="m198.301 66.5464s-5.798 6.9839-5.798 8.652c0 1.6682 1.3 2.602 1.3 2.602l-6.23-.5666-3.581-10.6874z" fill="#cacacc" opacity=".37"/><path d="m87.2267 152.101s0-3.201 2.7039-4.103c.1835-.064 1.3879 4.286 1.3879 4.286l-4.0997-.183z" fill="#4e4e4d" opacity=".71"/><path d="m89.7422 178.049 3.2941-1.07s.0638 2.315 0 3.911c-.0638 1.605-2.7278 2.155-2.9272.511s-.3669-3.352-.3669-3.352z" fill="#4e4e4d" opacity=".48"/><g stroke="#4e4e4d" stroke-linecap="round" stroke-linejoin="round" stroke-width="1.2"><path d="m120.168 84.8401c-1.459 0-3.453-.6625-4.49-2.2588-1.029-1.5964-.295-3.8152-.351-6.074-.048-1.9156-.072-5.2599.231-7.1116.056-.3353.096-.6386.12-.9179.087-.9259-1.532-29.7554 1.332-35.6379 2.871-5.8824 15.362-32.357385 51.374-31.32776 36.012 1.02963 47.474 31.18416 47.769 33.97766.295 2.7936.143 21.0315 0 23.3861-.144 2.3546.167 15.0054.167 15.0054l-5.759 1.325s.694-24.9346.144-26.3313c-.981-2.4983-9.699-15.8834-16.925-17.0328-6.19-.9817-16.846 8.9155-27.127 8.9474-15.202.0479-21.799-17.9506-32.822-8.3887-3.796 3.2964-11.972 11.278-12.642 13.6805-.67 2.4184-.072 13.7683.072 16.4182s.072 7.5585.072 7.5585l-5.799-.6624"/><path d="m120.035 78.1914c.582 6.6487-.144 29.9626 0 37.1146.096 4.685.933 8.381 4.522 13.704 3.59 5.324 22.198 23.147 24.463 24.48 2.257 1.333 13.44 2.642 16.925 2.769 5.265.192 6.413 1.23 11.334-1.692 4.922-2.921 21.001-17.487 26.393-22.891 4.403-4.414 5.839-10.344 5.775-16.905-.056-5.611.191-27.2571-.207-31.7747"/><path d="m27.6641 137.886c.7976 1.596 9.9541 14.023 12.7458 17.998 2.7916 3.983 7.5773 9.299 9.9701 12.228s4.6501 4.789 6.7797 5.986c2.1296 1.198 6.6441 2.53 10.1057 2.93 3.4537.399 22.3969.55 26.2494.151"/><path d="m91.3145 152.285c-4.5943 0-14.6362-.583-19.2703-.663-2.002-.032-3.4616.663-9.3081-4.525-3.7328-3.313-9.0369-6.785-11.5654-8.517-2.5284-1.732-13.2961-8.78-15.5534-10.911-2.2572-2.131-5.982-6.122-6.7797-8.38-.7976-2.259-4.9212-10.376-5.8464-12.907-.9333-2.53-2.6561-8.516-3.1905-11.972s-1.5952-9.1788-1.4596-11.5733 1.1964-5.3237-1.1964-5.5871c-2.3929-.2634-5.5434 1.3409-6.03 3.3842-2.64804 11.0385 3.677 25.4532 1.5155 34.0892-.4227 1.676-9.30813 8.82-10.23336 10.943-.9332 2.131-.9332 4.254-.66201 5.723.26321 1.46.79761 2.929 4.12364 1.46 3.32604-1.46 3.58925-4.254 8.63813-2.53 5.0489 1.732 4.6501 1.597 5.0489 2.794"/><path d="m214.063 214.182c.933-3.329 1.826-7.224 1.164-10.416-.662-3.193-4.419-13.681 4.124-19.555 3.103-2.131 7.713-2.794 8.638 1.197s.933 5.451 0 8.245-1.061 4.526-.798 6.521c.264 1.995 3.342 9.474 7.059 11.47"/><path d="m241.804 242.341c-3.725 2.131-7.314 2.53-11.565 2.395-4.252-.136-7.649-.296-10.306-1.756-2.656-1.461-7.481-3.624-9.1-5.691-1.229-1.572-4.275-4.374-5.049-6.098-.391-.878-1.197-2.403.933-4.542"/><path d="m241.805 226.386c-3.326.654-11.031 2.921-13.695 3.049-2.656.135-6.915.534-10.903 0-3.988-.535-10.616-1.078-11.031-5.053-.479-4.493 1.005-4.342 3.262-6.337s6.54-5.491 7.769-6.968c2.113-2.546 5.009-3.209 8.111-2.259 2.098.639 9.835 3.193 12.627 4.526 2.791 1.333 6.213 3.328 5.982 6.521-.375 5.188-3.59 4.789-1.332 8.38 2.257 3.592 3.916 3.608 3.326 8.118-.184 1.42-2.656 4.789-4.124 5.986s-3.055 2.259-1.994 4.526c1.061 2.266.231 4.637-2.161 6.105-2.393 1.469-4.722 5.133-10.17 4.334-5.448-.798-8.67-4.445-11.996-7.774-3.326-3.328-6.915-7.846-7.976-9.713-1.061-1.868-.559-4.366.51-5.699"/><path d="m220.533 212.681c-.798 2.259-2.257 6.785 0 10.64"/><path d="m221.202 231.191c-.662 1.445-1.172 4.102-.239 6.234.933 2.131 1.037 1.197 1.571 2.53"/><path d="m223.702 246.867c-.367 1.596-2.473 5.196 1.627 7.447"/><path d="m203.672 196.255c2.528.799 8.494 3.52 11.549 7.511"/><path d="m188.062 212.681c1.333 2.658 4.555 11.174 8.679 15.564 4.123 4.39 8.008 7.583 10.185 9.179"/><path d="m156.334 95.8146s-.287 2.6259.59 4.9804c.886 2.355 2.305 4.709 10.409 4.558 8.112-.144 10.17-1.174 11.342-3.089 1.173-1.916.885-5.8827.439-6.617"/><path d="m183.977 67.1131s7.218-.7582 12.49-.7502c4.85 0 7.203 3.6954 7.203 3.6954"/><path d="m147.259 67.121s-12.65-.9977-15.657-.2634-4.211 3.0011-4.211 3.0011"/><path d="m193.8 77.8003c.718 0 1.3-.5825 1.3-1.3011 0-.7185-.582-1.301-1.3-1.301s-1.3.5825-1.3 1.301c0 .7186.582 1.3011 1.3 1.3011z" fill="#4e4e4d"/><path d="m141.131 76.4992c0 .7184-.582 1.3011-1.3 1.3011-.717 0-1.3-.5827-1.3-1.3011 0-.7183.583-1.301 1.3-1.301.718 0 1.3.5827 1.3 1.301z" fill="#4e4e4d"/><path d="m209.742 87.4023s2.457-.1436 4.068-1.4686c1.619-1.3249 2.106-2.2029 2.52-5.2918.415-3.0888 0-6.7684 0-6.7684"/><path d="m149.024 153.482-2.672 2.155s1.044 8.413 10.584 8.979c9.308.551 11.757-4.757 11.757-4.757v-3.28"/><path d="m146.344 151.287s-4.978 2.754-4.914 6.282c.064 3.527 3.885 10.44 13.44 11.764 9.555 1.325 15.043-3.24 16.901-5.738 2.648-3.536.862-6.593.862-6.593"/><path d="m142.852 122.617s11.262 2.81 25.172 2.81c12.411 0 19.286-2.179 19.286-2.179s-9.715 12.379-11.844 12.555c-2.489.207-16.606-.671-19.542-.663-2.775 0-13.072-12.523-13.072-12.523z"/><path d="m141.834 147.488s-14.396.463-24.454.902c-12.507.55-27.2706-.391-27.2706-.391s3.318 7.399 3.7248 15.508c.8295 16.33-1.986 19.06-1.986 19.06 2.5683 1.349 14.1658-2.163 19.1988-2.115"/><path d="m112.246 170.243c-.399 4.191-1.172 31.312-25.1724 66.048-1.9542 2.825-7.1785 7.782-5.3839 10.775s7.1466 18.765 30.9073 27.736c17.141 6.473 43.446 2.163 43.598 1.181.981-6.177 3.206-16.968 4.705-21.662 3.757-11.804 7.474-21.821 9.699-27.672 3.677-9.65 9.803-32.15 9.795-41.041"/><path d="m82.9094 249.668c-1.1326 3.153-1.2522 4.645-2.7517 8.373-1.1964 1.859-38.5485 39.644-40.5426 42.438-1.994 2.793-3.326 4.525-3.5892 8.245-.2632 3.727-.662 10.512 0 13.832.662 3.328 1.1964 4.925 2.9272 7.982"/><path d="m35.6553 320.297c-.5663 3.728-1.2284 11.973-1.7628 13.705s-1.332 7.981-.9332 10.639 1.1326 5.723 2.696 7.583"/><path d="m33.5795 347.682c-.6062 3.743-.4546 9.594 0 12.387.4546 2.794 1.3799 8.597 2.672 11.127s5.9103 5.012 18.1217 4.174c12.1636-.838 17.1486-9.179 17.1486-11.709s-.2632-7.183 0-9.314c.2633-2.132.1356-3.057.9332-4.39.7977-1.333 1.2443-7.032.8455-9.554-.3988-2.523-.4546-7.471-.3828-8.668l.2632-1.198s1.4676-.351 2.0498-1.732c.6142-1.476.1596-3.982.1596-3.982-.9332-1.198.8853-3.608 3.0548-6.122 2.337-2.706 10.7678-11.039 13.025-13.034 2.2572-1.996 10.6319-9.578 12.8969-11.973"/><path d="m99.0391 288.906c2.3929 1.859 10.7919 9.777 11.7009 12.235 1.3 3.528 8.375 40.97 9.173 44.298.797 3.329 1.994 6.521 1.858 9.443-.136 2.929.287 9.043.008 11.174s-1.396 8.78.096 10.24c1.491 1.461.638 2.658 0 4.127-.638 1.468-.774 6.521-.902 8.38-.135 1.86-.135 10.776 1.197 13.569 1.332 2.794 5.312 4.526 8.51 5.723 10.106 3.767 25.516-1.054 25.149-5.611-.495-6.098-1.125-9.347-.423-13.808.399-2.531 2.393-6.521 2.792-8.78s.662-10.241 0-14.104c-.662-3.855-.798-7.981-.263-9.578.534-1.596 2.377-6.648 1.611-20.855-.933-17.408-9.316-54.547-6.923-58.386"/><path d="m141.906 352.224c.989 3.695 3.917 7.055 6.788 9.218"/><path d="m157.769 356.877c-.774 2.801-3.574 12.778-6.628 15.835"/><path d="m123.919 404.559c-1.037 3.959-5.95 18.046-5.95 20.92 0 .678 18.6 13.361 20.004 14.135 1.866 1.03 10.137 8.253 27.789 2.538 4.043-1.309 6.644-2.394 7.178-4.525s1.404-3.951 0-5.053c-.941-.742-.718-3.033-.798-4.126-.35-4.661-4.985-9.179-8.438-12.507-2.664-2.562-8.822-7.567-11.087-9.506"/><path d="m139.453 413.682c2.457-1.812 6.014-3.639 12.251-2.849"/><path d="m141.906 416.739c1.859-.934 6.214-3.057 12.435-2.347"/><path d="m119.578 420.123c3.31 2.115 23.011 17.528 29.966 17.991 7.386.486 23.099-2.483 22.517-7.016"/><path d="m135.242 430.619c5.536-13.282 28.419-12.467 31.298-11.861"/><path d="m36.7432 371.954c-1.2203 1.78-6.3011 8.309-7.984 11.095-1.8026 2.985-5.5833 9.378-6.692 11.373-3.0628 5.508-3.4935 11.175-.7976 13.769 3.6371 3.504 9.0529 4.19 11.9083 4.789 2.8475.598 8.2154.854 13.2164-1.293 7.0509-3.025 9.5873-9.052 11.1666-12.148 2.3609-4.622 10.8156-21.232 10.8156-21.232"/><path d="m67.5617 370.302c.1834 1.82 1.1406 9.33 1.2044 10.751.1037 2.498.1037 4.39-.662 6.689-.3829 1.141-4.7618 10.376-6.5564 13.369s-6.7797 10.695-8.5743 12.435c-1.7946 1.732-5.9821 4.526-9.8744 5.124-3.8924.599-8.8695-.303-11.4697-.894-2.6002-.59-7.2263-2.171-8.327-4.366s-2.9592-5.355-3.3101-7.183"/><path d="m24.5859 390.072c2.9671.24 9.6432.359 14.7239 1.756 5.0808 1.397 15.1467 5.46 16.1756 10.648"/><path d="m34.6328 379.258c2.5922-.4 5.8704-.711 9.9701 1.795"/><path d="m33.1719 383.248c3.8126-.407 6.7159-.407 9.5314 2.195"/><path d="m49.4531 328.016c3.9881-.727 6.0379-1.629 10.01-3.345"/></g><path d="m29.5625 120.701c2.3928-.135 5.4636 1.732 6.1576 2.666 1.1246 1.525 2.4486 3.887 1.8345 5.859" fill="#4e4e4d"/><path d="m29.5625 120.701c2.3928-.135 5.4636 1.732 6.1576 2.666 1.1246 1.525 2.4486 3.887 1.8345 5.859" stroke="#4e4e4d" stroke-linecap="round" stroke-linejoin="round" stroke-width="1.2"/><path d="m36.4805 128.396c-1.9462.742-7.5055 4.334-9.0529 10.44-.2393.949-1.4676 1.38-2.5842.646-1.1167-.734-4.6182-2.793-5.3042-4.134-.6859-1.341 0-2.211 0-2.211 4.0519-7.782 8.71-9.778 10.9114-11.135l6.0219 6.41z" stroke="#4e4e4d" stroke-linecap="round" stroke-linejoin="round" stroke-width="1.2"/><path d="m87.2266 152.101s.1834-1.915 1.0608-3.208c.678-.99 1.6431-.894 1.6431-.894" stroke="#4e4e4d" stroke-linecap="round" stroke-linejoin="round" stroke-width="1.2"/><path d="m89.3125 177.179s.1436 2.602.8853 4.079c.7339 1.468 1.6591 1.309 1.6591 1.309" stroke="#4e4e4d" stroke-linecap="round" stroke-linejoin="round" stroke-width="1.2"/><path d="m173.117 156.379s8.646 7.718 9.97 8.939 2.329 3.249 3.949 6.026c1.619 2.778 12.155 16.123 17.85 19.132 1.866.99.112 3.257-1.037 4.973-2.552 3.815-6.843 9.833-10.696 13.082-2.632 2.219-8.574 6.066-9.571 4.142-.997-1.923-4.188-7.319-6.381-7.918" stroke="#4e4e4d" stroke-linecap="round" stroke-linejoin="round" stroke-width="1.2"/></svg>