<svg fill="none" height="403" viewBox="0 0 153 403" width="153" xmlns="http://www.w3.org/2000/svg"><path d="m25.8677 95.6086c-.153 4.4854-.3642 9.9244 1.4568 12.5564 1.821 2.631 15.0344 15.602 19.8928 19.564 4.8585 3.963 6.7669 5.722 8.4714 6.282s3.103.836 3.103.836l-1.2601 6.078s-.3278 2.21.2476 3.119c.5755.909 4.0209 5.264 7.2696 5.264s10.5327-.495 12.2154-2.269c1.6826-1.774 1.9521-4.107 1.9521-4.107l-2.4912-8.071s1.0854.822 8.0926-5.329c7.0073-6.15 16.3823-13.966 18.9823-17.274s4.647-7.525 4.574-13.4359c-.072-5.9108-.539-21.484-.539-21.484s1.741-.4871 2.681-1.854c.94-1.3668 1.945-5.9108 1.945-5.9108l-.408-8.6954-4.873 4.3913s-.066-4.2386.663-11.2982c.728-7.0596 1.464-11.5236-.7-14.3227-2.163-2.7991-15.8279-13.2394-17.729-13.9664-1.9011-.7271-6.3007 2.8354-10.2924 5.4455s-10.8241 4.2241-16.2144 2.9663c-5.3902-1.2578-6.9781-2.6246-11.334-5.351s-6.4464-3.1626-6.4464-3.1626l-1.5442.2181-10.6858 7.4231s-7.4734 5.8308-7.3132 7.8593c.1603 2.0284.3278 8.5645.59 10.9056l.947 11.3782s-1.4569-.0437-2.5203-.618c-1.0635-.5744-3.2487-3.2208-3.2487-3.2208l.8158 10.0331c.102 1.2724.5754 4.8276 1.974 5.4747 1.3985.647 2.3891.6761 2.3891.6761l-.6555 19.8627v.0364z" fill="#f9fafb"/><path d="m18.4454 182.388s7.976.756 12.6597 1.876c4.6837 1.119 7.5827 2.108 7.5827 2.108l-.3715 2.436s5.6525-2.276 6.41-2.225c.7576.051 8.9157 1.927 8.9157 1.927l9.076 3.17 12.3028 2.755s13.0167-8.841 14.3861-10.171c1.3694-1.331 8.8866-8.819 9.7679-8.099.8812.719 1.2092 2.77 1.2092 2.77s2.411-3.367 4.014-2.77c1.602.596 2.935 3.533 2.877 3.984-.059.45-.612 2.239-.612 2.239l10.54-4.195s9.812 26.101 8.581 35.196-2.717 13.988-6.491 14.839c-3.773.85-12.171 1.09-16.6-.923-4.4287-2.014-22.8137-13.502-22.8137-13.502s-11.0499 7.598-14.5973 9.328c-3.5473 1.731-18.6181 8.623-26.0333 9.096-7.4152.472-16.5421 2.551-19.8637-3.069-3.3215-5.62-5.9074-13.595-5.3683-20.858.539-7.263 4.436-25.912 4.436-25.912z" fill="#f9fafb"/><path d="m41.0112 242.906s-.4808 23.854-.5245 28.449-3.4089 16.846-3.8824 19.143c-.4735 2.298-7.5754 20.292-7.8886 22.051-.3133 1.76.0437 3.744.0437 3.744l-1.9449 7.162s-6.4318 14.286-6.1915 16.104c.2404 1.817 1.3257 3.926 1.3257 3.926l-.539 3.635s-2.4766 7.888-2.3163 9.677c.1602 1.788 1.18 4.115 3.2196 5.3 2.0395 1.185 12.2081 6.623 17.3215 6.972s10.3798 1.825 12.3174-.014c1.9375-1.84 3.4672-3.199 3.9698-4.842s1.2529-7.932 1.3767-9.212 1.2091-5.235 1.7773-7.808c.5682-2.574.2549-8.718.3205-10.128s.5973-3.366 1.282-4.842 2.6951-6.238 2.7461-7.336.2768-8.39.7357-11.676 5.1935-26.523 6.4391-31.19c1.2456-4.668 2.462-9.001 2.462-9.001l6.7961-1.541s3.4235 12.207 3.9625 14.206 7.9397 30.732 8.7919 34.149 2.8918 10.949 2.8335 13.283-1.7263 9.328 0 12.193c1.7263 2.864 3.1176 4.296 2.9646 6.078-.1529 1.781-.8813 4.987.2987 7.517s-.0656 3.752 1.2091 5.62c1.2745 1.869 5.8855 4.792 10.2925 4.981s12.783.668 15.537 0c2.753-.669 7.058-1.142 9.2-3.083 2.141-1.941 3.984-3.992 3.11-5.955s-2.586-5.445-2.651-6.826c-.066-1.382-.306-3.897-.576-4.952-.269-1.054-8.748-24.537-8.471-26.689s.714-4.777 0-7.169-13.017-36.505-13.017-36.505-5.864-17.667-6.068-18.706c-.204-1.04-3.7-18.525-3.7-18.525s-1.34 2.719-11.5888 5.242c-10.2487 2.522-11.4506 3.489-21.9834 3.453s-13.3663 0-20.3007-2.079c-6.9345-2.08-8.7045-4.835-8.7045-4.835z" fill="#e5e4e5"/><path d="m65.1701 195.99s.2039 1.287-1.2311 3.635c-1.4349 2.349-3.2632 4.908-3.2632 4.908s3.2341 2.494 5.0478 2.835c1.8138.342 3.7149.291 3.7149.291s1.4059-1.541 2.7898-3.984c1.384-2.443 1.6462-4.704 1.6462-4.704v-2.981s-2.0541 1.811-3.8678 1.433c-1.8138-.379-4.8439-1.433-4.8439-1.433z" fill="#cacacc" stroke="#4e4e4d" stroke-linecap="round" stroke-linejoin="round" stroke-width="1.2"/><path d="m70.8073 189.753c-2.4984-.865-4.3486-.705-5.4995.582s.1967 7.139 4.7055 7.088c4.5089-.051 3.9116-2.159 3.8679-4.064s-3.0739-3.606-3.0739-3.606z" fill="#4e4e4d" stroke="#4e4e4d" stroke-linecap="round" stroke-linejoin="round" stroke-width="1.2"/><path d="m17.1753 186.576s-3.5983-2.45-3.1103-3.694c.4881-1.243 2.1707-4.616 3.9043-7.59 1.7336-2.973 11.6327-18.292 14.3424-20.568 2.7096-2.275 6.1113-4.922 11.2611-7.794 5.1499-2.871 13.7888-7.299 13.7888-7.299s-.6483 2.93.4225 4.428c1.0707 1.497 4.3923 5.358 7.2695 5.263 2.8772-.094 7.7211.197 9.9646-1.039s4.0937-3.287 4.0937-3.287.7138-2.37.4589-3.148c-.255-.778-.4589-1.454-.4589-1.454s18.7419 8.514 21.1021 10.644c2.36 2.13 11.829 12.454 14.153 15.799 2.323 3.344 6.876 9.626 6.679 10.629-.196 1.003.685 1.985-.684 2.69-1.37.705-2.317 0-2.317 0l-.91-1.898-10.482 4.137s.954-3.024.24-4.478c-.713-1.454-2.389-2.763-3.35-1.752-.962 1.01-2.586 2.035-2.586 2.035s-.889-2.784-2.3238-2.174c-1.435.611-3.8096 3.098-3.8096 3.098s-5.7544 5.423-11.1883 9.204-8.1582 5.664-8.1582 5.664.1166-1.898-3.1831-3.439c-3.2997-1.542-4.5089-2.487-6.1405-.785l-1.6389 1.701s-5.4339-1.025-9.1852-2.37-6.4465-2.676-9.4985-2.727-7.1457 1.949-7.1457 1.949l.3351-2.254s-.3861.632-3.0739-.633-7-1.984-10.7731-2.522c-3.7732-.538-6.4683-.524-6.4683-.524l-1.5369 4.188z" fill="#cacacc"/><path d="m39.6413 231.914s14.4516-3.802 18.2539-5.452c3.8023-1.651 18.9678-10.819 20.1332-11.393 1.1655-.574 1.8429-1.251 1.8429-1.251s7.2331 5.388 9.6951 6.922 12.8496 6.463 12.8496 6.463l1.973 12.193s.933 3.642-8.6384 5.925c-9.5713 2.283-25.6327 4.784-31.5838 4.508-5.9511-.277-11.924-.647-16.3309-2.894-4.4069-2.246-8.1873-5.387-8.1873-5.387s-.3205-4.653-.1238-6.275c.1966-1.621.1238-3.344.1238-3.344v-.015z" fill="#cacacc"/><path d="m113.582 36.8281s-1.296-6.8197-1.864-9.1389c-.568-2.3193-4.99-8.5573-6.578-10.3458s-12.5867-10.03319-12.5867-10.03319c-4.1446-2.93724-19.1935-6.0417-26.4193-6.1871-7.2258-.145412-14.6629 2.41377-21.2987 4.89297-6.6358 2.47921-16.4911 12.87592-19.2664 16.78732-2.7752 3.9115-2.6878 5.4601-3.3142 8.1865s4.6618 8.6809 4.6618 8.6809 1.6243-2.4865 2.1561-3.199c.5317-.7125 6.7742-6.0562 9.9865-8.1865 3.2122-2.1302 4.1009-2.4937 6.5993-2.6755 2.4985-.1817 6.0677 3.2135 10.5255 6.238 4.4579 3.0245 13.5557 3.9188 17.6858 1.8394 4.13-2.0793 10.6711-5.9399 13.5265-7.7139 2.8554-1.7739 4.9969-.3562 8.9157 3.2063 3.9191 3.5625 11.0571 10.5057 11.6111 11.938 0 0 1.522-.3853 2.979-1.4396 1.457-1.0542 2.666-2.8427 2.666-2.8427h.014z" fill="#cacacc"/><path d="m21.3444 59.5551s2.1779 2.8645 3.2487 3.2208c1.0708.3562 2.5349-.5671 2.5349-.5671s-.692-6.0344-.9615-10.1931c-.2696-4.1587-1.5078-7.7357-.5099-9.6696.9979-1.934 1.2747-2.6828 1.2747-2.6828s-1.3694-1.7595-2.7898-3.9842-1.872-4.6967-1.872-4.6967-.8086 5.5037-.9178 8.0774c-.1093 2.5738-.2622 11.4727-.2695 12.5415-.0073 1.0687.2695 7.9538.2695 7.9538z" fill="#e5e4e5"/><path d="m107.938 41.1104s1.704-.0291 2.979-1.4396c1.275-1.4104 2.666-2.8427 2.666-2.8427s-.736 4.7912-.401 6.4052c.335 1.6141-.415 15.1225-.735 15.9222-.321.7998-.408 1.7304-.408 1.7304l-4.138 3.8315-.713-1.3305s.196-5.9181.641-10.8983c.444-4.9803.109-11.3855.109-11.3855z" fill="#e5e4e5"/><path d="m22.6832 362.33s-3.1467 1.541-6.4246 4.108c-3.2778 2.566-5.9656 5.285-5.9656 5.285s5.1571 1.215 7.8012 2.123c2.6441.909 9.666 4.37 11.2102 5.613s5.281 4.711 6.512 6.892c1.231 2.182 1.8356 3.512 1.8356 3.512l11.1592-7.256s-2.9282-3.584-1.3403-6.449c1.5879-2.864 4.487-7.088 4.487-7.088s-3.4308.792-9.5422 0c-6.1113-.793-10.2851-2.4-12.6888-3.207-2.4038-.807-7.051-3.526-7.051-3.526z" fill="#cacacc"/><path d="m106.641 369.062s2.447 2.508 2.403 5.256c-.043 2.748-1.129 8.746-1.129 8.746l9.025 8.703s5.114-9.161 7.488-10.738c2.375-1.578 5.15-4.515 7.612-4.879 2.462-.363 11.138-2.305 11.138-2.305l-5.748-4.791-2.469-2.624s-4.669 2.93-7.925 3.366-14.211-.371-14.211-.371l-6.184-.371z" fill="#cacacc"/><path d="m53.3212 367.885s-2.8117 3.264-3.9771 5.147c-1.1655 1.883-2.7461 4.711-2.2363 6.071.5099 1.36 1.6972 3.497 1.6972 3.497l-11.1592 7.256s-1.7044-6.762-8.3475-10.397-11.2248-5.714-13.9053-6.427c-2.6806-.712-5.1062-1.308-5.1062-1.308s-2.38914 2.704-3.72213 4.107-1.78461 2.792-2.36733 4.341c-.58273 1.548-.69199 3.25-.69199 3.25l-1.86473 1.337.35693 5.206s4.86576 4.798 9.72425 7.394c4.8585 2.595 11.6764 5.227 14.3059 4.798 2.6296-.429 8.2529-2.842 8.2529-2.842l19.0406-14.228 1.7846-2.174s.0655-5.613-.3497-8.681-1.4349-6.347-1.4349-6.347z" fill="#e5e4e5"/><path d="m106.64 369.062s2.33 5.177 2.236 6.769c-.095 1.592-.962 7.227-.962 7.227l-.153.836 9.178 7.866s2.455-6.616 6.527-9.866c4.072-3.249 9.68-6.027 12.099-6.47 2.418-.444 7.888-.756 7.888-.756s4.64 4.791 5.187 5.743c.546.953 1.762 4.632 1.762 4.632l1.428 2.646-1.391 6.434s-6.01 5.017-10.03 6.246c-4.021 1.228-7.161 2.21-10.985 1.832s-7.896-1.585-10.321-3.156c-2.426-1.57-9.164-7.285-9.164-7.285s-9.076-8.993-9.076-9.866v-5.743l1.457-3.955.124-4.893 4.188 1.752z" fill="#e5e4e5"/><path d="m43.5776 25.8272s2.2581 1.6577 7.1603 5.1547c4.9021 3.4971 10.8095 8.0847 17.591 7.4086 6.7815-.6762 16.3018-1.3523 21.0728 0 4.7711 1.3523 7.204 7.6266 7.204 9.4515s-.102 9.9895-.102 9.9895l-13.4901.7198s4.9313 1.0542 6.3881 5.6855c1.4569 4.6312.9178 4.6312.9178 4.6312s6.2862.8361 7.7066 3.2644 3.6639 17.6089 3.4529 22.8727c-.211 5.2639-1.275 12.9559-5.7401 20.6479-1.9011 3.272-12.1062 14.846-12.1062 14.846s21.3133-18.91 22.6463-21.36 2.149-6.849 2.083-11.2984c-.065-4.4495-.539-20.4953-.539-20.4953s1.676-.349 2.681-1.854c1.005-1.5049 1.537-5.9108 1.537-5.9108v-8.6954s1.93-21.8694.444-29.9104c-1.486-8.0411-5.084-12.0907-9.702-16.0385-4.6185-3.9479-14.401-10.30946-19.1575-11.58178s-9.7534-2.31926-9.7534-2.31926 16.2945 5.69999 16.9792 10.15674c.6847 4.4568-1.8502 13.3048-3.5765 14.4245-1.7263 1.1196-6.0749 4.8712-9.9719 6.5433-3.897 1.6722-4.05 3.4099-10.2196 2.661-6.1696-.7488-10.7586-2.7118-14.1894-5.1402-3.4308-2.4283-5.9729-4.0641-5.9729-4.0641l-3.3507.2036h.0073z" fill="#cacacc" opacity=".37"/><path d="m36.9838 59.1616 13.7524.1745s.4443 9.3061-1.384 9.5315c-1.8283.2253-6.2352 0-6.2352 0l-1.3111-2.4065s1.3694-.8361 0-4.0497c-1.3694-3.2135-4.8293-3.2571-4.8293-3.2571z" fill="#cacacc" opacity=".37"/><path d="m76.3249 82.4922s.386 5.2274-2.4475 6.8487-12.4047 2.3702-12.4047 2.3702 9.1488 2.2901 12.4047 2.8936c3.256.6034 6.3008-.2036 7.1093-3.8461.8085-3.6424-4.6618-8.2664-4.6618-8.2664z" fill="#cacacc" opacity=".37"/><path d="m69.4051 135.531s2.0905 4.421 1.872 7.46-2.95 6.325-2.95 6.325 7.051-2.428 8.2383-1.745 1.7481 3.861 1.7481 3.861.2623-.066 5.3247 0c5.0624.065 14.4006 8.361 17.8458 12.614 3.446 4.253 5.172 10.527 5.172 10.527l-.291 2.545s1.136 1.97.925 3.039c-.212 1.069-.634 2.239-.634 2.239l3.853-2.239s7.19 13.254 8.209 25.795c1.02 12.542-2.418 14.977-4.96 15.377s-8.53-1.418-18.0137-5.06c-9.4838-3.642-16.3163-10.869-18.8075-14.468-2.4911-3.599-3.052-5.802-3.052-5.802s.6702 1.789-2.6077 1.382c-3.2778-.408-6.1623-2.581-6.1623-2.581s-3.4891 3.278-6.5775 4.173c-3.0885.894-9.9865.218-13.2352-.858s-6.9854 0-6.9854 0l1.2091 7.736s5.5505-.066 8.3111.014c2.7607.08 8.6827-.792 8.6827-.792s5.565 1.679 4.1738 5.125c-1.3913 3.446-2.7607 5.06-7.0437 7.489-4.2831 2.428-21.5609 8.099-29.049 6.478-7.488-1.622-9.5421-4.13-9.5421-4.13s1.6025 8.332 5.5432 10.222c3.9407 1.891 13.8033 2.756 19.0479 1.658 5.2445-1.098 17.4235-3.512 23.3017-4.719 5.8783-1.206 13.5484-3.235 18.1301-1.817s12.4922 6.478 12.3902 11.538-4.2903 10.2-8.1217 10.826c-3.8315.625 8.1217-1.753 8.1217-1.753s8.5513 32.426 10.9193 39.508c2.367 7.081 10.474 25.911 10.882 30.565.408 4.653-.102 6.274 1.675 12.148 1.778 5.875 3.417 10.528 3.912 12.956.495 2.429 7.204 16.431 6.184 21.172-1.02 4.74-4.064 7.103-4.064 7.103s7.509 4.951 12.579 9.793 7.342 11.48 7.219 13.625c-.124 2.145-1.151 7.023-1.151 7.023s8.449-4.733 8.828-5.758 1.005-8.056 1.005-8.056l-1.194-1.57s0-2.298-2.426-5.271c-2.426-2.974-12.871-12.789-12.871-12.789s4.05-.48 3.191-4.108c-.86-3.628-2.739-8.71-2.739-8.71s.444-1.316-.532-4.762-9.01-24.276-8.755-25.933c.254-1.658 1.638-4.697-.481-10.557-2.12-5.86-7.816-21.324-10.089-27.787-2.272-6.464-5.441-14.221-7-20.35-1.558-6.129-4.96-23.135-4.96-23.135l.794-1.73-1.974-12.192s11.785 2.951 15.122 1.585c3.336-1.367 8.092-3.374 8.063-11.888-.029-8.513-2.877-22.632-4.742-29.336-1.865-6.703-2.513-6.703-2.513-6.703l2.513-2.392s-1.063-7.51-8.741-15.486c-7.677-7.975-11.123-12.868-18.647-16.438-7.5245-3.57-14.3569-6.151-14.3569-6.151l-2.1853-5.831-7.5171.974z" fill="#cacacc" opacity=".37"/><path d="m30.7981 183.907s4.9604-4.195 6.1842-7.881c1.2237-3.686 1.3329-7.735 1.3329-7.735s3.1395-3.847 5.5724-1.622c2.4328 2.225 2.7461 15.719 2.7461 15.719v3.977s-.4444-.531-3.0521.211c-2.6077.741-4.8876 1.737-4.8876 1.737v16.751s6.3954.516 9.1415.793c2.7461.276 7.8231-.676 7.8231-.676s-.9979 1.752-9.0249 2.566c-8.0271.814-15.7191 3.853-19.0698 6.892 0 0 2.9501-10.382 3.2487-18.656.2987-8.273-3.8751-12.737-3.8751-12.737l3.8751.647z" fill="#cacacc" opacity=".37"/><path d="m67.6211 274.242c1.2164-.429 12.2445-2.886 16.8189-7.023 2.8554-2.581 3.5547-3.584 3.5547-3.584l-1.3257 8.077-19.0479 2.538z" fill="#cacacc" opacity=".37"/><path d="m66.158 274.852s-12.1353 41.202-12.1353 43.23c0 2.029-1.4859 15.995-2.0614 17.609-.5754 1.614 3.358 2.021-.5317 13.159-3.8897 11.139-6.5338 19.187-6.5338 19.187s.2039 3.606-1.8283 7.394c-2.0323 3.788-.5391 4.399-8.7919 9.662-8.2529 5.264-12.4339 6.173-13.6868 10.375l-1.2529 4.203s3.1103 3.191 6.6941 2.493 15.9521-8.186 15.9521-8.186l12.5432-9.852s1.0562-5.794.5755-8.688c-.4808-2.893-1.6244-7.394-1.6244-7.394s1.6171.88 2.6733-4.5 1.0707-11.371 1.7336-12.92c.6628-1.548 2.1634-4.456 1.9448-7.852-.2185-3.395-1.1581-7.074.0583-9.306s4.9969-7.256 4.2612-7.895c-.7357-.64-.6119-8.5.1967-13.56.8085-5.06 6.8397-32.251 6.8397-32.251l2.411-7.256-7.4589 2.356h.0219z" fill="#cacacc" opacity=".37"/><g stroke-dasharray="138 3 1 3" stroke-linecap="round" stroke-linejoin="round"><path d="m79.1055 140.387c4.5598 1.541 15.1873 5.547 21.1015 10.644 11.823 10.193 20.112 24.704 20.84 26.428.729 1.723-.065 2.588-2.054 3.395" stroke="#4e4e4d" stroke-width="1.5"/><path d="m14.0078 184.264c.7357-1.607.9178-2.167 4.436-1.876 3.5182.298 12.1353.924 16.6296 2.705 4.4943 1.788 4.1301.814 4.4943-.64s.6045-5.94 1.2164-8.724l.2695-1.745c.1238-.793.0219-1.607-.2914-2.349l-.7575-1.774" stroke="#4e4e4d" stroke-width="1.5"/><path d="m97.9145 165.434c-1.1727 1.454-2.3819 2.057-2.1415 5.089s.4079 4.806 1.0562 6.587" stroke="#4e4e4d" stroke-width="1.5"/><path d="m40.7708 242.609c.5172 3.316.0656 16.65-.1165 24.247-.153 6.522-.6046 13.254-3.0084 20.568-4.4214 13.436-10.9552 26.813-8.8938 28.871.7284.727-7.3278 18.14-8.1363 23.265-.2404 1.505.6555 3.425 3.1176 6.18 2.462 2.756 3.0738 4.878 3.0738 4.878" stroke="#4e4e4d" stroke-width="1.5"/><path d="m21.9469 343.486c.3788 2.821-2.2945 7.59-2.6587 10.011s-.6264 6.18 3.0229 8.601c3.6566 2.421 10.9407 4.966 14.4589 6.304 3.5182 1.33 16.2435 2.261 18.6982-3.032 1.1655-2.516 1.9085-6.791 1.8211-9.088-.1749-4.464 1.9448-7.961 2.4693-12.483.4807-4.094-1.2019-6.609.1966-9.932 1.6754-3.97 3.6056-7.009 3.5182-10.055-.4589-16.634 9.5859-50.769 9.5859-50.769" stroke="#4e4e4d" stroke-width="1.5"/><path d="m66.1562 274.853c3.5183-1.694 14.0802-4.486 20.5193-3.148" stroke="#4e4e4d" stroke-width="1.5"/><path d="m79.8633 271.494c.6118 1.541 3.2851 11.72 4.5015 16.206 1.2165 4.485 10.562 40.837 10.9262 43.135.3642 2.297.0364 5.314 0 7.03-.204 10.419 3.6711 11.102 3.0884 14.556-1.0125 5.998 1.8866 9.437 1.5224 10.644-.3642 1.206.2402 2.908 2.5492 4.238 2.309 1.331 4.006 2 7.772 2.21 3.766.211 12.747.517 15.537 0 2.79-.516 8.377-2.333 9.71-3.424s3.882-3.395 2.185-6.667-2.549-6.056-2.309-7.147c.24-1.09-1.092-6.303-1.945-8.121-.852-1.817-4.494-11.509-5.222-13.937-.729-2.428-2.79-6.514-1.821-8.95.968-2.443-.488-9.342-2.186-13.101-1.697-3.759-15.784-43.383-16.629-47.258s-2.666-15.064-3.963-19.804" stroke="#4e4e4d" stroke-width="1.5"/><path d="m22.6832 362.33c-2.6587 1.345-8.0052 5.097-9.7024 6.674-1.6972 1.578-6.55564 6.784-7.52442 8.238-.96879 1.454-1.88659 4.878-1.94486 6.18-.09469 2.355.31322 2.522 4.31946 5.183 4.00622 2.669 10.61292 6.326 13.76692 7.176 3.154.851 6.3153.124 9.8335-2.057s11.9313-7.394 14.6483-9.212c3.4381-2.305 7.0874-5.213 9.025-6.783-.2404-2.785-.896-9.386-1.7846-9.844" stroke="#4e4e4d" stroke-width="1.5"/><path d="m9.83984 372.203c4.95316.444 10.29966 2.014 14.30596 4.079 4.0062 2.057 10.3798 6.085 13.5047 13.588" stroke="#4e4e4d" stroke-width="1.5"/><path d="m22.3281 368.037c1.9449.24 5.4631 1.178 7.4079 4.166" stroke="#4e4e4d" stroke-width="1.5"/><path d="m19.5352 370.707c3.642 0 5.951.967 7.284 3.148" stroke="#4e4e4d" stroke-width="1.5"/><path d="m51.9591 369.062c-1.5879 1.658-6.949 9.11-3.1467 13.538" stroke="#4e4e4d" stroke-width="1.5"/><path d="m106.641 369.062c1.034 1.578 4.006 8.849 1.274 13.996" stroke="#4e4e4d" stroke-width="1.5"/><path d="m122.969 373.126c1.945-1.148 3.766-3.577 8.136-2.544" stroke="#4e4e4d" stroke-width="1.5"/><path d="m125.637 375.432c1.216-.785 2.491-2.85 7.59-2.304" stroke="#4e4e4d" stroke-width="1.5"/><path d="m116.938 391.768c.327-2.225 1.719-5.613 6.031-9.553 4.312-3.941 16.09-9.328 20.49-7.54" stroke="#4e4e4d" stroke-width="1.5"/><path d="m3.40979 382.601-1.26015 1.411c-.5463.61-.84495 1.395-.84495 2.21l.45161 2.901c.13112.828.55359 1.585 1.18002 2.144 4.436 3.948 13.57028 9.118 17.44538 10.23 1.9521.56 6.4027 1.796 12.6233-1.461 5.5432-2.901 18.4797-13.487 21.5245-15.923.3642-.29.5754-.734.5754-1.207v-5.183" stroke="#4e4e4d" stroke-width="1.5"/><path d="m102.328 368.038s.991 2.057 0 4.166c-.991 2.108-1.457 3.955-1.457 3.955 2.309 2.544 16.921 21.207 28.284 21.207 4.735 0 10.336-2.777 13.607-4.5 4.8-2.537 10.161-4.086 6.424-11.495-2.068-4.1-10.613-12.403-14.233-14.926" stroke="#4e4e4d" stroke-width="1.5"/><path d="m150.257 384.505 1.195 1.57c.349.465.488 1.047.386 1.621l-1.013 5.41c-.138.756-.539 1.432-1.136 1.912-2.63 2.13-10.569 7.764-20.257 7.19-5.245-.313-6.461-.705-11.975-4.18-3.839-2.422-15.945-15.523-15.945-15.523-.408-.385-.641-.916-.641-1.476v-4.871" stroke="#4e4e4d" stroke-width="1.5"/><path d="m75.4766 193.991s11.3631-7.866 12.8782-8.986c2.0323-1.505 7.1311-6.616 9.5567-8.732 1.0271-.894 3.1465.844 2.4625 2.669" stroke="#4e4e4d" stroke-width="1.5"/><path d="m93.4609 187.215s2.1998-2.014 3.3653-3.533c1.3548-1.76 5.2958-6.58 6.1478-7.125 2.557-1.622 6.497 1.904 2.782 7.415" stroke="#4e4e4d" stroke-width="1.5"/><path d="m97.5859 191.381s4.8731-3.649 5.6311-4.515c.757-.865 1.974-2.602 2.44-2.602s1.675.247 2.141 1.803-.051 5.089-1.041 6.187c-.991 1.098-7.3719 6.718-7.3719 6.718" stroke="#4e4e4d" stroke-width="1.5"/><path d="m34.2812 208.3c6.1697-4.842 11.9532-1.563 18.8003-2.552 4.1519-.596 8.2965-2.152 8.2965-2.152" stroke="#4e4e4d" stroke-width="1.5"/><path d="m38.6875 188.314s3.1322-1.738 6.0385-1.738c3.4527 0 18.8585 4.864 19.4412 5.039" stroke="#4e4e4d" stroke-width="1.5"/><path d="m38.0391 192.254s1.9885-.982 3.205-1.156" stroke="#4e4e4d" stroke-width="1.5"/><path d="m74.4427 194.69s.5754 3.424-.8231 6.543c-1.0198 2.276-4.1811 6.427-4.1811 6.427s-1.4495.349-3.7149-.291c-2.2653-.639-5.0478-2.835-5.0478-2.835s2.3455-2.996 3.8314-5.991c1.8574-3.744-.7357-7.045-.7357-7.045" stroke="#4e4e4d" stroke-width="1.5"/><path d="m74.2936 195.254c.7764-1.991-.7824-4.455-3.4815-5.503-2.6992-1.049-5.5167-.285-6.2931 1.705-.7763 1.991.7824 4.455 3.4816 5.503 2.6991 1.049 5.5166.286 6.293-1.705z" stroke="#4e4e4d" stroke-width="1.51"/><path d="m106.656 182.389s7.343-3.032 9.2-3.752c3.948-1.527 4.997-.174 4.997-.174" stroke="#4e4e4d" stroke-width="1.5"/><path d="m57.8883 139.369s-18.0499 8.608-24.9334 14.745c-6.8834 6.136-17.5837 25.366-18.7419 28.274s2.9646 4.188 2.9646 4.188" stroke="#4e4e4d" stroke-width="1.5"/><path d="m26.9245 39.6711c-2.5348-2.4356-4.7856-6.1144-4.6618-8.6809" stroke="#cacacc" stroke-width="1.5"/><path d="m107.828 41.1107c2.681-.8943 4.349-1.6068 5.354-5.431" stroke="#cacacc" stroke-width="1.5"/><path d="m112.046 60.9004c.182 3.8315-.036 7.474 0 10.5712.029 2.7264-1.661 4.7911-4.21 5.8817" stroke="#4e4e4d" stroke-width="1.5"/></g><path d="m90.8553 68.8748c.8045 0 1.4568-.804 1.4568-1.7958s-.6523-1.7958-1.4568-1.7958c-.8046 0-1.4569.804-1.4569 1.7958s.6523 1.7958 1.4569 1.7958z" fill="#4e4e4d"/><path d="m43.5724 67.4352c0 1.1851-.7867 2.1521-1.7628 2.1521-.976 0-1.7627-.9597-1.7627-2.1521 0-1.1923.7867-2.152 1.7627-2.152.9761 0 1.7628.9597 1.7628 2.152z" fill="#4e4e4d"/><path d="m83.6367 58.8641c2.6733-.4217 11.3486-1.0906 12.871-1.0324 1.5224.0581 4.5523.8506 4.9753 2.6682" stroke="#4e4e4d" stroke-dasharray="138 3 1 3" stroke-linecap="round" stroke-linejoin="round" stroke-width="1.5"/><path d="m50.7327 59.3362c-2.6732-.3199-11.3486-.8289-12.871-.778-1.5223.0509-4.5525.6398-4.975 2.0212" stroke="#4e4e4d" stroke-dasharray="138 3 1 3" stroke-linecap="round" stroke-linejoin="round" stroke-width="1.31"/><path d="m60.1533 82.4922c-1.0927 1.6358-1.6827 3.5916-1.6171 5.8163.1602 5.5401 17.2341 6.9142 20.0312 1.8176 1.3111-2.392.5463-5.271-1.5442-7.1832" stroke="#4e4e4d" stroke-dasharray="138 3 1 3" stroke-linecap="round" stroke-linejoin="round" stroke-width="1.5"/><path d="m26.5223 75.7386c-2.9137 0-3.4964-1.7013-4.2612-4.8784l-.9178-11.3055s-1.5078-26.4425 2.564-33.931 15.282-23.17801 42.2331-24.51576c26.9511-1.337758 41.4026 18.37956 43.9956 22.66186 2.775 4.5803 3.817 16.3657 3.329 21.8185s-1.428 15.3041-1.428 15.3041-2.651 3.1045-4.137 3.8315" stroke="#4e4e4d" stroke-dasharray="138 3 1 3" stroke-linecap="round" stroke-linejoin="round" stroke-width="1.5"/><path d="m58.7913 134.854c-.3497 2.349-.9907 4.806-1.2602 6.078-.2695 1.273-.3496 2.516.8231 4.028 5.0406 6.493 15.6535 4.239 18.203 2.603 2.5494-1.636 3.5546-3.912 3.001-5.729-.5536-1.818-1.8866-5.271-2.6441-7.285" stroke="#4e4e4d" stroke-dasharray="138 3 1 3" stroke-linecap="round" stroke-linejoin="round" stroke-width="1.5"/><path d="m38.6865 186.373c-.5463 2.268-1.3694 11.698 0 18.7" stroke="#4e4e4d" stroke-dasharray="138 3 1 3" stroke-linecap="round" stroke-linejoin="round" stroke-width="1.5"/><path d="m75.0117 194.428c2.6369.45 28.4083 5.089 32.7783 7.357" stroke="#4e4e4d" stroke-dasharray="138 3 1 3" stroke-linecap="round" stroke-linejoin="round" stroke-width="1.5"/><path d="m84.7522 27.2666c4.6691-3.3589 7.9834-.298 7.9834-.298s8.6824 5.6418 11.6184 9.1679c2.935 3.5262 4.683 5.1548 4.203 10.7966-.481 5.6345-1.377 11.7199-1.472 15.2751-.094 3.5552 2.193 38.8098.867 43.4918-1.318 4.675-7.087 9.597-11.1738 13.188-4.0863 3.599-15.1363 14.33-19.2227 15.501-4.0863 1.17-14.1675 1.832-20.9053 0-4.1009-1.113-15.1363-11.902-19.2226-15.501-4.0864-3.599-9.8554-8.513-11.1738-13.188s.9615-39.9366.8668-43.4918-.9906-9.6333-1.4714-15.2751c-.4807-5.6418 1.2747-7.2631 4.2029-10.7966 2.9282-3.5334 11.9532-9.3933 11.9532-9.3933s2.9792-2.8355 7.6483.5162c4.6691 3.3516 10.1248 7.4594 17.6274 7.5612s12.9948-4.2023 17.6639-7.5612z" stroke="#4e4e4d" stroke-dasharray="138 3 1 3" stroke-linecap="round" stroke-linejoin="round" stroke-width="1.5"/><path d="m21.3438 59.5547s.8522 1.7013 2.1852 2.6464c1.333.9452 3.3944 1.1851 3.3944 1.1851" stroke="#4e4e4d" stroke-dasharray="138 3 1 3" stroke-linecap="round" stroke-linejoin="round" stroke-width="1.5"/><path d="m53.6328 110.65c2.1415 4.203 20.2425 5.817 28.539.364.5026-.327.8377-.967.8377-.967" stroke="#4e4e4d" stroke-dasharray="138 3 1 3" stroke-linecap="round" stroke-linejoin="round" stroke-width="1.5"/><path d="m54.9101 140.838s-1.7919 5.533 1.6025 8.477c7.0073 6.086 21.4735 4.457 25.3705-.451 3.6784-4.631.0874-7.459.0874-7.459" stroke="#4e4e4d" stroke-dasharray="138 3 1 3" stroke-linecap="round" stroke-linejoin="round" stroke-width="1.5"/><path d="m18.4439 182.389s-2.0978 7.408-3.1977 13.603c-1.0999 6.194-4.7201 34.163 10.3943 36.366 15.1145 2.203 35.7357-6.332 44.6442-12.098l8.9084-5.773" stroke="#4e4e4d" stroke-dasharray="138 3 1 3" stroke-linecap="round" stroke-linejoin="round" stroke-width="1.5"/><path d="m117.195 178.193s11.989 25.738 7.633 43.317c-3.97 16.032-31.0153 2.356-35.2692-.785s-19.5432-13.843-19.5432-13.843" stroke="#4e4e4d" stroke-dasharray="138 3 1 3" stroke-linecap="round" stroke-linejoin="round" stroke-width="1.5"/><path d="m39.6393 231.914s.2695 4.603 0 6.755 0 2.871 0 2.871 4.2175 5.555 16.4329 7.707 37.3965-2.261 41.847-4.842c5.6748-3.286 6.4678-5.017 6.4678-5.017s-1.238-8.259-1.609-10.222l-.372-1.963" stroke="#4e4e4d" stroke-dasharray="138 3 1 3" stroke-linecap="round" stroke-linejoin="round" stroke-width="1.5"/></svg>