<svg fill="none" height="417" viewBox="0 0 150 417" width="150" xmlns="http://www.w3.org/2000/svg"><path d="m91.6129 9.2857s.451-1.0383 3.852 2.5779c3.4 3.6161 9.6941 17.6299 11.5051 19.9999s5.627 11.535 8.312 15.152c2.685 3.616 14.233 17.063 16.302 19.176 2.069 2.105 3.451 3.752 3.802 6.273.35 2.52.358 8.728-.881 12.23-1.231 3.509-.737 4.031-.737 4.031s1.682 1.59 2.334 5.092c.651 3.501.816 9.0365.816 9.0365s1.346 5.484 1.059 8.17l-.286 2.686s1.153 2.419.959 6.866c-.193 4.454-1.267 11.329-2.548 14.659-1.282 3.336-4.303 12.294-4.303 12.294s-1.189 20.465-1.948 24.961c-.766 4.497-4.431 21.038-6.715 24.855s-4.804 4.813-7.997 4.068c-3.193-.744-13.424-4.325-17.6981-7.526-4.274-3.2-17.455-14.651-17.455-14.651s2.012-6.03 4.539-10.047 6.916-8.693 6.916-8.693l13.3741 8.693 14.491-28.52s1.167-.638-1.053-5.464c-2.219-4.833-6.007-11.979-6.007-11.979s-11.784 2.406-18.5351 2.6c-6.752.193-24.371-1.784-30.693-3.718-6.322-1.926-15.851-18.138-15.851-18.138s-2.914-23.2355-10.488-32.0645c-7.568-8.836-17.484-28.485-9.73-38.574 7.754-10.0969 23.791-5.407 32.26-12.7964 8.47-7.3898 11.355-10.8699 19.288-11.3854 7.933-.5156 13.116.136 13.116.136z" fill="#f9fafb"/><path d="m131.824 155.033s6.508 9.745 7.567 13.154c1.06 3.401 1.497 9.717 1.568 12.423.072 2.707-1.331 11.128-2.584 14.802-1.253 3.673-4.217 11.163-4.217 11.163s4.546 6.867 5.391 9.037c.845 2.169 1.589 1.926 1.124 4.224-.458 2.299-.888.645.293 3.244 1.182 2.6 1.912 3.767 1.175 5.679-.738 1.912.05 2.628.193 3.838.143 1.203 1.546 1.317-.53 4.031-2.076 2.721-4.131 5.972-5.713 5.958-1.575-.015-2.671 1.332-3.487-.48s-.2-4.318-.2-4.318-3.301 2.012-4.01.186c-.715-1.826 1.568-7.483 1.568-7.483s-1.632.237-2.283-1.74c-.652-1.976.386-5.47 2.663-8.392 2.269-2.921 3.014-4.554 3.014-4.554l-.738-24.045-1.36-31.758.58-4.962z" fill="#f9fafb"/><path d="m104.166 122.431s-.644 4.991-.15 7.183c.494 2.191 2.584 5.635 2.183 6.652-.4 1.017.101 1.353-2.033 1.919-2.133.566-5.9918.895-9.2778-.308-3.287-1.203-7.203-3.115-8.585-4.554-1.381-1.439-2.477-2.177-3.78-4.626s-1.303-3.179-1.303-3.179l22.9528-3.094z" fill="#f9fafb"/><path d="m130.522 238.599s-21.242 14.778-26.504 16.504c-5.2619 1.726-9.2639 3.136-13.3519 2.148s-17.276-5.756-17.276-5.756-2.548 9.881-1.066 17.815c1.482 7.926 2.054 15.324 1.99 19.642-.065 4.318.716 23.622.895 28.484.186 4.862.114 13.505-.38 18.74-.494 5.234-1.983 11.723-1.954 14.966.029 3.244.759 6.659.573 8.463-.187 1.812-.659 15.739-.33 17.515.33 1.776 2.37 5.314 2.37 5.314s5.52 3.293 9.672 3.229c4.146-.065 12.644-1.404 16.0299-3.151 3.387-1.747 6.988-6.244 7.324-7.619l.344-1.375s9.35-.873 11.455-2.026 6.222-4.553 6.222-4.553l.451-16.362s-.888-1.34-.079-2.15c.809-.809 2.348-3.802 2.176-5.406-.171-1.604-1.002-16.033-1.281-18.116-.279-2.077-1.718-2.906-.129-4.238s2.348-3.431 2.849-7.756c.509-4.325-.844-20.909-.665-23.437.179-2.521 1.403-28.614 1.918-32.244.516-3.631 1.303-15.015 1.303-15.015s-1.381.666-1.303-1.06c.079-1.719.079-3.009.079-3.009l-1.339.423z" fill="#e5e4e5"/><path d="m104.162 127.207s6.099.781 8.798 2.406c2.7 1.619 3.845 2.593 3.845 2.593l2.749 6.902-3.536 8.156-11.212 21.941-13.3741-8.693s-5.255 5.699-6.085 7.196c-.831 1.497-5.37 11.543-5.37 11.543l2.606 2.599s11.52 11.192 18.0781 14.264c6.558 3.072 11.118 5.278 14.469 5.313 3.35.036 6.407-1.131 8.648-6.172s5.248-17.966 5.248-17.966l1.955-12.166 2.355 50.69s-6.429 6.359-6.357 9.338c.071 2.978-.308 3.702.687 4.568l.995.867s-1.632 1.883-.952 4.64c.68 2.756 1.246 3.387 1.246 3.387l2.577-.222-9.307 6.143s-16.474 10.484-20.211 11.436c-3.7371.952-9.1281 2.793-13.2671 1.289-4.138-1.504-20.254-8.056-20.254-8.056l-1.761-.873s4.067-19.95 3.702-26.251c-.366-6.309-2.356-30.927-3.702-38.453s-3.852-11.478-4.761-19.233c-.916-7.755-.472-17.68 1.525-22.449 1.998-4.769 13.159-12.323 13.159-12.323l4.546-3.359s2.864 6.23 7.554 8.93c4.689 2.706 9.586 4.439 13.2661 3.573 3.68-.867 4.174-2.492 4.174-2.492s-1.06-.566-1.489-3.444c-.437-2.879-.544-5.607-.544-5.607z" fill="#cacacc"/><path d="m94.5329 11.1484s-7.911-5.95774-18.264-8.02004c-7.983-1.5896-18.314-3.408405-29.081-.60141-10.768 2.8069-42.28403 16.15435-45.79203 45.78555-3.508 29.623 13.18003 42.419 13.18003 42.419s.545-6.924 4.318-11.407c3.773-4.482 26.153-23.222 26.153-23.222s-2.341-4.038-2.241-6.165c.093-2.12 1.504-13.569 5.255-16.72 3.752-3.151 6.508-1.719 14.67-2.95 8.161-1.225 20.533-4.1534 21.865-8.4283 1.331-4.2749-1.16-5.9362.336-8.3708s4.016-2.4346 6.443-2.5778c2.428-.1432 3.172.2578 3.172.2578z" fill="#cacacc"/><path d="m59.392 88.3601s1.9901 3.1 1.7891 7.776c-.2 4.6689.1079 6.3159-1.3671 9.5529-1.475 3.236-2.026 5.27-1.797 8.027.229 2.756 2.713 7.783 2.713 7.783s-2.627.824-12.013-4.64c-9.379-5.463-15.608-9.939-15.608-9.939s.086-4.525 2.771-7.9979c2.685-3.466 12.837-12.51 12.837-12.51s1.482 2.786 3.73 3.759c2.255.974 3.2001 1.103 4.7471.058 1.546-1.046 2.1979-1.869 2.1979-1.869z" fill="#cacacc"/><path d="m61.9766 79.6178s-1.983-3.86-4.289-6.853c-2.305-2.993-12.471-16.341-12.471-16.341s-6.78 4.175-8.076 5.428-11.72 10.233-14.162 12.646c-2.434 2.413-6.672 8.027-7.259 10.999-.58 2.971-1.153 5.248-.609 5.764.544.515 17.62 15.3672 17.62 15.3672s-.487-2.099 1.36-5.55c1.847-3.4512 6.329-8.2782 9.615-10.6912 3.286-2.42 5.012-3.967 5.012-3.967s-1.898-3.437-1.926-6.237c-.022-2.799 1.976-5.263 5.083-4.833 3.107.422 5.627 1.862 6.622 2.628.996.759 3.48 1.647 3.48 1.647z" fill="#e5e4e5"/><path d="m123.333 369.874s6.436 3.846 9.271 5.536c2.835 1.689 6.193 4.031 6.193 4.031s-6.365 2.177-9.73 3.43c-3.364 1.26-6.808 3.308-8.104 5.549-1.296 2.235-1.618 4.44-1.618 4.44l-10.839-.544s-1.303-2.055-2.306-5.349c-1.002-3.294-1.632-6.201-1.632-6.201s2.284-.022 3.107-2.943c.831-2.922 1.167-4.297 1.167-4.297s4.954.881 8.205-.573c3.25-1.453 6.271-3.086 6.271-3.086z" fill="#cacacc"/><path d="m104.575 380.773s.186 3.487 2.334 8.084c2.147 4.597 5.333 11.529 5.333 11.529s-1.009-1.21-3.386-2.678-7.195-4.153-12.7288-4.497c-5.527-.344-10.174-.508-14.112.107-3.944.616-8.419 1.583-10.066 2.342-1.654.759-3.422 2.005-3.422 2.005l9.064-13.706s1.661 1.877 6.687 2.199 11.154-1.576 11.154-1.576l9.1498-3.809z" fill="#cacacc"/><path d="m138.804 379.448s6.264 4.884 7.488 6.23c1.225 1.346 1.926 1.89 2.191 4.053.265 2.162-.494 6.358-.494 6.358s-.616 1.619-3.587 2.056c-2.964.436-21.635 1.138-21.635 1.138l-10.811-.129-3.444-6.831 10.84.537s1.209-4.418 3.415-6.223c2.205-1.804 6.558-4.002 9.006-4.897 2.449-.896 7.024-2.299 7.024-2.299z" fill="#e5e4e5"/><path d="m112.243 400.385s1.718 4.232 1.245 6.101c-.472 1.876.136 3.616-4.975 5.313-5.112 1.697-15.0851 4.01-20.2971 3.781-5.212-.237-15.679-1.798-18.393-3.13-2.706-1.331-4.976-2.234-4.933-4.461.05-2.227 1.189-5.341 1.189-5.341l3.121-6.03s7.876-3.788 15.064-3.759c7.188.021 13.323-.437 18.1921 1.718 4.875 2.149 9.772 5.808 9.772 5.808z" fill="#e5e4e5"/><path d="m94.1475 10.8336s-8.262.2005-8.885 2.1983c-.63 1.9978.967 6.0937 0 7.8194-.966 1.7186-7.753 7.5762-13.825 8.0772-6.071.501-15.12 2.306-18.664 8.378-3.544 6.079-7.847 14.937-3.795 22.534 4.053 7.598 13.775 17.723 19.417 27.089 5.641 9.366 7.667 16.7125 13.746 22.2765 3.966 3.637 19.2365 7.09 21.5135 7.341 2.276.25 3.794 0 3.794 0s-3.035-2.536-3.293-5.064c-.251-2.535 4.811-2.277 4.811-2.277s1.01 4.554 5.062 10.125 6.837 9.875 8.355 14.178c1.518 4.304-2.785 18.99-4.554 25.571-1.768 6.58-4.811 14.428-4.811 14.428l-7.596-4.303 14.176-28.106s-3.795-10.884-5.062-13.927c-1.267-3.036-2.785-4.554-2.785-4.554s-7.338 2.277-10.632 2.535c-3.2925.25-5.0605-1.518-5.5695.759-.508 2.277-1.768 4.053.251 7.597 2.026 3.545 4.3025 4.554 4.3025 4.554s-6.5795-.508-10.3805-2.785c-3.795-2.277-6.079-3.545-6.58-2.027s.759 3.795.759 3.795-7.338 1.518-9.622 5.314c-2.277 3.795-5.062 3.795 1.517 11.643 6.58 7.848 8.098 9.366 10.503 9.115 2.406-.25 4.683-2.535 4.683-2.535s-.523 13.67 3.157 17.472c3.68 3.796 12.7935 8.858 16.5875 10.634 3.795 1.769 8.856 1.518 10.381 3.544 1.518 2.027 1.583 4.053 1.583 4.053s-1.081 4.784-6.143 7.075-14.684 0-14.684 0-2.5345 8.364-1.01 18.496c1.518 10.125 4.053 16.706 7.088 20.25 3.036 3.545 11.391 4.812 11.391 4.812s-12.15 8.099-16.703 9.366c-4.5525 1.268-5.8205 5.064-6.3285 10.384-.508 5.313-.251 45.062.759 50.382 1.009 5.314.508 8.356-1.768 9.623-2.277 1.268-6.329-1.517-6.838 3.546-.508 5.062-2.599 35.209-.83 43.315 1.768 8.098 10.646 9.344 10.646 9.344s-3.995 1.074-6.021 2.943-4.052 8.449-5.95 13.261c-1.897 4.812-.379 11.142 0 13.927.38 2.786 1.912 2.579 1.912 2.579s-10.202.629-16.273-2.407c-6.079-3.036-7.045-3.157-7.045-5.183 0-2.027.401-3.774.401-3.774s.128.938.379-1.847c.251-2.786 6.078-9.624 8.097-12.403 2.026-2.785 4.554-7.34 4.554-7.34s-3.036-.572-3.795-2.062c-.759-1.482-1.518-1.99-1.518-5.535 0-3.544.759-18.99.759-18.99s-1.009-5.821-.25-10.884c.759-5.062 2.534-15.189 2.276-18.733-.25-3.545-1.517-47.597-1.768-49.115-.25-1.518-1.267-6.837-1.267-6.837l.759-18.483s-5.821-2.785-6.58-4.053c-.759-1.267 3.795-25.456 3.795-33.49s-3.294-27.526-4.811-36.133c-1.518-8.607-5.062-15.445-5.062-24.561 0-9.115 4.811-16.455 9.364-19.999 4.554-3.545 11.141-8.357 11.141-8.357s-9.114 0-18.228-3.294-19.746-6.079-31.896-15.445c-12.149-9.3655-18.478-16.4545-23.79003-24.5605-5.313-8.099-10.88301-19.749-4.81101-38.732 6.078-18.99 17.71904-28.6354 25.31504-32.5451 7.596-3.90971 22.531-10.239705 36.198-9.48071 13.668.7591 16.961 2.5349 20.755 4.3036 3.795 1.7686 9.229 5.17711 9.229 5.17711z" fill="#cacacc" opacity=".37"/><path d="m68.388 47.9316s-2.857 0 0 5.571c2.856 5.571 6.4 8.357 6.4 8.357s.172 1.518-3.837 3.036-7.353 0-9.608-2.027c-2.255-2.026-3.515-6.144-3.515-6.144s.2-4.74 3.515-6.766c3.315-2.027 7.038-2.027 7.038-2.027z" fill="#cacacc" opacity=".37"/><path d="m101.876 29.7012s.251 3.036 1.768 6.08c1.518 3.036 3.294 5.062 3.294 5.062h-2.535l-6.1285-9.874z" fill="#cacacc" opacity=".37"/><path d="m109.222 61.6016s2.534 2.535 0 5.571c-2.535 3.036-7.847 6.838-9.3654 7.34-1.518.508 1.0104 2.026 1.0104 2.026s7.567-3.036 9.479-5.821c1.911-2.786 3.551-2.779 1.661-5.206-1.89-2.428-2.785-3.91-2.785-3.91z" fill="#cacacc" opacity=".37"/><path d="m131.746 163.377s3.293 5.571 4.052 10.634c.759 5.062-3.035 29.358-3.035 29.358l-1.01-39.992z" fill="#cacacc" opacity=".37"/><path d="m133.82 216.545s-4.604 4.812-4.103 8.356c.501 3.545 2.026 3.796 2.026 3.796s-3.365 2.026-2.062 4.812c1.303 2.785 2.062 4.303 2.062 4.303l-6.837 5.313s.251-3.795 0-6.58c-.25-2.786-1.009-5.063 0-8.607 1.01-3.545 8.906-11.393 8.906-11.393z" fill="#cacacc" opacity=".37"/><path d="m120.102 266.416s-4.474 40.007-3.715 46.588c.758 6.58 2.269 7.339 2.269 7.339s.723 3.545-1.446 9.624c-1.704 4.769-2.069 21.854-2.148 28.986-.021 2.07.322 4.125 1.024 6.08l2.499 6.96s-3.795 3.731-2.535 8.571c1.267 4.841 8.348 7.376 8.348 7.376s11.398 3.036 12.665 5.062c1.267 2.027 1.009 5.571 1.009 5.571s-4.052 1.268-10.381 1.268-15.693-1.268-15.693-1.268l-4.575-7.497-2.742-9.216s5.04-6.831 5.04-12.653c0-5.821-1.009-12.402-1.009-12.402l-2.714-21.775s2.714-2.277 2.964-5.822c.251-3.544 3.544-28.356 3.795-32.66.25-4.303.508-24.811.508-24.811l6.837-5.313z" fill="#cacacc" opacity=".37"/><g stroke-miterlimit="10"><path d="m60.7312 121.494c-5.284-7.684-1.425-13.978-.444-17.114.981-3.137 1.0741-8.2345.7161-10.5615-.358-2.328-.8951-3.76-1.6111-5.457-.272-.63-1.009 2.335-4.36 2.771-4.052.53-14.118-13.576-3.594-15.717 3.752-.766 6.35 2.191 8.842 3.888 4.303 2.922-.7089-3.831-1.7829-5.442s-8.0041-10.691-9.5581-12.488c-10.502-12.18-6.114-21.425-1.424-27.547 2.992-3.91 11.175-3.731 13.681-3.91s14.942-.73 22.123-6.3298c3.308-2.5779.666-5.7572 1.188-8.8434.838-4.98383 8.205-3.7665 10.024-3.5947" stroke="#707070" stroke-width="1.5"/><path d="m44.3281 56.1035c-1.582.837-13.753 10.418-18.585 15.517-4.833 5.098-11.312 10.912-10.625 19.641" stroke="#cacacc" stroke-width="1.5"/><path d="m74.4297 48.1696c-3.308-.272-14.813-3.208-16.739 9.394" stroke="#707070" stroke-width="2"/><path d="m104.828 27.9531c-2.477 1.06-4.8969 2.85-5.6129 3.924" stroke="#707070" stroke-width="2"/><path d="m104.746 40.2913c.287.881.981 1.439 1.561 1.253s.816-1.053.537-1.933c-.286-.881-.981-1.44-1.561-1.253-.58.186-.816 1.052-.537 1.933z" fill="#707070" stroke="#707070" stroke-width="1.5"/><path d="m73.4866 62.9407c-.913 0-1.654-.702-1.654-1.568s.741-1.568 1.654-1.568 1.654.702 1.654 1.568-.741 1.568-1.654 1.568z" fill="#707070" stroke="#707070" stroke-width="1.5"/><path d="m124.961 77.5625c-7.338 2.342-11.412 9.781-14.655 13.125s-5.434 4.039-12.8731-.121" stroke="#707070" stroke-width="1.5"/><path d="m104.316 124.336c-.358 2.871-.114 7.884.838 9.796s2.155 2.828-.995 4.06c-4.9404 1.926-17.9634-.795-22.9534-11.937" stroke="#707070" stroke-width="1.5"/><path d="m136.902 102.861c.945 3.939 2.742 8.951-2.685 23.394" stroke="#707070" stroke-width="1.5"/><path d="m137.68 113.709c.887 2.75 2.319 11.586-1.976 22.564-4.296 10.977-4.418 12.652-4.174 15.159.236 2.506-.48 11.693-.838 15.159-.358 3.458-2.384 15.631-3.58 19.928 0 0-3.744 16.849-12.965 14.787-18.4431-4.125-32.3751-19.8-34.1651-22.062" stroke="#707070" stroke-width="1.5"/><path d="m133.262 88.2031c1.848 1.647 3.516 6.301 3.637 11.313.122 5.0129-1.31 12.4099-5.369 16.5919" stroke="#707070" stroke-width="1.5"/><path d="m104.805 169.198c1.432-3.344 5.835-11.2 7.746-15.138 1.912-3.938 5.556-10.633 6.744-13.383 0 0-.064-3.444-1.496-6.552-1.432-3.101-4.775-10.025-6.207-11.937l-5.341-6.731c-5.219-4.898-.122-6.624 3.05-6.444 3.172.171 7.503 3.322 10.918 2.37" stroke="#707070" stroke-width="1.5"/><path d="m91.4319 160.504c2.384 1.311 16.3451 10.978 20.4041 12.89" stroke="#707070" stroke-width="1.5"/><path d="m131.533 154.646c1.661 2.277 7.103 9.38 8.907 16.942 1.145 4.798.15 14.579-.802 19.234-.952 4.654-4.654 14.084-5.491 15.753" stroke="#707070" stroke-width="1.5"/><path d="m129.948 230.484c-1.804 1.096-4.152-2.298-2.283-5.8 1.754-3.279 3.501-5.585 4.932-7.254 1.432-1.668.366-1.539.487-3.687.122-2.149-.487-8.958-.487-8.958 1.676 2.277 2.771 4.167 3.695 5.521 1.467 2.148 4.51 6.423 4.367 9.53-.043.996-.458 2.299-.458 2.299s5.004 4.962-.365 10.454" stroke="#707070" stroke-width="1.5"/><path d="m48.0078 86.4141s-9.071 6.795-13.073 14.0699c-2.141 3.888-1.797 6.624-1.797 6.624" stroke="#cacacc" stroke-width="1.5"/><path d="m108.055 61.373s5.119 2.3271 4.037 6.3801c-.887 3.308-7.796 7.662-10.058 8.707" stroke="#707070" stroke-width="1.5"/><path d="m141.399 230.664s1.275 3.845.945 4.869c-.472 1.461-3.2 4.812-5.054 6.043-2.971 1.984-7.088 1.196-4.89-3.788" stroke="#707070" stroke-width="1.5"/><path d="m137.547 234.074-5.692 4.11c-.773.559-4.625 1.261-4.145-2.964.408-3.566 3.58-6.681 7.517-8.829" stroke="#707070" stroke-width="1.5"/><path d="m121.319 110.565c.323-.48 9.257-12.2515 11.842-20.9655 2.585-8.715 3.744-15.653 1.052-20.014-2.684-4.354-16.438-17.429-21.199-26.136-4.761-8.715-14.4261-28.7289-17.5621-31.586-3.128-2.8571-26.711-16.7344-52.822-8.0342-8.577 2.8571-25.731 12.7316-33.20503 23.5512-12.737 18.446-11.72698 47.239 5.69203 63.88 28.337 27.0605 39.842 28.8925 56.709 33.0675 17.634 4.368 40.4011-1.102 40.4011-1.102" stroke="#707070" stroke-width="1.5"/><path d="m81.2091 126.256c-1.439 1.411-10.747 7.383-13.417 10.068-2.671 2.685-11.971 10.934-3.029 37.07.86 2.521 1.969 11.636 3.043 17.007 1.074 5.37 2.9709 23.215 2.1619 39.075-.837 16.348-4.8899 18.024-3.2209 18.854 16.509 8.257 26.0099 10.62 34.8869 7.77 5.843-1.876 28.137-16.233 29.905-17.716" stroke="#707070" stroke-width="1.5"/><path d="m116.805 132.012c-3.48-2.42-6.322-4.16-12.651-4.805" stroke="#707070" stroke-width="1.5"/><path d="m85.3467 147.258c.988 2.062 8.95 9.495 10.024 10.161 1.073.666.537 3.029-.315 5.385" stroke="#707070" stroke-width="1.5"/><path d="m130.984 163.369c.658 5.606 1.575 38.545 1.618 41.41" stroke="#707070" stroke-width="1.5"/><path d="m133.08 242.242c.114 2.399-1.332 16.841-1.625 21.854-.287 5.012-.645 12.531-.767 17.185-.121 4.655-.715 10.505-.594 12.532.122 2.026.358 6.68.716 9.545.358 2.864.236 8.951-.122 11.335-.357 2.384-.594 3.702-1.431 4.654-.838.953-1.554 1.669-1.554 3.459s.358 6.087.716 7.998c.358 1.912.594 8.235.48 10.62-.122 2.384 0 4.296-1.196 6.208s-.716 2.742-.594 3.702c.121.959.086 7.397-.194 10.505 0 0-.021 4.167-.379 5.119-.365.953-4.446 4.061-7.897 5.249-3.451 1.196-9.787 1.998-9.787 1.998" stroke="#707070" stroke-width="1.5"/><path d="m120.312 265.767c-2.026.594-7.28 5.012-7.395 7.16-.114 2.148.236 6.087 0 9.903-.236 3.817-.48 12.653-.716 16.234-.236 3.58-2.627 23.751-2.864 26.616-.236 2.864-1.368 8.428-2.385 9.667-1.661 2.019-.358 7.282.237 9.072.594 1.79 1.432 5.134 1.669 7.397.236 2.27-.595 4.296-.595 6.087 0 1.79.358 3.1.595 5.37.236 2.27.479 10.025-.716 12.889-1.196 2.864-4.06 5.013-5.849 5.85-1.79.838-15.0075 7.541-26.8055.437-2.778-1.668-2.785-10.103-2.785-10.103 0-1.433 1.31-16.47.594-18.382s-.48-5.012.358-8.829 1.432-11.221 1.432-13.483c0-2.263.594-8.471.121-14.2-.479-5.728-.837-18.023-.952-21.718-.114-3.695.552-15.338-.701-19.584-2.148-7.283-2.069-21.898-.158-24.64" stroke="#707070" stroke-width="1.5"/><path d="m96.0391 325.679c-3.293.716-6.873 1.196-11.763-2.027" stroke="#707070" stroke-width="1.5"/><path d="m126.906 317.895c-.637 1.332-4.13 4.912-8.261 3.129" stroke="#707070" stroke-width="1.5"/><path d="m123.331 369.873c4.252 2.105 12.013 7.354 14.633 9.022 2.628 1.669 7.955 6.058 9.544 8.113 1.138 1.461 1.911 7.161.48 9.073-1.432 1.912-3.086 2.034-6.551 2.492-4.332.573-24.579.902-29.483.573" stroke="#707070" stroke-width="1.5"/><path d="m104.571 380.771c.365 2.421 1.654 6.962 3.322 10.306s1.668 3.701 2.864 5.605c1.195 1.912 2.155 3.917 1.195 5.965-4.51 9.617-35.7822 7.404-40.3932 4.533-4.024-2.506-6.429-3.638-5.234-5.908 1.196-2.27 4.819-7.576 6.487-10.204 1.668-2.627 3.866-5.698 5.155-7.918" stroke="#707070" stroke-width="1.5"/><path d="m130.719 374.205c-3.129.759-5.856 0-9.744 4.218" stroke="#707070" stroke-width="1.5"/><path d="m138.805 379.447c-2.742.766-19.925 5.42-19.445 13.419" stroke="#707070" stroke-width="1.5"/><path d="m148.484 389.73c-2.413 1.311-3.344 3.137-11.577 3.273-6.093.107-22.767.086-28.394-.68" stroke="#707070" stroke-width="1.5"/><path d="m98.2734 389.732c-5.262-1.705-8.184-2.435-16.2589-.924" stroke="#707070" stroke-width="1.5"/><path d="m112.242 400.386c-3.386-2.749-7.904-7.361-21.6418-7.518-10.74-.122-19.589 2.291-22.073 4.797" stroke="#707070" stroke-width="1.5"/><path d="m111.955 399.154c.952 2.506 3.679 9.652-1.762 11.972-20.9772 8.937-40.3362 2.027-43.0782 0-2.742-2.026-2.771-5.914-1.038-8.471" stroke="#707070" stroke-width="1.5"/><path d="m82.5859 181.835s-2.219 2.578-4.131 1.532c-1.911-1.045-6.787-5.399-8.011-6.094" stroke="#707070" stroke-width="1.5"/><path d="m95.375 157.418s-6.773 4.561-10.023 10.283c-4.646 8.184-6.894 15.674-6.894 15.674" stroke="#707070" stroke-width="1.5"/><path d="m104.625 129.612s1.94 1.346 4.689 4.654c2.75 3.309 1.805 5.034 1.182 6.116-1.182 2.04-9.093 4.518-15.1136 2.95-6.028-1.568-9.178-3.666-12.787-7.497-3.608-3.831-4.825-7.132-4.825-7.132" stroke="#707070" stroke-width="1.5"/></g></svg>