<?xml version="1.0" encoding="UTF-8"?>
<svg xmlns="http://www.w3.org/2000/svg" viewBox="0 0 911.11 686.57">
  <defs>
    <style>
      .cls-1, .cls-2, .cls-3, .cls-4 {
        fill: none;
      }

      .cls-1, .cls-5 {
        mix-blend-mode: multiply;
        opacity: .35;
      }

      .cls-6 {
        fill: #918f8e;
      }

      .cls-7 {
        fill: #1d1d1b;
      }

      .cls-7, .cls-2, .cls-3, .cls-8 {
        stroke-dasharray: 138 3 1 3;
      }

      .cls-7, .cls-2, .cls-3, .cls-8, .cls-4 {
        stroke: #61615f;
        stroke-miterlimit: 10;
      }

      .cls-7, .cls-2, .cls-4 {
        stroke-width: 1.2px;
      }

      .cls-9 {
        fill: #fcfcfd;
      }

      .cls-10 {
        isolation: isolate;
      }

      .cls-11, .cls-5 {
        fill: #d4d4d6;
      }

      .cls-12, .cls-8 {
        fill: #61615f;
      }

      .cls-13 {
        fill: #eae9ea;
      }

      .cls-3 {
        stroke-width: 1.5px;
      }

      .cls-14 {
        fill: #7c7a78;
      }

      .cls-8 {
        stroke-width: .75px;
      }
    </style>
  </defs>
  <g class="cls-10">
    <g id="coda">
      <path class="cls-6" d="M542.71,384.46c1.65,3.52,3.3,7.03,4.95,10.55,23.56-13.1,41.67-36.07,51.21-61.28,4.7-12.41,6.7-25.42,8.43-38.56.87-6.6,1.42-13.24,1.71-19.88.18-4.16,2.63-14.91.04-18.37-2.52,11.07-3,26.01-5.6,37.15-2.7,11.58-6.56,22.83-11.33,33.73-10.3,23.56-27.23,43.67-49.42,56.67Z"/>
      <path class="cls-4" d="M542.33,384.12s7.89-.85,24.27-18.61c31.16-33.79,35.5-66.75,38-80.75s5.16-32.21,5.41-35.21.03,28.23-2.75,44.64c-2.42,14.28-2.66,45.27-33.42,80.07-10.09,11.41-18,16.75-25.5,21.25-4-8.29-6.02-11.39-6.02-11.39Z"/>
    </g>
    <g id="corpo_colore_sfondo">
      <path class="cls-9" d="M302.49,291.58s6.72-2.74,10.18-4.69c3.45-1.95,10-3.53,10-3.53,0,0,3.52,7.37,6.37,8.76,4.52,2.21,12.5-.12,14.01,2.65s1.64,5.07,1.64,5.07l8.89,10.17s4.49,13.87,3.74,17.04c-.74,3.17-2.42,8.68-7.02,14.47-4.6,5.78-8.32,9.31-8.59,13.1s2.07,20.56,4.76,29.42c2.69,8.87,3.86,13.04,7.05,21.65,3.18,8.61,5.37,12.46,9.14,13.94,3.77,1.48,8.49,3.49,17.78,1.33,22.08-5.14,33.76-15.74,45.03-22.17,14.2-8.09,29.65-23.78,43.38-30.94,12.19-6.35,17.68-7.68,27.34-8.15,39.01-1.92,52.48,25.37,53.88,44.7,1.56,21.63-4.89,28.79-14.16,35.86-7.25,5.52-10.19,7.37-10.19,7.37,0,0,1.88,5.97,7.8,5.67,5.92-.31,10.88-2.13,14.2,1.24,4.92,4.99.92,19,.94,24.58.02,5.57-.91,10.34-2.01,13.42,0,0-4.3,5.84-7.44,6.83s-13.32,1.35-15.23.31c-1.91-1.04-7.73-1.1-7.16-4.2.94-5.1,8.99-5.09,8.9-6.07-.09-.98-.02-2.25-.02-2.25,0,0-.71-10.4-2.5-12.49s-27.02-.68-27.02-.68c0,0-1.88,5.62-2.43,8.46-.55,2.84-1.32,10.1-2.47,10.95s-12.86.59-14.44.58c-1.58-.01-10.39.13-10.72-.64-.32-.77.56-3.55,2.61-5.9,2.05-2.35,6.81-6.14,6.81-6.14l-1.79-7.6s-11.02-2.91-12.1-6.27c-1.08-3.36-1.96-2.02-1.96-2.02,0,0-22.38,18.16-27.21,20.98-4.83,2.82-7.03,3.98-7.03,3.98,0,0-1.15,3.81-4.61,4.92-3.46,1.11-21.07,3.82-29.07,4.4-6,.43-20.82,1.76-26.36.6-5.54-1.17-9.22-2.58-9.22-7.74,0-1.58,0-2.89,0-2.89,0,0-7.87-5.33-10.08-7.21l-2.21-1.88s-15.92,3.42-20.43-.27c-.58-.48-1.13-3.18,1.79-6.31,2.92-3.12,9.51-7.69,9.51-7.69,0,0-6.17-12.91-7.74-18.28s-3.56-14.3-3.56-14.3c0,0-6.16-21.04-8.55-28-2.39-6.96-12.57-34.25-15.87-40.9-3.3-6.64-8.31-15.49-10.25-17.49-1.94-2-2.95-3.63-2.95-3.63l-45.23-9.2s6.01-3.82,10.98-5.55,9.74-3.15,9.74-3.15l10.42-2.94s-22.97-13.01-28.83-18.4c-5.85-5.39-19.38-20.46-23.16-29.62s-8.84-23.22-9.14-30.11c-.29-6.89.01-12.63,2.93-12.96,2.91-.33,10.92-.57,20.22,7.58,9.3,8.15,33.99,24.55,38.57,28.03,4.58,3.48,30.13,24.25,30.13,24.25Z"/>
    </g>
    <g id="collare">
      <path class="cls-11" d="M314.9,422.61l4.81,11.2c.19.45.68.69,1.15.56,3.01-.82,13.59-3.81,19.28-6.42,6.67-3.07,12.77-6.18,17.19-9.13,3.22-2.15,5.52-3.76,6.54-4.47.33-.23.41-.67.2-1.01l-6.51-10.29s-11.24,6.84-17.41,10.03-12.89,5.24-16.81,6.64-8.44,2.88-8.44,2.88Z"/>
      <polygon class="cls-12" points="319.16 419.19 315.06 421.93 319.83 420.9 319.16 419.19"/>
      <polygon class="cls-12" points="352.9 403.25 357.31 402.72 353.45 405.51 352.9 403.25"/>
    </g>
    <g id="orecchie_naso_lingua_zampe">
      <path class="cls-6" d="M213.57,231.72c-2.64,3.87-3.58,4.1-3.35,7.99s2.54,15.61,3.35,18.1,6.15,6.01,9.03,6,12.12-2.57,14.74-4.22,5.27-2.71,6.78-5.59,3.26-5.12,1.73-6.41-14.55-10.3-14.55-10.3l-11.84-5.7-5.89.12Z"/>
      <path class="cls-6" d="M302.78,224.2c-1.83,1.12-1.87,3.97-.6,5.7s3.39,2.6,5.44,3.25,5.82,2.05,7.45,3.45c3.5,2.99,1.67,7.56,1.16,12.14-1.4,12.62-1.37,25.53-2.77,38.14,2.08-2.68,4.38-4.25,7.66-3.39s5.92,3.79,6.42,7.15c11.46-15.15,19.91-32.58,24.72-50.96,1.67-6.39,2.29-13.13.42-19.47-3.56-12.09-14.53-13.55-24.17-12.22s-18.03,7.31-24.96,14.14c-1.01,1-2.04,2.09-2.36,3.47s.4,3.1,1.8,3.36"/>
      <path class="cls-6" d="M373.79,293.86c5.37-4.49,10.97-9.44,17.87-10.62,7.8-1.33,13.59.28,19.78,3.04,7.75,3.46,16.32,8.12,20.22,15.66s2.45,18.16-3.04,24.63c-2.01,2.37-4.87,4.26-7.98,4.18-4.85-.13-8.21-4.7-10.87-8.76s-6.29-8.53-11.14-8.26c-14.29.79-28.36,5.4-40.34,13.23-2.71,1.77-5.97,3.8-8.96,2.55-2.22-.92-3.18-3.47-3.49-5.85-1.17-9,5.83-11.01,10.99-15.32,6.05-5.05,10.91-9.43,16.96-14.48Z"/>
      <path class="cls-11" d="M356.19,492.51c.26,2.69,1.6,5.43,4.07,6.52s5.24,1.27,7.94,1.42c4.87.28,7.35-.38,12.22-.18,3.36.14,13.17,1.19,13.58-2.15.34-2.69-2.5-7.45-5.5-9.91-6.03-4.95-13.26-6.25-20.76-5.29-1.88.24-12.22,2.71-11.56,9.58Z"/>
      <path class="cls-11" d="M522.56,491.24c7.14-3.98,16.62-3.28,23.11,1.7-1.95,6.4-15.51,9.93-25.94,5.96-1.69-.64-2.48-1.44-2.81-3.22s1.9-3.71,5.64-4.44Z"/>
      <path class="cls-11" d="M475.55,481.27c-4.57,1.86-8.11,7.27-9.42,12.03,7.16.56,11.21.13,18.37.69,2.38.19,7.59.36,8.01-1.99.39-2.15-2.19-3.74-4.38-3.69s-4.3,1.02-6.49.91-3.56-3.09-6.1-7.96Z"/>
      <path class="cls-11" d="M334.78,466.26c-2.91.8-4.88,2.85-7.02,4.96s-5.59,6.82-3.56,9.05c1.39,1.52,3.63,1.89,5.69,2,4.36.23,7.87-.93,13.96-1.54-2.93-4.44-5.33-10.97-9.06-14.47Z"/>
      <path class="cls-13" d="M215.89,306.48c-7.89,3.27-14.55,11.2-13.48,19.67.59,4.65,3.32,8.71,6.12,12.47,1.05,1.41,2.13,2.81,3.51,3.9,4.26,3.35,10.51,2.91,15.45.67s9-5.99,13.43-9.12c8.79-6.21,21.94-8.67,31.45-11.4-1.56.14-6.89-2.57-8.28-3.37-2.42-1.4-4.81-2.84-7.17-4.34-4.61-2.92-8.88-6.34-13.44-9.31-6.98-4.56-20.34-2.18-27.58.83Z"/>
      <path class="cls-14" d="M261.43,326.43c3.5-3.23,8.77-3.98,13.38-2.79,14.31,3.72,27.67,11.68,47.05,11.24-5.14,3.58-40.72-1.87-60.43-8.45Z"/>
    </g>
    <g id="Tracciato">
      <path class="cls-4" d="M465.13,435.51c-4.71,12.5-5.04,20.25-5.04,20.25-3,16.75,11.5,18,18,18.25s36.88-.66,45.1.62c2.29,2.79,2.84,7.21,2.67,12.19l-.15,2.55s-9.06,2.51-9.06,7.08c0,3.25,14.65,3.95,14.65,3.95,17.8.46,16.43-14.22,16.43-14.22,0,0,1.94-15.09,2.37-18.69,2.68-22.59-13.5-12.98-19.04-14.6-4.3-1.26-5.26-6.01-5.26-6.01"/>
      <path class="cls-2" d="M460.62,464.51s-17.79,16.96-35.16,25.83"/>
      <path class="cls-2" d="M387.1,472.11c-9.42,4.08-31.86,10.69-30.87,21.65.76,8.44,24.12,6.96,39.12,5.58,0,0,20.25-1.58,25.5-4.08s5.96-8.4,3.75-13c-2.92-6.08-14.15-11.04-24-23.5-4.2-5.31-2.75-9.25-2.12-12.62"/>
      <path class="cls-2" d="M356.81,490.01c-.17-.11-.34-.31-.61-.39-9.71-2.69-27.16-25.11-32.72-55.94"/>
      <path class="cls-2" d="M384.68,303.68c5.5.83,18,8.5,23.33,16.5,5.33,8,12.33,14.33,17,9.83s16.19-20,3.06-32.46c-13.74-13.03-32.32-22.35-47.24-9.08-8.31,7.39-19.97,16.31-25.94,21.53-2.93,2.56-6.44,4.57-7.54,5.67-3.33,3.33-1.67,16.33,5.17,14.33,0,0,3.65-2.89,10.51-5.98,6.86-3.09,25.53-11.3,39.35-10.15"/>
      <g>
        <path class="cls-2" d="M312.67,286.89s4.3-37.25,4.06-55.17c-.08-6.05-4.88-8.96-9.3-7.46"/>
        <path class="cls-2" d="M315.51,236.76s-17.42-5.42-13.92-11.67,7.84-11.18,22-15.5c10.75-3.28,22.12-.56,25.77,3.71,7.48,8.78,4.52,20.06,1.27,31.36-3.72,12.95-9.75,23.84-14.98,33.71-3.15,5.95-8.33,13.2-8.33,13.2"/>
      </g>
      <path class="cls-3" d="M326.14,335.01c-8.47.03-23.03-2.12-31.03-4.63-8-2.5-25.26-7.38-37.26-14.88s-27.35-20.87-34.53-33.74c-7.49-13.42-13.05-31.51-13.09-42.06-.04-9.5,8.43-8.59,12.38-6.96,11.4,4.73,53.64,37.64,60.51,42.73,19.99,14.81,46.89,42.44,46.89,42.44"/>
      <path class="cls-2" d="M353.57,310.01c-2.91-3.48-6.58-7.16-8.9-11.18"/>
      <path class="cls-2" d="M254.13,312.97s-21.28-2.96-31.53,12.3"/>
      <path class="cls-8" d="M334.45,300.74c-.95.95-1.19,2.26-.53,2.92.66.66,1.97.43,2.93-.52.95-.95,1.19-2.26.53-2.92-.66-.66-1.97-.43-2.92.52Z"/>
      <path class="cls-8" d="M316.12,289.7c-.95.95-1.46,1.99-1.13,2.32.33.33,1.37-.17,2.33-1.12.95-.95,1.46-1.99,1.13-2.32-.33-.33-1.37.17-2.33,1.12Z"/>
      <path class="cls-7" d="M473.76,473.67s1.26,7.51,3.09,10.84"/>
      <path class="cls-2" d="M496.18,473.95s-3,8.89-3,12.22,1.04,7.42-3.96,7.59-14.21.24-17.21.08-7.83.86-5.67-2.82,4.4-6.66,9.2-9.75"/>
      <path class="cls-2" d="M532.18,492.51c-1.67,1.83-3.57,5.46-.87,7.9"/>
      <path class="cls-2" d="M243.62,304.42s-22.52-3.41-33.52,5.59c-11,9-6.75,19.25-4.25,23.25s6.97,12.16,14.75,12c4.49-.09,10.62-3.72,14.5-6.81,8.75-6.95,15.83-9.75,26.25-12.69l10.42-2.94"/>
      <path class="cls-2" d="M361.35,466.26s14.49,4.35,14.55,9.92"/>
      <path class="cls-2" d="M361.01,484.51s26.84-10.33,33.34,14.83"/>
      <path class="cls-2" d="M375.04,500.55s-5.3-2.7-1.19-10.21"/>
      <path class="cls-2" d="M334.78,466.26s-12.93,6.75-11.31,14c4.18,3.06,20.43.27,20.43.27"/>
      <path class="cls-2" d="M624.35,268.51s23.65,8.46,3.27,16.93"/>
      <path class="cls-2" d="M633.9,268.51s27.55,10.75,0,21.5"/>
      <path class="cls-2" d="M576.59,279.26s-11.87,13.08,9.26,12.32"/>
      <path class="cls-2" d="M566.85,286.89s-6.03,12.95,19,10.62"/>
      <path class="cls-2" d="M321.86,331.51s6.52,3.33,7.17,10"/>
      <path class="cls-2" d="M359.86,417.17s2.77,4.72,12.43,4.5c5.51-.13,10.83-1.49,18.7-3.87,5.88-1.78,30.24-16.1,38.49-21.6,23.04-15.37,40.08-39.03,76.37-36.45,26.66,1.9,49.72,26.54,43.49,59.97-4.22,22.67-37.56,33.56-37.56,33.56"/>
      <path class="cls-2" d="M239.8,335.01s10.84,1.9,19.01,3.44c14.31,2.7,26.17,5.33,33.12,6.81,6.95,1.48,12.99,2.03,12.99,2.03"/>
      <path class="cls-2" d="M261.35,325.76s.66,1.59,18.21,5.75c29.33,6.95,46.59,3.5,46.59,3.5"/>
      <path class="cls-4" d="M302.49,291.58s5.29-2.18,10.18-4.69c4.89-2.51,7.56-5.21,10-3.53s4.29,7.61,6.37,8.76c2.08,1.15,5.86.93,10.08,1.59s5.33,1.11,5.56,5.11c.22,4-3.78,13.91-3.78,13.91"/>
      <path class="cls-2" d="M357.31,327.04s-.64,4.15-2.64,7.97c-2,3.82-6.84,9.64-8.98,12.28-2.13,2.65-2.17,2.57-3.47,5.53-4.47,10.22,11.29,52.85,11.29,52.85"/>
      <path class="cls-2" d="M319.85,420.94s-21.4-70.96-35.35-77.27"/>
      <path class="cls-2" d="M315.1,423.09c-.11-.26.02-.56.29-.65,2.47-.81,13.69-4.55,22.36-8.28,8.42-3.63,16.98-9.22,19.23-10.73.32-.21.74-.12.94.2l6.16,9.74c.2.32.13.73-.18.95-2.09,1.53-10.08,7.22-19.24,11.61-9.51,4.55-21.62,7.85-24.15,8.52-.28.07-.56-.07-.67-.33l-4.75-11.04Z"/>
      <path class="cls-2" d="M210.65,236.4c-.67,4.08-.13,21.06,6.77,25.21,7.65,4.61,14.25,1.07,19.92-2.01s11.3-9.11,6.98-13.3c-3.48-3.38-18.99-11.7-21.4-13.4-2.42-1.7-11.13-3.44-12.27,3.5Z"/>
    </g>
    <g id="ombre-2" data-name="ombre">
      <path class="cls-5" d="M308.15,223.63c2.85-.61,5.87,1.11,7.3,3.65s1.45,5.69.63,8.48c-.45,1.53-10.02-3.41-10.8-4.27-2.44-2.71-.9-7.05,2.88-7.86Z"/>
      <path class="cls-5" d="M341.27,224.8c1.36,7.64-.54,15.47-2.89,22.87-3.86,12.13-9,23.85-15.3,34.91l4.1,8.28c10.03-14.17,18.08-29.73,23.87-46.1,1.79-5.07,3.38-10.27,3.85-15.62s-.23-10.93-2.8-15.65c-2.01-3.7-13.08-7.61-16.39-4.25-2.42,2.46.28,4.2,1.76,6.32,1.92,2.74,3.22,5.94,3.8,9.24Z"/>
      <path class="cls-5" d="M346,298.25c-4.23,7.84-8.6,16.34-7.55,25.19.5,4.18,2.2,8.25,1.87,12.45-.53,6.73-6.33,12.12-12.73,14.27s-13.34,1.74-20.08,1.31c7.38,9.46,14.82,19,20.06,29.79s8.19,23.06,6.06,34.87c5.03-1.98,6.03-3.54,11.05-5.51,1.37-.54,6.22-3.16,7.26-4.2s2.2-1.03,1.58-2.36c-.85-1.8-1.95-3.5-2.55-5.4-3.41-10.9-5.76-17-7.45-25.97s-2.96-18.37,2.02-26.01c4.02-6.17,10.83-11.4,10.84-18.76-1.9,3.02-6.81,2.97-9.28.4s-2.67-6.73-1.3-10.02,4.04-5.86,6.84-8.08c-2.61-2.95-5.22-5.9-6.64-11.96Z"/>
      <path class="cls-5" d="M219.35,253.63c5.75-1.02,13.75-2.43,15.48-5.91s.52-6.04-2.33-8.69c2.88,1.07,5.81,2.18,8.2,4.09s4.23,3.24,4.07,6.3c-.2,3.8-4.22,6.84-7.45,8.85-5.11,3.17-10.57,6.4-16.28,4.56s-10.21-7.93-8.91-13.8c0,0,3.39,5.28,7.22,4.6Z"/>
      <path class="cls-5" d="M245.85,312.73c-1.02.13-3.11-8.84-2.23-8.32,7.41,4.37,19.41,14.24,26.82,18.61-12.46,2.83-24.4,7.96-35.02,15.06-4.93,3.29-10.16,7.18-16.07,6.7-4.42-.36-8.34-3.23-10.99-6.78-1.49-1.99-5.23-6.85-3.7-9.38,2.5,2.47,5.27,5.51,9.27,4.36,2.84-.82,4.57-3.59,6.32-5.98,5.7-7.74,16.14-12.59,25.6-14.28Z"/>
      <path class="cls-5" d="M532.63,387.86c3.79,11.2,2.95,23.89-2.27,34.49-4.27,8.68-11.25,15.8-19.06,21.52s-16.46,10.14-25.08,14.54c5.84,2.19,12.2,2.51,18.43,2.67s12.56.19,18.57,1.87,11.79,5.25,14.63,10.8,2.62,15.05-2.39,18.76c-2.62,1.94-13.79.72-14.32,3.95-.56,3.42,8.93,4.66,12.39,4.44,4.9-.31,10.22-2.16,12.28-6.62s2.46-9.48,2.83-14.38c.36-4.75.72-9.5,1.08-14.26.19-2.49.37-5.03-.25-7.44s-2.2-4.73-4.56-5.55c-2.85-1-5.91.35-8.88.95s-8.55-2.54-9.68-5.34c-.56-1.38,2.59-3.06,4.92-4.56,19.13-12.33,22.62-31.13,17.92-48.7-2.85-10.63-9.79-19.97-18.79-26.22-3.98-2.77-10.08-6.68-15.08-6.95-3.9-.22-2.48,1.48-.09,3.16s4.78,3.65,6.89,5.82c4.69,4.83,8.33,10.68,10.49,17.06Z"/>
      <path class="cls-5" d="M357.77,426.17c9.42-.69,18.96-.71,28.16-2.86s18.26-6.77,23.46-14.66c-13.35,6.71-26.1,14.96-40.89,12.83-3.04-.44-7.27-2.58-8.65-3.67-1.19-.94-5,2.77-6.36,3.46-7.04,3.57-14.12,7.06-21.12,10.71,7.55-3.72,16.96-5.81,25.4-5.81Z"/>
      <path class="cls-1" d="M360.71,473.15c-1.07,1.95-2.73,3.5-4.26,5.12s-2.99,3.43-3.49,5.6.24,4.77,2.21,5.8c4.16-4.96,9.59-8.85,15.63-11.19,1.55-.6,4.89-.64,5.09-2.29.15-1.27-2.28-3.16-3.23-4.02-1.83-1.67-7.07-5.43-9.72-5.38-3.27.06-.85,3.83-2.23,6.36Z"/>
      <path class="cls-5" d="M483.4,479.69c1.16,2.65.39,6.01-1.81,7.9-3.01,2.58-7.93,2.31-10.49,5.35,5.47.25,10.95.5,16.42.75,1.18.05,2.46.08,3.41-.62,1.1-.81,1.39-2.31,1.59-3.66.64-4.24,1.28-8.47,1.91-12.71.11-.74.2-1.56-.25-2.16-.52-.69.04-.56-.82-.57-3.59-.03-17.47.32-17.47.32,1.36,2.65,5.94,1.84,7.49,5.39Z"/>
      <path class="cls-5" d="M327.99,481.06c4.33.04,8.66.08,12.99.12,5.47.05-1.5-6.88-3.85-7.48-2.09-.53-3.59.49-5.09,1.87-.64.59-3.78,5.49-4.05,5.49Z"/>
      <path class="cls-5" d="M327.68,341.12c.45-3.44-1.51-7.07-4.64-8.58,1.03-.17,1.53,1.45.86,2.24s-1.84.9-2.88.94c-17.01.68-34.13-1.46-50.45-6.31-3.75-1.11-7.39-3.45-9.23-3.45-2.57,0-20.92,8.65-20.92,8.65.74,1.75,11.18,2.31,12.89,2.75,3.44.89,6.91,1.68,10.4,2.37,13.53,2.68,27.35,3.84,41.14,3.46,2.15-.06,22.64-.59,22.84-2.06Z"/>
      <path class="cls-5" d="M319.83,329.56c2.77,1.55,2.03,0,6.31,5.04-20.59.8-42.74-5.98-60.97-15.61-8.55-4.52-17.15-8.51-24.34-14.98-6.48-5.83-15.34-13.73-18.78-21.84,2.8-1.33,9.96,5.95,12.36,7.61,4.62,3.19,9.33,6.3,14.29,8.93,59.91,31.75,66.44,28.22,71.13,30.84Z"/>
      <path class="cls-5" d="M399.1,470.52c1.42,1.81,3.26,3.69,3.05,5.98-.19,2.07-2.09,3.64-4.09,4.22s-4.13.39-6.21.41c-7.5.06-14.94,2.83-20.66,7.67-1.6,1.35-3.11,2.94-3.76,4.93s-.22,4.46,1.48,5.68c1.32.95,3.06.97,4.68.95,7.34-.09,14.67-.41,21.99-.97,7.05-.54,17.26-1.21,23.91-3.62,3.27-1.18,2.39-2.74,7.26-6.12,6.09-4.23,17.09-11.62,23.18-15.85,3.14-2.18,6.45-4.56,7.88-8.11.48-1.19.72-2.45.96-3.71,1.74-9.19,3.49-18.39,5.23-27.58-9.07,9.09-21.37,14.05-33.31,18.78-5.96,2.36-12.18,4.76-18.57,4.28-5.42-.41-11.27-3.55-13.29-8.84-.58-1.51-1.12-2.37-2.06-.48-.66,1.34-1.15,2.77-1.5,4.21-.69,2.91-.77,5.97-.25,8.92.59,3.35,1.95,6.57,4.06,9.24Z"/>
      <path class="cls-5" d="M377.88,301.89c.97-1.74,1.95-3.68,3.78-4.45,3.05-1.29,6.94,1.38,8.79,1.61.2.02.39.06.57.16,6.91,3.74,17.11,11.95,27.59,10.9,5.72-.57,11.41-4.62,12.23-10.31,4.8,8.56,3.56,20.08-2.93,27.43-1.27,1.43-2.77,2.75-4.6,3.31-3.22.98-6.73-.64-9.13-2.99s-4.02-5.37-6-8.09-4.55-5.28-7.84-5.98c-2.27-.48-4.62-.02-6.9.44-11.68,2.36-23.73,4.87-33.51,11.68-1.84,1.28-3.6,2.71-5.67,3.55s-4.59.99-6.44-.27c-1.98-1.34-2.83-5.04-.49-6.4s6.1-1.31,8.69-2.24c5.9-2.12,11.32-5.61,15.69-10.1,2.41-2.47,4.5-5.25,6.18-8.26Z"/>
    </g>
  </g>
</svg>