<?xml version="1.0" encoding="UTF-8"?>
<svg id="Layer_1" xmlns="http://www.w3.org/2000/svg" version="1.1" viewBox="0 0 430 422">
  <!-- Generator: Adobe Illustrator 29.5.1, SVG Export Plug-In . SVG Version: 2.1.0 Build 141)  -->
  <defs>
    <style>
      .st0 {
        mix-blend-mode: multiply;
        opacity: .37;
      }

      .st0, .st1 {
        fill: #efefef;
      }

      .st0, .st2 {
        isolation: isolate;
      }

      .st3 {
        fill: #e6e6e6;
      }

      .st4, .st5, .st6 {
        fill: #918f8e;
      }

      .st7 {
        fill: #fcfcfd;
      }

      .st5 {
        stroke-miterlimit: 10;
      }

      .st5, .st8, .st6, .st9 {
        stroke: #61615f;
      }

      .st10, .st8 {
        fill: #61615f;
      }

      .st8, .st6, .st9 {
        stroke-linecap: round;
        stroke-linejoin: round;
        stroke-width: 1.2px;
      }

      .st9 {
        fill: none;
      }
    </style>
  </defs>
  <g class="st2">
    <g id="coda">
      <path class="st5" d="M378.83,354.59c-.67.22-26.45,3.14-43.93-2.01-28.76-8.47-40.58-28.76-50.21-32-7.76-2.61-14-.72-14-.72v-11.65s8.92-1.11,17.17,3.79,19.79,18.51,30.33,26.28c15.16,11.18,21.63,12.52,34.34,14.31s26.31,2.01,26.31,2.01h-.01Z"/>
    </g>
    <g id="corpo_colore_sfondo">
      <path class="st7" d="M104.3,149.2c9,11.25,31.04,33.21,33.51,41.18,2.22,7.17-1.86,25.15-5.74,35.02-6.25,15.89-14.69,31.11-17.97,47.86-3.28,16.76-.17,36.2,13.12,46.92l-1.37,9.75c-2.47-.66-5.25,1.65-5.04,4.2,2.67,3.1,6.3,3.27,9.56,4.14-1.7,2.95-5.87,2.88-4.91,7.33,2.76,1.56,8.64,1.64,13.8,1.39,4.12-.2,8.07,1.29,6.82-7.94-.57-4.2-1.09-6.78-1.31-11.2,2.1,6.31,30.44-2.02,52.81-.81-3.38-.29-7.72,6.3-6.72,9.54s7.27,1.84,10.65,2.16,6.32-.18,9.56-1.17l-2.46,3.66c-.76,1.13-.18,2.53,1.05,3.12,8.75,4.19,10.05,4.83,23.43,3.81,8.58-.66,25.91,2.54,32-3.54,14.28-14.26,13.89-27.45,8.25-38.11-5.65-10.66-17.91-18.36-29.6-21.35-12.72-3.25-26.17-5.33-38.16-6.69-11.99-1.36-21.05-3.97-32.01-9.01-8.02-3.69-14.87-8.66-17.53-17.09-3.16-10.01,2.03-20.08,7.41-29.09,7.69-12.86,15.41-25.29,19.88-39.59s3.92-22.63,0-29.82c-2.3-4.23-5.68-8.29-10.54-10.97-6.12-3.37-14.29,0-20.98-4.95-6.03-4.46-13.82-11.17-19.6-15.94-7.01-5.78-10.99-8.76-16.82-10.66-6.86-2.24-15.47-.57-17.88,6.62-2.84,8.5-2.21,10.65,2.22,17.86,2.87,4.66-1.71,5.53,4.56,13.37h0Z"/>
    </g>
    <g id="orecchie_naso_zampe">
      <path class="st4" d="M171.78,158.24c2.89-1.14,3.78-.11,5.66,2.37,3.99,5.25,9.26,13.22,11.21,19.53,4.07,13.16,2.79,21.84,1.9,35.59-.18,2.78-3.32,17.49-5.94,18.44-4.32,1.58-11.62-2.01-14.89-5.23-6.01-5.92-9.94-13.57-13.75-21.1-5.01-9.91-10.55-23.33-7.7-34.06,1.55-5.82,5.77-7.8,11.22-11.97,1.77-1.36.93-4.53,2.84-3.92,1.2.39,4.22,2.42,9.46.35h-.01Z"/>
      <path class="st4" d="M186.17,174.55c.4,2.86,2.76,5.44,3.22,8.3,2,12.5,2.15,22.56.76,33.85,2.11,1.56,4.22,3.11,6.34,4.67,1.83,1.35,3.95,2.76,6.18,2.32,1.74-.34,3.1-1.81,3.76-3.46s.74-3.47.75-5.24c.08-17.43-7.1-36.79-18.07-50.33-1.73-2.13-2.13-2.08-2.31,1.7-.14,2.98-.91,6.14-.62,8.19h-.01Z"/>
      <path class="st4" d="M160.21,252.38c-1.63,1.25-5.04,1.41-7.1,1.33-9.8-.37-18-3.16-26.36-8.29-1.65-1.01-6.37-3.07-6.31-3.9.19-2.68,1.31-6.98,2.74-11.14-.91,1.47,18.62,10.25,20.41,10.73,3.67.98,7.43,1.62,11.21,1.92,1.89.15,3.79.21,5.69.18s2.25-1.27,1.8.7c-.86,3.78-1.06,7.67-2.08,8.46h0Z"/>
      <path class="st10" d="M156.92,238.82l5.54,3.24s1.74.56-1.55.52-5.5.5-5.5.5l1.51-4.26h0Z"/>
      <polygon class="st10" points="123.3 229.87 129.49 230.39 127.65 233.7 123.3 229.87"/>
      <path class="st3" d="M132.21,337.33s4.98,4.84,7.98,5.03,6-1.32,6-1.32c0,0,.76,4.3-1.03,4.98s-7.47,1.24-10.97,1.06-8.25.82-8.74-1.49-2.58-1.62.59-4.14,6.16-4.13,6.16-4.13h0Z"/>
      <path class="st3" d="M214.21,335.57s-2.22-.26-4.11,2.71-3.5,4.24-1.97,5.16,5.49,2.36,5.49,2.36c0,0,1.27,2.53,3.34,2.49s7.72.3,13.9.05,10.48-.71,10.48-.71c0,0-1.08-5.8-3.12-7.74s-4.74-3.83-8.22-4.62-10.29-.77-10.29-.77l-5.5,1.08h0Z"/>
      <path class="st3" d="M196.45,327.04s-4.21,3.21-4.98,5.45-.62,4.65.5,5.12,7.18.2,8.36.66,9.08-.24,9.08-.24c0,0,2.83-1.78,4.81-2.47s2.35-1.08,2.35-1.08l-7.16-6.59-12.95-.85h-.01Z"/>
      <path class="st3" d="M126.59,329.61s1.56,3.77,3.6,3.94,1.85-.71,1.85-.71l.17,4.49-3,.61-8.02-3.63c-.26-.12-.42-.38-.41-.67.03-.64.28-1.75,1.52-2.49,1.83-1.08,4.28-1.54,4.28-1.54h0Z"/>
    </g>
    <g id="ombre">
      <path class="st0" d="M172.79,142.9s4.48,6.3,1.74,10.82-12.2,4.16-12.2,4.16c0,0,8.44,12.32,13.1,23.5s6.44,30,6.11,37.33-11.73,5.67-13.9,3.44-7.51-6.43-7.51-6.43c0,0,1.73,7.83,5.79,10.65s12.62,8.83,15.66,8.3,4.57,1.42,6.1-5.18,2.48-12.81,2.48-12.81c0,0,8.96,6.41,10.73,6.7s4.3.69,4.92-1.24,1.55-13.12.43-18.73-3.46-18.84-9.59-27.97-9.85-13.34-9.85-13.34c0,0-.22-3.14-2.55-6.9s-6.67-8.17-6.67-8.17l-4.78-4.17v.04h0Z"/>
      <path class="st0" d="M149.89,193.51s2.17,8.21,2.9,14.54.7,16-1.45,22.33-11.48,8.43-11.48,8.43c0,0,3.55,5.96,1.5,9.23s-6.03,1.91-6.03,1.91c0,0,7.52,4.09,13.52,9.42,6,5.33,20,12.33,25.67,23.67s-1.88,38.38-11.61,42.77l-9.73,4.39s20.81-2.64,30.24-2.93,25.97.61,25.97.61c0,0-8.01-8.86-4.18-15.22,8.99-14.95,24.78-21.28,24.78-21.28,0,0,20.53-.67,30.86,18.33,2.74,5.04,4.33,21.99-3,25.16s-11.03,3.46-20.03,3.78-17.2-2.92-20.87.07-3.93,6.85-3.34,7.05,3.27,2.42,6.09,2.43,21.62-.61,21.62-.61c0,0,15.82,1.19,19.26-.46s8.49-5.29,11.99-12.67,4.41-15.27,4.41-15.27c0,0-1.95-12.51-7.69-18.35s-17.77-16.47-36.77-18.47-45.67-6-54-10-16.73-10.26-19.36-13.63-3.13-5.33-3.13-5.33l4.08-.63,2.17-10.14s-5.31-4.08-5.37-3.84-.27-6.14,2.24-9.31,4.14-5.97,4.14-5.97c0,0-5.85-11.97-8.31-17.4s-5.1-12.63-5.1-12.63v.02h.01Z"/>
      <path class="st0" d="M194.69,338.27s2.77-7.96,5.64-7.92,9.08-2.46,9.08-2.46l7.16,6.59s-3.83,2.62-5.49,3.08l-1.67.47-14.72.24h0Z"/>
      <path class="st0" d="M137.81,327.04s2.61,12.14,0,14.41-9.77,5.06-9.77,5.06l17.13-.48s1.23-.35,1.07-3.67-1.47-14.51-1.47-14.51c0,0-1.06-7.46-3.32-6.13s-3.65,5.32-3.65,5.32h0Z"/>
      <path class="st0" d="M129.21,322.6v15.34l3-.61v-11.51l-3-3.22Z"/>
      <path class="st0" d="M97.49,131.4s11.38,13.62,19.38,17.8,12.35,6.04,12.35,6.04c0,0,3.17,5.12,3,6.9s1.59,4.62-5.72,1.77-24.71-17.13-25.41-20.48-.45-6.1-.45-6.1c0,0-.39.73-1.77-2.6l-1.38-3.32h0Z"/>
      <path class="st1" d="M154.63,143.42c-3.2,1.26-4.67,2.52-4.61,4.15.09,2.59,7.75,4.01,11.83,4.01s6.45-1.66,5.67-4.51c-1.6-5.86-9.69-4.91-12.89-3.65Z"/>
    </g>
    <g id="TRACCIATO">
      <path class="st9" d="M214.21,345.99s1.5-6.25,5.5-7.25"/>
      <path class="st9" d="M225.71,292.99c-4.75,2.5-16.99,9.18-20.49,19.68s3.74,14.11,11.74,22.21"/>
      <path class="st9" d="M241.34,347.61c-1.75-16-21.62-13.12-21.62-13.12-9.25,1-9.5,3.75-11.5,6.75s3.25,3.75,6,4.75c2.25,2.75,6.5,2.25,6.5,2.25,0,0,23.03-.07,34.67-.04,4.2,0,8.22-1.74,11.03-4.86,9.69-10.76,23.38-37.7-17.13-56.31-17.94-8.24-81.65-5.98-93.24-33.58"/>
      <path class="st9" d="M209.4,327.89s-17.21-2.07-32.6.03c-9.33,1.27-20.76,3.38-27.2,2.43-.07-.01-4.45-.97-4.45-.9.21,2.39,1.15,9.77,1.09,14.34-.02,1.59-1.29,2.87-2.87,2.92-4.83.14-16.25.29-17.54-.73-1.75-1.38-2-4.68,6.38-8.65-.12-7.1,1.12-11.61-3-14.73s-8.88-10.24-11.38-14.86-4.25-13.25-4.5-16.88.12-12.75,1.75-21.88,8.97-24.79,8.97-24.79"/>
      <path class="st9" d="M196.45,327.04s-9.39,7.84-4.49,10.57c3.28,1.83,8.45.66,18.14.66"/>
      <path class="st9" d="M194.69,338.27s.65-3.54,3.53-6.04"/>
      <path class="st9" d="M126.59,319.86v9.75s-3.38-.12-5.25,2.62.88,3.5,2.63,4,6.23,2.04,6.23,2.04"/>
      <path class="st9" d="M129.21,155.24s3.83,2.67,2.83,8.67"/>
      <ellipse class="st8" cx="152.8" cy="147.57" rx="2.2" ry="1.63"/>
      <path class="st9" d="M164.2,142.9c2.18,1.33,6.48,6.33,0,8.33"/>
      <path class="st9" d="M175.05,158.24s13.22,15.17,15.05,27.33c1.83,12.17.5,46.69-5.49,48.59-17.87,5.68-34.23-36.26-36.56-47.42-2.33-11.17,1.5-17.5,5.17-20.5s7.83-3.5,8.33-8"/>
      <path class="st9" d="M186.63,162.13s17.53,15.15,20.58,49.27c.54,5.98-.5,15-6.33,12s-10.73-6.7-10.73-6.7"/>
      <path class="st9" d="M164.2,222.16s-7.14,10.41-8.16,20.5"/>
      <path class="st6" d="M96.88,120.4s.7-12.02,3.45-17.02,9.34-3.21,11.9-1.04c2.93,2.48,6.68,7.85,10.23,10.73,2.89,2.34-11.08,14.58-25.58,7.33h0Z"/>
      <path class="st9" d="M243.03,325.82s-2.9,4.53-10.26,6.41c-5.02,1.28-15.81,2.65-15.81,2.65"/>
      <path class="st9" d="M122.46,113.07s26.45,27.25,37.65,27.68c3.78.14,9.78.3,12.68,2.15s10.96,9.9,12.97,15.33c2.31,6.23,0,15.54,0,15.54"/>
      <path class="st9" d="M123.18,230.39l-2.74,11.14s8.81,7.12,20.02,10.16c12.34,3.34,19.66,1.12,19.66,1.12l2.17-10.14s-6.25,2.2-19.58-1.78c-8.53-2.54-19.52-10.5-19.52-10.5h-.01Z"/>
      <path class="st9" d="M96.88,120.4s-1.24,1.84-.35,7.19c.06.33.12.66.18.98.82,4.12,2.86,7.89,5.75,10.93,6.09,6.42,18.71,17.91,29.59,20.73"/>
      <path class="st9" d="M128.16,233.7c-.31-.19,15.97-35.65,6.89-47.47s-30.49-35.33-32.94-40.3-1.65-8.62-1.65-8.62"/>
    </g>
  </g>
</svg>