<svg width="437" height="334" viewBox="0 0 437 334" fill="none" xmlns="http://www.w3.org/2000/svg">
<path d="M370.395 87.1289C370.395 87.1289 361.29 73.808 352.219 68.2792C343.148 62.7332 329.517 55.8049 317.301 53.628C305.086 51.451 296.206 49.4641 288.863 52.4186C281.52 55.373 266.869 62.3013 266.869 62.3013L219.701 37.4045C219.701 37.4045 149.296 -0.139379 146.203 1.24282C143.093 2.62501 131.465 32.6013 142.385 51.4337C153.304 70.2661 165.726 86.0231 179.98 94.731C194.217 103.439 214.034 113.961 214.034 113.961L196.377 123.256C196.377 123.256 229.774 145.198 243.026 150.572C256.278 155.962 269.512 161.422 269.512 161.422C269.512 161.422 282.194 174.328 285.805 189.498C289.416 204.667 293.459 236.803 293.459 247.101C293.459 264.689 291.212 279.047 291.212 279.047C291.212 279.047 288.12 298.017 270.29 311.252C256.9 321.186 245.168 337.652 231.277 343.232C231.277 343.232 210.337 348.64 198.467 350.99C186.58 353.357 169.165 358.523 155.999 371.757C145.806 382.02 124.952 401.803 125.816 435.874C126.351 457.021 131.085 469.098 135.854 476.268C140.519 483.266 145.685 484.648 157.209 491.473C164.327 495.688 170.875 502.046 171.549 504.69C172.24 507.333 173.916 515.264 175.92 516.473C177.924 517.682 186.166 518.65 192.818 518.633C199.469 518.633 210.492 519.998 215.365 516.473C220.807 512.551 220.824 507.471 217.68 503.256C214.535 499.04 208.367 490.367 208.367 490.367L240.261 487.585L272.155 481.383C272.155 481.383 272.155 489.399 257.124 501.632C252.407 505.467 253.185 512.793 257.85 514.883C262.515 516.974 279.066 518.581 285.822 517.682C292.56 516.801 304.464 517.078 306.52 512.706C308.576 508.335 305.777 499.178 305.138 492.44C304.499 485.702 307.937 467.664 307.937 467.664C307.937 467.664 330.311 458.732 337.17 454.706C344.151 450.611 351.286 446.05 351.286 446.05C351.286 446.05 352.824 468.39 350.664 474.402C348.504 480.415 345.93 485.736 347.52 487.516C349.109 489.296 353.031 489.192 357.869 490.211C362.706 491.231 380.537 490.712 386.999 491.455C393.46 492.198 399.767 491.127 398.039 486.721C396.311 482.316 381.902 469.979 381.902 469.979C381.902 469.979 394.169 396.706 393.806 381.502C393.443 366.298 394.013 355.482 386.895 342.075C379.794 328.685 378.757 325.972 370.55 316.919C362.361 307.883 356.884 302.63 356.884 302.63C356.884 302.63 352.444 286.718 352.202 273.863C351.96 261.009 353.273 237.633 355.26 225.521C357.264 213.41 357.852 210.006 357.852 210.006C357.852 210.006 372.365 160.731 373.038 131.549C373.695 102.35 370.378 87.1116 370.378 87.1116L370.395 87.1289Z" fill="#FCFCFD"/>
<path d="M363.535 276.421L363.138 298.795C363.138 298.795 337.204 305.568 325.49 305.654C309.699 305.775 296.326 303.754 288.862 301.646C281.416 299.521 277.58 297.43 277.58 297.43V273.415C277.58 273.415 292.87 279.168 311.841 280.723C330.812 282.261 335.2 282.122 345.342 280.619C355.484 279.116 363.518 276.421 363.518 276.421H363.535Z" fill="#918F8E"/>
<path d="M352.218 273.898L363.535 274.624L352.512 279.047L352.218 273.898Z" fill="#61615F"/>
<path d="M291.245 273.881L281.086 273.553C280.205 273.518 279.963 274.572 280.775 274.848L289.569 277.803C289.967 277.941 290.399 277.786 290.571 277.457L291.936 274.831C292.161 274.399 291.798 273.915 291.245 273.898V273.881Z" fill="#61615F"/>
<path d="M370.393 87.1289C370.393 87.1289 385.788 103.905 392.785 110.868C399.782 117.814 412.343 129.821 417.423 134.037C422.502 138.253 429.569 143.678 431.884 147.738C434.216 151.798 437.136 156.636 435.547 160.696C433.957 164.756 423.297 179.58 419.98 183.813C416.662 188.046 411.946 193.471 409.181 199.795C406.4 206.119 403.739 213.548 404.102 219.871C404.465 226.195 406.054 231.378 403.203 233.261C400.352 235.145 391.265 235.836 385.667 233.849C380.052 231.862 367.197 225.97 361.72 216.831C356.243 207.691 348.537 187.925 348.486 177.697C348.434 167.469 349.799 155.496 353.237 147.738C356.675 139.981 365.763 118.643 367.75 109.019C369.737 99.3959 370.393 87.1289 370.393 87.1289Z" fill="#918F8E"/>
<path d="M196.514 24.8092C196.514 24.8092 183.055 16.5334 170.149 10.348C157.242 4.16272 149.295 -0.12207 146.202 1.26012C143.092 2.64232 139.619 8.13653 139.032 12.9397C138.445 17.7428 137.719 30.4935 137.719 30.4935C137.719 30.4935 142.988 34.2082 151.662 35.694C160.335 37.1799 171.254 38.0956 177.647 35.694C184.04 33.2925 188.618 31.3401 192.385 28.8522C196.151 26.3642 196.531 24.8092 196.531 24.8092H196.514Z" fill="#918F8E"/>
<path d="M271.811 123.257C271.811 123.257 250.335 133.347 238.811 144.853C227.287 156.343 226.406 168.731 225.559 171.944C224.713 175.158 213.793 197.066 202.148 201.057C187.825 205.964 165.555 206.447 161.063 179.443C156.57 152.438 168.578 140.689 173.727 136.422C178.876 132.172 200.991 119.386 200.991 119.386L214.052 113.979C214.052 113.979 223.814 117.849 233.628 119.455C243.441 121.062 271.828 123.257 271.828 123.257H271.811Z" fill="#D4D4D6"/>
<g style="mix-blend-mode:multiply" opacity="0.39">
<path d="M302.198 51.4507C317.16 52.1591 340.295 60.2794 345.841 74.1878C351.37 88.0961 348.035 105.114 337.651 115.895C317.385 136.939 319.026 170.63 323.138 199.57C324.676 210.368 327.44 220.994 328.08 231.879C328.719 242.764 327.008 254.27 320.495 262.996C313.964 271.738 303.494 281.983 293.404 277.837C313.117 284.057 332.123 285.283 352.216 280.463C352.095 258.693 354.203 232.345 358.609 211.042C367.04 226.713 385.665 236.233 403.306 233.918C401.992 214.878 409.024 195.406 422.19 181.602C428.582 174.898 435.424 167.089 434.975 157.828C434.491 147.876 425.835 140.55 417.905 134.538C417.957 132.067 416.195 129.683 413.81 128.992C417.698 135.488 418.855 143.574 416.955 150.9C413.517 164.151 401.405 172.997 390.106 180.72C384.922 184.262 378.53 187.977 372.725 185.558C362.997 181.498 357.589 170.492 357.175 159.97C356.76 149.431 360.44 139.203 364.328 129.406C368.215 119.61 369.459 112.976 370.237 102.454C370.997 91.9317 367.109 78.0925 358.522 71.9763C342.731 60.7632 322.499 53.8868 302.198 51.468V51.4507Z" fill="#EAE9EA"/>
</g>
<g style="mix-blend-mode:multiply" opacity="0.39">
<path d="M234.507 120.042C229.445 140.879 217.334 160.731 200.506 174.034C194.959 178.406 188.774 182.258 181.863 183.71C174.952 185.178 166.849 185.42 161.199 180.099C165.571 194.664 173.207 201.022 184.748 203.112C196.29 205.186 210.837 198.707 217.852 189.308C224.176 180.859 224.988 167.607 229.255 157.949C235.44 143.954 253.565 130.098 270.289 124.517C252.822 121.822 244.563 121.269 234.507 120.042Z" fill="#EAE9EA"/>
</g>
<g style="mix-blend-mode:multiply" opacity="0.39">
<path d="M326.006 307.606C340.104 305.067 354.202 302.544 368.301 300.004L366.642 274.969C348.674 284.144 331.327 283.85 311.925 282.122C313.618 285.612 318.144 288.325 320.442 291.746C323.604 296.445 325.608 301.939 326.006 307.606Z" fill="#EAE9EA"/>
</g>
<g style="mix-blend-mode:multiply" opacity="0.39">
<path d="M301.077 120.992L304.395 120.526L304.965 126.055L303.133 131.566C303.133 131.566 288.88 127.42 275.852 133.277C262.825 139.134 259.318 157.43 259.318 157.43L237.047 147.721C237.047 147.721 248.26 135.937 262.428 128.37C270.358 124.12 273.606 123.221 273.606 123.221L301.095 120.975L301.077 120.992Z" fill="#EAE9EA"/>
</g>
<g style="mix-blend-mode:multiply" opacity="0.39">
<path d="M305.086 280.947C305.086 280.947 320.861 284.247 320.567 295.028C320.256 305.792 311.928 306.725 311.928 306.725C311.928 306.725 327.564 306.639 340.125 304.548C352.686 302.458 363.156 298.812 363.156 298.812L363.553 274.641C363.553 274.641 368.08 276.162 354.914 278.96C341.749 281.759 326.234 280.585 319.081 281.362C311.928 282.139 305.086 280.965 305.086 280.965V280.947Z" fill="#EAE9EA"/>
</g>
<g style="mix-blend-mode:multiply" opacity="0.39">
<path d="M298.76 305.792C298.76 305.792 310.872 305.17 324.538 320.806C338.205 336.442 350.886 360.268 344.165 388.396C337.427 416.523 288.739 445.429 288.878 446.603C289.016 447.778 290.312 479.811 288.878 488.397C287.444 496.984 293.456 506.573 293.007 511.705C292.558 516.836 290.588 517.959 290.588 517.959C290.588 517.959 302.786 520.447 305.084 514.4C307.382 508.353 305.084 495.429 305.084 495.429L307.952 467.094L333.073 456.918L356.139 442.128L368.319 430.76C368.319 430.76 370.289 454.015 368.319 464.175C366.35 474.334 373.865 484.648 372.639 488L371.429 491.352C371.429 491.352 393.337 494.894 395.255 492.475C397.172 490.056 401.025 488.363 397 483.473C392.974 478.567 381.917 470.014 381.917 470.014C381.917 470.014 388.776 425.076 390.866 409.111C392.957 393.147 396.62 367.473 391.056 352.942C385.493 338.412 376.768 323.26 368.302 314.345C359.836 305.429 354.895 301.939 354.895 301.939C354.895 301.939 328.063 306.345 318.284 305.827C308.505 305.309 298.743 305.827 298.743 305.827V305.792H298.76Z" fill="#EAE9EA"/>
</g>
<g style="mix-blend-mode:multiply" opacity="0.39">
<path d="M269.613 113.01C223.915 107.62 181.637 78.5762 160.213 37.8533C153.319 36.2465 146.425 34.6224 139.532 33.0156C140.568 45.3517 144.11 58.1197 151.591 67.9851C159.072 77.8506 169.007 87.2495 179.235 94.2123C212.719 117.001 255.394 125.744 295.789 122.789C297.707 122.651 299.797 122.392 301.093 120.992C302.942 118.988 302.13 115.55 300.125 113.701C298.121 111.853 295.34 111.196 292.679 110.591L269.613 113.01Z" fill="#EAE9EA"/>
</g>
<path d="M303.133 131.566C303.133 131.566 310.7 119.265 296.014 112.561" stroke="#61615F" stroke-width="1.2" stroke-linecap="round" stroke-linejoin="round"/>
<path d="M329.846 77.868C329.846 79.4921 331.488 80.8225 333.509 80.8225C335.531 80.8225 337.172 79.5094 337.172 77.868C337.172 76.2267 335.531 74.9136 333.509 74.9136C331.488 74.9136 329.846 76.2267 329.846 77.868Z" fill="#61615F" stroke="#61615F" stroke-width="1.2" stroke-linecap="round" stroke-linejoin="round"/>
<path d="M275.852 123.36C269.493 123.516 228.771 142.365 226.317 167.072C224.676 183.658 213.359 196.737 202.129 201.057C190.898 205.376 177.647 205.67 167.28 192.712C156.914 179.754 158.417 159.366 166.71 144.853C176.938 126.971 214.016 113.979 214.016 113.979" stroke="#61615F" stroke-width="1.2" stroke-linecap="round" stroke-linejoin="round"/>
<path d="M233.609 119.455C233.609 119.455 184.818 135.679 183.142 170.233" stroke="#61615F" stroke-width="1.2" stroke-linecap="round" stroke-linejoin="round"/>
<path d="M352.216 278.321C350.885 251.645 354.013 231.966 357.762 210.697" stroke="#61615F" stroke-width="1.2" stroke-linecap="round" stroke-linejoin="round"/>
<path d="M370.395 51.4514C370.395 51.4514 367.803 27.695 345.342 36.3337" stroke="#61615F" stroke-width="1.2" stroke-linecap="round" stroke-linejoin="round"/>
<path d="M302.492 30.9254C302.492 30.9254 297.171 21.8548 284.921 30.9254" stroke="#61615F" stroke-width="1.2" stroke-linecap="round" stroke-linejoin="round"/>
<path d="M358.628 302.665C358.628 302.665 373.849 317.42 385.01 337.79C400.75 366.488 391.489 399.833 388.259 427.598C387.36 435.252 383.68 457.229 381.918 469.997C383.732 470.291 393.148 478.273 395.411 481.089C400.888 487.914 397.346 493.011 389.969 492.423C367.197 490.574 370.722 491.836 361.237 491.162C352.753 490.557 344.547 491.248 348.002 482.022C351.458 472.813 353.22 468.477 351.302 446.068" stroke="#61615F" stroke-width="1.2" stroke-linecap="round" stroke-linejoin="round"/>
<path d="M181.447 466.247C181.447 466.247 201.265 480.069 212.771 495.913C224.295 511.756 219.112 517.51 206.43 518.373C193.749 519.237 179.771 517.855 177.249 516.818C171.807 514.59 174.415 510.253 171.53 504.69C171.53 504.69 171.824 499.627 141.657 481.918C115.413 464.381 116.035 374.642 186.561 353.357C195.718 350.592 227.699 346.221 236.787 340.813C242.039 337.686 260.336 320.184 283.125 299.503" stroke="#61615F" stroke-width="1.2" stroke-linecap="round" stroke-linejoin="round"/>
<path d="M363.535 274.624L363.138 298.795C363.138 298.795 355.467 304.324 325.49 305.654C295.514 306.985 277.58 297.43 277.58 297.43V273.415C277.58 273.415 281.934 279.634 320.549 281.172C359.164 282.71 363.535 274.624 363.535 274.624Z" stroke="#61615F" stroke-width="1.2" stroke-linecap="round" stroke-linejoin="round"/>
<path d="M290.59 273.414C279.895 273.397 277.58 273.414 277.58 273.414" stroke="#61615F" stroke-width="1.2" stroke-linecap="round" stroke-linejoin="round"/>
<path d="M363.535 274.624C363.535 274.624 359.648 274.244 352.218 273.898" stroke="#61615F" stroke-width="1.2" stroke-linecap="round" stroke-linejoin="round"/>
<path d="M266.867 62.3015C275.852 61.6104 283.471 48.5314 305.068 51.4512C328.669 54.6476 348.071 62.7334 360.01 74.914C371.949 87.0946 378.117 93.0553 352.201 149.967C341.938 172.514 350.352 231.292 393.718 235.3C395.792 235.49 397.537 235.49 399.005 235.369C402.703 235.076 405.277 231.603 404.707 227.957C403.826 222.342 403.342 212.978 407.316 203.7C420.256 173.534 453.965 163.495 422.503 138.236C399.057 119.421 369.184 85.4186 369.184 85.4186" stroke="#61615F" stroke-width="1.2" stroke-linecap="round" stroke-linejoin="round"/>
<path d="M196.514 24.8093C196.514 24.8093 178.822 14.6674 170.149 10.3481C161.475 6.02871 149.295 -0.122041 146.202 1.26015C143.092 2.64235 140.069 6.61615 139.032 12.9397C137.995 19.2632 137.719 30.4936 137.719 30.4936C137.719 30.4936 160.007 42.9506 181.275 34.4328C195.339 28.8004 196.531 24.8093 196.531 24.8093H196.514Z" stroke="#61615F" stroke-width="1.2" stroke-linecap="round" stroke-linejoin="round"/>
<path d="M266.868 160.697C266.868 160.697 276.388 166.744 284.629 186.336C292.87 205.929 295.358 262.288 290.59 277.838" stroke="#61615F" stroke-width="1.2" stroke-linecap="round" stroke-linejoin="round"/>
<path d="M235.99 147.739C235.99 147.739 286.527 167.902 288.859 170.234" stroke="#61615F" stroke-width="1.2" stroke-linecap="round" stroke-linejoin="round"/>
<path d="M304.395 120.544C283.091 125.727 243.993 122.686 228.702 118.108C203.84 110.678 134.506 80.8231 137.702 22.7191C138.479 8.62073 143.092 2.64273 143.092 2.64273C147.118 -3.69809 175.92 13.5793 182.26 17.0348C188.601 20.4903 236.978 46.9766 245.029 50.4321C253.081 53.8876 293.976 78.076 293.976 78.076" stroke="#61615F" stroke-width="1.2" stroke-linecap="round" stroke-linejoin="round"/>
<path d="M290.628 150.112C311.147 157.415 315.009 143.859 295.344 136.86L263.271 123.06L241.945 121.245L221.526 116.709L200.2 107.633L183.411 97.317L147.007 84.0652C147.007 84.0652 123.561 79.5734 122.648 82.1383C121.735 84.7032 142.291 97.3172 142.291 97.3172L290.628 150.112Z" fill="#950000" stroke="#61615F"/>
<path d="M127.411 87.7143L129.541 81.7295C129.541 81.7295 119.045 75.694 117.086 80.1864C115.091 84.7603 127.411 87.7143 127.411 87.7143Z" fill="#61615F"/>
</svg>
