<?xml version="1.0" encoding="UTF-8"?>
<svg id="Layer_1" xmlns="http://www.w3.org/2000/svg" version="1.1" viewBox="0 0 481 521.14">
  <!-- Generator: Adobe Illustrator 29.5.1, SVG Export Plug-In . SVG Version: 2.1.0 Build 141)  -->
  <defs>
    <style>
      .st0, .st1 {
        fill: #918f8e;
      }

      .st2 {
        fill: #fcfcfd;
      }

      .st3, .st4 {
        isolation: isolate;
      }

      .st5 {
        fill: #d4d4d6;
      }

      .st6, .st7 {
        fill: #61615f;
      }

      .st8, .st4 {
        fill: #eae9ea;
      }

      .st4 {
        mix-blend-mode: multiply;
        opacity: .39;
      }

      .st7, .st1, .st9 {
        stroke: #61615f;
        stroke-linecap: round;
        stroke-linejoin: round;
        stroke-width: 1.2px;
      }

      .st9 {
        fill: none;
      }
    </style>
  </defs>
  <g class="st3">
    <g id="coda">
      <path class="st1" d="M283.12,364.95s75.14-2.43,77.08,14.5c2.06,17.92-49.23,15.77-49.23,15.77,0,0,36.51-3.89,36.6-12.42.12-11.78-62.4-4.6-62.4-4.6l-2.05-13.25h0Z"/>
    </g>
    <g id="corpo_colore_sfondo">
      <path class="st2" d="M146.46,167.11s5.27-7.71,10.52-10.91c5.25-3.21,13.14-7.22,20.21-8.48,7.07-1.26,12.21-2.41,16.46-.7s12.73,5.72,12.73,5.72l27.3-14.41s40.75-21.73,42.54-20.93c1.8.8,8.53,18.15,2.21,29.05s-13.51,20.02-21.76,25.06c-8.24,5.04-19.71,11.13-19.71,11.13l10.22,5.38s-19.33,12.7-27,15.81c-7.67,3.12-15.33,6.28-15.33,6.28,0,0-7.34,7.47-9.43,16.25s-4.43,27.38-4.43,33.34c0,10.18,1.3,18.49,1.3,18.49,0,0,1.79,10.98,12.11,18.64,7.75,5.75,14.54,15.28,22.58,18.51,0,0,12.12,3.13,18.99,4.49,6.88,1.37,16.96,4.36,24.58,12.02,5.9,5.94,17.97,17.39,17.47,37.11-.31,12.24-3.05,19.23-5.81,23.38-2.7,4.05-5.69,4.85-12.36,8.8-4.12,2.44-7.91,6.12-8.3,7.65-.4,1.53-1.37,6.12-2.53,6.82-1.16.7-5.93,1.26-9.78,1.25-3.85,0-10.23.79-13.05-1.25-3.15-2.27-3.16-5.21-1.34-7.65s5.39-7.46,5.39-7.46l-18.46-1.61-18.46-3.59s0,4.64,8.7,11.72c2.73,2.22,2.28,6.46-.42,7.67s-12.28,2.14-16.19,1.62c-3.9-.51-10.79-.35-11.98-2.88s.43-7.83.8-11.73-1.62-14.34-1.62-14.34c0,0-12.95-5.17-16.92-7.5-4.04-2.37-8.17-5.01-8.17-5.01,0,0-.89,12.93.36,16.41s2.74,6.56,1.82,7.59c-.92,1.03-3.19.97-5.99,1.56s-13.12.29-16.86.72-7.39-.19-6.39-2.74,9.34-9.69,9.34-9.69c0,0-7.1-42.41-6.89-51.21s-.12-15.06,4-22.82c4.11-7.75,4.71-9.32,9.46-14.56,4.74-5.23,7.91-8.27,7.91-8.27,0,0,2.57-9.21,2.71-16.65.14-7.44-.62-20.97-1.77-27.98-1.16-7.01-1.5-8.98-1.5-8.98,0,0-8.4-28.52-8.79-45.41-.38-16.9,1.54-25.72,1.54-25.72h0Z"/>
    </g>
    <g id="collare">
      <path class="st0" d="M150.43,276.67l.23,12.95s15.01,3.92,21.79,3.97c9.14.07,16.88-1.1,21.2-2.32,4.31-1.23,6.53-2.44,6.53-2.44v-13.9s-8.85,3.33-19.83,4.23c-10.98.89-13.52.81-19.39-.06-5.87-.87-10.52-2.43-10.52-2.43h-.01Z"/>
      <polygon class="st6" points="156.98 275.21 150.43 275.63 156.81 278.19 156.98 275.21"/>
      <path class="st6" d="M192.27,275.2l5.88-.19c.51-.02.65.59.18.75l-5.09,1.71c-.23.08-.48-.01-.58-.2l-.79-1.52c-.13-.25.08-.53.4-.54h0Z"/>
    </g>
    <g id="orecchie_naso_zampe">
      <path class="st0" d="M146.46,167.11s-8.91,9.71-12.96,13.74c-4.05,4.02-11.32,10.97-14.26,13.41s-7.03,5.58-8.37,7.93c-1.35,2.35-3.04,5.15-2.12,7.5s7.09,10.93,9.01,13.38,4.65,5.59,6.25,9.25c1.61,3.66,3.15,7.96,2.94,11.62s-1.13,6.66.52,7.75c1.65,1.09,6.91,1.49,10.15.34,3.25-1.15,10.69-4.56,13.86-9.85s7.63-16.73,7.66-22.65-.76-12.85-2.75-17.34c-1.99-4.49-7.25-16.84-8.4-22.41s-1.53-12.67-1.53-12.67h0Z"/>
      <path class="st0" d="M247.1,131.04s7.79-4.79,15.26-8.37c7.47-3.58,12.07-6.06,13.86-5.26,1.8.8,3.81,3.98,4.15,6.76.34,2.78.76,10.16.76,10.16,0,0-3.05,2.15-8.07,3.01s-11.34,1.39-15.04,0c-3.7-1.39-6.35-2.52-8.53-3.96-2.18-1.44-2.4-2.34-2.4-2.34h.01Z"/>
      <path class="st8" d="M184.26,403.42s4.85-2.66,7.25-2.79,11.68,1.08,11.68,1.08l4.44,1.19s5.02,4.29,5.57,5.89,2.81,2.64,0,4.48-10.98,4.43-14.39,3.74-12.57-.25-14.55-2.61-1.65-1.27-1.32-4.02,1.32-6.95,1.32-6.95h0Z"/>
      <path class="st8" d="M239.01,401.98s4.15-2.69,7.23-3.21,5.01-.89,7.17-.26,4.82.56,6.33,3.5,1.8,6.79,1.8,6.79c0,0-.15,1.63-1.04,3.87s-3.19,3.96-6.47,4.09-13.14,1.44-16.02-.29-5.24-2.72-3.85-6.08,4.84-8.4,4.84-8.4h0Z"/>
      <path class="st8" d="M139.3,389.06s-7.23,4.96-8.23,7.44-.26,4.88,3.33,5.21,15.74-.65,18.31-.81,6.84-.2,7-2.03.04-4.41-2.97-4.81-7.6,1.25-9.58.39-7.84-5.39-7.84-5.39h-.02Z"/>
    </g>
    <g id="lingua">
      <path class="st5" d="M203.52,188.02s12.43,5.84,19.1,12.5c6.67,6.65,7.18,13.82,7.67,15.68.49,1.86,6.81,14.54,13.55,16.85,8.29,2.84,21.18,3.12,23.78-12.51,2.6-15.63-4.35-22.43-7.33-24.9-2.98-2.46-15.78-9.86-15.78-9.86l-7.56-3.13s-5.65,2.24-11.33,3.17-22.11,2.2-22.11,2.2h0Z"/>
    </g>
    <g id="ombre">
      <path class="st4" d="M185.93,146.46c-8.66.41-22.05,5.11-25.26,13.16-3.2,8.05-1.27,17.9,4.74,24.14,11.73,12.18,10.78,31.68,8.4,48.43-.89,6.25-2.49,12.4-2.86,18.7s.62,12.96,4.39,18.01c3.78,5.06,9.84,10.99,15.68,8.59-11.41,3.6-22.41,4.31-34.04,1.52.07-12.6-1.15-27.85-3.7-40.18-4.88,9.07-15.66,14.58-25.87,13.24.76-11.02-3.31-22.29-10.93-30.28-3.7-3.88-7.66-8.4-7.4-13.76.28-5.76,5.29-10,9.88-13.48-.03-1.43.99-2.81,2.37-3.21-2.25,3.76-2.92,8.44-1.82,12.68,1.99,7.67,9,12.79,15.54,17.26,3,2.05,6.7,4.2,10.06,2.8,5.63-2.35,8.76-8.72,9-14.81.24-6.1-1.89-12.02-4.14-17.69s-2.97-9.51-3.42-15.6c-.44-6.09,1.81-14.1,6.78-17.64,9.14-6.49,20.85-10.47,32.6-11.87h0Z"/>
      <path class="st4" d="M204.79,182.09c26.45-3.12,50.92-19.93,63.32-43.5,3.99-.93,7.98-1.87,11.97-2.8-.6,7.14-2.65,14.53-6.98,20.24-4.33,5.71-10.08,11.15-16,15.18-19.38,13.19-44.08,18.25-67.46,16.54-1.11-.08-2.32-.23-3.07-1.04-1.07-1.16-.6-3.15.56-4.22s2.77-1.45,4.31-1.8l13.35,1.4h0Z"/>
      <path class="st4" d="M225.11,186.16c2.93,12.06,9.94,23.55,19.68,31.25,3.21,2.53,6.79,4.76,10.79,5.6,4,.85,8.69.99,11.96-2.09-2.53,8.43-6.95,12.11-13.63,13.32-6.68,1.2-15.1-2.55-19.16-7.99-3.66-4.89-4.13-12.56-6.6-18.15-3.58-8.1-14.07-16.12-23.75-19.35,10.11-1.56,14.89-1.88,20.71-2.59h0Z"/>
      <path class="st4" d="M172.15,294.72c-8.16-1.47-16.32-2.93-24.48-4.4l.96-14.49c10.4,5.31,20.44,5.14,31.67,4.14-.98,2.02-3.6,3.59-4.93,5.57-1.83,2.72-2.99,5.9-3.22,9.18h0Z"/>
      <path class="st4" d="M186.58,186.71l-1.92-.27-.33,3.2,1.06,3.19s8.25-2.4,15.79.99,9.57,13.98,9.57,13.98l12.89-5.62s-6.49-6.82-14.69-11.2c-4.59-2.46-6.47-2.98-6.47-2.98l-15.91-1.3h0Z"/>
      <path class="st4" d="M184.26,279.29s-9.13,1.91-8.96,8.15c.18,6.23,5,6.77,5,6.77,0,0-9.05-.05-16.32-1.26-7.27-1.21-13.33-3.32-13.33-3.32l-.23-13.99s-2.62.88,5,2.5,16.6.94,20.74,1.39,8.1-.23,8.1-.23h0Z"/>
      <path class="st4" d="M187.92,293.67s-7.01-.36-14.92,8.69-15.25,22.84-11.36,39.12c3.9,16.28,32.08,33.01,32,33.69s-.83,19.22,0,24.19-2.65,10.52-2.39,13.49,1.4,3.62,1.4,3.62c0,0-7.06,1.44-8.39-2.06-1.33-3.5,0-10.98,0-10.98l-1.66-16.4-14.54-5.89-13.35-8.56-7.05-6.58s-1.14,13.46,0,19.34-3.21,11.85-2.5,13.79l.7,1.94s-12.68,2.05-13.79.65c-1.11-1.4-3.34-2.38-1.01-5.21,2.33-2.84,8.73-7.79,8.73-7.79,0,0-3.97-26.01-5.18-35.25s-3.33-24.1-.11-32.51,8.27-17.18,13.17-22.34c4.9-5.16,7.76-7.18,7.76-7.18,0,0,15.53,2.55,21.19,2.25s11.31,0,11.31,0v-.02Z"/>
      <path class="st4" d="M236.54,346.79s1.75,1.01,3.7,13.45,26.87,18.31,26.87,18.31c0,0,8.09,7.01,2.44,11.31s-16.11,7.01-21.06,13.11c-4.94,6.1,5.56,13.78,5.56,13.78,0,0-9.38,2.17-14.4-.22-5.01-2.39-7.61-1.52-5.48-6.15,2.14-4.64,14.32-18.03,14.32-18.03,0,0-14.53-7.63-16.74-17.94-2.21-10.32-2.53-16.2,0-20.94,2.53-4.75,4.79-6.67,4.79-6.67h0Z"/>
    </g>
    <g id="TRACCIATO">
      <path class="st9" d="M184.66,186.45c12.33,3,34.96,1.24,43.81-1.41,14.39-4.3,54.52-21.58,52.67-55.21-.45-8.16-3.12-11.62-3.12-11.62-2.33-3.67-19,6.33-22.67,8.33s-31.67,17.33-36.33,19.33-28.33,16-28.33,16"/>
      <path class="st9" d="M185.39,192.83s-4.38-7.12,4.12-11"/>
      <path class="st7" d="M169.93,161.75c0,.94-.95,1.71-2.12,1.71s-2.12-.76-2.12-1.71.95-1.71,2.12-1.71,2.12.76,2.12,1.71Z"/>
      <path class="st9" d="M201.18,188.08c3.68.09,27.25,11,28.67,25.3.95,9.6,7.5,17.17,14,19.67,6.5,2.5,14.17,2.67,20.17-4.83s5.13-19.3.33-27.7c-5.92-10.35-27.38-17.87-27.38-17.87"/>
      <path class="st9" d="M225.63,185.82s28.24,9.39,29.21,29.39"/>
      <path class="st9" d="M156.98,277.77c.77-15.44-1.04-26.83-3.21-39.14"/>
      <path class="st9" d="M146.46,146.46s1.5-13.75,14.5-8.75"/>
      <path class="st9" d="M185.76,134.58s3.08-5.25,10.17,0"/>
      <path class="st9" d="M153.27,291.86s-8.81,8.54-15.27,20.33c-9.11,16.61-3.75,35.91-1.88,51.98.52,4.43,2.65,17.15,3.67,24.54-1.05.17-6.5,4.79-7.81,6.42-3.17,3.95-1.12,6.9,3.15,6.56,13.18-1.07,11.14-.34,16.63-.73,4.91-.35,9.66.05,7.66-5.29-2-5.33-3.02-7.84-1.91-20.81"/>
      <path class="st9" d="M140.68,356.21s9.09,20.48,41.92,30.81"/>
      <path class="st9" d="M180.35,376.54s4.67,19,3.83,25.67c-.83,6.67-3.33,12.17,2.5,13.17s15.68,1.61,20.68.45,7.54-2.86,6.04-6.61c-1.27-3.19-6.72-6.33-8.55-9.5s-3-12.17-3-16.67"/>
      <path class="st9" d="M191.51,415.81s-1.5-3.27,0-5.43"/>
      <path class="st9" d="M203.32,395.23c6.82.81,20.94,5.51,36.92,5.27"/>
      <path class="st9" d="M255.82,386.54s-11.47,8-18.13,17.17c-6.67,9.17-3.67,12.5,3.67,13,7.34.5,15.43-.3,16.89-.9,3.15-1.29,1.64-3.8,3.31-7.02,0,0-.17-2.93,17.29-13.18,15.19-10.15,14.83-62.09-25.99-74.41-5.3-1.6-23.81-4.13-29.07-7.26-3.04-1.81-13.63-11.94-26.82-23.91"/>
      <path class="st9" d="M239.65,416.53s-1.05-3.98,2.2-7.73"/>
      <path class="st9" d="M250.77,416.89s-2.25-3.59,1.25-8.09"/>
      <path class="st9" d="M232.69,351.65c-3.25,6.75-9.6,23.74,15.8,40.7"/>
      <path class="st9" d="M150.43,275.63l.23,13.99s4.44,3.2,21.79,3.97,27.73-4.76,27.73-4.76v-13.9s-2.52,3.6-24.87,4.49c-22.35.89-24.88-3.79-24.88-3.79h0Z"/>
      <path class="st9" d="M205.29,410.38s1.09,1.2,1.09,2.72-.55,2.72-.55,2.72"/>
      <path class="st9" d="M192.65,274.93c6.19-.01,7.53,0,7.53,0"/>
      <path class="st9" d="M150.43,275.63s2.25-.22,6.55-.42"/>
      <path class="st9" d="M206.38,152.74c-5.2-.4-9.61-7.97-22.11-6.28-13.66,1.85-24.89,6.53-31.8,13.58-6.91,7.05-10.48,10.5,4.52,43.44,5.94,13.05,1.07,47.07-24.03,49.39-1.2.11-2.21.11-3.06.04-2.14-.17-3.63-2.18-3.3-4.29.51-3.25.79-8.67-1.51-14.04-7.49-17.46-27-23.27-8.79-37.89,13.57-10.89,30.86-30.57,30.86-30.57"/>
      <path class="st9" d="M247.1,131.04s10.24-5.87,15.26-8.37c5.02-2.5,12.07-6.06,13.86-5.26,1.8.8,3.55,3.1,4.15,6.76.6,3.66.76,10.16.76,10.16,0,0-12.9,7.21-25.21,2.28-8.14-3.26-8.83-5.57-8.83-5.57h.01Z"/>
      <path class="st9" d="M206.38,209.69s-5.51,3.5-10.28,14.84-6.21,43.96-3.45,52.96"/>
      <path class="st9" d="M224.25,202.19s-29.25,11.67-30.6,13.02"/>
      <path class="st9" d="M184,403.5s2.96-2.99,9.91-2.99c6.39,0,13.73,2.39,13.73,2.39"/>
      <path class="st9" d="M239.01,401.98s7.03-5.01,14.41-3.47c9.61,2.01,8.13,10.29,8.13,10.29"/>
      <path class="st9" d="M139.8,388.71s5.84,7.83,10.86,5.57,8.78,1.4,8.78,1.4"/>
    </g>
  </g>
</svg>